<?xml version="1.0" encoding="UTF-8" standalone="no"?>
<!-- Created with Inkscape (http://www.inkscape.org/) -->

<svg
   version="1.1"
   id="svg1"
   width="184.06245"
   height="132.39282"
   viewBox="0 0 184.06245 132.39282"
   xml:space="preserve"
   xmlns="http://www.w3.org/2000/svg"
   xmlns:svg="http://www.w3.org/2000/svg"><defs
     id="defs1" /><g
     id="layer-MC0"
     transform="translate(1463.6987,-907.07381)"
     style="display:inline"><g
       id="g613"
       transform="matrix(0.72449203,0,0,0.72449203,717.3879,-169.46842)"><ellipse
         style="fill:#252525;fill-opacity:1;stroke:none;stroke-width:14.5247;stroke-dasharray:none;stroke-opacity:1;paint-order:markers stroke fill"
         id="path613"
         cx="-2887.7598"
         cy="1577.2949"
         rx="88.521072"
         ry="91.368088" /><path
         id="path612"
         style="fill:#ffffff;stroke-width:6.458;paint-order:markers stroke fill"
         d="m -2870.216,1505.7079 c -3.29,-0.3738 -15.5303,-0.3654 -18.7324,0.018 -5.6923,0.6795 -14.146,2.2691 -16.0508,3.0176 -0.3038,0.1194 -1.4857,0.4899 -2.625,0.8223 -7.9891,2.3312 -18.5617,7.6005 -25.1348,12.5293 -10.4443,7.8317 -18.6566,17.8801 -23.0625,28.2148 0.8998,-2.1105 1.9583,-4.2091 3.1621,-6.2793 -0.6599,-0.3959 -1.4967,-0.8378 -2.5332,-1.3711 -4.5412,-2.337 -4.7779,-2.6707 -5.5195,-7.8242 -1.4742,-10.2432 -7.9787,-17.0446 -16.9766,-17.75 -0.6504,-0.051 -1.2914,-0.072 -1.9199,-0.062 v 0 c -9.4268,0.1088 -16.2735,6.6793 -17.4414,17.002 -0.6017,5.3182 -1.2403,6.6529 -5.5195,11.543 -2.8789,3.29 -5.0995,6.9198 -5.4824,8.9609 -1.6846,8.9794 2.0708,17.3998 9.2832,20.8223 5.4463,2.5844 14.8376,1.7151 19.4472,-1.8008 1.9587,-1.4941 4.2711,-2.7168 5.1368,-2.7168 0.8657,0 4.8601,1.5751 8.8769,3.5 1.8024,0.8637 3.2753,1.5535 4.4727,2.0762 0.061,1.0649 0.1634,2.2224 0.3066,3.5937 0.4549,4.3514 0.5171,4.7305 1.4414,8.5606 1.1688,4.8434 2.9424,9.505 5.332,14.0117 -3.2909,1.3542 -5.8019,2.2465 -6.416,2.2402 -0.9776,-0.01 -3.7575,-1.36 -6.1777,-3 -2.9974,-2.031 -6.5119,-3.1204 -9.9824,-3.2246 -0.4958,-0.015 -0.9901,-0.01 -1.4825,0.016 -2.3634,0.1222 -4.6683,0.7103 -6.7363,1.7793 -3.4753,1.7966 -8.7157,7.8715 -9.5058,11.0195 -1.2681,5.0526 0.1634,12.1668 3.207,15.9395 5.859,7.2623 7.4007,9.8413 7.4062,12.3867 0.016,7.7224 6.3546,17.2687 12.209,18.3906 4.9109,0.9411 9.9096,0.6461 13.5254,-0.8007 6.3356,-2.535 11.2598,-10.4862 11.2598,-18.1797 0,-3.145 0.4205,-3.5948 5.75,-6.1465 6.609,-3.1644 9.1055,-4.281 9.5703,-5.334 1.7566,1.2591 3.4478,2.3542 4.9551,3.1875 1.3518,0.7473 1.3262,0.5266 0.5703,4.9492 -0.1688,0.9873 -0.4082,2.416 -0.5313,3.1758 -0.2097,1.2875 -0.5566,3.2354 -1.1054,6.2149 -0.3177,1.7247 -0.7286,4.1168 -1.211,7.0429 -0.2254,1.3673 -0.5335,3.1843 -0.6836,4.0371 -0.3279,1.8592 -0.087,3.0905 0.9414,4.8457 1.3296,2.2689 3.3676,3.9745 6.752,5.6524 1.8468,0.9154 2.1167,0.7598 2.3496,-1.3653 0.2723,-2.4877 0.9813,-7.0289 1.1348,-7.2793 0.2394,-0.3871 0.8699,-0.2532 1.0527,0.2247 0.096,0.2495 0.2997,2.0202 0.4531,3.9355 0.3137,3.9083 0.5714,5.1063 1.2617,5.8691 l 0.01,-0.016 c 0.4439,0.4912 0.8817,0.5203 6.707,0.4512 l 6.2325,-0.074 0.3398,-0.709 c 0.1869,-0.39 0.5329,-2.2538 0.7695,-4.1426 0.4379,-3.496 0.8021,-5.4291 1.0723,-5.6992 0.083,-0.081 0.3241,-0.083 0.5371,0 0.4773,0.1833 0.7422,1.4279 0.7422,3.4941 10e-5,3.2976 0.8915,6.8593 1.7715,7.0742 0.3164,0.083 3.6069,0.1077 7.3125,0.064 l 6.7383,-0.08 0.5468,-0.7324 c 0.4316,-0.5782 0.643,-1.6655 1.0039,-5.1719 0.2513,-2.442 0.5985,-4.5809 0.7715,-4.7539 0.6765,-0.6765 1.2613,1.5856 1.9004,7.3438 0.1011,0.9115 0.3516,2.0634 0.5547,2.5605 l 0.3692,0.9043 5.3242,-0.074 5.3261,-0.076 0.3985,-0.8281 c 0.4538,-0.9427 1.0931,-5.318 1.1133,-7.6113 0.01,-0.8446 0.1752,-1.7587 0.373,-2.0293 0.3257,-0.4452 0.3953,-0.4488 0.7227,-0.055 0.4028,0.4854 1.1092,4.1187 1.1328,5.8281 0.015,1.128 0.6142,3.9964 0.9472,4.5352 0.242,0.3996 3.7692,0.394 5.2305,0 4.1698,-1.1247 7.3009,-4.2346 8.1856,-8.1289 0.2007,-0.8864 0.3096,-4.8096 0.291,-11.125 -0.012,-5.366 0.053,-10.0425 0.1386,-10.3907 0.1113,-0.4431 0.5047,-0.7427 1.3125,-0.998 3.2969,-1.0429 12.1754,-5.2949 15.045,-7.2051 0.562,-0.3741 1.0705,-0.6788 1.2558,-0.7598 -0.129,0.4006 -0.1828,0.6513 -0.1426,0.709 0.1801,0.1799 3.3042,1.6761 6.9434,3.3262 3.6392,1.6501 6.9645,3.5616 7.3887,4.248 0.4242,0.6864 1.1003,3.6825 1.5039,6.6563 1.6625,12.2514 14.0432,19.5189 25.1523,14.7656 6.1567,-2.6343 10.7188,-9.3281 10.7188,-15.7285 0,-3.6592 3.0151,-9.5693 6.5547,-12.8476 3.4666,-3.2107 4.4453,-5.9974 4.4453,-12.6622 0,-6.4614 -1.7815,-10.3691 -6.25,-13.7168 -3.3322,-2.4964 -6.6753,-3.7952 -10.1934,-3.9023 v 0 c -3.5182,-0.1071 -7.2115,0.9774 -11.2383,3.25 -4.5129,2.5469 -6.0818,3.2867 -10.6465,1.5957 -0.1451,0.2504 -0.2951,0.5037 -0.4512,0.7598 -0.7012,1.15 -1.5111,2.3533 -2.4004,3.5781 -0.056,0.078 -0.1344,0.1566 -0.1914,0.2344 0.9542,-1.3027 1.8483,-2.5923 2.5918,-3.8125 0.2492,-0.4089 0.4842,-0.8109 0.7051,-1.2051 4.3703,-7.7976 6.7339,-14.6779 7.9922,-23.2754 0.3723,-2.5788 0.3757,-12.2038 0,-14.7871 -0.7326,-5.0367 -2.2697,-11.1621 -3.5469,-14.1406 1.2772,2.9785 2.8143,9.1039 3.5469,14.1406 0.1833,1.2606 0.2773,4.1986 0.2812,7.1758 3.9791,-1.8207 7.6074,-3.2655 8.1934,-3.2559 0.6101,0.01 3.0895,1.36 5.5098,3 3.7122,2.5155 5.3697,2.9805 10.6015,2.9805 10.8039,0 17.4981,-6.5843 17.4981,-17.2129 0,-6.7075 -0.7549,-8.5117 -6.1309,-14.6504 -2.2028,-2.5155 -4.0436,-5.7978 -4.3457,-7.75 -0.2882,-1.8626 -0.7656,-4.9485 -1.0625,-6.8574 -1.0824,-6.9591 -9.5622,-13.5293 -17.4609,-13.5293 -9.2064,0 -18,8.3124 -18,17.0156 0,3.7793 -1.0663,5.9335 -4.2266,7.9492 0.2499,0.3929 0.4942,0.7874 0.7344,1.1836 0.6435,1.0613 1.2529,2.1346 1.8262,3.2188 0.7873,1.4889 1.5073,2.9974 2.1543,4.5215 -1.1179,-2.6335 -2.4526,-5.2212 -3.9805,-7.7403 -6.4622,-10.6541 -16.3988,-20.0807 -28.1895,-26.5508 -5.8019,-3.1837 -12.7477,-6.0519 -18.08,-7.4668 -0.5316,-0.1409 -1.3392,-0.3598 -1.795,-0.4863 -3.9208,-1.0818 -9.7153,-2.1368 -15.2089,-2.7676 z m -45.0781,51.9981 c 1.2612,0.072 2.5432,0.2365 3.8379,0.4961 11.5993,2.3253 20.6343,9.7863 23.7226,19.5898 0.7762,2.4638 0.9152,6.8693 0.3008,9.5293 -0.4318,1.8705 -2.3841,6.1413 -3.4668,7.586 -3.406,4.5444 -8.5739,7.9152 -14.4336,9.414 -2.4093,0.6168 -7.1479,0.8822 -9.7656,0.5488 -2.2768,-0.29 -6.2375,-1.6085 -8.4531,-2.8144 -6.868,-3.7384 -11.9452,-10.6648 -13.8946,-18.9551 -0.4075,-1.7342 -0.4582,-8.6119 -0.07,-9.6738 0.1494,-0.4099 0.4304,-1.3046 0.625,-1.9883 0.1948,-0.6837 0.7681,-2.0497 1.2754,-3.0371 3.7008,-7.2047 11.4939,-11.2002 20.3223,-10.6953 z m 69.957,3.3789 c 2.4744,0 4.923,0.1294 5.9316,0.3769 4.9812,1.222 8.2741,2.7612 11.4688,5.3594 4.6893,3.8139 7.2436,8.0212 8.5723,14.125 0.8044,3.6952 0.2179,10.1478 -1.2305,13.5567 -3.3372,7.8548 -9.0901,13.0033 -16.8594,15.0859 -2.3147,0.6204 -7.6722,0.9013 -10.2363,0.5371 -11.2656,-1.6007 -21.2502,-9.0809 -24.8066,-18.5859 -2.1983,-5.8748 -1.8917,-11.0467 0.9843,-16.6153 2.249,-4.3543 7.0239,-8.594 12.418,-11.0254 1.2474,-0.5623 2.3984,-1.0234 2.5586,-1.0234 0.1597,0 0.5058,-0.1114 0.7695,-0.248 0.5236,-0.2721 1.7873,-0.6145 4.3477,-1.1797 1.1088,-0.244 3.6077,-0.3647 6.082,-0.3614 z m 31.0508,54.3711 c -2.2808,2.5822 -4.6773,5.0636 -7.0918,7.1406 2.401,-2.0654 4.8215,-4.5739 7.0918,-7.1406 z m -73.9805,4.334 c 4.7044,0.1113 9.0841,2.5165 11.1621,6.6172 1.0274,2.0299 1.0516,4.9754 0.061,7.207 -1.2248,2.755 -4.2554,5.2343 -7.6582,6.2637 -1.3725,0.4133 -4.6121,0.5986 -6.0762,0.3437 -2.8103,-0.4891 -5.0473,-1.5476 -6.9434,-3.2812 -3.3294,-3.0442 -4.1311,-7.2942 -2.0937,-11.1133 0.7989,-1.4968 3.4778,-3.9615 5.1191,-4.711 2.0861,-0.9525 4.2914,-1.3767 6.4297,-1.3261 z" /><path
         id="path612-4"
         style="display:inline;fill:#737373;fill-opacity:1;stroke-width:6.458;paint-order:markers stroke fill"
         d="m -2872.2687,1502.5122 c -3.29,-0.3738 -15.5303,-0.3654 -18.7324,0.018 -5.6923,0.6795 -14.146,2.2691 -16.0508,3.0176 -0.3038,0.1194 -1.4857,0.4899 -2.625,0.8223 -7.9891,2.3312 -18.5617,7.6005 -25.1348,12.5293 -10.4443,7.8317 -18.6566,17.8801 -23.0625,28.2148 0.8998,-2.1105 1.9583,-4.2091 3.1621,-6.2793 -0.6599,-0.3959 -1.4967,-0.8378 -2.5332,-1.3711 -4.5412,-2.337 -4.7779,-2.6707 -5.5195,-7.8242 -1.4742,-10.2432 -7.9787,-17.0446 -16.9766,-17.75 -0.6504,-0.051 -1.2914,-0.072 -1.9199,-0.062 v 0 c -9.4268,0.1088 -16.2735,6.6793 -17.4414,17.002 -0.6017,5.3182 -1.2403,6.6529 -5.5195,11.543 -2.8789,3.29 -5.0995,6.9198 -5.4824,8.9609 -1.6846,8.9794 2.0708,17.3998 9.2832,20.8223 5.4463,2.5844 14.8376,1.7151 19.4472,-1.8008 1.9587,-1.4941 4.2711,-2.7168 5.1368,-2.7168 0.8657,0 4.8601,1.5751 8.8769,3.5 1.8024,0.8637 3.2753,1.5535 4.4727,2.0762 0.061,1.0649 0.1634,2.2224 0.3066,3.5937 0.4549,4.3514 0.5171,4.7305 1.4414,8.5606 1.1688,4.8434 2.9424,9.505 5.332,14.0117 -3.2909,1.3542 -5.8019,2.2465 -6.416,2.2402 -0.9776,-0.01 -3.7575,-1.36 -6.1777,-3 -2.9974,-2.031 -6.5119,-3.1204 -9.9824,-3.2246 -0.4958,-0.015 -0.9901,-0.01 -1.4825,0.016 -2.3634,0.1222 -4.6683,0.7103 -6.7363,1.7793 -3.4753,1.7966 -8.7157,7.8715 -9.5058,11.0195 -1.2681,5.0526 0.1634,12.1668 3.207,15.9395 5.859,7.2623 7.4007,9.8413 7.4062,12.3867 0.016,7.7224 6.3546,17.2687 12.209,18.3906 4.9109,0.9411 9.9096,0.6461 13.5254,-0.8007 6.3356,-2.535 11.2598,-10.4862 11.2598,-18.1797 0,-3.145 0.4205,-3.5948 5.75,-6.1465 6.609,-3.1644 9.1055,-4.281 9.5703,-5.334 1.7566,1.2591 3.4478,2.3542 4.9551,3.1875 1.3518,0.7473 1.3262,0.5266 0.5703,4.9492 -0.1688,0.9873 -0.4082,2.416 -0.5313,3.1758 -0.2097,1.2875 -0.5566,3.2354 -1.1054,6.2149 -0.3177,1.7247 -0.7286,4.1168 -1.211,7.0429 -0.2254,1.3673 -0.5335,3.1843 -0.6836,4.0371 -0.3279,1.8592 -0.087,3.0905 0.9414,4.8457 1.3296,2.2689 3.3676,3.9745 6.752,5.6524 1.8468,0.9154 2.1167,0.7598 2.3496,-1.3653 0.2723,-2.4877 0.9813,-7.0289 1.1348,-7.2793 0.2394,-0.3871 0.8699,-0.2532 1.0527,0.2247 0.096,0.2495 0.2997,2.0202 0.4531,3.9355 0.3137,3.9083 0.5714,5.1063 1.2617,5.8691 l 0.01,-0.016 c 0.4439,0.4912 0.8817,0.5203 6.707,0.4512 l 6.2325,-0.074 0.3398,-0.709 c 0.1869,-0.39 0.5329,-2.2538 0.7695,-4.1426 0.4379,-3.496 0.8021,-5.4291 1.0723,-5.6992 0.083,-0.081 0.3241,-0.083 0.5371,0 0.4773,0.1833 0.7422,1.4279 0.7422,3.4941 1e-4,3.2976 0.8915,6.8593 1.7715,7.0742 0.3164,0.083 3.6069,0.1077 7.3125,0.064 l 6.7383,-0.08 0.5468,-0.7324 c 0.4316,-0.5782 0.643,-1.6655 1.0039,-5.1719 0.2513,-2.442 0.5985,-4.5809 0.7715,-4.7539 0.6765,-0.6765 1.2613,1.5856 1.9004,7.3438 0.1011,0.9115 0.3516,2.0634 0.5547,2.5605 l 0.3692,0.9043 5.3242,-0.074 5.3261,-0.076 0.3985,-0.8281 c 0.4538,-0.9427 1.0931,-5.318 1.1133,-7.6113 0.01,-0.8446 0.1752,-1.7587 0.373,-2.0293 0.3257,-0.4452 0.3953,-0.4488 0.7227,-0.055 0.4028,0.4854 1.1092,4.1187 1.1328,5.8281 0.015,1.128 0.6142,3.9964 0.9472,4.5352 0.242,0.3996 3.7692,0.394 5.2305,0 4.1698,-1.1247 7.3009,-4.2346 8.1856,-8.1289 0.2007,-0.8864 0.3096,-4.8096 0.291,-11.125 -0.012,-5.366 0.053,-10.0425 0.1386,-10.3907 0.1113,-0.4431 0.5047,-0.7427 1.3125,-0.998 3.2969,-1.0429 12.1754,-5.2949 15.045,-7.2051 0.562,-0.3741 1.0705,-0.6788 1.2558,-0.7598 -0.129,0.4006 -0.1828,0.6513 -0.1426,0.709 0.1801,0.1799 3.3042,1.6761 6.9434,3.3262 3.6392,1.6501 6.9645,3.5616 7.3887,4.248 0.4242,0.6864 1.1003,3.6825 1.5039,6.6563 1.6625,12.2514 14.0432,19.5189 25.1523,14.7656 6.1567,-2.6343 10.7188,-9.3281 10.7188,-15.7285 0,-3.6592 3.0151,-9.5693 6.5547,-12.8476 3.4666,-3.2107 4.4453,-5.9974 4.4453,-12.6622 0,-6.4614 -1.7815,-10.3691 -6.25,-13.7168 -3.3322,-2.4964 -6.6753,-3.7952 -10.1934,-3.9023 v 0 c -3.5182,-0.1071 -7.2115,0.9774 -11.2383,3.25 -4.5129,2.5469 -6.0818,3.2867 -10.6465,1.5957 -0.1451,0.2504 -0.2951,0.5037 -0.4512,0.7598 -0.7012,1.15 -1.5111,2.3533 -2.4004,3.5781 -0.056,0.078 -0.1344,0.1566 -0.1914,0.2344 0.9542,-1.3027 1.8483,-2.5923 2.5918,-3.8125 0.2492,-0.4089 0.4842,-0.8109 0.7051,-1.2051 4.3703,-7.7976 6.7339,-14.6779 7.9922,-23.2754 0.3723,-2.5788 0.3757,-12.2038 0,-14.7871 -0.7326,-5.0367 -2.2697,-11.1621 -3.5469,-14.1406 1.2772,2.9785 2.8143,9.1039 3.5469,14.1406 0.1833,1.2606 0.2773,4.1986 0.2812,7.1758 3.9791,-1.8207 7.6074,-3.2655 8.1934,-3.2559 0.6101,0.01 3.0895,1.36 5.5098,3 3.7122,2.5155 5.3697,2.9805 10.6015,2.9805 10.8039,0 17.4981,-6.5843 17.4981,-17.2129 0,-6.7075 -0.7549,-8.5117 -6.1309,-14.6504 -2.2028,-2.5155 -4.0436,-5.7978 -4.3457,-7.75 -0.2882,-1.8626 -0.7656,-4.9485 -1.0625,-6.8574 -1.0824,-6.9591 -9.5622,-13.5293 -17.4609,-13.5293 -9.2064,0 -18,8.3124 -18,17.0156 0,3.7793 -1.0663,5.9335 -4.2266,7.9492 0.2499,0.3929 0.4942,0.7874 0.7344,1.1836 0.6435,1.0613 1.2529,2.1346 1.8262,3.2188 0.7873,1.4889 1.5073,2.9974 2.1543,4.5215 -1.1179,-2.6335 -2.4526,-5.2212 -3.9805,-7.7403 -6.4622,-10.6541 -16.3988,-20.0807 -28.1895,-26.5508 -5.8019,-3.1837 -12.7477,-6.0519 -18.08,-7.4668 -0.5316,-0.1409 -1.3392,-0.3598 -1.795,-0.4863 -3.9208,-1.0818 -9.7153,-2.1368 -15.2089,-2.7676 z m -45.0781,51.9981 c 1.2612,0.072 2.5432,0.2365 3.8379,0.4961 11.5993,2.3253 20.6343,9.7863 23.7226,19.5898 0.7762,2.4638 0.9152,6.8693 0.3008,9.5293 -0.4318,1.8705 -2.3841,6.1413 -3.4668,7.586 -3.406,4.5444 -8.5739,7.9152 -14.4336,9.414 -2.4093,0.6168 -7.1479,0.8822 -9.7656,0.5488 -2.2768,-0.29 -6.2375,-1.6085 -8.4531,-2.8144 -6.868,-3.7384 -11.9452,-10.6648 -13.8946,-18.9551 -0.4075,-1.7342 -0.4582,-8.6119 -0.07,-9.6738 0.1494,-0.4099 0.4304,-1.3046 0.625,-1.9883 0.1948,-0.6837 0.7681,-2.0497 1.2754,-3.0371 3.7008,-7.2047 11.4939,-11.2002 20.3223,-10.6953 z m 69.957,3.3789 c 2.4744,0 4.923,0.1294 5.9316,0.3769 4.9812,1.222 8.2741,2.7612 11.4688,5.3594 4.6893,3.8139 7.2436,8.0212 8.5723,14.125 0.8044,3.6952 0.2179,10.1478 -1.2305,13.5567 -3.3372,7.8548 -9.0901,13.0033 -16.8594,15.0859 -2.3147,0.6204 -7.6722,0.9013 -10.2363,0.5371 -11.2656,-1.6007 -21.2502,-9.0809 -24.8066,-18.5859 -2.1983,-5.8748 -1.8917,-11.0467 0.9843,-16.6153 2.249,-4.3543 7.0239,-8.594 12.418,-11.0254 1.2474,-0.5623 2.3984,-1.0234 2.5586,-1.0234 0.1597,0 0.5058,-0.1114 0.7695,-0.248 0.5236,-0.2721 1.7873,-0.6145 4.3477,-1.1797 1.1088,-0.244 3.6077,-0.3647 6.082,-0.3614 z m 31.0508,54.3711 c -2.2808,2.5822 -4.6773,5.0636 -7.0918,7.1406 2.401,-2.0654 4.8215,-4.5739 7.0918,-7.1406 z m -73.9805,4.334 c 4.7044,0.1113 9.0841,2.5165 11.1621,6.6172 1.0274,2.0299 1.0516,4.9754 0.061,7.207 -1.2248,2.755 -4.2554,5.2343 -7.6582,6.2637 -1.3725,0.4133 -4.6121,0.5986 -6.0762,0.3437 -2.8103,-0.4891 -5.0473,-1.5476 -6.9434,-3.2812 -3.3294,-3.0442 -4.1311,-7.2942 -2.0937,-11.1133 0.7989,-1.4968 3.4778,-3.9615 5.1191,-4.711 2.0861,-0.9525 4.2914,-1.3767 6.4297,-1.3261 z" /></g></g><pattern
     id="b-2"
     width="41"
     height="41"
     patternUnits="userSpaceOnUse"><circle
       fill="#ffffff"
       cx="20.5"
       cy="20.5"
       r="20.5"
       id="circle2" /></pattern></svg>
