<?xml version="1.0" encoding="UTF-8" standalone="no"?>
<!-- Created with Inkscape (http://www.inkscape.org/) -->

<svg
   version="1.1"
   id="svg1"
   width="151.66748"
   height="151.78333"
   viewBox="0 0 151.66748 151.78333"
   xml:space="preserve"
   xmlns:xlink="http://www.w3.org/1999/xlink"
   xmlns="http://www.w3.org/2000/svg"
   xmlns:svg="http://www.w3.org/2000/svg"><defs
     id="defs1"><linearGradient
       id="linearGradient1301"><stop
         style="stop-color:#3be13b;stop-opacity:0.76033056;"
         offset="0.2216"
         id="stop1533" /><stop
         style="stop-color:#3be13b;stop-opacity:0;"
         offset="0.9585492"
         id="stop1573" /></linearGradient><linearGradient
       xlink:href="#linearGradient1301"
       id="linearGradient1573"
       x1="-3235.2046"
       y1="1494.0162"
       x2="-3235.2046"
       y2="1677.4788"
       gradientUnits="userSpaceOnUse"
       gradientTransform="translate(0.65365505,16.447937)" /><filter
       style="color-interpolation-filters:sRGB"
       id="filter83"
       x="-0.070383198"
       y="-0.44232679"
       width="1.1407664"
       height="1.8846536"><feGaussianBlur
         stdDeviation="9.4516355"
         id="feGaussianBlur83" /></filter></defs><g
     id="layer-MC0"
     transform="translate(-1510.5106,-917.39591)"
     style="display:inline"><g
       id="g1301"
       transform="matrix(0.28256004,0,0,0.3181555,2497.2083,533.50651)"><path
         style="display:inline;fill:url(#linearGradient1573);stroke:none;stroke-width:10.4504;stroke-dasharray:none;stroke-opacity:1;paint-order:markers stroke fill"
         d="m -3304.6809,1530.4866 c 0,0 -34.0239,105.6639 -28.1517,119.4683 52.0186,42.7961 153.6576,45.5488 196.5636,4.336 3.6247,-7.5114 -29.0343,-121.6401 -29.0343,-121.6401 z"
         id="path1289" /><g
         id="g1300"
         style="display:inline"
         transform="matrix(0.21018741,0,0,0.16226655,2247.0818,868.05719)"><ellipse
           style="display:inline;fill:#000000;fill-opacity:1;stroke:none;stroke-width:75.5431;stroke-dasharray:none;stroke-opacity:1;paint-order:markers stroke fill"
           id="path1295"
           cx="-26309.188"
           cy="2379.2886"
           rx="76.480042"
           ry="83.918015" /><ellipse
           style="display:inline;fill:#000000;fill-opacity:1;stroke:none;stroke-width:75.5431;stroke-dasharray:none;stroke-opacity:1;paint-order:markers stroke fill"
           id="path1296"
           cx="-25751.064"
           cy="2405.0208"
           rx="71.464958"
           ry="81.854454" /><path
           style="display:inline;fill:#000000;fill-opacity:1;stroke:none;stroke-width:103.117;stroke-dasharray:none;stroke-opacity:1;paint-order:markers stroke fill"
           d="m -26330.716,2395.9694 83.858,122.0607 60.883,-65.0087 -82.35,-72.1351 z"
           id="path1297" /><path
           style="display:inline;fill:#000000;fill-opacity:1;stroke:none;stroke-width:75.5431;stroke-dasharray:none;stroke-opacity:1;paint-order:markers stroke fill"
           d="m -25866.839,2475.6199 c 0,0 43.362,-65.5082 80.975,-67.5716 37.614,-2.0634 18.655,55.1482 18.655,55.1482 0,0 -58.75,91.0228 -53.175,97.3053 5.575,6.2826 -48.438,-54.1649 -48.438,-54.1649 z"
           id="path1298" /><path
           d="m -26047.657,2416.2056 c -106.566,0 -238.992,137.0037 -291.8,285.8933 -57.424,161.9067 -99.756,236.0426 -99.755,426.6062 0,190.5636 42.331,373.3229 117.683,508.0737 75.351,134.7509 177.551,210.4556 284.116,210.4604 106.567,0 208.771,-75.7006 284.126,-210.4521 75.354,-134.7516 130.493,-230.0122 130.492,-420.5798 0,-190.5677 -37.281,-364.7201 -104.882,-505.0647 -88.16,-183.0286 -213.413,-294.9384 -319.98,-294.937 z"
           style="display:inline;fill:#00d308;fill-opacity:1;stroke:#000000;stroke-width:123.564;stroke-dasharray:none;stroke-opacity:1;paint-order:markers stroke fill"
           id="path1293" /><path
           d="m -26159.859,2564.2032 c -15.051,-0.3053 -34.157,23.1571 -42.052,48.9162 -8.583,28.011 -14.78,40.7907 -15.337,73.9535 -0.558,33.1624 4.883,65.088 15.13,88.7535 10.247,23.6658 24.46,37.1327 39.512,37.439 15.048,0.3052 29.706,-12.5756 40.742,-35.8096 11.039,-23.2339 19.103,-39.6537 19.664,-72.8166 0.558,-33.1633 -4.197,-63.5766 -13.333,-88.1936 -11.914,-32.1035 -29.276,-51.9372 -44.326,-52.2424 z"
           style="display:inline;fill:#000000;fill-opacity:1;stroke:none;stroke-width:11.4313;stroke-opacity:1;paint-order:markers stroke fill"
           id="path1293-2" /><path
           d="m -25945.597,2574.5807 c -13.917,-3.7532 -43.288,22.4076 -55.551,44.5044 -13.335,24.0293 -12.326,37.7631 -19.195,68.4257 -6.869,30.6624 -9.995,49.4839 -5.014,73.8195 4.983,24.336 15.601,40.1166 29.517,43.8704 13.916,3.7533 34.257,0.5182 48.953,-18.5102 14.698,-19.028 21.065,-37.7601 27.934,-68.4233 6.869,-30.6631 8.278,-59.9978 4.509,-84.961 -4.915,-32.5548 -17.238,-54.9728 -31.153,-58.7255 z"
           style="display:inline;fill:#000000;fill-opacity:1;stroke:none;stroke-width:10.8823;stroke-opacity:1;paint-order:markers stroke fill"
           id="path1293-2-1" /></g><path
         style="display:inline;fill:#15d159;fill-opacity:1;stroke-width:30.5225;paint-order:markers stroke fill"
         d="m 1537.9332,1003.0265 c 33.0095,9.6742 73.9849,4.8234 92.1875,-1.3099 0,0 2.4148,8.7397 -5.2132,11.1455 -29.2212,9.2161 -54.1319,10.7063 -81.5635,0.669 -7.0443,-2.5775 -5.4108,-10.5046 -5.4108,-10.5046 z"
         id="path83"
         transform="matrix(3.5390708,0,0,3.1431171,-8829.1419,-1676.8734)" /><path
         style="display:inline;fill:#efef9a;fill-opacity:1;stroke:none;stroke-width:9.5228;stroke-dasharray:none;stroke-opacity:1;paint-order:markers stroke fill"
         d="m -3301.5938,1505.5002 c -30.3121,-3.9392 -76.7218,-16.8432 -85.408,-25.6446 -8.6866,-8.8013 -18.8861,-17.6603 -22.9804,-26.5487 -7.4918,-16.2648 -51.1621,-17.4865 -51.1621,-17.4865 0,0 -28.9808,-12.3029 -23.6991,-40.3691 5.2817,-28.0662 102.1428,-36.6496 120.288,-23.739 37.8415,26.9248 141.0976,35.9834 271.2721,2.099 34.1402,-8.8867 128.9297,9.4367 128.9297,9.4367 l -23.8575,53.3251 -65.636,28.78 c 0,0 -3.9111,5.1977 -13.7493,15.7084 -9.8384,10.5109 -108.5342,27.1022 -108.5342,27.1022 z"
         id="path1285" /><path
         d="m -3222.9406,1211.1106 c -33.509,0 -65.6457,13.8007 -89.3402,38.3663 -23.6944,24.5656 -39.1842,57.966 -37.0062,92.6244 5.5228,87.8825 66.2367,53.0692 129.2505,53.3424 66.4678,0.288 117.1218,28.6756 123.4423,-53.3424 2.6675,-34.6171 -13.3118,-68.0588 -37.0061,-92.6244 -23.6946,-24.5656 -55.8313,-38.3663 -89.3403,-38.3663 z"
         style="display:inline;fill:#39cee1;fill-opacity:0.374214;stroke-width:9.62257;paint-order:markers stroke fill"
         id="path1288" /><g
         id="g1298"
         style="display:inline"
         transform="matrix(0.12726968,0,0,0.12810275,-302.54127,940.50395)"><g
           id="g1299"><path
             style="fill:#336483;fill-opacity:1;stroke-width:0.990107"
             d="m -23220.426,4693.3222 c -392.228,-32.2361 -712.456,-119.881 -892.047,-244.1495 -43.187,-29.8831 -106.381,-95.4738 -95.682,-99.31 4.173,-1.4963 33.254,3.9717 64.624,12.1508 173.688,45.2856 426.176,91.1444 616.013,111.8845 418.064,45.6745 759.594,45.7409 1155.907,0.2246 193.166,-22.1848 438.038,-67.0046 615.923,-112.7346 33.219,-8.5397 62.494,-13.272 65.056,-10.5161 6.76,7.2711 -29.421,46.0527 -77.147,82.6926 -121.477,93.2599 -326.251,169.4294 -586.579,218.1886 -257.231,48.1792 -590.823,64.1907 -866.068,41.5691 z m 55.208,-238.107 c -151.077,-4.5597 -440.455,-32.2021 -576.229,-55.0435 -251.505,-42.3108 -371.022,-69.0272 -534.822,-119.5524 -396.539,-122.3147 -662.718,-291.5504 -748.599,-475.9562 -32.322,-69.4015 -41.612,-122.2807 -32.236,-183.4866 36.507,-238.3246 348.521,-457.2861 851.035,-597.227 50.585,-14.087 127.114,-23.0396 162.75,-42.2054 v 0 l 70.779,-16.5929 7.512,-30.3101 c 51.157,-206.3856 132.613,-365.9996 260.618,-510.6878 161.977,-183.0861 360.139,-295.3621 594.15,-336.6378 70.316,-12.4026 236.673,-13.8341 306.019,-2.6333 315.393,50.9427 588.427,246.8533 749.574,537.843 43.818,79.1226 96.111,210.3861 110.789,278.0941 13.508,62.3103 15.101,63.981 74.165,77.7385 532.311,123.9895 894.014,323.0207 999.27,549.8609 26.463,57.0308 27.39,61.5532 27.39,133.6433 0,71.686 -1.05,76.8992 -26.737,132.806 -62.078,135.1091 -216.332,263.4884 -442.633,368.3872 -203.939,94.5325 -544.782,192.6238 -796.952,229.3548 -181.077,26.3755 -253.797,34.9432 -441.66,52.0349 -84.703,7.7063 -482.337,14.5497 -614.183,10.5703 z m 277.875,-185.4096 c 125.904,-46.1453 167.913,-218.0516 79.645,-325.9161 -90.978,-111.1756 -252.643,-88.2252 -312.981,44.4316 -16.178,35.5681 -18.112,47.549 -15.948,98.8072 2.231,52.8356 4.903,62.2842 28.364,100.2917 50.164,81.2679 136.314,113.3949 220.92,82.3856 z m -840.302,-113.5143 c 71.433,-35.0264 107.821,-93.2539 112.49,-180.0037 2.845,-52.8732 1.326,-62.1201 -16.39,-99.7851 -42.482,-90.3167 -134.981,-132.6424 -226.996,-103.8692 -53.323,16.6742 -106.492,72.1733 -124.256,129.7005 -32.303,104.6115 20.643,221.537 117.133,258.6779 33.857,13.0321 106.91,10.5335 138.019,-4.7204 z m 1696.454,-27.6823 c 39.183,-14.361 90.056,-65.4801 108.383,-108.9064 16.07,-38.0799 18.031,-118.3675 3.781,-154.8424 -18.323,-46.9012 -51.398,-87.3548 -88.495,-108.2361 -30.786,-17.3295 -44.673,-20.4324 -91.502,-20.4451 -66.566,-0.019 -97.816,14.9524 -140.762,67.4334 -128.82,157.4187 22.512,393.1982 208.595,324.9966 z m -2545.269,-287.7278 c 64.85,-32.6276 113.865,-112.2545 113.865,-184.9763 0,-83.5616 -61.033,-171.974 -134.598,-194.9779 -77.258,-24.1584 -161.142,4.0494 -207.892,69.908 -75.047,105.7219 -38.289,257.5269 75.859,313.2809 41.662,20.3496 108.712,18.9298 152.766,-3.2347 z m 3409.063,0 c 48.502,-24.4029 89.718,-75.0994 103.992,-127.9121 54.85,-202.951 -178.29,-349.4515 -317.617,-199.5842 -30.735,33.0603 -42.35,57.417 -50.566,106.0438 -15.801,93.5085 28.496,184.4153 108.92,223.5288 44.285,21.5378 110.085,20.6579 155.271,-2.0763 z m -1614.819,-383.5126 c 186.581,-12.7518 342.668,-41.996 479.615,-89.8595 129.223,-45.1643 304.442,-150.3099 318.474,-191.1097 6.571,-19.1064 -10.932,-170.3798 -27.591,-238.4651 -46.396,-189.6229 -129.484,-345.3162 -259.792,-486.8083 -203.373,-220.8279 -519.02,-333.8213 -807.447,-289.0445 -212.878,33.0483 -385.346,122.3988 -536.715,278.0555 -176.692,181.6983 -281.526,417.7224 -298.585,672.2378 -4.459,66.5345 -4.397,66.8866 15.157,86.3013 186.435,185.1023 643.76,291.0278 1116.884,258.6925 z"
             id="path1284" /></g></g><path
         style="display:inline;opacity:0.65;fill:#15d159;fill-opacity:1;stroke-width:103.504;paint-order:markers stroke fill;filter:url(#filter83)"
         d="m -3378.2413,1479.2035 c 120.7687,30.4071 231.8898,22.3412 298.4856,3.0635 0,0 28.5761,16.8421 0.6681,24.4038 -106.909,28.9673 -198.0471,33.6512 -298.4085,2.1028 -25.7718,-8.1014 -0.7452,-29.5701 -0.7452,-29.5701 z"
         id="path83-5"
         transform="matrix(1.108151,0,0,1.170904,353.85012,-262.23076)" /></g></g><pattern
     id="b-2"
     width="41"
     height="41"
     patternUnits="userSpaceOnUse"><circle
       fill="#ffffff"
       cx="20.5"
       cy="20.5"
       r="20.5"
       id="circle2" /></pattern></svg>
