<?xml version="1.0" encoding="UTF-8" standalone="no"?>
<!-- Created with Inkscape (http://www.inkscape.org/) -->

<svg
   version="1.1"
   id="svg1"
   width="148.94116"
   height="164.52771"
   viewBox="0 0 148.94116 164.52771"
   sodipodi:docname="Linotte app main inkscape.ai"
   inkscape:version="1.4.2 (ebf0e940, 2025-05-08)"
   xml:space="preserve"
   inkscape:export-batch-path="/Users/giannipie/Documents/Repositories/linotte-web/resources/images/dice"
   inkscape:export-batch-name="rere"
   inkscape:export-filename="/Users/giannipie/Documents/Repositories/linotte-web/resources/images/pieces/p031_00a0d7ff.svg"
   inkscape:export-xdpi="96"
   inkscape:export-ydpi="96"
   xmlns:inkscape="http://www.inkscape.org/namespaces/inkscape"
   xmlns:sodipodi="http://sodipodi.sourceforge.net/DTD/sodipodi-0.dtd"
   xmlns="http://www.w3.org/2000/svg"
   xmlns:svg="http://www.w3.org/2000/svg"><defs
     id="defs1" /><sodipodi:namedview
     id="namedview1"
     pagecolor="#ffffff"
     bordercolor="#000000"
     borderopacity="0.25"
     inkscape:showpageshadow="2"
     inkscape:pageopacity="0.0"
     inkscape:pagecheckerboard="0"
     inkscape:deskcolor="#d1d1d1"
     showgrid="false"
     inkscape:zoom="1.1484381"
     inkscape:cx="1064.0539"
     inkscape:cy="1080.5981"
     inkscape:window-width="1472"
     inkscape:window-height="844"
     inkscape:window-x="0"
     inkscape:window-y="33"
     inkscape:window-maximized="0"
     inkscape:current-layer="layer-MC0"><inkscape:page
       x="0"
       y="0"
       width="148.94116"
       height="164.52771"
       id="page2"
       margin="0"
       bleed="0" /></sodipodi:namedview><pattern
     id="b-2"
     width="41"
     height="41"
     patternUnits="userSpaceOnUse"><circle
       fill="#ffffff"
       cx="20.5"
       cy="20.5"
       r="20.5"
       id="circle2" /></pattern><g
     id="g523"
     transform="matrix(0.30710212,0,0,0.30710212,-797.14644,-345.45401)"
     inkscape:export-filename="/Users/giannipie/Documents/Repositories/linotte-web/resources/images/pieces/g523.svg"
     inkscape:export-xdpi="96"
     inkscape:export-ydpi="96"><path
       style="baseline-shift:baseline;display:inline;overflow:visible;vector-effect:none;fill:#dddddd;fill-opacity:1;stroke-linecap:round;paint-order:stroke fill markers;enable-background:accumulate;stop-color:#000000"
       d="m 2899.9961,1124.916 c -28.1575,0.8764 -54.4498,16.5691 -67.5293,42.0156 l 3.7617,-7.3183 c -15.59,0.8129 -35.4793,3.3638 -49.2617,6.6582 -21.14,5.0532 -36.9927,10.5315 -55.627,19.1348 l 4.9805,3.75 c -1.7161,-1.2917 -3.5491,-2.4077 -5.3398,-3.5899 -0.7318,0.3388 -1.4054,0.6023 -2.1465,0.9512 l 2.0937,-0.9863 c -10.4688,-6.9018 -22.1013,-11.9066 -34.7148,-13.0059 -14.7932,-1.2893 -29.1931,2.6698 -42.5547,9.1992 -31.53,15.4079 -50.821,49.5473 -43.9355,83.7207 1.8255,9.0601 4.8802,17.6837 9.1738,25.7383 -8.7537,17.5117 -13.019,28.8751 -17.461,46.7246 -4.4198,17.7608 -5.6845,29.3128 -5.7285,52.6875 -0.035,19.0288 0.5475,27.6399 2.6719,39.5742 8.1644,45.8642 25.5576,85.1165 52.4102,116.0508 0,0 1.4687,2.3887 1.75,1.8848 l -0.2813,0.5039 c -2.7667,5.7746 -4.8063,11.9135 -6.1797,18.2422 -1.6745,7.7181 -1.7647,18.1471 -0.045,27.2597 3.0622,16.2259 10.6514,31.6688 22.834,42.8379 12.1826,11.1692 27.7033,17.5926 44.7031,20.9707 18.6593,3.7079 37.9814,3.2741 55.4141,0.6934 8.4381,-1.2492 18.4963,-3.5146 28.1386,-5.9922 9.6424,-2.4776 16.8154,-4.1294 25.1895,-8.0059 8.2106,-3.8008 15.7775,-8.3535 22.5391,-13.6679 14.8415,9.8854 32.4865,16.8147 51.2656,21.1855 25.5974,5.9577 58.7904,9.1463 82.5918,6.8223 39.472,-3.8542 72.6125,-26.6034 86.4707,-61.8106 3.1974,-8.1231 4.9643,-17.8872 4.9648,-32.4961 v 0 c 0,-13.8132 -1.2608,-22.9892 -3.9472,-30.8515 -3.9879,-11.6712 -9.1072,-21.5233 -15.7051,-30.3965 -0.5653,-0.5622 -0.8909,-1.1274 -0.3165,-1.7364 0.3522,-0.5751 0.4242,-0.7108 0.7188,-1.168 13.5057,-20.9614 23.7197,-49.6977 27.7012,-75.3925 2.8383,-18.3176 2.7002,-43.8509 0.1757,-62.0098 -2.9988,-21.5703 -9.2637,-46.4088 -17.2031,-64.0449 -0.9913,-2.202 -3.5234,-7.8262 -5.6289,-12.502 -15.4094,-34.2219 -42.5846,-66.2887 -73.6484,-87.0625 l 0.1367,2.3516 c -0.047,-0.8239 -0.1744,-1.6063 -0.2383,-2.4219 -1.1826,-0.7897 -2.328,-1.6814 -3.5215,-2.4375 l 3.5,2.2188 c -0.9384,-11.6993 -3.5156,-22.5567 -8.1875,-31.8067 -11.6925,-23.1501 -35.5938,-38.7289 -61.8379,-41.9199 -4.0655,-0.4943 -8.1259,-0.6721 -12.1484,-0.5469 z"
       id="path515"
       sodipodi:nodetypes="cccscccccssscscscccssssssscsssssscccsssscccccsscc" /><ellipse
       style="font-variation-settings:normal;opacity:1;fill:#ffffff;fill-opacity:1;stroke:none;stroke-width:1.6252;stroke-linecap:round;stroke-linejoin:round;stroke-miterlimit:4;stroke-dasharray:none;stroke-dashoffset:0;stroke-opacity:1;paint-order:stroke fill markers"
       id="path514"
       cx="2872.7471"
       cy="1460.464"
       rx="97.460449"
       ry="69.216949" /><path
       style="baseline-shift:baseline;display:inline;overflow:visible;vector-effect:none;fill:#cccccc;stroke-linecap:round;paint-order:stroke fill markers;enable-background:accumulate;stop-color:#000000"
       d="m 2861.1172,1481.8008 c 0.3949,0.3795 0.8733,0.7308 1.2969,1.1015 -0.8662,-0.647 -1.3913,-1.1922 -1.2969,-1.1015 z"
       id="path523" /><path
       style="baseline-shift:baseline;display:inline;overflow:visible;vector-effect:none;fill:#cccccc;stroke-linecap:round;paint-order:stroke fill markers;enable-background:accumulate;stop-color:#000000"
       d="m 2891.6719,1470.832 c -0.075,0.3482 -0.2163,1.0476 -0.6328,2.0489 0.1906,-0.6868 0.4834,-1.3567 0.6328,-2.0489 z"
       id="path522" /><path
       style="baseline-shift:baseline;display:inline;overflow:visible;vector-effect:none;fill:#cccccc;stroke-linecap:round;paint-order:stroke fill markers;enable-background:accumulate;stop-color:#000000"
       d="m 2856.9102,1423.0391 c -0.039,0.1094 -0.1389,0.3083 -0.1758,0.4121 0.082,-0.2296 0.05,-0.1919 0.1094,-0.3711 0.013,-0.01 0.053,-0.031 0.066,-0.041 z"
       id="path521" /><path
       style="baseline-shift:baseline;display:inline;overflow:visible;vector-effect:none;fill:#cccccc;stroke-linecap:round;paint-order:stroke fill markers;enable-background:accumulate;stop-color:#000000"
       d="m 2622.8398,1297.7637 c 0.3161,0.4888 0.5724,1.0063 0.8985,1.4902 0.095,0.1415 0.1131,0.1818 0.2051,0.3262 -0.2804,-0.1746 -0.7013,-0.4984 -1.1036,-1.8164 z"
       id="path519" /><path
       style="baseline-shift:baseline;display:inline;overflow:visible;vector-effect:none;fill:#cccccc;stroke-linecap:round;paint-order:stroke fill markers;enable-background:accumulate;stop-color:#000000"
       d="m 2623.4727,1281.6973 c -0.1313,0.2967 -0.2162,0.4994 -0.4668,1.039 -0.1333,0.2871 -0.4113,0.8341 -0.5684,1.166 0.3371,-2.4595 0.8512,-1.9846 1.0352,-2.205 z"
       id="path518" /><path
       style="baseline-shift:baseline;display:inline;overflow:visible;vector-effect:none;fill:#eead46;stroke-width:0.99506;stroke-linecap:round;paint-order:stroke fill markers;enable-background:accumulate;stop-color:#000000"
       d="m 2718.7587,1631.3475 c -27.5869,-5.4749 -42.4704,-19.1029 -46.9913,-43.0274 -1.6479,-8.7203 -1.6533,-9.7208 -0.094,-16.9007 1.9537,-8.9919 5.6272,-16.668 10.7674,-22.5002 l 3.7084,-4.2075 -6.4765,-6.3774 c -28.5284,-28.0918 -46.8831,-65.5206 -55.3068,-112.7812 -1.9592,-10.9922 -2.298,-16.2025 -2.2634,-34.8049 0.043,-22.7109 0.7655,-29.4753 4.9432,-46.2409 4.3498,-17.457 7.1743,-24.9203 16.1495,-42.6711 2.8789,-5.6938 5.2343,-10.7593 5.2343,-11.2568 0,-0.4974 -1.2621,-2.7751 -2.8046,-5.0614 -4.6441,-6.8831 -8.3629,-15.8714 -10.072,-24.343 -4.5162,-22.3859 7.2252,-44.0784 29.8289,-55.1103 21.2091,-10.351 37.2044,-8.9588 55.5554,4.8357 l 7.3706,5.5406 11.5879,-5.4485 c 18.5646,-8.7287 32.002,-13.3993 52.9092,-18.3905 10.5526,-2.5193 31.4099,-5.3047 44.7705,-5.9791 l 14.4017,-0.7269 3.0229,-5.8736 c 10.0691,-19.5648 30.7731,-30.229 53.3626,-27.4858 19.9375,2.4211 33.4528,11.4172 41.7237,27.7723 3.6955,7.3075 5.0537,13.07 5.6913,24.1507 l 0.6106,10.6082 7.5567,4.7809 c 27.0718,17.1275 53.8135,48.1108 67.2532,77.9204 2.0961,4.649 4.6178,10.2427 5.6038,12.4304 5.785,12.834 12.5219,38.1115 15.1071,56.6824 1.6237,11.6651 1.5555,43.4197 -0.1164,54.1963 -3.223,20.7733 -13.6661,49.3087 -23.7862,64.9957 -1.4609,2.2644 -3.19,5.1026 -3.8424,6.3069 -0.6527,1.2044 -1.6655,2.7706 -2.2509,3.4806 -0.5855,0.7098 -2.2589,2.7777 -3.7185,4.5953 l -2.6542,3.3047 6.4856,6.6396 c 9.6505,9.8797 13.4485,16.2455 18.4974,31.003 2.2939,6.7049 2.5512,8.9648 2.5483,22.3746 0,14.3966 -0.1132,15.1953 -3.1554,22.9145 -10.7179,27.1942 -32.036,42.1316 -64.6713,45.3141 -17.7216,1.7282 -52.1317,-1.1762 -73.9096,-6.2385 -21.3456,-4.9618 -41.702,-14.8552 -53.5057,-26.0045 l -5.4248,-5.124 -2.1466,2.9662 c -6.5583,9.0625 -16.0721,16.3993 -29.0389,22.3943 -7.0395,3.2546 -32.7491,9.8521 -46.0634,11.8207 -9.9817,1.4757 -38.0166,1.1895 -46.398,-0.4739 z m 129.6629,-149.0617 c 9.959,-2.6474 15.57,-8.1581 17.5273,-17.2144 1.5764,-7.2941 6.3381,-8.127 12.5243,-2.1909 5.5829,5.3575 10.0801,7.1821 17.8846,7.2564 11.8967,0.1131 19.974,-5.2805 24.8214,-16.5747 2.656,-6.1884 2.5873,-8.9414 -0.3829,-15.3126 -2.5229,-5.4121 -8.3805,-10.5071 -14.7962,-12.8694 -4.6287,-1.7044 -14.4569,-1.4647 -19.5088,0.4757 -3.7596,1.4441 -4.6172,2.3241 -5.974,6.1301 -0.8714,2.4441 -3.4118,6.3596 -5.6453,8.7012 -3.5954,3.7692 -4.5657,4.2554 -8.4634,4.241 -4.3925,-0.016 -7.5768,-1.4639 -15.5913,-7.0873 -3.4689,-2.434 -4.2052,-2.5712 -9.9417,-1.8519 -18.9999,2.3823 -29.3638,19.8635 -21.1999,35.7588 2.3719,4.6183 5.4727,7.4196 10.9662,9.907 5.2873,2.3939 10.4576,2.5775 17.7797,0.631 z"
       id="path516" /><path
       style="fill:#1d1814"
       d="m 2721.9709,1632.2258 c -31.4531,-4.4592 -50.0933,-23.5865 -50.2492,-51.5624 -0.071,-12.7053 3.3783,-21.8143 11.6984,-30.8956 1.9529,-2.1316 3.5508,-3.9605 3.5508,-4.0643 0,-0.1037 -3.7162,-3.9846 -8.2582,-8.6243 -4.542,-4.6396 -9.1545,-9.5709 -10.25,-10.9585 -22.9669,-29.0891 -35.7219,-57.9415 -42.8713,-96.9772 -6.8556,-37.4314 -3.5456,-76.1415 9.3203,-109 2.9332,-7.4914 10.9091,-23.8943 13.2187,-27.1853 l 1.8846,-2.6853 -4.8309,-7.4002 c -18.5297,-28.3847 -10.0582,-62.2339 19.1562,-76.5413 11.9695,-5.8619 13.2407,-6.2581 22.0627,-6.8759 13.3564,-0.9353 21.7222,1.9393 35.26,12.1158 3.3453,2.5147 6.5032,4.5722 7.0176,4.5722 0.5143,0 3.4416,-1.3575 6.5049,-3.0167 28.0806,-15.2091 75.0569,-26.9451 107.9727,-26.9746 l 9.6874,-0.01 3.2484,-6.5984 c 6.0474,-12.2841 16.1499,-21.1454 28.8666,-25.3201 7.6086,-2.4977 24.5283,-2.8517 32.6716,-0.6835 16.3544,4.3544 28.4454,14.8531 34.0918,29.602 2.5573,6.6801 4.2469,16.5444 4.2469,24.7947 v 6.1308 l 6.25,4.1924 c 19.77,13.2616 36.8997,29.0825 48.8362,45.105 7.8624,10.5539 17.3729,26.5899 21.8114,36.7771 1.7972,4.125 3.6676,8.4 4.1563,9.5 9.689,21.8074 16.9174,57.8968 16.9374,84.5636 0.03,39.2574 -11.6604,73.4545 -37.3879,109.3731 -0.6216,0.8678 0.5734,2.6035 3.8948,5.6576 11.3941,10.477 20.0052,26.5496 22.4513,41.9057 5.0524,31.7176 -8.3991,59.2509 -35.4495,72.5601 -13.92,6.8489 -18.1503,7.6957 -41,8.2077 -30.2909,0.6787 -56.3383,-2.7045 -79.1715,-10.2835 -17.1348,-5.6875 -33.3402,-15.0284 -40.0976,-23.1124 -2.0099,-2.4045 -3.9121,-4.3719 -4.227,-4.3719 -0.315,0 -1.4127,1.4221 -2.4394,3.1601 -2.9533,4.9995 -10.5183,12.2676 -17.2952,16.6163 -11.2515,7.2201 -27.3559,12.6909 -49.7693,16.9071 -9.0409,1.7006 -42.8865,2.6199 -51.5,1.3988 z m 41.5636,-11.5689 c 49.6678,-6.7517 72.3926,-21.9768 72.4104,-48.5134 0.013,-19.2692 -10.6206,-31.6202 -31.4941,-36.5809 -9.2842,-2.2065 -36.8344,-2.246 -51.9799,-0.075 -37.8555,5.4272 -56.3366,13.3632 -65.3681,28.0695 -3.6085,5.8759 -3.6317,5.9855 -3.6043,17 0.025,10.1196 0.2707,11.5655 2.8159,16.586 4.9537,9.7712 13.2842,16.8407 24.1565,20.5001 13.3374,4.4891 33.7002,5.6455 53.0636,3.0133 z m 226.4364,-1.8091 c 9.3737,-3.1002 13.686,-5.1497 19.6411,-9.3344 7.8939,-5.5472 13.4217,-11.8737 17.1789,-19.6608 3.8021,-7.8803 4.8738,-11.453 6.1567,-20.5243 0.881,-6.2294 0.7287,-8.8162 -1.0261,-17.4271 -1.1333,-5.5615 -3.3974,-12.8836 -5.0313,-16.2713 -3.464,-7.1825 -12.3696,-18.3502 -16.2926,-20.4314 -2.7027,-1.4337 -2.7986,-1.3702 -12.3376,8.1688 l -9.6138,9.6137 3.6624,1.5302 c 3.2474,1.3569 3.6623,1.935 3.6623,5.1027 0,2.766 -0.5236,3.8111 -2.3192,4.6292 -2.5033,1.1406 -1.8625,1.2348 -27.6808,-4.0712 -20.8724,-4.2896 -24.1871,-4.8183 -41,-6.5395 -23.5372,-2.4096 -38.1141,-1.6745 -52,2.6224 -15.9733,4.9427 -25.2057,17.5493 -25.2383,34.4619 -0.05,25.7192 34.934,44.521 92.7383,49.8417 2.2,0.2025 13.225,0.2354 24.5,0.073 14.7899,-0.213 21.7534,-0.7098 25,-1.7836 z m -130.1216,-89.0711 c 12.7052,-6.6763 20.5243,-8.0749 45.1216,-8.0705 12.6435,0 25.0014,0.5411 30,1.308 11.0448,1.6946 33.206,5.8874 35.2367,6.6667 2.4109,0.9251 6.4719,-1.6445 15.3313,-9.7008 30.9058,-28.1042 48.8966,-60.2667 55.5663,-99.3366 2.0292,-11.8869 1.7622,-44.3637 -0.4687,-57 -4.7217,-26.7443 -10.285,-44.096 -20.8405,-65 -18.1005,-35.8462 -44.6937,-62.4098 -80.5458,-80.4564 -17.4095,-8.7632 -35.0197,-14.3387 -57.2793,-18.1347 -20.8068,-3.5483 -53.7898,-3.0123 -76,1.2351 -37.2402,7.1216 -68.5542,20.4758 -97,41.3668 -14.0956,10.3519 -34.775,31.493 -43.7349,44.7114 -10.0415,14.8139 -20.5381,35.6546 -23.3082,46.2778 -4.7652,18.2744 -5.9005,23.2427 -7.0839,31 -2.5578,16.7666 -1.4911,48.5365 2.1908,65.25 3.6365,16.5077 4.2378,18.767 8.1846,30.75 3.2058,9.7332 10.0358,25.379 12.9453,29.6544 0.9934,1.4599 1.8063,2.9374 1.8063,3.2833 0,0.346 3.1943,5.3901 7.0985,11.2091 6.9193,10.313 27.8874,33.3532 30.3537,33.3532 0.6447,0 2.9442,-0.8502 5.11,-1.8893 4.9423,-2.3713 19.3355,-6.9342 25.9378,-8.2229 24.6213,-4.8056 39.5707,-6.2598 57.6719,-5.6101 17.0455,0.6118 24.2166,2.0857 35.7088,7.339 5.4994,2.514 8.9404,4.9966 13.5,9.7399 l 6.1193,6.3659 5.702,-6.2121 c 3.7801,-4.1184 8.0526,-7.4474 12.6764,-9.8772 z m -28.8784,-35.0609 c -9.7771,-2.7134 -17.094,-8.5694 -21.4917,-17.2006 -2.5141,-4.9342 -3.0498,-7.295 -3.3557,-14.7865 -0.2284,-5.5957 0.1243,-10.4359 0.9474,-13 4.2075,-13.1079 17.2933,-23.5205 32.2083,-25.6288 5.1985,-0.7348 6.5699,-1.3847 9.1532,-4.3382 6.5167,-7.4505 20.2622,-10.7499 27.9643,-6.7124 3.7705,1.9765 4.1661,1.9952 10,0.4726 12.2334,-3.1926 26.3272,-0.3806 36.3298,7.2488 5.0073,3.8193 10.1708,12.2972 11.8354,19.4323 1.2066,5.1725 1.2547,7.3053 0.2673,11.8728 -2.5576,11.8323 -10.0589,21.5638 -20.6189,26.7493 -5.2846,2.5951 -6.6506,2.8184 -17.2394,2.8184 -10.0118,0 -12.0448,-0.2911 -15.7102,-2.25 -2.3155,-1.2375 -4.6501,-2.25 -5.1878,-2.25 -0.5378,0 -2.3538,1.9125 -4.0357,4.25 -4.2153,5.8585 -11.1884,10.2769 -20.0462,12.7021 -8.3711,2.2919 -14.3598,2.4686 -21.0201,0.6202 z m 21.3151,-12.2431 c 6.6411,-2.1145 11.9753,-7.5065 14.1757,-14.3292 0.9756,-3.025 2.2194,-6.0625 2.764,-6.75 1.7139,-2.1638 6.5388,-1.4946 8.2696,1.1469 0.8638,1.3183 3.2366,3.5455 5.273,4.9493 12.0267,8.2908 30.0885,3.8632 37.9463,-9.3019 7.3015,-12.2332 2.2437,-26.576 -11.5309,-32.6989 -4.5763,-2.0342 -17.1492,-2.2787 -22.5527,-0.4386 -3.326,1.1327 -4.2119,2.1367 -6.6188,7.5011 -3.5185,7.8423 -7.7749,11.5921 -13.1579,11.5921 -4.1696,0 -9.9772,-2.4954 -13.4464,-5.7776 -3.7716,-3.5683 -5.6156,-4.0333 -12.3059,-3.1032 -22.5536,3.1356 -32.7254,26.6457 -18.2669,42.2201 6.7738,7.2966 16.8464,9.0032 29.4509,4.9899 z m -90.4172,-66.5991 c -8.9801,-5.9991 -8.7719,-18.1777 0.4064,-23.7741 3.5349,-2.1553 9.6407,-2.5554 13.0115,-0.8525 3.6529,1.8455 7.4276,6.7151 8.1372,10.4975 0.8672,4.6227 -2.7169,12.1167 -6.953,14.5381 -4.3606,2.4925 -10.5169,2.3201 -14.6021,-0.409 z m 167.6021,-34.9395 c -6.4544,-2.2624 -9.9884,-7.7655 -9.2416,-14.3909 0.8406,-7.4576 6.304,-12.3997 13.7076,-12.3997 5.0653,0 9.4424,2.6027 11.9848,7.1262 3.9744,7.0715 1.4923,14.8897 -5.9127,18.6238 -4.9075,2.4747 -6.1083,2.5933 -10.5381,1.0406 z m -213.7544,-8.1859 c -0.965,-0.7324 -2.2334,-2.7056 -2.8188,-4.3848 -1.3672,-3.9221 0.7945,-8.4691 4.7761,-10.0461 9.5904,-3.7985 64.8081,-16.1738 72.1664,-16.1738 4.8996,0 8.1307,3.2349 8.1307,8.1402 0,6.696 -4.4998,8.5561 -33.5,13.8478 -2.2,0.4015 -12.3211,2.8184 -22.4912,5.371 -19.56,4.9093 -23.4399,5.3888 -26.2632,3.2457 z m 174.1775,-39.5278 c -5.8564,-5.8563 -3.2514,-11.9703 6.3634,-14.9349 9.2531,-2.8532 48.4443,-11.8463 62.4178,-14.3229 9.2457,-1.6386 14.2957,1.2951 14.2957,8.3049 0,2.6115 -5.2455,7.876 -7.8475,7.876 -1.7463,0 -11.6416,2.0118 -24.6525,5.0121 -2.2,0.5073 -8.275,1.8937 -13.5,3.0809 -5.225,1.1873 -14.5032,3.452 -20.6182,5.0328 -6.115,1.5808 -11.6621,2.8742 -12.3269,2.8742 -0.6648,0 -2.5241,-1.3154 -4.1318,-2.9231 z m -227.3777,-61.3269 c 11.3659,-14.6758 31.717,-33.4579 48.7915,-45.03 3.1532,-2.1371 5.3687,-4.3237 5.0972,-5.031 -0.6621,-1.7254 -10.0739,-7.7725 -14.9341,-9.5951 -6.0873,-2.2829 -18.7517,-1.9069 -25.6053,0.7602 -21.1591,8.2342 -32.6603,26.0668 -28.9294,44.8549 2.0258,10.2015 6.7341,20.291 9.4688,20.291 0.699,0 3.4491,-2.8125 6.1113,-6.25 z m 281.7723,-71.7236 c -0.1884,-6.4756 -2.9658,-15.0116 -6.6789,-20.5264 -7.8216,-11.6169 -21.1467,-17.1902 -38.7954,-16.2264 -10.7738,0.5884 -17.4913,3.1535 -23.6889,9.0458 -4.6188,4.3913 -9.4288,11.5235 -8.8277,13.0898 0.3123,0.8139 3.3085,1.5538 8.0215,1.9808 19.0293,1.7244 45.0945,8.6817 61.94,16.533 3.4164,1.5923 6.6617,2.7766 7.2117,2.6318 0.5576,-0.1468 0.9194,-3.0351 0.8177,-6.5284 z"
       id="path512" /></g></svg>
