<?xml version="1.0" encoding="UTF-8" standalone="no"?>
<!-- Created with Inkscape (http://www.inkscape.org/) -->

<svg
   version="1.1"
   id="svg1"
   width="172.81714"
   height="153.30823"
   viewBox="0 0 172.81714 153.30823"
   sodipodi:docname="Linotte app main inkscape.ai"
   inkscape:version="1.4.2 (ebf0e940, 2025-05-08)"
   xml:space="preserve"
   inkscape:export-batch-path="/Users/giannipie/Documents/Repositories/linotte-web/resources/images/dice"
   inkscape:export-batch-name="rere"
   inkscape:export-filename="/Users/giannipie/Documents/Repositories/linotte-web/resources/images/pieces/p031_00a0d7ff.svg"
   inkscape:export-xdpi="96"
   inkscape:export-ydpi="96"
   xmlns:inkscape="http://www.inkscape.org/namespaces/inkscape"
   xmlns:sodipodi="http://sodipodi.sourceforge.net/DTD/sodipodi-0.dtd"
   xmlns="http://www.w3.org/2000/svg"
   xmlns:svg="http://www.w3.org/2000/svg"><defs
     id="defs1"><inkscape:path-effect
       effect="simplify"
       id="path-effect5089"
       is_visible="true"
       lpeversion="1.3"
       threshold="36.4508"
       steps="13.413333"
       smooth_angles="307.2"
       helper_size="6.6666667"
       simplify_individual_paths="false"
       simplify_just_coalesce="false" /></defs><sodipodi:namedview
     id="namedview1"
     pagecolor="#ffffff"
     bordercolor="#000000"
     borderopacity="0.25"
     inkscape:showpageshadow="2"
     inkscape:pageopacity="0.0"
     inkscape:pagecheckerboard="0"
     inkscape:deskcolor="#d1d1d1"
     showgrid="false"
     inkscape:zoom="0.66656744"
     inkscape:cx="2352.3501"
     inkscape:cy="1323.1969"
     inkscape:window-width="1472"
     inkscape:window-height="844"
     inkscape:window-x="0"
     inkscape:window-y="33"
     inkscape:window-maximized="0"
     inkscape:current-layer="layer-MC0"><inkscape:page
       x="0"
       y="0"
       width="172.81714"
       height="153.30823"
       id="page2"
       margin="0"
       bleed="0" /></sodipodi:namedview><g
     id="layer-MC0"
     inkscape:groupmode="layer"
     inkscape:label="Livello 1"
     transform="translate(-1509.1431,-1139.1271)"><g
       id="g5082"
       transform="matrix(0.31418322,0,0,0.31418322,1233.5408,117.45067)"><g
         id="g5091"
         transform="translate(0,-254.08358)"><path
           style="fill:#f4c797"
           d="m 1028.2826,3992.9457 c -3.7345,-1.1431 -12.0412,-5.5613 -15.9282,-8.472 -5.5168,-4.1311 -8.7833,-4.2303 -17.20189,-0.5225 -14.30911,6.3023 -26.37236,3.8602 -40.86992,-8.2737 -10.80395,-9.0424 -21.08457,-22.9282 -26.49821,-35.7904 -5.89705,-14.0108 -8.9908,-36.6174 -6.5866,-48.1294 2.41496,-11.5636 10.83063,-20.1132 23.58481,-23.9602 11.72012,-3.5352 11.45168,-3.2773 14.48508,-13.9147 5.1226,-17.9637 12.28988,-32.4045 30.40559,-61.2621 6.35019,-10.1155 11.94824,-19.4799 12.44024,-20.8097 1.6772,-4.5339 -0.4207,-7.3704 -10.14206,-13.7127 -21.45191,-13.9953 -35.8178,-32.1229 -45.14032,-56.96 -3.41947,-9.1102 -5.62743,-10.9172 -14.33751,-11.7339 -17.4294,-1.6341 -28.37911,-6.4179 -38.71102,-16.9124 -11.24609,-11.4231 -16.45568,-24.5849 -16.48522,-41.6491 -0.0548,-31.6602 23.27425,-57.0709 55.57103,-60.5295 4.63067,-0.4959 6.83049,-0.2667 9.20034,0.9588 3.99902,2.068 11.41819,2.0636 15.51351,-0.01 1.76019,-0.8909 10.40034,-8.9266 19.20034,-17.8572 21.02694,-21.339 35.94221,-31.3315 58.81161,-39.401 16.5047,-5.8237 27.1204,-7.52 47.1884,-7.5401 26.1436,-0.026 42.6241,3.7673 65.0825,14.9808 18.8935,9.4334 35.278,22.9152 50.0483,41.1815 4.6765,5.7834 8.4276,9.4834 10.0195,9.8829 1.3994,0.3512 5.8884,-0.096 9.9755,-0.9942 21.3735,-4.6965 39.1851,0.8924 54.3237,17.0455 18.775,20.0333 22.1776,45.2475 9.5026,70.4168 -8.8733,17.6199 -24.9009,27.9801 -46.9322,30.3367 -3.2891,0.3518 -6.9335,1.2643 -8.0987,2.0278 -1.1651,0.7634 -3.8166,5.3598 -5.8921,10.2142 -9.7965,22.9129 -24.1991,40.7404 -44.1516,54.651 -9.8091,6.8388 -10.7573,7.8881 -9.8292,10.8771 0.3925,1.2639 4.8611,9.273 9.9303,17.798 23.6839,39.8295 29.8619,51.3343 32.6105,60.7271 4.5399,15.5145 8.4195,19.8366 20.7465,23.113 10.8556,2.8853 16.341,9.2404 19.0684,22.0917 0.6341,2.9875 1.6452,6.025 2.2469,6.75 1.4372,1.7318 7.8185,1.6495 15.6729,-0.2022 14.8982,-3.5122 25.6949,-11.6801 31.8192,-24.0717 3.2726,-6.6217 3.7114,-8.448 4.1329,-17.2004 0.5731,-11.902 -1.4576,-21.0071 -8.3891,-37.6137 -17.694,-42.392 -21.1392,-66.9067 -13.2234,-94.0938 9.5707,-32.8713 38.3134,-55.5787 72.4399,-57.229 14.1291,-0.6833 23.4172,1.2151 36.3967,7.4391 8.0212,3.8464 10.84,5.8969 18.1085,13.1727 6.6502,6.6569 9.4272,10.3268 12.2069,16.1324 11.8406,24.7297 7.6531,52.2948 -10.7153,70.5355 -7.5416,7.4891 -11.5864,9.4493 -19.4982,9.4493 -11.6061,0 -21.0348,-9.619 -21.0748,-21.5 -0.019,-5.7653 2.5371,-10.663 7.891,-15.117 5.6049,-4.663 9.0819,-11.0253 9.0819,-16.6186 0,-8.2065 -5.4842,-16.7806 -13.5,-21.106 -3.4062,-1.838 -5.633,-2.1584 -15,-2.1584 -9.9835,0 -11.5186,0.2548 -16.6118,2.7572 -6.222,3.0571 -14.5763,11.2509 -17.6859,17.3463 -4.2318,8.295 -5.5026,15.1064 -4.917,26.3555 0.7029,13.5033 3.6607,24.7625 12.4891,47.541 9.1213,23.5344 11.2762,32.0303 11.9461,47.0979 0.7739,17.4084 -1.803,29.8192 -9.2856,44.7209 -13.9576,27.7969 -42.9979,44.6812 -76.85,44.6812 -10.0648,0 -13.8936,2.6061 -19.7884,13.4689 -8.9097,16.4187 -17.7297,25.3179 -31.503,31.7856 -11.6064,5.4502 -22.2559,5 -32.3811,-1.3688 -2.5231,-1.5871 -5.1238,-2.8857 -5.7794,-2.8857 -0.6555,0 -3.5411,1.8657 -6.4124,4.1461 -14.4554,11.4801 -28.4092,13.4958 -42.9594,6.2058 -3.63,-1.8187 -5.3012,-3.4831 -7.1419,-7.1131 -4.4255,-8.7268 -4.3417,-8.6967 -25.1748,-9.0501 l -18.3511,-0.3114 -2.2813,2.8114 c -6.639,8.1815 -14.5866,15.0465 -19.2648,16.6405 -5.0734,1.7287 -13.1882,2.068 -17.5473,0.7337 z"
           id="path5085" /><path
           style="fill:#dea369"
           d="m 1027.2826,3992.4088 c -2.475,-0.8004 -8.1,-3.7474 -12.5,-6.5487 -9.2067,-5.8615 -10.8875,-5.9796 -21.39719,-1.5035 -5.48888,2.3378 -7.47669,2.6747 -14,2.373 -11.52568,-0.5331 -17.11707,-3.6878 -30.6066,-17.2686 -19.46873,-19.6004 -27.55215,-38.7764 -27.86057,-66.0925 -0.13194,-11.6856 -0.0458,-12.1971 3.14926,-18.6936 2.02726,-4.1221 4.75867,-7.8466 7.13432,-9.7281 4.9818,-3.9457 13.45061,-7.8469 18.76348,-8.6437 5.47912,-0.8216 6.6755,-2.3505 9.24656,-11.8162 4.7236,-17.3906 11.68147,-31.4032 30.69067,-61.8085 6.77548,-10.8374 12.59607,-20.808 12.93457,-22.1568 0.9663,-3.8499 -1.0378,-6.2918 -9.85343,-12.0059 -21.27429,-13.7895 -35.34448,-30.7069 -44.24352,-53.1963 -6.23612,-15.7598 -5.64989,-15.2337 -18.30429,-16.4253 -26.1734,-2.4645 -44.89798,-18.0534 -51.17782,-42.6073 -8.19797,-32.0537 10.01318,-64.1815 41.52455,-73.2569 8.74895,-2.5197 18.20861,-3.6296 19.80288,-2.3234 2.72458,2.2322 9.60034,3.2791 13.94712,2.1236 3.56826,-0.9485 6.73636,-3.658 19.75,-16.891 8.525,-8.6687 18.875,-18.2472 23,-21.2855 55.20281,-40.661 128.70801,-37.5948 181.17721,7.5575 4.2225,3.6336 12.1138,11.9088 17.5362,18.3892 11.2193,13.4081 11.4893,13.5339 23.2896,10.85 23.35,-5.3108 45.3286,4.1933 59.8276,25.8712 9.4512,14.1307 12.2863,29.6837 8.3068,45.5694 -6.8246,27.2426 -23.7639,42.6519 -50.4215,45.8676 -9.0561,1.0924 -12.1809,2.8112 -14.4055,7.9233 -9.7367,22.3754 -15.9831,32.105 -28.7108,44.7205 -5.0048,4.9607 -13.0513,11.689 -17.8812,14.9518 -5.5008,3.716 -8.9944,6.7804 -9.3513,8.2022 -0.6454,2.5714 -1.7484,0.4933 20.0313,37.7394 18.4781,31.6002 20.8948,36.2566 22.6215,43.5871 1.8209,7.7306 3.4978,11.3812 7.1264,15.5139 3.7637,4.2866 7.0968,6.1304 13.6055,7.5263 2.6685,0.5723 6.3003,1.9214 8.0707,2.998 4.343,2.6412 8.8336,9.9979 10.279,16.8396 0.6533,3.0922 1.8481,6.6959 2.6552,8.0081 1.3839,2.2501 1.8736,2.3545 8.6054,1.8357 3.9258,-0.3025 10.2336,-1.6789 14.0171,-3.0586 19.5,-7.1108 29.7727,-21.888 29.7801,-42.8383 0,-11.081 -2.2214,-19.2375 -11.1018,-40.6939 -11.0139,-26.6109 -14.2594,-39.9603 -14.3757,-59.1308 -0.2167,-35.683 15.8044,-63.3875 44.8182,-77.502 10.6938,-5.2023 18.7586,-7.4019 30.0641,-8.1997 28.2744,-1.9954 55.5911,12.9826 67.4105,36.9618 9.1723,18.6089 9.1904,36.8335 0.055,55.369 -8.9453,18.1496 -21.5202,26.6117 -34.8086,23.4239 -12.1358,-2.9113 -19.5073,-16.4955 -14.8334,-27.3351 0.7631,-1.7698 3.7245,-5.4679 6.5808,-8.2179 9.6454,-9.2864 11.8523,-18.0377 6.737,-26.714 -5.8054,-9.8468 -13.8209,-14.1644 -26.2053,-14.1157 -17.9391,0.07 -32.2936,10.9628 -37.6387,28.5603 -1.8346,6.0402 -2.0513,8.6374 -1.5961,19.1293 0.5802,13.3699 2.6366,21.7786 9.9336,40.6187 12.2829,31.713 15.3646,44.9 14.4937,62.0214 -1.6288,32.0234 -18.3178,58.4281 -45.1925,71.502 -11.6735,5.6789 -18.8623,7.4603 -36.2219,8.976 -16.8151,1.4682 -19.3676,2.7812 -23.8429,12.265 -6.8342,14.4828 -18.2675,26.5938 -31.0871,32.9295 -7.1517,3.5346 -8.3989,3.8275 -16.2962,3.8275 -8.0661,0 -8.9609,-0.2234 -15.7518,-3.9333 -8.1828,-4.4704 -8.1177,-4.4799 -16.8001,2.4543 -9.8682,7.8812 -22.9421,10.3884 -34.281,6.5741 -6.6076,-2.2227 -10.48,-5.437 -13.1199,-10.8903 -3.3837,-6.9899 -5.1014,-7.5161 -25.5406,-7.8248 l -17.887,-0.27 -2.5857,3.4278 c -9.0375,11.9806 -16.5714,16.9873 -26.4495,17.5772 -3.648,0.2179 -7.961,-0.2237 -10.6363,-1.089 z m 85.3735,-219.041 c 11.3589,-2.0426 23.1214,-5.7683 32.6214,-10.3326 10.3769,-4.9857 20.805,-15.2844 23.9496,-23.6524 3.7494,-9.9771 3.7871,-15.6222 0.1736,-25.9835 -3.3424,-9.5841 -3.7892,-13.3939 -1.9696,-16.7939 0.6316,-1.1803 4.3884,-5.8519 8.3483,-10.3813 13.041,-14.9167 18.889,-29.5696 18.8939,-47.3413 0.01,-19.005 -5.6656,-33.2225 -18.3855,-46.0956 -12.0129,-12.1576 -23.6899,-17.6609 -39.5128,-18.6221 -15.3559,-0.9329 -29.2129,3.6654 -44.8895,14.896 -4.4566,3.1927 -8.7271,5.8087 -9.4901,5.8133 -0.7629,0 -4.322,-2.497 -7.9091,-5.5591 -25.3051,-21.6021 -60.0971,-20.5271 -83.29816,2.5736 -12.79031,12.735 -19.23518,28.6423 -19.24224,47.4939 -0.008,20.2844 8.22699,38.567 24.25308,53.847 5.82722,5.5559 6.14572,7.2004 3.08273,15.9152 -4.35234,12.3832 -4.41185,24.495 -0.16749,34.0901 7.09338,16.0357 30.90358,27.9032 63.37098,31.5853 11.3983,1.2926 39.4152,0.4815 50.1709,-1.4526 z m -50.3735,-29.4326 c -4.8427,-0.9614 -9.047,-3.3203 -12.8493,-7.2094 -3.7455,-3.8311 -4.8915,-7.2455 -3.1399,-9.356 2.0583,-2.4801 4.6616,-1.6884 7.9023,2.4033 3.5828,4.5237 10.0202,7.5029 14.2192,6.5806 6.2547,-1.3737 11.8462,-12.5043 9.8165,-19.5409 -1.2466,-4.3218 -2.4063,-5.7219 -7.7392,-9.344 -2.3597,-1.6027 -5.6725,-4.4881 -7.3618,-6.4121 -2.6888,-3.0624 -3.0096,-4.0461 -2.5754,-7.8983 1.012,-8.9784 7.1726,-11.8768 23.2276,-10.928 16.977,1.0032 21.5,3.5808 21.5,12.2525 0,5.4972 -4.1578,10.5536 -11.5601,14.0584 -5.6826,2.6906 -7.4533,5.3501 -7.4161,11.1386 0.06,9.2472 3.4561,15.4905 9.1018,16.7305 4.997,1.0975 8.9905,-0.5135 13.9859,-5.6421 4.9381,-5.0698 6.9696,-5.471 8.9515,-1.7678 1.2954,2.4205 0.1196,4.6368 -4.7094,8.8767 -4.8408,4.2503 -10.9021,6.9562 -15.6434,6.9837 -3.6922,0.021 -10.9436,-2.9287 -12.2014,-4.9638 -1.0194,-1.6495 -5.4945,-1.1606 -8.4154,0.9192 -2.3983,1.7078 -4.7638,2.5358 -10.0934,3.5331 -0.825,0.1544 -3.075,-0.032 -5,-0.4142 z m 70.1169,-72.6831 c -6.0634,-4.2469 -6.9537,-18.0163 -1.5425,-23.8551 3.1946,-3.447 10.0999,-3.5542 13.2457,-0.2057 3.9498,4.2044 4.6185,15.3085 1.2942,21.4894 -2.2185,4.1247 -8.8942,5.4455 -12.9974,2.5714 z m -109.8879,-0.039 c -2.4275,-0.9766 -4.229,-6.2296 -4.229,-12.3307 0,-9.2817 3.2017,-14 9.5,-14 1.4473,0 3.4972,0.4634 4.5554,1.0297 6.6242,3.5451 6.6242,21.3955 0,24.9407 -1.9811,1.0602 -7.5769,1.2654 -9.8264,0.3603 z m -85.48591,-15.8307 c 0.53023,-15.2682 2.34039,-30.3576 4.87033,-40.5986 1.46126,-5.9151 2.40959,-11.399 2.1074,-12.1865 -1.26534,-3.2974 -14.80214,-2.7927 -21.77246,0.8118 -5.08227,2.6282 -10.72854,9.2726 -13.00079,15.2991 -2.85938,7.5837 -2.41966,20.5216 0.91662,26.9693 5.03687,9.7342 15.74444,17.5984 23.1358,16.992 l 3.5,-0.2871 z m 309.05941,2.315 c 4.1332,-3.2095 6.607,-6.182 9.0434,-10.8665 3.1523,-6.061 3.3292,-6.9293 2.9443,-14.4485 -0.9452,-18.4615 -12.6857,-31.5 -28.3641,-31.5 -8.7919,0 -9.2954,0.9268 -6.0203,11.0807 3.8244,11.8568 5.689,23.8879 5.7204,36.9095 0.017,7.0537 0.4654,12.0177 1.1614,12.8563 2.1977,2.6482 9.2842,0.8067 15.5149,-4.0315 z"
           id="path5084" /><path
           style="fill:#8f542b"
           d="m 1027.1565,3992.0346 c -3.0944,-1.0223 -8.7427,-3.9496 -12.5517,-6.5052 -8.2281,-5.5205 -11.3611,-5.8335 -19.32221,-1.9308 -4.71007,2.309 -6.7926,2.7011 -14.5,2.7297 -8.21148,0.03 -9.53796,-0.2469 -15.14021,-3.165 -8.26342,-4.3044 -22.14132,-17.6355 -28.79677,-27.6622 -9.53651,-14.3671 -13.80462,-26.5893 -15.61736,-44.7218 -1.73893,-17.3941 0.77647,-26.6986 9.3557,-34.6066 5.57437,-5.1383 8.55446,-6.6887 17.75997,-9.2397 7.95103,-2.2033 8.44035,-2.6228 9.97446,-8.5502 4.80571,-18.5681 13.41338,-36.3868 31.87509,-65.9842 7.19902,-11.5413 13.08913,-21.9037 13.08913,-23.0275 0,-3.4162 -2.6512,-6.1352 -11.77314,-12.0742 -20.43861,-13.307 -35.28122,-32.3111 -44.68204,-57.2098 -1.72555,-4.5702 -3.65558,-7.886 -5.16645,-8.8759 -1.34208,-0.8794 -6.28555,-1.9712 -11.14513,-2.4615 -18.14737,-1.831 -31.36265,-8.7243 -40.96306,-21.3669 -14.01525,-18.4565 -15.98797,-42.4434 -5.27773,-64.1734 8.86219,-17.9804 27.00799,-30.2284 47.73828,-32.2222 5.06595,-0.4872 7.91011,-0.3222 9.5,0.551 1.24809,0.6855 4.13105,1.537 6.40657,1.8921 6.44269,1.0056 11.98017,-2.017 20.55128,-11.2181 19.89887,-21.3613 31.16324,-30.5158 49.00922,-39.8295 24.0444,-12.5486 53.2154,-18.3091 78.8022,-15.5611 43.1394,4.6329 78.5538,25.2108 105.3843,61.2343 4.0085,5.382 6.65,5.9555 17.204,3.7357 10.0398,-2.1117 14.9285,-2.3279 22.0588,-0.9757 17.8098,3.3776 33.9135,16.5538 42.739,34.9696 6.5121,13.5884 7.0664,28.351 1.6516,43.9884 -8.0526,23.2555 -24.021,35.9618 -48.9269,38.9322 -10.4228,1.2431 -11.417,2.1503 -17.4265,15.9032 -9.0312,20.6682 -24.6056,39.3297 -43.2111,51.7764 -7.1397,4.7762 -9.0368,6.553 -9.2844,8.6954 -0.2277,1.9703 2.6056,7.6035 10.5608,20.9972 22.3728,37.6678 29.9812,51.9043 32.2286,60.3045 3.8864,14.5261 8.5848,19.5592 21.3227,22.8418 3.1906,0.8222 6.9046,2.2181 8.2535,3.1019 3.6688,2.4039 7.175,8.6053 9.3953,16.6172 1.09,3.9334 2.5023,7.7788 3.1385,8.5454 1.537,1.852 9.9103,1.8056 17.2086,-0.095 27.834,-7.2498 40.6287,-30.87 33.0487,-61.0109 -0.8299,-3.3 -4.2368,-12.525 -7.5708,-20.5 -12.3211,-29.4721 -15.7747,-43.3631 -15.7747,-63.4492 0,-7.5971 0.63,-15.7085 1.5801,-20.3429 7.4041,-36.1185 35.7678,-61.5729 72.1435,-64.7437 27.9111,-2.433 56.9145,13.1931 68.0988,36.6893 5.0379,10.5839 6.6021,17.1812 6.6021,27.8465 0,10.7072 -1.5793,17.37 -6.5339,27.5667 -4.7523,9.7802 -12.2475,18.4595 -18.5945,21.532 -8.6069,4.1665 -20.901,2.4215 -26.4911,-3.7603 -2.6575,-2.9387 -5.7589,-10.5114 -5.783,-14.1205 -0.035,-5.273 2.5498,-10.0207 9.4236,-17.3073 8.933,-9.4696 10.2969,-14.6267 6.1967,-23.4315 -5.2058,-11.1792 -13.2116,-15.8527 -27.2402,-15.9018 -8.5284,-0.03 -9.5726,0.2028 -16.6846,3.7178 -20.8681,10.3135 -27.7927,32.7745 -19.7151,63.9489 1.1766,4.5408 5.0444,15.828 8.595,25.0827 8.2425,21.4836 11.2008,31.7742 12.6256,43.918 3.6206,30.859 -10.6609,63.221 -35.204,79.7728 -12.8562,8.6701 -25.2537,12.5895 -44.2054,13.975 -6.9775,0.5101 -14.2307,1.5728 -16.1182,2.3614 -4.0324,1.6849 -7.0473,5.4879 -12.1422,15.3161 -10.0048,19.2997 -31.7398,33.8586 -47.7797,32.0046 -3.0959,-0.3578 -8.0811,-2.0682 -12.0724,-4.142 -3.7394,-1.9429 -7.4094,-3.5326 -8.1554,-3.5326 -0.7461,0 -3.287,1.6129 -5.6466,3.5843 -11.199,9.3565 -25.2945,12.7433 -37.0257,8.8963 -7.4501,-2.443 -10.5269,-4.8633 -13.4062,-10.5454 -3.808,-7.5146 -5.7581,-8.1454 -25.9054,-8.379 l -17.0618,-0.1978 -3.5,4.0128 c -7.3347,8.4093 -12.436,12.9341 -16.7167,14.8277 -6.4133,2.8369 -13.68,3.1762 -20.4094,0.9529 z m 76.3824,-42.1465 c 3.0588,-1.1444 5.9917,-2.6263 6.5175,-3.293 3.7855,-4.7999 12.2368,-34.6489 14.4061,-50.8805 1.4621,-10.94 -0.518,-50.5695 -2.9145,-58.3318 -4.4331,-14.3584 -13.4227,-25.5444 -23.5839,-29.3462 -7.8261,-2.9281 -18.5465,-2.9245 -26.3866,0.01 -11.3171,4.2343 -22.2949,18.7794 -22.2949,29.5397 0,2.8455 -0.7487,8.239 -1.6637,11.9857 -1.2783,5.2338 -1.6753,11.7931 -1.7139,28.312 -0.055,23.4309 1.3721,33.4614 7.003,49.2337 3.3032,9.2525 10.25,22.7534 11.736,22.8087 0.6262,0.023 4.9636,0.6829 9.6386,1.4657 10.6679,1.7863 22.0245,1.203 29.2563,-1.5028 z m 4.4263,-175.5554 c 39.2616,-5.8298 62.5774,-22.6249 64.108,-46.179 0.4114,-6.3308 0.066,-8.3474 -2.7756,-16.2293 -4.2572,-11.8063 -3.8646,-13.8686 4.3428,-22.812 11.8124,-12.8718 17.3284,-23.046 20.2132,-37.2834 3.1251,-15.4226 0.4827,-32.5603 -7.1613,-46.4462 -1.5139,-2.75 -6.6128,-8.8274 -11.3311,-13.5053 -13.0082,-12.8969 -24.9287,-17.9947 -42.0786,-17.9947 -13.8388,0 -26.2176,4.1738 -39.0408,13.1636 -8.8271,6.1883 -11.3658,7.8252 -12.1455,7.8311 -0.3774,0 -3.5274,-2.4891 -7,-5.5377 -6.9498,-6.1015 -17.3194,-11.714 -25.8137,-13.9715 -7.2394,-1.924 -23.0111,-1.8941 -30.5054,0.058 -10.8217,2.8187 -18.3808,7.2605 -27.08254,15.9137 -9.05028,8.9999 -14.00665,17.0468 -17.5805,28.5429 -1.93575,6.2268 -2.32296,9.6221 -2.28087,20 0.0445,10.9637 0.38955,13.4833 2.80776,20.5 3.88575,11.275 9.69715,20.5632 18.79526,30.04 4.31546,4.4951 7.84319,9.025 7.83929,10.0665 0,1.0414 -1.1943,5.2685 -2.64545,9.3935 -2.095,5.9551 -2.65714,9.4569 -2.72896,17 -0.0804,8.4402 0.22806,10.193 2.7648,15.7116 3.16491,6.8853 11.03921,15.1307 18.75281,19.6367 9.2736,5.4174 26.5267,10.5952 41.8638,12.5638 11.3032,1.4508 37.4725,1.2024 48.6826,-0.4622 z m -14.7493,-30.3566 c -1.4116,-0.4522 -4.4029,-2.0374 -6.6472,-3.5227 l -4.0806,-2.7004 -5.7435,3.0649 c -6.1047,3.2576 -11.1079,3.8466 -17.5274,2.0633 -4.5707,-1.2697 -11.2815,-7.0074 -12.9735,-11.0923 -1.1752,-2.8372 -1.1165,-3.3193 0.5532,-4.5402 2.7183,-1.9877 3.2544,-1.787 7.3089,2.7349 8.7046,9.7082 17.3453,9.2223 22.5735,-1.2694 4.6963,-9.4242 2.8246,-15.411 -6.9456,-22.2164 -7.6572,-5.3334 -10.2306,-10.07 -8.5388,-15.7167 0.6751,-2.2532 2.2973,-4.6453 3.8333,-5.6523 5.108,-3.3491 26.2358,-3.3982 34.5516,-0.08 1.5384,0.6138 3.4509,2.3803 4.25,3.9255 3.5507,6.8664 0.2743,13.6133 -9.016,18.5659 -7.5198,4.0088 -8.5325,5.4679 -8.5256,12.284 0.012,11.5021 3.8507,17.0462 11.8101,17.0552 4.2708,0 6.7041,-1.2861 11.957,-6.3436 3.5042,-3.3738 4.5835,-3.919 6,-3.0311 3.1373,1.9665 2.6629,5.2315 -1.3036,8.9723 -6.6874,6.307 -15.5856,9.4057 -21.5358,7.4994 z m 40.5425,-72.5135 c -4.0562,-1.7347 -5.4758,-5.2874 -5.4758,-13.7038 0,-6.4365 0.2467,-7.2766 2.9231,-9.9529 3.3317,-3.3317 8.2246,-3.9088 11.8155,-1.3936 5.4286,3.8023 5.5393,19.8294 0.1663,24.0826 -2.4191,1.915 -6.2863,2.3119 -9.4291,0.9677 z m -111.1768,-1.0829 c -3.0117,-2.1095 -4.6476,-7.8301 -4.0089,-14.0185 0.667,-6.4628 2.291,-9.185 6.261,-10.4952 4.5903,-1.515 9.3186,0.4608 11.0565,4.62 2.6636,6.375 1.1186,17.0744 -2.869,19.8673 -2.7834,1.9496 -7.6762,1.962 -10.4396,0.026 z m -84.89083,-11.759 c 0.27184,-1.7809 0.727,-9.5379 1.01148,-17.2379 0.34411,-9.3139 1.24124,-17.0124 2.68026,-23 3.39938,-14.1444 3.4927,-16.1125 0.83154,-17.5367 -3.51105,-1.879 -13.62514,-0.6589 -19.5888,2.3631 -9.00905,4.5652 -14.32497,12.8124 -15.94355,24.7349 -1.99508,14.696 9.34288,31.7197 23.14667,34.7544 5.0618,1.1128 7.24273,-0.018 7.8624,-4.0778 z m 305.64603,1.4374 c 8.02,-5.0955 14.0242,-13.5777 15.3805,-21.7278 0.8906,-5.3518 -1.6786,-17.4816 -4.8483,-22.8903 -2.9902,-5.1023 -9.5931,-11.2442 -14.1231,-13.137 -4.9171,-2.0545 -13.7548,-2.8697 -16.3063,-1.5042 -2.6951,1.4423 -2.7259,4.0346 -0.1358,11.4039 3.841,10.9285 5.2642,19.8338 5.4806,34.2934 0.1161,7.7623 0.5273,14.6248 0.9137,15.25 1.3751,2.2249 8.9571,1.2865 13.6387,-1.688 z"
           id="path5083" /><g
           id="path5082"
           style="opacity:1"><path
             style="baseline-shift:baseline;display:inline;overflow:visible;vector-effect:none;fill:#2d2219;enable-background:accumulate;stop-color:#000000;stop-opacity:1"
             d="m 1029.7826,3992.4956 c -5.6054,-1.4134 -11.3298,-4.2077 -16.4113,-8.011 -6.5725,-4.9191 -9.0807,-5.1269 -17.28488,-1.4319 -6.28011,2.8285 -8.42807,3.2924 -15.32485,3.3098 -11.22806,0.028 -18.25367,-3.5093 -30.32121,-15.2683 -20.13415,-19.6192 -29.83858,-43.1548 -28.9503,-70.2114 0.32952,-10.0371 0.71061,-12.136 2.99575,-16.5 4.72228,-9.0182 13.4704,-15.0408 25.46994,-17.5347 2.84523,-0.5914 5.67315,-1.6776 6.28426,-2.414 0.61111,-0.7363 2.00878,-4.6491 3.10593,-8.695 5.02462,-18.5292 12.37079,-33.3528 32.04542,-64.6634 6.10022,-9.7081 11.33184,-19.1331 11.62574,-20.9446 0.6862,-4.2284 -0.8159,-5.9012 -11.73451,-13.0681 -9.8461,-6.4629 -24.8028,-21.0122 -30.51124,-29.6802 -5.23096,-7.9429 -10.97818,-19.4557 -13.5093,-27.0617 -2.98424,-8.9677 -5.01419,-10.467 -15.65945,-11.5658 -22.01481,-2.2725 -37.82759,-12.1798 -47.0046,-29.4501 -7.25039,-13.6446 -8.78799,-31.9763 -3.94227,-47.0008 6.3473,-19.6802 21.95646,-34.2629 42.22287,-39.4461 9.22746,-2.36 15.87487,-2.5123 20.74975,-0.4755 9.55619,3.9928 13.37643,1.9005 33.39792,-18.2924 12.79475,-12.9042 19.13495,-18.4674 26.81723,-23.5309 33.1365,-21.8404 71.4406,-28.967 110.3651,-20.5337 32.4419,7.0288 61.3815,25.531 83.7152,53.5225 8.4621,10.6058 9.9549,11.2782 19.5,8.784 19.7929,-5.172 39.2971,0.6676 53.9396,16.1497 16.9322,17.9032 21.6343,39.5649 13.4704,62.0563 -7.7024,21.2196 -22.5842,33.7022 -44.163,37.0428 -13.7013,2.1212 -16.0636,3.2766 -18.5339,9.0652 -11.5707,27.1142 -23.1167,42.4966 -42.2954,56.349 -13.2239,9.5514 -13.5589,9.8621 -13.5589,12.5731 0,1.4641 6.7667,14.1232 16.0312,29.9911 21.1642,36.2493 24.5196,42.6189 26.4719,50.2519 3.719,14.5407 9.1999,20.5579 21.4627,23.563 9.3512,2.2917 13.9872,7.0986 17.05,17.6785 3.9857,13.7679 4.1387,13.8699 17.1329,11.4236 24.678,-4.6459 39.8513,-22.0737 39.8513,-45.7723 0,-8.5754 -2.983,-19.894 -9.177,-34.8214 -12.3423,-29.7447 -16.823,-47.3409 -16.823,-66.0657 0,-40.5837 23.5219,-72.4777 60.41,-81.9114 10.0022,-2.558 27.0249,-2.7468 36.5261,-0.4052 24.5801,6.0579 43.5298,24.0961 49.4942,47.1132 2.0207,7.7983 2.0199,22.7432 0,30.5448 -4.4029,16.991 -17.3959,33.3143 -28.1187,35.326 -13.1302,2.4632 -23.3231,-3.6144 -26.3272,-15.6978 -1.7833,-7.1732 -0.059,-11.7979 7.1181,-19.0869 10.3145,-10.4759 12.1081,-16.9916 7.3214,-26.5972 -2.7902,-5.5994 -6.3579,-9.0806 -12.8057,-12.4956 -3.4277,-1.8155 -5.7932,-2.184 -14.1375,-2.2022 -9.3225,-0.02 -10.4847,0.2062 -16.6717,3.2521 -7.7938,3.8369 -15.4154,11.5905 -19.1466,19.4783 -7.5518,15.9644 -5.5484,36.0631 6.7356,67.5707 11.2235,28.7879 13.8956,39.7058 13.8714,56.6769 -0.035,24.4578 -9.2202,45.9427 -26.5387,62.0751 -13.9419,12.9872 -31.2376,19.848 -53.7334,21.315 -17.652,1.1511 -19.3196,2.2378 -27.9956,18.2428 -8.39,15.4775 -23.7903,27.8859 -38.2784,30.8418 -7.1988,1.4687 -13.9804,0.1989 -21.4491,-4.0162 -2.8832,-1.6272 -6.19,-2.9585 -7.3484,-2.9585 -1.1584,0 -3.9777,1.6021 -6.2651,3.5602 -2.2875,1.9581 -7.0745,4.9956 -10.638,6.75 -5.8375,2.874 -7.3721,3.1893 -15.5,3.1843 -8.0155,-0.01 -9.6875,-0.3394 -15.0006,-3 -4.9884,-2.4981 -6.3974,-3.8119 -8.5,-7.9259 -4.4297,-8.6672 -5.4829,-9.0442 -25.7834,-9.2287 l -17.6168,-0.1601 -3.0601,3.2248 c -1.6831,1.7737 -5.0851,5.4027 -7.5601,8.0645 -7.5305,8.099 -17.9302,11.5568 -27.5,9.1437 z m 16.1697,-7.7565 c 4.0553,-1.2261 10.6987,-8.4126 12.321,-13.3281 1.8609,-5.6387 0.6736,-11.8767 -4.2882,-22.5282 -5.4533,-11.7068 -9.2481,-23.0589 -11.7727,-35.2182 -2.8097,-13.5321 -4.4055,-40.5531 -3.3238,-56.2818 l 0.894,-13 h 3 3 l 0.019,30 0.019,30 3.1382,11.6547 c 3.0296,11.2517 9.1387,25.9464 13.1407,31.6086 1.0639,1.5052 2.2434,4.3117 2.6212,6.2367 1.2041,6.136 2.6627,8.801 5.3976,9.8623 5.6683,2.1995 10.9328,3.1259 17.6642,3.1083 13.5714,-0.035 18.3139,-2.6331 20.5145,-11.2365 0.5956,-2.3288 2.9176,-9.1841 5.1599,-15.2341 2.2423,-6.05 5.6736,-17.075 7.625,-24.5 3.4436,-13.1024 3.5503,-14.0595 3.6243,-32.5 0.042,-10.45 -0.2754,-23.8375 -0.7053,-29.75 -0.7226,-9.9394 -0.6472,-10.7488 1,-10.7347 4.1608,0.036 4.6556,1.4263 5.9326,16.6704 1.7713,21.1444 1.6288,29.4131 -0.7488,43.439 -2.56,15.1025 -7.2906,31.0361 -13.5083,45.4988 -5.8039,13.5003 -6.2551,19.5249 -2.0053,26.7767 7.8672,13.4243 26.5311,14.5437 41.7337,2.5029 11.2717,-8.9273 23.5858,-35.7332 28.5585,-62.1673 2.6101,-13.8749 2.5364,-49.1037 -0.1271,-60.7358 -1.0705,-4.675 -1.9705,-10.525 -2,-13 -0.05,-4.1779 0.1425,-4.5226 2.6878,-4.8156 2.0893,-0.2405 2.9692,0.2353 3.6985,2 1.3447,3.2539 3.7878,15.191 4.5674,22.3156 0.361,3.3 0.8749,6.7875 1.1419,7.75 1.0287,3.7081 9.9574,1.1653 11.0389,-3.1438 0.3521,-1.403 -0.1666,-5.7133 -1.1526,-9.5785 -4.2984,-16.8486 -12.2124,-32.6671 -31.522,-63.0062 -7.2048,-11.3203 -13.3583,-21.2561 -13.6743,-22.0797 -1.3933,-3.6307 -4.1142,-3.6434 -13.1724,-0.061 -39.1775,15.4924 -78.503,16.4599 -120.4598,2.9636 -5.936,-1.9095 -11.7699,-3.3305 -12.9641,-3.1578 -1.6455,0.2379 -5.0311,5.1582 -13.9778,20.3139 -19.31088,32.7126 -25.79029,44.9655 -29.7602,56.2782 -5.67565,16.1733 -5.7256,16.6551 -2.10253,20.2781 2.61225,2.6123 3.68564,3.0153 7.329,2.7521 l 4.26852,-0.3084 0.84262,-11.5 c 0.46344,-6.325 1.58844,-13.75 2.5,-16.5 1.40039,-4.2247 2.04503,-5 4.15738,-5 2.2069,0 2.4899,0.4104 2.41379,3.5 -0.0474,1.925 -0.86943,7.55 -1.8267,12.5 -6.73882,34.8462 0.78988,85.3669 16.21802,108.8297 4.7927,7.2886 14.3893,17.0905 19.9175,20.3435 6.6896,3.9364 14.6448,4.6932 22.9471,2.1831 z m -54.40979,-6.4292 c 8.67539,-2.956 9.01359,-5.8156 2.34994,-19.8683 -9.78719,-20.6397 -15.26496,-40.9777 -16.31075,-60.5588 -0.30843,-5.775 -1.12915,-11.9032 -1.82384,-13.6182 -2.4619,-6.0778 -12.41367,-11.3825 -21.35099,-11.381 -6.25606,0 -15.83059,4.6121 -19.98195,9.6232 -9.81476,11.8473 -8.59816,36.7067 2.92377,59.7425 8.60002,17.1941 22.37705,31.9619 33.6965,36.1198 5.0992,1.873 14.90973,1.8447 20.49732,-0.059 z m 207.74009,-0.6328 c 10.2687,-3.0013 25.6495,-18.0027 33.1839,-32.3654 8.0699,-15.3834 13.0513,-37.9012 10.8792,-49.1783 -1.9182,-9.959 -6.9172,-17.0536 -14.6991,-20.8609 -6.0781,-2.9738 -10.6855,-2.9417 -19.864,0.1382 -11.1653,3.7465 -13.9983,8.5092 -14.9266,25.0938 -1.0975,19.605 -5.8112,37.3976 -15.2747,57.6557 -5.9609,12.7604 -6.2286,15.412 -1.8455,18.2839 4.6905,3.0734 14.428,3.6059 22.5468,1.233 z m 71.5,-48.775 c 43.6758,-8.6306 69.5132,-42.5323 64.4884,-84.6164 -1.598,-13.3835 -3.9004,-21.5194 -12.9704,-45.832 -10.4756,-28.0803 -11.3673,-31.6293 -11.4499,-45.5709 -0.06,-10.0637 0.2891,-12.5899 2.7923,-20.2264 7.2372,-22.0786 22.143,-33.2837 44.1396,-33.1806 11.5171,0.054 18.3322,2.5731 26.0545,9.6308 7.0001,6.3978 9.4527,11.0798 9.4218,17.9864 -0.031,6.8431 -3.0529,14.0799 -10.273,24.5992 -6.3239,9.2135 -7.0167,12.5244 -3.7438,17.8921 7.2554,11.8992 25.1962,5.819 33.94,-11.5024 11.202,-22.191 7.0837,-48.2165 -10.3971,-65.7043 -7.7753,-7.7783 -15.1911,-12.1461 -26.5024,-15.6094 -9.9841,-3.0569 -25.8837,-3.0661 -37.3005,-0.022 -25.2456,6.7323 -44.8569,27.6056 -51.8248,55.1596 -1.844,7.2924 -2.0641,10.3064 -1.6038,21.9644 0.6688,16.9366 3.5864,28.6252 14.1858,56.8315 9.8312,26.1621 10.9366,30.4533 10.9953,42.6807 0.06,12.4396 -2.3814,20.238 -9.5148,30.3955 -8.4847,12.0818 -19.4853,18.7492 -36.7129,22.2516 -11.4963,2.3371 -13.958,3.6997 -14.6255,8.0953 -1.0164,6.6929 -1.3985,14.4619 -0.7596,15.443 1.6528,2.5381 6.145,2.3999 21.6608,-0.6661 z m -173.5,-153.0339 c 43.0331,-3.7328 69.7917,-19.4232 74.923,-43.9325 1.3803,-6.5928 0.6191,-12.6516 -2.5469,-20.2728 -1.3068,-3.1459 -2.3761,-7.6977 -2.3761,-10.1151 0,-4.9048 0.8669,-6.2881 10.6111,-16.9321 7.0884,-7.7428 13.5247,-19.8241 15.8403,-29.7329 1.9622,-8.3963 1.9817,-24.8701 0.039,-32.5399 -6.0861,-24.0232 -25.7127,-43.0866 -49.4901,-48.0698 -17.1943,-3.6036 -36.8534,1.9157 -54.1039,15.1896 -3.1593,2.4311 -6.6736,4.4201 -7.8096,4.4201 -1.1359,0 -4.4992,-2.2041 -7.474,-4.8981 -27.7713,-25.1498 -71.2152,-19.536 -92.11594,11.9033 -12.52301,18.8373 -15.06896,42.9102 -6.7681,63.9948 3.66851,9.3182 10.43206,19.3446 18.37727,27.2426 3.79185,3.7694 6.89427,7.3605 6.89427,7.9802 0,0.6198 -1.2259,4.5357 -2.7242,8.702 -2.30191,6.401 -2.72819,9.2052 -2.75,18.0908 -0.0243,9.8877 0.17006,10.9138 3.25477,17.1848 9.63413,19.5856 38.43923,31.0789 81.71943,32.6061 2.75,0.097 10.175,-0.2725 16.5,-0.8211 z m -37.236,-32.9254 c -5.085,-1.6347 -9.7265,-5.1872 -12.2027,-9.3397 -1.8173,-3.0474 -2.1823,-4.472 -1.3903,-5.4263 1.8016,-2.1709 4.6508,-1.454 7.0343,1.7698 4.9857,6.7436 13.8542,9.037 19.0725,4.9323 3.4094,-2.6818 6.7222,-9.7593 6.7222,-14.3615 0,-5.3602 -2.2788,-9.0387 -8.4011,-13.5615 -7.3362,-5.4196 -9.5989,-8.5293 -9.5989,-13.1922 0,-2.8438 0.7639,-4.7024 2.9244,-7.1151 l 2.9245,-3.2658 14.3255,0.097 c 7.956,0.054 15.5251,0.5897 17.0233,1.2054 3.6691,1.5078 6.075,5.491 6.075,10.0576 0,5.1507 -2.3241,8.3167 -8.5396,11.6328 -10.1352,5.4073 -11.7522,8.5431 -9.8134,19.0308 1.2304,6.6559 3.8277,10.0369 8.756,11.3976 5.1973,1.4351 10.1988,-0.4579 15.1365,-5.7289 3.5293,-3.7675 4.6187,-4.4103 6,-3.5404 2.848,1.7934 2.535,4.3934 -0.9685,8.0434 -7.3503,7.6578 -17.7015,10.312 -24.8437,6.3703 -8.7518,-4.8301 -7.7698,-4.7006 -13.067,-1.7229 -5.2636,2.9588 -12.7383,4.142 -17.169,2.7176 z m -36.4486,-72.0291 c -2.8284,-1.1886 -4.0465,-3.5775 -4.3499,-8.5309 -0.5278,-8.6158 -0.01,-11.5483 2.489,-14.0454 3.1216,-3.1216 9.3823,-3.3974 11.9793,-0.5277 4.0476,4.4725 4.1544,16.1664 0.1888,20.6665 -2.391,2.7134 -7.0365,3.8119 -10.3072,2.4375 z m 108.0463,-1.3962 c -2.3543,-2.025 -2.8086,-3.2887 -3.1586,-8.7859 -0.6627,-10.4077 2.7494,-15.8488 9.9389,-15.8488 3.3944,0 7.4864,5.0361 8.2546,10.1593 0.8749,5.8339 -0.9769,13.4333 -3.7459,15.3728 -3.161,2.2141 -8.131,1.819 -11.289,-0.8974 z m 58.4452,64.9567 c 15.1562,-15.7192 26.1192,-37.9997 30.306,-61.5914 2.067,-11.6477 1.6135,-35.5128 -0.8933,-47 -12.324,-56.4749 -53.0009,-97.3069 -109.2196,-109.6359 -6.8588,-1.5042 -12.5547,-1.8527 -29.5,-1.8053 -20.2601,0.057 -21.4153,0.1692 -32.7875,3.1908 -21.6239,5.7455 -42.4501,17.4373 -58.83547,33.0301 -20.96731,19.9531 -35.94468,46.4736 -42.5283,75.3052 -2.41481,10.5751 -2.3926,35.4899 0.0418,46.9151 5.52202,25.916 16.82589,49.2165 30.52025,62.9108 4.05581,4.0558 14.18899,11.3227 14.8571,10.6546 0.20803,-0.208 -0.77964,-4.0435 -2.19483,-8.5234 -3.09737,-9.8049 -3.16222,-12.0165 -0.57308,-19.542 2.32977,-6.7716 2.58706,-15.1592 0.61013,-19.8907 -0.76443,-1.8295 -4.06351,-6.2766 -7.33129,-9.8825 -11.37352,-12.5502 -17.16343,-27.2601 -18.00829,-45.752 -0.5973,-13.0733 1.3783,-23.3969 6.59055,-34.4392 8.13981,-17.2444 27.38811,-34.0371 45.63893,-39.8164 10.8733,-3.4431 25.161,-3.0493 36.8179,1.015 4.8498,1.6909 12.9798,5.5924 18.0666,8.6701 5.0869,3.0776 10.0888,5.5957 11.1155,5.5957 1.0266,0 5.9466,-2.453 10.9333,-5.4511 12.9314,-7.7748 22.4009,-10.7454 36.0857,-11.3201 13.1851,-0.5537 20.1792,0.9139 31.981,6.7111 29.2092,14.3479 45.6351,48.2835 38.9758,80.5233 -3.0876,14.9482 -12.7675,32.5448 -22.1177,40.2066 -2.3536,1.9286 -4.5526,4.3677 -4.8866,5.4201 -0.3425,1.0791 0.5923,4.8563 2.1436,8.6618 4.2501,10.4254 3.7558,24.6943 -1.3129,37.9031 -1.083,2.8224 7.864,-4.1388 15.5047,-12.0634 z m -252.63565,-53.2464 c 2.36529,-2.1405 2.33433,-5.8394 -0.069,-8.2427 -1.04375,-1.0438 -5.15962,-2.9272 -9.14639,-4.1855 -26.60651,-8.3971 -36.3416,-38.8999 -19.64267,-61.5461 7.80172,-10.5802 15.67715,-14.3707 29.85796,-14.3707 8.06977,0 9.14731,-0.2276 11.308,-2.3883 3.37927,-3.3792 4.40521,-9.4763 1.91214,-11.3636 -2.98653,-2.2609 -25.01046,-1.1071 -33.1141,1.7348 -13.74975,4.822 -24.47985,14.9246 -29.17227,27.4662 -12.40116,33.145 5.61834,68.9884 36.89505,73.3894 9.32756,1.3125 9.16785,1.3196 11.17126,-0.4935 z m 304.17415,-0.3525 c 24.9849,-6.2956 39.589,-25.0969 39.6398,-51.0324 0.027,-14.0236 -4.5694,-26.1566 -13.6096,-35.9211 -10.7461,-11.6071 -21.5511,-16.2936 -37.5213,-16.2745 -15.5022,0.019 -19.3228,2.2559 -16.8172,9.848 1.4332,4.3427 6.4413,6.8956 11.621,5.9238 4.3437,-0.8149 14.6866,1.0888 19.6369,3.6142 21.0027,10.7148 27.2274,42.5177 11.7681,60.1248 -3.7213,4.2384 -11.9934,9.4017 -20.3475,12.7007 -6.9497,2.7444 -9.0004,5.1448 -7.5822,8.875 1.7966,4.7252 2.5033,4.8398 13.212,2.1415 z m -304.38059,-18.9267 c 0.56935,-1.0639 1.04397,-6.3514 1.05471,-11.75 0.0235,-11.8224 2.14466,-28.1769 4.9354,-38.0531 2.45437,-8.6858 2.45542,-8.7095 0.47364,-10.6913 -1.11725,-1.1172 -3.50168,-1.5686 -8.25,-1.5616 -11.33881,0.017 -20.35961,5.7193 -26.00954,16.4427 -2.33689,4.4354 -2.66,6.1997 -2.66422,14.5475 -0.004,8.4584 0.30433,10.1031 2.81452,15 3.17547,6.1948 7.72943,11.3665 12.18067,13.833 8.07181,4.4728 13.82172,5.3029 15.46482,2.2328 z m 303.57349,-0.084 c 5.2372,-2.5353 12.909,-10.0295 15.755,-15.3901 2.8019,-5.2778 3.0184,-17.673 0.4382,-25.0914 -4.314,-12.403 -15.9999,-21.5 -27.6189,-21.5 -3.1419,0 -6.2526,0.54 -6.9126,1.2 -1.7346,1.7346 -1.4801,5.6727 0.7936,12.2814 3.3825,9.8314 5.3056,22.4005 5.4084,35.3491 0.087,10.9864 0.3096,12.4853 2.0391,13.75 2.6452,1.9343 5.1739,1.7843 10.0972,-0.599 z"
             id="path5090" /><path
             style="baseline-shift:baseline;display:inline;overflow:visible;vector-effect:none;fill:#2d2219;enable-background:accumulate;stop-color:#000000;stop-opacity:1"
             d="m 1085.2148,3505.957 c -28.8771,-0.5298 -56.7727,7.6121 -81.7285,24.0606 -7.7277,5.0934 -14.11727,10.7011 -26.92185,23.6152 -10.00409,10.0898 -15.9673,15.6348 -20.47461,18.1035 -4.50731,2.4687 -7.49853,2.0159 -12.21093,0.047 -5.07946,-2.1223 -11.86856,-1.9316 -21.16211,0.4453 -20.47233,5.2359 -36.26563,19.9898 -42.67969,39.877 -4.90546,15.2097 -3.3594,33.6799 3.98633,47.5039 9.27386,17.4525 25.33659,27.5039 47.51172,29.7929 5.29679,0.5468 8.34606,1.2013 10.38476,2.7071 2.03871,1.5057 3.24301,3.9637 4.72461,8.416 2.56215,7.6992 8.31463,19.2136 13.58399,27.2148 5.81152,8.8246 20.72949,23.3225 30.69726,29.8653 5.45134,3.5782 8.53471,5.7933 10.09182,7.5273 1.5571,1.7341 1.6863,2.8677 1.3574,4.8945 -0.039,0.24 -0.4065,1.2172 -1.0254,2.4903 -0.6189,1.273 -1.48728,2.9173 -2.5371,4.8086 -2.09964,3.7826 -4.92647,8.5596 -7.9707,13.4043 -19.68503,31.3271 -27.07946,46.2387 -32.12305,64.8379 -0.54418,2.0067 -1.16489,3.985 -1.7207,5.541 -0.27791,0.778 -0.53888,1.4505 -0.76368,1.9629 -0.22479,0.5123 -0.44428,0.8872 -0.49414,0.9472 -0.0912,0.1099 -0.93689,0.6458 -2.03711,1.0684 -1.10021,0.4226 -2.49191,0.8347 -3.8789,1.123 -12.14204,2.5236 -21.09392,8.666 -25.91406,17.8711 -1.15555,2.2068 -1.86079,3.9156 -2.29493,6.3067 -0.43413,2.3911 -0.61041,5.4474 -0.77539,10.4726 -0.89378,27.2242 8.90101,50.9716 29.14649,70.6992 12.11119,11.8016 19.41209,15.4796 30.77734,15.4512 6.92559,-0.017 9.2834,-0.5268 15.58985,-3.3672 4.07528,-1.8354 6.64908,-2.6482 8.93358,-2.459 2.2846,0.1893 4.4373,1.3819 7.6953,3.8204 5.1467,3.8521 10.94,6.6817 16.6406,8.1191 v 0 l 0.076,0.021 h 0.047 c 9.7869,2.4164 20.3726,-1.1358 28.0118,-9.3516 2.4733,-2.66 5.8772,-6.2907 7.5566,-8.0605 l 2.8652,-3.0196 17.334,0.1582 c 10.1464,0.092 15.4652,0.2622 18.6289,1.3946 1.5819,0.5662 2.6392,1.3419 3.6172,2.5254 0.9781,1.1834 1.8613,2.7958 2.9649,4.955 2.1306,4.1689 3.7609,5.694 8.7871,8.211 5.3427,2.6754 7.2578,3.0583 15.291,3.0683 8.1447,0.01 9.926,-0.3663 15.7871,-3.2519 3.6233,-1.7838 8.3979,-4.8044 10.7734,-6.8379 1.11,-0.9502 2.3608,-1.8215 3.4551,-2.4434 1.0943,-0.6218 2.1091,-0.9609 2.3887,-0.9609 0.3302,0 1.4816,0.2982 2.7832,0.8223 1.3016,0.524 2.831,1.2541 4.2461,2.0527 7.5667,4.2704 14.5494,5.5853 21.8984,4.0859 14.7488,-3.009 30.2393,-15.5254 38.7188,-31.1679 4.3326,-7.9926 6.8859,-12.1568 10.416,-14.4571 3.53,-2.3002 8.2367,-2.8725 17.0508,-3.4472 22.6055,-1.4742 40.0802,-8.3962 54.1347,-21.4883 17.4453,-16.2505 26.7089,-37.9308 26.7442,-62.5508 0.024,-17.0397 -2.6831,-28.1049 -13.9141,-56.9121 -12.2587,-31.4427 -14.1965,-51.323 -6.7539,-67.0566 3.6553,-7.7274 11.2126,-15.4161 18.8457,-19.1739 6.1695,-3.0373 7.0709,-3.2055 16.3828,-3.1855 4.1627,0.01 6.8165,0.1087 8.8145,0.4199 1.9979,0.3112 3.3442,0.8197 5.0195,1.707 6.374,3.3759 9.7898,6.7133 12.5293,12.211 2.3527,4.7213 3.0484,8.5449 1.957,12.5097 -1.0914,3.9649 -4.0369,8.1385 -9.1601,13.3418 -3.6185,3.675 -5.9092,6.7165 -7.0645,9.8145 -1.1553,3.098 -1.1321,6.2188 -0.2207,9.8848 1.5374,6.1839 4.9443,10.8908 9.6641,13.705 4.7198,2.8142 10.7238,3.7297 17.414,2.4746 5.6278,-1.0558 11.6191,-5.7498 16.8165,-12.2792 5.1973,-6.5295 9.5828,-14.9247 11.8105,-23.5215 2.0704,-7.9966 2.0713,-22.8776 0,-30.8711 -6.0276,-23.2609 -25.171,-41.471 -49.9668,-47.5821 -9.6842,-2.3867 -26.6775,-2.1937 -36.8437,0.4063 -37.1646,9.5044 -60.8985,41.7062 -60.8985,82.541 0,18.8285 4.5173,36.5393 16.8731,66.3164 6.1777,14.8882 9.1269,26.1476 9.1269,34.5723 0,23.4211 -14.8871,40.5326 -39.3223,45.1328 -3.2475,0.6114 -5.6813,1.0587 -7.5175,1.1738 -1.8363,0.1151 -3.0254,-0.094 -3.9453,-0.707 -0.92,-0.6134 -1.6601,-1.7069 -2.4161,-3.5606 -0.7559,-1.8536 -1.5135,-4.4299 -2.5097,-7.8711 -1.5485,-5.3488 -3.5125,-9.3054 -6.3223,-12.2187 -2.8097,-2.9133 -6.4437,-4.7472 -11.1973,-5.9121 -6.0557,-1.484 -10.3441,-3.677 -13.6093,-7.2617 -3.2653,-3.5848 -5.5311,-8.6132 -7.377,-15.8301 -1.9751,-7.7221 -5.3752,-14.1659 -26.541,-50.418 -4.629,-7.9284 -8.6346,-15.0566 -11.4785,-20.3769 -1.422,-2.6602 -2.5528,-4.8698 -3.3242,-6.4942 -0.3858,-0.8122 -0.6812,-1.4789 -0.875,-1.9726 -0.1939,-0.4938 -0.2657,-0.8877 -0.2657,-0.8203 0,-0.6644 0.023,-1.073 0.209,-1.5098 0.1858,-0.4368 0.5693,-0.9601 1.4043,-1.7344 1.6701,-1.5486 5.0664,-4.0274 11.6778,-8.8027 19.2634,-13.9136 30.9145,-29.443 42.5117,-56.6192 1.2119,-2.8398 2.2698,-4.3698 4.7441,-5.58 2.4743,-1.2103 6.4524,-2.0409 13.291,-3.0996 21.7761,-3.3712 36.9097,-16.0678 44.6758,-37.4629 8.2369,-22.6925 3.4614,-44.6749 -13.6094,-62.7246 -14.7844,-15.6322 -34.5664,-21.5607 -54.5761,-16.3321 -4.7507,1.2414 -7.3131,1.643 -9.7246,0.5567 -2.4115,-1.0863 -4.88,-3.8237 -9.1036,-9.1172 -22.4173,-28.0963 -51.4915,-46.6901 -84.0859,-53.752 -9.7712,-2.117 -19.5052,-3.257 -29.1309,-3.4336 z m -0.023,1.2969 c 9.5394,0.1765 19.1879,1.3066 28.8789,3.4063 32.2894,6.9957 61.0957,25.4063 83.3457,53.2929 4.2385,5.3123 6.7473,8.2144 9.584,9.4922 2.8367,1.2778 5.7935,0.7684 10.5879,-0.4844 19.576,-5.1153 38.8022,0.6348 53.3027,15.9668 16.7937,17.7567 21.423,39.0984 13.3321,61.3887 -7.6387,21.044 -22.2689,33.313 -43.6504,36.6231 -6.8627,1.0624 -10.9163,1.8699 -13.666,3.2148 -2.7498,1.3449 -4.1089,3.2876 -5.3672,6.2363 -11.5443,27.0523 -22.9842,42.287 -42.0782,56.0782 -6.6125,4.7761 -9.9973,7.23 -11.8007,8.9023 -0.9017,0.8361 -1.4266,1.4953 -1.7168,2.1777 -0.2903,0.6824 -0.3106,1.3284 -0.3106,2.0196 0,0.4333 0.1412,0.7541 0.3535,1.2949 0.2124,0.5408 0.5187,1.2282 0.9121,2.0566 0.7869,1.6568 1.9238,3.8778 3.3516,6.5489 2.8556,5.3421 6.8665,12.4785 11.502,20.4179 21.1625,36.2465 24.4747,42.5421 26.4043,50.086 1.8731,7.3237 4.2051,12.5744 7.6757,16.3847 3.4707,3.8103 8.0547,6.1274 14.2618,7.6485 4.5976,1.1267 7.9585,2.8427 10.5703,5.5507 2.6117,2.7081 4.4954,6.4467 6.0097,11.6778 0.9967,3.4428 1.7549,6.0406 2.5547,8.0019 0.7998,1.9613 1.6577,3.3231 2.8985,4.1504 1.2407,0.8273 2.7745,1.0455 4.746,0.9219 1.9716,-0.1236 4.4282,-0.5816 7.6778,-1.1934 24.9208,-4.6916 40.3808,-22.4341 40.3808,-46.4101 0,-8.7262 -3.0163,-20.1057 -9.2265,-35.0723 -12.3289,-29.7123 -16.7735,-47.1953 -16.7735,-65.8164 0,-40.3325 23.3103,-71.9182 59.9219,-81.2812 9.8381,-2.5161 26.8908,-2.7008 36.209,-0.4043 24.3644,6.0047 43.1203,23.8731 49.0215,46.6464 1.9701,7.6031 1.9694,22.6121 0,30.2188 -2.1752,8.3941 -6.4878,16.6542 -11.5684,23.0371 -5.0806,6.3829 -10.946,10.8566 -16.041,11.8125 -6.4399,1.2081 -12.0976,0.3171 -16.5078,-2.3125 -4.4103,-2.6296 -7.6017,-7.0049 -9.0684,-12.9043 -0.8719,-3.5073 -0.8795,-6.2853 0.1758,-9.1152 1.0553,-2.8299 3.2149,-5.7434 6.7735,-9.3574 5.1913,-5.2726 8.3009,-9.5948 9.4882,-13.9083 1.1874,-4.3134 0.3871,-8.5512 -2.0468,-13.4355 -2.8409,-5.7011 -6.5624,-9.3252 -13.084,-12.7793 -1.7525,-0.9282 -3.3019,-1.5123 -5.4297,-1.8437 -2.1278,-0.3315 -4.8282,-0.4265 -9.0098,-0.4356 -9.3331,-0.02 -10.7564,0.2658 -16.9609,3.3203 -7.9545,3.916 -15.6402,11.735 -19.4473,19.7832 -7.661,16.1952 -5.5925,36.5115 6.7168,68.084 11.216,28.7686 13.8522,39.5389 13.8281,56.4414 -0.035,24.2956 -9.1402,45.5853 -26.332,61.5996 -13.8292,12.8823 -30.946,19.6828 -53.332,21.1426 -8.8379,0.5763 -13.792,1.1222 -17.6778,3.6543 -3.8857,2.5321 -6.5042,6.9134 -10.8476,14.9258 -8.3006,15.3125 -23.6105,27.6129 -37.8379,30.5156 -7.0486,1.4381 -13.6274,0.2145 -20.998,-3.9453 -1.4682,-0.8286 -3.0363,-1.5785 -4.3985,-2.127 -1.3622,-0.5484 -2.4413,-0.916 -3.2695,-0.916 -0.8789,0 -1.8544,0.4621 -3.0313,1.1309 -1.1768,0.6687 -2.4788,1.578 -3.6562,2.5859 -2.1995,1.8827 -7.0002,4.9352 -10.5039,6.6602 -5.8139,2.8624 -7.0999,3.1222 -15.211,3.1172 -7.9978,-0.01 -9.4274,-0.284 -14.7109,-2.9297 -4.9506,-2.4792 -6.1383,-3.5815 -8.2129,-7.6406 -1.1113,-2.1744 -2.0195,-3.8608 -3.1191,-5.1915 -1.0997,-1.3306 -2.407,-2.2854 -4.1797,-2.9199 -3.5455,-1.269 -8.9025,-1.3803 -19.0567,-1.4726 l -17.9003,-0.1621 -3.254,3.4296 c -1.6867,1.7776 -5.0878,5.4068 -7.5644,8.0704 -7.3901,7.948 -17.5464,11.3048 -26.8652,8.955 v 0 c 0,-3e-4 0,0 0,0 -5.5089,-1.3897 -11.1607,-4.1449 -16.1758,-7.8985 -3.3145,-2.4806 -5.7034,-3.8535 -8.3672,-4.0742 -2.6637,-0.2206 -5.44532,0.7108 -9.57419,2.5703 -6.25377,2.8167 -8.19257,3.2347 -15.06054,3.252 -11.09087,0.028 -17.84135,-3.3675 -29.86524,-15.084 -20.02283,-19.5107 -29.63668,-42.8355 -28.75391,-69.7246 0.16454,-5.0118 0.34384,-8.0246 0.75391,-10.2832 0.41008,-2.2586 1.03838,-3.7803 2.16797,-5.9375 4.62441,-8.8313 13.16835,-14.7349 25.02539,-17.1992 1.45824,-0.3031 2.90225,-0.7292 4.08008,-1.1817 1.17783,-0.4524 2.05235,-0.8266 2.57226,-1.4531 0.25571,-0.3081 0.44016,-0.6991 0.6836,-1.2539 0.24343,-0.5548 0.51378,-1.2508 0.79883,-2.0488 0.57008,-1.596 1.19703,-3.5976 1.75,-5.6367 5.00565,-18.4593 12.30451,-33.1943 31.96875,-64.4883 3.05599,-4.8634 5.8931,-9.6551 8.00781,-13.4649 1.05738,-1.9049 1.93498,-3.5641 2.57028,-4.8711 0.6354,-1.3069 1.0307,-2.1857 1.1387,-2.8515 0.3573,-2.2016 0.078,-4.0176 -1.6738,-5.9688 -1.7521,-1.9512 -4.87846,-4.1574 -10.34573,-7.7461 -9.72442,-6.383 -24.71886,-20.9826 -30.32422,-29.4941 -5.19256,-7.8846 -10.93545,-19.3974 -13.43554,-26.9102 -1.50264,-4.5154 -2.80386,-7.2902 -5.1875,-9.0507 -2.38365,-1.7606 -5.67302,-2.4031 -11.02149,-2.9551 -21.85449,-2.256 -37.41788,-12.0214 -46.49805,-29.1094 -7.15505,-13.4652 -8.68441,-31.6568 -3.89843,-46.4961 6.28053,-19.4732 21.70513,-33.8851 41.76562,-39.0156 9.16136,-2.3431 15.66759,-2.4572 20.33789,-0.5059 4.84379,2.0239 8.54066,2.522 13.33789,-0.1054 4.79723,-2.6275 10.75605,-8.225 20.77344,-18.3282 12.78492,-12.8943 19.07606,-18.4137 26.71292,-23.4472 24.7489,-16.3122 52.3722,-24.3772 80.9902,-23.8477 z m -4.4101,6.5371 c -20.2625,0.057 -21.5743,0.1895 -32.9532,3.2129 -21.7353,5.7751 -42.6501,17.517 -59.11716,33.1875 -21.06369,20.0448 -36.1009,46.675 -42.71289,75.6309 -2.46433,10.7919 -2.43531,35.5825 0.0391,47.1953 5.54315,26.0151 16.86869,49.4078 30.69726,63.2363 2.08205,2.082 5.63417,4.9105 8.7793,7.166 1.57257,1.1278 3.03721,2.1075 4.17383,2.7754 0.56831,0.334 1.05085,0.5914 1.45312,0.7559 0.20114,0.082 0.37808,0.1428 0.57618,0.1738 0.1981,0.031 0.50183,0.074 0.79297,-0.2168 0.23504,-0.235 0.2033,-0.3773 0.21289,-0.4785 0.01,-0.1012 0.007,-0.1831 0,-0.2715 -0.0131,-0.1767 -0.0447,-0.3766 -0.0899,-0.6191 -0.0903,-0.4851 -0.24035,-1.1314 -0.4414,-1.9121 -0.40211,-1.5616 -1.00624,-3.6491 -1.7168,-5.8985 -3.0897,-9.7806 -3.15343,-11.6495 -0.57813,-19.1347 2.3787,-6.9139 2.68572,-15.3495 0.59571,-20.3516 -0.43823,-1.0488 -1.46212,-2.6023 -2.80469,-4.4121 -1.34257,-1.8098 -2.99445,-3.8355 -4.64453,-5.6563 -11.27752,-12.4442 -17.00045,-26.9733 -17.83985,-45.3457 -0.5936,-12.9924 1.35674,-23.1746 6.5293,-34.1328 8.0405,-17.034 27.21535,-33.765 45.24609,-39.4746 10.7035,-3.3893 24.8949,-3.0045 36.4082,1.0098 4.7696,1.6629 12.9109,5.5684 17.9434,8.6133 2.557,1.547 5.0905,2.9523 7.125,3.9765 1.0172,0.5121 1.9095,0.9284 2.6269,1.2227 0.7175,0.2942 1.1788,0.4902 1.7012,0.4902 0.5155,0 0.9752,-0.1916 1.6836,-0.4785 0.7084,-0.2869 1.587,-0.6924 2.5879,-1.1914 2.0017,-0.998 4.4889,-2.3677 6.9961,-3.875 12.8739,-7.7403 22.1738,-10.6553 35.7773,-11.2266 13.1274,-0.5513 19.9184,0.873 31.668,6.6446 28.9317,14.2115 45.2232,47.8646 38.625,79.8085 -3.0536,14.7836 -12.7497,32.344 -21.8926,39.836 -1.2039,0.9865 -2.3607,2.0953 -3.2715,3.1055 -0.9107,1.0101 -1.5746,1.8389 -1.8222,2.6191 -0.1445,0.4552 -0.1231,0.9361 -0.055,1.543 0.068,0.6068 0.2071,1.3222 0.4043,2.1191 0.3944,1.5937 1.0237,3.5113 1.8105,5.4414 4.1652,10.2171 3.7013,24.35 -1.3164,37.4258 -0.086,0.2254 -0.1515,0.4322 -0.1308,0.6992 0.021,0.267 0.2434,0.6333 0.5312,0.752 0.2878,0.1186 0.5173,0.079 0.7285,0.029 0.2112,-0.05 0.419,-0.1331 0.6465,-0.2403 0.9101,-0.4286 2.1655,-1.2936 3.7109,-2.4961 3.091,-2.4049 7.2495,-6.1379 11.0918,-10.123 15.2606,-15.8274 26.2699,-38.2151 30.4786,-61.9297 2.0965,-11.8142 1.6448,-35.5975 -0.8985,-47.252 -12.3736,-56.7022 -53.2669,-97.7535 -109.7148,-110.1328 -6.9119,-1.5158 -12.686,-1.8677 -29.6406,-1.8203 z m 0,1.3008 c 16.9359,-0.047 22.5516,0.2965 29.3574,1.7891 55.9894,12.2787 96.4502,52.893 108.7246,109.1406 2.4703,11.3199 2.9261,35.2668 0.8887,46.748 -4.165,23.4688 -15.0829,45.6429 -30.1348,61.2539 -3.7984,3.9395 -7.9331,7.6488 -10.9551,10 -1.4515,1.1294 -2.6147,1.8982 -3.3301,2.2539 4.9472,-13.2045 5.4465,-27.3841 1.1641,-37.8886 -0.7645,-1.8754 -1.3787,-3.7477 -1.7539,-5.2637 -0.1876,-0.758 -0.314,-1.4274 -0.3731,-1.9512 -0.059,-0.5238 -0.027,-0.9196 0,-1.0039 0.086,-0.2722 0.6882,-1.1879 1.5489,-2.1426 0.8606,-0.9546 1.9812,-2.0306 3.1308,-2.9726 9.5575,-7.8317 19.2202,-25.4653 22.3418,-40.5781 6.7204,-32.5357 -9.8395,-66.7522 -39.3261,-81.2364 -11.8541,-5.8228 -19.0521,-7.3334 -32.295,-6.7773 -13.766,0.5781 -23.4037,3.6028 -36.3925,11.4121 -2.4796,1.4907 -4.9447,2.8462 -6.9063,3.8242 -0.9808,0.489 -1.8374,0.8836 -2.4961,1.1504 -0.6587,0.2668 -1.1975,0.3828 -1.1953,0.3828 0.01,0 -0.5409,-0.1185 -1.209,-0.3926 -0.6681,-0.274 -1.5377,-0.6795 -2.5351,-1.1816 -1.9949,-1.0043 -4.5053,-2.3971 -7.0352,-3.9277 -5.1411,-3.1106 -13.2594,-7.0077 -18.1894,-8.7266 -11.8005,-4.1144 -26.1854,-4.5184 -37.2286,-1.0215 -18.47086,5.849 -37.79013,22.7034 -46.02926,40.1582 -5.25194,11.1264 -7.25334,21.592 -6.65234,34.7461 0.85032,18.6115 6.70626,33.504 18.17578,46.1602 1.61769,1.7851 3.24943,3.784 4.56445,5.5566 1.31502,1.7726 2.32224,3.358 2.64844,4.1387 1.86385,4.4608 1.65584,12.8003 -0.625,19.4297 -2.60297,7.5657 -2.53668,10.12 0.56836,19.9492 0.70463,2.2306 1.30179,4.3019 1.69531,5.8301 0.17528,0.6807 0.29267,1.2037 0.37695,1.6269 -0.27655,-0.1316 -0.55773,-0.265 -0.96093,-0.5019 -1.07801,-0.6335 -2.52496,-1.6005 -4.07618,-2.7129 -3.10243,-2.2249 -6.64537,-5.0556 -8.61914,-7.0293 -13.56014,-13.5601 -24.84286,-36.7691 -30.34375,-62.586 -2.39443,-11.2376 -2.40826,-36.2765 -0.043,-46.6347 6.55525,-28.7074 21.47087,-55.1191 42.3418,-74.9805 16.30371,-15.515 37.04221,-27.1571 58.55471,-32.873 11.3655,-3.0199 12.3653,-3.111 32.6231,-3.168 z m -48.1504,57.4941 c -19.4276,0.4689 -38.52164,10.079 -50.39652,27.9414 -12.64187,19.0161 -15.21126,43.3101 -6.83203,64.5938 3.71005,9.4237 10.51397,19.503 18.52344,27.4648 1.88559,1.8745 3.60136,3.7058 4.83593,5.1348 0.61729,0.7145 1.11553,1.3317 1.44728,1.7891 0.1659,0.2287 0.2894,0.4184 0.3613,0.5468 0.072,0.1285 0.059,0.2426 0.059,0.049 0,-0.059 -0.059,0.3625 -0.1933,0.8672 -0.1345,0.5046 -0.3312,1.1761 -0.57622,1.9589 -0.49014,1.5657 -1.16971,3.581 -1.91601,5.6563 -2.31372,6.4338 -2.76721,9.4025 -2.78907,18.3086 -0.0243,9.8963 0.22994,11.1861 3.32227,17.4726 4.90813,9.9779 14.66953,17.8407 28.58403,23.3926 13.9144,5.5519 32.0028,8.8127 53.6953,9.5781 2.8395,0.1002 10.1944,-0.2751 16.5234,-0.8222 0.021,0 0.034,-2e-4 0.055,0 7e-4,0 0,1e-4 0,0 21.5822,-1.8723 39.1179,-6.7401 51.9454,-14.2617 12.8278,-7.5218 20.9502,-17.7363 23.5566,-30.1855 1.4065,-6.7179 0.6166,-12.9545 -2.582,-20.6543 -1.2698,-3.0568 -2.3282,-7.6415 -2.3282,-9.8672 0,-2.4141 0.1735,-3.7659 1.5528,-5.9668 1.3793,-2.201 4.0195,-5.2067 8.8886,-10.5254 7.1835,-7.8467 13.6445,-19.9688 15.9942,-30.0234 2.0048,-8.5789 2.0325,-24.9621 0.035,-32.8477 -6.1477,-24.2663 -25.9534,-43.5101 -49.9863,-48.5469 -17.422,-3.6513 -37.2622,1.9442 -54.6328,15.3106 -1.5552,1.1967 -3.2048,2.2895 -4.5879,3.0722 -0.6915,0.3914 -1.3172,0.7044 -1.8203,0.9141 -0.5031,0.2097 -0.9115,0.2988 -1.0059,0.2988 -0.074,0 -0.4668,-0.092 -0.9492,-0.3222 -0.4824,-0.2301 -1.0823,-0.5773 -1.7422,-1.0098 -1.3198,-0.865 -2.8832,-2.0741 -4.3457,-3.3984 -12.2749,-11.1163 -27.5869,-16.2808 -42.6972,-15.9161 z m 0.023,1.2832 c 14.7885,-0.3555 29.7758,4.7078 41.8008,15.5977 1.5124,1.3696 3.1163,2.6109 4.5058,3.5215 0.6948,0.4553 1.3359,0.8283 1.8965,1.0957 0.5607,0.2674 1.0137,0.4492 1.5078,0.4492 0.4737,0 0.9319,-0.1592 1.5059,-0.3984 0.574,-0.2393 1.237,-0.5747 1.9609,-0.9844 1.448,-0.8195 3.1362,-1.9375 4.7403,-3.1719 17.1303,-13.1814 36.6077,-18.6242 53.5742,-15.0683 23.5219,4.9296 42.9677,23.8117 48.9922,47.5918 1.888,7.454 1.8785,24.0186 -0.041,32.2324 -2.2815,9.7629 -8.6942,21.8044 -15.6875,29.4433 -4.8751,5.3253 -7.5411,8.3331 -9.0313,10.711 -1.4902,2.3779 -1.75,4.1675 -1.75,6.6582 0,2.6091 1.082,7.1302 2.4258,10.3652 3.1333,7.5426 3.8658,13.4229 2.5117,19.8906 -2.5249,12.0601 -10.3488,21.9462 -22.9414,29.3301 -12.5926,7.3839 -29.9523,12.2273 -51.4023,14.0879 -6.3064,0.547 -13.7693,0.9119 -16.42,0.8184 -21.5877,-0.7618 -39.5431,-4.0114 -53.2597,-9.4844 -13.7167,-5.473 -23.1744,-13.1501 -27.90042,-22.7578 -3.07708,-6.2555 -3.21177,-7.0174 -3.1875,-16.8965 0.0218,-8.8652 0.42084,-11.5049 2.71094,-17.8731 0.75199,-2.091 1.43618,-4.1182 1.93358,-5.707 0.2487,-0.7944 0.4496,-1.4776 0.5918,-2.0117 0.1423,-0.5341 0.2383,-0.8339 0.2383,-1.2031 0,-0.3487 -0.112,-0.4824 -0.2246,-0.6836 -0.1126,-0.2013 -0.2591,-0.4218 -0.4434,-0.6758 -0.3684,-0.508 -0.8833,-1.1431 -1.5156,-1.875 -1.2646,-1.4638 -2.99608,-3.3121 -4.90234,-5.207 -7.88095,-7.8342 -14.60545,-17.8069 -18.23243,-27.0196 -8.22248,-20.8855 -5.69907,-44.7379 6.70508,-63.3965 11.63846,-17.5067 30.32409,-26.9217 49.33789,-27.3789 z m 197.4785,3.1289 c -7.7823,0.01 -12.666,0.5182 -15.4902,2.1719 -1.4121,0.8269 -2.2929,2.0138 -2.5742,3.4629 -0.2814,1.4492 -0.014,3.1127 0.6308,5.0664 1.5507,4.6987 6.9003,7.3832 12.3574,6.3594 1.9898,-0.3733 5.6505,-0.1269 9.3536,0.5547 3.703,0.6815 7.4963,1.7905 9.8672,3 20.5852,10.5018 26.7223,41.8647 11.5761,59.1152 -3.5789,4.0762 -11.8227,9.2577 -20.0976,12.5254 -3.5148,1.388 -5.8486,2.685 -7.1856,4.25 -1.337,1.565 -1.5281,3.4553 -0.7656,5.4609 0.4539,1.1938 0.842,2.1359 1.4082,2.8731 0.5662,0.7372 1.3567,1.23 2.3594,1.3926 2.0054,0.325 4.8512,-0.3741 10.2109,-1.7246 25.224,-6.3559 40.0796,-25.4833 40.1309,-51.6621 0.027,-14.1664 -4.6353,-26.4825 -13.7832,-36.3633 -10.8344,-11.7025 -21.9004,-16.5017 -37.9981,-16.4825 z m -283.71678,0.4024 c -2.64914,-0.1678 -5.95292,-0.1464 -9.41797,0.035 -6.93009,0.3631 -14.45877,1.3437 -18.6582,2.8165 -13.91764,4.8808 -24.79822,15.1126 -29.56445,27.8515 -12.52748,33.4826 5.6873,69.7977 37.41211,74.2617 4.66311,0.6562 6.93939,0.9985 8.45117,0.9317 0.75589,-0.033 1.34952,-0.1909 1.85351,-0.4766 0.42778,-0.2424 0.7838,-0.5808 1.1836,-0.9433 h 0.0254 l 0.18554,-0.168 c 2.64362,-2.3924 2.59029,-6.5465 -0.0469,-9.1836 -0.68572,-0.6858 -1.97261,-1.3732 -3.6582,-2.1445 -1.6856,-0.7714 -3.73103,-1.5634 -5.75196,-2.2012 -26.21906,-8.2748 -35.7763,-38.2163 -19.31445,-60.541 7.72173,-10.4717 15.269,-14.1055 29.33398,-14.1055 4.041,0 6.34401,-0.048 8.00391,-0.3984 1.6599,-0.3506 2.6532,-1.0692 3.76367,-2.1797 1.8046,-1.8046 2.95008,-4.2774 3.33985,-6.5938 0.38977,-2.3163 0.0552,-4.5752 -1.49414,-5.748 -0.53719,-0.4067 -1.26745,-0.6227 -2.21485,-0.8106 -0.9474,-0.1879 -2.10706,-0.3184 -3.43164,-0.4023 z m 283.71678,0.8965 c 15.8427,-0.019 26.3871,4.5547 37.0449,16.0664 8.9325,9.6481 13.4623,21.5976 13.4356,35.4785 -0.05,25.6921 -14.4027,44.167 -39.1484,50.4023 -5.349,1.3478 -8.2113,1.9421 -9.6856,1.7032 -0.7371,-0.1195 -1.1289,-0.3734 -1.5352,-0.9024 -0.4062,-0.5289 -0.7801,-1.3741 -1.2246,-2.5429 -0.6556,-1.7246 -0.5321,-2.8985 0.5391,-4.1524 1.0712,-1.2538 3.2389,-2.5303 6.6738,-3.8867 8.4333,-3.3303 16.734,-8.4744 20.5977,-12.875 15.7724,-17.9637 9.4592,-50.205 -11.961,-61.1328 -2.5794,-1.316 -6.4327,-2.4232 -10.2246,-3.1211 -3.7918,-0.6979 -7.4742,-0.9963 -9.8281,-0.5547 -4.9023,0.9198 -9.5671,-1.5015 -10.8828,-5.4883 -0.608,-1.8423 -0.8046,-3.304 -0.5898,-4.4101 0.2147,-1.1062 0.7894,-1.9042 1.957,-2.5879 2.335,-1.3674 7.1135,-1.9865 14.832,-1.9961 z m -283.79881,0.4004 c 1.28677,0.082 2.40139,0.2102 3.26172,0.3808 0.86033,0.1707 1.47219,0.4118 1.68164,0.5703 0.94376,0.7145 1.3428,2.4473 0.99805,4.4961 -0.34475,2.0488 -1.40189,4.316 -2.97657,5.8907 -1.05021,1.0502 -1.67679,1.5247 -3.11328,1.8281 -1.43649,0.3034 -3.70755,0.3691 -7.73633,0.3691 -14.29663,0 -22.49914,3.9461 -30.38085,14.6348 -16.93601,22.9677 -7.02326,54.0333 19.9707,62.5527 1.96584,0.6205 3.97159,1.3987 5.60156,2.1446 1.62997,0.7458 2.92323,1.5228 3.28125,1.8808 2.1695,2.1695 2.17876,5.4122 0.0918,7.3008 -0.50388,0.456 -0.84306,0.7614 -1.16406,0.9434 -0.32101,0.1819 -0.64703,0.2811 -1.26758,0.3085 -1.24111,0.055 -3.54845,-0.2635 -8.21289,-0.9199 -30.82861,-4.3379 -48.6518,-39.7102 -36.37696,-72.5176 4.61861,-12.3443 15.19744,-22.3189 28.7793,-27.082 3.90421,-1.3692 11.44051,-2.385 18.29492,-2.7441 3.42721,-0.1796 6.69404,-0.2001 9.26758,-0.037 z m 283.05661,20.5351 c -1.6082,0 -3.2,0.138 -4.498,0.3633 -0.649,0.1127 -1.223,0.2461 -1.7012,0.4043 -0.4782,0.1582 -0.8577,0.3089 -1.1719,0.623 -1.0524,1.0525 -1.4322,2.689 -1.2949,4.8145 0.1374,2.1255 0.7863,4.8038 1.9336,8.1387 3.3517,9.7419 5.2707,22.255 5.3731,35.1426 0.043,5.4973 0.1148,8.6203 0.4101,10.6113 0.2953,1.9909 0.9418,2.9615 1.8945,3.6582 1.4088,1.0301 2.8962,1.5454 4.6172,1.4433 1.7211,-0.1021 3.6504,-0.774 6.1465,-1.9824 5.4653,-2.6457 13.0917,-10.1036 16.0469,-15.6699 1.4965,-2.8189 2.2296,-7.2887 2.3125,-12.0371 0.083,-4.7485 -0.5051,-9.7517 -1.834,-13.5723 -4.4012,-12.6538 -16.2761,-21.9375 -28.2344,-21.9375 z m -293.93356,0.01 c -11.55622,0.017 -20.84535,5.8992 -26.58399,16.791 -2.3585,4.4764 -2.736,6.4851 -2.74023,14.8496 -0.004,8.4742 0.35943,10.3666 2.88672,15.2969 3.22355,6.2886 7.81958,11.5434 12.44336,14.1055 4.07822,2.2598 7.58239,3.6177 10.36523,4.0195 1.39142,0.2009 2.6097,0.1633 3.63672,-0.1621 1.02702,-0.3255 1.86062,-0.9694 2.35156,-1.8867 0.2303,-0.4304 0.34152,-0.967 0.47071,-1.7227 0.12918,-0.7557 0.24319,-1.6986 0.33984,-2.7754 0.1933,-2.1535 0.3149,-4.8407 0.32031,-7.5586 0.0233,-11.7458 2.149,-28.0985 4.91211,-37.8769 1.22722,-4.3431 1.8571,-6.5016 1.92383,-8.0078 0.0334,-0.7532 -0.10503,-1.3781 -0.40625,-1.9004 -0.30122,-0.5224 -0.71501,-0.924 -1.21094,-1.42 -1.38232,-1.3822 -3.91915,-1.759 -8.70898,-1.7519 z m 293.93356,1.291 c 11.2798,0 22.7791,8.9104 27.0059,21.0625 1.2513,3.5978 1.8444,8.5018 1.7637,13.125 -0.081,4.6232 -0.8568,8.9903 -2.1621,11.4492 -2.7368,5.1549 -10.4558,12.6845 -15.4649,15.1094 -2.4272,1.175 -4.2227,1.7703 -5.6582,1.8555 -1.4354,0.085 -2.535,-0.2912 -3.7715,-1.1953 -0.7767,-0.568 -1.1068,-0.9796 -1.3769,-2.8008 -0.2702,-1.8213 -0.353,-4.9407 -0.3965,-10.4297 -0.1033,-13.0096 -2.0301,-25.6358 -5.4434,-35.5567 -1.1263,-3.2738 -1.7405,-5.8694 -1.8652,-7.7988 -0.1247,-1.9294 0.2339,-3.1284 0.916,-3.8105 0.016,-0.016 0.2733,-0.18 0.6621,-0.3086 0.3889,-0.1287 0.9117,-0.2526 1.5156,-0.3574 1.2078,-0.2097 2.7417,-0.3438 4.2754,-0.3438 z m -293.93161,0.01 c 4.70681,-0.01 6.93689,0.5189 7.78906,1.3711 0.49497,0.4949 0.82465,0.8395 1.00391,1.1504 0.17926,0.3108 0.25839,0.6071 0.23242,1.1933 -0.0519,1.1725 -0.6498,3.3682 -1.87695,7.711 -2.81837,9.9739 -4.93533,26.3295 -4.95899,38.2285 -0.005,2.6806 -0.12737,5.3375 -0.3164,7.4433 -0.0945,1.053 -0.2059,1.9703 -0.32617,2.6739 -0.12028,0.7036 -0.28156,1.2265 -0.33594,1.3281 -0.3306,0.6177 -0.8322,1.0191 -1.59766,1.2617 -0.76545,0.2426 -1.79622,0.2953 -3.05664,0.1133 -2.52084,-0.364 -5.92829,-1.6582 -9.92187,-3.8711 -4.27871,-2.3709 -8.79059,-7.4596 -11.91797,-13.5606 -2.4931,-4.8635 -2.74618,-6.2605 -2.74219,-14.7031 0.004,-8.3311 0.27457,-9.8498 2.58984,-14.2441 5.56123,-10.5551 14.31415,-16.0791 25.43555,-16.0957 z m 202.96091,43.6894 c -3.7587,0 -6.6843,1.487 -8.4648,4.3262 -1.7805,2.8392 -2.4574,6.9332 -2.1211,12.2148 0.1759,2.7633 0.3696,4.5 0.8633,5.8731 0.4936,1.3731 1.3073,2.3207 2.5195,3.3633 3.39,2.9159 8.633,3.3561 12.0859,0.9375 1.6555,-1.1596 2.779,-3.6526 3.4981,-6.6035 0.7191,-2.951 0.9711,-6.3741 0.5176,-9.3985 -0.4046,-2.6981 -1.6644,-5.3245 -3.2813,-7.3144 -1.6168,-1.99 -3.5985,-3.3985 -5.6172,-3.3985 z m -110.5293,0.9453 c -2.4213,0.1067 -4.9095,0.9916 -6.6172,2.6993 -1.3236,1.3226 -2.1669,2.8537 -2.5605,5.0761 -0.3936,2.2224 -0.3822,5.1434 -0.1172,9.4688 0.1546,2.5233 0.5373,4.4439 1.2969,5.9336 0.7596,1.4897 1.9223,2.5165 3.4492,3.1582 3.5874,1.5075 8.4373,0.354 11.0469,-2.6074 2.1693,-2.4618 3.1102,-6.627 3.0722,-10.7793 -0.038,-4.1524 -1.0546,-8.3108 -3.2656,-10.754 -1.4798,-1.6352 -3.8833,-2.3019 -6.3047,-2.1953 z m 110.5293,0.3555 c 1.3758,0 3.1396,1.1091 4.6094,2.918 1.4698,1.8089 2.6403,4.2624 3.0039,6.6875 0.4213,2.8095 0.1843,6.1044 -0.4961,8.8965 -0.6803,2.792 -1.8669,5.0677 -2.9805,5.8476 -2.869,2.0096 -7.5661,1.6594 -10.4921,-0.8574 -1.1422,-0.9824 -1.733,-1.679 -2.1426,-2.8184 -0.4096,-1.1393 -0.617,-2.7836 -0.791,-5.5175 -0.3264,-5.1261 0.3685,-8.9562 1.9257,-11.4395 1.5573,-2.4833 3.9326,-3.7168 7.3633,-3.7168 z m -110.4726,0.9434 c 2.1386,-0.094 4.166,0.535 5.2832,1.7695 1.8366,2.0294 2.8956,5.9548 2.9316,9.8926 0.036,3.9377 -0.9518,7.8698 -2.748,9.9082 -2.1725,2.4653 -6.6144,3.5089 -9.5684,2.2676 -1.3015,-0.547 -2.1625,-1.3086 -2.7949,-2.5489 -0.6324,-1.2402 -1.0094,-2.9918 -1.1582,-5.4218 -0.2628,-4.2905 -0.2566,-7.142 0.1015,-9.1641 0.3582,-2.0221 1.0239,-3.2083 2.1993,-4.3828 1.4139,-1.414 3.6152,-2.2261 5.7539,-2.3203 z m 330.2148,27.332 c -6.6982,0 -13.5704,0.7671 -19.3515,2.3086 -25.4879,6.7969 -45.2673,27.8695 -52.2872,55.6289 -1.8514,7.3217 -2.0838,10.4798 -1.623,22.1504 0.6713,16.9993 3.6202,28.8083 14.2266,57.0332 4.9143,13.0776 7.6413,20.6803 9.1406,26.5 1.4992,5.8197 1.7832,9.8606 1.8125,15.9551 0.06,12.3532 -2.3129,19.933 -9.3965,30.0195 -8.3975,11.9576 -19.1878,18.5072 -36.3105,21.9883 -5.7635,1.1716 -9.286,2.0858 -11.5586,3.3437 -2.2727,1.258 -3.2301,2.9858 -3.5801,5.291 -0.512,3.3714 -0.8619,7.0027 -1.0059,9.9297 -0.072,1.4636 -0.094,2.7481 -0.055,3.75 0.02,0.501 0.055,0.9297 0.1094,1.2871 0.054,0.3575 0.094,0.6284 0.2891,0.9278 0.4881,0.7496 1.2335,1.3269 2.2422,1.6601 1.0086,0.3333 2.2776,0.4559 3.955,0.4043 3.221,-0.099 8.1107,-0.8885 15.3594,-2.3066 v 0.014 l 0.7754,-0.1543 c 43.9456,-8.6839 70.0686,-42.9448 65.0078,-85.3301 -1.603,-13.4257 -3.9318,-21.6591 -13.0058,-45.9824 -5.2368,-14.0374 -8.0727,-21.9346 -9.6016,-28.0196 -1.5289,-6.0849 -1.7674,-10.3708 -1.8086,-17.3281 -0.06,-10.048 0.2642,-12.4063 2.7598,-20.0195 7.1752,-21.8895 21.745,-32.8365 43.5195,-32.7344 11.4235,0.054 17.9806,2.4798 25.6191,9.4609 6.9394,6.3423 9.2412,10.7525 9.211,17.5039 -0.03,6.6539 -2.9709,13.76 -10.1602,24.2344 -3.1762,4.6276 -4.9805,7.8042 -5.5703,10.6231 -0.5898,2.8188 0.1306,5.2226 1.8086,7.9746 3.7773,6.1949 10.4869,7.7512 17.1758,5.4844 6.6888,-2.2669 13.4597,-8.2383 17.8984,-17.0313 11.323,-22.4307 7.1551,-48.7773 -10.5176,-66.457 -7.8353,-7.8384 -15.3899,-12.2867 -26.7714,-15.7715 -5.0843,-1.5567 -11.6085,-2.3346 -18.3067,-2.3379 z m 0.01,1.3203 c 6.6018,0 13.02,0.7615 17.9199,2.2617 11.2411,3.4418 18.5192,7.7291 26.2344,15.4473 17.2889,17.2958 21.3564,42.9999 10.2754,64.9512 -4.3051,8.5283 -10.8749,14.2579 -17.1563,16.3867 -6.2813,2.1288 -12.1703,0.7746 -15.6484,-4.9297 -1.5949,-2.6157 -2.1639,-4.5513 -1.6446,-7.0332 0.5194,-2.4819 2.2215,-5.5664 5.3692,-10.1524 7.2509,-10.5642 10.3548,-17.9324 10.3867,-24.9648 0.032,-7.0618 -2.5719,-12.0154 -9.6328,-18.4687 -7.806,-7.1343 -14.8796,-9.7464 -26.4902,-9.8008 -22.2188,-0.1042 -37.4606,11.3592 -44.7598,33.6269 -2.5109,7.6598 -2.8843,10.3542 -2.8242,20.4336 0.041,6.9843 0.2911,11.4437 1.8476,17.6387 1.5566,6.195 4.4038,14.1133 9.6426,28.1562 9.066,24.3019 11.3406,32.3404 12.9336,45.6817 4.9888,41.7828 -20.5627,75.3231 -63.9687,83.9004 -7.7481,1.531 -12.7385,2.3259 -15.9219,2.4238 -1.5918,0.049 -2.7245,-0.081 -3.5078,-0.3398 -0.7834,-0.2589 -1.2223,-0.6154 -1.5606,-1.1348 0.035,0.054 -0.051,-0.1327 -0.094,-0.4141 -0.043,-0.2813 -0.077,-0.6726 -0.096,-1.1425 -0.037,-0.9399 -0.018,-2.1988 0.053,-3.6368 0.1415,-2.8759 0.4897,-6.4753 0.9941,-9.7968 0.3175,-2.0904 0.9247,-3.2431 2.9239,-4.3497 1.9991,-1.1065 5.4566,-2.0415 11.1894,-3.207 17.3325,-3.5237 28.5433,-10.3077 37.1153,-22.5137 7.1832,-10.2284 9.6932,-18.2474 9.6328,-30.7734 -0.03,-6.1329 -0.3276,-10.3501 -1.8535,-16.2734 -1.526,-5.9233 -4.2667,-13.5483 -9.1836,-26.6328 -10.5925,-28.1878 -13.4783,-39.755 -14.1446,-56.6289 -0.4598,-11.6455 -0.2526,-14.5163 1.584,-21.7793 6.916,-27.3487 26.3599,-48.0218 51.3633,-54.6895 5.6357,-1.5027 12.4197,-2.2506 19.0215,-2.2461 z m -291.3281,7.6016 -3.1211,3.4843 c -2.2204,2.4796 -3.0899,4.5887 -3.0899,7.5489 0,2.4366 0.6198,4.5622 2.1719,6.6953 1.5521,2.1331 4.0012,4.2934 7.6914,7.0195 3.0244,2.2343 5.0586,4.2347 6.3301,6.2871 1.2714,2.0525 1.8066,4.164 1.8066,6.752 0,2.1451 -0.7974,5.0098 -2.0215,7.625 -1.2241,2.6152 -2.8864,4.9922 -4.4531,6.2246 -2.4223,1.9053 -5.7195,2.3479 -9.0586,1.4844 -3.3391,-0.8635 -6.6856,-3.0391 -9.0898,-6.2911 -1.2517,-1.6929 -2.6524,-2.7887 -4.0977,-3.1523 -1.4453,-0.3636 -2.9282,0.1114 -3.959,1.3535 -0.5288,0.6372 -0.662,1.5284 -0.4121,2.5039 0.25,0.9756 0.8225,2.1244 1.7442,3.6699 2.4994,4.1916 7.0591,7.6936 12.1113,9.4375 v 0.043 l 0.4512,0.1465 c 4.7333,1.5217 12.2573,0.2818 17.6855,-2.7695 1.3335,-0.7496 2.2657,-1.3128 2.9941,-1.6407 0.7285,-0.3278 1.215,-0.4322 1.8418,-0.3496 1.2538,0.1653 3.2169,1.296 7.5997,3.7149 7.4828,4.1297 18.1174,1.3334 25.6269,-6.4903 1.7984,-1.8736 2.8534,-3.5152 3.043,-5.0898 0.1896,-1.5746 -0.6444,-2.9752 -2.1973,-3.9531 -0.4085,-0.2573 -0.8659,-0.4388 -1.3652,-0.4434 -0.4994,0 -0.997,0.1646 -1.5059,0.4649 -1.0178,0.6005 -2.1744,1.7303 -3.9492,3.625 -4.8411,5.1678 -9.5374,6.9144 -14.4902,5.5468 -2.3593,-0.6514 -4.09,-1.7486 -5.4219,-3.4824 -1.3319,-1.7338 -2.2633,-4.1393 -2.8672,-7.4062 -0.9614,-5.2007 -1.0084,-8.4367 0.3164,-11.0059 1.3248,-2.5691 4.1298,-4.6481 9.1641,-7.334 3.1538,-1.6826 5.3752,-3.3525 6.8183,-5.3183 1.4431,-1.9659 2.0645,-4.2156 2.0645,-6.8887 0,-4.7949 -2.5296,-9.0354 -6.4785,-10.6582 -0.5219,-0.2145 -1.2694,-0.3441 -2.334,-0.4844 -1.0647,-0.1403 -2.4111,-0.2675 -3.9571,-0.3769 -3.0918,-0.2189 -6.9834,-0.3655 -10.9746,-0.3926 z m 0.5761,1.3047 14.0332,0.094 c 3.9648,0.027 7.8344,0.1743 10.8907,0.3906 1.5281,0.1082 2.8543,0.2342 3.8789,0.3692 1.0245,0.135 1.7825,0.305 2.0097,0.3984 3.3893,1.3928 5.6739,5.1168 5.6739,9.4551 0,2.4776 -0.5417,4.3872 -1.8145,6.1211 -1.2728,1.7338 -3.3212,3.306 -6.3828,4.9394 -5.101,2.7215 -8.1723,4.9123 -9.7051,7.8848 -1.5328,2.9725 -1.4188,6.5509 -0.4414,11.8379 0.6265,3.389 1.6088,6 3.1152,7.9609 1.5064,1.9609 3.5384,3.2341 6.1075,3.9434 5.4417,1.5026 10.7488,-0.536 15.7832,-5.9102 1.7544,-1.8728 2.9075,-2.9492 3.6621,-3.3945 0.3773,-0.2226 0.6303,-0.2851 0.834,-0.2832 0.2036,0 0.4014,0.064 0.6835,0.2422 1.2951,0.8155 1.7304,1.6129 1.5997,2.6992 -0.1308,1.0863 -0.9844,2.5694 -2.6895,4.3457 -7.1911,7.492 -17.261,10.0037 -24.0625,6.25 -4.369,-2.4113 -6.2891,-3.6322 -8.0566,-3.8652 -0.8838,-0.1166 -1.6942,0.07 -2.545,0.4531 -0.8507,0.3829 -1.7825,0.9522 -3.0976,1.6914 -5.099,2.8663 -12.5223,3.9931 -16.6504,2.666 -4.9335,-1.586 -9.467,-5.069 -11.8438,-9.0547 -0.8956,-1.5018 -1.4126,-2.589 -1.6015,-3.3261 -0.1889,-0.7372 -0.1108,-1.0345 0.1523,-1.3516 0.7708,-0.9288 1.6151,-1.1799 2.6407,-0.9219 1.0255,0.2581 2.2392,1.1332 3.371,2.6641 2.5815,3.4916 6.1625,5.8325 9.8086,6.7754 3.6462,0.9429 7.3935,0.4806 10.1895,-1.7188 1.8427,-1.4494 3.5415,-3.9527 4.8262,-6.6972 1.2846,-2.7446 2.1425,-5.7188 2.1425,-8.1758 0,-2.7722 -0.6034,-5.18 -2.0019,-7.4375 -1.3985,-2.2576 -3.5642,-4.358 -6.6621,-6.6465 -3.646,-2.6935 -5.9969,-4.7979 -7.4102,-6.7402 -1.4133,-1.9424 -1.9258,-3.7034 -1.9258,-5.9297 0,-2.7274 0.6592,-4.3358 2.7598,-6.6817 z m 88.4922,83.9043 c -2.1843,-0.01 -5.1511,0.9192 -9.7012,2.7187 -39.0477,15.4411 -78.186,16.4084 -120.0214,2.9512 -2.9824,-0.9594 -5.9373,-1.7959 -8.3067,-2.3731 -1.1847,-0.2885 -2.2222,-0.5135 -3.0527,-0.6562 -0.8306,-0.1427 -1.4007,-0.2263 -1.8985,-0.1543 -0.6941,0.1003 -1.2708,0.5671 -2,1.3418 -0.7292,0.7747 -1.5983,1.9047 -2.6933,3.4961 -2.19,3.1827 -5.2741,8.2068 -9.75002,15.789 -19.31464,32.719 -25.81993,45.0098 -29.81445,56.3926 -2.8383,8.088 -4.28422,12.2349 -4.57031,14.9942 -0.14305,1.3796 0.0294,2.4505 0.50585,3.375 0.47647,0.9244 1.20385,1.6726 2.11524,2.5839 1.32578,1.3258 2.32141,2.1573 3.50976,2.6036 1.18836,0.4462 2.47614,0.4715 4.32618,0.3378 l 4.83007,-0.3496 0.88282,-12.0586 c 0.46054,-6.2855 1.61688,-13.7738 2.46875,-16.3437 0.69456,-2.0954 1.21488,-3.2953 1.69531,-3.8731 0.48043,-0.5778 0.86905,-0.6816 1.8457,-0.6816 0.53158,0 0.92115,0.031 1.15625,0.092 0.2351,0.061 0.29664,0.1108 0.3711,0.2188 0.14891,0.2159 0.27387,0.9991 0.23632,2.5234 -0.0436,1.7713 -0.86339,7.4646 -1.8164,12.3926 -6.77819,35.0498 0.70431,85.5709 16.31443,109.3105 4.8646,7.3979 14.3942,17.1712 20.1309,20.5469 6.8523,4.0321 15.0178,4.798 23.4648,2.2441 l 0.3731,-0.1113 0.022,-0.1074 c 2.1866,-0.798 4.6825,-2.7712 6.9668,-5.2422 2.4157,-2.6132 4.5243,-5.6662 5.3886,-8.2852 1.9314,-5.8523 0.6697,-12.3042 -4.3164,-23.0078 -5.4341,-11.6656 -9.21,-22.963 -11.7246,-35.0742 -2.7846,-13.4114 -4.3877,-40.4713 -3.3125,-56.1055 l 0.8516,-12.3945 h 2.3945 2.3496 l 0.019,29.3496 0.018,30.086 3.1621,11.7382 c 3.0497,11.3264 9.1084,25.974 13.2364,31.8145 0.9747,1.3791 2.1621,4.195 2.5136,5.9863 0.6082,3.0992 1.2813,5.355 2.1934,7.0215 0.9121,1.6665 2.1052,2.7393 3.6074,3.3223 5.7375,2.2263 11.1104,3.1701 17.9024,3.1523 6.8257,-0.018 11.502,-0.6634 14.83,-2.4863 3.3284,-1.8232 5.1864,-4.8452 6.3106,-9.2403 0.571,-2.2325 2.9031,-9.1308 5.1406,-15.1679 2.2566,-6.0887 5.6857,-17.1074 7.6445,-24.5606 3.4448,-13.1067 3.5706,-14.2211 3.6446,-32.664 0.042,-10.4654 -0.2737,-23.8387 -0.7071,-29.7989 -0.3611,-4.9668 -0.5117,-7.6713 -0.3886,-8.9921 0.062,-0.6605 0.201,-0.9156 0.25,-0.9649 0.049,-0.049 0.1278,-0.083 0.4863,-0.08 1.0041,0.01 1.6934,0.1076 2.1836,0.3887 0.4901,0.2811 0.8838,0.765 1.2558,1.8105 0.7442,2.0912 1.2116,6.2583 1.8497,13.875 1.7698,21.1275 1.629,29.2868 -0.7422,43.2754 -2.5506,15.0467 -7.2664,30.9381 -13.4629,45.3516 -2.9134,6.7768 -4.5078,11.7137 -4.8242,15.9395 -0.3165,4.2257 0.6838,7.7195 2.8535,11.4218 4.043,6.8988 10.9041,10.6572 18.6386,11.1211 7.7346,0.4639 16.3501,-2.3306 24.0606,-8.4375 5.7938,-4.5887 11.695,-13.5818 16.8281,-24.7558 5.1332,-11.1741 9.4679,-24.5272 11.9649,-37.8008 2.6474,-14.0736 2.5958,-49.0921 -0.1309,-61 -1.0619,-4.6373 -1.9566,-10.5336 -1.9844,-12.8633 -0.025,-2.0788 0.078,-3.1604 0.2891,-3.5391 0.1057,-0.1893 0.197,-0.2691 0.4726,-0.3711 0.2757,-0.1019 0.7268,-0.1802 1.3497,-0.2519 0.9859,-0.1135 1.5808,-0.04 1.9765,0.1738 0.3958,0.214 0.7096,0.6136 1.0469,1.4297 0.6183,1.4961 1.5879,5.3225 2.4609,9.5879 0.873,4.2654 1.6764,9.0205 2.0625,12.5488 0.1815,1.6586 0.4011,3.3614 0.6094,4.7754 0.2084,1.4141 0.3919,2.5055 0.5508,3.0781 0.327,1.1789 1.3459,1.8922 2.4961,2.1407 1.1502,0.2485 2.4834,0.1235 3.8086,-0.2539 2.6504,-0.7549 5.356,-2.512 5.9922,-5.0469 0.2326,-0.927 0.1522,-2.3337 -0.061,-4.1016 -0.2127,-1.7679 -0.5932,-3.8327 -1.0937,-5.7949 -4.3216,-16.9393 -12.2822,-32.8377 -31.6035,-63.1953 -3.6012,-5.6582 -6.9396,-10.9701 -9.4161,-14.9688 -1.2382,-1.9993 -2.2611,-3.6711 -2.9922,-4.8906 -0.3655,-0.6097 -0.6586,-1.1071 -0.8671,-1.4726 -0.2086,-0.3656 -0.3485,-0.6533 -0.3399,-0.6309 -0.3736,-0.9736 -0.8621,-1.7744 -1.582,-2.3281 -0.72,-0.5538 -1.6422,-0.8192 -2.7344,-0.8242 z m -0.01,1.2988 c 0.8945,0 1.4821,0.1988 1.9472,0.5566 0.4652,0.3578 0.8391,0.92 1.1621,1.7617 0.088,0.2283 0.2073,0.4309 0.4239,0.8106 0.2165,0.3796 0.5125,0.8836 0.8808,1.498 0.7367,1.2289 1.7617,2.9017 3.002,4.9043 2.4804,4.0052 5.8221,9.3223 9.4257,14.9844 19.2979,30.3206 27.1643,46.0586 31.4395,62.8164 0.4854,1.903 0.8574,3.9266 1.0625,5.6309 0.2051,1.7043 0.2093,3.1529 0.09,3.6289 -0.4452,1.7742 -2.7444,3.4445 -5.0859,4.1113 -1.1707,0.3334 -2.3307,0.4174 -3.1777,0.2344 -0.847,-0.183 -1.3303,-0.5416 -1.5176,-1.2168 -0.1082,-0.3899 -0.3139,-1.5246 -0.5195,-2.9199 -0.2056,-1.3954 -0.424,-3.0851 -0.6036,-4.7266 -0.3935,-3.5963 -1.2004,-8.3722 -2.08,-12.6699 -0.8796,-4.2978 -1.8068,-8.0664 -2.5332,-9.8242 -0.3921,-0.9486 -0.8801,-1.6693 -1.6289,-2.0743 -0.7489,-0.4049 -1.6409,-0.4492 -2.7442,-0.3222 -0.6498,0.075 -1.1775,0.1486 -1.6523,0.3242 -0.4748,0.1756 -0.9039,0.4994 -1.1582,0.9551 -0.5087,0.9113 -0.4783,2.0903 -0.4532,4.1894 0.031,2.6204 0.9385,8.424 2.0176,13.1367 2.6004,11.3564 2.6939,46.7945 0.1211,60.4707 -2.4757,13.1605 -6.7841,26.4289 -11.8691,37.4981 -5.085,11.0692 -10.9752,19.9407 -16.4531,24.2793 -7.4922,5.9339 -15.811,8.6018 -23.1758,8.1601 -7.3649,-0.4417 -13.7696,-3.9549 -17.5938,-10.4804 -2.0801,-3.5495 -2.9773,-6.6934 -2.6797,-10.668 0.2977,-3.9746 1.8302,-8.7999 4.7207,-15.5234 6.2389,-14.512 10.9833,-30.4902 13.5528,-45.6485 2.3839,-14.0631 2.5286,-22.4402 0.7558,-43.6015 -0.6389,-7.6274 -1.0592,-11.7772 -1.9218,-14.2012 -0.4314,-1.212 -1.0213,-2.0359 -1.834,-2.502 -0.8128,-0.4661 -1.7441,-0.5531 -2.8203,-0.5625 -0.4651,0 -1.0141,0.058 -1.42,0.4668 -0.4059,0.4091 -0.5482,0.9753 -0.6211,1.7579 -0.1458,1.5651 0.027,4.2344 0.3887,9.207 0.4264,5.8648 0.7451,19.2666 0.7031,29.7012 -0.074,18.438 -0.161,19.2378 -3.6035,32.3359 -1.944,7.3968 -5.3775,18.4281 -7.6054,24.4395 -2.2471,6.0629 -4.5595,12.8737 -5.1797,15.2988 -1.0764,4.2083 -2.69,6.7883 -5.6758,8.4238 -2.9859,1.6355 -7.4665,2.3068 -14.2109,2.3242 -6.6709,0.017 -11.8286,-0.8918 -17.4278,-3.0644 -1.2327,-0.4784 -2.1355,-1.2691 -2.9375,-2.7344 -0.802,-1.4653 -1.4607,-3.6097 -2.0566,-6.6465 -0.4041,-2.0587 -1.5755,-4.855 -2.7285,-6.4863 -3.8761,-5.484 -10.0355,-20.2253 -13.045,-31.4024 l -3.1152,-11.5722 -0.02,-29.9141 -0.02,-30.6504 h -3.6484 -3.6074 l -0.9356,13.6055 c -1.0882,15.8232 0.5012,42.8062 3.336,56.459 2.5346,12.2074 6.3478,23.6133 11.8203,35.3613 4.9375,10.5994 6.0502,16.6238 4.2598,22.0488 -0.758,2.2965 -2.7821,5.2951 -5.1075,7.8106 -2.3253,2.5154 -5.0001,4.5599 -6.7851,5.0996 -8.1576,2.4663 -15.9029,1.7195 -22.4297,-2.1211 -5.3197,-3.1303 -14.9823,-12.9613 -19.7031,-20.1406 -15.24618,-23.186 -22.82254,-73.707 -16.12309,-108.3496 0.96153,-4.9721 1.78671,-10.5287 1.83789,-12.6075 0.0386,-1.5653 0.0604,-2.5313 -0.46484,-3.2929 -0.26264,-0.3809 -0.68091,-0.6256 -1.11719,-0.7383 -0.43627,-0.1128 -0.9086,-0.1348 -1.48047,-0.1348 -1.1357,0 -2.12562,0.2844 -2.8457,1.1504 -0.72008,0.866 -1.22386,2.1675 -1.92969,4.2969 -0.97125,2.9301 -2.06491,10.2918 -2.53125,16.6562 l -0.80078,10.9395 -3.70898,0.2676 c -1.79333,0.1295 -2.86315,0.085 -3.77539,-0.2578 -0.91224,-0.3426 -1.76041,-1.0182 -3.04688,-2.3047 -0.90014,-0.9002 -1.52506,-1.5715 -1.88086,-2.2617 -0.35579,-0.6903 -0.4932,-1.4292 -0.36719,-2.6446 0.25203,-2.4307 1.66656,-6.6119 4.50391,-14.6972 3.9453,-11.2426 10.39992,-23.4579 29.70703,-56.1641 4.47078,-7.5735 7.55228,-12.5871 9.70308,-15.7129 1.0755,-1.5629 1.9204,-2.6534 2.5684,-3.3418 0.648,-0.6884 1.1117,-0.9267 1.2402,-0.9453 0.099,-0.014 0.7056,0.014 1.4903,0.1484 0.7846,0.1349 1.8017,0.353 2.9668,0.6367 2.3301,0.5676 5.2612,1.3976 8.2148,2.3477 42.0781,13.5353 81.5893,12.5652 120.8965,-2.9785 4.5082,-1.7829 7.4297,-2.6372 9.2188,-2.6289 z m -201.50005,102.9961 c -3.28776,0 -7.30334,1.1855 -11.0625,2.9961 -3.75916,1.8105 -7.25013,4.2421 -9.41992,6.8613 -5.05829,6.1058 -7.21024,15.4417 -6.6875,26.123 0.52274,10.6814 3.73253,22.7328 9.53125,34.3262 8.65765,17.3093 22.42593,32.1667 34.05273,36.4375 5.35447,1.9668 15.12607,1.9252 20.93164,-0.053 l 0.44141,-0.1504 v -0.023 c 1.96445,-0.6935 3.55808,-1.3961 4.71484,-2.3067 1.25091,-0.9847 2.02064,-2.2561 2.20703,-3.832 0.3728,-3.1519 -1.2938,-7.4036 -4.63476,-14.4492 -9.75659,-20.5752 -15.20938,-40.8321 -16.25,-60.3164 -0.1552,-2.906 -0.43825,-5.8947 -0.77149,-8.3829 -0.33323,-2.4881 -0.68456,-4.4187 -1.09961,-5.4433 -1.32066,-3.2604 -4.53945,-6.1668 -8.54296,-8.3008 -4.00352,-2.134 -8.81286,-3.4871 -13.41016,-3.4863 z m 265.48825,0.207 c -3.1596,0.018 -6.6986,0.8034 -11.3183,2.3535 -5.6457,1.8944 -9.3364,4.1189 -11.6543,8.0156 -2.3179,3.8968 -3.2489,9.3326 -3.7149,17.6583 -1.0929,19.5232 -5.7781,37.2151 -15.2148,57.416 -2.9862,6.3924 -4.576,10.253 -4.8594,13.0605 -0.1417,1.4037 0.069,2.5722 0.6426,3.5527 0.5734,0.9806 1.4668,1.7455 2.6035,2.4903 5.0067,3.2805 14.8077,3.732 23.0859,1.3125 5.3304,-1.558 11.7722,-6.1145 17.8887,-12.0801 6.1165,-5.9656 11.881,-13.3474 15.6895,-20.6074 4.07,-7.7585 7.3437,-17.2765 9.3379,-26.291 1.9942,-9.0146 2.7222,-17.5045 1.6035,-23.3125 -1.947,-10.1087 -7.0832,-17.4213 -15.0528,-21.3203 -3.0981,-1.5158 -5.8774,-2.266 -9.0371,-2.2481 z m -265.48825,1.0918 c 4.34002,-7e-4 8.97665,1.2966 12.79883,3.334 3.82217,2.0374 6.80993,4.8232 7.95117,7.6406 0.27964,0.6904 0.68576,2.6805 1.01367,5.1289 0.32791,2.4484 0.61044,5.4122 0.76367,8.2813 1.05096,19.6778 6.55331,40.0985 16.3711,60.8027 3.32269,7.0071 4.81877,11.2102 4.51953,13.7402 -0.14962,1.2651 -0.67453,2.1409 -1.71875,2.9629 -1.04422,0.822 -2.63366,1.5424 -4.77344,2.2715 -5.3696,1.8294 -15.21857,1.8437 -20.0625,0.064 -11.0121,-4.045 -24.79745,-18.7219 -33.33984,-35.8008 -5.72321,-11.4424 -8.88218,-23.3395 -9.39453,-33.8086 -0.51236,-10.4691 1.63415,-19.487 6.39062,-25.2285 1.98157,-2.392 5.35246,-4.7713 8.98242,-6.5196 3.62997,-1.7483 7.52975,-2.8691 10.49805,-2.8691 z m 265.45315,0.168 c 2.9582,-0.025 5.5219,0.6963 8.5019,2.1543 7.5943,3.7155 12.4564,10.591 14.3457,20.4004 1.0534,5.469 0.3753,13.8776 -1.5957,22.7871 -1.9709,8.9095 -5.2208,18.3419 -9.2207,25.9668 -3.7259,7.1026 -9.4206,14.4032 -15.4453,20.2793 -6.0247,5.876 -12.4074,10.3203 -17.3457,11.7636 -7.9593,2.3263 -17.6335,1.7139 -22.0078,-1.1523 -1.0549,-0.6912 -1.7705,-1.3355 -2.1934,-2.0586 -0.4228,-0.7231 -0.5951,-1.5524 -0.4726,-2.7656 0.2449,-2.4264 1.7694,-6.2727 4.7441,-12.6407 9.4903,-20.3153 14.2339,-38.2077 15.336,-57.8945 0.4622,-8.2589 1.4112,-13.4971 3.5332,-17.0644 2.122,-3.5674 5.4315,-5.5972 10.9511,-7.4493 4.5588,-1.5297 7.911,-2.3014 10.8692,-2.3261 z"
             id="path5091" /></g><ellipse
           style="fill:#f4c797;fill-opacity:1;stroke:#2d2219;stroke-width:13.045;stroke-linecap:round;stroke-linejoin:round;stroke-dasharray:none;stroke-opacity:1;paint-order:stroke fill markers"
           id="path5087"
           cx="1080.783"
           cy="3723.9521"
           rx="95.531769"
           ry="52.737141" /><ellipse
           style="fill:#2d2219;fill-opacity:1;stroke:#2d2219;stroke-width:13.045;stroke-linecap:round;stroke-linejoin:round;stroke-dasharray:none;stroke-opacity:1;paint-order:stroke fill markers"
           id="path5088"
           cx="1063.8225"
           cy="3686.6758"
           rx="1.4600794"
           ry="7.088027" /><ellipse
           style="fill:#2d2219;fill-opacity:1;stroke:#2d2219;stroke-width:13.045;stroke-linecap:round;stroke-linejoin:round;stroke-dasharray:none;stroke-opacity:1;paint-order:stroke fill markers"
           id="path5088-4"
           cx="1095.787"
           cy="3686.6758"
           rx="1.4600794"
           ry="7.088027" /><path
           style="fill:#f4c797;fill-opacity:1;stroke:#2d2219;stroke-width:13.045;stroke-linecap:round;stroke-linejoin:round;stroke-dasharray:none;stroke-opacity:1;paint-order:stroke fill markers"
           d="m 1044.4184,3731.6618 c 17.6373,15.2021 44.6888,12.4254 61.611,1.0837 4.56,-3.0561 5.1207,-11.5571 -0.4459,-13.9151"
           id="path5089"
           inkscape:path-effect="#path-effect5089"
           inkscape:original-d="m 1044.4184,3731.6618 c 0.5076,1.1844 0.7839,2.4976 1.5228,3.5532 0.4852,0.6931 1.3626,1.0034 2.0304,1.5228 5.2143,4.0555 13.2954,6.8468 19.7962,4.0608 1.7574,-0.7532 4.7271,-2.1891 6.0912,-3.5532 0.2675,-0.2675 0.2401,-0.7477 0.5076,-1.0152 1.0502,-1.0502 -0.041,1.6049 1.0152,-0.5076 0.1538,-0.3076 0.2949,-1.3101 0.5076,-1.5228 0.4748,-0.4748 2.0145,1.5109 2.0304,1.5228 1.3521,1.0141 2.9528,1.7073 4.5683,2.0304 3.8535,0.7707 15.4946,1.4496 18.7811,-1.0152 2.6412,-1.9809 4.3618,-4.8694 6.5987,-7.1064 1.2124,-1.2123 3.5738,-4.0327 3.5532,-4.0607 -1.7609,-2.3945 -3.8918,-4.4935 -5.8376,-6.7403"
           transform="rotate(-17.891261,1098.5735,3651.0508)" /></g></g></g><pattern
     id="b-2"
     width="41"
     height="41"
     patternUnits="userSpaceOnUse"><circle
       fill="#ffffff"
       cx="20.5"
       cy="20.5"
       r="20.5"
       id="circle2" /></pattern></svg>
