<?xml version="1.0" encoding="UTF-8" standalone="no"?>
<!-- Created with Inkscape (http://www.inkscape.org/) -->

<svg
   version="1.1"
   id="svg1"
   width="164.47168"
   height="164.47156"
   viewBox="0 0 164.47168 164.47156"
   sodipodi:docname="Linotte app main inkscape.ai"
   inkscape:version="1.4.2 (ebf0e940, 2025-05-08)"
   xml:space="preserve"
   inkscape:export-batch-path="/Users/giannipie/Documents/Repositories/linotte-web/resources/images/dice"
   inkscape:export-batch-name="rere"
   inkscape:export-filename="/Users/giannipie/Documents/Repositories/linotte-web/resources/images/pieces/p031_00a0d7ff.svg"
   inkscape:export-xdpi="96"
   inkscape:export-ydpi="96"
   xmlns:inkscape="http://www.inkscape.org/namespaces/inkscape"
   xmlns:sodipodi="http://sodipodi.sourceforge.net/DTD/sodipodi-0.dtd"
   xmlns="http://www.w3.org/2000/svg"
   xmlns:svg="http://www.w3.org/2000/svg"><defs
     id="defs1" /><sodipodi:namedview
     id="namedview1"
     pagecolor="#ffffff"
     bordercolor="#000000"
     borderopacity="0.25"
     inkscape:showpageshadow="2"
     inkscape:pageopacity="0.0"
     inkscape:pagecheckerboard="0"
     inkscape:deskcolor="#d1d1d1"
     showgrid="false"
     inkscape:zoom="0.49434478"
     inkscape:cx="2138.1838"
     inkscape:cy="1456.4734"
     inkscape:window-width="1472"
     inkscape:window-height="844"
     inkscape:window-x="0"
     inkscape:window-y="33"
     inkscape:window-maximized="0"
     inkscape:current-layer="layer-MC0"><inkscape:page
       x="0"
       y="0"
       width="164.47168"
       height="164.47156"
       id="page2"
       margin="0"
       bleed="0" /></sodipodi:namedview><g
     id="layer-MC0"
     inkscape:groupmode="layer"
     inkscape:label="Livello 1"
     transform="translate(-699.27472,-1132.1664)"><g
       id="g969"
       transform="matrix(0.28947709,0,0,0.28947709,677.55477,101.7118)"><rect
         style="fill:#61ffc9;fill-opacity:1;stroke:#ff8f23;stroke-width:2.13543;stroke-linecap:round;stroke-linejoin:round;stroke-dasharray:none;stroke-opacity:1;paint-order:stroke fill markers"
         id="rect973"
         width="414.0314"
         height="428.87839"
         x="153.08543"
         y="3630.7942"
         ry="17.638206" /><path
         style="fill:#a6d1c8"
         d="m 206.82315,4127.1677 c -0.38847,-0.3885 -0.70631,-14.1082 -0.70631,-30.4883 v -29.782 l -23.25,-0.3013 c -22.33552,-0.2896 -23.44564,-0.3977 -28.22392,-2.749 -6.65487,-3.2748 -12.57832,-9.3915 -16.08972,-16.6147 -2.88023,-5.9247 -2.88734,-5.9874 -3.25643,-28.6877 l -0.36989,-22.75 H 104.97979 75.032708 l 0.292064,-7.75 0.292065,-7.75 29.750003,-0.2649 29.75,-0.2649 v -15.9851 -15.9851 h -30 -30.000003 v -8 -8 h 30.000003 30 v -16 -16 h -30 -30.000003 v -8 -8 h 30.000003 30 v -16 -16 h -30 -30.000003 v -8 -8 h 30.000003 30 v -15.9851 -15.9852 l -29.75,-0.2648 -29.750003,-0.2649 -0.292065,-7.75 -0.292064,-7.75 h 30.042062 30.04207 v -16.5 -16.5 H 105.07477 75.032708 l 0.292064,-7.5605 0.292065,-7.5605 29.750003,0.088 29.75,0.088 v -16.5274 -16.5274 H 105.07477 75.032708 l 0.292064,-7.75 0.292065,-7.75 29.653773,-0.2648 29.65377,-0.2647 0.35545,-22.2353 c 0.34434,-21.541 0.43743,-22.4107 2.98139,-27.8552 3.68933,-7.8959 8.98074,-13.3238 16.68974,-17.1203 l 6.61889,-3.2597 22.25876,-0.3462 22.25876,-0.3463 0.26473,-29.6537 0.26474,-29.6538 7.75,-0.2921 7.75,-0.2921 v 30.0421 30.0421 h 16.546 16.546 l -0.15003,-29.75 -0.15002,-29.75 7.60402,-0.2921 7.60403,-0.2921 v 30.0421 30.0421 h 16.5 16.5 v -30.0421 -30.0421 l 7.75,0.2921 7.75,0.2921 0.26488,29.75 0.26488,29.75 h 15.98512 15.98512 v -30 -30 h 8 8 v 30 30 h 16 16 v -30 -30 h 8 8 v 30 30 h 16 16 v -30 -30 h 8 8 v 30 30 h 15.98512 15.98512 l 0.26488,-29.75 0.26488,-29.75 7.75,-0.2921 7.75,-0.2921 v 29.9471 29.9471 l 22.75,0.3699 c 22.70029,0.3691 22.76297,0.3762 28.68776,3.2564 7.21876,3.5093 13.27224,9.3721 16.5861,16.0637 2.38778,4.8216 2.48689,5.8291 2.77741,28.2354 l 0.30127,23.2354 30.19873,0.2646 30.19873,0.2646 v 7.5 7.5 l -30,0.5 -30,0.5 v 16 16 l 30,0.1588 30,0.1587 0.29206,7.5913 c 0.28181,7.3245 0.21155,7.5922 -2,7.6214 -1.26063,0.017 -14.2589,0 -28.88504,-0.029 -14.62614,-0.033 -27.33864,0.227 -28.25,0.5767 -1.44652,0.5551 -1.65702,2.6549 -1.65702,16.5289 v 15.893 h 30.54206 30.54207 l -0.29207,7.75 -0.29206,7.75 -30.27532,0.2647 -30.27532,0.2647 0.27532,15.7353 0.27532,15.7353 30,0.5 30,0.5 v 7.5 7.5 l -30.25,0.2646 -30.25,0.2647 v 15.9707 15.9707 l 30.25,0.2646 30.25,0.2647 v 7.5 7.5 l -30.25,0.2646 -30.25,0.2647 v 15.9707 15.9707 l 30.25,0.2646 30.25,0.2647 v 7.5 7.5 l -30,0.5 -30,0.5 -0.27532,15.7353 -0.27532,15.7353 30.27532,0.2647 30.27532,0.2647 0.2918,7.7353 0.29179,7.7352 -30.29179,0.2648 -30.2918,0.2647 -0.5,23.5 c -0.56892,26.7391 -1.14412,28.9862 -9.57895,37.421 -8.43483,8.4349 -10.6819,9.0101 -37.42105,9.579 l -23.5,0.5 -0.26473,30.2918 -0.26472,30.2918 -7.73528,-0.2918 -7.73527,-0.2918 -0.2647,-30.2753 -0.26471,-30.2754 -15.73529,0.2754 -15.7353,0.2753 -0.5,30 -0.5,30 h -7.5 -7.5 l -0.26467,-30.25 -0.26466,-30.25 h -15.97067 -15.97068 l -0.26466,30.25 -0.26466,30.25 h -7.5 -7.5 l -0.26467,-30.25 -0.26466,-30.25 h -15.97067 -15.97068 l -0.26466,30.25 -0.26466,30.25 -7.73528,0.2918 -7.73527,0.2918 -0.26473,-30.2918 -0.26472,-30.2918 -15.7353,-0.2753 -15.7353,-0.2754 -0.2647,30.2754 -0.2647,30.2753 -7.75,0.292 -7.75,0.2921 v -30.5421 -30.542 h -15.89301 c -13.87399,0 -15.97379,0.2105 -16.52887,1.657 -0.34973,0.9114 -0.60926,13.6239 -0.57673,28.25 0.0325,14.6261 0.0455,27.6244 0.0289,28.885 -0.0292,2.2116 -0.29693,2.2818 -7.62148,2 l -7.59122,-0.292 -0.15878,-30 -0.15878,-30 h -16 -16 l -0.5,30 -0.5,30 -7.04369,0.2896 c -3.87403,0.1593 -7.36153,-0.028 -7.75,-0.4166 z m 123.29369,-147.3355 c 0,-39.4267 -0.0804,-41.1773 -2.14327,-46.6909 -2.76388,-7.3871 -9.62333,-14.3976 -16.32006,-16.6794 -4.36142,-1.4861 -11.66303,-1.6672 -67.21481,-1.6672 -61.6552,0 -62.32186,0.021 -62.32186,2 0,1.9783 0.66666,2 61.37427,2 66.51473,0 65.9478,-0.043 73.22944,5.5113 1.78258,1.3596 4.51349,5.0633 6.06867,8.2304 l 2.82762,5.7583 0.3104,41.25 c 0.30137,40.0484 0.36691,41.25 2.25,41.25 1.88789,0 1.9396,-1.0919 1.9396,-40.9625 z m 84,13.9625 c 0,-26.3334 -0.0494,-27 -2,-27 -1.95062,0 -2,0.6666 -2,27 0,26.3333 0.0494,27 2,27 1.95061,0 2,-0.6667 2,-27 z m 33,-7 c 0,-33.3334 -0.0392,-34 -2,-34 -1.96079,0 -2,0.6666 -2,34 0,33.3333 0.0392,34 2,34 1.96078,0 2,-0.6667 2,-34 z m 30,14 c 0,-19.3334 -0.0667,-20 -2,-20 -1.93334,0 -2,0.6666 -2,20 0,19.3333 0.0667,20 2,20 1.93333,0 2,-0.6667 2,-20 z m -225.97527,-30.25 c 2.60088,-1.3155 5.70009,-4.051 7.46189,-6.5862 2.63355,-3.7896 3.01338,-5.1967 3.01338,-11.1638 0,-5.9671 -0.37983,-7.3743 -3.01338,-11.1639 -9.55593,-13.7506 -30.87181,-10.6333 -35.61827,5.2089 l -1.18493,3.955 h -19.84171 c -19.17505,0 -19.84171,0.067 -19.84171,2 0,1.9328 0.66666,2 19.84171,2 h 19.84171 l 1.18493,3.9549 c 3.55013,11.8493 16.95048,17.4629 28.15638,11.7951 z m 105.97527,-88.75 c 0,-1.9848 -0.66667,-2 -87.5,-2 -86.83334,0 -87.5,0.015 -87.5,2 0,1.9847 0.66666,2 87.5,2 86.83333,0 87.5,-0.015 87.5,-2 z m -16.1249,-48.884 c 11.98403,-3.7299 18.59341,-9.3312 23.28363,-19.7326 1.98539,-4.4029 2.24344,-6.9241 2.62253,-25.622 l 0.42047,-20.7387 3.64913,-0.984 c 11.88987,-3.2064 17.42516,-18.5988 10.63247,-29.5665 -4.27723,-6.9061 -9.99399,-9.7963 -18.15885,-9.1803 -7.08893,0.5347 -10.89812,2.7564 -15.41341,8.9895 -2.42936,3.3537 -2.91107,4.992 -2.91107,9.9007 0,3.2352 0.60797,7.3372 1.35104,9.1156 1.71066,4.0942 7.41197,9.1389 12.06319,10.674 l 3.58577,1.1834 v 18.7409 c 0,23.4432 -0.93871,27.3421 -8.35765,34.7131 -3.49848,3.4759 -6.99247,5.7935 -10.92987,7.25 -5.72998,2.1196 -6.55753,2.1409 -83.25,2.1409 h -77.46248 v 2.5 2.5 h 76.4109 c 72.03394,0 76.75765,-0.1079 82.4642,-1.884 z m 109.58862,-37.5206 c 2.27042,-1.7317 4.7565,-5.0191 6.23039,-8.2385 l 2.4525,-5.3569 h 38.42669 38.4267 v -2.4883 -2.4882 l -38.59321,-0.2618 -38.59321,-0.2617 -1.36565,-4 c -1.76163,-5.1598 -8.08541,-11.056 -13.38962,-12.4843 -21.91475,-5.901 -35.32337,23.8708 -16.26166,36.1066 4.29465,2.7567 5.31968,2.9902 11.79627,2.6869 5.98546,-0.2804 7.68278,-0.7821 10.8708,-3.2138 z m -209.21802,-36.8454 c 1.32874,-3.6132 0.2406,-3.75 -29.82904,-3.75 h -29.41666 v 2.5 2.5 h 29.39301 c 22.60258,0 29.49921,-0.2888 29.85269,-1.25 z m 294.7543,-32.25 v -2.5 h -28 -28 v 2.5 2.5 h 28 28 z m -277,-6.5 c 0,-1.9654 -0.66667,-2 -38.5,-2 -37.83334,0 -38.5,0.035 -38.5,2 0,1.9653 0.66666,2 38.5,2 37.83333,0 38.5,-0.035 38.5,-2 z"
         id="path972" /><path
         style="fill:#74b6a9"
         d="m 207.11684,4096.8612 v -29.9335 l -23.25,-0.3165 c -23.14707,-0.3151 -23.27525,-0.3289 -28.95236,-3.1166 -7.13998,-3.506 -14.02889,-11.0293 -16.74389,-18.2858 -1.84271,-4.9251 -2.05375,-7.746 -2.05375,-27.4516 v -21.9625 h -30 -30.000003 v -7.5 -7.5 h 30.000003 30 v -16.5 -16.5 h -30 -30.000003 v -7.4851 -7.4852 l 29.750003,-0.2648 29.75,-0.2649 0.27477,-16.25 0.27477,-16.25 H 106.14161 76.116837 v -7.4851 -7.4852 l 29.750003,-0.2648 29.75,-0.2649 0.27477,-16.25 0.27477,-16.25 -27.77477,-0.1832 c -15.276126,-0.1008 -28.787273,-0.1285 -30.024773,-0.062 -2.154575,0.1163 -2.25,-0.2153 -2.25,-7.8169 v -7.9382 h 30.000003 30 v -16.5 -16.5 h -30 -30.000003 v -7.5 -7.5 h 30.000003 30 v -16.5 -16.5 h -30 -30.000003 v -7.5 -7.5 h 30.000003 30 v -16.5 -16.5 h -30 -30.000003 v -7.5 -7.5 h 29.934573 29.93458 l 0.31542,-23.75 c 0.30127,-22.6841 0.4211,-23.952 2.67,-28.25 3.20658,-6.1283 9.62531,-12.6245 15.64543,-15.8342 4.91174,-2.6188 5.4148,-2.6746 28.5,-3.1658 l 23.5,-0.5 0.26488,-29.75 0.26488,-29.75 h 7.48512 7.48512 v 30 30 h 16.5 16.5 v -30 -30 h 7.5 7.5 v 30 30 h 16.5 16.5 v -30 -30 h 7.5 7.5 v 30 30 h 16.5 16.5 v -30 -30 l 7.75,-4e-4 7.75,-4e-4 v 29.7504 29.7504 h 16.5 16.5 l 0.26488,-29.75 0.26488,-29.75 h 7.48512 7.48512 v 30.0247 30.0248 l 16.25,-0.2748 16.25,-0.2747 0.26488,-29.75 0.26488,-29.75 h 7.48512 7.48512 v 30 30 h 16.5 16.5 v -30 -30 h 7.5 7.5 v 30 30 h 21.96248 c 19.7056,0 22.52656,0.211 27.45164,2.0537 7.26159,2.7169 14.78133,9.6045 18.28074,16.7439 2.77885,5.6694 2.79697,5.837 3.13065,28.9524 l 0.33562,23.25 h 29.91943 29.91944 v 7.5 7.5 h -30 -30 v 16.5 16.5 h 30 30 v 7.5 7.5 h -30 -30 v 16.5 16.5 h 30 30 v 7.5 7.5 h -30 -30 v 16.5 16.5 h 30 30 v 8.0418 8.0417 l -27.75,-0.085 c -15.2625,-0.047 -28.7625,-0.066 -30,-0.042 -2.24067,0.043 -2.25,0.1121 -2.25,16.5436 v 16.5 h 30 30 v 7.5 7.5 h -30 -30 v 16.5 16.5 h 30 30 v 7.5 7.5 h -30 -30 v 16.5 16.5 h 30 30 v 7.5 7.5 H 612.1974 582.27797 l -0.33057,23.25 -0.33056,23.25 -3.4081,6.2852 c -3.86257,7.1234 -7.8451,10.9977 -15.37882,14.961 -5.18298,2.7266 -5.34734,2.7444 -28.46308,3.0787 l -23.25,0.3362 v 29.9194 29.9195 h -7.5 -7.5 v -30 -30 h -16.5 -16.5 v 30 30 h -7.5 -7.5 v -30 -30 h -16.5 -16.5 v 30 30 h -7.5 c -5.32162,0 -7.50638,-0.3631 -7.52197,-1.25 -0.0121,-0.6875 -0.12458,-14.075 -0.25,-29.75 l -0.22803,-28.5 h -16.5 -16.5 v 29.7504 29.7503 l -7.75,-3e-4 -7.75,-4e-4 v -30 -30 h -16.5 -16.5 v 30 30 h -7.5 -7.5 v -30 -30 h -16.5 -16.5 v 30 30 h -7.5 -7.5 v -30 -30 h -16.5 -16.5 v 30 30 h -7.5 -7.5 z m 123.7959,-116.8165 c -0.31383,-40.4743 -0.39187,-41.9194 -2.55404,-47.2926 -2.70988,-6.7343 -8.32607,-12.7931 -14.86659,-16.0384 l -4.87527,-2.419 -63.81983,-0.2853 -63.81982,-0.2852 0.31982,2.7852 0.31983,2.7853 64,0.5 c 70.25873,0.5489 66.65516,0.2184 72.63584,6.6607 6.50814,7.0104 6.33568,5.6476 6.65463,52.5893 l 0.29047,42.75 h 3.01934 3.01934 z m 83.97029,13.932 0.2662,-27.318 -2.7662,0.318 -2.76619,0.318 -0.29115,24 c -0.33883,27.9309 -0.0497,30.76 3.09811,30.3121 2.18873,-0.3115 2.19356,-0.3657 2.45923,-27.6301 z m 32.23381,-6.682 v -34.5 h -2.5 -2.5 v 34.5 34.5 h 2.5 2.5 z m 31,13.9336 v -20.5665 l -2.75,0.3165 -2.75,0.3164 -0.28455,18 c -0.33239,21.0264 -0.11603,22.5 3.3036,22.5 h 2.48095 z m -227.21199,-29.824 c 7.19924,-3.7229 11.21199,-10.4071 11.21199,-18.6764 0,-16.586 -18.24512,-25.8971 -32.07359,-16.3682 -3.62839,2.5002 -7.92641,8.8989 -7.92641,11.8004 0,1.3962 -2.50378,1.6266 -20.25,1.8639 l -20.25,0.2707 -0.31643,2.75 -0.31642,2.75 h 20.56642 c 18.50627,0 20.56643,0.1665 20.56643,1.6621 0,5.1518 7.63627,13.1136 14.76404,15.3934 3.4846,1.1146 10.46414,0.395 14.02397,-1.4459 z m 138.35235,-73.1557 c 11.26055,-7.9547 11.15194,-25.1283 -0.20869,-33.0013 -4.45123,-3.0847 -12.94506,-4.2634 -18.20745,-2.5266 -4.38929,1.4486 -11.56627,9.0342 -12.37544,13.0801 l -0.59878,2.9939 h -88.375 -88.375 v 3 3 h 88.5 c 84.63221,0 88.5,0.079 88.5,1.8042 0,3.5322 5.62099,10.7977 10.12133,13.0825 6.37155,3.2348 15.27031,2.6282 21.01903,-1.4328 z m -42.40605,-66.8334 c 7.23683,-3.3426 14.3363,-10.3681 17.58641,-17.4033 1.9813,-4.2887 2.20836,-6.6388 2.49938,-25.8691 l 0.32011,-21.1518 3.20608,-0.6015 c 7.57894,-1.4218 14.60978,-10.8517 14.60978,-19.5948 0,-20.1649 -25.71645,-27.7997 -37.44223,-11.1159 -2.6292,3.7409 -3.01384,5.148 -3.01384,11.025 0,5.6987 0.42996,7.3866 2.79002,10.9529 3.01203,4.5515 7.52841,7.8578 12.04686,8.8192 l 2.83687,0.6035 -0.33687,20.1077 c -0.32966,19.6766 -0.39691,20.2298 -3.13797,25.8117 -3.23275,6.5831 -6.96578,10.0639 -14.69891,13.7057 l -5.5,2.5902 -78.75,0.279 -78.75,0.279 v 2.4942 2.4941 l 79.75,-0.2732 79.75,-0.2731 z m 102.59748,-34.9691 c 3.69116,-2.1631 5.17886,-3.9073 7.39451,-8.6693 l 2.7737,-5.9613 38.75,-0.01 38.75,-0.01 v -2.5 -2.5 h -38.92055 -38.92054 l -0.64619,-2.9421 c -1.04912,-4.7766 -5.96246,-10.6131 -10.97855,-13.0414 -3.67381,-1.7784 -5.87203,-2.1601 -10.509,-1.8247 -7.68087,0.5556 -13.02353,4.1571 -16.49206,11.1176 -2.89875,5.817 -3.21448,11.1237 -0.98007,16.4727 5.03035,12.0423 18.47025,16.4965 29.77875,9.8693 z m -207.33179,-39.1514 v -2.5 h -30.5 -30.5 v 2.5 2.5 h 30.5 30.5 z m 44.76847,-19.0478 c 10.13062,-4.2328 15.14663,-16.5532 10.8844,-26.7343 -1.89659,-4.5304 -8.81971,-10.471 -13.14939,-11.2832 -10.76939,-2.0204 -18.99614,1.9513 -23.50348,11.3469 l -2.5,5.2113 h -38.75 -38.75 v 2.5 2.5 l 38.75,0.017 38.75,0.017 2.40241,5.5483 c 4.58701,10.5936 15.52563,15.1904 25.86606,10.8698 z m 250.23153,-11.9522 v -2.5 h -29 -29 v 2.5 2.5 h 29 29 z"
         id="path971" /><path
         style="fill:#627081"
         d="m 207.11684,4096.8765 v -29.9181 l -22.75,-0.3319 c -22.07253,-0.3219 -22.91515,-0.4093 -28.29563,-2.9329 -7.63911,-3.5831 -12.04317,-7.7312 -16.04628,-15.1137 l -3.40809,-6.2852 -0.33057,-23.25 -0.33056,-23.25 H 106.03627 76.116837 v -7.5 -7.5 h 30.000003 30 v -16.5 -16.5 h -30 -30.000003 v -7.5 -7.5 h 30.000003 30 v -17 -17 h -30 -30.000003 v -7 -7 h 30.000003 30 v -17 -17 h -30 -30.000003 l -6.53e-4,-7.25 -6.53e-4,-7.25 h 29.750649 29.75066 l 0.27418,-16.75 0.27417,-16.75 H 106.14102 76.116837 v -7.5 -7.5 h 30.000003 30 v -16.5 -16.5 h -30 -30.000003 v -7.5 -7.5 h 30.000003 30 v -16.5 -16.5 h -30 -30.000003 v -7.5 -7.5 h 29.933503 29.93351 l 0.31649,-23.25 c 0.29044,-21.3356 0.49443,-23.635 2.47739,-27.9257 3.06047,-6.6221 9.61251,-13.3183 16.19625,-16.5524 5.6038,-2.7527 5.80376,-2.7741 28.89286,-3.0884 l 23.25,-0.3165 v -29.9335 -29.9335 h 7.5 7.5 v 30 30 h 16.5 16.5 v -30 -30 h 7.5 7.5 v 30 30 h 16.5 16.5 v -30 -30 h 7.5 7.5 v 30.0242 30.0241 l 16.75,-0.2741 16.75,-0.2742 v -29.7506 -29.7506 l 7.25,6e-4 7.25,6e-4 v 30 30 h 17 17 v -30 -30 h 7 7 v 30 30 h 17 17 v -30 -30 h 7.54383 c 5.45498,0 7.49889,0.3461 7.38152,1.25 -0.0893,0.6875 -0.109,14.1875 -0.0438,30 l 0.11849,28.75 h 16.5 16.5 v -30 -30 h 7.5 7.5 v 29.9194 29.9194 l 23.25,0.3306 23.25,0.3306 6.28521,3.4081 c 7.38255,4.0031 11.53064,8.4071 15.11367,16.0462 2.52366,5.3805 2.611,6.2232 2.93296,28.2957 l 0.33185,22.75 h 29.91815 29.91816 v 7.5 7.5 h -30 -30 v 16.5 16.5 h 30 30 v 7.5 7.5 h -30 -30 v 16.5 16.5 h 30 30 v 7.5 7.5 h -30 -30 v 17.0471 17.0471 l 29.75,-0.1522 29.75,-0.1523 0.29381,7.1052 0.29381,7.1051 h -30.04381 -30.04381 v 17 17 h 30 30 v 7 7 h -30 -30 v 17 17 h 30 30 v 7.5 7.5 h -30 -30 v 16.5 16.5 h 30 30 v 7.5 7.5 h -29.91816 -29.91815 l -0.33185,22.75 c -0.32353,22.1798 -0.39821,22.8915 -2.9798,28.3979 -3.37414,7.1969 -9.51582,13.336 -16.70408,16.697 -5.49592,2.5697 -6.26041,2.6503 -28.39796,2.9929 l -22.75,0.3521 v 29.9051 29.905 h -7.5 -7.5 v -30 -30 h -16.5 -16.5 v 30 30 h -7.5 -7.5 v -30 -30 h -17 -17 v 30 30 h -7 -7 v -30 -30 h -17 -17 v 30.0438 30.0438 l -7.04714,-0.2938 -7.04713,-0.2938 -0.20287,-29.5 -0.20286,-29.5 -16.75,-0.2742 -16.75,-0.2742 v 30.0242 30.0242 h -7.5 -7.5 v -30 -30 h -16.5 -16.5 v 30 30 h -7.5 -7.5 v -30 -30 h -16.5 -16.5 v 30 30 h -7.5 -7.5 z M 546.15378,3843.5969 V 3656.2947 H 358.88531 171.61684 l -0.25656,186.5 c -0.14111,102.575 -0.0859,186.95 0.12266,187.5 0.25132,0.6627 63.4985,0.9333 187.52503,0.8022 l 187.14581,-0.1978 z m -364.42995,175.616 c -0.33385,-0.87 -0.60699,-15.495 -0.60699,-32.5 v -30.9182 h 20.5 20.5 v 2.3499 c 0,1.2925 1.28401,4.1225 2.85335,6.2889 12.22031,16.8697 37.44104,8.95 37.47166,-11.7666 0.023,-15.5646 -16.66791,-25.4 -30.28631,-17.8467 -4.77234,2.647 -8.83718,7.7507 -9.73613,12.2245 l -0.55257,2.75 h -20.375 -20.375 v -15 -15 h 62.13398 c 43.66338,0 63.26651,0.3393 65.94373,1.1414 5.34084,1.6002 10.33756,6.0335 13.08249,11.6074 2.32338,4.7178 2.34191,5.0441 2.64053,46.5012 l 0.30074,41.75 h -71.44375 c -64.22486,0 -71.50508,-0.1599 -72.05073,-1.5818 z m 149.39301,-37.7081 c 0,-42.9756 -0.4342,-47.1139 -5.77112,-55.0045 -3.16799,-4.6838 -10.75464,-10.2019 -16.04727,-11.6719 -2.32609,-0.6461 -26.60128,-1.0246 -65.93161,-1.0281 l -62.25,-0.01 v -14.5 -14.5 h 87.86414 87.86414 l 1.69429,4.4364 c 2.84447,7.4481 11.43732,13.5524 19.07743,13.5524 7.27058,0 15.45564,-5.4817 18.63501,-12.4802 6.96674,-15.3355 -6.64487,-31.9386 -23.27129,-28.3859 -6.07017,1.2971 -12.19448,6.558 -14.42092,12.3879 l -1.71452,4.4894 h -87.86414 -87.86414 v -21.4653 -21.4653 l 78.25,-0.2933 78.25,-0.2933 5.91129,-2.243 c 9.28271,-3.5224 15.90619,-9.1075 19.52721,-16.4661 4.04566,-8.2215 5.0487,-14.9717 5.0557,-34.0237 0.005,-13.8248 0.20307,-15.75 1.61964,-15.75 3.01861,0 9.34993,-4.3403 12.08176,-8.2823 3.83082,-5.5279 4.42353,-14.7744 1.35356,-21.1162 -2.60724,-5.3858 -9.31948,-10.2196 -15.47231,-11.1423 -15.82517,-2.3731 -28.34804,14.4392 -21.68404,29.1115 2.23925,4.9302 8.36473,10.1994 12.831,11.0372 l 3.27619,0.6147 v 16.2522 c 0,16.9933 -0.88176,24.3664 -3.59871,30.092 -2.52703,5.3253 -8.99767,11.1219 -15.22447,13.6387 l -5.67682,2.2945 -78.25,0.2792 -78.25,0.2792 v -34.5146 -34.5145 l 30.25,-0.2647 30.25,-0.2646 0.31642,-2.75 0.31642,-2.75 h -30.56642 -30.56642 v -16 -16 l 38.75,0.045 38.75,0.045 2.5,5.1593 c 1.375,2.8376 4.22927,6.5296 6.34282,8.2046 3.5341,2.8006 4.46484,3.0453 11.5855,3.0453 6.82722,0 8.2142,-0.3268 11.73076,-2.7638 11.62466,-8.0559 11.87678,-24.7072 0.50608,-33.4245 -10.66849,-8.1789 -27.48385,-2.9932 -31.26986,9.6434 l -1.21883,4.0681 -38.58823,-0.2616 -38.58824,-0.2616 v -25 -25 l 177.25,-0.2528 177.25,-0.2527 v 29.0027 29.0028 h -28.56643 -28.56642 l 0.31642,2.75 0.31643,2.75 28.25,0.2656 28.25,0.2655 v 22.9845 22.9844 h -38.42245 -38.42245 l -1.16349,-3.5254 c -2.74764,-8.3255 -10.30067,-13.4849 -19.70178,-13.4582 -7.23627,0.021 -12.5128,2.8019 -16.74824,8.8282 -2.71835,3.8677 -3.04159,5.1064 -3.04159,11.6554 0,6.5393 0.32277,7.7808 3,11.5394 6.00956,8.4367 17.03305,11.3014 26.27413,6.8279 4.78331,-2.3156 9.711,-8.2467 10.73859,-12.9252 l 0.64619,-2.9421 h 38.42054 38.42055 v 119.5 119.5 h -28.9793 -28.97929 l -0.27071,-20.25 -0.2707,-20.25 h -2.5 -2.5 l -0.27071,20.25 -0.2707,20.25 h -11.9793 -11.97929 l 0.0147,-33.75 0.0147,-33.75 5.1913,-2.5 c 3.42108,-1.6475 6.22931,-3.9786 8.23533,-6.8362 2.71217,-3.8634 3.04403,-5.1251 3.04403,-11.573 0,-6.1768 -0.393,-7.8307 -2.68285,-11.2909 -3.28321,-4.9613 -11.37462,-9.3099 -17.2635,-9.278 -10.56509,0.057 -20.5425,10.0034 -20.5425,20.4781 0,7.6401 6.10428,16.2329 13.55242,19.0774 l 4.43643,1.6943 v 33.8641 33.8642 h -13.5 -13.5 v -27 -27 h -3 -3 v 27 27 h -39 -39 z"
         id="path970" /><path
         style="fill:#5d6c7c"
         d="m 207.11684,4096.2357 c 0,-24.1642 0.26157,-30.4085 1.25,-29.8397 0.6875,0.3956 0.89358,0.3283 0.45795,-0.1497 -0.43563,-0.478 -10.89114,-0.7379 -23.23447,-0.5777 -22.35066,0.2902 -30.39299,-0.5771 -28.82818,-3.109 0.38726,-0.6266 0.19506,-0.7843 -0.46143,-0.3786 -0.61882,0.3825 -2.37585,0.047 -3.90451,-0.7448 -3.1279,-1.6208 -8.81402,-6.6251 -7.58089,-6.6719 0.44084,-0.017 -0.007,-0.5007 -0.99443,-1.0754 -2.70514,-1.5741 -6.84445,-11.7491 -6.66935,-16.3942 0.0829,-2.2 0.10905,-12.4375 0.058,-22.75 l -0.0927,-18.75 h -30.5 -30.500003 l 0.01531,-7.25 c 0.01067,-5.0501 0.309452,-6.7949 0.984688,-5.75 0.533155,0.825 0.975979,1.05 0.984052,0.5 0.0095,-0.6502 9.603337,-0.8837 27.426613,-0.6674 18.54867,0.2251 28.0731,-0.021 29.45675,-0.7617 1.94217,-1.0394 2.03447,-1.8922 1.8387,-16.9875 -0.11336,-8.7413 0.13139,-15.6844 0.54389,-15.4293 1.57641,0.9751 0.66357,-2.477 -1,-3.7817 -1.6197,-1.2702 -1.63832,-1.2278 -0.25,0.5695 0.825,1.0681 1.01722,1.6533 0.42716,1.3005 -0.59006,-0.3528 -14.42756,-0.7134 -30.75,-0.8013 l -29.677165,-0.1598 v -6.8907 -6.8906 h 30.500005 30.5 v -15.5 c 0,-11.3248 0.32085,-15.5 1.19113,-15.5 0.65512,0 0.31762,-0.6607 -0.75,-1.4682 -1.60342,-1.2128 -7.11695,-1.4737 -31.69113,-1.5 l -29.750005,-0.032 v -6.9717 -6.9717 l 30.500605,-0.2783 c 16.77534,-0.1531 30.61284,0.058 30.75,0.4684 0.13717,0.4106 0.2494,-7.2394 0.2494,-17 v -17.7467 l -30.75,0.2779 -30.750005,0.2779 v -6.9733 -6.9732 l 29.636155,-0.08 c 16.29989,-0.044 29.98646,-0.2963 30.41459,-0.5609 0.42814,-0.2646 0.92937,-0.026 1.11385,0.5294 0.18447,0.5557 0.33541,-7.0481 0.33541,-16.8974 0,-9.8494 -0.3375,-17.6997 -0.75,-17.4453 -0.4125,0.2545 -0.75,-0.1038 -0.75,-0.7963 0,-0.9792 -0.26667,-0.9924 -1.2,-0.059 -1.54098,1.541 -48.800005,1.7346 -48.800005,0.2 0,-0.55 -1.8,-1 -4,-1 -2.2,0 -4,0.45 -4,1 0,0.55 -0.45,1 -1,1 -0.571429,0 -1,-3 -1,-7 v -7 h 29.940985 c 18.64612,0 30.17141,-0.3729 30.5518,-0.9883 0.33595,-0.5436 0.70001,-8.1937 0.80902,-17.0001 l 0.1982,-16.0118 -30.75,10e-5 -30.750005,1e-4 4.62e-4,-6.75 4.63e-4,-6.75 29.74954,0.2139 c 16.36224,0.1176 30.36272,-2e-4 31.11216,-0.2618 1.15017,-0.4016 1.15017,-0.737 0,-2.1512 -1.20026,-1.4757 -1.13724,-1.5908 0.52882,-0.9653 1.56189,0.5864 1.68345,0.4595 0.69768,-0.7282 -0.83732,-1.0089 -1.1035,-5.7906 -0.89145,-16.0137 0.2371,-11.4307 0.015,-14.6851 -1.02946,-15.0845 -0.73248,-0.2801 -14.56998,-0.5092 -30.75,-0.5092 H 76.116837 v -7 -7 l 31.750003,-0.015 c 17.4625,-0.01 31.19425,-0.3683 30.515,-0.7998 -0.9243,-0.5871 -1.21355,-6.4323 -1.14974,-23.2347 0.0809,-21.3102 0.20463,-22.7175 2.43615,-27.7144 1.42471,-3.1902 3.25658,-5.6276 4.64974,-6.1866 1.26437,-0.5073 1.70979,-0.951 0.98983,-0.9858 -0.71996,-0.035 -1.02869,-0.517 -0.68606,-1.0714 0.34262,-0.5544 1.71186,-0.8105 3.04275,-0.5692 1.33088,0.2414 2.72164,-0.05 3.09057,-0.6465 0.36892,-0.5969 0.24226,-0.8205 -0.28148,-0.4968 -0.52374,0.3237 -1.60577,0.1751 -2.40451,-0.3302 -1.1275,-0.7133 -0.93591,-0.9221 0.85676,-0.934 1.31517,-0.01 2.03714,-0.4552 1.67735,-1.0374 -0.35157,-0.5688 1.72851,-2.0723 4.69098,-3.3906 5.12373,-2.2801 6.16355,-2.3634 27.82266,-2.228 12.375,0.077 22.95,-0.2541 23.5,-0.7365 0.63669,-0.5585 0.89875,-11.7302 0.72131,-30.75 l -0.27869,-29.8728 h 7.02869 7.02869 v 30 c 0,20.4479 0.33719,30 1.05901,30 0.58246,0 0.85043,0.3375 0.5955,0.75 -0.25494,0.4125 6.65053,0.75 15.34549,0.75 8.69496,0 15.61497,-0.314 15.37779,-0.6977 -0.23717,-0.3838 0.38118,-0.5413 1.3741,-0.3501 1.71103,0.3295 1.7846,-1.0035 1.40859,-25.5218 -0.21819,-14.2282 -0.091,-27.9081 0.28267,-30.3999 l 0.67939,-4.5305 h 6.43873 6.43873 l 0.11842,30.25 c 0.0651,16.6375 0.054,30.6209 -0.0248,31.0743 -0.0788,0.4534 0.36826,0.5082 0.99338,0.1219 0.62512,-0.3864 1.52938,-0.082 2.00947,0.6757 0.67472,1.0652 0.87636,1.0836 0.88819,0.081 0.0118,-1.0038 3.1238,-1.2751 13.76532,-1.2002 7.5625,0.053 14.2,0.021 14.75,-0.072 0.55,-0.093 1.225,-0.1521 1.5,-0.1325 0.275,0.02 0.37477,-13.652 0.22171,-30.3815 l -0.27829,-30.4173 7.27829,0.015 c 4.00306,0.01 6.82829,0.3459 6.27829,0.75 -0.62763,0.4611 -1,11.7656 -1,30.3579 0,25.1209 0.21491,29.5407 1.41404,29.0801 0.77773,-0.2988 1.15773,-0.1292 0.84446,0.3767 -0.79574,1.2852 31.53171,1.2055 32.47618,-0.08 0.40408,-0.55 0.74158,-14.3875 0.75,-30.75 l 0.0153,-29.75 h 7 7 l -5.7e-4,30.75 -5.6e-4,30.75 h 16.91634 c 9.30399,0 16.90095,-0.225 16.88214,-0.5 -0.0188,-0.275 0.0191,-14.1125 0.0842,-30.75 l 0.11842,-30.25 h 7.02751 7.02751 l -0.27751,31.359 -0.27751,31.3591 2.90333,-0.8332 c 1.59683,-0.4583 9.35933,-0.883 17.25,-0.9438 l 14.34667,-0.1105 v -30.4153 -30.4153 h 6.94579 6.94579 l -0.19579,30.4042 c -0.10769,16.7223 0.14171,30.1957 0.55421,29.9409 0.4125,-0.2547 0.74962,-0.099 0.74916,0.3459 -9e-4,0.8673 28.94088,0.7023 29.81318,-0.17 1.35616,-1.3562 2.27105,-0.3125 1.07733,1.229 -1.10325,1.4246 -0.9401,1.3958 0.87756,-0.155 2.19895,-1.8761 2.23277,-2.28 2.23277,-26.6667 0,-18.8315 0.29936,-24.9014 1.25,-25.345 1,-0.4667 1,-0.7 0,-1.1667 -0.6875,-0.3208 -1.25,-1.8958 -1.25,-3.5 0,-2.4832 0.40866,-2.9362 2.75,-3.0483 2.48748,-0.119 2.41588,-0.2043 -0.75,-0.8929 -2.62635,-0.5713 -1.67491,-0.7257 3.8116,-0.6184 l 7.31159,0.143 -0.0896,29.3341 c -0.0493,16.1337 -0.13031,29.6337 -0.18002,30 -0.26333,1.9399 0.32045,2.2696 1.8384,1.0383 0.93058,-0.7548 1.42348,-0.9224 1.09534,-0.3724 -0.39169,0.6565 7.24379,0.9515 22.22911,0.8589 l 22.82574,-0.141 5.32893,2.6623 c 3.07359,1.5355 5.20581,3.2342 5.03803,4.0137 -0.19106,0.8876 0.27614,1.1339 1.36134,0.7174 1.19028,-0.4567 1.49137,-0.2148 1.07689,0.8653 -0.31645,0.8247 -0.25405,1.4515 0.13865,1.393 2.06684,-0.3081 3.04468,0.4843 5.09149,4.1262 1.23517,2.1977 1.92351,4.5172 1.52964,5.1545 -0.42763,0.6919 -0.28002,0.8892 0.36638,0.4897 0.60638,-0.3748 1.40642,0.327 1.81893,1.5955 0.96969,2.9818 0.8433,45.2504 -0.14006,46.8416 -0.48881,0.7909 -0.34807,0.9765 0.39313,0.5184 0.63498,-0.3925 1.15451,-0.237 1.15451,0.3455 0,0.7222 9.70019,1.059 30.5,1.059 h 30.5 v 7 7 l -30.25,0.1184 c -16.6375,0.065 -30.475,0.1026 -30.75,0.083 -0.275,-0.019 -0.60208,7.2064 -0.72685,16.0571 -0.16235,11.5173 0.12193,16.5232 1,17.6086 1.00056,1.2368 0.96779,1.3604 -0.17766,0.67 -0.84225,-0.5076 -1.16969,-0.4665 -0.81793,0.1027 0.34529,0.5587 13.05812,1.021 30.90451,1.1238 l 30.31793,0.1748 0.29569,6.5306 0.29569,6.5307 H 611.2149 580.22158 l 0.0651,17.75 c 0.0358,9.7625 0.23693,17.3 0.44697,16.75 0.24591,-0.6439 10.72355,-0.9004 29.42325,-0.7204 22.50065,0.2167 28.88653,0.5545 28.35396,1.5 -0.51391,0.9124 -0.3475,0.9049 0.65931,-0.03 0.74069,-0.6875 1.70671,-1.25 2.14671,-1.25 0.93125,0 1.05334,8.4527 0.16971,11.75 l -0.60298,2.25 H 614.9345 c -15.97503,0 -26.69258,-0.3979 -27.88336,-1.0352 -1.38757,-0.7426 -1.93426,-0.7124 -1.93426,0.107 0,0.6282 -0.66059,0.8887 -1.46798,0.5788 -0.80738,-0.3098 -1.73848,-0.1256 -2.0691,0.4094 -0.33061,0.5349 -1.08955,0.6707 -1.68653,0.3018 -0.59698,-0.369 -0.82322,-0.2466 -0.50277,0.2719 0.32046,0.5185 0.71707,8.204 0.88138,17.0789 0.1643,8.8749 0.53414,16.1169 0.82186,16.0933 0.28773,-0.024 14.14345,0.01 30.79049,0.076 l 30.26735,0.1184 -0.14445,7.0275 -0.14446,7.0276 -30.78087,-0.2776 -30.78088,-0.2775 -0.12981,13.7901 c -0.0714,7.5845 0.16227,15.347 0.51926,17.25 l 0.64909,3.4599 h 30.28344 30.28345 v 7 7 h -30.81666 -30.81667 l 0.0766,17 0.0766,17 h 30.89813 30.89813 l -0.2028,6.9454 -0.2028,6.9454 -30.60002,0.034 -30.60002,0.034 -0.11445,17.354 c -0.0793,12.0272 0.22763,17.43 1,17.6017 0.61295,0.1363 14.38945,0.4365 30.61445,0.6671 l 29.5,0.4193 v 6.2496 6.2496 l -29.98333,0.2067 -29.98333,0.2066 -0.79983,2.7934 c -0.4399,1.5363 -0.692,12.2433 -0.56022,23.7933 0.22619,19.8231 0.11874,21.2305 -1.91726,25.113 -2.5595,4.8807 -9.60864,12.701 -10.57633,11.7334 -0.37384,-0.3739 -0.6797,-0.1341 -0.6797,0.5329 0,0.667 -2.33381,2.294 -5.18623,3.6155 -4.99086,2.3123 -6.03511,2.4029 -27.72115,2.4052 -16.41982,0 -22.75758,-0.3236 -23.35547,-1.1988 -0.58878,-0.8619 -0.7753,-0.7775 -0.66037,0.2988 0.0881,0.825 0.10686,15.1125 0.0417,31.75 l -0.11848,30.25 h -6.5 -6.5 l -0.11842,-30.25 c -0.0651,-16.6375 -0.054,-30.621 0.0248,-31.0744 0.0788,-0.4533 -0.27952,-0.563 -0.79617,-0.2437 -0.51665,0.3193 -1.16727,0.015 -1.44583,-0.6757 -0.39966,-0.9913 -0.52311,-0.986 -0.58541,0.025 -0.0609,0.9891 -3.61895,1.255 -15.58531,1.1648 -11.47929,-0.087 -15.33676,-0.4193 -14.85329,-1.2816 0.46936,-0.8372 0.32501,-0.864 -0.51315,-0.095 -0.83792,0.7684 -1.17646,9.6676 -1.20259,31.612 l -0.0364,30.5426 -6.94411,0.013 -6.94412,0.013 v -30.844 c 0,-28.3575 -0.13415,-30.7926 -1.66405,-30.2055 -1.2479,0.4789 -1.44997,0.2835 -0.80804,-0.7814 0.68466,-1.1357 0.48656,-1.1197 -0.98965,0.08 -1.01511,0.825 -2.00149,1.3875 -2.19196,1.25 -0.19047,-0.1375 -6.6463,-0.25 -14.3463,-0.25 h -14 v 30.3131 30.3132 l -4.5,0.2329 c -3.13235,0.1621 -4.50466,-0.161 -4.51532,-1.0631 -0.009,-0.7939 -0.29997,-0.9087 -0.75,-0.2961 -0.40407,0.55 -1.5348,1.1351 -2.51272,1.3003 -1.67702,0.2832 -1.76223,-1.45 -1.5,-30.5098 l 0.27804,-30.8099 -16.77789,0.359 c -11.64128,0.2491 -17.20132,0.01 -18.16097,-0.7889 -1.01228,-0.8401 -1.56785,-0.8489 -2.07225,-0.033 -0.37904,0.6132 -0.42301,1.3812 -0.0977,1.7065 0.3253,0.3253 0.0329,1.3079 -0.64987,2.1835 -1.08855,1.3961 -1.03327,1.4291 0.44924,0.2689 0.96694,-0.7568 1.42924,-2.0041 1.08006,-2.9141 -0.40487,-1.055 -0.21643,-1.3474 0.55944,-0.8679 0.85182,0.5265 1.16994,9.0051 1.16994,31.1814 v 30.4584 l -6.98553,-0.1436 -6.98552,-0.1436 -0.26448,-30.1238 -0.26447,-30.1237 -17.27785,-0.2738 -17.27785,-0.2737 0.0564,28.7737 c 0.031,15.8256 0.0435,29.4766 0.0279,30.3356 -0.0227,1.2443 -1.3502,1.5781 -6.52853,1.6419 l -6.5,0.08 v -29.6919 c 0,-21.7603 0.32055,-30.0124 1.2,-30.8918 0.93333,-0.9334 0.93333,-1.2 0,-1.2 -0.66,0 -1.2,0.3596 -1.2,0.7992 0,0.4395 -1.4625,0.6716 -3.25,0.5156 -1.7875,-0.1559 -9.4375,-0.4137 -17,-0.5728 l -13.75,-0.2892 v 30.6721 30.6722 l -6.75,-0.1486 -6.75,-0.1485 -0.29396,-24.2335 c -0.16167,-13.3285 0.0989,-27.166 0.57913,-30.75 0.71166,-5.3117 0.61644,-6.5165 -0.51506,-6.5165 -0.76348,0 -1.13597,0.408 -0.82775,0.9067 0.30822,0.4987 -0.22772,0.7389 -1.19098,0.5338 -3.15964,-0.6729 -33.15771,-1.1692 -33.08526,-0.5474 0.0389,0.3338 0.0174,14.2194 -0.0477,30.8569 l -0.11842,30.25 h -7 -7 z m 195.74653,-9.7492 c -0.17275,-6.7055 -0.31359,-0.9418 -0.31298,12.8082 6.1e-4,13.75 0.14195,19.2363 0.31409,12.1918 0.17214,-7.0446 0.17164,-18.2946 -0.001,-25 z m 47.00086,-1.9418 c -0.17086,-7.2875 -0.31065,-1.325 -0.31065,13.25 0,14.575 0.13979,20.5375 0.31065,13.25 0.17086,-7.2875 0.17086,-19.2125 0,-26.5 z m -96.00089,0 c -0.17544,-6.1875 -0.31899,-1.125 -0.31899,11.25 0,12.375 0.14355,17.4375 0.31899,11.25 0.17545,-6.1875 0.17545,-16.3125 0,-22.5 z m 97.94282,-15.5 c -0.25153,-0.9625 -0.45732,-0.175 -0.45732,1.75 0,1.925 0.20579,2.7125 0.45732,1.75 0.25153,-0.9625 0.25153,-2.5375 0,-3.5 z m -49.00621,-3.4375 c -0.31923,-0.7978 -0.55618,-0.5608 -0.60417,0.6041 -0.0434,1.0542 0.19293,1.6448 0.52522,1.3125 0.33229,-0.3322 0.36782,-1.1947 0.079,-1.9166 z m -195.19019,-2.8011 c 0.35034,-0.5668 -0.0511,-0.7345 -0.94099,-0.393 -1.73241,0.6648 -2.04938,1.3816 -0.61095,1.3816 0.51754,0 1.21591,-0.4449 1.55194,-0.9886 z m -61.09593,-11.8448 c 0.28327,-0.4583 -0.12038,-0.8333 -0.89699,-0.8333 -0.77662,0 -1.18026,0.375 -0.897,0.8333 0.28327,0.4584 0.68692,0.8334 0.897,0.8334 0.21008,0 0.61373,-0.375 0.89699,-0.8334 z m 34.85301,-14.89 c -1.7875,-0.2218 -4.7125,-0.2218 -6.5,0 -1.7875,0.2218 -0.325,0.4033 3.25,0.4033 3.575,0 5.0375,-0.1815 3.25,-0.4033 z m 147,0 c -1.7875,-0.2218 -4.7125,-0.2218 -6.5,0 -1.7875,0.2218 -0.325,0.4033 3.25,0.4033 3.575,0 5.0375,-0.1815 3.25,-0.4033 z m 123,0 c -1.7875,-0.2218 -4.7125,-0.2218 -6.5,0 -1.7875,0.2218 -0.325,0.4033 3.25,0.4033 3.575,0 5.0375,-0.1815 3.25,-0.4033 z m 93.5,0.034 c -0.9625,-0.2516 -2.5375,-0.2516 -3.5,0 -0.9625,0.2515 -0.175,0.4573 1.75,0.4573 1.925,0 2.7125,-0.2058 1.75,-0.4573 z m 2.25,-192.3107 v -188 h -188.25 l -188.25,-1e-4 0.25518,188.0001 0.25519,188 h 187.99481 187.99482 z m -365,144.5 v -32.5 h 19.28076 19.28076 l 1.18769,3.1465 c 0.65323,1.7306 0.90735,3.6001 0.56473,4.1545 -0.34263,0.5544 -0.16733,0.7264 0.38955,0.3822 0.55689,-0.3441 1.83893,0.9088 2.84898,2.7843 1.01005,1.8756 2.17917,3.1983 2.59806,2.9394 0.41888,-0.2588 1.50813,0.6687 2.42054,2.0612 0.91242,1.3925 2.16969,2.525 2.79394,2.5166 0.62827,-0.01 0.46531,-0.4971 -0.36501,-1.0944 -1.18096,-0.8495 -1.07461,-0.9036 0.5,-0.2542 2.13335,0.8797 12.34928,1.078 16.5,0.3203 1.375,-0.251 3.09329,-1.2515 3.81842,-2.2232 0.72513,-0.9717 1.80716,-1.4646 2.40451,-1.0954 0.60631,0.3747 0.80182,0.2112 0.44259,-0.37 -0.74661,-1.208 1.69549,-3.5735 2.67649,-2.5925 0.36189,0.3619 0.65799,-0.071 0.65799,-0.9616 0,-2.141 2.12798,-6.7529 2.89622,-6.2769 1.02025,0.6321 0.36255,-9.7613 -0.80812,-12.7707 -0.60633,-1.5587 -0.80205,-3.3587 -0.43493,-4 0.36711,-0.6414 0.29819,-0.8315 -0.15315,-0.4225 -0.85849,0.778 -4.1632,-3.1903 -3.74226,-4.4936 0.13323,-0.4125 -0.32026,-0.6375 -1.00776,-0.5 -0.72602,0.1452 -1.2006,-0.6837 -1.13214,-1.9774 0.0648,-1.225 -0.28002,-1.9814 -0.76631,-1.6809 -0.4863,0.3006 -0.5892,1.0238 -0.22867,1.6071 0.36053,0.5834 0.25537,0.866 -0.23369,0.6282 -7.19636,-3.5 -9.17895,-4.0009 -13.85968,-3.5018 -7.20971,0.7689 -8.1969,1.0638 -10.48154,3.1314 -1.12638,1.0193 -2.05461,1.4461 -2.06272,0.9484 -0.008,-0.4978 -0.60739,0.22 -1.33175,1.595 -0.72436,1.375 -1.78978,2.4051 -2.36761,2.2892 -0.57783,-0.1159 -0.995,0.3341 -0.92704,1 0.068,0.6659 -0.52538,2.8983 -1.31854,4.9608 l -1.44209,3.75 h -19.29911 -19.29911 v -15.0219 -15.0219 l 63.1669,0.2719 c 49.61796,0.2136 63.25668,0.5413 63.58541,1.5281 0.23018,0.6909 0.84986,0.9896 1.37707,0.6638 1.47453,-0.9113 6.10003,2.5398 5.49997,4.1035 -0.32127,0.8372 -0.0236,1.1813 0.76136,0.88 0.70887,-0.272 1.86606,0.2009 2.57152,1.051 0.70546,0.85 1.00256,1.5455 0.66021,1.5455 -0.34234,0 0.30058,0.923 1.42871,2.0511 1.38833,1.3884 1.83847,2.7213 1.39299,4.1249 -0.40685,1.2818 -0.13999,2.3936 0.69884,2.9116 1.09834,0.6782 1.41464,8.5651 1.65933,41.3751 l 0.30232,40.5373 h -71.55232 -71.55231 z m 140.68932,25.75 c -0.25153,-0.9625 -0.45732,-0.175 -0.45732,1.75 0,1.925 0.20579,2.7125 0.45732,1.75 0.25153,-0.9625 0.25153,-2.5375 0,-3.5 z m -67.23203,-39.1809 c 0.31643,-0.512 0.19299,-1.1672 -0.27431,-1.456 -0.46731,-0.2888 -0.84965,0.1301 -0.84965,0.9309 0,1.6861 0.31534,1.8335 1.12396,0.5251 z m 5.54271,-5.6768 c 0,-0.8276 -1.94173,-1.2956 -2.38692,-0.5753 -0.28881,0.4673 0.1301,0.8496 0.93091,0.8496 0.8008,0 1.45601,-0.1234 1.45601,-0.2743 z m 2.29767,-4.059 c -0.28141,-0.7333 -0.64036,-1.3333 -0.79767,-1.3333 -0.15732,0 -0.51627,0.6 -0.79767,1.3333 -0.28141,0.7333 0.0775,1.3333 0.79767,1.3333 0.72012,0 1.07907,-0.6 0.79767,-1.3333 z m -61.00609,-8.0726 c -3.41462,-0.1947 -9.26462,-0.1961 -13,0 -3.73537,0.1929 -0.94158,0.3522 6.20842,0.3539 7.15,0 10.20621,-0.1561 6.79158,-0.3507 z m 120.39774,-11.0107 c -0.25153,-0.9625 -0.45732,-0.175 -0.45732,1.75 0,1.925 0.20579,2.7125 0.45732,1.75 0.25153,-0.9625 0.25153,-2.5375 0,-3.5 z m -111.43932,2.0049 c -5.0875,-0.1815 -13.4125,-0.1815 -18.5,0 -5.0875,0.1815 -0.925,0.33 9.25,0.33 10.175,0 14.3375,-0.1485 9.25,-0.33 z m 11.20729,-5.1858 c 0.31643,-0.512 0.19299,-1.1672 -0.27431,-1.456 -0.46731,-0.2888 -0.84965,0.1301 -0.84965,0.9309 0,1.6861 0.31534,1.8335 1.12396,0.5251 z m 41.20937,-2.4025 c 0,-0.7333 -0.59285,-1.3333 -1.31745,-1.3333 -0.9845,0 -1.0378,0.337 -0.21089,1.3333 0.60861,0.7334 1.20147,1.3334 1.31745,1.3334 0.11599,0 0.21089,-0.6 0.21089,-1.3334 z m -13.16666,-8.6666 c -0.33992,-0.55 -0.0665,-1 0.60765,-1 0.67412,0 0.99009,-0.2356 0.70214,-0.5236 -0.28794,-0.2879 -1.30068,-0.2253 -2.25051,0.1392 -1.36879,0.5253 -1.45033,0.8381 -0.39313,1.5082 1.76067,1.1161 2.08174,1.0863 1.33385,-0.1238 z m 80.73605,54.25 0.23605,-34.75 0.2777,33.4637 c 0.15273,18.4051 0.609,33.7954 1.01394,34.2008 0.40494,0.4054 0.61057,-16.2283 0.45696,-36.9637 -0.1811,-24.4458 -0.6152,-37.1734 -1.23469,-36.2008 -0.87325,1.371 -1.35116,-2.2662 -1.34024,-10.2003 0.001,-0.9352 -0.43937,-1.4273 -0.97924,-1.0936 -0.58343,0.3605 -0.7526,-0.269 -0.41706,-1.5521 0.31049,-1.1873 0.0331,-2.4952 -0.61648,-2.9064 -0.64956,-0.4112 -1.89966,-1.8726 -2.77801,-3.2476 -2.77976,-4.3516 -8.47628,-10.0413 -10.45151,-10.4391 -1.04691,-0.2108 -3.17027,-0.8733 -4.71857,-1.4721 -1.92288,-0.7437 -22.76187,-1.0888 -65.75,-1.0888 h -62.9349 v -14.4511 -14.4511 l 87.5,-0.014 c 77.25684,-0.013 87.5,0.1618 87.5,1.491 0,2.0984 3.45126,8.3436 6.59043,11.9257 1.44599,1.65 2.32764,2.4367 1.95923,1.7483 -0.36841,-0.6885 0.92267,-0.3122 2.86905,0.8362 2.90101,1.7117 4.66924,2.0004 9.81008,1.6021 7.81389,-0.6055 11.75423,-1.3141 12.60951,-2.2676 0.36393,-0.4057 -0.10289,-0.4639 -1.03738,-0.1293 -0.93449,0.3346 0.0336,-1.1242 2.15128,-3.2419 2.1177,-2.1177 4.16898,-4.8543 4.5584,-6.0812 0.39044,-1.2302 0.99543,-1.7645 1.34872,-1.1911 0.35237,0.5719 0.64068,-2.4061 0.64068,-6.6179 0,-4.2117 -0.24876,-7.8826 -0.55279,-8.1576 -0.30403,-0.275 -1.57823,-2.1875 -2.83156,-4.25 -2.09077,-3.4406 -2.04761,-4.2356 0.20868,-3.8437 0.45338,0.079 0.51509,-0.3571 0.13713,-0.9687 -0.49485,-0.8007 -0.99149,-0.8076 -1.77433,-0.025 -2.38698,2.387 -3.43567,-0.3206 -1.39189,-3.5937 0.40556,-0.6495 0.21051,-1.5065 -0.43344,-1.9045 -0.76671,-0.4739 -0.90169,-0.2882 -0.39108,0.538 0.58032,0.939 0.17228,1.0896 -1.59549,0.589 -1.83155,-0.5187 -2.03189,-0.4322 -0.87523,0.3776 0.825,0.5776 1.05,1.0639 0.5,1.0808 -0.55,0.017 -0.325,0.4668 0.5,1 0.825,0.5331 1.05,0.9619 0.5,0.9529 -0.55,-0.01 -1.87351,-0.6772 -2.94113,-1.4847 -1.06762,-0.8075 -2.78168,-1.4682 -3.80902,-1.4682 -1.02734,0 -1.65928,-0.3375 -1.40432,-0.75 0.25496,-0.4125 -1.5737,-0.5878 -4.0637,-0.3896 -3.02845,0.2412 -4.84291,-0.09 -5.48068,-1 -0.77345,-1.1036 -0.87546,-1.0773 -0.54041,0.1396 0.49488,1.7974 -4.48778,4.1826 -7.03174,3.3662 -1.22636,-0.3936 -1.36066,-0.2892 -0.46198,0.359 0.9523,0.6869 0.45551,1.6399 -2,3.8368 -1.79686,1.6077 -3.63797,2.8027 -4.09135,2.6557 -0.45338,-0.147 -0.58522,0.1196 -0.29296,0.5925 0.29225,0.4729 0.0252,2.509 -0.59345,4.5248 l -1.12483,3.665 h -87.33221 -87.33222 v -21.4864 -21.4863 h 76.06008 c 65.91739,0 76.86915,-0.2116 82.12732,-1.5741 3.33698,-0.8647 7.11147,-2.2564 8.38775,-3.0926 1.27628,-0.8363 2.96074,-1.6144 3.74325,-1.7293 1.24397,-0.1826 3.2024,-2.2633 11.60655,-12.3314 1.01088,-1.211 1.6157,-2.4241 1.34404,-2.6958 -0.27166,-0.2717 0.23168,-2.6235 1.11854,-5.2263 1.23282,-3.6181 1.61247,-8.7084 1.61247,-21.6199 0,-16.4925 0.67849,-20.7561 3.30305,-20.7561 0.67797,0 2.86606,-1.1099 4.86243,-2.4665 l 3.62974,-2.4665 -0.54526,2.2165 c -0.29989,1.2191 -0.264,1.9642 0.0798,1.6558 0.34378,-0.3084 0.76535,-1.4801 0.93684,-2.6038 0.17148,-1.1237 1.04497,-3.1621 1.94109,-4.5297 3.8855,-5.93 4.7806,-17.655 1.61581,-21.1655 -0.92208,-1.0228 -1.42938,-2.5037 -1.12731,-3.2909 0.30206,-0.7872 0.13527,-1.3003 -0.37064,-1.1403 -1.02032,0.3227 -7.44819,-4.7531 -6.81769,-5.3836 0.42151,-0.4215 0.36958,-0.4295 -9.20287,-1.4181 -5.49168,-0.5672 -6.72466,-0.3438 -10.85996,1.9674 -2.5657,1.434 -5.17794,2.3142 -5.80496,1.9559 -0.62702,-0.3582 -0.84094,-0.3176 -0.47538,0.09 0.36557,0.4079 -0.38946,2.295 -1.67783,4.1935 -1.28838,1.8986 -2.66368,4.8995 -3.05621,6.6687 -0.62517,2.8178 -0.81145,2.9687 -1.50187,1.2168 -0.58563,-1.486 -0.80625,-0.923 -0.85847,2.191 -0.0387,2.305 0.32159,4.4331 0.80055,4.7292 0.99134,0.6126 2.49756,6.3956 2.19573,8.4301 -0.12427,0.8377 0.26925,1.0602 1.03649,0.586 0.89133,-0.5509 1.03492,-0.2383 0.51403,1.1192 -0.39753,1.0359 -0.39489,1.5556 0.006,1.1549 0.40076,-0.4008 1.66205,0.1105 2.80285,1.1362 2.21334,1.99 6.89357,4.6234 9.91303,5.5776 1.72368,0.5448 1.81306,1.8492 1.42713,20.8285 -0.4063,19.9809 -1.57938,27.5987 -4.01789,26.0916 -0.63429,-0.392 -0.76062,-0.1736 -0.31586,0.546 0.92407,1.4952 -7.90145,10.5557 -9.38738,9.6374 -0.57466,-0.3552 -1.04484,-0.2414 -1.04484,0.2527 0,0.4942 -1.2375,1.5333 -2.75,2.3091 -2.28434,1.1716 -16.16953,1.4586 -82,1.6948 l -79.25,0.2843 v -34.0343 -34.0343 h 30.5 c 30.58681,0 31.1226,-0.057 30.61842,-3.25 -0.0651,-0.4125 0.35813,-0.75 0.94059,-0.75 0.58246,0 0.78091,-0.45 0.44099,-1 -0.39048,-0.6318 -12.01039,-1 -31.55902,-1 h -30.94098 v -16 -16 h 37.92669 37.92669 l 2.73192,5.75 c 1.50256,3.1625 2.6494,6.1209 2.54853,6.5743 -0.10086,0.4534 0.27861,0.5388 0.84326,0.1898 0.56466,-0.3489 1.46467,0.5176 2.00003,1.9257 0.53536,1.4081 1.54701,2.5533 2.24813,2.5449 0.88274,-0.011 0.81347,-0.3134 -0.22525,-0.9847 -2.13889,-1.3823 0.33774,-1.2589 3.48132,0.1734 1.82217,0.8303 2.2072,1.401 1.31643,1.9516 -2.48898,1.5383 10.78488,-0.3642 14.37183,-2.0598 2.63661,-1.2464 4.18484,-1.4582 5.5,-0.7525 1.00673,0.5402 1.49682,0.6198 1.08909,0.1768 -0.40773,-0.443 -0.18273,-1.5219 0.5,-2.3975 1.1226,-1.4398 1.05004,-1.4486 -0.75867,-0.092 -1.1,0.825 -0.55644,-0.1816 1.20792,-2.2369 1.76435,-2.0553 3.69721,-5.554 4.29524,-7.7749 1.16644,-4.3318 0.98656,-14.9789 -0.25316,-14.9847 -0.4125,0 -0.75,-0.4801 -0.75,-1.0625 0,-0.5825 0.5625,-0.7354 1.25,-0.3397 0.72624,0.4179 0.90083,0.3379 0.41666,-0.191 -0.45833,-0.5007 -1.16306,-0.9103 -1.56605,-0.9103 -0.403,0 -1.828,-1.1784 -3.16667,-2.6186 -5.94014,-6.3909 -17.46319,-8.94 -24.29825,-5.3753 -3.30497,1.7237 -4.83406,1.9571 -2.63569,0.4024 0.825,-0.5834 0.9375,-0.914 0.25,-0.7347 -0.6875,0.1794 -1.27359,0.7762 -1.30243,1.3262 -0.0288,0.55 -1.23909,2.2386 -2.68945,3.7524 -1.9737,2.0601 -2.8574,2.4375 -3.51309,1.5 -0.54262,-0.7757 -0.62004,-0.3484 -0.20341,1.1228 0.45384,1.6026 0.31623,2.155 -0.42304,1.6981 -0.67706,-0.4185 -0.87705,-0.1075 -0.52345,0.814 0.31473,0.8202 0.1873,2.179 -0.28317,3.0197 -0.73978,1.3219 -6.02285,1.5667 -39.08413,1.8108 l -38.22872,0.2822 4.4e-4,-24.25 4.5e-4,-24.25 h 177 177 v 28.03 28.0299 l -28.4204,-0.2799 -28.4204,-0.28 -0.38237,3.2805 c -0.2103,1.8044 -0.17112,3.4919 0.0871,3.75 0.25818,0.2582 13.21943,0.4695 28.80276,0.4695 h 28.33334 v 23 23 h -38.3916 -38.39159 l -0.60751,-2.4206 c -0.33414,-1.3313 -0.34047,-3.2438 -0.0141,-4.25 0.49375,-1.5221 0.41218,-1.5774 -0.48558,-0.3294 -0.95913,1.3333 -1.09388,1.3333 -1.21275,0 -0.0736,-0.825 -0.0693,-1.871 0.009,-2.3244 0.0788,-0.4533 -0.28686,-0.5585 -0.81248,-0.2336 -0.52562,0.3248 -1.20919,0.1804 -1.51903,-0.3209 -0.85731,-1.3872 2.02386,-2.1224 3.3033,-0.843 0.82914,0.8292 1.12186,0.8088 1.12186,-0.078 0,-1.193 -1.26964,-1.6058 -3.8499,-1.2517 -0.74244,0.1019 -3.16982,-1.0191 -5.39417,-2.4911 -2.22435,-1.472 -5.2169,-2.7837 -6.6501,-2.9148 -1.43321,-0.1312 -4.40583,-0.5367 -6.60583,-0.9012 -2.84031,-0.4706 -3.42016,-0.39 -2,0.2777 1.86304,0.8761 1.83022,0.9453 -0.47935,1.0108 -3.79019,0.1074 -11.79227,6.0644 -13.93184,10.3711 -1.03853,2.0905 -2.07604,3.2375 -2.30557,2.5489 -0.22954,-0.6886 -0.23287,1.876 -0.007,5.6991 0.22547,3.8232 0.48064,8.1457 0.56705,9.6057 0.0864,1.46 0.42304,2.4901 0.74808,2.2893 0.85359,-0.5276 5.43989,5.8668 5.06096,7.0562 -0.17523,0.55 -3.8e-4,0.6818 0.38855,0.2928 0.38894,-0.3889 2.43351,0.1736 4.5435,1.25 2.10999,1.0765 5.09177,1.9641 6.62618,1.9725 2.1687,0.012 2.45587,0.2311 1.28984,0.9847 -1.1003,0.711 -0.43413,0.9547 2.5,0.9144 3.14267,-0.043 3.57133,-0.2392 2,-0.9144 -1.74938,-0.7518 -1.62406,-0.888 1,-1.0873 1.65,-0.1253 3.5925,-0.2019 4.31666,-0.1703 0.72417,0.032 1.06329,-0.1958 0.75359,-0.5055 -0.66851,-0.6685 5.5597,-4.7367 6.75408,-4.4117 0.45338,0.1234 0.57083,-0.1858 0.26101,-0.6871 -0.30983,-0.5013 0.1014,-1.4632 0.91383,-2.1374 1.1887,-0.9866 1.59442,-0.9204 2.07761,0.3388 0.33024,0.8606 0.26604,2.1058 -0.14268,2.7671 -0.46741,0.7563 -0.32046,0.9412 0.39608,0.4983 0.62657,-0.3872 1.05063,-1.7743 0.94237,-3.0824 -0.10826,-1.3081 -0.62784,-2.112 -1.15463,-1.7864 -0.55652,0.344 -0.67533,-0.1441 -0.2836,-1.165 0.37081,-0.9663 0.94607,-2.8401 1.27835,-4.164 l 0.60414,-2.4071 h 38.39159 38.3916 v 119 119 h -29.03862 -29.03861 l 0.28861,-20.7911 0.28862,-20.7911 -3,0.4167 c -5.48896,0.7625 -5.51782,0.8774 -5.28347,21.0379 l 0.21653,18.6276 0.56694,-19 0.56693,-19 0.21653,19.75 0.21654,19.75 h -12 -12 v -33.8417 -33.8417 l 4.25,-1.3402 c 2.3375,-0.7371 4.62094,-1.2472 5.07433,-1.1335 0.45338,0.1136 0.53736,-0.2577 0.18661,-0.8252 -0.35074,-0.5675 0.0777,-1.3064 0.95218,-1.6419 2.32968,-0.894 6.33214,-8.2415 7.09761,-13.0294 0.87948,-5.5011 -1.65525,-13.0406 -5.81433,-17.2946 -13.12575,-13.4253 -35.813,-4.0384 -35.72444,14.7811 0.0121,2.5669 0.87765,6.5518 1.92348,8.8554 2.06756,4.554 8.77185,10.1024 13.30456,11.0106 l 2.75,0.5511 v 33.875 33.875 h -13.5 -13.5 v -27.559 c 0,-18.1181 0.34257,-27.3473 1,-26.941 0.55,0.3399 1,0.168 1,-0.382 0,-0.55 -0.45,-1.2781 -1,-1.618 -0.55,-0.3399 -1,-0.1309 -1,0.4645 0,0.6283 -1.3638,0.932 -3.25,0.7238 l -3.25,-0.3588 0.28043,27.8352 0.28043,27.8353 h -39.03043 -39.03043 z m 118.51166,-8.5 c -0.16895,-7.8375 -0.30719,-1.425 -0.30719,14.25 0,15.675 0.13824,22.0875 0.30719,14.25 0.16896,-7.8375 0.16896,-20.6625 0,-28.5 z m -8.99921,-5.937 c -0.1659,-8.9722 -0.30196,-1.913 -0.30236,15.687 -4e-4,17.6 0.13534,24.9408 0.30164,16.313 0.1663,-8.6279 0.16663,-23.0279 7.2e-4,-32 z m 10.99958,5.9975 c -0.16916,-7.8708 -0.30797,-1.7105 -0.30848,13.6895 -5e-4,15.4 0.1379,21.8397 0.30757,14.3105 0.16966,-7.5292 0.17007,-20.1292 9.1e-4,-28 z m -13,-3 c -0.16916,-7.8708 -0.30797,-1.7105 -0.30848,13.6895 -5e-4,15.4 0.1379,21.8397 0.30757,14.3105 0.16966,-7.5292 0.17007,-20.1292 9.1e-4,-28 z m 40.93503,39.002 c -0.31923,-0.7978 -0.55618,-0.5608 -0.60417,0.6041 -0.0434,1.0542 0.19293,1.6448 0.52522,1.3125 0.33229,-0.3322 0.36782,-1.1947 0.079,-1.9166 z m -2.68311,-35.7535 c 0,-0.5175 -0.51953,-1.2621 -1.15451,-1.6545 -0.68238,-0.4217 -0.88431,-0.2763 -0.49377,0.3556 0.36341,0.588 0.0954,1.297 -0.59549,1.5755 -0.75787,0.3056 -0.56198,0.5378 0.49377,0.5854 0.9625,0.043 1.75,-0.3445 1.75,-0.862 z m -60.31689,-4.2465 c -0.31923,-0.7978 -0.55618,-0.5608 -0.60417,0.6041 -0.0434,1.0542 0.19293,1.6448 0.52522,1.3125 0.33229,-0.3322 0.36782,-1.1947 0.079,-1.9166 z m -9.87624,-8.339 c -0.30789,-0.3079 -0.86705,0.2471 -1.24258,1.2333 -0.54269,1.4252 -0.42782,1.5401 0.55979,0.5598 0.68342,-0.6783 0.99068,-1.4852 0.68279,-1.7931 z m 44.85541,-6.7235 c -0.27742,-0.6875 -0.50439,-0.125 -0.50439,1.25 0,1.375 0.22697,1.9375 0.50439,1.25 0.27741,-0.6875 0.27741,-1.8125 0,-2.5 z m -1.96929,-1.481 c -0.25355,-0.973 -0.47767,-0.419 -0.49804,1.231 -0.0204,1.65 0.18706,2.446 0.46098,1.769 0.27393,-0.677 0.2906,-2.027 0.0371,-3 z m 4.30701,-2.876 c 0,-0.2162 -0.675,-0.393 -1.5,-0.393 -0.825,0 -1.5,0.4359 -1.5,0.9686 0,0.5327 0.675,0.7096 1.5,0.393 0.825,-0.3166 1.5,-0.7525 1.5,-0.9686 z m 11.32034,-11.4727 c -0.51586,-0.5158 -0.96704,0.2566 -1.07846,1.8464 -0.1681,2.3984 -0.0594,2.507 0.8869,0.8869 0.62729,-1.0739 0.70743,-2.2174 0.19156,-2.7333 z m -135.32034,-15.4203 c 0,-0.825 -0.43588,-1.5 -0.96862,-1.5 -0.53274,0 -0.70959,0.675 -0.39301,1.5 0.31658,0.825 0.75246,1.5 0.96862,1.5 0.21615,0 0.39301,-0.675 0.39301,-1.5 z m 135.66228,-6.75 c -0.27742,-0.6875 -0.50439,-0.125 -0.50439,1.25 0,1.375 0.22697,1.9375 0.50439,1.25 0.27741,-0.6875 0.27741,-1.8125 0,-2.5 z M 311.846,3913.1905 c -0.33229,-0.3323 -1.19479,-0.3678 -1.91666,-0.079 -0.79774,0.3192 -0.56078,0.5561 0.60416,0.6041 1.05417,0.043 1.64479,-0.1929 1.3125,-0.5252 z m -38.97916,-1.1452 c -15.2625,-0.1552 -40.2375,-0.1552 -55.5,0 -15.2625,0.1553 -2.775,0.2823 27.75,0.2823 30.525,0 43.0125,-0.127 27.75,-0.2823 z m 179.97916,-1.8548 c -0.33229,-0.3323 -1.19479,-0.3678 -1.91666,-0.079 -0.79774,0.3192 -0.56078,0.5561 0.60416,0.6041 1.05417,0.043 1.64479,-0.1929 1.3125,-0.5252 z m -72,-6 c -0.33229,-0.3323 -1.19479,-0.3678 -1.91666,-0.079 -0.79774,0.3192 -0.56078,0.5561 0.60416,0.6041 1.05417,0.043 1.64479,-0.1929 1.3125,-0.5252 z m 17.83352,-35.6252 c 0.34132,-0.3413 -0.0826,-0.5173 -0.94211,-0.3912 -0.85948,0.1261 -1.84194,0.5086 -2.18326,0.8499 -0.34132,0.3413 0.0826,0.5174 0.94211,0.3913 0.85948,-0.1262 1.84195,-0.5087 2.18326,-0.85 z m -39.81282,-42.3541 c -0.95296,-0.9529 -2.86349,0.5906 -2.15331,1.7397 0.42212,0.683 0.98147,0.6658 1.69965,-0.052 0.58875,-0.5888 0.7929,-1.348 0.45366,-1.6873 z m -5.30547,-9.5065 c -0.27964,-0.4525 -1.25878,-0.5347 -2.17586,-0.1828 -1.11476,0.4277 -1.25603,0.7769 -0.42623,1.0535 0.9811,0.3271 0.97412,0.7601 -0.0333,2.0665 -0.90739,1.1767 -0.63816,1.1102 0.93468,-0.2309 1.21505,-1.036 1.98038,-2.2538 1.70074,-2.7063 z m 13.90068,-3.4532 c -0.32568,-0.8487 -0.80662,-1.3286 -1.06875,-1.0665 -0.26213,0.2621 -0.17998,0.9566 0.18256,1.5431 0.98605,1.5955 1.56238,1.2856 0.88619,-0.4766 z m 81.19605,-11.3903 c -0.36254,-0.5866 -1.4201,-1.0143 -2.35014,-0.9505 -1.52451,0.1046 -1.5187,0.161 0.059,0.5733 0.9625,0.2515 1.75,0.9493 1.75,1.5507 0,0.6013 0.27006,0.8233 0.60013,0.4932 0.33008,-0.3301 0.30352,-1.0801 -0.059,-1.6667 z m -25.54112,-6.5665 c 0,-2.4643 -1.49551,-2.383 -1.6438,0.089 -0.0791,1.3186 0.2584,2.1489 0.75,1.845 0.49159,-0.3038 0.8938,-1.1742 0.8938,-1.9343 z m -63.5,-26.5 c -0.33992,-0.55 -1.15398,-0.9931 -1.80902,-0.9847 -0.71562,0.01 -0.59228,0.4022 0.30902,0.9847 1.92112,1.2415 2.2673,1.2415 1.5,0 z m 61.42105,-3.3725 c -0.0492,-0.7025 -0.26986,-0.654 -0.58541,0.1287 -0.27856,0.6909 -0.84303,1.0482 -1.25439,0.794 -0.41135,-0.2542 -0.74792,0.1858 -0.74792,0.9779 0,1.0867 0.3272,1.1686 1.33333,0.3336 0.73334,-0.6087 1.29781,-1.614 1.25439,-2.2342 z m 22.57187,-8.6161 c 0.35034,-0.5668 -0.0511,-0.7345 -0.94099,-0.393 -1.73241,0.6648 -2.04938,1.3816 -0.61095,1.3816 0.51754,0 1.21591,-0.4449 1.55194,-0.9886 z m -151.58963,-14.9305 c 1.01176,-0.6406 0.68977,-0.8455 -1.15404,-0.7347 -1.40654,0.085 -2.34896,0.4913 -2.09428,0.9038 0.60193,0.9749 1.51658,0.9273 3.24832,-0.1691 z m 97.4904,-1.6645 c 0.37372,-0.9739 0.15024,-1.4311 -0.58051,-1.1875 -1.49484,0.4983 -2.3179,2.7711 -1.00351,2.7711 0.53699,0 1.2498,-0.7126 1.58402,-1.5836 z m -89.01214,-4.9684 c 0.3415,-0.8899 0.17385,-1.2913 -0.39301,-0.9409 -0.5437,0.336 -0.98854,1.0344 -0.98854,1.5519 0,1.4384 0.71676,1.1215 1.38155,-0.611 z m 47.61845,-3.341 c 0,-1.4167 -2.86447,-2.1353 -3.62249,-0.9088 -0.40012,0.6474 -0.23372,0.8309 0.39888,0.44 0.59698,-0.369 1.36806,-0.2135 1.71353,0.3455 0.77566,1.255 1.51008,1.315 1.51008,0.1233 z m 35.74834,-0.692 c -0.81644,-0.8164 -4.82761,-1.3523 -4.3511,-0.5813 0.24787,0.4011 1.43575,0.8034 2.63975,0.8941 1.20399,0.091 1.97409,-0.05 1.71135,-0.3128 z m -4.1742,-4.1108 c -0.13689,-0.9327 -0.88457,-1.867 -1.66152,-2.0761 -1.1043,-0.2974 -1.08522,-0.1488 0.0874,0.6804 1.33333,0.943 1.33333,1.0643 0,1.0915 -1.33334,0.027 -1.33334,0.1383 0,1 1.93214,1.2486 1.86395,1.2788 1.57414,-0.6958 z m 111.15502,-5.9084 c -0.33229,-0.3323 -1.19479,-0.3678 -1.91666,-0.079 -0.79774,0.3192 -0.56078,0.5561 0.60416,0.6041 1.05417,0.043 1.64479,-0.1929 1.3125,-0.5252 z m 40,0 c -0.33229,-0.3323 -1.19479,-0.3678 -1.91666,-0.079 -0.79774,0.3192 -0.56078,0.5561 0.60416,0.6041 1.05417,0.043 1.64479,-0.1929 1.3125,-0.5252 z m -46.23624,-2.3844 c 0.35034,-0.5668 -0.0511,-0.7345 -0.94099,-0.393 -1.73241,0.6648 -2.04938,1.3816 -0.61095,1.3816 0.51754,0 1.21591,-0.4449 1.55194,-0.9886 z m -344,280 c 0.35034,-0.5668 -0.0511,-0.7345 -0.94099,-0.393 -1.73241,0.6648 -2.04938,1.3816 -0.61095,1.3816 0.51754,0 1.21591,-0.4449 1.55194,-0.9886 z m -0.36884,-22.2781 c -0.98761,-0.9803 -1.10248,-0.8654 -0.55979,0.5598 0.37553,0.9862 0.93469,1.5412 1.24258,1.2333 0.30789,-0.3078 6.3e-4,-1.1148 -0.68279,-1.7931 z m -12.85505,-42.3893 c -0.67703,-0.2739 -2.02703,-0.2906 -3,-0.037 -0.97297,0.2535 -0.41903,0.4776 1.23097,0.498 1.65,0.02 2.44606,-0.187 1.76903,-0.461 z m 466.48097,-0.033 c -0.9625,-0.2516 -2.5375,-0.2516 -3.5,0 -0.9625,0.2515 -0.175,0.4573 1.75,0.4573 1.925,0 2.7125,-0.2058 1.75,-0.4573 z m 43.51903,0.033 c -0.67703,-0.2739 -2.02703,-0.2906 -3,-0.037 -0.97297,0.2535 -0.41903,0.4776 1.23097,0.498 1.65,0.02 2.44606,-0.187 1.76903,-0.461 z m -519.26903,-38.0076 c -10.46985,-0.7051 -33.726483,-0.7776 -32.659703,-0.1017 0.637835,0.404 9.2597,0.6604 19.159703,0.5697 9.9,-0.091 15.975,-0.3013 13.5,-0.468 z m 470.72916,0.059 c -0.33229,-0.3323 -1.19479,-0.3678 -1.91666,-0.079 -0.79774,0.3192 -0.56078,0.5561 0.60416,0.6041 1.05417,0.043 1.64479,-0.1929 1.3125,-0.5252 z m 36.02084,-0.1391 c -4.2625,-0.1875 -11.2375,-0.1875 -15.5,0 -4.2625,0.1874 -0.775,0.3408 7.75,0.3408 8.525,0 12.0125,-0.1534 7.75,-0.3408 z m -486.22354,-9.0636 c -0.30789,-0.3079 -1.1148,-6e-4 -1.79313,0.6828 -0.98027,0.9876 -0.8654,1.1025 0.55979,0.5598 0.98623,-0.3755 1.54123,-0.9347 1.23334,-1.2426 z m 439.15665,-8.3806 c -0.31923,-0.7978 -0.55618,-0.5608 -0.60417,0.6041 -0.0434,1.0542 0.19293,1.6448 0.52522,1.3125 0.33229,-0.3322 0.36782,-1.1947 0.0789,-1.9166 z m 5.31689,-29.8125 c 0,-0.55 -0.47656,-1 -1.05902,-1 -0.58246,0 -0.7809,0.45 -0.44098,1 0.33992,0.55 0.81647,1 1.05901,1 0.24254,0 0.44099,-0.45 0.44099,-1 z m -447,-10 c 0,-0.6484 -9.93257,-0.9205 -28.25,-0.7739 l -28.250003,0.2262 28.000003,0.5477 c 15.4,0.3012 28.1125,0.6495 28.25,0.7738 0.1375,0.1244 0.25,-0.2238 0.25,-0.7738 z m 447,0 c 0,-0.55 -0.47656,-1 -1.05902,-1 -0.58246,0 -0.7809,0.45 -0.44098,1 0.33992,0.55 0.81647,1 1.05901,1 0.24254,0 0.44099,-0.45 0.44099,-1 z m 38.25,-0.7465 c -6.1875,-0.1755 -16.3125,-0.1755 -22.5,0 -6.1875,0.1754 -1.125,0.319 11.25,0.319 12.375,0 17.4375,-0.1436 11.25,-0.319 z m -10.52231,-36.9833 c -2.07477,-0.2165 -5.22477,-0.2129 -7,0.01 -1.77523,0.221 -0.0777,0.3981 3.77231,0.3936 3.85,0 5.30246,-0.1851 3.22769,-0.4016 z m 28.95542,-8.4577 c -0.31923,-0.7978 -0.55618,-0.5608 -0.60417,0.6041 -0.0434,1.0542 0.19293,1.6448 0.52522,1.3125 0.33229,-0.3322 0.36782,-1.1947 0.0789,-1.9166 z m -560.683113,-1.3125 c 0.717548,-0.8646 0.814737,-1.5 0.229433,-1.5 -0.558501,0 -1.274478,0.675 -1.59106,1.5 -0.316582,0.825 -0.419827,1.5 -0.229433,1.5 0.190393,0 0.90637,-0.675 1.59106,-1.5 z m 3,-38.5 c 0,-0.55 -0.45,-1 -1,-1 -0.55,0 -1,0.45 -1,1 0,0.55 0.45,1 1,1 0.55,0 1,-0.45 1,-1 z m 505.750003,0.3107 c -0.9625,-0.2516 -2.5375,-0.2516 -3.5,0 -0.9625,0.2515 -0.175,0.4573 1.75,0.4573 1.925,0 2.7125,-0.2058 1.75,-0.4573 z m -470,-2.0569 c -5.9125,-0.1768 -15.5875,-0.1768 -21.500003,0 -5.9125,0.1768 -1.075,0.3214 10.750003,0.3214 11.825,0 16.6625,-0.1446 10.75,-0.3214 z m 503.44457,-8e-4 c -6.21798,-0.1758 -16.11798,-0.1752 -22,0 -5.88201,0.1765 -0.79457,0.3203 11.30543,0.3195 12.1,-7e-4 16.91256,-0.1451 10.69457,-0.3208 z m -22.42666,-1.9675 c -1.50265,-0.2282 -4.20265,-0.2328 -6,-0.01 -1.79735,0.2226 -0.56791,0.4093 2.73209,0.4149 3.3,0.01 4.77056,-0.1765 3.26791,-0.4046 z m -18.76791,-6.6785 c 0,-0.2162 -0.69838,-0.661 -1.55194,-0.9886 -0.88993,-0.3415 -1.29132,-0.1738 -0.94098,0.393 0.58725,0.9502 2.49292,1.4055 2.49292,0.5956 z m -439.40451,-31.7615 c 0.44208,-0.7153 0.27431,-0.8831 -0.44098,-0.441 -0.63498,0.3924 -1.15451,0.162 -1.15451,-0.5122 0,-0.6741 -0.27006,-0.9556 -0.60014,-0.6255 -0.57204,0.572 0.29785,2.7332 1.10014,2.7332 0.21008,0 0.70305,-0.5196 1.09549,-1.1545 z m 4.52859,-75.1122 c -0.98761,-0.9803 -1.10248,-0.8654 -0.55979,0.5598 0.37553,0.9862 0.93469,1.5412 1.24258,1.2333 0.30789,-0.3078 6.3e-4,-1.1148 -0.68279,-1.7931 z m 8.23754,-6.2333 c -0.31658,-0.825 -0.75246,-1.5 -0.96861,-1.5 -0.21616,0 -0.39301,0.675 -0.39301,1.5 0,0.825 0.43587,1.5 0.96861,1.5 0.53274,0 0.7096,-0.675 0.39301,-1.5 z m 200.63838,-7.5 c 0,-0.55 -0.47656,-1 -1.05902,-1 -0.58246,0 -0.7809,0.45 -0.44098,1 0.33992,0.55 0.81647,1 1.05901,1 0.24254,0 0.44099,-0.45 0.44099,-1 z m 95.74721,-39.75 c -0.1719,-7.0125 -0.31255,-1.275 -0.31255,12.75 0,14.025 0.14065,19.7625 0.31255,12.75 0.1719,-7.0125 0.1719,-18.4875 0,-25.5 z m -96.00019,-0.4446 c -0.17573,-6.218 -0.32013,-1.4054 -0.32089,10.6946 -7.5e-4,12.1 0.14303,17.1874 0.31952,11.3054 0.17649,-5.882 0.1771,-15.782 0.001,-22 z m 48.99804,-2.0554 c -0.18149,-5.0875 -0.32998,-0.925 -0.32998,9.25 0,10.175 0.14849,14.3375 0.32998,9.25 0.1815,-5.0875 0.1815,-13.4125 0,-18.5 z m 57.25494,-9.643 c 0,-1.263 -2.82608,-2.1974 -3.47421,-1.1488 -0.29604,0.479 0.0271,1.0989 0.71798,1.3774 1.98147,0.7989 2.75623,0.7346 2.75623,-0.2286 z m -153.5,-6.107 c 0.33992,-0.55 0.14147,-1 -0.44099,-1 -0.58246,0 -1.05901,0.45 -1.05901,1 0,0.55 0.19844,1 0.44098,1 0.24254,0 0.7191,-0.45 1.05902,-1 z m -86.77084,-1.6042 c -0.33229,-0.3323 -1.19479,-0.3678 -1.91666,-0.079 -0.79774,0.3192 -0.56078,0.5561 0.60416,0.6041 1.05417,0.043 1.64479,-0.1929 1.3125,-0.5252 z m 49,0 c -0.33229,-0.3323 -1.19479,-0.3678 -1.91666,-0.079 -0.79774,0.3192 -0.56078,0.5561 0.60416,0.6041 1.05417,0.043 1.64479,-0.1929 1.3125,-0.5252 z m 239.52084,-0.058 c -0.6875,-0.2774 -1.8125,-0.2774 -2.5,0 -0.6875,0.2774 -0.125,0.5044 1.25,0.5044 1.375,0 1.9375,-0.227 1.25,-0.5044 z m -428.500003,240 c 0.6875,-0.2774 1.8125,-0.2774 2.5,0 0.6875,0.2774 0.125,0.5044 -1.25,0.5044 -1.375,0 -1.9375,-0.227 -1.25,-0.5044 z"
         id="path969" /></g></g><pattern
     id="b-2"
     width="41"
     height="41"
     patternUnits="userSpaceOnUse"><circle
       fill="#ffffff"
       cx="20.5"
       cy="20.5"
       r="20.5"
       id="circle2" /></pattern></svg>
