<?xml version="1.0" encoding="UTF-8" standalone="no"?>
<!-- Created with Inkscape (http://www.inkscape.org/) -->

<svg
   version="1.1"
   id="svg1"
   width="172.52271"
   height="175.797"
   viewBox="0 0 172.52271 175.797"
   sodipodi:docname="Linotte app main inkscape.ai"
   inkscape:version="1.4.2 (ebf0e940, 2025-05-08)"
   xml:space="preserve"
   inkscape:export-batch-path="/Users/giannipie/Documents/Repositories/linotte-web/resources/images/dice"
   inkscape:export-batch-name="rere"
   inkscape:export-filename="/Users/giannipie/Documents/Repositories/linotte-web/resources/images/pieces/p031_00a0d7ff.svg"
   inkscape:export-xdpi="96"
   inkscape:export-ydpi="96"
   xmlns:inkscape="http://www.inkscape.org/namespaces/inkscape"
   xmlns:sodipodi="http://sodipodi.sourceforge.net/DTD/sodipodi-0.dtd"
   xmlns="http://www.w3.org/2000/svg"
   xmlns:svg="http://www.w3.org/2000/svg"><defs
     id="defs1" /><sodipodi:namedview
     id="namedview1"
     pagecolor="#ffffff"
     bordercolor="#000000"
     borderopacity="0.25"
     inkscape:showpageshadow="2"
     inkscape:pageopacity="0.0"
     inkscape:pagecheckerboard="0"
     inkscape:deskcolor="#d1d1d1"
     showgrid="false"
     inkscape:zoom="0.49434478"
     inkscape:cx="2138.1838"
     inkscape:cy="1456.4734"
     inkscape:window-width="1472"
     inkscape:window-height="844"
     inkscape:window-x="0"
     inkscape:window-y="33"
     inkscape:window-maximized="0"
     inkscape:current-layer="layer-MC0"><inkscape:page
       x="0"
       y="0"
       width="172.52271"
       height="175.797"
       id="page2"
       margin="0"
       bleed="0" /></sodipodi:namedview><g
     id="layer-MC0"
     inkscape:groupmode="layer"
     inkscape:label="Livello 1"
     transform="translate(-923.06586,-1114.3246)"><g
       id="g973"
       transform="translate(1551.7544,-5181.6802)"><g
         id="g1004"
         transform="matrix(0.54010305,0,0,0.54010305,-278.64142,2868.9264)"><path
           style="fill:#f14be6;fill-opacity:1"
           d="m -509.9567,6668.626 c -4.90842,-2.4296 -10.38829,-8.3834 -13.69986,-14.8848 -3.10581,-6.0974 -8.21831,-22.3457 -9.48255,-30.1369 -1.34606,-8.2956 -1.32929,-21.4511 0.0354,-27.8147 0.59568,-2.7776 0.93318,-5.4795 0.75,-6.0044 -0.18318,-0.5248 -2.13305,0.6194 -4.33305,2.5428 -6.23924,5.4547 -14.21104,10.4778 -21.92909,13.8177 -6.45822,2.7946 -8.02636,3.0613 -18.0976,3.0776 -9.84828,0.016 -11.55096,-0.2519 -15.93235,-2.5066 -3.59163,-1.8483 -5.55091,-3.7234 -7.31461,-7 -2.1531,-4.0001 -2.35831,-5.3783 -1.93206,-12.9755 1.01313,-18.0574 13.4511,-39.4377 30.06572,-51.6816 3.22301,-2.3751 5.47301,-4.3126 5,-4.3056 -0.473,0.01 -4.24382,1.0936 -8.3796,2.4147 -29.95444,9.5683 -62.968,3.6239 -70.9025,-12.7666 -5.4768,-11.3135 0.4733,-22.8123 15.42484,-29.809 10.85926,-5.0816 22.59984,-6.9837 43.54241,-7.0542 10.19983,-0.034 19.53733,0.2524 20.75,0.6373 1.21266,0.3849 2.20484,0.2819 2.20484,-0.229 0,-0.5108 -3.4875,-2.3786 -7.75,-4.1506 -10.03847,-4.1733 -19.40249,-10.2384 -25.92337,-16.7906 -13.97274,-14.0398 -18.17024,-27.0304 -12.08769,-37.4095 3.22128,-5.4967 7.86882,-8.4676 16.62751,-10.6291 11.2981,-2.7881 26.92923,0.691 43.13355,9.6004 4.675,2.5704 8.82151,4.8181 9.21447,4.9949 0.39296,0.1768 -1.69784,-4.7732 -4.6462,-11 -9.91304,-20.9359 -13.20689,-34.8431 -11.10708,-46.8962 2.26613,-13.0078 6.39168,-19.6494 15.03881,-24.2104 5.95416,-3.1406 16.97575,-2.9341 25.24114,0.4729 6.9952,2.8834 14.94649,8.9694 20.60345,15.7702 6.13423,7.3745 13.34799,23.1689 15.7838,34.5582 1.17435,5.4911 2.33386,10.6588 2.57667,11.4838 0.24282,0.825 3.22102,-3.9229 6.61822,-10.551 9.54121,-18.6152 17.18334,-27.597 28.91228,-33.9807 34.06437,-18.5401 60.60312,18.6447 40.88777,57.29 -1.16783,2.2891 -2.12333,4.5605 -2.12333,5.0476 0,0.4871 3.23035,0.2748 7.17855,-0.4718 16.08316,-3.0411 31.65307,4.4476 34.94253,16.8063 1.05331,3.9574 0.97664,5.5952 -0.5209,11.1276 -2.1457,7.9269 -8.50192,17.9239 -13.86747,21.8107 -4.5201,3.2743 -4.44162,3.338 6.00212,4.8721 18.65666,2.7403 32.60655,10.9724 38.34226,22.6263 1.98774,4.0387 2.42291,6.4496 2.42291,13.4229 0,9.9142 -2.1127,14.7468 -8.79455,20.1165 -8.47954,6.8143 -26.40148,11.8835 -42.01382,11.8835 h -7.04639 l 8.0412,8.25 c 12.22457,12.542 17.08971,24.2366 16.01473,38.4954 -0.66774,8.857 -3.50166,14.4726 -9.38968,18.6064 -3.47048,2.4366 -5.46317,3.0225 -11.6241,3.4179 -14.2232,0.9128 -29.27362,-6.6318 -37.23815,-18.667 -1.49325,-2.2565 -2.76771,-4.1028 -2.83212,-4.103 -0.0644,-1e-4 -0.11712,5.2874 -0.11712,11.75 0,10.534 -0.25877,12.2677 -2.5,16.7489 -4.0659,8.1294 -11.72177,11.7305 -20.12718,9.4672 -5.59233,-1.5059 -13.63563,-9.6564 -17.43318,-17.6656 -1.6168,-3.4099 -3.21111,-6.2224 -3.5429,-6.25 -0.3318,-0.028 -0.8797,3.2123 -1.21757,7.1998 -0.85554,10.097 -4.90838,25.3625 -8.85596,33.357 -5.82748,11.8016 -16.20569,20.3181 -24.82321,20.3703 -1.925,0.012 -5.42149,-0.93 -7.76999,-2.0925 z"
           id="path974"
           sodipodi:nodetypes="sssssssssssscsssssssssssssssssssssssssssssssscssssssssssssssss" /><path
           id="path986"
           style="fill:#f1c54b;fill-opacity:1;stroke:none;stroke-width:2.13543;stroke-linecap:round;stroke-linejoin:round;stroke-dasharray:none;stroke-opacity:1;paint-order:stroke fill markers"
           d="m -473.64679,6463.7501 c -2.16321,-0.082 -4.17123,0.2034 -5.93164,0.5429 -4.88336,0.9418 -9.04393,6.8247 -10.48047,10.9922 -12.38166,-4.3406 -24.10929,-0.7686 -29.49023,8.5 -7.68749,13.2417 -2.52474,50.3589 14.60742,51.4043 0,0 -0.0365,0.5813 0.35156,1.3262 0.388,0.745 6.70508,5.5871 6.70508,5.7578 v 0 0 c 0.0804,0.1893 3.51481,1.2383 4.09766,1.2383 0.5529,0 0.65533,-0.2467 0.66601,-0.2773 v 0 c 0,0 0.17041,-0.7099 1.01953,-1.041 0.73068,0.816 1.43454,1.3451 2.09766,1.5215 7.35117,1.9558 23.69528,-3.98 32.60351,-10.2324 8.90825,-6.2523 13.83142,-30.1061 4.85547,-50.5762 -6.73196,-15.3526 -14.61192,-18.9116 -21.10156,-19.1582 z" /><path
           style="fill:#bb662e;fill-opacity:1"
           d="m -496.79817,6497.3115 c -0.99566,-2.5946 0.39989,-4.7391 2.85699,-4.3902 1.65274,0.2347 2.25447,0.9874 2.25447,2.8201 0,1.8327 -0.60173,2.5855 -2.25447,2.8201 -1.35228,0.1921 -2.49558,-0.3082 -2.85699,-1.25 z"
           id="path1003" /><path
           style="fill:#bb662e;fill-opacity:1"
           d="m -520.82997,6497.2285 c -0.74395,-1.9387 1.35651,-4.4873 3.69832,-4.4873 1.90564,0 3.51246,3.2727 2.45047,4.9911 -0.96527,1.5618 -5.49866,1.1904 -6.14879,-0.5038 z"
           id="path1002" /><path
           style="fill:#bb662e;fill-opacity:1"
           d="m -477.52004,6500.0745 c -1.32862,-1.3286 -0.62275,-4.2864 1.26389,-5.2961 1.45694,-0.7798 2.31508,-0.6487 3.49801,0.5342 1.18294,1.183 1.314,2.0411 0.53427,3.4981 -1.0097,1.8866 -3.96755,2.5925 -5.29617,1.2638 z"
           id="path1001" /><path
           style="fill:#bb662e;fill-opacity:1"
           d="m -503.94839,6512.5795 c -1.86323,-1.8632 -1.4891,-4.5394 0.71521,-5.1159 2.62475,-0.6864 5.35087,1.4543 4.895,3.8437 -0.43392,2.2744 -3.83642,3.046 -5.61021,1.2722 z"
           id="path1000" /><path
           style="fill:#bb662e;fill-opacity:1"
           d="m -489.52004,6517.0745 c -1.17532,-1.1753 -0.71282,-4.1016 0.73613,-4.6576 2.08164,-0.7988 5.0371,1.7356 4.29107,3.6797 -0.62851,1.6379 -3.75842,2.2467 -5.0272,0.9779 z"
           id="path999" /><path
           style="fill:#bb662e;fill-opacity:1"
           d="m -516.64091,6518 c -0.97974,-2.5532 2.99942,-5.5726 5.54706,-4.2091 2.2085,1.182 2.26051,1.4215 0.87196,4.0161 -1.29301,2.416 -5.51723,2.543 -6.41902,0.193 z"
           id="path998" /><path
           style="fill:#bb662e;fill-opacity:1"
           d="m -499.98671,6526.5412 c -1.46189,-1.4619 -1.56962,-4.4535 -0.19105,-5.3055 1.50488,-0.9301 4.7207,0.3586 5.41593,2.1703 1.22028,3.18 -2.77979,5.5803 -5.22488,3.1352 z"
           id="path997" /><path
           style="fill:#bb662e;fill-opacity:1"
           d="m -484.49517,6536.0406 c -1.18386,-0.3067 -1.70193,-1.2164 -1.5,-2.634 0.22931,-1.6097 1.10967,-2.2434 3.43082,-2.4692 3.65871,-0.3561 5.12564,1.913 2.76373,4.2749 -1.58434,1.5843 -1.69889,1.6045 -4.69455,0.8283 z"
           id="path996" /><path
           style="fill:#630070;fill-opacity:1"
           d="m -508.43168,6661.7568 c -8.47739,-7.4621 -14.01457,-18.8373 -18.0183,-37.0154 -1.6507,-7.4946 -2.10766,-13.1411 -2.16458,-26.7468 -0.0397,-9.4856 -0.22424,-17.2481 -0.41014,-17.25 -0.18589,0 -3.87485,2.8265 -8.19769,6.2851 -8.98128,7.186 -25.57255,15.895 -34.60866,18.1668 -11.47111,2.8839 -21.48065,1.5736 -26.52685,-3.4726 -2.3773,-2.3773 -2.82881,-3.656 -2.82881,-8.0114 0,-10.25 4.49332,-22.66 12.48805,-34.4907 5.76733,-8.5346 20.83189,-24.0716 29.16843,-30.0831 10.94737,-7.8944 30.27259,-15.5131 34.87222,-13.7481 0.82387,0.3161 0.71824,-1.599 -0.36693,-6.6532 l -1.52381,-7.0971 -9.06898,-4.5517 c -14.52218,-7.2886 -23.80083,-9.4278 -41.06898,-9.4683 -23.44059,-0.055 -47.00813,7.3358 -53.11556,16.6569 -5.90483,9.0119 -1.71088,15.8791 13.04959,21.3673 8.48652,3.1554 26.0924,4.6756 37.38218,3.2277 4.85058,-0.622 9.91377,-1.1025 11.25152,-1.0676 2.32863,0.061 2.3426,0.1 0.32789,0.9139 -1.15741,0.4678 -6.73844,1.6254 -12.40229,2.5725 -20.73773,3.4676 -39.33065,0.1868 -49.45697,-8.7267 -13.9042,-12.239 -2.34879,-28.2422 25.96364,-35.9573 6.25378,-1.7042 11.38331,-2.2453 23.5,-2.479 8.525,-0.1645 17.3,0.097 19.5,0.5816 4.58888,1.0104 5.29503,1.6776 -8.26494,-7.8083 -17.06109,-11.9351 -29.76428,-25.5353 -34.84293,-37.3033 -4.35681,-10.0954 -2.61201,-16.1915 5.86354,-20.4863 7.97879,-4.0432 19.37534,-4.2068 30.94327,-0.4442 9.18647,2.988 20.46953,8.4196 27.55106,13.263 2.3375,1.5987 4.25,2.7064 4.25,2.4614 0,-0.245 -1.40073,-3.2686 -3.11274,-6.7192 -4.3622,-8.7921 -6.48323,-15.3685 -9.37701,-29.0742 -3.49244,-16.541 -3.058,-27.1485 1.47042,-35.9034 1.65072,-3.1914 5.09621,-6.9539 6.36796,-6.9539 0.55,0 0.002,1.0621 -1.21725,2.3602 -3.41436,3.6344 -6.13138,11.9038 -6.13138,18.6611 0,3.2999 0.91368,10.1576 2.0304,15.2393 5.38142,24.4884 13.56162,41.608 28.545,59.7394 7.71531,9.3363 10.69657,17 6.61316,17 -2.54079,0 -5.36012,-2.8819 -11.77477,-12.0363 -9.74014,-13.9003 -24.65936,-24.6423 -44.45155,-32.0058 -12.02049,-4.4721 -25.38661,-4.4187 -32.86837,0.1312 -3.11078,1.8918 -3.30321,2.3135 -2.79271,6.1195 1.15663,8.6234 18.42026,28.2523 35.30728,40.1447 10.44404,7.355 39.24984,25.6467 40.38856,25.6467 0.55165,0 1.003,-1.2442 1.003,-2.7648 0,-5.3354 7.38148,-16.2491 13.87938,-20.5209 7.55598,-4.9675 16.81565,-6.5534 22.01542,-3.7706 2.85014,1.5254 3.76582,-2.0058 1.44043,-5.5548 -3.94246,-6.017 -2.147,-21.3928 4.28159,-36.6664 2.41419,-5.7359 2.48371,-6.3967 1.3295,-12.6374 -4.44452,-24.0312 -17.45567,-47.3337 -32.04313,-57.388 -5.09615,-3.5125 -6.06684,-3.8081 -12.71035,-3.8706 -3.95606,-0.037 -7.19284,-0.2012 -7.19284,-0.3642 0,-1.0901 10.17137,-2.213 13.41614,-1.4812 8.94527,2.0175 22.93881,15.4725 30.18036,29.0189 4.19128,7.8404 9.98272,22.9883 10.89631,28.5 1.15283,6.955 1.40358,6.9718 5.63727,0.3778 11.81875,-18.408 28.54729,-34.7246 41.53731,-40.5145 7.9931,-3.5626 16.75089,-4.1728 21.04259,-1.4659 5.33393,3.3641 8.3459,8.9919 9.41311,17.588 0.87402,7.04 0.67452,9.7561 -1.55717,21.1999 -0.79393,4.0712 -5.65056,16.7854 -8.5703,22.4363 l -2.90459,5.6216 13.20449,-0.4992 c 20.36592,-0.77 29.0476,1.8814 33.07605,10.1013 1.62946,3.3248 1.72833,4.5321 0.76428,9.3325 -1.23312,6.1401 -5.97572,14.5866 -12.09118,21.5341 l -4.04003,4.5897 5.24768,1.2217 c 28.74973,6.6929 47.45496,24.6128 40.94828,39.2291 -5.69893,12.8018 -27.70317,22.6706 -50.67171,22.726 l -8.97111,0.022 6.09684,6.25 c 12.08803,12.3917 23.79202,32.2821 25.00071,42.4876 0.48258,4.0746 0.15619,6.0203 -1.62829,9.7066 -2.97127,6.1378 -6.57908,7.9999 -15.52704,8.0142 -6.27417,0.01 -7.98504,-0.4633 -16.5,-4.5642 -8.95878,-4.3147 -18.74313,-11.2834 -23.7184,-16.893 l -2.21839,-2.5012 -0.0435,8.5 c -0.0469,9.1797 -1.52828,16.1806 -4.76081,22.5 -4.41632,8.6336 -13.26796,12.6429 -20.05859,9.0853 -4.15594,-2.1772 -11.81605,-11.0884 -15.31683,-17.8184 -1.38881,-2.6699 -1.50905,-2.4386 -5.19782,10 -7.75463,26.1487 -21.94638,48.2331 -30.99524,48.2331 -0.77488,0 -3.44582,-1.793 -5.93542,-3.9844 z m 11.74382,-4.1487 c 7.5846,-6.6594 18.36478,-29.6618 23.01448,-49.1077 l 2.58973,-10.8307 -3.05239,-7.7143 c -5.03218,-12.7176 -7.05067,-22.3752 -7.05067,-33.7342 v -10.2002 l -5.25,-0.5498 c -4.60523,-0.4823 -9.43517,-1.8309 -14.86346,-4.1499 -1.28968,-0.551 -1.74778,0.1507 -2.28281,3.4966 -1.17893,7.3726 -5.44573,14.6235 -13.79668,23.4457 l -8.02828,8.4813 -1.08886,11.0209 c -1.90048,19.2356 1.84196,43.2245 8.92352,57.1992 3.10952,6.1364 12.45018,15.7762 15.28656,15.7762 1.11673,0 3.63622,-1.4099 5.59886,-3.1331 z m 56.36737,-36.6131 c 7.86185,-3.7181 11.5771,-13.7469 10.96921,-29.6098 l -0.35041,-9.144 -6.58676,-8.5 c -7.05849,-9.1087 -15.64351,-23.1058 -19.44741,-31.7071 -2.42718,-5.4882 -3.4279,-6.2304 -5.32265,-3.9474 -0.61418,0.7401 -2.83218,2.1191 -4.92888,3.0646 l -3.81219,1.7191 1.8871,7.1854 c 2.24683,8.5551 3.42317,35.0746 1.95378,44.0459 -0.90285,5.5123 -0.78181,6.1955 2.03758,11.5 6.72404,12.6509 12.84571,18.7161 17.73441,17.5709 1.375,-0.3221 4.0148,-1.302 5.86622,-2.1776 z m -127.36622,-19.712 c 12.24573,-4.3205 23.82584,-11.3628 33.40628,-20.3155 6.05595,-5.6592 6.15687,-5.8434 8.61562,-15.7263 1.42211,-5.7161 4.42201,-13.8555 7.00278,-19 5.38615,-10.7367 6.44368,-12.2138 9.01334,-12.5887 2.54968,-0.3721 11.19789,4.9708 11.80523,7.2933 0.45921,1.756 3.65223,2.4666 5.005,1.1138 0.37487,-0.3748 3.10145,-0.5695 6.05907,-0.4325 14.29221,0.6621 27.51372,-7.1898 33.48519,-19.8859 2.2361,-4.7542 2.57848,-6.7881 2.52504,-15 -0.10694,-16.4335 -6.81276,-32.1238 -16.30098,-38.141 -5.04729,-3.2009 -9.37142,-3.615 -14.66274,-1.4041 -4.17292,1.7435 -5.0117,3.506 -3.59821,7.5608 0.58299,1.6724 0.80583,3.703 0.4952,4.5125 -0.73336,1.9111 -3.7593,1.8895 -5.3592,-0.038 -0.68929,-0.8305 -3.57905,-2.1862 -6.42167,-3.0126 -4.51973,-1.3139 -5.76404,-1.3232 -9.91426,-0.074 -6.23711,1.8771 -11.15333,5.7332 -13.90292,10.9048 -1.80066,3.3869 -2.22921,5.8248 -2.23105,12.6921 -0.003,10.1069 1.92622,16.4528 7.35816,24.2071 2.31254,3.3013 3.55594,6.0505 3.19801,7.0709 -0.44887,1.2796 -1.51183,0.3912 -4.55153,-3.8042 -4.18063,-5.7702 -4.55359,-6.0466 -6.08828,-4.5119 -0.52906,0.5291 -6.13156,2.7899 -12.45,5.0241 -20.03805,7.0853 -29.33858,12.2744 -38.66434,21.572 -9.08691,9.0596 -15.64515,18.5315 -21.3145,30.7841 -6.21459,13.431 -6.17752,18.7959 0.15222,22.026 4.35101,2.2203 20.04808,1.7459 27.33854,-0.8263 z m 190.81574,1.2949 c 3.55368,-1.8927 4.62018,-4.044 4.62872,-9.3367 0.0158,-9.7958 -10.53717,-28.6547 -23.9832,-42.8595 l -7.75395,-8.1915 -9.89782,-2.2321 c -10.56412,-2.3824 -22.58531,-7.5626 -25.72002,-11.0834 -2.96276,-3.3275 -1.45026,-3.3555 3.45439,-0.064 2.45088,1.6448 6.37971,3.8567 8.73074,4.9152 5.11547,2.3031 19.21501,6.3589 19.86086,5.7131 1.54455,-1.5446 -17.27037,-13.2253 -28.5539,-17.727 -8.99293,-3.5878 -9.57891,-5.2783 -0.83601,-2.4118 8.20751,2.6909 21.50718,9.7105 30.02066,15.8449 7.39526,5.3287 8.05645,5.596 13.84292,5.596 6.8222,0 23.56083,-3.1635 31.4964,-5.9526 11.58321,-4.0712 20.39761,-12.9101 20.39074,-20.4474 -0.01,-10.8804 -14.66811,-22.6038 -35.1097,-28.0802 -5.16261,-1.3831 -10.38503,-2.5159 -11.60538,-2.5173 -1.22035,0 -5.47116,2.1014 -9.44625,4.6729 -13.75471,8.8979 -29.5634,14.3246 -41.72928,14.3246 h -7.10566 v 5.3185 c 0,2.9252 -0.68671,7.6309 -1.52604,10.4572 l -1.52604,5.1388 3.59771,4.7132 c 4.23129,5.5433 8.14673,13.1582 11.76046,22.8723 3.01579,8.1067 6.69391,21.8814 6.69391,25.0689 0,2.1891 11.93513,13.3049 20.62769,19.2117 9.57758,6.5081 24.19421,9.9821 29.68805,7.0561 z m -94.76655,-41.7053 c -2.3218,-13.2163 -3.33307,-16.1314 -5.59619,-16.1314 -1.78326,0 -1.953,0.7345 -1.953,8.4508 0,9.7995 0.95309,15.088 5.32538,29.5492 l 3.17462,10.5 0.28276,-11.8686 c 0.17656,-7.4105 -0.28679,-15.1106 -1.23357,-20.5 z m 37.81562,3.8081 c -1.42426,-4.6417 -4.13161,-11.5895 -6.01634,-15.4395 -3.72721,-7.6137 -11.38777,-19.5 -12.56747,-19.5 -0.40419,0 -1.47098,1.1234 -2.37064,2.4965 -1.56624,2.3904 -1.4855,2.8128 1.89968,9.9411 1.94448,4.0945 5.44692,10.2836 7.78319,13.7535 5.20957,7.7374 13.10353,17.9455 13.5399,17.5091 0.17669,-0.1767 -0.84406,-4.119 -2.26832,-8.7607 z m -83.17568,-2.3354 c 5.93674,-7.5753 8.64106,-13.0287 8.97768,-18.1041 0.3782,-5.7024 -0.1447,-8.5 -1.58874,-8.5 -1.68274,0 -7.35507,11.6103 -10.50408,21.5 -1.22589,3.85 -2.62062,8.2375 -3.09942,9.75 -0.47879,1.5125 -0.55644,2.7193 -0.17255,2.6817 0.38389,-0.038 3.25809,-3.335 6.38711,-7.3276 z m 83.97291,-66.0131 c 11.24814,-2.1598 32.83796,-11.1475 32.83796,-13.6703 0,-1.2332 -21.46438,-0.043 -29.94588,1.6599 -6.6794,1.3413 -16.38989,4.0341 -18.19926,5.0468 -0.35482,0.1986 -0.18759,2.1636 0.37164,4.3668 0.92819,3.6568 1.30347,4.0058 4.30717,4.0058 1.80972,0 6.59248,-0.634 10.62837,-1.409 z m -8.89175,-13.7225 c 7.45011,-2.9295 20.97229,-4.7082 35.94823,-4.7286 13.0315,-0.018 13.94579,-0.1519 18.25684,-2.6783 8.89526,-5.213 17.52464,-18.0497 17.52464,-26.069 0,-3.4651 -0.53916,-4.6685 -3.03105,-6.7653 -6.11233,-5.1431 -12.04918,-5.61 -33.12682,-2.6048 -12.05927,1.7194 -14.41058,2.3441 -15.68808,4.168 -3.32083,4.7411 -14.16566,16.581 -17.55645,19.1673 -1.98483,1.5139 -6.64376,4.151 -10.35319,5.8602 -3.70942,1.7092 -6.906,3.2335 -7.1035,3.3872 -0.1975,0.1538 0.60206,1.6295 1.77679,3.2792 1.17474,1.6498 2.82137,4.6402 3.65918,6.6454 1.17361,2.8088 1.91355,3.4815 3.22321,2.9301 0.93495,-0.3936 3.84654,-1.5597 6.4702,-2.5914 z m -2.85019,-20.2755 c 6.34954,-3.7316 11.73887,-8.3002 15.81928,-13.4101 2.05665,-2.5756 3.74415,-4.9763 3.75,-5.335 0.0157,-0.9639 -7.96786,1.6103 -14.33256,4.6213 -7.09234,3.3552 -14.07964,9.13 -17.76118,14.6791 -1.58789,2.3935 -2.889,4.665 -2.89136,5.0478 -0.006,1.0463 10.76002,-2.867 15.41582,-5.6031 z m -17.58602,-2.8557 c 1.83374,-2.8805 5.43374,-6.9494 8,-9.0419 6.01769,-4.9068 18.86167,-11.1349 27.27409,-13.2252 l 6.60816,-1.6421 5.57929,-9.664 c 12.84714,-22.2529 15.20071,-44.5139 5.70973,-54.0049 -10.102,-10.102 -32.41317,1.0347 -52.5989,26.2549 -3.5595,4.4472 -8.36961,11.2359 -10.68913,15.0859 l -4.21732,7 -0.66413,18.5 c -0.36527,10.175 -0.96984,19.6832 -1.34348,21.1292 -0.6082,2.3538 -0.43391,2.5829 1.66413,2.1874 1.28892,-0.2431 4.14348,0.2089 6.34348,1.0042 2.2,0.7953 4.225,1.4928 4.5,1.5499 0.275,0.057 2.00034,-2.2529 3.83408,-5.1334 z m -17.77934,-4.5009 c 1.03081,-4.9654 0.71039,-23.8046 -0.42417,-24.9392 -0.21296,-0.2129 -1.42512,3.3456 -2.69369,7.9078 -2.29959,8.2702 -3.12077,19.623 -1.67504,23.1576 1.25123,3.0592 3.47649,0.2149 4.7929,-6.1262 z"
           id="path973" /></g></g></g><pattern
     id="b-2"
     width="41"
     height="41"
     patternUnits="userSpaceOnUse"><circle
       fill="#ffffff"
       cx="20.5"
       cy="20.5"
       r="20.5"
       id="circle2" /></pattern></svg>
