<?xml version="1.0" encoding="UTF-8" standalone="no"?>
<!-- Created with Inkscape (http://www.inkscape.org/) -->

<svg
   version="1.1"
   id="svg1"
   width="132.87061"
   height="172.06055"
   viewBox="0 0 132.87061 172.06055"
   sodipodi:docname="Linotte app main inkscape.ai"
   inkscape:version="1.4.2 (ebf0e940, 2025-05-08)"
   xml:space="preserve"
   inkscape:export-batch-path="/Users/giannipie/Documents/Repositories/linotte-web/resources/images/dice"
   inkscape:export-batch-name="rere"
   inkscape:export-filename="/Users/giannipie/Documents/Repositories/linotte-web/resources/images/volume.svg"
   inkscape:export-xdpi="96"
   inkscape:export-ydpi="96"
   xmlns:inkscape="http://www.inkscape.org/namespaces/inkscape"
   xmlns:sodipodi="http://sodipodi.sourceforge.net/DTD/sodipodi-0.dtd"
   xmlns="http://www.w3.org/2000/svg"
   xmlns:svg="http://www.w3.org/2000/svg"><defs
     id="defs1" /><sodipodi:namedview
     id="namedview1"
     pagecolor="#ffffff"
     bordercolor="#000000"
     borderopacity="0.25"
     inkscape:showpageshadow="2"
     inkscape:pageopacity="0.0"
     inkscape:pagecheckerboard="0"
     inkscape:deskcolor="#d1d1d1"
     showgrid="false"
     inkscape:zoom="0.03871024"
     inkscape:cx="7000.7317"
     inkscape:cy="6380.7407"
     inkscape:window-width="1472"
     inkscape:window-height="850"
     inkscape:window-x="0"
     inkscape:window-y="33"
     inkscape:window-maximized="0"
     inkscape:current-layer="g94-4-3"><inkscape:page
       x="0"
       y="0"
       width="132.87061"
       height="172.06055"
       id="page2"
       margin="0"
       bleed="0" /></sodipodi:namedview><g
     id="layer-MC0"
     inkscape:groupmode="layer"
     inkscape:label="Livello 1"
     transform="translate(-1332.9956,-1111.8447)"><g
       id="g132"
       transform="matrix(0.34572547,0,0,0.34572547,1042.209,-73.291589)"><g
         id="g133"
         transform="matrix(0.35160523,0,0,0.35160523,2343.6439,-1217.2434)"><g
           id="g160"><path
             style="fill:#fbf1cc;fill-opacity:1;stroke-width:0.4618;-inkscape-stroke:none;paint-order:markers stroke fill"
             d="m -4189.3721,13528.169 -4.8916,-63.383 25.5883,-84.215 51.1767,-91.016 64.7806,-55.064 45.6704,-9.393 44.0508,12.956 40.8118,25.264 40.4879,61.542 46.9659,114.986 69.3153,226.408 53.7679,146.728 -22.9971,-76.117 57.9786,-31.743 57.5493,-26.664 59.9241,-27.274 88.2578,33.051 90.4641,101.535 121.7858,102.299 44.0087,40.808 -197.6844,74.967 -4.0787,83.539 74.804,71.919 55.5697,130.026 -149.6387,184.506 -491.7654,-204.571 -294.5843,15.287 -17.245,-194.83 129.1149,-75.46 -75.4244,-310.105 z"
             id="path155" /><path
             style="fill:#faebaa"
             d="m -3286.291,14625.604 c -15.6274,-2.666 -35.3591,-13.232 -44.8485,-24.015 -2.9519,-3.355 -7.9669,-11.662 -11.1445,-18.46 -3.4398,-7.36 -7.0618,-11.568 -8.9513,-10.4 -1.7456,1.079 -2.3629,0.649 -1.3718,-0.954 1.6538,-2.676 -9.5892,-32.284 -17.284,-45.517 -2.9888,-5.14 -4.5225,-5.325 -18.7487,-2.261 -43.7406,9.42 -58.8138,10.747 -121.0688,10.662 -56.7613,-0.08 -68.9629,-0.934 -95.4515,-6.694 -34.7313,-7.552 -41.8472,-9.612 -73.7579,-21.352 -30.4345,-11.196 -75.2296,-33.943 -85.2785,-43.305 -3.0758,-2.866 -6.369,-5.21 -7.3182,-5.21 -0.9493,0 -9.7093,-5.422 -19.4668,-12.048 -34.5832,-23.485 -82.3476,-69.587 -117.1271,-113.052 -13.6846,-17.101 -25.8517,-31.094 -27.0381,-31.094 -1.1863,0 -2.6865,41.327 -3.3336,91.836 -1.1633,90.804 -1.2633,92.077 -8.892,113.224 -15.3282,42.49 -35.1047,68.151 -71.4107,92.659 -34.193,23.082 -74.489,30.309 -104.4032,18.723 -35.038,-13.571 -42.9539,-40.406 -23.1507,-78.483 16.8141,-32.33 26.3597,-58.28 26.2212,-71.282 l -0.096,-9.037 -5.6877,7.231 c -8.8583,11.262 -10.2311,12.633 -18.8285,18.801 -4.4349,3.182 -9.5754,7.28 -11.4234,9.106 -5.9482,5.879 -37.6508,20.736 -48.6513,22.8 -23.5435,4.417 -43.9757,-7.237 -51.2307,-29.22 -3.823,-11.583 -2.2529,-47.196 2.6253,-59.546 13.5151,-34.214 13.6991,-107.358 0.4064,-161.521 -1.3665,-5.568 -4.0124,-19.235 -5.8798,-30.371 -1.8674,-11.136 -5.8801,-33.079 -8.917,-48.762 -16.9255,-87.404 3.1246,-131.323 78.3599,-171.643 11.9315,-6.394 27.1035,-14.588 33.7157,-18.209 l 12.0221,-6.584 -5.0581,-11.901 c -21.0981,-49.64 -56.0463,-191.379 -63.5554,-257.76 -8.8541,-78.273 -9.7376,-99.635 -6.3118,-152.609 1.8765,-29.016 4.6247,-57.963 6.107,-64.327 1.4824,-6.363 2.7263,-16.272 2.7643,-22.019 0.074,-11.28 10.7188,-57.123 14.3642,-61.862 1.2235,-1.591 3.7622,-9.192 5.6414,-16.891 1.8792,-7.698 5.8863,-19.413 8.9047,-26.032 3.0185,-6.619 9.3533,-20.724 14.0775,-31.345 13.9601,-31.386 34.3009,-60.069 61.175,-86.264 30.8066,-30.029 28.6519,-28.448 54.2943,-39.842 17.8154,-7.917 24.4095,-9.33 43.5316,-9.33 12.3947,0 23.7723,1.144 25.2836,2.543 1.5114,1.399 7.9543,4.192 14.3178,6.208 17.5287,5.554 38.5789,20.15 57.8089,40.085 17.5849,18.229 47.7662,61.585 47.7662,68.617 0,2.12 2.3783,8.124 5.285,13.343 8.4016,15.084 40.8283,104.407 46.4964,128.08 4.342,18.134 25.9697,91.915 28.8277,98.344 1.4147,3.181 5.4533,16.198 8.9747,28.924 15.4448,55.82 36.6256,115.694 40.7497,115.192 12.6232,-1.537 61.7013,-25.725 80.6284,-39.737 35.0176,-25.924 54.8975,-34.379 84.2564,-35.835 21.3305,-1.057 27.6711,-0.182 45.6337,6.297 11.4737,4.139 25.0566,9.632 30.1844,12.207 8.9345,4.486 39.5782,24.115 42.5865,27.279 0.7955,0.836 7.3035,6.043 14.4624,11.57 17.8559,13.785 31.1307,27.592 75.2042,78.216 50.7694,58.316 68.7066,73.32 113.1864,94.674 60.1222,28.865 71.5967,72.709 30.3005,115.78 -31.1421,32.48 -53.3731,39.569 -123.6134,39.416 l -50.992,-0.112 -1.7956,17.179 c -3.6553,34.972 -3.2844,36.296 15.8504,56.562 18.5687,19.665 48.3272,57.616 54.6407,69.682 2.0809,3.978 4.5959,7.882 5.5888,8.678 4.1835,3.351 20.5802,38.131 29.9998,63.634 18.8263,50.971 24.8799,101.602 18.1956,152.187 -2.2882,17.317 -4.9706,33.565 -5.9608,36.107 -1.964,5.042 24.6613,28.234 53.8514,46.906 31.3441,20.051 42.027,39.862 39.2823,72.848 -4.2233,50.757 -53.913,88.091 -105.5249,79.286 z m -34.5443,-401.701 c -1.5772,-6.032 -9.5403,-14.187 -9.5403,-9.77 0,2.717 8.2562,15.46 10.0169,15.46 0.5563,0 0.3418,-2.561 -0.4766,-5.69 z m -669.3191,-16.727 -0.2961,-13.739 -2.4977,10.124 c -1.3737,5.568 -1.9321,11.75 -1.2409,13.739 2.5986,7.476 4.3208,3.154 4.0347,-10.124 z m -54.4452,-12.233 c 27.2099,-11.801 30.9129,-14.779 38.9551,-31.328 4.2043,-8.652 4.223,-10.232 0.194,-16.381 -6.523,-9.955 -17.5937,-11.098 -43.443,-4.484 -17.5273,4.484 -32.1885,5.854 -62.6746,5.854 -21.8875,0 -41.9024,0.808 -44.4776,1.796 -2.5752,0.989 -6.5194,5.35 -8.7648,9.692 -3.6397,7.038 -3.4736,9.118 1.5314,19.174 5.1641,10.374 7.5282,11.896 29.4987,18.986 36.4742,11.771 56.0916,11.043 89.1808,-3.309 z m 709.4946,2.2 c -0.8004,-1.295 -2.7539,-1.552 -4.3413,-0.571 -1.5873,0.981 -2.6448,0.03 -2.3499,-2.122 1.0486,-7.638 -0.2275,-10.984 -6.3722,-16.709 -3.4227,-3.189 -7.6529,-4.983 -9.4005,-3.988 -1.7477,0.996 -2.3076,0.84 -1.2444,-0.346 2.5563,-2.85 -3.1611,-19.018 -6.7255,-19.018 -1.5292,0 -1.8515,-1.503 -0.7164,-3.34 1.2318,-1.993 0.7982,-2.557 -1.0757,-1.399 -1.7267,1.067 -3.957,0.618 -4.9563,-0.999 -0.9992,-1.617 -3.1184,-2.94 -4.7093,-2.94 -1.5908,0 -2.1567,1.191 -1.2575,2.646 0.8993,1.455 0.363,3.082 -1.1916,3.615 -1.5546,0.534 2.7293,6.828 9.5198,13.986 6.7905,7.159 16.7505,19.22 22.1333,26.802 6.5472,9.222 10.5079,12.619 11.9649,10.262 1.1978,-1.938 1.523,-4.584 0.7226,-5.879 z m -29.7518,-32.872 c 0.1388,-3.369 0.8242,-4.055 1.7475,-1.747 0.8356,2.088 0.7328,4.582 -0.2283,5.544 -0.9612,0.961 -1.6448,-0.748 -1.5192,-3.797 z m -619.4652,16.873 c -0.2311,-10.083 -0.4129,-10.303 -2.5817,-3.119 -1.2832,4.25 -3.2006,9.131 -4.2608,10.847 -1.0637,1.721 0.094,3.119 2.5817,3.119 3.3267,0 4.4442,-2.845 4.2608,-10.847 z m -197.7232,-37.681 c -3.5329,-3.533 -4.2595,1.892 -2.2608,16.881 l 2.0985,15.738 0.8854,-15.505 c 0.4869,-8.528 0.1615,-16.229 -0.7231,-17.114 z m 202.6118,20.386 c -2.9402,-2.94 -5.3663,1.487 -2.9538,5.39 1.8223,2.949 2.5036,2.951 3.4834,0.01 0.6698,-2.01 0.4315,-4.441 -0.5296,-5.402 z m 599.8859,-26.666 c 0,-1.509 -3.254,-6.255 -7.2312,-10.546 l -7.2312,-7.803 v 10.546 c 0,9.321 0.8402,10.546 7.2312,10.546 3.9772,0 7.2312,-1.234 7.2312,-2.743 z m -574.155,-17.504 c -0.9832,-1.591 -3.9886,-2.873 -6.6788,-2.848 -4.2151,0.04 -4.2914,0.432 -0.5524,2.848 5.6646,3.661 9.4936,3.661 7.2312,0 z m 358.264,-18.078 c -1.0542,-6.761 -4.3236,-15.397 -7.2654,-19.191 -5.6954,-7.346 -7.0489,-6.418 -2.7381,1.875 1.4358,2.763 4.2474,10.555 6.2479,17.316 2.0006,6.761 4.0952,12.293 4.6548,12.293 0.5596,0 0.155,-5.532 -0.8992,-12.293 z m -442.8687,7.485 c -1.9886,-0.803 -5.2426,-0.803 -7.2312,0 -1.9885,0.802 -0.3615,1.459 3.6156,1.459 3.9772,0 5.6042,-0.657 3.6156,-1.459 z m 224.6484,1.097 c -0.6629,-0.45 -3.8084,-2.728 -6.9901,-5.062 -5.3511,-3.925 -5.4873,-3.864 -1.8152,0.819 2.1833,2.784 5.3289,5.062 6.9901,5.062 1.6612,0 2.478,-0.369 1.8152,-0.819 z m -153.7829,-24.315 c -2.784,-0.728 -7.3397,-0.728 -10.1237,0 -2.784,0.727 -0.5061,1.323 5.0619,1.323 5.568,0 7.8458,-0.596 5.0618,-1.323 z m -244.7678,-20.423 c 3.5979,-4.587 3.4956,-4.69 -1.092,-1.092 -4.8182,3.779 -6.3504,6.154 -3.9698,6.154 0.6007,0 2.8785,-2.278 5.0618,-5.062 z m 794.3174,-135.946 c -0.5422,-12.329 -0.9858,-2.242 -0.9858,22.417 0,24.658 0.4436,34.746 0.9858,22.416 0.5422,-12.329 0.5422,-32.504 0,-44.833 z m -337.6763,36.384 c 0,-1.864 2.1541,-5.768 4.787,-8.678 2.6328,-2.909 3.9852,-5.289 3.0051,-5.289 -2.54,0 -13.577,12.2 -13.577,15.008 0,1.29 1.3016,2.347 2.8924,2.347 1.5909,0 2.8925,-1.525 2.8925,-3.388 z m 176.8924,-22.645 c 9.3918,-4.772 20.7261,-8.677 25.1874,-8.677 7.6368,0 29.8587,-13.555 51.0112,-31.116 10.6651,-8.855 11.6325,-10.5 20.4202,-34.727 9.9438,-27.415 9.3832,-34.984 -3.3432,-45.139 -8.7861,-7.01 -12.3208,-8.083 -22.7636,-6.906 -7.1048,0.801 -17.7503,5.067 -25.0314,10.031 -6.968,4.751 -16.1617,9.488 -20.4306,10.528 -4.2688,1.04 -8.5096,4.248 -9.4239,7.129 -0.9144,2.881 -7.7243,9.711 -15.1332,15.179 -7.4089,5.467 -17.4247,12.852 -22.2574,16.411 -4.8328,3.559 -9.9859,8.766 -11.4515,11.57 -3.7853,7.244 -10.8416,12.33 -17.104,12.33 -5.8718,0 -22.541,15.056 -27.8119,25.119 -5.9896,11.436 -4.1565,18.243 5.4285,20.16 4.8057,0.962 9.4382,2.881 10.2944,4.267 0.8562,1.385 11.4064,2.519 23.4448,2.519 18.5972,0 24.4556,-1.305 38.9642,-8.678 z m -155.7085,-1.731 c -1.3905,-3.624 -6.7216,-5.879 -6.7216,-2.844 0,0.665 -0.7536,3.174 -1.6747,5.574 -1.245,3.244 -0.1831,3.974 4.1386,2.844 3.5007,-0.915 5.1944,-3.133 4.2577,-5.574 z m 50.3444,-26.048 c -0.9611,-0.962 -3.4559,-1.064 -5.5439,-0.229 -2.3074,0.924 -1.622,1.609 1.7476,1.748 3.0491,0.125 4.7575,-0.558 3.7963,-1.519 z m 41.278,-21.393 c 0,-1.59 -0.574,-2.892 -1.2756,-2.892 -0.7015,0 -2.0799,1.302 -3.0631,2.892 -0.9832,1.591 -0.4093,2.893 1.2755,2.893 1.6847,0 3.0632,-1.302 3.0632,-2.893 z m 20.2472,-19.099 c 0,-2.5 -10.5608,4.273 -14.7002,9.428 -2.9096,3.623 -1.3701,3.192 5.2997,-1.485 5.1703,-3.626 9.4005,-7.2 9.4005,-7.943 z m -66.5267,9.301 c 0,-0.616 -9.1195,-19.094 -20.2656,-41.06 -35.4103,-69.788 -62.6738,-145.975 -109.6307,-306.361 -32.2194,-110.049 -48.5741,-156.256 -72.0499,-203.564 -38.4549,-77.493 -98.7582,-111.721 -154.3375,-87.603 -15.2888,6.635 -53.4101,41.446 -66.9706,61.155 l -8.973,13.042 16.5333,-14.274 c 9.0933,-7.85 16.5483,-15.001 16.5665,-15.891 0.058,-2.837 21.8052,-12.156 26.1545,-11.208 2.3008,0.502 3.8763,-0.659 3.5012,-2.579 -0.8894,-4.555 15.7719,-7.716 41.1766,-7.812 16.7497,-0.06 23.495,1.469 39.0483,8.87 44.2575,21.06 75.719,63.675 108.2707,146.655 14.5631,37.124 34.3231,97.141 46.3541,140.791 4.1498,15.056 10.0693,35.184 13.1546,44.729 3.0853,9.545 8.3965,27.117 11.8025,39.049 14.3846,50.389 18.2776,63.274 25.204,83.419 4.0149,11.678 8.7939,22.741 10.62,24.586 1.826,1.845 7.5841,13.767 12.7956,26.494 5.2116,12.727 18.1502,41.031 28.7524,62.898 16.2749,33.566 20.2903,39.76 25.7849,39.771 3.5794,0 6.5081,-0.49 6.5081,-1.107 z m 265.219,-15.456 c -0.7333,-2.814 -1.3816,-1.212 -1.4405,3.561 -0.059,4.772 0.541,7.075 1.3334,5.117 0.7923,-1.959 0.8405,-5.863 0.1071,-8.678 z m -237.0777,-5.418 c -0.9612,-0.961 -3.4559,-1.064 -5.5439,-0.228 -2.3074,0.923 -1.6221,1.609 1.7475,1.747 3.0492,0.126 4.7575,-0.558 3.7964,-1.519 z m 220.519,-29.346 c -0.1285,-3.03 -7.3835,-12.293 -9.6274,-12.293 -3.1289,0 -2.0494,7.321 1.6204,10.991 3.8993,3.899 8.1464,4.59 8.007,1.302 z m 92.6509,-1.999 c 0,-0.702 -1.3016,-2.08 -2.8924,-3.063 -1.5909,-0.983 -2.8925,-0.409 -2.8925,1.275 0,1.685 1.3016,3.064 2.8925,3.064 1.5908,0 2.8924,-0.574 2.8924,-1.276 z m -118.5912,-6.126 c 0,-2.481 -1.3228,-3.692 -2.9396,-2.693 -1.6168,0.999 -2.1908,3.029 -1.2755,4.509 2.4795,4.012 4.2151,3.264 4.2151,-1.816 z m -247.2805,-70.51 c -2.069,-15.043 -7.2567,-20.345 -7.2567,-7.416 0,3.977 1.3016,7.231 2.8925,7.231 1.5908,0 2.8924,4.122 2.8924,9.159 0,5.038 0.7845,8.375 1.7432,7.417 0.9587,-0.959 0.8366,-8.335 -0.2714,-16.391 z m 264.6353,-15.75 c 0,-0.607 -4.881,-4.629 -10.8467,-8.939 l -10.8468,-7.835 9.4462,8.938 c 8.7899,8.318 12.2473,10.529 12.2473,7.836 z m -225.6125,-16.491 7.2312,-5.894 -8.6774,4.116 c -4.7726,2.263 -10.6298,4.842 -13.0161,5.73 -3.101,1.154 -2.6884,1.662 1.4462,1.779 3.1817,0.09 9.039,-2.489 13.0161,-5.731 z m 180.9241,-24.532 c -2.9149,-4.449 -6.0798,-6.387 -8.2262,-5.037 -2.4542,1.543 -1.9884,2.491 1.5714,3.196 2.7829,0.552 5.9318,4.477 6.9975,8.723 1.0657,4.247 2.4906,6.062 3.1664,4.035 0.6757,-2.028 -0.9033,-6.94 -3.5091,-10.917 z m -147.1311,3.981 c -0.9233,-2.307 -1.6087,-1.622 -1.7475,1.748 -0.1256,3.049 0.558,4.757 1.5192,3.796 0.9611,-0.961 1.0639,-3.456 0.2283,-5.544 z m 177.1162,5.391 c -0.6629,-0.515 -5.7609,-4.001 -11.3289,-7.745 l -10.1236,-6.808 7.0122,7.745 c 3.8568,4.259 8.9548,7.744 11.3289,7.744 2.3741,0 3.7742,-0.421 3.1114,-0.936 z m -25.8492,-17.935 c -2.0124,-2.424 -4.2545,-3.812 -4.9825,-3.084 -2.006,2.005 2.0696,7.493 5.5654,7.493 1.9179,0 1.6985,-1.66 -0.5829,-4.409 z m -116.9681,-4.076 c -2.3178,-3.75 -13.135,-4.132 -13.135,-0.463 0,1.442 2.6032,1.941 5.7849,1.109 3.5656,-0.933 5.785,-0.09 5.785,2.199 0,2.041 0.7811,2.931 1.7359,1.976 0.9547,-0.955 0.8779,-3.124 -0.1708,-4.821 z m 56.2842,-16.101 c 0,-3.238 -3.1191,-4.239 -12.2929,-3.945 -7.8739,0.253 -9.6935,0.861 -5.0619,1.691 3.9772,0.714 8.4677,2.489 9.9791,3.945 4.1027,3.953 7.3757,3.203 7.3757,-1.691 z m -281.5462,-123.653 c -0.8024,-1.989 -1.4589,-0.362 -1.4589,3.616 0,3.977 0.6565,5.604 1.4589,3.615 0.8024,-1.988 0.8024,-5.242 0,-7.231 z m -5.785,-17.355 c -0.8024,-1.988 -1.4589,-0.361 -1.4589,3.616 0,3.977 0.6565,5.604 1.4589,3.615 0.8024,-1.988 0.8024,-5.242 0,-7.231 z m -325.8745,-91.831 c 3.9508,-7.744 5.2651,-14.095 3.9781,-19.222 -1.7238,-6.869 -2.4703,-5.901 -7.2449,9.395 -2.9276,9.38 -5.3421,18.03 -5.3656,19.223 -0.097,4.945 3.0812,1.485 8.6324,-9.396 z m 200.3059,-149.436 c -1.9886,-0.803 -5.2426,-0.803 -7.2312,0 -1.9886,0.802 -0.3615,1.459 3.6156,1.459 3.9771,0 5.6042,-0.657 3.6156,-1.459 z"
             id="path142"
             sodipodi:nodetypes="ssssssssssssssssssssscssssssssssscssssssssssssssssssssssssssssssscsssssssssssssssscssssssssssssssssssssssssssssssssssssssssscssssssssscsssssssssssssssssssssssssssssssssssssssssssssssssssssssssssssssssssssssssssssssssscsssssssssssssscsssssssssssssssssssssssssssssscssscsssssssssssssssscsssssssssssssssssssssssssssssssssss" /><path
             style="fill:#efc986"
             d="m -3297.1726,14620.828 c -27.0873,-9.697 -32.1902,-15.408 -54.2739,-60.735 -18.0635,-37.076 -20.9859,-41.503 -26.377,-39.961 -26.2157,7.501 -97.3752,16.062 -133.4975,16.062 -54.3825,0 -117.6844,-11.947 -170.4895,-32.178 -80.2877,-30.759 -166.6637,-97.481 -229.6005,-177.357 l -24.9367,-31.648 -1.8783,90.944 c -1.9873,96.225 -3.3023,106.485 -17.8136,138.99 -20.9882,47.012 -70.0744,86.96 -117.7472,95.826 -42.1543,7.839 -86.9376,-17.738 -82.5743,-47.162 0.841,-5.671 7.9218,-23.893 15.7351,-40.494 15.7487,-33.462 20.5664,-48.322 20.5904,-63.511 l 0.016,-10.187 -17.0924,15.972 c -21.2196,19.829 -45.2253,34.515 -64.8237,39.657 -20.1903,5.298 -36.5757,-0.487 -47.305,-16.7 -11.1876,-16.905 -11.4129,-30.617 -1.214,-73.884 14.4747,-61.407 12.9744,-86.653 -13.0415,-219.455 -8.5904,-43.851 -10.4121,-84.424 -4.6755,-104.129 9.7078,-33.347 34.0239,-57.988 83.9656,-85.089 15.882,-8.618 31.5618,-17.73 34.844,-20.247 l 5.9676,-4.578 -8.8477,-24.586 c -15.2591,-42.402 -30.6098,-98.371 -45.6155,-166.317 -5.9931,-27.136 -14.5354,-91.793 -17.915,-135.599 -10.0085,-129.729 14.9439,-261.034 65.9664,-347.129 19.9517,-33.666 65.0498,-78.678 91.9139,-91.737 18.8644,-9.171 22.0947,-9.813 49.322,-9.813 28.0263,0 30.0026,0.428 51.9117,11.256 40.8548,20.192 73.8232,60.179 101.5407,123.159 17.0088,38.648 33.951,89.706 60.4944,182.31 12.0839,42.158 23.099,79.904 24.4779,83.881 1.379,3.978 9.295,28.057 17.5911,53.511 8.2961,25.454 15.373,46.628 15.7266,47.053 0.3535,0.425 9.6231,-3.257 20.5989,-8.182 10.9759,-4.926 26.4096,-11.782 34.2972,-15.236 7.8876,-3.454 20.4742,-11.109 27.9702,-17.011 33.8032,-26.616 59.6438,-36.995 92.1058,-36.995 56.0041,0 114.5493,36.389 179.2334,111.401 29.0894,33.735 69.5096,75.444 85.1358,87.851 9.751,7.742 29.4436,19.751 43.7614,26.687 32.1985,15.599 54.3498,35.835 59.1928,54.075 5.3352,20.094 -1.8804,39.667 -22.9114,62.149 -19.0127,20.325 -38.2469,31.206 -65.2061,36.888 -19.2172,4.051 -73.558,5.056 -94.3591,1.746 -12.3456,-1.964 -13.5061,-1.619 -15.146,4.503 -0.9768,3.646 -1.7937,17.462 -1.8155,30.702 l -0.039,24.072 20.3135,22.208 c 90.285,98.701 121.5965,199.948 99.5433,321.878 -1.8849,10.421 -1.8753,10.433 26.9171,32.122 15.8415,11.933 32.5765,23.954 37.189,26.714 13.0188,7.789 23.6874,23.794 27.2277,40.848 7.4128,35.707 -16.2121,78.527 -52.1048,94.438 -18.5066,8.205 -44.2692,9.453 -62.2485,3.017 z m -753.4276,-297.362 c 13.4169,-2.665 24.8797,-8.607 39.6025,-20.531 13.1796,-10.673 11.9374,-6.463 18.2249,-61.772 9.7628,-85.882 38.5587,-129.986 88.2142,-135.111 19.3951,-2.002 48.8384,6.807 74.5141,22.293 25.2446,15.225 32.5039,16.854 37.0723,8.318 3.3162,-6.196 2.1938,-7.938 -16.0119,-24.85 -11.8476,-11.006 -28.2392,-22.466 -41.5134,-29.024 -21.6867,-10.713 -22.3306,-10.836 -56.7853,-10.811 l -34.8498,0.02 -52.0644,17.839 c -79.9065,27.378 -82.4029,27.855 -133.0536,25.417 -23.8629,-1.149 -44.0378,-2.251 -44.8333,-2.45 -3.4204,-0.853 -17.1986,32.709 -18.901,46.04 -4.7093,36.878 23.7056,129.802 43.8839,143.511 19.5787,13.301 36.7451,20.059 56.8004,22.36 11.4946,1.319 22.8518,2.029 25.2381,1.577 2.3863,-0.451 8.8943,-1.725 14.4623,-2.83 z m 724.3564,-111.655 c -15.7135,-31.226 -61.0335,-95.025 -67.5017,-95.025 -1.0871,0 -1.2659,5.774 -0.3973,12.83 1.3212,10.733 4.4218,15.812 18.9812,31.094 9.5712,10.045 21.1855,23.471 25.8096,29.834 4.6242,6.364 10.4602,13.738 12.9689,16.388 2.5087,2.65 7.7343,10.107 11.6123,16.571 11.1435,18.574 10.2705,11.645 -1.473,-11.692 z m -89.3541,-241.702 c 3.241,-87.248 -3.2855,-117.44 -32.0302,-148.17 -16.6324,-17.782 -36.9263,-26.229 -62.9121,-26.188 -26.9917,0.04 -40.1468,7.963 -99.2909,59.784 -50.4626,44.214 -53.2176,46.161 -74.6321,52.731 -44.9482,13.791 -79.1718,43.542 -89.8904,78.142 -1.8218,5.88 -0.6498,5.278 7.2567,-3.727 16.2636,-18.523 32.2277,-25.889 59.1707,-27.303 19.7845,-1.039 25.4922,-0.268 35.3884,4.781 26.2422,13.388 44.8155,45.888 60.0943,105.154 13.6954,53.125 14.2297,54.366 23.4169,54.366 13.6732,0 58.6036,-16.954 107.3678,-40.513 26.3212,-12.717 48.7997,-23.121 49.9524,-23.121 1.1526,0 3.9232,21.802 6.1569,48.448 l 4.0612,48.449 1.8594,-62.188 c 1.0227,-34.203 2.8367,-88.494 4.031,-120.645 z m -816.1097,126.872 c 9.2116,-10.231 25.7171,-17.598 42.336,-18.896 10.61,-0.829 18.3426,-3.633 26.9322,-9.768 6.627,-4.732 17.9063,-11.542 25.0652,-15.133 7.1588,-3.59 13.4793,-6.94 14.0455,-7.443 1.8548,-1.648 -8.9827,-27.298 -11.5341,-27.298 -5.3751,0 -67.4972,35.12 -79.4571,44.92 -13.6764,11.207 -25.6829,29.375 -28.6141,43.3 -1.6181,7.686 -1.4304,8.017 1.6434,2.892 1.9085,-3.181 6.2209,-8.84 9.583,-12.574 z m 337.8249,-94.272 c 81.5986,-14.552 131.4026,-98.833 130.4216,-220.706 -0.093,-11.523 0.7335,-20.393 1.8361,-19.712 1.1026,0.682 6.3601,12.062 11.6834,25.29 5.3233,13.227 18.2749,40.971 28.7813,61.652 15.8963,31.291 20.0735,37.435 24.8875,36.604 3.1817,-0.549 6.3101,-1.508 6.9519,-2.131 0.6418,-0.623 -3.007,-8.634 -8.1084,-17.803 -38.1694,-68.599 -67.1964,-146.71 -115.8326,-311.702 -54.4514,-184.719 -76.9833,-237.822 -118.5233,-279.334 -44.1493,-44.12 -92.9044,-49.201 -136.4875,-14.223 -42.1797,33.852 -74.0005,83.713 -96.6633,151.466 l -10.5222,31.458 0.1375,84.241 c 0.2465,150.982 17.215,253.652 56.2265,340.204 14.5812,32.351 48.0661,82.999 50.3476,76.154 0.6109,-1.833 -3.4634,-12.415 -9.0539,-23.516 -12.8126,-25.442 -37.209,-97.542 -45.2085,-133.606 -14.3764,-64.813 -19.8032,-139.654 -14.5765,-201.027 3.6471,-42.823 14.3104,-102.139 21.8395,-121.483 4.4584,-11.455 4.4853,-11.311 2.7059,14.462 -4.9592,71.83 -5.4428,91.384 -3.6481,147.516 2.6527,82.967 11.2008,138.832 34.3391,224.419 10.7883,39.905 32.0159,105.136 37.6231,115.613 3.4007,6.354 37.8811,24.208 57.7601,29.908 14.9301,4.281 47.3886,9.358 63.6343,9.953 3.9772,0.146 17.2292,-1.518 29.4489,-3.697 z m 69.7162,-229.378 c -29.0388,-43.391 -49.145,-89.695 -64.1342,-147.696 -7.2474,-28.044 -15.0564,-73.647 -14.6956,-85.82 0.195,-6.582 6.7923,9.763 32.8056,81.277 33.2283,91.35 54.9166,148.188 61.1295,160.203 2.5686,4.967 4.2455,11.221 3.7265,13.899 -0.5989,3.088 -7.4806,-4.901 -18.8318,-21.863 z m 491.4807,66.502 c -17.227,-17.102 -41.82,-42.809 -54.651,-57.127 -26.757,-29.857 -63.5464,-66.282 -80.431,-79.634 -20.5236,-16.229 -48.6969,-31.218 -67.973,-36.162 -35.0459,-8.989 -62.8876,-0.957 -103.9542,29.987 -14.9228,11.245 -32.034,20.76 -50.42,28.037 -39.8077,15.755 -39.0772,14.063 -22.4848,52.098 21.2192,48.642 41.711,86.544 47.3531,87.586 2.7467,0.507 9.6396,-2.622 15.3177,-6.953 8.9816,-6.85 10.0782,-8.992 8.4348,-16.475 -3.8451,-17.507 -1.8946,-72.788 3.1916,-90.456 9.6818,-33.632 23.92,-55.174 44.4419,-67.238 11.0176,-6.477 16.7444,-7.811 33.5339,-7.811 24.5007,0 39.4157,6.54 60.9642,26.734 8.0766,7.568 23.0132,19.618 33.1924,26.777 17.7847,12.507 39.1886,32.932 97.9269,93.447 14.9671,15.42 28.1509,28.036 29.2974,28.036 1.1465,0 9.6499,4.556 18.8965,10.124 9.2466,5.568 17.2335,10.124 17.7487,10.124 0.5153,0 -13.158,-13.993 -30.3851,-31.094 z"
             id="path140" /><path
             style="fill:#efc67d"
             d="m -3287.7566,14622.798 c -15.3615,-3.738 -31.1806,-12.372 -40.2713,-21.981 -4.2767,-4.521 -15.676,-24.976 -25.3317,-45.456 l -17.5557,-37.236 -9.3779,1.971 c -80.0456,16.824 -157.8352,18.809 -223.4206,5.702 -119.4265,-23.866 -231.0091,-98.435 -316.7253,-211.661 l -15.9086,-21.014 -0.7193,32.592 c -0.3957,17.926 -1.9007,61.879 -3.3445,97.673 -2.3442,58.116 -3.3886,67.167 -9.7595,84.58 -10.6432,29.09 -24.3867,49.898 -46.5846,70.529 -48.3631,44.95 -105.9009,55.551 -143.5111,26.442 -18.4755,-14.299 -18.7244,-29.043 -1.1361,-67.298 16.2596,-35.366 24.2758,-59.424 24.2758,-72.856 v -10.151 l -21.9565,20.505 c -29.3699,27.428 -58.4383,42.157 -79.2525,40.157 -34.3259,-3.298 -45.2426,-33.314 -31.8486,-87.569 15.4023,-62.391 14.5499,-85.348 -7.3247,-197.27 -14.9616,-76.551 -16.6404,-107.732 -7.2673,-134.975 11.6518,-33.867 27.9868,-49.318 86.1847,-81.525 19.488,-10.784 35.4327,-20.569 35.4327,-21.743 0,-1.175 -4.4416,-14.953 -9.8702,-30.618 -28.3776,-81.886 -50.0655,-178.577 -59.4013,-264.827 -4.3917,-40.573 -3.7425,-142.352 1.1585,-181.637 10.4785,-83.992 35.7506,-158.753 71.8586,-212.575 6.4036,-9.546 22.5159,-28.166 35.8052,-41.379 18.6677,-18.561 29.2509,-26.454 46.5395,-34.71 20.8411,-9.952 24.1644,-10.672 48.4095,-10.49 43.4937,0.326 75.4926,17.761 108.678,59.213 38.0583,47.538 62.2346,108.32 110.9772,279.01 10.4486,36.59 26.3935,88.956 35.4331,116.368 l 16.4357,49.841 12.3866,-6.923 c 6.8126,-3.807 17.3083,-8.515 23.3237,-10.461 18.0954,-5.853 32.9146,-14.219 56.2994,-31.783 48.8207,-36.668 95.9697,-41.151 149.2841,-14.197 33.434,16.903 57.2822,36.466 99.6523,81.746 21.0844,22.532 53.9546,56.637 73.0449,75.789 29.6545,29.751 38.0797,36.449 57.8494,45.993 36.2576,17.503 52.761,29.217 62.2569,44.19 15.0845,23.786 10.2748,48.655 -14.9525,77.315 -15.541,17.655 -31.3159,26.482 -60.5366,33.871 -20.9975,5.31 -30.109,5.941 -69.4201,4.808 l -45.2503,-1.304 -1.7571,28.841 -1.757,28.841 14.5388,15.907 c 57.2998,62.695 92.4165,124.697 107.5492,189.889 7.3621,31.715 8.1202,101.553 1.4218,130.98 -2.2538,9.901 -3.3491,19.136 -2.4341,20.52 0.9149,1.385 15.3305,12.54 32.0345,24.788 47.82,35.064 49.4771,36.539 55.1993,49.14 6.72,14.798 7.122,39.523 0.9376,57.673 -6.144,18.032 -26.8104,40.482 -45.4272,49.349 -17.3649,8.27 -39.217,11.224 -54.8648,7.416 z m -766.1904,-32.818 c 13.508,-7.041 9.582,-8.819 -5.6927,-2.578 -8.0725,3.299 -20.1466,5.175 -33.3482,5.183 -11.3818,0 -19.1915,1.055 -17.3548,2.329 5.7654,3.998 46.0154,0.477 56.3957,-4.934 z m -12.5618,-13.291 c 12.7097,-5.884 12.3637,-7.607 -0.5348,-2.665 -4.4784,1.716 -18.5555,4.142 -31.2823,5.391 l -23.1398,2.271 21.6936,0.179 c 15.3282,0.127 25.0883,-1.392 33.2633,-5.176 z m 36.273,-0.544 c 4.7082,-3.481 8.5603,-7.386 8.5603,-8.677 0,-4.284 -10.795,-2.431 -14.8313,2.545 -2.6974,3.325 -2.8109,4.198 -0.3542,2.722 1.9886,-1.195 3.6156,-0.794 3.6156,0.891 0,1.685 -1.9524,3.063 -4.3387,3.063 -2.3863,0 -4.3387,1.302 -4.3387,2.892 0,4.244 2.1567,3.61 11.687,-3.436 z m -12.93,-7.805 c -0.8714,-1.41 1.2728,-3.31 4.7648,-4.224 3.4921,-0.913 5.5981,-2.411 4.68,-3.329 -0.9181,-0.918 -5.1284,-0.09 -9.3563,1.833 -5.5433,2.526 -6.6559,4.157 -3.9894,5.849 4.8157,3.056 5.848,3.022 3.9009,-0.129 z m 50.1769,-30.699 c 0.025,-1.591 -2.3527,-0.02 -5.284,3.492 -2.9313,3.512 -6.2505,5.464 -7.376,4.339 -1.1255,-1.126 -1.6125,-0.09 -1.0822,2.292 0.645,2.902 -1.1906,4.263 -5.5439,4.109 -7.3485,-0.259 -7.1631,-0.504 -4.6254,6.109 1.5831,4.125 3.6317,3.128 12.8742,-6.271 6.0454,-6.148 11.0121,-12.48 11.0373,-14.07 z m -116.3772,15.366 c -0.9234,-2.308 -1.6088,-1.622 -1.7476,1.747 -0.1256,3.05 0.5581,4.758 1.5192,3.797 0.9612,-0.961 1.0639,-3.456 0.2284,-5.544 z m 34.8428,1.687 c -0.9612,-0.961 -3.4559,-1.064 -5.5439,-0.228 -2.3074,0.923 -1.622,1.609 1.7475,1.747 3.0492,0.126 4.7575,-0.558 3.7964,-1.519 z m 60.079,-9.822 c 0.9832,-1.591 0.4092,-2.893 -1.2756,-2.893 -1.6847,0 -3.0631,1.302 -3.0631,2.893 0,1.591 0.574,2.892 1.2755,2.892 0.7015,0 2.08,-1.301 3.0632,-2.892 z m -54.9569,-2.893 c 1.0796,-1.747 -2.8625,-2.892 -9.953,-2.892 -6.4573,0 -11.7405,1.301 -11.7405,2.892 0,1.591 4.4788,2.893 9.9529,2.893 5.4741,0 10.7574,-1.302 11.7406,-2.893 z m 21.3862,-4.662 c 4.1461,0.847 5.9846,0.857 4.0854,0.02 -1.8992,-0.835 -2.7362,-3.387 -1.8599,-5.67 2.0883,-5.442 -0.6305,-5.24 -10.8725,0.81 -4.6203,2.73 -8.4005,6.727 -8.4005,8.884 0,2.963 1.1625,2.759 4.7545,-0.833 3.0458,-3.045 7.4636,-4.2 12.293,-3.213 z m -58.4587,-7.45 c -0.9233,-2.307 -1.6087,-1.622 -1.7475,1.748 -0.1256,3.049 0.558,4.757 1.5192,3.796 0.9611,-0.961 1.0639,-3.456 0.2283,-5.544 z m 7.8149,-19.525 c 2.5694,-7.856 4.6016,-16.642 4.516,-19.524 -0.1385,-4.67 -11.2667,26.29 -11.3717,31.637 -0.1114,5.674 2.6111,0.864 6.8557,-12.113 z m 105.7948,-3.589 c -0.097,-5.721 -0.7385,-5.274 -4.3387,3.018 -5.3108,12.233 -5.2938,13.443 0.1132,8.036 2.3863,-2.387 4.2877,-7.361 4.2255,-11.054 z m 17.4502,-3.43 c -0.01,-1.806 -1.9622,0.444 -4.3387,5 -2.3765,4.557 -4.3129,9.764 -4.3031,11.57 0.01,1.807 1.9622,-0.443 4.3387,-5 2.3765,-4.556 4.3129,-9.763 4.3031,-11.57 z m -41.837,1.849 c 5.0037,-11.976 13.044,-45.125 12.6891,-52.316 -0.1325,-2.685 -2.0625,2.928 -4.2888,12.473 -2.2264,9.545 -5.2829,19.472 -6.7923,22.06 -1.5095,2.589 -3.6292,9.422 -4.7105,15.186 -1.0813,5.764 -3.1228,10.48 -4.5366,10.48 -1.4138,0 -2.5705,1.378 -2.5705,3.063 0,5.743 5.8623,-0.542 10.2096,-10.946 z m 47.6397,-19.767 c 0,-3.883 -1.2139,-7.06 -2.6975,-7.06 -3.5376,0 -6.871,10.68 -4.5205,14.484 2.916,4.718 7.218,0.293 7.218,-7.424 z m -18.2428,-3.389 c -0.7334,-2.815 -1.3816,-1.212 -1.4406,3.56 -0.059,4.773 0.5411,7.075 1.3334,5.117 0.7923,-1.958 0.8406,-5.863 0.1072,-8.677 z m 5.7849,-37.602 c -0.7333,-2.815 -1.3816,-1.212 -1.4405,3.56 -0.059,4.773 0.5411,7.075 1.3334,5.117 0.7923,-1.958 0.8405,-5.863 0.1071,-8.677 z m -109.1874,-5.84 c -0.089,-2.784 -2.7397,-10.92 -5.8908,-18.078 -3.151,-7.159 -4.9629,-9.762 -4.0263,-5.785 0.9366,3.977 2.4572,12.112 3.3792,18.078 1.6716,10.816 6.8447,15.393 6.5379,5.785 z m 126.6902,-63.503 c -0.5435,-12.401 -0.9915,-3.024 -0.9956,20.839 0,23.863 0.4407,34.009 0.9882,22.548 0.5476,-11.461 0.5509,-30.985 0.01,-43.387 z m -34.2004,-21.102 c 0.4888,-75.626 8.1846,-142.155 20.6275,-178.321 15.6804,-45.576 41.7077,-67.859 79.3935,-67.971 15.8591,-0.05 20.801,1.713 57.34,20.425 31.5286,16.146 41.1101,19.874 45.3043,17.63 2.9255,-1.566 5.9206,-4.489 6.6559,-6.496 1.0696,-2.92 2.1024,-2.926 5.1692,-0.03 2.1079,1.989 7.1517,3.438 11.2084,3.222 6.8294,-0.365 6.8924,-0.487 0.8503,-1.65 -3.5891,-0.691 -16.0415,-10.601 -27.6721,-22.023 -26.7049,-26.225 -51.4503,-40.846 -79.8508,-47.18 -34.3325,-7.657 -57.673,-3.324 -141.9351,26.352 -41.7423,14.702 -68.8454,19.666 -94.7283,17.352 -11.5338,-1.032 -20.9704,-3.066 -20.9704,-4.521 0,-1.455 1.8756,-2.646 4.168,-2.646 2.2924,0 4.8268,-1.066 5.6321,-2.369 0.8053,-1.303 -2.3838,-1.804 -7.0869,-1.114 -4.7031,0.69 -10.4188,-0.295 -12.7015,-2.19 -3.3214,-2.756 -4.8995,-2.245 -7.9005,2.561 -2.2837,3.657 -6.7878,6.005 -11.519,6.005 -6.5441,0 -8.9946,2.505 -15.5446,15.893 -14.2323,29.089 -12.7102,66.01 4.8895,118.606 9.7259,29.066 39.4567,92.683 42.0856,90.054 0.9317,-0.931 0.395,-3.352 -1.1928,-5.379 -1.5878,-2.027 -3.6038,-6.614 -4.4801,-10.194 -1.1758,-4.803 -0.3173,-6.508 3.2774,-6.508 5.5876,0 18.0369,7.907 21.5578,13.692 1.3438,2.207 4.7085,3.179 7.7109,2.226 2.9298,-0.93 6.0831,-0.467 7.0074,1.029 0.9436,1.526 14.56,2.247 31.0495,1.642 24.9348,-0.914 30.1935,-1.962 34.8313,-6.94 3.0044,-3.225 7.3643,-5.864 9.6886,-5.864 2.3243,0 4.226,-0.988 4.226,-2.196 0,-1.209 2.4007,-3.696 5.3348,-5.529 4.6594,-2.91 5.1792,-2.518 4.1061,3.096 -0.6758,3.535 0.5566,7.909 2.7386,9.72 3.2034,2.658 4.1008,1.54 4.6608,-5.809 0.3814,-5.006 1.4782,-9.821 2.4373,-10.7 0.9591,-0.879 1.1016,24.434 0.3168,56.252 -0.7849,31.817 -0.438,54.595 0.7708,50.618 1.2089,-3.977 2.3535,-31.311 2.5437,-60.742 z m -105.9824,46.165 c -0.8485,-3.245 -2.1891,-5.254 -2.979,-4.464 -1.5648,1.565 1.1992,10.363 3.2556,10.363 0.6964,0 0.5719,-2.655 -0.2766,-5.899 z m -10.8016,-25.479 c -4.5684,-4.472 -4.643,-4.248 -1.1683,3.505 2.0416,4.555 4.2376,6.705 4.8801,4.778 0.6426,-1.928 -1.0278,-5.655 -3.7118,-8.283 z m 139.4118,-73.616 c -0.5347,-13.046 -0.9695,-1.593 -0.9661,25.451 0,27.045 0.4408,37.719 0.9721,23.721 0.5314,-13.998 0.5287,-36.125 -0.01,-49.172 z m 11.5618,-8.535 c -0.5648,-9.943 -1.027,-1.808 -1.027,18.078 0,19.886 0.4622,28.021 1.027,18.078 0.5648,-9.943 0.5648,-26.213 0,-36.156 z m 503.257,-21.272 c -0.9612,-0.961 -3.4559,-1.064 -5.5439,-0.228 -2.3074,0.923 -1.622,1.609 1.7475,1.747 3.0492,0.126 4.7575,-0.558 3.7964,-1.519 z m -14.4624,-11.57 c -0.9611,-0.961 -3.4558,-1.064 -5.5438,-0.228 -2.3075,0.923 -1.6221,1.609 1.7475,1.748 3.0491,0.125 4.7575,-0.559 3.7963,-1.52 z m -28.7549,-11.268 c -17.2902,-9.204 -20.9102,-9.269 -7.9821,-0.142 5.5231,3.899 12.6348,7.153 15.8039,7.231 3.5135,0.09 0.4612,-2.68 -7.8218,-7.089 z m -453.8808,-15.909 -0.2884,-13.016 -2.3931,11.57 c -1.3162,6.363 -2.4482,14.173 -2.5155,17.355 -0.1012,4.778 0.3654,5.03 2.6814,1.446 1.5422,-2.386 2.6742,-10.196 2.5156,-17.355 z m 645.4888,4.579 c -11.0239,-28.995 -45.7746,-83.384 -69.4563,-108.708 l -14.877,-15.908 1.4076,14.489 c 1.2182,12.54 3.2937,16.431 15.4251,28.925 18.0376,18.575 43.6554,50.782 57.0574,71.733 11.26,17.602 14.7323,20.751 10.4432,9.469 z m -657.5329,-13.979 c -0.6895,-3.58 -1.2535,-0.651 -1.2535,6.508 0,7.159 0.564,10.087 1.2535,6.508 0.6894,-3.58 0.6894,-9.437 0,-13.016 z m 485.3396,9.4 c -0.9832,-1.591 -3.5191,-2.892 -5.6352,-2.892 -2.1162,0 -6.9204,-2.606 -10.6761,-5.791 -4.689,-3.976 -5.2425,-5.239 -1.7666,-4.029 2.784,0.969 5.0618,0.537 5.0618,-0.959 0,-4.903 -3.7336,-6.586 -7.5615,-3.41 -4.1178,3.418 -10.8278,0.848 -8.3318,-3.191 0.8558,-1.385 -1.0754,-2.319 -4.2915,-2.077 -3.2161,0.242 -5.8474,1.19 -5.8474,2.106 0,2.687 31.4929,20.749 39.9421,22.907 0.4916,0.126 0.089,-1.073 -0.8938,-2.664 z m -82.7717,-12.42 c -6.9739,-6.831 -13.3228,-11.937 -14.1087,-11.346 -1.6446,1.236 21.9069,23.766 24.8435,23.766 1.0697,0 -3.7609,-5.589 -10.7348,-12.42 z m 4.675,-16.196 c -6.3634,-6.171 -12.1317,-10.697 -12.8184,-10.059 -1.8519,1.72 17.7883,21.324 21.3401,21.3 1.6765,-0.01 -2.1582,-5.07 -8.5217,-11.241 z m -390.0138,-1.032 c -0.8024,-1.988 -1.4589,-0.361 -1.4589,3.616 0,3.977 0.6565,5.604 1.4589,3.616 0.8024,-1.989 0.8024,-5.243 0,-7.232 z m 419.6616,-0.34 c -7.8929,-6.788 -11.0218,-12.744 -4.6149,-8.784 2.0856,1.289 2.5536,0.792 1.2464,-1.323 -1.1512,-1.862 -3.3047,-2.637 -4.7856,-1.722 -1.4809,0.915 -2.6926,0.286 -2.6926,-1.399 0,-1.685 -1.5781,-3.063 -3.5069,-3.063 -1.9289,0 -6.5921,-3.58 -10.3627,-7.955 l -6.8558,-7.954 5.9043,8.956 c 6.246,9.474 27.8072,30.095 31.4611,30.089 1.1886,0 -1.4184,-3.082 -5.7933,-6.845 z m 116.349,-51.18 c -3.7336,-45.735 -3.2188,-71.995 3.1557,-160.987 4.1297,-57.651 0.7881,-105.948 -9.1724,-132.57 -16.7809,-44.851 -58.5261,-70.76 -100.4463,-62.341 -22.4192,4.503 -29.245,9.206 -87.5385,60.323 -46.4536,40.734 -53.5997,45.948 -68.8769,50.256 -43.8868,12.376 -80.6656,41.569 -92.6181,73.514 -6.4798,17.319 -8.0006,59.387 -3.0803,85.21 1.7005,8.925 1.9808,3.267 0.8917,-18 -1.9038,-37.174 0.4528,-57.204 6.7301,-57.204 3.3745,0 3.95,2.009 2.4855,8.677 -2.4957,11.363 -0.4375,10.962 7.204,-1.402 3.8804,-6.279 5.5303,-12.283 4.3752,-15.923 -1.3169,-4.149 -0.3294,-6.339 3.4068,-7.554 2.8937,-0.941 12.7645,-5.49 21.9352,-10.11 17.9462,-9.039 32.5931,-10.55 48.6981,-5.024 31.0137,10.64 50.4379,42.824 67.7932,112.325 4.1712,16.704 10.243,36.554 13.4929,44.11 l 5.9088,13.739 17.7217,-0.486 17.7218,-0.486 -17.3548,-1.683 -17.3548,-1.683 11.5698,-2.089 c 23.0067,-4.152 50.0739,-14.849 98.0499,-38.749 26.8829,-13.392 49.2147,-24 49.6264,-23.573 0.4116,0.427 2.1702,20.3 3.9078,44.163 1.7376,23.863 5.0268,55.102 7.3093,69.42 2.2825,14.317 4.413,28.635 4.7344,31.817 0.466,4.612 0.8697,4.319 1.9914,-1.446 0.7738,-3.978 -0.2466,-27.487 -2.2676,-52.244 z m -545.4764,39.227 c 1.4175,-6.337 1.1491,-7.507 -0.9951,-4.338 -1.6148,2.386 -2.9559,6.833 -2.9803,9.882 -0.059,7.401 1.5964,5.092 3.9754,-5.544 z m 362.9925,-10.846 c -1.8849,-3.58 -4.2086,-7.159 -5.1635,-7.955 -4.5447,-3.785 -15.4785,-25.906 -29.3083,-59.295 -1.3179,-3.182 -3.9076,-12.944 -5.755,-21.694 -4.0676,-19.265 -12.2753,-46.474 -13.6149,-45.135 -0.9997,1 1.7588,13.356 11.3679,50.92 6.0365,23.598 24.7451,65.285 36.0229,80.266 8.1859,10.874 11.4172,12.323 6.4509,2.893 z m -352.6803,-19.596 c 0.072,-2.426 7.1773,-11.863 15.7901,-20.971 8.6129,-9.108 14.2686,-16.56 12.5683,-16.56 -9.4574,0 -37.274,41.116 -36.6704,54.203 0.2766,5.997 8.1059,-9.706 8.312,-16.672 z m 359.8352,8.838 c -2.7903,-4.724 -5.5158,-8.146 -6.0567,-7.605 -1.7511,1.751 5.864,16.193 8.5383,16.193 1.4254,0 0.3087,-3.864 -2.4816,-8.588 z m -183.2642,1.357 c -1.511,-3.022 -23.1354,-4.148 -23.1382,-1.205 0,4.079 4.8576,5.758 14.3574,4.958 5.6249,-0.473 9.5762,-2.162 8.7808,-3.753 z m 12.8136,-10.451 c -2.9181,-4.722 -7.0286,-2.631 -7.0286,3.574 0,5.109 0.7227,5.539 4.3068,2.565 2.3688,-1.966 3.5936,-4.729 2.7218,-6.139 z m -41.7383,0.68 c 0,-3.548 -31.4296,-24.844 -33.5444,-22.729 -0.9492,0.949 3.2814,4.281 9.4013,7.405 6.1198,3.123 13.6066,8.42 16.6371,11.771 6.0491,6.689 7.506,7.378 7.506,3.553 z m -117.5523,-14.585 c -1.007,-0.922 -2.4146,-0.04 -3.1281,1.958 -0.7136,1.998 -2.3398,2.989 -3.6139,2.201 -1.2741,-0.787 -3.0325,1.306 -3.9075,4.652 -1.5538,5.942 -1.4271,5.93 5.4447,-0.526 3.8696,-3.635 6.2117,-7.364 5.2048,-8.285 z m 317.4916,1.891 c -2.8567,-2.835 -3.1889,-2.503 -1.6192,1.619 1.0862,2.853 2.7035,4.458 3.5941,3.568 0.8906,-0.891 0,-3.225 -1.9749,-5.187 z m -312.7455,-9.352 c 0,-2.386 -1.9525,-4.339 -4.3387,-4.339 -7.5276,0 -5.0882,5.701 3.6155,8.449 0.3978,0.126 0.7232,-1.724 0.7232,-4.11 z m 22.8987,-3.322 c 0.6628,-0.559 -2.7773,-1.017 -7.6449,-1.017 -4.9981,0 -9.5395,1.797 -10.4342,4.129 -1.3147,3.426 -0.014,3.599 7.6448,1.017 5.076,-1.712 9.7714,-3.57 10.4343,-4.129 z m 277.9336,-15.636 c -4.6717,-11.845 -8.5387,-19.096 -8.5935,-16.113 -0.1017,5.539 14.4413,40.295 16.147,38.59 0.5172,-0.518 -2.8819,-10.632 -7.5535,-22.477 z m -227.7425,15.614 c -1.9583,-0.792 -5.8631,-0.84 -8.6774,-0.107 -2.8142,0.734 -1.212,1.382 3.5606,1.441 4.7725,0.06 7.0751,-0.541 5.1168,-1.334 z m -50.7335,-11.42 c -0.9611,-0.961 -3.4559,-1.064 -5.5439,-0.228 -2.3074,0.923 -1.622,1.609 1.7476,1.748 3.0491,0.125 4.7575,-0.559 3.7963,-1.52 z m -319.8374,-36.98 c 8.9398,-4.454 20.0264,-7.552 27.0334,-7.552 8.5155,0 15.1105,-2.357 23.2949,-8.327 6.2791,-4.581 18.5754,-11.969 27.3252,-16.419 8.7497,-4.45 16.2497,-8.311 16.6667,-8.58 0.6568,-0.424 -10.5745,-27.575 -12.2499,-29.614 -0.3399,-0.413 -9.6078,4.152 -20.5954,10.145 -10.9875,5.993 -26.3307,14.141 -34.096,18.107 -30.0952,15.369 -53.8704,43.655 -58.3905,69.467 -1.7023,9.721 -1.4685,9.562 7.048,-4.81 6.7822,-11.445 12.2948,-16.602 23.9636,-22.417 z m 311.9434,31.159 c 0,-0.609 -3.254,-1.109 -7.2312,-1.109 -3.9771,0 -7.2311,1.122 -7.2311,2.492 0,1.37 3.254,1.869 7.2311,1.109 3.9772,-0.76 7.2312,-1.882 7.2312,-2.492 z m 146.8371,-49.458 c -0.6647,-21.82 -0.3291,-44.483 0.7458,-50.361 1.5236,-8.332 1.0941,-10.357 -1.9488,-9.19 -2.8863,1.108 -3.9031,8.462 -3.9031,28.231 0,29.093 2.9674,70.992 5.028,70.992 0.7077,0 0.7429,-17.853 0.078,-39.672 z m -352.9857,32.14 c -0.9612,-0.962 -3.4559,-1.064 -5.5439,-0.229 -2.3074,0.924 -1.6221,1.609 1.7475,1.748 3.0492,0.125 4.7575,-0.558 3.7964,-1.519 z m 340.6484,-9.823 c -2.6054,-11.862 -4.9422,-9.525 -2.5309,2.531 1.0164,5.082 2.4509,8.637 3.1878,7.9 0.7369,-0.737 0.4413,-5.431 -0.6569,-10.431 z m 135.8986,-30.933 c -4.3562,-18.781 -11.5907,-41.957 -16.0768,-51.502 -7.7427,-16.475 -26.2727,-39.048 -32.0532,-39.048 -1.4764,0 2.3306,4.881 8.4601,10.846 13.0746,12.726 21.0727,26.072 26.4345,44.11 9.0444,30.428 11.4553,39.676 13.1965,50.619 2.4683,15.512 4.6381,22.444 6.4561,20.626 0.8267,-0.826 -2.0611,-16.869 -6.4172,-35.651 z m -485.6807,26.801 c 5.2901,-5.29 5.2305,-7.438 -0.2066,-7.438 -2.3863,0 -4.3387,1.302 -4.3387,2.893 0,1.591 -2.6032,2.892 -5.7849,2.892 -3.1817,0 -5.785,1.302 -5.785,2.893 0,4.351 11.4009,3.474 16.1152,-1.24 z m 48.9654,-1.653 c -0.9832,-1.591 -3.0893,-2.892 -4.6801,-2.892 -1.5909,0 -2.0881,1.301 -1.1049,2.892 0.9832,1.591 3.0893,2.893 4.6801,2.893 1.5909,0 2.0881,-1.302 1.1049,-2.893 z m 18.801,-3.024 c 3.1686,-2.145 1.9985,-2.413 -4.3387,-0.995 -10.6354,2.379 -12.9441,4.034 -5.5439,3.975 3.0492,-0.02 7.4963,-1.366 9.8826,-2.98 z m -26.6056,-12.988 c -1.7862,-3.92 -4.4488,-7.127 -5.9169,-7.127 -1.468,0 -1.9107,1.627 -0.9838,3.615 0.927,1.989 2.4851,5.879 3.4624,8.645 0.9773,2.766 2.8815,4.347 4.2315,3.512 1.35,-0.834 0.9931,-4.724 -0.7932,-8.645 z m 77.9408,-4.166 c 23.4685,-7.916 40.0668,-14.405 36.8851,-14.42 -3.1817,-0.01 -11.6422,2.038 -18.801,4.562 -7.1589,2.523 -19.5242,6.334 -27.4785,8.467 -13.5523,3.636 -40.196,15.416 -35.4389,15.669 1.1898,0.06 21.3647,-6.362 44.8333,-14.278 z m 190.1859,8.608 c -2.8794,-3.181 -6.986,-5.785 -9.1257,-5.785 -2.1397,0 -3.8904,-1.301 -3.8904,-2.892 0,-1.591 -2.0292,-2.892 -4.5094,-2.892 -2.7889,0 -3.7155,-1.38 -2.4287,-3.616 1.1444,-1.989 1.0561,-2.691 -0.196,-1.562 -1.2522,1.13 -5.9519,0.154 -10.4438,-2.169 -4.4918,-2.323 -10.5095,-4.148 -13.3725,-4.057 -2.863,0.09 1.3026,3.215 9.2569,6.94 7.9543,3.725 19.018,10.095 24.586,14.154 12.194,8.89 17.3314,9.844 10.1236,1.879 z m 3.5572,-39.707 c -0.6262,-6.001 -1.149,-1.799 -1.1618,9.337 -0.013,11.136 0.4995,16.046 1.1384,10.911 0.639,-5.135 0.6495,-14.246 0.023,-20.248 z m -140.2263,14.652 c -1.9886,-0.802 -5.2426,-0.802 -7.2312,0 -1.9885,0.802 -0.3615,1.459 3.6156,1.459 3.9772,0 5.6042,-0.657 3.6156,-1.459 z m 75.9273,-2.504 c -6.3634,-2.097 -20.0304,-3.736 -30.3709,-3.641 l -18.8011,0.172 24.1793,2.332 c 13.2986,1.283 24.9046,3.058 25.7912,3.945 0.8865,0.886 3.6728,1.475 6.1916,1.308 2.5189,-0.166 -0.6267,-2.019 -6.9901,-4.116 z m -61.465,-0.388 c -1.9885,-0.803 -5.2426,-0.803 -7.2311,0 -1.9886,0.802 -0.3616,1.459 3.6156,1.459 3.9771,0 5.6041,-0.657 3.6155,-1.459 z m 274.4145,-11.607 c -3.4098,-5.864 -4.2332,-3.987 -1.442,3.287 0.992,2.585 2.4129,4.09 3.1576,3.346 0.7447,-0.745 -0.027,-3.73 -1.7156,-6.633 z m -434.2233,3.569 c 0,-0.701 -1.3017,-2.08 -2.8925,-3.063 -1.5909,-0.983 -2.8925,-0.409 -2.8925,1.276 0,1.684 1.3016,3.063 2.8925,3.063 1.5908,0 2.8925,-0.574 2.8925,-1.276 z m 417.8245,-34.891 c -7.4699,-8.744 -14.8027,-15.898 -16.295,-15.898 -1.4923,0 2.4148,6.183 8.6824,13.74 6.2677,7.556 13.1216,16.993 15.2311,20.97 3.1913,6.017 4.0141,6.379 4.8993,2.158 0.6179,-2.946 -4.6296,-11.737 -12.5178,-20.97 z m -132.0479,0.315 c -1.6422,-19.804 -13.1168,-32.816 -17.9139,-20.315 -3.1264,8.148 -1.9086,9.887 6.9218,9.887 8.356,0 8.6774,0.482 8.6774,13.016 0,7.159 0.8119,13.017 1.8044,13.017 0.9924,0 1.222,-7.023 0.5103,-15.605 z m 148.4525,9.048 c -2.8566,-2.835 -3.1889,-2.503 -1.6192,1.619 1.0863,2.853 2.7036,4.458 3.5942,3.568 0.8905,-0.891 0,-3.225 -1.975,-5.187 z m -449.6081,-5.556 c -0.9233,-2.307 -1.6087,-1.622 -1.7475,1.748 -0.1256,3.049 0.558,4.757 1.5192,3.796 0.9611,-0.961 1.0639,-3.456 0.2283,-5.544 z m 82.2588,-1.41 c -3.4097,-5.863 -4.2331,-3.987 -1.442,3.287 0.992,2.585 2.4129,4.091 3.1576,3.346 0.7448,-0.745 -0.027,-3.729 -1.7156,-6.633 z m 141.9163,-2.197 c 24.4949,-6.097 45.1173,-15.779 48.1515,-22.606 0.5303,-1.193 3.4589,-2.169 6.508,-2.169 3.0492,0 5.5439,-1.067 5.5439,-2.372 0,-1.304 4.4164,-7.531 9.8142,-13.837 5.3978,-6.307 14.5091,-20.316 20.2473,-31.132 5.7382,-10.817 10.4331,-18.18 10.4331,-16.363 0,1.817 1.3016,2.499 2.8924,1.516 1.6282,-1.006 2.7927,1.132 2.6642,4.891 -0.1256,3.673 -0.8849,5.052 -1.6873,3.063 -0.8024,-1.988 -2.8115,-3.615 -4.4645,-3.615 -1.8038,0 -1.5539,1.749 0.6248,4.374 2.7613,3.327 4.5771,3.589 7.5853,1.092 5.5177,-4.579 4.9345,-1.725 -1.1069,5.417 -2.784,3.291 -7.4141,8.799 -10.2892,12.239 -2.875,3.44 -4.7793,7.599 -4.2316,9.242 0.5477,1.643 4.7723,-2.462 9.3879,-9.122 4.6157,-6.661 11.1368,-14.289 14.4913,-16.953 10.8548,-8.619 11.0385,-11.674 0.8684,-14.44 -5.4611,-1.485 -9.1311,-4.187 -8.6279,-6.352 0.4817,-2.073 -0.2213,-4.538 -1.5622,-5.48 -1.3409,-0.941 -0.7729,-8.219 1.2623,-16.173 3.0763,-12.023 3.4874,-12.602 2.4376,-3.433 -1.052,9.188 -0.443,10.874 3.6468,10.098 3.6684,-0.697 5.1377,-4.526 5.8118,-15.148 0.8361,-13.176 0.5365,-13.915 -4.0954,-10.098 -4.5978,3.789 -4.8191,3.424 -2.7666,-4.559 3.4998,-13.613 7.1997,-44.736 7.3929,-62.188 l 0.1761,-15.909 7.1044,13.016 c 3.9073,7.159 12.1198,22.779 18.2499,34.71 6.13,11.932 14.6681,27.551 18.9734,34.71 4.3054,7.159 8.5733,15.294 9.4844,18.078 1.7249,5.27 11.2968,6.687 17.7061,2.62 2.804,-1.779 0.5154,-7.94 -9.3864,-25.265 -35.3012,-61.767 -64.9575,-142.468 -117.0898,-318.624 -44.7134,-151.087 -67.0848,-207.437 -99.3184,-250.168 -27.1524,-35.995 -54.1635,-52.278 -89.3894,-53.887 -20.1433,-0.92 -24.4101,-0.12 -41.1554,7.716 -21.6516,10.132 -54.7164,41.108 -73.1345,68.514 -36.6736,54.571 -60.5183,127.248 -70.226,214.043 -3.2731,29.264 -3.4462,105.933 -0.3234,143.177 1.3542,16.151 2.093,-4.193 2.1532,-59.295 0.066,-60.632 1.2767,-90.697 4.3672,-108.468 l 4.2756,-24.586 0.4513,66.527 c 0.4518,66.612 7.4568,166.314 12.3367,175.591 1.428,2.715 3.4337,10.524 4.4571,17.355 9.385,62.635 34.6847,132.757 63.5804,176.223 7.0203,10.56 12.7642,20.173 12.7642,21.362 0,1.189 4.5556,6.458 10.1236,11.709 5.568,5.252 10.1237,11.588 10.1237,14.081 0,2.493 1.3016,4.533 2.8924,4.533 1.5909,0 2.8925,1.379 2.8925,3.063 0,1.685 -1.3016,2.259 -2.8925,1.276 -4.9977,-3.089 -3.1682,2.59 4.443,13.791 7.9076,11.637 12.2593,14.6 6.9943,4.762 -1.7757,-3.318 -2.5741,-6.687 -1.7743,-7.487 0.7998,-0.8 3.4564,2.241 5.9035,6.756 2.447,4.516 4.4965,6.908 4.5542,5.318 0.058,-1.591 -2.6909,-7.449 -6.1081,-13.017 -16.2921,-26.546 -49.799,-110.427 -64.3984,-161.214 -28.1653,-97.979 -32.6246,-217.143 -11.8042,-315.443 7.8911,-37.257 11.7153,-45.414 9.0954,-19.401 -4.1996,41.697 -5.4048,145.914 -2.0906,180.779 5.4863,57.715 14.3262,110.835 26.5441,159.506 13.4868,53.725 40.9977,136.657 48.9971,147.702 3.1219,4.31 5.6763,9.268 5.6763,11.017 0,1.75 1.1802,2.451 2.6227,1.56 1.4425,-0.892 1.8676,1.309 0.9446,4.891 -1.4949,5.801 -1.1496,6.079 3.1622,2.542 4.1026,-3.364 4.8537,-3.364 4.9283,0 0.06,2.692 1.037,2.341 3.0362,-1.092 2.7676,-4.751 3.5153,-4.768 12.205,-0.272 18.496,9.569 54.324,17.043 85.9072,17.92 7.1589,0.199 25.6237,-2.777 41.033,-6.612 z m -175.0507,-23.811 c -1.0605,-1.06 -1.9283,-3.273 -1.9283,-4.917 0,-1.813 1.3472,-1.642 3.4228,0.434 1.8825,1.882 2.7502,4.095 1.9283,4.917 -0.822,0.822 -2.3622,0.627 -3.4228,-0.434 z m 234.7297,-205.234 c -27.8947,-42.341 -50.1383,-94.088 -64.5022,-150.057 -8.6628,-33.755 -16.1352,-80.372 -12.2866,-76.651 0.8227,0.796 12.1792,31.383 25.2366,67.973 25.942,72.695 48.0657,131.051 59.4026,156.685 10.6546,24.092 7.2555,24.98 -7.8504,2.05 z m 104.6533,203.513 10.1236,-1.21 -11.1233,-0.463 c -11.0588,-0.46 -27.925,8.204 -27.925,14.344 0,1.563 4.2302,-0.376 9.4005,-4.31 5.1703,-3.934 13.9562,-7.696 19.5242,-8.361 z m -400.0772,0.215 c -0.9234,-2.308 -1.6088,-1.622 -1.7476,1.747 -0.1256,3.049 0.5581,4.758 1.5192,3.797 0.9612,-0.962 1.0639,-3.456 0.2284,-5.544 z m -7.5019,-24.386 c -3.1506,-7.766 -5.7994,-12.001 -5.8862,-9.412 -0.198,5.911 8.3748,26.772 10.2366,24.91 0.758,-0.758 -1.1997,-7.732 -4.3504,-15.498 z m 434.3344,11.317 c -3.5794,-0.69 -9.4367,-0.69 -13.0161,0 -3.5794,0.689 -0.6508,1.253 6.5081,1.253 7.1588,0 10.0874,-0.564 6.508,-1.253 z m -443.2708,-35.561 c 0,-3.182 -1.1797,-5.785 -2.6216,-5.785 -1.442,0 -1.941,2.603 -1.1089,5.785 0.832,3.182 2.0118,5.785 2.6217,5.785 0.6098,0 1.1088,-2.603 1.1088,-5.785 z m -8.7047,-31.011 c -4.5154,-16.787 -10.2087,-24.282 -7.2038,-9.484 1.1306,5.568 3.2201,11.361 4.6434,12.872 1.4232,1.511 2.5877,5.308 2.5877,8.436 0,3.129 0.8304,4.858 1.8454,3.843 1.0149,-1.015 0.1722,-8.065 -1.8727,-15.667 z m 416.5428,0.331 c 0,-0.626 -1.9524,-1.137 -4.3387,-1.137 -2.3863,0 -4.3387,1.261 -4.3387,2.802 0,1.54 1.9524,2.052 4.3387,1.136 2.3863,-0.915 4.3387,-2.176 4.3387,-2.801 z m 10.1236,-4.03 c 0.9832,-1.59 -0.2416,-2.892 -2.7217,-2.892 -2.4802,0 -4.5095,1.302 -4.5095,2.892 0,1.591 1.2248,2.893 2.7218,2.893 1.497,0 3.5262,-1.302 4.5094,-2.893 z m 420.8542,-21.444 c 0,-0.659 -8.2569,-7.767 -18.3485,-15.798 -10.0917,-8.03 -37.6649,-36.238 -61.2738,-62.685 -68.4384,-76.666 -111.0036,-112.034 -150.9608,-125.437 -38.1001,-12.78 -68.5237,-6.112 -108.7547,23.836 -13.194,9.821 -30.4247,20.683 -38.2904,24.137 -43.4668,19.088 -53.3496,24.086 -53.3496,26.979 0,5.359 22.839,57.482 39.6085,90.394 14.3232,28.11 16.6037,31.094 23.769,31.094 4.7839,0 10.7055,-2.962 14.938,-7.472 6.8173,-7.263 6.9835,-8.536 5.9783,-45.786 -0.8718,-32.307 -0.068,-41.835 5.1269,-60.771 3.3885,-12.351 8.1577,-26.318 10.5981,-31.037 7.034,-13.602 24.3713,-31.259 37.1761,-37.861 24.956,-12.867 64.7914,-4.936 85.8672,17.096 5.3799,5.624 21.4961,18.969 35.8138,29.655 14.8058,11.051 43.4486,37.796 66.4181,62.017 43.5743,45.948 60.1311,60.109 86.4533,73.942 17.1492,9.012 19.2305,9.845 19.2305,7.697 z m -861.7101,-22.246 c -2.5482,-6.37 -2.7861,-6.443 -2.9546,-0.902 -0.1009,3.314 0.6844,6.894 1.7449,7.954 3.4547,3.455 4.0423,0.03 1.2097,-7.052 z m -7.0073,-26.452 c -0.8024,-1.989 -1.4589,-0.362 -1.4589,3.616 0,3.977 0.6565,5.604 1.4589,3.615 0.8024,-1.988 0.8024,-5.242 0,-7.231 z m -7.7287,-33.18 c -3.125,-4.871 -3.2123,-4.863 -1.6365,0.153 0.9156,2.914 1.8419,8.121 2.0585,11.57 0.3936,6.265 0.3952,6.265 1.6366,-0.153 0.6834,-3.534 -0.243,-8.74 -2.0586,-11.57 z m -5.9663,-42.437 c -2.6321,-2.456 -3.008,0.1 -1.6117,10.94 1.0017,7.779 2.062,16.239 2.3563,18.801 0.2942,2.562 1.0195,-2.361 1.6117,-10.94 0.6649,-9.633 -0.2363,-16.823 -2.3563,-18.801 z m -4.0328,-26.439 c -1.1285,-10.538 -2.7026,-18.509 -3.498,-17.713 -0.7955,0.795 -0.5229,10.068 0.6056,20.606 1.1285,10.537 2.7026,18.508 3.498,17.713 0.7954,-0.795 0.5229,-10.068 -0.6056,-20.606 z"
             id="path139"
             inkscape:export-filename="/Users/giannipie/Documents/Repositories/linotte-web/resources/images/pieces/p041_faebaaff.svg"
             inkscape:export-xdpi="96"
             inkscape:export-ydpi="96" /><path
             style="fill:#f5d849"
             d="m -3295.6847,14620.266 c -29.2668,-8.903 -38.7055,-21.369 -69.515,-91.815 l -5.2841,-12.082 -15.333,4.045 c -54.1507,14.284 -162.0248,16.55 -219.3433,4.607 -120.4394,-25.096 -224.3408,-94.497 -313.0801,-209.121 l -18.1075,-23.39 -1.8456,27.114 c -1.0151,14.912 -1.9913,53.526 -2.1693,85.808 -0.4452,80.708 -6.2166,107.049 -31.666,144.525 -37.9702,55.914 -106.8543,84.504 -152.4477,63.273 -19.091,-8.89 -30.2527,-22.145 -30.2527,-35.926 0,-6.627 5.4286,-21.997 14.691,-41.593 15.692,-33.201 22.8213,-55.554 22.8767,-71.73 l 0.034,-10.024 -15.1854,14.598 c -22.6196,21.746 -38.3146,32.974 -56.6102,40.499 -20.9221,8.606 -34.5892,8.718 -46.797,0.385 -21.5951,-14.741 -24.8007,-36.096 -12.9166,-86.051 14.2306,-59.819 13.2907,-80.118 -9.174,-198.134 -11.1932,-58.803 -13.0329,-73.4 -12.0296,-95.451 2.3494,-51.632 22.0904,-77.129 87.3388,-112.807 20.366,-11.136 37.6009,-21.645 38.2999,-23.354 0.6989,-1.709 -5.1566,-22.535 -13.0122,-46.28 -74.0666,-223.875 -77.948,-445.007 -10.4123,-593.204 22.9034,-50.258 68.0622,-105.004 101.5776,-123.143 36.3534,-19.674 71.7827,-20.828 107.9082,-3.515 38.1635,18.289 66.419,51.336 95.374,111.546 21.1581,43.997 36.3327,88.156 68.3642,198.942 29.5261,102.121 55.5528,182.53 59.0807,182.53 1.403,0 3.2628,-1.152 4.133,-2.56 0.8703,-1.408 14.8514,-8.159 31.0692,-15.002 17.329,-7.313 37.9158,-18.814 49.9298,-27.895 49.8308,-37.664 90.5129,-44.318 142.5228,-23.31 38.6358,15.605 86.733,56.756 151.5132,129.629 40.0365,45.038 65.1482,66.627 95.5552,82.149 36.9513,18.863 52.9526,31.096 60.168,46.001 7.8677,16.253 7.5836,30.783 -0.9297,47.544 -24.2695,47.78 -66.9019,66.481 -144.8901,63.558 -20.7002,-0.775 -39.5834,-1.911 -41.9627,-2.523 -3.5171,-0.905 -4.7916,4.428 -6.8167,28.523 l -2.4907,29.636 17.1765,19.536 c 61.1663,69.569 92.0138,125.518 106.4575,193.084 6.3477,29.694 6.573,92.731 0.4394,122.93 -5.1609,25.41 -10.1464,18.716 42.6157,57.225 30.632,22.356 35.2565,26.883 41.5863,40.709 17.153,37.468 -2.1001,83.751 -43.4301,104.404 -14.5851,7.288 -20.9339,8.769 -36.6983,8.564 -10.4842,-0.137 -22.3246,-1.241 -26.3121,-2.454 z m -752.1605,-32.935 c 24.5776,-12.01 53.3782,-40.785 66.2479,-66.188 15.5189,-30.633 17.5545,-46.218 17.6794,-135.357 0.1599,-114.075 6.0035,-168.503 21.9669,-204.605 15.5235,-35.106 29.6033,-44.165 68.573,-44.119 29.9841,0.04 48.2855,7.732 64.495,27.124 10.3664,12.402 12.115,13.342 24.8055,13.342 11.6036,0 14.5058,-1.198 19.3357,-7.981 11.0701,-15.546 12.812,-30.386 10.6156,-90.433 -2.3146,-63.279 -0.4044,-75.727 13.8011,-89.932 15.3385,-15.339 40.8722,-9.478 61.3931,14.092 12.6192,14.494 22.1113,37.523 31.8795,77.344 15.6109,63.639 40.5629,108.444 81.0583,145.55 40.8017,37.388 99.4192,56.644 124.9817,41.059 5.1703,-3.153 9.4006,-6.447 9.4006,-7.32 0,-0.874 -6.2704,-0.757 -13.9342,0.26 -42.7397,5.669 -106.8592,-34.32 -143.5287,-89.515 -18.9659,-28.548 -32.006,-60.517 -39.6473,-97.199 -10.5493,-50.642 -23.4986,-81.837 -40.4888,-97.536 -9.0962,-8.406 -26.0192,-15.303 -37.8158,-15.412 -8.2511,-0.08 -8.7842,-0.5 -4.0735,-3.236 7.8278,-4.548 29.6152,-0.775 43.9131,7.604 12.5791,7.372 28.5122,28.386 37.3273,49.231 2.691,6.363 9.9855,30.867 16.2098,54.452 17.9897,68.167 43.4459,110.171 86.309,142.417 26.8005,20.161 38.1784,25.937 59.9547,30.435 15.7207,3.247 18.5298,3.057 28.7305,-1.939 6.2184,-3.046 14.252,-9.96 17.8524,-15.366 7.7705,-11.666 8.3906,-28.165 3.2052,-85.283 -2.8487,-31.379 -2.5564,-49.33 1.8517,-113.704 7.0592,-103.091 4.1837,-145.813 -12.033,-178.775 -9.1746,-18.649 -24.7,-34.69 -42.8808,-44.304 -19.6272,-10.38 -54.0396,-10.91 -73.7579,-1.136 -7.1589,3.548 -36.4419,27.178 -65.0733,52.509 -50.769,44.917 -52.6519,46.251 -76.0886,53.874 -41.7802,13.591 -70.5683,36.171 -84.5618,66.325 -13.8512,29.848 -13.8167,70.949 0.1071,127.269 7.1956,29.106 7.1732,32.319 -0.2532,36.293 -5.3581,2.868 -8.3869,0.962 -26.7553,-16.836 -40.2261,-38.978 -67.6475,-51.471 -111.8259,-50.95 -30.5223,0.361 -42.5205,3.312 -111.3601,27.397 -41.2634,14.437 -45.1212,15.244 -78.8197,16.495 -22.4726,0.834 -35.4328,0.262 -35.4328,-1.565 0,-1.584 3.8357,-3.647 8.5237,-4.585 4.688,-0.937 13.1943,-3.656 18.903,-6.041 l 10.3793,-4.337 -7.3436,-14.492 c -6.8286,-13.475 -7.8544,-14.297 -14.6309,-11.721 -14.3744,5.465 -37.9189,22.474 -49.8096,35.982 -39.7436,45.151 -30.3511,111.573 33.3553,235.881 18.3272,35.761 33.9204,75.177 38.2958,96.801 3.969,19.617 2.0436,46.935 -4.6312,65.71 -4.1465,11.663 -12.7945,48.577 -12.7945,54.613 0,4.916 21.386,2.69 41.1355,-4.28 56.9734,-20.109 74.3137,-64.56 74.5674,-191.15 0.1868,-93.223 9.9428,-165.755 27.2698,-202.741 16.8587,-35.987 40.2126,-53.099 72.5162,-53.135 12.2545,-0.01 16.0797,0.805 13.0161,2.785 -2.3863,1.542 -7.9599,2.823 -12.3859,2.848 -20.3354,0.112 -43.6703,17.343 -55.9045,41.282 -16.4632,32.214 -23.2918,82.153 -25.6067,187.267 -1.7603,79.928 -3.1275,99.489 -9.0529,129.515 -7.3346,37.167 -17.5713,57.922 -38.2557,77.564 -23.7145,22.519 -81.2255,37.508 -98.2256,25.601 -5.9679,-4.18 -6.4285,-4.109 -6.4285,0.998 0,7.147 8.4205,14.606 22.2252,19.687 15.6798,5.772 38.9877,2.577 61.5189,-8.433 z m 722.4054,-375.896 c -15.3026,-30.223 -36.9592,-62.132 -59.0812,-87.051 -5.1217,-5.77 -10.0027,-10.49 -10.8467,-10.49 -2.0813,0 -1.8754,20.127 0.2885,28.202 0.9592,3.579 3.139,6.508 4.8439,6.508 6.6268,0 61.7592,67.629 72.7273,89.212 2.7026,5.318 5.7215,8.861 6.7086,7.874 0.9872,-0.987 -5.601,-16.402 -14.6404,-34.255 z m -907.8654,-108.552 c 8.5959,-11.926 24.3225,-19.945 44.17,-22.522 10.0097,-1.3 18.6118,-4.53 23.9904,-9.009 4.6119,-3.84 16.3264,-10.962 26.0322,-15.826 9.7058,-4.864 18.0629,-9.215 18.5713,-9.667 1.1336,-1.009 -11.3157,-30.309 -12.8779,-30.309 -2.6004,0 -53.1265,27.762 -69.5914,38.238 -25.6524,16.321 -44.3873,43.774 -43.979,64.445 l 0.1714,8.677 3.3807,-7.33 c 1.8593,-4.032 6.4189,-11.545 10.1323,-16.697 z m 236.2157,-37.566 c 52.7299,-17.633 81.4716,-22.582 108.3744,-18.661 28.7288,4.187 49.5741,12.223 73.7274,28.422 11.2565,7.549 18.9548,11.249 17.9483,8.626 -0.9693,-2.526 -3.1955,-15.965 -4.9471,-29.865 -6.8632,-54.463 6.1302,-97.062 39.1592,-128.383 14.5697,-13.816 43.7198,-30.887 61.65,-36.105 8.4386,-2.455 14.9467,-5.327 14.4624,-6.382 -0.4843,-1.055 -7.2512,-13.459 -15.0375,-27.565 -32.8771,-59.557 -59.1564,-129.432 -98.5942,-262.154 -51.9195,-174.728 -62.5746,-205.919 -87.3447,-255.687 -23.3938,-47.002 -47.188,-74.458 -78.0687,-90.082 -21.8908,-11.076 -51.4812,-13.221 -73.4419,-5.324 -41.6756,14.987 -91.5806,76.296 -119.0383,146.242 -12.6457,32.214 -26.1137,89.796 -31.3377,133.985 -7.5033,63.469 -3.0577,171.064 10.2802,248.809 14.1079,82.233 47.9518,192.448 82.5846,268.943 2.881,6.363 9.1169,20.289 13.8575,30.947 l 8.6192,19.377 21.2187,-6.768 c 11.6702,-3.722 36.8379,-11.991 55.9282,-18.375 z m -58.5146,-105.482 c -28.213,-56.774 -45.9951,-103.881 -57.0368,-151.096 -2.6043,-11.136 -6.5271,-27.407 -8.7175,-36.156 -14.8203,-59.202 -16.9757,-177.414 -4.5078,-247.235 3.402,-19.05 6.9379,-35.321 7.8577,-36.155 0.9198,-0.835 0.8876,2.386 -0.072,7.159 -4.0821,20.311 -5.4596,123.208 -2.1878,163.424 6.0125,73.906 22.6262,162.907 39.6015,212.151 5.3995,15.664 9.1155,29.615 8.2578,31.003 -1.3583,2.197 0.9358,8.487 13.1189,35.97 12.4095,27.992 20.5038,48.445 19.5501,49.399 -0.6319,0.632 -7.7709,-12.177 -15.8645,-28.464 z m 234.9552,-187.252 c -2.468,-4.773 -3.8365,-8.678 -3.0411,-8.678 0.7955,0 3.4655,3.905 5.9335,8.678 2.468,4.772 3.8365,8.677 3.041,8.677 -0.7954,0 -3.4655,-3.905 -5.9334,-8.677 z m -9.3615,-15.116 c -6.0433,-7.538 -15.2245,-28.25 -15.2245,-34.345 0,-3.468 -1.8253,-7.75 -4.0562,-9.516 -6.6138,-5.236 -22.8681,-45.417 -19.6673,-48.618 3.0964,-3.096 1.2507,-13.889 -2.3753,-13.889 -1.2564,0 -1.7291,2.929 -1.0504,6.508 0.6786,3.58 -0.75,1.415 -3.1748,-4.809 -2.4247,-6.225 -3.7527,-11.974 -2.9509,-12.775 0.8017,-0.802 1.4577,0.277 1.4577,2.399 0,2.121 0.8598,2.996 1.9106,1.946 1.0508,-1.051 -0.5466,-4.626 -3.5498,-7.945 -3.3561,-3.708 -5.4605,-10.312 -5.4605,-17.137 0,-6.106 -0.9009,-10.546 -2.002,-9.866 -2.1485,1.328 -6.701,-11.791 -9.3364,-26.905 -3.3042,-18.949 3.576,-11.526 11.9965,12.942 9.0608,26.329 34.4587,97.374 49.7668,139.211 8.6501,23.641 9.737,30.309 3.7165,22.799 z m 538.5385,116.931 c -1.5113,-1.273 -8.605,-7.072 -15.7639,-12.887 -22.4739,-18.255 -32.6141,-28.426 -73.0078,-73.227 -47.6693,-52.87 -76.6464,-80.29 -103.6569,-98.084 -30.3944,-20.024 -44.1902,-25.235 -71.0258,-26.826 -31.2879,-1.855 -46.5512,3.455 -78.5262,27.319 -28.7291,21.442 -33.2394,24.014 -59.3509,33.842 -22.6482,8.525 -33.8403,15.451 -33.8403,20.941 0,10.693 50.2048,115.014 58.773,122.124 2.5652,2.129 6.9401,0.369 15.5472,-6.256 l 11.9774,-9.218 -1.6024,-33.264 c -2.5947,-53.86 7.4307,-92.747 30.7612,-119.319 27.4945,-31.315 76.4716,-30.19 109.1885,2.508 6.6267,6.622 20.2936,17.942 30.3709,25.154 19.1224,13.686 53.4322,46.238 94.6451,89.795 24.3228,25.707 53.9849,47.592 74.6037,55.043 14.0857,5.091 14.1806,5.111 10.9072,2.355 z"
             id="path138" /><path
             style="fill:#ecb247"
             d="m -3295.6847,14620.266 c -29.2668,-8.903 -38.7055,-21.369 -69.515,-91.815 l -5.2841,-12.082 -15.333,4.045 c -54.1507,14.284 -162.0248,16.55 -219.3433,4.607 -120.4394,-25.096 -224.3408,-94.497 -313.0801,-209.121 l -18.1075,-23.39 -1.8456,27.114 c -1.0151,14.912 -1.9913,53.526 -2.1693,85.808 -0.4452,80.708 -6.2166,107.049 -31.666,144.525 -37.9702,55.914 -106.8543,84.504 -152.4477,63.273 -19.091,-8.89 -30.2527,-22.145 -30.2527,-35.926 0,-6.627 5.4286,-21.997 14.691,-41.593 15.692,-33.201 22.8213,-55.554 22.8767,-71.73 l 0.034,-10.024 -15.1854,14.598 c -22.6196,21.746 -38.3146,32.974 -56.6102,40.499 -20.9221,8.606 -34.5892,8.718 -46.797,0.385 -21.5951,-14.741 -24.8007,-36.096 -12.9166,-86.051 14.2306,-59.819 13.2907,-80.118 -9.174,-198.134 -11.1932,-58.803 -13.0329,-73.4 -12.0296,-95.451 2.3494,-51.632 22.0904,-77.129 87.3388,-112.807 20.366,-11.136 37.6009,-21.645 38.2999,-23.354 0.6989,-1.709 -5.1566,-22.535 -13.0122,-46.28 -74.0666,-223.875 -77.948,-445.007 -10.4123,-593.204 22.9034,-50.258 68.0622,-105.004 101.5776,-123.143 36.3534,-19.674 71.7827,-20.828 107.9082,-3.515 38.1635,18.289 66.419,51.336 95.374,111.546 21.1581,43.997 36.3327,88.156 68.3642,198.942 29.5261,102.121 55.5528,182.53 59.0807,182.53 1.403,0 3.2628,-1.152 4.133,-2.56 0.8703,-1.408 14.8514,-8.159 31.0692,-15.002 17.329,-7.313 37.9158,-18.814 49.9298,-27.895 49.8308,-37.664 90.5129,-44.318 142.5228,-23.31 38.6358,15.605 86.733,56.756 151.5132,129.629 40.0365,45.038 65.1482,66.627 95.5552,82.149 36.9513,18.863 52.9526,31.096 60.168,46.001 7.8677,16.253 7.5836,30.783 -0.9297,47.544 -24.2695,47.78 -66.9019,66.481 -144.8901,63.558 -20.7002,-0.775 -39.5834,-1.911 -41.9627,-2.523 -3.5171,-0.905 -4.7916,4.428 -6.8167,28.523 l -2.4907,29.636 17.1765,19.536 c 61.1663,69.569 92.0138,125.518 106.4575,193.084 6.3477,29.694 6.573,92.731 0.4394,122.93 -5.1609,25.41 -10.1464,18.716 42.6157,57.225 30.632,22.356 35.2565,26.883 41.5863,40.709 17.153,37.468 -2.1001,83.751 -43.4301,104.404 -14.5851,7.288 -20.9339,8.769 -36.6983,8.564 -10.4842,-0.137 -22.3246,-1.241 -26.3121,-2.454 z m -752.1605,-32.935 c 24.5776,-12.01 53.3782,-40.785 66.2479,-66.188 15.5189,-30.633 17.5545,-46.218 17.6794,-135.357 0.1599,-114.075 6.0035,-168.503 21.9669,-204.605 15.5235,-35.106 29.6033,-44.165 68.573,-44.119 29.9841,0.04 48.2855,7.732 64.495,27.124 10.3664,12.402 12.115,13.342 24.8055,13.342 11.6036,0 14.5058,-1.198 19.3357,-7.981 11.0701,-15.546 12.812,-30.386 10.6156,-90.433 -2.3146,-63.279 -0.4044,-75.727 13.8011,-89.932 15.3385,-15.339 40.8722,-9.478 61.3931,14.092 12.6192,14.494 22.1113,37.523 31.8795,77.344 15.6109,63.639 40.5629,108.444 81.0583,145.55 40.8017,37.388 99.4192,56.644 124.9817,41.059 5.1703,-3.153 9.4006,-6.447 9.4006,-7.32 0,-0.874 -6.2704,-0.757 -13.9342,0.26 -42.7397,5.669 -106.8592,-34.32 -143.5287,-89.515 -18.9659,-28.548 -32.006,-60.517 -39.6473,-97.199 -10.5493,-50.642 -23.4986,-81.837 -40.4888,-97.536 -9.0962,-8.406 -26.0192,-15.303 -37.8158,-15.412 -8.2511,-0.08 -8.7842,-0.5 -4.0735,-3.236 7.8278,-4.548 29.6152,-0.775 43.9131,7.604 12.5791,7.372 28.5122,28.386 37.3273,49.231 2.691,6.363 9.9855,30.867 16.2098,54.452 17.9897,68.167 43.4459,110.171 86.309,142.417 26.8005,20.161 38.1784,25.937 59.9547,30.435 15.7207,3.247 18.5298,3.057 28.7305,-1.939 6.2184,-3.046 14.252,-9.96 17.8524,-15.366 7.7705,-11.666 8.3906,-28.165 3.2052,-85.283 -2.8487,-31.379 -2.5564,-49.33 1.8517,-113.704 7.0592,-103.091 4.1837,-145.813 -12.033,-178.775 -9.1746,-18.649 -24.7,-34.69 -42.8808,-44.304 -19.6272,-10.38 -54.0396,-10.91 -73.7579,-1.136 -7.1589,3.548 -36.4419,27.178 -65.0733,52.509 -50.769,44.917 -52.6519,46.251 -76.0886,53.874 -41.7802,13.591 -70.5683,36.171 -84.5618,66.325 -13.8512,29.848 -13.8167,70.949 0.1071,127.269 7.1956,29.106 7.1732,32.319 -0.2532,36.293 -5.3581,2.868 -8.3869,0.962 -26.7553,-16.836 -40.2261,-38.978 -67.6475,-51.471 -111.8259,-50.95 -30.5223,0.361 -42.5205,3.312 -111.3601,27.397 -41.2634,14.437 -45.1212,15.244 -78.8197,16.495 -22.4726,0.834 -35.4328,0.262 -35.4328,-1.565 0,-1.584 3.8357,-3.647 8.5237,-4.585 4.688,-0.937 13.1943,-3.656 18.903,-6.041 l 10.3793,-4.337 -7.3436,-14.492 c -6.8286,-13.475 -7.8544,-14.297 -14.6309,-11.721 -14.3744,5.465 -37.9189,22.474 -49.8096,35.982 -39.7436,45.151 -30.3511,111.573 33.3553,235.881 18.3272,35.761 33.9204,75.177 38.2958,96.801 3.969,19.617 2.0436,46.935 -4.6312,65.71 -4.1465,11.663 -12.7945,48.577 -12.7945,54.613 0,4.916 21.386,2.69 41.1355,-4.28 56.9734,-20.109 74.3137,-64.56 74.5674,-191.15 0.1868,-93.223 9.9428,-165.755 27.2698,-202.741 16.8587,-35.987 40.2126,-53.099 72.5162,-53.135 12.2545,-0.01 16.0797,0.805 13.0161,2.785 -2.3863,1.542 -7.9599,2.823 -12.3859,2.848 -20.3354,0.112 -43.6703,17.343 -55.9045,41.282 -16.4632,32.214 -23.2918,82.153 -25.6067,187.267 -1.7603,79.928 -3.1275,99.489 -9.0529,129.515 -7.3346,37.167 -17.5713,57.922 -38.2557,77.564 -23.7145,22.519 -81.2255,37.508 -98.2256,25.601 -5.9679,-4.18 -6.4285,-4.109 -6.4285,0.998 0,7.147 8.4205,14.606 22.2252,19.687 15.6798,5.772 38.9877,2.577 61.5189,-8.433 z m -174.8569,-103.201 c -2.8794,-3.182 -4.3369,-5.785 -3.2389,-5.785 1.0979,0 0.7444,-2.339 -0.7856,-5.198 -1.9827,-3.705 -0.4631,-13.467 5.2903,-33.986 11.2123,-39.988 15.8306,-49.997 23.8527,-51.692 24.3664,-5.15 36.6222,-6.844 43.5777,-6.023 4.3748,0.516 7.9543,-0.364 7.9543,-1.955 0,-1.591 -4.0496,-11.564 -8.9991,-22.162 -38.7992,-83.077 -54.827,-126.234 -59.242,-159.516 -1.7772,-13.397 -2.5245,-14.5 -9.8253,-14.5 -7.3259,0 -8.0268,1.055 -9.6152,14.466 -1.6262,13.731 0.073,26.357 11.6786,86.771 3.0609,15.934 4.7629,40.363 4.8364,69.419 0.1002,39.616 -0.8009,48.367 -7.7433,75.204 -4.3212,16.704 -7.8584,34.312 -7.8604,39.128 0,9.334 6.9149,21.614 12.1784,21.614 1.7472,0 0.8209,-2.603 -2.0586,-5.785 z m 924.4716,-70.142 c 2.527,-11.39 4.0108,-35.735 4.0108,-65.804 0,-45.386 -0.4689,-49.354 -9.5637,-80.941 -11.0668,-38.436 -31.358,-79.211 -55.0809,-110.685 -18.7641,-24.895 -34.1164,-42.664 -36.8616,-42.664 -1.9719,0 -1.0105,12.132 4.5252,57.102 4.2801,34.769 0.3933,64.976 -11.4885,89.284 -18.4862,37.82 -54.687,46.66 -111.3059,27.18 -31.0772,-10.692 -65.7881,-34.571 -90.4097,-62.196 -11.7855,-13.223 -41.4974,-58.602 -44.7412,-68.334 -2.5883,-7.764 -59.5863,-4.584 -80.3902,4.486 -13.5378,5.903 -27.4574,16.885 -38.3252,30.239 -8.736,10.734 -10.8468,15.717 -10.8468,25.602 0,15.328 7.7696,36.141 20.2803,54.324 12.9087,18.763 47.6735,55.069 62.4932,65.266 29.1655,20.066 107.985,57.501 155.8552,74.023 55.6716,19.215 147.7656,-2.008 195.7296,-45.105 19.5233,-17.542 29.9294,-35.042 34.7687,-58.471 2.9619,-14.341 3.963,-16.151 5.9542,-10.768 3.3692,9.107 7.2493,62.742 5.8694,81.131 -1.3488,17.976 -5.3294,42.134 -8.131,49.347 -1.0814,2.784 -0.7031,5.062 0.8406,5.062 1.5436,0 4.6115,-8.136 6.8175,-18.078 z m -934.5952,-310.644 c 7.889,-10.637 27.0103,-20.694 43.387,-22.821 10.3943,-1.35 18.8152,-4.507 24.2939,-9.109 4.6119,-3.874 16.3264,-11.024 26.0322,-15.888 9.7058,-4.864 18.0629,-9.215 18.5713,-9.667 1.1336,-1.009 -11.3157,-30.309 -12.8779,-30.309 -2.6004,0 -53.1265,27.762 -69.5914,38.238 -25.5707,16.269 -44.2317,43.544 -44.0927,64.445 l 0.058,8.677 4.9406,-8.858 c 2.7173,-4.872 6.893,-11.49 9.2793,-14.708 z m 235.7362,-38.027 c 52.7299,-17.633 81.4716,-22.582 108.3744,-18.661 28.7288,4.187 49.5741,12.223 73.7274,28.422 11.2565,7.549 18.9548,11.249 17.9483,8.626 -0.9693,-2.526 -3.1955,-15.965 -4.9471,-29.865 -6.8632,-54.463 6.1302,-97.062 39.1592,-128.383 14.5697,-13.816 43.7198,-30.887 61.65,-36.105 8.4386,-2.455 14.9467,-5.327 14.4624,-6.382 -0.4843,-1.055 -7.2512,-13.459 -15.0375,-27.565 -32.8771,-59.557 -59.1564,-129.432 -98.5942,-262.154 -51.9195,-174.728 -62.5746,-205.919 -87.3447,-255.687 -23.3938,-47.002 -47.188,-74.458 -78.0687,-90.082 -21.8908,-11.076 -51.4812,-13.221 -73.4419,-5.324 -41.6756,14.987 -91.5806,76.296 -119.0383,146.242 -12.6457,32.214 -26.1137,89.796 -31.3377,133.985 -7.5033,63.469 -3.0577,171.064 10.2802,248.809 14.1079,82.233 47.9518,192.448 82.5846,268.943 2.881,6.363 9.1169,20.289 13.8575,30.947 l 8.6192,19.377 21.2187,-6.768 c 11.6702,-3.722 36.8379,-11.991 55.9282,-18.375 z m -58.5146,-105.482 c -28.213,-56.774 -45.9951,-103.881 -57.0368,-151.096 -2.6043,-11.136 -6.5271,-27.407 -8.7175,-36.156 -14.8203,-59.202 -16.9757,-177.414 -4.5078,-247.235 3.402,-19.05 6.9379,-35.321 7.8577,-36.155 0.9198,-0.835 0.8876,2.386 -0.072,7.159 -4.0821,20.311 -5.4596,123.208 -2.1878,163.424 6.0125,73.906 22.6262,162.907 39.6015,212.151 5.3995,15.664 9.1155,29.615 8.2578,31.003 -1.3583,2.197 0.9358,8.487 13.1189,35.97 12.4095,27.992 20.5038,48.445 19.5501,49.399 -0.6319,0.632 -7.7709,-12.177 -15.8645,-28.464 z m 234.9552,-187.252 c -2.468,-4.773 -3.8365,-8.678 -3.0411,-8.678 0.7955,0 3.4655,3.905 5.9335,8.678 2.468,4.772 3.8365,8.677 3.041,8.677 -0.7954,0 -3.4655,-3.905 -5.9334,-8.677 z m -9.3615,-15.116 c -6.0433,-7.538 -15.2245,-28.25 -15.2245,-34.345 0,-3.468 -1.8253,-7.75 -4.0562,-9.516 -6.6138,-5.236 -22.8681,-45.417 -19.6673,-48.618 3.0964,-3.096 1.2507,-13.889 -2.3753,-13.889 -1.2564,0 -1.7291,2.929 -1.0504,6.508 0.6786,3.58 -0.75,1.415 -3.1748,-4.809 -2.4247,-6.225 -3.7527,-11.974 -2.9509,-12.775 0.8017,-0.802 1.4577,0.277 1.4577,2.399 0,2.121 0.8598,2.996 1.9106,1.946 1.0508,-1.051 -0.5466,-4.626 -3.5498,-7.945 -3.3561,-3.708 -5.4605,-10.312 -5.4605,-17.137 0,-6.106 -0.9009,-10.546 -2.002,-9.866 -2.1485,1.328 -6.701,-11.791 -9.3364,-26.905 -3.3042,-18.949 3.576,-11.526 11.9965,12.942 9.0608,26.329 34.4587,97.374 49.7668,139.211 8.6501,23.641 9.737,30.309 3.7165,22.799 z m 457.1146,201.244 c 18.9214,-9.76 50.1565,-35.319 62.7675,-51.363 12.4639,-15.857 13.4688,-16.49 23.6857,-14.915 18.6162,2.87 46.7298,16.406 58.0266,27.938 13.7683,14.056 14.5145,6.697 0.8542,-8.424 -6.2851,-6.957 -18.895,-15.201 -33.9866,-22.22 -38.577,-17.942 -59.3933,-35.736 -118.6717,-101.443 -47.7282,-52.904 -76.6907,-80.303 -103.6804,-98.084 -30.3944,-20.024 -44.1902,-25.235 -71.0258,-26.826 -31.2879,-1.855 -46.5512,3.455 -78.5262,27.319 -28.7291,21.442 -33.2394,24.014 -59.3509,33.842 -22.6482,8.525 -33.8403,15.451 -33.8403,20.941 0,10.693 50.2048,115.014 58.773,122.124 2.5652,2.129 6.9401,0.369 15.5472,-6.256 l 11.9774,-9.218 -1.6024,-33.264 c -1.921,-39.876 2.195,-67.866 13.4931,-91.756 16.4387,-34.759 37.4688,-49.975 69.0734,-49.975 23.0622,0 40.7365,8.107 59.5204,27.301 l 14.1856,14.496 -10.7428,2.232 c -5.9086,1.228 -13.379,3.643 -16.6009,5.367 -7.2852,3.899 -16.7879,24.27 -16.8726,36.17 l -0.064,8.915 15.3456,-1.272 c 32.146,-2.666 71.3788,14.434 92.3044,40.232 23.0779,28.451 30.7499,54.259 33.204,111.696 0.9686,22.67 2.9284,41.218 4.3552,41.218 1.4267,0 6.7596,-2.149 11.8509,-4.775 z"
             id="path137" /><path
             style="fill:#57b83a"
             d="m -3295.6847,14620.266 c -29.2668,-8.903 -38.7055,-21.369 -69.515,-91.815 l -5.2841,-12.082 -15.333,4.045 c -54.1507,14.284 -162.0248,16.55 -219.3433,4.607 -120.3938,-25.086 -224.4549,-94.639 -313.2983,-209.404 l -17.8893,-23.108 -1.8823,24.222 c -1.0352,13.322 -2.0114,51.936 -2.1693,85.809 -0.3809,81.712 -5.0969,105.374 -28.3381,142.184 -37.4173,59.263 -108.4704,90.517 -155.7389,68.506 -19.0521,-8.872 -30.2527,-22.15 -30.2527,-35.863 0,-6.617 5.7751,-22.743 15.7538,-43.987 16.1851,-34.458 21.654,-51.886 21.7775,-69.399 l 0.071,-10.024 -15.1854,14.598 c -22.6196,21.746 -38.3146,32.974 -56.6102,40.499 -20.9221,8.606 -34.5892,8.718 -46.797,0.385 -21.5951,-14.741 -24.8007,-36.096 -12.9166,-86.051 14.2306,-59.819 13.2907,-80.118 -9.174,-198.134 -11.1932,-58.803 -13.0329,-73.4 -12.0296,-95.451 2.3494,-51.632 22.0904,-77.129 87.3388,-112.807 20.366,-11.136 37.6009,-21.645 38.2999,-23.354 0.6989,-1.709 -5.1566,-22.535 -13.0122,-46.28 -74.033,-223.773 -77.9174,-445.074 -10.4123,-593.204 15.2891,-33.55 40.4569,-69.846 65.2048,-94.036 47.7162,-46.64 96.6838,-56.86 148.0917,-30.91 35.3727,17.856 63.6344,51.758 91.5633,109.834 21.1581,43.997 36.3327,88.156 68.3642,198.942 29.5261,102.121 55.5528,182.53 59.0807,182.53 1.403,0 3.2628,-1.152 4.133,-2.56 0.8703,-1.408 14.8514,-8.159 31.0692,-15.002 17.329,-7.313 37.9158,-18.814 49.9298,-27.895 49.8308,-37.664 90.5129,-44.318 142.5228,-23.31 38.6358,15.605 86.733,56.756 151.5132,129.629 40.0365,45.038 65.1482,66.627 95.5552,82.149 49.4541,25.245 66.1682,42.712 66.1682,69.149 0,25.386 -32.3356,65.707 -61.3296,76.475 -26.0123,9.661 -53.7033,13.109 -92.3596,11.502 -19.6721,-0.818 -37.7142,-1.976 -40.0935,-2.573 -3.5142,-0.882 -4.7933,4.475 -6.8167,28.55 l -2.4907,29.636 17.3181,19.536 c 48.6477,54.879 85.8049,117.526 100.354,169.197 13.4386,47.726 15.2292,110.825 4.4538,156.941 -3.15,13.481 -6.8318,9.59 44.5632,47.101 30.632,22.356 35.2565,26.883 41.5863,40.709 17.153,37.468 -2.1001,83.751 -43.4301,104.404 -14.5851,7.288 -20.9339,8.769 -36.6983,8.564 -10.4842,-0.137 -22.3246,-1.241 -26.3121,-2.454 z m -752.5148,-32.463 c 23.4577,-11.195 53.2566,-40.396 66.2231,-64.894 15.7109,-29.683 18.0546,-46.082 18.1504,-126.999 0.1764,-148.946 9.41,-207.361 37.892,-239.718 14.3385,-16.29 27.0229,-20.272 59.0056,-18.527 15.7845,0.861 26.8173,3.17 34.7096,7.265 12.2182,6.339 27.8433,21.028 22.3684,21.028 -1.7743,0 -4.0419,-1.32 -5.0392,-2.933 -0.9972,-1.614 -7.2567,-5.776 -13.9099,-9.249 -9.2934,-4.851 -17.1241,-6.317 -33.7902,-6.323 -26.412,-0.01 -40.8721,4.558 -50.4483,15.938 -9.9037,11.77 -18.9959,42.669 -20.7565,70.54 l -1.4618,23.14 21.1478,28.015 c 50.9647,67.513 98.4199,114.106 154.2444,151.442 66.6875,44.6 130.1544,66.483 213.6361,73.66 60.581,5.209 144.8856,-5.054 179.0873,-21.801 18.874,-9.242 45.1529,-31.689 54.1601,-46.263 3.4314,-5.552 7.3362,-9.416 8.6775,-8.587 1.3412,0.829 4.8022,-8.6 7.691,-20.953 8.3503,-35.706 7.0148,-97.799 -2.9094,-135.266 -13.1094,-49.491 -46.5858,-109.654 -85.2662,-153.238 -5.2683,-5.937 -10.3167,-10.056 -11.2186,-9.154 -0.9019,0.902 0.027,18.474 2.065,39.048 5.8297,58.862 1.6951,89.869 -15.3319,114.978 -13.5406,19.969 -26.5514,25.779 -57.0484,25.479 -78.8875,-0.777 -160.1161,-71.331 -192.8276,-167.486 -3.7818,-11.116 -9.4595,-33.099 -12.617,-48.85 -9.33,-46.54 -26.3491,-76.395 -46.3573,-81.317 -15.1101,-3.718 -27.693,18.346 -30.9594,54.287 -0.8354,9.193 -2.7904,17.5 -4.3444,18.46 -1.7987,1.112 -2.3815,-9.167 -1.6036,-28.284 1.7779,-43.693 12.1079,-60.401 37.3443,-60.401 12.3505,0 23.3356,6.491 36.7184,21.694 15.8433,17.999 22.1404,32.556 33.6105,77.697 15.1048,59.446 35.4835,98.988 69.3251,134.516 42.8084,44.941 106.6979,69.502 137.6342,52.91 12.9059,-6.921 15.4117,-13.167 4.0077,-9.989 -18.4338,5.137 -41.1387,1.914 -62.7383,-8.906 -45.4623,-22.773 -80.3739,-56.698 -102.8064,-99.901 -12.8173,-24.685 -19.4366,-44.664 -30.6491,-92.506 -4.2476,-18.124 -10.7349,-39.763 -14.4162,-48.087 -11.93,-26.976 -35.71,-47.675 -54.7711,-47.675 -4.1344,0 -7.5171,-1.483 -7.5171,-3.295 0,-5.56 28.2816,-0.524 41.9093,7.462 12.7787,7.489 28.6427,28.352 37.5198,49.344 2.691,6.363 9.9811,30.85 16.2001,54.415 13.1572,49.855 28.8906,83.012 53.4012,112.539 26.1872,31.547 78.3709,62.997 104.527,62.997 12.4575,0 29.6488,-9.027 35.6339,-18.711 6.979,-11.292 7.5463,-30.931 2.4994,-86.524 -2.8487,-31.379 -2.5564,-49.33 1.8517,-113.704 7.0592,-103.091 4.1837,-145.813 -12.033,-178.775 -9.1746,-18.649 -24.7,-34.69 -42.8808,-44.304 -19.6272,-10.38 -54.0396,-10.91 -73.7579,-1.136 -7.1589,3.548 -36.4419,27.178 -65.0733,52.509 -50.769,44.917 -52.6519,46.251 -76.0886,53.874 -57.6018,18.738 -90.0322,54.206 -94.6069,103.469 -2.1526,23.18 1.8248,58.368 10.4585,92.527 9.7202,38.457 0.2226,44.8 -26.4333,17.652 -19.9149,-20.282 -48.7111,-39.611 -69.3204,-46.53 -11.438,-3.84 -23.6305,-5.25 -43.387,-5.017 -30.5099,0.36 -42.4609,3.299 -111.3601,27.384 -40.6825,14.221 -45.5055,15.25 -77.3735,16.502 -36.0122,1.416 -43.8604,-1.53 -20.2473,-7.6 21.5672,-5.543 21.8202,-5.943 14.5992,-23.034 -3.4907,-8.262 -7.5333,-15.023 -8.9834,-15.023 -8.2689,0 -39.0807,20.589 -52.4946,35.078 -44.9308,48.53 -37.4177,104.569 33.3006,248.384 37.1696,75.59 43.2119,109.766 28.1482,159.212 -4.1406,13.592 -8.4766,31.035 -9.6354,38.763 l -2.107,14.051 18.0545,-1.638 c 11.7534,-1.065 24.4564,-4.788 36.3976,-10.667 47.8259,-23.545 59.9022,-61.964 63.2318,-201.167 2.5372,-106.072 8.8215,-151.445 26.0768,-188.278 16.9751,-36.236 40.4743,-53.356 72.5162,-52.832 l 17.3548,0.284 -13.0161,2.794 c -42.6557,9.157 -62.7728,33.13 -75.0426,89.428 -6.0342,27.686 -9.2198,70.313 -11.754,157.282 -2.8521,97.875 -7.1635,129.692 -21.5623,159.122 -8.3703,17.109 -29.6081,38.391 -47.3353,47.434 -26.6484,13.595 -63.1427,18.562 -75.0597,10.215 -5.9679,-4.18 -6.4285,-4.109 -6.4285,0.998 0,7.134 8.3994,14.589 22.2252,19.724 15.5855,5.79 38.5748,2.783 61.1646,-7.998 z m 564.5231,-146.099 c -93.2409,-14.744 -182.0093,-54.166 -254.5372,-113.04 -21.1335,-17.155 -56.4051,-51.663 -50.6182,-49.523 1.5909,0.588 18.5118,11.594 37.6021,24.457 96.0651,64.729 177.2116,102.286 274.7845,127.177 l 49.172,12.544 -24.586,-0.236 c -13.5223,-0.129 -27.84,-0.75 -31.8172,-1.379 z m -704.7209,41.748 c 18.2913,-9.635 62.5929,-50.922 62.5929,-58.334 0,-5.348 -20.9623,-55.368 -34.5499,-82.442 -32.8067,-65.369 -55.1166,-134.451 -55.1166,-170.668 0,-47.266 28.166,-91.259 73.5229,-114.837 11.2653,-5.857 20.8983,-10.983 21.4067,-11.391 1.1007,-0.885 -11.3043,-30.23 -12.7792,-30.23 -0.5604,0 -13.7416,6.743 -29.2916,14.984 -53.7804,28.504 -68.4764,41.338 -80.5448,70.344 -7.3081,17.564 -4.1119,60.714 9.9103,133.79 20.109,104.799 21.0965,130.224 7.3299,188.72 -8.5592,36.369 -9.2962,52.329 -2.8694,62.138 6.6015,10.075 18.4841,9.465 40.3888,-2.074 z m 186.9691,-416.665 c 83.6084,-29.084 131.282,-27.338 182.9158,6.7 11.5517,7.615 21.2212,13.638 21.4876,13.385 0.2663,-0.254 -0.8396,-6.968 -2.4576,-14.921 -1.6181,-7.953 -2.9941,-28.127 -3.0578,-44.831 -0.1724,-45.188 11.1793,-73.931 40.1969,-101.778 14.801,-14.205 40.2163,-29.175 60.2036,-35.462 8.9454,-2.813 15.8774,-5.951 15.4044,-6.973 -0.4731,-1.021 -7.2308,-13.397 -15.0171,-27.503 -32.8771,-59.557 -59.1564,-129.432 -98.5942,-262.154 -51.9195,-174.728 -62.5746,-205.919 -87.3447,-255.687 -23.3927,-47 -47.1725,-74.44 -78.0847,-90.102 -14.9508,-7.576 -19.787,-8.539 -42.8834,-8.539 -33.9351,0 -47.0008,6.263 -78.1968,37.484 -56.2273,56.272 -88.3826,132.295 -102.8168,243.086 -4.41,33.849 -4.4708,139.074 -0.1027,177.887 9.2869,82.517 25.9042,157.837 52.3287,237.182 14.2974,42.931 45.6863,120.811 59.6604,148.026 l 3.9751,7.741 21.0062,-6.488 c 11.5534,-3.568 34.6731,-11.242 51.3771,-17.053 z m 717.5149,-73.169 c 24.7251,-5.624 43.8747,-18.094 56.75,-36.956 19.5224,-28.6 11.264,-45.913 -31.9671,-67.016 -47.1028,-22.993 -58.775,-32.742 -119.4504,-99.778 -49.0675,-54.211 -78.2739,-81.851 -105.3197,-99.668 -30.3944,-20.024 -44.1902,-25.235 -71.0258,-26.826 -31.2879,-1.855 -46.5512,3.455 -78.5262,27.319 -28.7291,21.442 -33.2394,24.014 -59.3509,33.842 -22.6482,8.525 -33.8403,15.451 -33.8403,20.941 0,12.725 55.7948,125.531 62.0105,125.372 1.6885,-0.04 7.8478,-4.521 13.6874,-9.952 l 10.6173,-9.874 -1.6057,-32.712 c -1.9291,-39.301 2.2246,-67.407 13.4788,-91.204 16.4048,-34.688 37.4827,-49.975 68.9057,-49.975 9.7635,0 21.3924,1.571 25.8421,3.49 13.0548,5.632 32.3494,19.419 35.5528,25.405 2.5511,4.767 0.3445,4.311 -15.8696,-3.276 -26.0106,-12.172 -47.795,-13.799 -65.0618,-4.858 -28.7424,14.882 -43.4287,49.047 -43.4287,101.028 0,17.331 0.9933,31.512 2.2074,31.512 1.214,0 12.6031,-9.155 25.3091,-20.344 12.7059,-11.189 30.2606,-23.88 39.0103,-28.201 14.3991,-7.112 18.9276,-7.857 47.7257,-7.844 30.036,0.01 32.7914,0.523 49.219,9.101 9.571,4.998 23.6544,15.771 31.2964,23.941 27.5912,29.497 36.8804,63.065 38.078,137.6 l 0.7902,49.172 9.7274,1.788 c 20.2565,3.725 75.08,2.558 95.2381,-2.027 z"
             id="path136" /><path
             style="fill:#956945"
             d="m -3295.6847,14620.266 c -29.2668,-8.903 -38.7055,-21.369 -69.515,-91.815 l -5.2841,-12.082 -15.333,4.045 c -54.1507,14.284 -162.0248,16.55 -219.3433,4.607 -120.3938,-25.086 -224.4549,-94.639 -313.2983,-209.404 l -17.8893,-23.108 -1.8823,24.222 c -1.0352,13.322 -2.0114,51.936 -2.1693,85.809 -0.3809,81.712 -5.0969,105.374 -28.3381,142.184 -37.4173,59.263 -108.4704,90.517 -155.7389,68.506 -19.0521,-8.872 -30.2527,-22.15 -30.2527,-35.863 0,-6.617 5.7751,-22.743 15.7538,-43.987 16.1851,-34.458 21.654,-51.886 21.7775,-69.399 l 0.071,-10.024 -15.1854,14.598 c -22.6196,21.746 -38.3146,32.974 -56.6102,40.499 -20.9221,8.606 -34.5892,8.718 -46.797,0.385 -21.5951,-14.741 -24.8007,-36.096 -12.9166,-86.051 14.2306,-59.819 13.2907,-80.118 -9.174,-198.134 -11.1932,-58.803 -13.0329,-73.4 -12.0296,-95.451 2.3494,-51.632 22.0904,-77.129 87.3388,-112.807 20.366,-11.136 37.6009,-21.645 38.2999,-23.354 0.6989,-1.709 -5.1566,-22.535 -13.0122,-46.28 -74.033,-223.773 -77.9174,-445.074 -10.4123,-593.204 15.2891,-33.55 40.4569,-69.846 65.2048,-94.036 47.7162,-46.64 96.6838,-56.86 148.0917,-30.91 35.3727,17.856 63.6344,51.758 91.5633,109.834 21.1581,43.997 36.3327,88.156 68.3642,198.942 29.5261,102.121 55.5528,182.53 59.0807,182.53 1.403,0 3.2628,-1.152 4.133,-2.56 0.8703,-1.408 14.8514,-8.159 31.0692,-15.002 17.329,-7.313 37.9158,-18.814 49.9298,-27.895 49.8308,-37.664 90.5129,-44.318 142.5228,-23.31 38.6358,15.605 86.733,56.756 151.5132,129.629 40.0365,45.038 65.1482,66.627 95.5552,82.149 49.4541,25.245 66.1682,42.712 66.1682,69.149 0,25.386 -32.3356,65.707 -61.3296,76.475 -26.0123,9.661 -53.7033,13.109 -92.3596,11.502 -19.6721,-0.818 -37.7142,-1.976 -40.0935,-2.573 -3.5142,-0.882 -4.7933,4.475 -6.8167,28.55 l -2.4907,29.636 17.3181,19.536 c 48.6477,54.879 85.8049,117.526 100.354,169.197 13.4386,47.726 15.2292,110.825 4.4538,156.941 -3.15,13.481 -6.8318,9.59 44.5632,47.101 30.632,22.356 35.2565,26.883 41.5863,40.709 17.153,37.468 -2.1001,83.751 -43.4301,104.404 -14.5851,7.288 -20.9339,8.769 -36.6983,8.564 -10.4842,-0.137 -22.3246,-1.241 -26.3121,-2.454 z m 43.9645,-20.946 c 24.9652,-7.48 46.0343,-35.465 46.4373,-61.681 0.299,-19.449 -6.3804,-27.406 -49.5891,-59.075 -22.3213,-16.359 -42.164,-31.648 -44.0947,-33.974 -2.7769,-3.346 -2.3455,-9.782 2.0645,-30.794 8.5247,-40.619 7.4039,-98.387 -2.648,-136.478 -13.0465,-49.438 -46.5132,-109.604 -85.2375,-153.238 -5.2683,-5.937 -10.3167,-10.056 -11.2186,-9.154 -0.9019,0.902 0.027,18.474 2.065,39.048 5.8297,58.862 1.6951,89.869 -15.3319,114.978 -13.5406,19.969 -26.5514,25.779 -57.0484,25.479 -78.8875,-0.777 -160.1161,-71.331 -192.8276,-167.486 -3.7818,-11.116 -9.4595,-33.099 -12.617,-48.85 -9.33,-46.54 -26.3491,-76.395 -46.3573,-81.317 -15.1101,-3.718 -27.693,18.346 -30.9594,54.287 -0.8354,9.193 -2.7904,17.5 -4.3444,18.46 -1.7987,1.112 -2.3815,-9.167 -1.6036,-28.284 1.7779,-43.693 12.1079,-60.401 37.3443,-60.401 12.3505,0 23.3356,6.491 36.7184,21.694 15.8433,17.999 22.1404,32.556 33.6105,77.697 15.1048,59.446 35.4835,98.988 69.3251,134.516 42.8084,44.941 106.6979,69.502 137.6342,52.91 12.9059,-6.921 15.4117,-13.167 4.0077,-9.989 -18.4338,5.137 -41.1387,1.914 -62.7383,-8.906 -45.4623,-22.773 -80.3739,-56.698 -102.8064,-99.901 -12.8173,-24.685 -19.4366,-44.664 -30.6491,-92.506 -4.2476,-18.124 -10.7349,-39.763 -14.4162,-48.087 -11.93,-26.976 -35.71,-47.675 -54.7711,-47.675 -4.1344,0 -7.5171,-1.483 -7.5171,-3.295 0,-5.56 28.2816,-0.524 41.9093,7.462 12.7787,7.489 28.6427,28.352 37.5198,49.344 2.691,6.363 9.9811,30.85 16.2001,54.415 13.1572,49.855 28.8906,83.012 53.4012,112.539 26.1872,31.547 78.3709,62.997 104.527,62.997 12.4575,0 29.6488,-9.027 35.6339,-18.711 6.979,-11.292 7.5463,-30.931 2.4994,-86.524 -2.8487,-31.379 -2.5564,-49.33 1.8517,-113.704 7.0592,-103.091 4.1837,-145.813 -12.033,-178.775 -9.1746,-18.649 -24.7,-34.69 -42.8808,-44.304 -19.6272,-10.38 -54.0396,-10.91 -73.7579,-1.136 -7.1589,3.548 -36.4419,27.178 -65.0733,52.509 -50.769,44.917 -52.6519,46.251 -76.0886,53.874 -57.6018,18.738 -90.0322,54.206 -94.6069,103.469 -2.1526,23.18 1.8248,58.368 10.4585,92.527 9.7202,38.457 0.2226,44.8 -26.4333,17.652 -19.9149,-20.282 -48.7111,-39.611 -69.3204,-46.53 -11.438,-3.84 -23.6305,-5.25 -43.387,-5.017 -30.5099,0.36 -42.4609,3.299 -111.3601,27.384 -40.6825,14.221 -45.5055,15.25 -77.3735,16.502 -36.0122,1.416 -43.8604,-1.53 -20.2473,-7.6 21.5672,-5.543 21.8202,-5.943 14.5992,-23.034 -3.4907,-8.262 -7.5333,-15.023 -8.9834,-15.023 -8.2689,0 -39.0807,20.589 -52.4946,35.078 -44.9308,48.53 -37.4177,104.569 33.3006,248.384 37.1696,75.59 43.2119,109.766 28.1482,159.212 -4.1406,13.592 -8.4766,31.035 -9.6354,38.763 l -2.107,14.051 18.0545,-1.638 c 11.7534,-1.065 24.4564,-4.788 36.3976,-10.667 47.8259,-23.545 59.9022,-61.964 63.2318,-201.167 2.5372,-106.072 8.8215,-151.445 26.0768,-188.278 16.9751,-36.236 40.4743,-53.356 72.5162,-52.832 l 17.3548,0.284 -13.0161,2.794 c -42.6557,9.157 -62.7728,33.13 -75.0426,89.428 -6.0342,27.686 -9.2198,70.313 -11.754,157.282 -2.8521,97.875 -7.1635,129.692 -21.5623,159.122 -8.3703,17.109 -29.6081,38.391 -47.3353,47.434 -26.6484,13.595 -63.1427,18.562 -75.0597,10.215 -5.996,-4.2 -6.4285,-4.117 -6.4285,1.236 0,3.156 3.424,8.432 7.6088,11.724 46.1764,36.322 137.2253,-22.906 155.7006,-101.286 3.2702,-13.873 4.3898,-36.708 4.4539,-90.843 0.1764,-148.946 9.41,-207.361 37.892,-239.718 14.3385,-16.29 27.0229,-20.272 59.0056,-18.527 15.7845,0.861 26.8173,3.17 34.7096,7.265 12.2182,6.339 27.8433,21.028 22.3684,21.028 -1.7743,0 -4.0419,-1.32 -5.0392,-2.933 -0.9972,-1.614 -7.2567,-5.776 -13.9099,-9.249 -9.2934,-4.851 -17.1241,-6.317 -33.7902,-6.323 -26.412,-0.01 -40.8721,4.558 -50.4483,15.938 -9.9037,11.77 -18.9959,42.669 -20.7565,70.54 l -1.4618,23.14 21.1478,28.015 c 80.6396,106.824 165.3713,173.057 261.5658,204.46 74.7413,24.4 163.9405,28.667 244.0705,11.678 15.1131,-3.205 32.6245,-6.084 38.914,-6.398 13.172,-0.659 10.5241,-4.338 36.0222,50.046 18.0952,38.594 25.0655,47.358 42.6576,53.63 13.8917,4.953 24.6082,5.177 39.1582,0.818 z m -38.1608,-24.546 c 0,-9.692 14.6884,-29.79 26.8322,-36.714 15.3719,-8.766 24.7405,-10.948 35.1031,-8.176 8.1058,2.167 8.0499,2.246 -9.0673,12.812 -9.4728,5.847 -24.3989,16.538 -33.1691,23.758 -17.5883,14.48 -19.6989,15.371 -19.6989,8.32 z m -193.7954,-133.07 c -93.2409,-14.744 -182.0093,-54.166 -254.5372,-113.04 -21.1335,-17.155 -56.4051,-51.663 -50.6182,-49.523 1.5909,0.588 18.5118,11.594 37.6021,24.457 96.0651,64.729 177.2116,102.286 274.7845,127.177 l 49.172,12.544 -24.586,-0.236 c -13.5223,-0.129 -27.84,-0.75 -31.8172,-1.379 z m -704.7209,41.748 c 18.2913,-9.635 62.5929,-50.922 62.5929,-58.334 0,-5.348 -20.9623,-55.368 -34.5499,-82.442 -32.8067,-65.369 -55.1166,-134.451 -55.1166,-170.668 0,-47.266 28.166,-91.259 73.5229,-114.837 11.2653,-5.857 20.8983,-10.983 21.4067,-11.391 1.1007,-0.885 -11.3043,-30.23 -12.7792,-30.23 -0.5604,0 -13.7416,6.743 -29.2916,14.984 -53.7804,28.504 -68.4764,41.338 -80.5448,70.344 -7.3081,17.564 -4.1119,60.714 9.9103,133.79 20.109,104.799 21.0965,130.224 7.3299,188.72 -8.5592,36.369 -9.2962,52.329 -2.8694,62.138 6.6015,10.075 18.4841,9.465 40.3888,-2.074 z m 186.9691,-416.665 c 83.6084,-29.084 131.282,-27.338 182.9158,6.7 11.5517,7.615 21.2212,13.638 21.4876,13.385 0.2663,-0.254 -0.8396,-6.968 -2.4576,-14.921 -1.6181,-7.953 -2.9941,-28.127 -3.0578,-44.831 -0.1724,-45.188 11.1793,-73.931 40.1969,-101.778 14.801,-14.205 40.2163,-29.175 60.2036,-35.462 8.9454,-2.813 15.8774,-5.951 15.4044,-6.973 -0.4731,-1.021 -7.2308,-13.397 -15.0171,-27.503 -32.8771,-59.557 -59.1564,-129.432 -98.5942,-262.154 -51.9195,-174.728 -62.5746,-205.919 -87.3447,-255.687 -23.3927,-47 -47.1725,-74.44 -78.0847,-90.102 -14.9508,-7.576 -19.787,-8.539 -42.8834,-8.539 -33.9351,0 -47.0008,6.263 -78.1968,37.484 -56.2273,56.272 -88.3826,132.295 -102.8168,243.086 -4.41,33.849 -4.4708,139.074 -0.1027,177.887 9.2869,82.517 25.9042,157.837 52.3287,237.182 14.2974,42.931 45.6863,120.811 59.6604,148.026 l 3.9751,7.741 21.0062,-6.488 c 11.5534,-3.568 34.6731,-11.242 51.3771,-17.053 z m 717.5149,-73.169 c 24.7251,-5.624 43.8747,-18.094 56.75,-36.956 19.5224,-28.6 11.264,-45.913 -31.9671,-67.016 -47.1028,-22.993 -58.775,-32.742 -119.4504,-99.778 -49.0675,-54.211 -78.2739,-81.851 -105.3197,-99.668 -30.3944,-20.024 -44.1902,-25.235 -71.0258,-26.826 -31.2879,-1.855 -46.5512,3.455 -78.5262,27.319 -28.7291,21.442 -33.2394,24.014 -59.3509,33.842 -22.6482,8.525 -33.8403,15.451 -33.8403,20.941 0,12.725 55.7948,125.531 62.0105,125.372 1.6885,-0.04 7.8478,-4.521 13.6874,-9.952 l 10.6173,-9.874 -1.6057,-32.712 c -1.9291,-39.301 2.2246,-67.407 13.4788,-91.204 16.4048,-34.688 37.4827,-49.975 68.9057,-49.975 9.7635,0 21.3924,1.571 25.8421,3.49 13.0548,5.632 32.3494,19.419 35.5528,25.405 2.5511,4.767 0.3445,4.311 -15.8696,-3.276 -26.0106,-12.172 -47.795,-13.799 -65.0618,-4.858 -28.7424,14.882 -43.4287,49.047 -43.4287,101.028 0,17.331 0.9933,31.512 2.2074,31.512 1.214,0 12.6031,-9.155 25.3091,-20.344 12.7059,-11.189 30.2606,-23.88 39.0103,-28.201 14.3991,-7.112 18.9276,-7.857 47.7257,-7.844 30.036,0.01 32.7914,0.523 49.219,9.101 9.571,4.998 23.6544,15.771 31.2964,23.941 27.5912,29.497 36.8804,63.065 38.078,137.6 l 0.7902,49.172 9.7274,1.788 c 20.2565,3.725 75.08,2.558 95.2381,-2.027 z"
             id="path134" /><path
             style="fill:#521d24"
             d="m -3293.3427,14619.089 c -27.3578,-7.704 -35.3721,-15.826 -54.021,-54.746 -9.3239,-19.459 -17.9111,-38.457 -19.0828,-42.218 -1.8127,-5.818 -3.4875,-6.594 -11.2313,-5.207 -5.0055,0.896 -20.0351,3.621 -33.3992,6.056 -109.1734,19.886 -216.9311,6.14 -308.3356,-39.334 -72.8427,-36.239 -141.5115,-94.844 -199.3856,-170.166 -9.1677,-11.931 -17.698,-22.079 -18.9563,-22.55 -1.2583,-0.471 -2.9112,41.18 -3.6731,92.559 -1.541,103.921 -2.6475,111.498 -21.6302,148.106 -14.3394,27.653 -47.6392,61.167 -73.08,73.55 -34.8101,16.943 -65.6686,18.44 -93.1403,4.519 -29.1742,-14.784 -30.6128,-30.688 -7.1682,-79.249 16.1845,-33.522 24.9104,-63.999 21.138,-73.83 -1.7589,-4.584 -4.5387,-2.894 -20.0086,12.162 -33.3662,32.474 -60.4999,46.303 -85.3519,43.502 -16.0749,-1.812 -27.4944,-12.772 -32.4388,-31.134 -3.5141,-13.05 -3.1955,-15.522 8.0001,-62.06 12.9196,-53.704 11.0521,-84.582 -12.246,-202.472 -13.2739,-67.167 -14.3453,-79.66 -9.0201,-105.168 8.5813,-41.106 27.3931,-62.326 80.7272,-91.061 19.3908,-10.448 37.5765,-20.696 40.4126,-22.774 4.854,-3.557 4.2247,-6.577 -10.7238,-51.474 -70.795,-212.625 -77.7862,-427.187 -18.6512,-572.406 27.2026,-66.801 74.4152,-125.105 118.2237,-145.996 38.6947,-18.452 85.5978,-12.633 122.4667,15.194 51.7554,39.062 86.8322,116.294 146.6439,322.879 21.1104,72.914 44.9731,150.108 47.9955,155.263 1.0396,1.773 33.2469,-11.802 63.3748,-26.712 6.4301,-3.183 18.7954,-11.661 27.4784,-18.841 8.683,-7.18 24.2478,-17.23 34.5883,-22.334 17.8631,-8.816 20.4607,-9.279 52.0645,-9.279 29.232,0 35.4013,0.902 50.9039,7.441 41.8258,17.644 60.9687,34.394 180.4935,157.933 40.544,41.906 42.9042,43.811 70.8655,57.188 35.2262,16.853 42.9384,22.178 53.7679,37.128 16.2585,22.444 10.2642,51.62 -16.4795,80.211 -24.2321,25.906 -70.2299,39.41 -124.0663,36.422 -15.9107,-0.883 -32.9631,-2.412 -37.8943,-3.399 -8.8373,-1.767 -8.9927,-1.596 -10.8429,11.902 -1.0324,7.533 -1.8771,22.126 -1.8771,32.43 0,18.676 0.049,18.786 15.767,35.764 21.5385,23.264 49.4105,61.265 66.0135,90.004 39.1509,67.767 53.3547,142.873 41.1231,217.445 -4.3664,26.62 -4.535,31.724 -1.1134,33.7 4.0488,2.338 50.5464,36.763 68.6955,50.859 19.2837,14.977 26.094,47.688 16.0596,77.137 -13.5004,39.622 -61.9869,64.601 -102.9857,53.056 z m 41.9916,-19.469 c 13.6893,-3.801 32.3001,-20.257 40.0169,-35.383 6.8583,-13.444 7.9441,-38.311 2.0946,-47.974 -2.195,-3.626 -23.9617,-21.53 -48.3704,-39.787 -41.8173,-31.277 -44.2648,-33.643 -42.3941,-40.971 16.7818,-65.747 16.2098,-114.494 -2.042,-174.038 -7.7446,-25.266 -31.2934,-70.703 -50.7514,-97.924 -18.2326,-25.507 -40.7173,-52.541 -43.6991,-52.541 -1.1217,0 -0.9103,12.039 0.4698,26.755 4.347,46.351 3.72,85.84 -1.6448,103.59 -16.4324,54.367 -63.2737,67.692 -129.9393,36.964 -74.4771,-34.329 -126.4515,-108.343 -142.4131,-202.805 -5.3751,-31.81 -16.5308,-57.036 -31.0062,-70.114 -23.6868,-21.399 -41.3449,-9.017 -48.8848,34.281 -1.8451,10.595 -4.0599,19.264 -4.9216,19.264 -3.6353,0 2.1421,-43.957 7.3141,-55.649 11.3395,-25.635 35.4608,-27.336 60.4888,-4.266 17.059,15.724 25.5584,33.227 35.9439,74.019 4.708,18.492 11.094,40.459 14.1911,48.815 27.4274,74.002 77.6783,126.803 140.8381,147.984 31.1223,10.437 51.4142,7.421 67.3411,-10.009 l 7.2312,-7.914 -8.6774,2.577 c -4.7726,1.417 -17.7887,2.415 -28.9247,2.217 -23.2604,-0.414 -38.2981,-6.056 -65.8236,-24.696 -54.3968,-36.837 -85.9281,-86.072 -102.0876,-159.406 -15.1446,-68.729 -29.6924,-96.42 -57.6765,-109.784 l -11.5947,-5.537 10.0518,1.711 c 20.8684,3.551 42.0395,24.802 55.1283,55.337 3.1892,7.44 10.3824,31.73 15.9849,53.977 15.5943,61.924 32.8327,94.662 66.7263,126.723 34.2292,32.378 65.2543,48.947 91.7373,48.991 18.5575,0.03 28.7808,-4.496 38.0484,-16.848 6.6046,-8.802 7.1983,-29.288 3.0734,-106.054 -1.7424,-32.427 -1.0779,-60.191 2.6308,-109.914 10.0611,-134.889 -4.6883,-185.897 -61.24,-211.787 -29.9144,-13.695 -66.4905,-7.977 -92.4734,14.457 -7.683,6.633 -31.7303,28.028 -53.4385,47.544 -37.5886,33.793 -40.6897,35.911 -65.0805,44.461 -47.6568,16.705 -71.9482,35.629 -86.9293,67.723 -7.6521,16.393 -8.0921,19.519 -7.9387,56.403 0.1265,30.415 1.6131,44.94 6.7235,65.695 10.7926,43.832 4.5708,52.514 -19.119,26.679 -19.126,-20.857 -49.7245,-41.691 -72.2353,-49.182 -16.138,-5.37 -23.4864,-6.106 -49.6711,-4.97 -28.3947,1.231 -35.0194,2.77 -87.1343,20.236 -63.5521,21.3 -90.857,27.204 -111.497,24.108 l -13.9733,-2.095 15.0662,-5.1 c 8.2865,-2.806 15.7791,-5.814 16.6502,-6.685 1.2405,-1.24 -11.1905,-29.389 -14.769,-33.442 -0.443,-0.502 -8.9116,3.179 -18.8189,8.18 -47.9617,24.211 -70.5746,65.777 -63.4627,116.654 5.7213,40.929 16.5956,71.49 52.652,147.97 14.25,30.227 29.8345,66.652 34.6321,80.946 7.6628,22.83 8.5493,28.807 7.2938,49.172 -0.7861,12.751 -4.204,31.54 -7.5955,41.754 -7.8196,23.551 -12.1611,49.999 -8.7869,53.53 3.6022,3.769 37.8574,-2.958 54.3395,-10.671 19.7243,-9.231 38.9196,-29.73 46.2929,-49.437 11.555,-30.883 15.2172,-62.766 17.8239,-155.17 3.0354,-107.604 10.7151,-159.056 28.9916,-194.236 12.1029,-23.297 34.0605,-40.106 57.7201,-44.188 8.2795,-1.429 7.3812,-0.656 -4.932,4.24 -19.1084,7.598 -38.841,29.015 -47.12,51.143 -13.9668,37.329 -19.2311,81.033 -21.7,180.148 -3.2043,128.643 -12.0723,169.513 -43.6279,201.069 -18.4978,18.498 -48.9063,30.246 -78.4209,30.298 -14.6376,0.03 -18.6526,-1.024 -21.9529,-5.736 -4.6663,-6.662 -7.8589,-4.796 -7.8589,4.593 0,14.345 25.9987,25.907 52.7919,23.478 35.4397,-3.214 78.2756,-34.062 99.9836,-72.004 17.8767,-31.245 20.7696,-51.051 20.7974,-142.389 0.014,-44.687 1.3474,-96.194 2.9639,-114.459 5.9399,-67.114 21.9682,-110.673 45.5725,-123.85 21.4503,-11.975 68.8749,-9.044 87.4022,5.401 6.6836,5.211 6.1702,5.173 -6.9849,-0.517 -18.2917,-7.911 -55.8733,-6.871 -71.3776,1.977 -14.8383,8.468 -25.4444,32.123 -30.9649,69.063 l -4.5424,30.395 11.3698,16.653 c 59.2177,86.737 139.4266,159.661 219.8182,199.855 88.2006,44.099 205.8718,55.533 315.8197,30.69 30.0107,-6.782 38.3171,-6.305 38.3171,2.199 0,1.489 8.968,21.179 19.9289,43.756 15.9256,32.804 21.7897,42.131 29.1926,46.433 18.0435,10.486 33.982,12.717 53.0427,7.424 z m -38.5299,-24.846 c 0,-9.692 14.6884,-29.79 26.8322,-36.714 15.3719,-8.766 24.7405,-10.948 35.1031,-8.176 8.1058,2.167 8.0499,2.246 -9.0673,12.812 -9.4728,5.847 -24.3989,16.538 -33.1691,23.758 -17.5883,14.48 -19.6989,15.371 -19.6989,8.32 z m -180.7793,-133.162 c -100.0678,-9.091 -213.7278,-63.783 -302.2629,-145.446 -15.7651,-14.542 -12.6944,-13.089 24.586,11.628 100.2812,66.488 193.5839,108.129 293.5855,131.026 16.0532,3.676 17.11,4.271 7.2312,4.074 -6.3635,-0.127 -16.7763,-0.704 -23.1398,-1.282 z m -725.0676,47.868 c 16.1291,-5.948 56.807,-40.644 68.4067,-58.347 4.7138,-7.194 4.4915,-8.296 -7.1915,-35.641 -6.6306,-15.519 -17.0299,-38.11 -23.1096,-50.202 -18.7989,-37.389 -36.934,-82.143 -45.3254,-111.853 -6.6262,-23.461 -8.0432,-34.244 -8.1071,-61.694 -0.073,-31.56 0.4006,-34.272 9.2592,-52.975 11.8601,-25.041 33.3669,-46.315 61.7374,-61.071 11.8168,-6.146 21.8291,-11.437 22.2498,-11.758 1.6013,-1.222 -14.4331,-33.534 -16.23,-32.706 -2.911,1.342 -40.1532,22.234 -61.5855,34.549 -36.8555,21.177 -54.5566,49.625 -54.5566,87.681 0,9.906 5.7737,47.829 12.8304,84.272 7.0567,36.444 14.3721,77.908 16.2564,92.143 4.7769,36.087 2.1044,80.55 -7.0504,117.295 -8.7171,34.989 -9.2182,43.387 -3.2747,54.881 5.9728,11.55 15.2557,12.961 35.6909,5.426 z m 183.3591,-417.373 c 64.1256,-21.44 87.0426,-26.108 117.7184,-23.977 28.0867,1.952 49.3275,9.542 75.9041,27.124 11.6804,7.727 21.9882,14.409 22.9063,14.849 0.9181,0.44 0.011,-9.321 -2.0161,-21.691 -14.6859,-89.627 16.132,-147.885 93.074,-175.947 l 20.7305,-7.561 -24.0288,-46.784 c -37.948,-73.885 -56.3652,-124.864 -102.0487,-282.472 -35.1082,-121.124 -47.9066,-158.611 -69.7672,-204.354 -28.1773,-58.96 -53.9397,-90.26 -87.236,-105.986 -48.2486,-22.788 -94.5108,-5.747 -141.2934,52.046 -109.8514,135.706 -116.0556,415.444 -15.1586,683.486 17.5838,46.713 47.2386,109.914 51.5733,109.914 2.1276,0 28.9666,-8.391 59.6422,-18.647 z m 740.1283,-79.342 c 15.6917,-5.017 21.761,-8.93 34.1213,-21.999 15.0629,-15.927 23.4424,-30.9 23.4424,-41.889 0,-11.121 -20.186,-28.942 -49.3751,-43.59 -38.7759,-19.459 -64.4661,-41.228 -113.2562,-95.973 -61.5,-69.005 -87.0356,-91.803 -126.6156,-113.038 -23.4585,-12.585 -44.9915,-17.682 -66.4742,-15.734 -21.6277,1.961 -40.1222,10.359 -65.3381,29.67 -11.2487,8.615 -29.4713,19.75 -40.4945,24.746 -42.2581,19.151 -50.8843,23.67 -52.3175,27.404 -3.0374,7.916 56.0014,131.457 62.8213,131.457 1.1867,0 8.0478,-5.532 15.2469,-12.293 l 13.0893,-12.293 -2.8291,-20.247 c -3.1868,-22.807 -1.2159,-57.16 4.5285,-78.936 11.8514,-44.927 42.0281,-72.924 78.5924,-72.916 12.694,0 43.1233,13.365 51.2526,22.507 5.0823,5.715 4.5888,5.675 -11.5699,-0.933 -22.1724,-9.067 -37.7386,-11.233 -52.3855,-7.289 -21.2626,5.725 -37.7609,24.108 -48.1821,53.685 -6.3811,18.111 -9.9879,83.402 -4.7848,86.618 2.0212,1.249 11.8036,-5.366 24.2379,-16.389 28.62,-25.372 37.4421,-31.1 57.5278,-37.351 37.8305,-11.774 75.3109,-3.653 103.4744,22.422 35.232,32.618 43.6147,58.05 46.1269,139.942 l 1.7302,56.403 11.5699,1.936 c 23.8865,3.997 85.6411,0.543 105.8608,-5.92 z"
             id="path133" /></g></g></g></g><pattern
     id="b-2"
     width="41"
     height="41"
     patternUnits="userSpaceOnUse"><circle
       fill="#ffffff"
       cx="20.5"
       cy="20.5"
       r="20.5"
       id="circle2" /></pattern></svg>
