<?xml version="1.0" encoding="UTF-8" standalone="no"?>
<!-- Created with Inkscape (http://www.inkscape.org/) -->

<svg
   version="1.1"
   id="svg1"
   width="138.89734"
   height="138.89868"
   viewBox="0 0 138.89734 138.89868"
   sodipodi:docname="Linotte app main inkscape.ai"
   inkscape:version="1.4.2 (ebf0e940, 2025-05-08)"
   xml:space="preserve"
   xmlns:inkscape="http://www.inkscape.org/namespaces/inkscape"
   xmlns:sodipodi="http://sodipodi.sourceforge.net/DTD/sodipodi-0.dtd"
   xmlns="http://www.w3.org/2000/svg"
   xmlns:svg="http://www.w3.org/2000/svg"><defs
     id="defs1"><clipPath
       clipPathUnits="userSpaceOnUse"
       id="clipPath3421-2"><path
         d="M 0,1080 H 1920 V 0 H 0 Z"
         transform="translate(-378.76591,-710.75672)"
         id="path3421-5" /></clipPath></defs><sodipodi:namedview
     id="namedview1"
     pagecolor="#ffffff"
     bordercolor="#000000"
     borderopacity="0.25"
     inkscape:showpageshadow="2"
     inkscape:pageopacity="0.0"
     inkscape:pagecheckerboard="0"
     inkscape:deskcolor="#d1d1d1"
     showgrid="false"
     inkscape:zoom="0.33114654"
     inkscape:cx="2935.2564"
     inkscape:cy="1404.2122"
     inkscape:window-width="1472"
     inkscape:window-height="844"
     inkscape:window-x="0"
     inkscape:window-y="34"
     inkscape:window-maximized="1"
     inkscape:current-layer="layer-MC0"><inkscape:page
       x="0"
       y="0"
       width="138.89734"
       height="138.89868"
       id="page2"
       margin="0"
       bleed="0" /></sodipodi:namedview><g
     id="layer-MC0"
     inkscape:groupmode="layer"
     inkscape:label="Livello 1"
     transform="translate(-1346.3062,-961.14955)"><g
       id="g41"
       transform="translate(416.9325,19.185976)"
       inkscape:export-filename="/Users/giannipie/Documents/Repositories/linotte-web/resources/images/g2441.svg"
       inkscape:export-xdpi="96"
       inkscape:export-ydpi="96"><path
         id="path3420-4"
         d="m 0,0 c 0,-27.386 -22.201,-49.587 -49.587,-49.587 -27.386,0 -49.586,22.201 -49.586,49.587 0,27.386 22.2,49.587 49.586,49.587 C -22.201,49.587 0,27.386 0,0"
         style="fill:#000000;fill-opacity:1;fill-rule:nonzero;stroke:#737373;stroke-width:5;stroke-linecap:butt;stroke-linejoin:miter;stroke-miterlimit:10;stroke-dasharray:none;stroke-opacity:1"
         transform="matrix(1.3333333,0,0,-1.3333333,1064.9375,1011.4129)"
         clip-path="url(#clipPath3421-2)"
         inkscape:export-filename="path3420.svg"
         inkscape:export-xdpi="96"
         inkscape:export-ydpi="96" /><path
         style="fill:#737373;fill-opacity:1;stroke-width:0.143643"
         d="m 981.55739,1052.5115 c -0.359,-0.3967 -0.4927,-1.019 -0.6558,-3.0516 -0.08,-0.996 -0.1861,-1.9171 -0.2359,-2.0469 -0.095,-0.2485 -0.4226,-0.3187 -0.5471,-0.1173 -0.08,0.1302 -0.4489,2.4918 -0.5906,3.7856 -0.1211,1.1051 -0.2615,1.1868 -1.222,0.7107 -1.7601,-0.8726 -2.8202,-1.76 -3.5116,-2.9399 -0.5351,-0.9129 -0.6593,-1.5537 -0.4888,-2.5206 0.078,-0.4435 0.2382,-1.3881 0.3554,-2.0992 0.2509,-1.5217 0.4649,-2.7659 0.6301,-3.6629 0.2854,-1.5495 0.4655,-2.5623 0.5746,-3.2319 0.064,-0.3951 0.1888,-1.1384 0.2766,-1.6519 0.3931,-2.3 0.4063,-2.1853 -0.2967,-2.5739 -3.204,-1.7713 -7.9857,-5.8093 -10.305,-8.7021 -0.4433,-0.5531 -0.8428,-1.0379 -0.8877,-1.0774 -0.045,-0.039 -0.5065,-0.6859 -1.0257,-1.4364 -2.3585,-3.4089 -3.9844,-6.9849 -4.8988,-10.7744 -0.4807,-1.9919 -0.5139,-2.1888 -0.7505,-4.4518 -0.2615,-2.5008 -0.26,-3.6565 0.01,-6.033 0.2119,-1.88094 0.2997,-2.43986 0.6202,-3.95021 0.2286,-1.07707 1.0712,-3.75651 1.4454,-4.59659 0.071,-0.158 0.2383,-0.54584 0.373,-0.86186 2.2913,-5.37469 6.5624,-10.59965 11.994,-14.67257 3.4184,-2.56329 8.9168,-5.30452 13.0716,-6.51687 0.5925,-0.17291 1.2066,-0.36517 1.3646,-0.42725 0.9907,-0.38929 5.3873,-1.2157 8.3476,-1.56908 1.6653,-0.1988 8.03071,-0.20318 9.74171,-0.007 2.857,0.32804 5.8711,0.87638 7.9101,1.43905 0.237,0.0654 0.6572,0.17894 0.9337,0.25229 2.7731,0.73579 6.3849,2.22748 9.4022,3.88316 7.5817,4.16042 13.6901,10.6715 16.7304,17.83345 0.1844,0.43452 0.3908,0.91932 0.4585,1.07732 0.6642,1.54909 1.4627,4.73411 1.8437,7.35346 0.1954,1.3435 0.1937,6.3494 0,7.6905 -0.6544,4.4712 -1.8829,8.0494 -4.1557,12.1046 -1.6234,2.8967 -4.7736,6.6272 -7.7575,9.1865 -1.655,1.4196 -4.6831,3.6696 -4.9385,3.6696 -0.041,0 -0.3526,0.1851 -0.6923,0.4112 -1.4924,0.9935 -6.1105,3.2051 -7.8251,3.7474 -0.4201,0.1328 -0.6245,0.2883 -0.6824,0.5188 -0.045,0.1811 -0.078,2.6125 -0.072,5.4031 0.01,3.2844 -0.046,5.3251 -0.1508,5.7861 -0.4601,2.0253 -2.0891,3.6428 -4.2577,4.2277 -0.7599,0.2049 -2.5939,0.2078 -2.7197,0 -0.1732,-0.2802 -0.4852,-1.7719 -0.4933,-2.3585 -0.012,-0.889 -0.3796,-2.7788 -0.5891,-3.0313 -0.1703,-0.2052 -0.2058,-0.2025 -0.3752,0.029 -0.1029,0.1407 -0.1903,0.6152 -0.1941,1.0544 -0.011,1.1927 -0.3434,3.4683 -0.5794,3.9586 l -0.2073,0.431 -2.7694,0.039 -2.7693,0.039 -0.1921,-0.47 c -0.1056,-0.2585 -0.2351,-0.8578 -0.2877,-1.3318 -0.3324,-2.9946 -0.63711,-4.1715 -0.98891,-3.8197 -0.09,0.09 -0.2706,1.2026 -0.4013,2.4726 -0.1877,1.8235 -0.2974,2.3892 -0.5219,2.6899 l -0.2842,0.3809 -3.5039,0.041 c -1.9271,0.022 -3.6385,0.01 -3.803,-0.033 -0.4577,-0.1118 -0.9219,-1.9643 -0.9219,-3.6792 0,-1.0745 -0.1374,-1.7219 -0.3857,-1.8172 -0.1107,-0.043 -0.2364,-0.042 -0.2794,10e-4 -0.1405,0.1405 -0.3295,1.1461 -0.5572,2.9642 -0.123,0.9823 -0.3031,1.9519 -0.4003,2.1547 l -0.1766,0.3687 -3.2414,0.039 c -3.0295,0.036 -3.2575,0.021 -3.4884,-0.2344 z m 15.8548,-14.7024 c 1.7697,-0.5353 3.34611,-1.8244 3.98311,-3.2572 0.5158,-1.1606 0.5027,-2.6933 -0.032,-3.749 -1.57191,-3.1019 -5.67781,-4.3366 -9.14941,-2.7514 -0.8535,0.3898 -2.2459,1.6718 -2.6613,2.4502 -1.0596,1.9862 -0.6435,4.1967 1.088,5.7799 0.9861,0.9016 2.1501,1.4514 3.6117,1.7058 0.7616,0.1326 2.4468,0.037 3.1602,-0.1783 z m 24.57151,-15.7526 c 4.0405,-1.0831 7.033,-3.7606 8.7686,-7.8456 0.7532,-1.7728 1.0574,-5.1284 0.6391,-7.0501 -0.691,-3.1743 -2.0186,-5.3622 -4.4574,-7.3457 -1.6614,-1.3512 -3.3738,-2.15132 -5.9643,-2.78684 -1.0492,-0.25741 -5.0952,-0.26256 -6.2485,-0.008 -1.3315,0.29396 -1.9881,0.47225 -2.2604,0.61377 -0.1372,0.0713 -0.3175,0.12965 -0.4006,0.12965 -0.083,0 -0.6819,0.23924 -1.3307,0.53165 -2.8052,1.26447 -5.2885,3.46927 -6.4581,5.73377 -1.4957,2.896 -1.6551,5.5855 -0.5119,8.6408 1.8495,4.9431 7.0421,8.8337 12.9009,9.6661 1.3335,0.1894 4.1196,0.043 5.3234,-0.2796 z m -35.30071,-2.7392 c 3.0474,-0.7794 5.7355,-2.5327 7.5068,-4.8961 0.5631,-0.7513 1.5778,-2.9723 1.8024,-3.945 0.3195,-1.3834 0.247,-3.6744 -0.1566,-4.9557 -1.6061,-5.0984 -6.3048,-8.97858 -12.3371,-10.18787 -5.3862,-1.07976 -10.3645,1.02186 -12.5641,5.30397 -0.2638,0.5135 -0.5624,1.2245 -0.6637,1.5801 -0.1012,0.3555 -0.2477,0.8208 -0.3254,1.034 -0.2014,0.5523 -0.1751,4.1287 0.037,5.0306 1.0138,4.3114 3.6546,7.9138 7.2264,9.8579 1.1522,0.6272 3.2118,1.313 4.3959,1.4638 1.3614,0.1734 3.8254,0.035 5.0784,-0.2857 z"
         id="path41" /></g></g></svg>
