<?xml version="1.0" encoding="UTF-8" standalone="no"?>
<!-- Created with Inkscape (http://www.inkscape.org/) -->

<svg
   version="1.1"
   id="svg1"
   width="156.93518"
   height="159.27832"
   viewBox="0 0 156.93518 159.27832"
   sodipodi:docname="Linotte app main inkscape.ai"
   inkscape:version="1.4.2 (ebf0e940, 2025-05-08)"
   xml:space="preserve"
   xmlns:inkscape="http://www.inkscape.org/namespaces/inkscape"
   xmlns:sodipodi="http://sodipodi.sourceforge.net/DTD/sodipodi-0.dtd"
   xmlns="http://www.w3.org/2000/svg"
   xmlns:svg="http://www.w3.org/2000/svg"><defs
     id="defs1" /><sodipodi:namedview
     id="namedview1"
     pagecolor="#ffffff"
     bordercolor="#000000"
     borderopacity="0.25"
     inkscape:showpageshadow="2"
     inkscape:pageopacity="0.0"
     inkscape:pagecheckerboard="0"
     inkscape:deskcolor="#d1d1d1"
     showgrid="false"
     inkscape:zoom="0.15362997"
     inkscape:cx="2027.5992"
     inkscape:cy="1100.0458"
     inkscape:window-width="1472"
     inkscape:window-height="844"
     inkscape:window-x="0"
     inkscape:window-y="34"
     inkscape:window-maximized="0"
     inkscape:current-layer="g3654"><inkscape:page
       x="0"
       y="0"
       width="156.93518"
       height="159.27832"
       id="page2"
       margin="0"
       bleed="0" /></sodipodi:namedview><g
     id="layer-MC0"
     inkscape:groupmode="layer"
     inkscape:label="Livello 1"
     transform="translate(482.42208,-1097.911)"><g
       id="g3654"
       transform="matrix(0.69286237,0,0,0.69286237,-270.74983,-1421.7014)"><g
         id="g3658"
         transform="translate(14.432316,-31.384976)"><g
           id="g3657"
           transform="matrix(0.38867326,0,0,0.38867326,-221.43844,2244.6264)"><g
             id="g3665"
             inkscape:export-filename="/Users/giannipie/Documents/Repositories/linotte-web/resources/images/p015_1b1b83ff.svg"
             inkscape:export-xdpi="96"
             inkscape:export-ydpi="96"
             transform="translate(-76.540636,12.821569)"><g
               id="g3656"
               transform="translate(-231.42409,-200.36991)"><g
                 id="g3666"><rect
                   style="fill:#fffdfd;fill-opacity:1;stroke:#ffebf6;stroke-width:0;stroke-linecap:round;stroke-linejoin:round;stroke-miterlimit:1.4;stroke-dasharray:none;stroke-opacity:1;paint-order:normal"
                   id="rect3657"
                   width="424.91794"
                   height="247.34172"
                   x="-61.67783"
                   y="3770.2139"
                   ry="19.213623"
                   transform="translate(231.42392,200.36991)" /><path
                   style="fill:#183044;fill-opacity:1"
                   d="m 363.92383,4439.832 c -0.59323,-0.5953 -13.5287,-1.4072 -28.74548,-1.8041 -27.66688,-0.7216 -27.66688,-0.7216 -28.07332,-19.4578 -0.22354,-10.3049 -0.97255,-19.3023 -1.66447,-19.9942 -0.69192,-0.692 -9.32399,-1.1671 -19.18239,-1.056 -9.85839,0.1112 -19.01394,-0.216 -20.34567,-0.727 -2.07945,-0.798 -2.42131,-3.3661 -2.42131,-18.1891 0,-9.4929 -0.67233,-18.5162 -1.49407,-20.0516 -1.35247,-2.5271 -3.17176,-2.7917 -19.19573,-2.7917 -11.84358,0 -18.27482,0.5732 -19.43361,1.7319 -1.13512,1.1352 -1.73956,7.2277 -1.75404,17.6803 -0.0122,8.7716 -0.52366,16.7376 -1.13666,17.7023 -0.7417,1.1672 -6.64896,1.8915 -17.65818,2.165 -16.54362,0.4109 -16.54362,0.4109 -16.94956,19.0802 -0.23366,10.746 -1.07432,19.4745 -1.98083,20.5668 -1.22932,1.4812 -10.0265,1.8976 -40.0911,1.8976 -28.56348,0 -39.13989,-0.4662 -40.92985,-1.8041 -2.001,-1.4956 -2.47997,-5.0118 -2.80161,-20.5668 -0.387952,-18.7628 -0.387952,-18.7628 -18.429052,-19.4954 -10.641945,-0.4322 -19.372948,-1.4889 -21.288498,-2.5766 -3.247398,-1.8438 -3.247398,-1.8438 -3.427809,-78.2873 -0.09923,-42.044 -0.484436,-78.2296 -0.856022,-80.4126 -0.371586,-2.1829 -0.959874,-32.4555 -1.307308,-67.2723 -0.464108,-46.5088 -0.19012,-63.8353 1.032744,-65.3088 1.267519,-1.5272 6.226642,-2.0055 20.795385,-2.0055 14.219534,0 19.542586,-0.496 20.734379,-1.932 1.103106,-1.3292 1.721199,-20.1317 1.980833,-60.2573 0.377396,-58.3252 0.377396,-58.3252 17.673408,-58.7348 9.51281,-0.2252 17.80468,-0.9182 18.42638,-1.5399 0.62169,-0.6217 1.42852,-9.4604 1.79294,-19.6416 0.36442,-10.1812 1.05661,-18.9057 1.53819,-19.3878 0.48159,-0.4821 9.62811,-0.9689 20.32561,-1.0817 10.69749,-0.1129 19.89887,-0.654 20.44749,-1.2024 0.54863,-0.5485 1.05472,-10.0607 1.12464,-21.1383 0.0851,-13.4834 0.69446,-20.7084 1.84346,-21.8574 1.24102,-1.241 12.66351,-1.7254 41.24695,-1.7491 21.74185,-0.018 39.90944,-0.4116 40.37243,-0.8744 0.46299,-0.4629 1.18413,-9.2159 1.60254,-19.4511 0.41841,-10.2352 1.26847,-19.1171 1.88902,-19.7377 0.62055,-0.6205 36.81158,-0.9603 80.4245,-0.755 79.29622,0.3733 79.29622,0.3733 79.70266,19.1095 0.22354,10.3049 1.0145,19.3443 1.75769,20.0875 0.7673,0.7673 18.49817,1.4082 41.02922,1.4831 24.58704,0.082 40.23195,0.6858 41.13451,1.5884 0.8011,0.8011 1.63944,9.8878 1.86298,20.1928 0.40644,18.7361 0.40644,18.7361 20.18531,19.4578 10.87838,0.3969 20.43628,1.3817 21.23978,2.1884 0.8035,0.8067 1.6452,9.2499 1.87045,18.7627 0.40954,17.296 0.40954,17.296 21.33722,18.0177 20.92767,0.7216 20.92767,0.7216 21.33092,18.1533 0.36719,15.8728 0.13195,17.7766 -2.6305,21.2885 -3.00736,3.8232 -3.19541,3.8568 -21.60657,3.8568 -13.27332,0 -18.90599,-0.5148 -19.74046,-1.8041 -0.6422,-0.9923 -1.39251,-10.744 -1.66735,-21.6706 -0.49971,-19.8665 -0.49971,-19.8665 -43.29864,-19.4844 -42.79894,0.3821 -42.79894,0.3821 -43.15219,18.4232 -0.19429,9.9226 -0.68931,19.4847 -1.10005,21.249 -0.72301,3.1057 -1.40102,3.2206 -21.29606,3.6082 -20.54928,0.4004 -20.54928,0.4004 -20.92499,65.9756 -0.29508,51.5029 0.0146,65.823 1.44329,66.73 1.00045,0.6351 10.66982,1.1647 21.48749,1.1768 15.30621,0.017 20.04972,0.4815 21.38741,2.0933 1.1373,1.3704 1.59723,6.9959 1.35928,16.6257 -0.21273,8.6091 0.25082,15.1651 1.13478,16.049 0.96051,0.9605 15.08986,1.4555 39.54799,1.3856 20.92946,-0.06 38.54705,-0.6024 39.1502,-1.2056 0.60315,-0.6031 1.27168,-9.52 1.48563,-19.8154 0.38899,-18.7187 0.38899,-18.7187 -18.37376,-19.4404 -10.3195,-0.3969 -19.57459,-1.247 -20.56685,-1.8892 -1.3739,-0.8892 -1.79884,-10.8702 -1.78201,-41.8554 0.0122,-22.3782 0.54397,-41.5099 1.18181,-42.5147 0.90062,-1.4189 10.32726,-1.7413 42.19408,-1.4433 41.03436,0.3837 41.03436,0.3837 42.15023,7.6002 0.61373,3.969 1.58795,14.3607 2.16493,23.0926 1.04906,15.8761 1.04906,15.8761 18.78626,16.5978 13.61999,0.5541 18.05388,1.2242 19.10147,2.8866 0.83246,1.321 1.37288,57.3724 1.38637,143.7912 0.0174,111.5936 -0.36048,141.9312 -1.78201,143.0638 -0.99226,0.7906 -5.37625,1.9155 -9.7422,2.4997 -4.36594,0.5842 -11.74515,1.2585 -16.39823,1.4984 -4.65308,0.2399 -9.13929,1.1154 -9.96936,1.9454 -0.9265,0.9265 -1.3859,8.5381 -1.18982,19.7137 0.21673,12.3525 -0.231,18.8675 -1.39284,20.2675 -1.40649,1.6947 -8.61824,2.0631 -40.38625,2.0631 -21.27071,0 -39.70135,-0.3942 -40.95699,-0.8761 -1.91738,-0.7357 -2.28297,-3.837 -2.28297,-19.3663 0,-10.1697 -0.39423,-19.5176 -0.87606,-20.7733 -0.72511,-1.8896 -3.60142,-2.2829 -16.6927,-2.2829 -8.69915,0 -17.0729,-0.6724 -18.60833,-1.4941 -2.55388,-1.3668 -2.79169,-3.1978 -2.79169,-21.4949 0,-16.9067 -0.35317,-20.1364 -2.28297,-20.8769 -1.25564,-0.4818 -10.83547,-0.8661 -21.2885,-0.854 -10.45304,0.012 -19.79924,0.5264 -20.76933,1.1428 -1.22987,0.7814 -1.88523,7.656 -2.16493,22.7096 -0.40113,21.5891 -0.40113,21.5891 -19.41045,22.3107 -10.45513,0.397 -19.40445,1.1195 -19.88738,1.6058 -0.48294,0.4862 -1.21754,9.2367 -1.63246,19.4455 -0.49178,12.0997 -1.35637,18.9441 -2.48359,19.6607 -0.95105,0.6045 -5.68018,1.1091 -10.50918,1.1213 -4.829,0.012 -9.26538,-0.465 -9.85862,-1.0604 z m -61.43167,-257.2661 c 0.75179,-1.1907 1.37684,-9.5828 1.38899,-18.6491 0.0179,-13.335 -0.43422,-16.9884 -2.36652,-19.1235 -2.06587,-2.2828 -4.77226,-2.6394 -20.02931,-2.6394 -13.18523,0 -18.0556,-0.5 -19.28349,-1.9795 -1.16371,-1.4022 -1.53093,-13.924 -1.25919,-42.9378 0.38362,-40.9584 0.38362,-40.9584 41.51733,-41.7366 22.62354,-0.428 41.31391,-0.9151 41.53415,-1.0824 0.22025,-0.1674 0.22025,-9.5594 0,-20.8712 -0.40045,-20.5668 -0.40045,-20.5668 -19.88483,-21.2885 -10.71642,-0.3969 -20.29624,-1.2471 -21.2885,-1.8893 -1.26984,-0.8218 -1.80411,-6.0496 -1.80411,-17.6527 0,-15.8983 -0.1156,-16.5134 -3.2474,-17.279 -1.78607,-0.4366 -20.45861,-0.6113 -41.49453,-0.3883 -38.24713,0.4055 -38.24713,0.4055 -38.65539,15.7835 -0.27369,10.309 -1.01813,15.8841 -2.25845,16.9135 -1.03457,0.8586 -10.08024,1.7145 -20.51942,1.9415 -18.66923,0.4059 -18.66923,0.4059 -19.04459,67.3534 -0.27042,48.2308 0.0816,67.4981 1.25919,68.917 1.23646,1.4898 6.48892,1.9695 21.5666,1.9695 18.99513,0 19.97737,0.1428 20.8962,3.0378 0.53028,1.6707 0.21124,5.73 -0.70899,9.0205 -0.92022,3.2906 -1.47269,9.8531 -1.22771,14.5834 0.40205,7.763 0.79677,8.7009 4.05365,9.6318 1.98452,0.5672 20.68149,0.9186 41.54882,0.7809 31.96634,-0.2111 38.15584,-0.5914 39.3075,-2.4155 z"
                   id="path3657"
                   sodipodi:nodetypes="ssssssssssssssssssssssssssssssssssssssssssssssssssssssssssssssssssssssssssssssssssssssssssssssssssssssssssssssssssssssssssssss" /><path
                   style="fill:#5c5cdd;fill-opacity:1"
                   d="m 363.92383,4439.832 c -0.59323,-0.5953 -13.5287,-1.4072 -28.74548,-1.8041 -27.66688,-0.7216 -27.66688,-0.7216 -28.07332,-19.4578 -0.22354,-10.3049 -0.97255,-19.3023 -1.66447,-19.9942 -0.69192,-0.692 -9.32399,-1.1671 -19.18239,-1.056 -9.85839,0.1112 -19.01394,-0.216 -20.34567,-0.727 -2.07945,-0.798 -2.42131,-3.3661 -2.42131,-18.1891 0,-9.4929 -0.67233,-18.5162 -1.49407,-20.0516 -1.35247,-2.5271 -3.17176,-2.7917 -19.19573,-2.7917 -11.84358,0 -18.27482,0.5732 -19.43361,1.7319 -1.13512,1.1352 -1.73956,7.2277 -1.75404,17.6803 -0.0122,8.7716 -0.52366,16.7376 -1.13666,17.7023 -0.7417,1.1672 -6.64896,1.8915 -17.65818,2.165 -16.54362,0.4109 -16.54362,0.4109 -16.94956,19.0802 -0.23366,10.746 -1.07432,19.4745 -1.98083,20.5668 -1.22932,1.4812 -10.0265,1.8976 -40.0911,1.8976 -28.56348,0 -39.13989,-0.4662 -40.92985,-1.8041 -2.001,-1.4956 -2.47997,-5.0118 -2.80161,-20.5668 -0.387952,-18.7628 -0.387952,-18.7628 -18.429052,-19.4954 -10.641945,-0.4322 -19.372948,-1.4889 -21.288498,-2.5766 -3.247398,-1.8438 -3.247398,-1.8438 -3.427809,-78.2873 -0.09923,-42.044 -0.484436,-78.2296 -0.856022,-80.4126 -0.371586,-2.1829 -0.959874,-32.4555 -1.307308,-67.2723 -0.464108,-46.5088 -0.19012,-63.8353 1.032744,-65.3088 1.267519,-1.5272 6.226642,-2.0055 20.795385,-2.0055 14.219534,0 19.542586,-0.496 20.734379,-1.932 1.103106,-1.3292 1.721199,-20.1317 1.980833,-60.2573 0.377396,-58.3252 0.377396,-58.3252 17.673408,-58.7348 9.51281,-0.2252 17.80468,-0.9182 18.42638,-1.5399 0.62169,-0.6217 1.42852,-9.4604 1.79294,-19.6416 0.36442,-10.1812 1.05661,-18.9057 1.53819,-19.3878 0.48159,-0.4821 9.62811,-0.9689 20.32561,-1.0817 10.69749,-0.1129 19.89887,-0.654 20.44749,-1.2024 0.54863,-0.5485 1.05472,-10.0607 1.12464,-21.1383 0.0851,-13.4834 0.69446,-20.7084 1.84346,-21.8574 1.24102,-1.241 12.66351,-1.7254 41.24695,-1.7491 21.74185,-0.018 39.90944,-0.4116 40.37243,-0.8744 0.46299,-0.4629 1.18413,-9.2159 1.60254,-19.4511 0.41841,-10.2352 1.26847,-19.1171 1.88902,-19.7377 0.62055,-0.6205 36.81158,-0.9603 80.4245,-0.755 79.29622,0.3733 79.29622,0.3733 79.70266,19.1095 0.22354,10.3049 1.0145,19.3443 1.75769,20.0875 0.7673,0.7673 18.49817,1.4082 41.02922,1.4831 24.58704,0.082 40.23195,0.6858 41.13451,1.5884 0.8011,0.8011 1.63944,9.8878 1.86298,20.1928 0.40644,18.7361 0.40644,18.7361 20.18531,19.4578 10.87838,0.3969 20.43628,1.3817 21.23978,2.1884 0.8035,0.8067 1.6452,9.2499 1.87045,18.7627 0.40954,17.296 0.40954,17.296 21.33722,18.0177 20.92767,0.7216 20.92767,0.7216 21.33092,18.1533 0.36719,15.8728 0.13195,17.7766 -2.6305,21.2885 -3.00736,3.8232 -3.19541,3.8568 -21.60657,3.8568 -13.27332,0 -18.90599,-0.5148 -19.74046,-1.8041 -0.6422,-0.9923 -1.39251,-10.744 -1.66735,-21.6706 -0.49971,-19.8665 -0.49971,-19.8665 -43.29864,-19.4844 -42.79894,0.3821 -42.79894,0.3821 -43.15219,18.4232 -0.19429,9.9226 -0.68931,19.4847 -1.10005,21.249 -0.72301,3.1057 -1.40102,3.2206 -21.29606,3.6082 -20.54928,0.4004 -20.54928,0.4004 -20.92499,65.9756 -0.29508,51.5029 0.0146,65.823 1.44329,66.73 1.00045,0.6351 10.66982,1.1647 21.48749,1.1768 15.30621,0.017 20.04972,0.4815 21.38741,2.0933 1.1373,1.3704 1.59723,6.9959 1.35928,16.6257 -0.21273,8.6091 0.25082,15.1651 1.13478,16.049 0.96051,0.9605 15.08986,1.4555 39.54799,1.3856 20.92946,-0.06 38.51779,-0.5826 39.08518,-1.1616 0.56739,-0.5789 1.56066,-9.8206 2.20727,-20.537 1.17566,-19.4844 1.17566,-19.4844 20.66005,-20.324 10.71641,-0.4618 20.62658,-1.3453 22.0226,-1.9633 1.39601,-0.6181 2.85859,-2.5134 3.25017,-4.2119 0.39158,-1.6985 0.87308,-9.583 1.07001,-17.5211 0.35804,-14.4329 0.35804,-14.4329 17.16906,-14.8382 13.87035,-0.3345 17.21554,-8e-4 19.12357,1.9072 2.08984,2.0898 2.31255,15.9765 2.31255,144.1966 0,111.7784 -0.38281,142.1891 -1.80411,143.3215 -0.99226,0.7906 -5.37625,1.9155 -9.7422,2.4997 -4.36594,0.5842 -11.74515,1.2585 -16.39823,1.4984 -4.65308,0.2399 -9.13929,1.1154 -9.96936,1.9454 -0.9265,0.9265 -1.3859,8.5381 -1.18982,19.7137 0.21673,12.3525 -0.231,18.8675 -1.39284,20.2675 -1.40649,1.6947 -8.61824,2.0631 -40.38625,2.0631 -21.27071,0 -39.70135,-0.3942 -40.95699,-0.8761 -1.91738,-0.7357 -2.28297,-3.837 -2.28297,-19.3663 0,-10.1697 -0.39423,-19.5176 -0.87606,-20.7733 -0.72511,-1.8896 -3.60142,-2.2829 -16.6927,-2.2829 -8.69915,0 -17.0729,-0.6724 -18.60833,-1.4941 -2.55388,-1.3668 -2.79169,-3.1978 -2.79169,-21.4949 0,-16.9067 -0.35317,-20.1364 -2.28297,-20.8769 -1.25564,-0.4818 -10.83547,-0.8661 -21.2885,-0.854 -10.45304,0.012 -19.79924,0.5264 -20.76933,1.1428 -1.22987,0.7814 -1.88523,7.656 -2.16493,22.7096 -0.40113,21.5891 -0.40113,21.5891 -19.41045,22.3107 -10.45513,0.397 -19.40445,1.1195 -19.88738,1.6058 -0.48294,0.4862 -1.21754,9.2367 -1.63246,19.4455 -0.49178,12.0997 -1.35637,18.9441 -2.48359,19.6607 -0.95105,0.6045 -5.68018,1.1091 -10.50918,1.1213 -4.829,0.012 -9.26538,-0.465 -9.85862,-1.0604 z m -61.43167,-257.2661 c 0.75179,-1.1907 1.37684,-10.0515 1.38899,-19.6908 0.0185,-14.6363 0.3985,-17.6703 2.30508,-18.4019 1.25563,-0.4818 9.89371,-0.8761 19.19573,-0.8761 11.22998,0 17.4947,-0.5819 18.6447,-1.7319 1.27438,-1.2744 1.68031,-12.4274 1.53649,-42.2162 -0.10751,-22.2663 -0.59461,-50.8759 -1.08247,-63.5768 -0.88701,-23.0926 -0.88701,-23.0926 -20.37139,-23.8143 -10.71642,-0.3969 -20.29624,-1.2471 -21.2885,-1.8893 -1.26984,-0.8218 -1.80411,-6.0496 -1.80411,-17.6527 0,-15.8983 -0.1156,-16.5134 -3.2474,-17.279 -1.78607,-0.4366 -20.45861,-0.6113 -41.49453,-0.3883 -38.24713,0.4055 -38.24713,0.4055 -38.65539,15.7835 -0.27369,10.309 -1.01813,15.8841 -2.25845,16.9135 -1.03457,0.8586 -10.08024,1.7145 -20.51942,1.9415 -18.66923,0.4059 -18.66923,0.4059 -19.04459,67.3534 -0.27042,48.2308 0.0816,67.4981 1.25919,68.917 1.23646,1.4898 6.48892,1.9695 21.5666,1.9695 18.99513,0 19.97737,0.1428 20.8962,3.0378 0.53028,1.6707 0.21124,5.73 -0.70899,9.0205 -0.92022,3.2906 -1.47269,9.8531 -1.22771,14.5834 0.40205,7.763 0.79677,8.7009 4.05365,9.6318 1.98452,0.5672 20.68149,0.9186 41.54882,0.7809 31.96634,-0.2111 38.15584,-0.5914 39.3075,-2.4155 z"
                   id="path3656" /></g></g></g></g></g></g></g></svg>
