<?xml version="1.0" encoding="UTF-8" standalone="no"?>
<!-- Created with Inkscape (http://www.inkscape.org/) -->

<svg
   version="1.1"
   id="svg1"
   width="130.40259"
   height="175.55615"
   viewBox="0 0 130.40259 175.55615"
   sodipodi:docname="Linotte app main inkscape.ai"
   inkscape:version="1.4.2 (ebf0e940, 2025-05-08)"
   xml:space="preserve"
   xmlns:inkscape="http://www.inkscape.org/namespaces/inkscape"
   xmlns:sodipodi="http://sodipodi.sourceforge.net/DTD/sodipodi-0.dtd"
   xmlns="http://www.w3.org/2000/svg"
   xmlns:svg="http://www.w3.org/2000/svg"><defs
     id="defs1" /><sodipodi:namedview
     id="namedview1"
     pagecolor="#ffffff"
     bordercolor="#000000"
     borderopacity="0.25"
     inkscape:showpageshadow="2"
     inkscape:pageopacity="0.0"
     inkscape:pagecheckerboard="0"
     inkscape:deskcolor="#d1d1d1"
     showgrid="false"
     inkscape:zoom="0.47329795"
     inkscape:cx="1604.6974"
     inkscape:cy="1204.3154"
     inkscape:window-width="1472"
     inkscape:window-height="844"
     inkscape:window-x="0"
     inkscape:window-y="34"
     inkscape:window-maximized="0"
     inkscape:current-layer="layer-MC0"><inkscape:page
       x="0"
       y="0"
       width="130.40259"
       height="175.55615"
       id="page2"
       margin="0"
       bleed="0" /></sodipodi:namedview><g
     id="layer-MC0"
     inkscape:groupmode="layer"
     inkscape:label="Livello 1"
     transform="translate(232.35217,-1102.6737)"><g
       id="g3654"
       transform="matrix(0.69286237,0,0,0.69286237,-270.74983,-1421.7014)"><g
         id="g3664"><ellipse
           style="fill:#fffdfd;fill-opacity:1;stroke:#ffebf6;stroke-width:0;stroke-linecap:round;stroke-linejoin:round;stroke-miterlimit:1.4;stroke-dasharray:none;stroke-opacity:1;paint-order:normal"
           id="path3664"
           cx="195.88144"
           cy="3700.603"
           rx="35.494095"
           ry="20.166407" /><g
           id="g3659"
           transform="matrix(0.39775125,0,0,0.39775125,11.580148,2245.7754)"><path
             style="fill:#97c6db"
             d="m 288.8087,4150.5111 c -0.40287,-0.4029 -12.70979,-1.4113 -27.3487,-2.241 -14.63891,-0.8296 -32.46152,-2.4777 -39.6058,-3.6625 -7.14427,-1.1847 -18.83491,-3.5531 -25.97918,-5.2631 -7.14428,-1.71 -17.48846,-4.9596 -22.98708,-7.2212 -5.49861,-2.2617 -12.12867,-5.7377 -14.73345,-7.7245 -2.79953,-2.1353 -5.3222,-5.7354 -6.16972,-8.8049 -0.78855,-2.8559 -1.05458,-7.0883 -0.59117,-9.4054 0.46341,-2.317 2.54281,-6.0152 4.62089,-8.2182 2.30789,-2.4466 9.95696,-6.4487 19.65449,-10.2836 9.532,-3.7694 19.11442,-6.5375 23.97983,-6.9271 8.10365,-0.6488 8.10365,-0.6488 7.58994,-6.6235 -0.28254,-3.286 -1.1689,-12.6572 -1.96968,-20.8249 -0.80078,-8.1677 -1.45959,-17.9099 -1.46402,-21.6493 -0.004,-3.7395 -0.6856,-9.2388 -1.51372,-12.2208 -0.82812,-2.9819 -2.89541,-6.7164 -4.59396,-8.2989 -2.64107,-2.4605 -5.09839,-2.8772 -16.96878,-2.8772 -10.17173,0 -16.17277,-0.7831 -22.45964,-2.9308 -4.71853,-1.612 -11.65362,-5.1828 -15.41131,-7.9351 -3.75769,-2.7523 -9.77393,-8.7401 -13.36944,-13.3061 -3.60612,-4.5796 -8.49689,-13.3657 -10.90773,-19.5954 -3.37834,-8.7299 -4.88164,-16.1015 -6.62243,-32.474 -1.83388,-17.2481 -2.08243,-31.6312 -1.3387,-77.4687 0.50232,-30.9586 1.45737,-72.5253 2.12235,-92.3705 0.70853,-21.1446 1.95181,-38.4722 3.0032,-41.8553 0.98678,-3.1753 3.04851,-8.238 4.58162,-11.2505 1.53312,-3.0126 5.09983,-8.0369 7.92603,-11.1652 2.8262,-3.1282 8.48102,-7.5871 12.56626,-9.9085 4.08524,-2.3215 10.35037,-5.0086 13.92251,-5.9714 3.57213,-0.9628 10.71617,-2.6447 15.87563,-3.7376 5.15945,-1.0929 11.73544,-1.9871 14.61329,-1.9871 2.87785,0 7.30607,-0.4147 9.84048,-0.9216 2.53441,-0.5069 5.5851,-2.4128 6.7793,-4.2354 1.19421,-1.8226 3.37711,-10.663 4.85089,-19.6453 1.47379,-8.9823 3.39734,-19.5788 4.27456,-23.5479 0.87722,-3.969 3.24625,-12.4122 5.26452,-18.7627 2.01827,-6.3505 6.45106,-17.4476 9.85066,-24.6602 3.39959,-7.2127 9.43266,-17.9291 13.40682,-23.8143 3.97416,-5.8852 12.0219,-15.252 17.88386,-20.8152 7.11593,-6.7533 14.36712,-11.9472 21.81823,-15.628 7.04254,-3.4789 15.29643,-6.2079 22.37097,-7.3965 6.16596,-1.036 27.18844,-2.2872 46.71662,-2.7805 21.46419,-0.5422 41.44156,-0.2947 50.51508,0.6256 8.25511,0.8374 18.90618,2.4949 23.66903,3.6833 4.76285,1.1885 13.85556,3.8365 20.20603,5.8845 6.35047,2.048 17.71636,6.8776 25.25754,10.7324 7.54118,3.8547 18.80905,10.9996 25.03971,15.8774 6.23066,4.8778 15.44839,14.079 20.48385,20.4471 5.15003,6.5129 12.64058,18.6637 17.12182,27.7742 7.19002,14.6175 9.35822,17.5855 22.24645,30.4525 11.9007,11.8812 15.27525,16.3007 20.2533,26.5246 3.28532,6.7473 7.00264,16.3827 8.2607,21.4119 1.77784,7.1071 2.17318,14.8235 1.7747,34.639 -0.48209,23.9733 -0.74923,26.0526 -4.47625,34.8412 -2.17996,5.1406 -6.66181,13.8122 -9.95966,19.2703 -4.48406,7.4214 -6.15732,11.868 -6.63543,17.6334 -0.39788,4.7979 0.65205,14.1452 2.78,24.75 2.96888,14.7956 3.4164,21.1284 3.39709,48.0712 -0.0125,17.4722 -0.83364,36.7063 -1.87926,44.0203 -1.02137,7.1443 -4.44835,29.2266 -7.61551,49.0718 -3.16716,19.8452 -7.96833,50.6955 -10.66926,68.5562 -2.70093,17.8607 -6.16576,36.0773 -7.69961,40.4815 -1.53386,4.4041 -4.21319,10.7995 -5.95408,14.2119 -1.74089,3.4124 -2.95758,6.3873 -2.70375,6.6109 0.25383,0.2236 5.98209,1.5003 12.72946,2.8371 6.74737,1.3368 15.61627,3.9495 19.70865,5.806 4.09239,1.8566 10.10008,6.1158 13.35042,9.4651 5.26621,5.4264 5.90971,6.8509 5.90971,13.0817 0,5.697 -0.79487,7.8975 -4.29101,11.8794 -2.36006,2.6879 -8.04301,6.5691 -12.62877,8.6247 -4.58577,2.0556 -14.59674,5.362 -22.24661,7.3475 -7.64986,1.9855 -20.63945,4.5911 -28.86576,5.7901 -8.2263,1.199 -25.02385,2.7817 -37.32788,3.5171 -12.30403,0.7354 -23.99467,1.4747 -25.97919,1.643 -1.98452,0.1683 -39.36279,0.5925 -83.06283,0.9427 -43.70004,0.3502 -79.78424,0.3072 -80.18712,-0.096 z m 108.08389,-93.8483 c -1.47423,-4.7367 -3.20961,-15.3928 -3.8564,-23.6802 -0.94206,-12.0706 -1.70329,-15.4536 -3.82661,-17.0062 -1.45783,-1.066 -4.12732,-1.9382 -5.93219,-1.9382 -1.80487,0 -3.88562,1.1366 -4.62389,2.5258 -0.73827,1.3891 -1.57297,12.9175 -1.85489,25.6187 -0.51258,23.0929 -0.51258,23.0929 11.1309,23.0926 11.64348,-4e-4 11.64348,-4e-4 8.96308,-8.6125 z M 515.4601,3681.4137 c 2.24581,-1.1614 4.48674,-3.1629 4.97984,-4.4479 0.4931,-1.285 0.89654,-4.3172 0.89654,-6.7381 0,-3.2547 -1.59973,-6.0015 -6.13874,-10.5405 -3.64286,-3.6428 -8.48404,-6.7915 -11.90712,-7.7442 -3.17262,-0.883 -13.23741,-3.3038 -22.36621,-5.3796 -11.83213,-2.6904 -20.94908,-3.8072 -31.75233,-3.8897 -8.73432,-0.067 -17.4379,0.6575 -20.54429,1.7096 -2.96437,1.004 -6.69888,3.4897 -8.29891,5.5238 -2.087,2.6532 -2.90914,5.864 -2.90914,11.3613 0,5.8662 0.76151,8.5483 3.24767,11.4386 3.09252,3.5953 4.66122,3.9352 32.83481,7.1156 16.27292,1.837 35.95181,3.4216 43.73086,3.5213 9.89525,0.1269 15.37027,-0.4529 18.22702,-1.9302 z"
             id="path3663" /><path
             style="fill:#4a626c"
             d="m 261.54462,4148.0602 c -11.51022,-0.6737 -29.67882,-2.5904 -40.37467,-4.2593 -10.69584,-1.6689 -24.9844,-4.6354 -31.75234,-6.5921 -6.76793,-1.9568 -16.05733,-5.2375 -20.6431,-7.2905 -4.58576,-2.053 -10.26871,-5.9319 -12.62877,-8.6199 -3.41884,-3.8938 -4.29101,-6.2264 -4.29101,-11.4761 0,-5.5137 0.76546,-7.3508 4.69069,-11.258 3.08188,-3.0677 10.13584,-6.8136 20.56685,-10.9216 11.14869,-4.3907 18.13205,-6.2881 23.45202,-6.3721 4.16672,-0.066 7.58181,-0.769 7.58908,-1.5628 0.007,-0.7938 -1.01467,-13.4587 -2.27099,-28.1441 -1.25633,-14.6855 -2.60365,-28.8842 -2.99405,-31.5528 -0.3904,-2.6686 -2.26095,-6.4031 -4.15678,-8.2989 -3.10792,-3.1079 -4.6956,-3.4486 -16.14134,-3.4641 -6.98191,-0.01 -16.11324,-0.9272 -20.29184,-2.0396 -4.1786,-1.1124 -10.67141,-3.824 -14.42847,-6.0257 -3.75705,-2.2018 -9.88943,-7.1432 -13.62751,-10.981 -3.73807,-3.8377 -9.1145,-11.6725 -11.94761,-17.4106 -2.99439,-6.0647 -6.03637,-15.2672 -7.26546,-21.9791 -1.1629,-6.3505 -2.85481,-19.0153 -3.75981,-28.1441 -1.09909,-11.0865 -1.3374,-32.6525 -0.71769,-64.948 0.51027,-26.5926 1.47981,-66.5356 2.15453,-88.7622 0.95959,-31.6108 1.76914,-42.1409 3.71714,-48.3502 1.3697,-4.3659 4.44796,-11.0211 6.84056,-14.7894 2.39259,-3.7682 6.71926,-8.7152 9.61481,-10.9934 2.89555,-2.2782 8.02641,-5.5414 11.40191,-7.2518 3.3755,-1.7103 12.94998,-4.7193 21.27662,-6.6868 8.32664,-1.9675 18.68061,-3.5772 23.00883,-3.5772 6.08725,0 8.71905,-0.7355 11.62078,-3.2474 3.30103,-2.8576 4.18132,-5.7594 7.33381,-24.1751 1.97037,-11.5102 4.90116,-25.6448 6.51285,-31.4102 1.61169,-5.7654 5.18368,-16.0719 7.93776,-22.9034 2.75407,-6.8315 7.69567,-17.0524 10.98131,-22.7131 3.28565,-5.6607 8.78337,-13.9691 12.21715,-18.463 3.43378,-4.4939 9.91775,-11.4458 14.40882,-15.4486 4.49107,-4.0028 12.4536,-9.5258 17.69452,-12.2732 5.24092,-2.7474 13.75056,-6.1201 18.91032,-7.4948 8.02497,-2.1382 16.99811,-2.5212 62.06139,-2.6487 52.68001,-0.1491 52.68001,-0.1491 69.27782,4.3986 9.1288,2.5013 22.32585,6.9691 29.32677,9.9285 7.00093,2.9594 17.71734,8.6361 23.81426,12.6149 6.09691,3.9788 15.85052,11.8511 21.67469,17.494 5.82416,5.6429 13.46497,14.583 16.97958,19.8668 3.51461,5.2838 9.22011,15.6755 12.67889,23.0926 5.53166,11.8622 7.60112,14.659 17.19112,23.233 5.99634,5.3611 13.98039,14.3773 17.74234,20.0361 3.76195,5.6588 8.83077,15.8858 11.26405,22.7266 4.13869,11.6354 4.45705,13.9936 4.93442,36.5503 0.40989,19.3684 0.037,25.7405 -1.89544,32.3877 -1.32315,4.5515 -4.6421,12.5359 -7.37544,17.743 -2.73333,5.2072 -6.57614,12.33 -8.53957,15.8286 -2.79567,4.9814 -3.56883,8.4245 -3.56507,15.8762 0.003,5.2333 1.31164,16.0099 2.90889,23.948 1.61419,8.0223 3.28453,23.7283 3.7606,35.3606 0.60032,14.6681 0.164,27.4031 -1.45876,42.577 -1.2734,11.9071 -4.61891,35.9379 -7.43447,53.4016 -2.81556,17.4638 -7.04259,44.742 -9.3934,60.6181 -2.35081,15.8762 -5.54091,35.266 -7.08911,43.0885 -1.71767,8.6787 -4.74362,18.0891 -7.76283,24.1416 -4.9479,9.9189 -4.9479,9.9189 0.29435,10.815 2.88324,0.4929 9.3073,1.7989 14.27569,2.9023 4.9684,1.1034 12.15388,3.5874 15.96776,5.52 3.81387,1.9327 9.32864,6.1641 12.25505,9.4033 4.14512,4.5882 5.31865,7.0844 5.31124,11.2976 -0.005,2.9745 -1.2145,7.2358 -2.68727,9.4695 -1.47277,2.2337 -4.87826,5.545 -7.56776,7.3585 -2.68949,1.8135 -8.46788,4.6269 -12.84086,6.2521 -4.37298,1.6252 -15.41413,4.5957 -24.5359,6.6011 -9.12176,2.0055 -22.1056,4.3435 -28.85297,5.1956 -6.74737,0.8521 -25.58228,2.19 -41.85536,2.973 -16.27307,0.7831 -64.00982,1.3405 -106.08167,1.2387 -42.07185,-0.1018 -85.91172,-0.7363 -97.42195,-1.4101 z m 127.65524,-82.0636 c 10.5128,0 10.5128,0 7.85711,-9.5773 -1.46064,-5.2675 -3.07211,-15.4968 -3.58105,-22.7318 -0.50894,-7.235 -1.83955,-14.6158 -2.95691,-16.4019 -1.31398,-2.1003 -3.44728,-3.2474 -6.03951,-3.2474 -2.20437,0 -4.78731,0.7794 -5.73988,1.7319 -1.153,1.153 -1.76071,7.7868 -1.81798,19.8453 -0.0473,9.9623 -0.59867,21.2301 -1.22521,25.0396 -0.94141,5.7238 -0.7807,6.7888 0.92572,6.1339 1.13569,-0.4358 6.79566,-0.7923 12.57771,-0.7923 z m 104.71415,-351.3861 c 11.51022,-1.2232 25.58402,-3.2299 31.27512,-4.4592 6.45325,-1.3941 12.54435,-3.8267 16.18495,-6.4639 3.21063,-2.3258 6.83736,-5.7547 8.05942,-7.6198 1.97009,-3.0067 1.98443,-4.1801 0.12651,-10.3535 -1.15246,-3.8294 -4.23971,-10.1531 -6.86055,-14.0527 -2.62084,-3.8996 -8.65773,-10.0402 -13.4153,-13.6458 -4.75758,-3.6057 -12.22659,-8.3575 -16.59781,-10.5595 -4.37123,-2.2021 -13.23597,-5.6711 -19.69943,-7.709 -6.46345,-2.0378 -19.12831,-4.7903 -28.14411,-6.1167 -11.8064,-1.7369 -20.38112,-2.1389 -30.64995,-1.437 -7.84166,0.5359 -21.156,2.2184 -29.58741,3.7389 -8.4314,1.5204 -22.36982,4.3574 -30.97425,6.3044 -8.60442,1.9471 -15.81995,3.7526 -16.03449,4.0124 -0.21454,0.2597 1.80423,7.6166 4.48616,16.3484 2.68192,8.7319 6.46567,19.1434 8.40832,23.1366 1.94266,3.9931 5.88181,10.0054 8.75368,13.3605 2.87187,3.3552 8.25209,7.8775 11.95603,10.0496 3.70395,2.1721 10.95607,5.1008 16.11582,6.5082 7.97715,2.176 13.59405,2.456 37.52549,1.8706 15.47927,-0.3787 37.56157,-1.6893 49.0718,-2.9125 z"
             id="path3662" /><path
             style="fill:#be1500"
             d="m 260.82298,4124.5396 c -7.14428,-1.857 -16.56173,-4.9915 -20.92768,-6.9656 -4.36594,-1.974 -10.61063,-5.5591 -13.87709,-7.9667 -3.58432,-2.642 -7.44689,-7.4035 -9.74219,-12.0096 -2.09176,-4.1976 -3.80319,-9.0741 -3.80319,-10.8366 0,-1.7625 -0.80203,-3.4719 -1.7823,-3.7986 -1.22527,-0.4085 -2.72124,-11.0659 -4.78667,-34.1008 -2.93344,-32.7153 -3.09689,-33.5988 -6.92125,-37.4124 -3.61705,-3.6069 -4.71446,-3.8799 -14.33689,-3.5665 -5.73101,0.1866 -13.99216,-0.3662 -18.35811,-1.2286 -4.36595,-0.8623 -11.65519,-3.5318 -16.19831,-5.9321 -4.54313,-2.4004 -11.46289,-7.7506 -15.37725,-11.8895 -3.91436,-4.1389 -9.05458,-11.3643 -11.42271,-16.0565 -2.36812,-4.6922 -5.36971,-12.1035 -6.67018,-16.4694 -1.30047,-4.366 -3.13964,-15.4071 -4.08704,-24.5359 -0.9474,-9.1288 -1.70391,-36.0822 -1.68114,-59.8965 0.0228,-23.8142 0.75902,-65.3809 1.63609,-92.3704 1.19989,-36.9236 2.17984,-51.2156 3.9584,-57.7315 1.30006,-4.7629 3.90033,-11.2577 5.7784,-14.4329 1.87806,-3.1753 5.90353,-8.1649 8.9455,-11.0881 3.04196,-2.9233 8.83539,-6.9639 12.87428,-8.9791 4.0389,-2.0153 12.80687,-4.9093 19.48439,-6.4312 6.67752,-1.5219 16.91609,-3.2102 22.75239,-3.7517 5.83629,-0.5414 11.54326,-1.3421 12.68215,-1.7791 1.13889,-0.437 2.98678,-2.5661 4.10643,-4.7313 1.11965,-2.1651 3.38198,-11.991 5.0274,-21.8352 1.64542,-9.8442 4.64973,-24.0061 6.67623,-31.4707 2.0265,-7.4647 6.16948,-19.336 9.20661,-26.3807 3.03713,-7.0447 8.9973,-18.3777 13.24481,-25.1844 4.24751,-6.8067 12.04546,-16.7711 17.32876,-22.1431 5.2833,-5.3719 13.4018,-12.0675 18.0411,-14.879 4.6393,-2.8115 12.65671,-6.5426 17.81647,-8.2914 7.75553,-2.6285 14.75915,-3.4235 40.41206,-4.587 17.06688,-0.7741 41.09763,-1.0827 53.40166,-0.6857 12.30403,0.397 27.24206,1.7644 33.19563,3.0386 5.95356,1.2743 16.99472,4.3327 24.5359,6.7966 7.54118,2.4639 18.25759,6.7613 23.81425,9.5498 5.55666,2.7886 13.02567,7.0376 16.59781,9.4424 3.57214,2.4047 10.00451,7.3258 14.29416,10.9357 4.28964,3.61 11.57137,11.3102 16.18161,17.1117 4.61024,5.8015 12.14168,18.0947 16.73654,27.3183 6.01304,12.0703 10.16656,18.4338 14.82105,22.7069 3.55673,3.2653 9.47247,9.0966 13.1461,12.9585 3.67363,3.8619 8.79457,10.5118 11.37987,14.7775 2.5853,4.2657 6.73159,13.4461 9.21398,20.4008 4.3804,12.2722 4.51377,13.3683 4.52433,37.1809 0.01,21.9459 -0.35095,25.6402 -3.4169,34.9978 -1.88528,5.7541 -6.33495,15.1716 -9.88816,20.9277 -3.5532,5.7562 -7.15582,13.7686 -8.00582,17.8055 -1.2836,6.0961 -1.00816,10.1535 1.62567,23.9469 1.74412,9.1339 3.82003,24.0018 4.61314,33.0397 0.98487,11.2231 0.95516,23.0774 -0.0937,37.3928 -0.84465,11.5282 -2.51785,27.7799 -3.71822,36.1148 -1.20037,8.335 -5.05641,33.0153 -8.56898,54.845 -3.51258,21.8297 -7.66413,48.7831 -9.22568,59.8964 -1.56154,11.1134 -4.23775,24.7524 -5.94712,30.3091 -1.70938,5.5567 -4.77164,13.188 -6.80503,16.9586 -2.0334,3.7706 -4.45938,6.8557 -5.39108,6.8557 -0.9317,0 -3.84524,2.6769 -6.47453,5.9487 -2.84479,3.54 -7.76406,7.2961 -12.14868,9.2762 -6.90363,3.1178 -9.50644,3.3569 -41.28542,3.7935 -31.36572,0.4309 -34.34798,0.2524 -39.64256,-2.3728 -3.14891,-1.5613 -8.06657,-5.18 -10.92815,-8.0415 -2.86157,-2.8616 -6.91354,-8.6358 -9.00438,-12.8316 -2.09084,-4.1957 -4.84087,-8.3886 -6.11117,-9.3175 -1.27031,-0.9289 -3.5723,-6.4982 -5.11554,-12.3763 -1.54324,-5.878 -2.80951,-14.6282 -2.81394,-19.4447 -0.004,-4.8166 -0.69298,-11.2238 -1.53011,-14.2384 -1.02299,-3.6839 -2.67668,-5.9201 -5.04346,-6.8199 -2.18331,-0.8301 -4.89247,-0.8176 -7.12962,0.033 -3.20533,1.2187 -3.61579,2.2219 -3.67605,8.9848 -0.0373,4.1872 -0.59651,15.9799 -1.24267,26.2061 -0.91484,14.4782 -1.67317,18.872 -3.42652,19.8532 -1.28097,0.7169 -3.27218,5.7677 -4.61883,11.716 -1.30193,5.7507 -3.94225,13.1543 -5.86737,16.4524 -1.92512,3.2982 -6.59545,8.2688 -10.37852,11.0458 -3.78306,2.777 -11.42329,7.3275 -16.97829,10.1122 -5.55499,2.7847 -14.09061,6.095 -18.96804,7.3562 -5.68775,1.4707 -14.74575,2.2676 -25.25754,2.2221 -12.33943,-0.053 -19.59938,-0.9053 -29.37908,-3.4474 z M 465.87987,3766.405 c 6.41096,-1.1301 17.77685,-4.0653 25.25754,-6.5228 7.48069,-2.4574 19.57609,-7.2719 26.87867,-10.699 8.06284,-3.7838 16.0793,-8.8518 20.41162,-12.9041 4.14475,-3.877 8.44176,-9.7127 10.25461,-13.9268 1.71622,-3.9895 3.4769,-10.2984 3.91262,-14.0198 0.43572,-3.7214 0.0755,-10.6206 -0.8005,-15.3316 -0.876,-4.711 -3.0095,-11.5305 -4.74111,-15.1545 -1.73162,-3.624 -7.13656,-10.5297 -12.01099,-15.3459 -6.35722,-6.2814 -12.70917,-10.6654 -22.4697,-15.5083 -7.48391,-3.7133 -20.10191,-8.4229 -28.04,-10.4658 -10.45548,-2.6907 -19.80237,-3.9364 -33.91727,-4.5202 -14.27412,-0.5905 -23.72978,-0.1697 -35.36055,1.5734 -8.7319,1.3087 -25.61205,4.5112 -37.51145,7.1168 -21.63528,4.7374 -21.63528,4.7374 -26.21886,10.7469 -2.52097,3.3052 -5.96812,9.71 -7.66032,14.2328 -1.69221,4.5228 -3.79357,13.2922 -4.66971,19.4875 -1.18831,8.4029 -1.16264,13.87 0.10106,21.522 0.93171,5.6417 3.23986,13.3082 5.12922,17.0367 1.88936,3.7285 8.53211,11.6381 14.76166,17.577 6.80559,6.4881 15.35901,12.9061 21.42948,16.0794 5.55666,2.9048 14.30248,6.3651 19.43515,7.6896 5.13268,1.3245 14.55013,2.8836 20.92768,3.4646 6.37755,0.5811 16.46664,0.8023 22.4202,0.4916 5.95357,-0.3106 16.06999,-1.4894 22.48095,-2.6195 z"
             id="path3661" /><path
             style="fill:#750937"
             d="m 260.82298,4124.5396 c -7.14428,-1.857 -16.56173,-4.9915 -20.92768,-6.9656 -4.36594,-1.974 -10.61063,-5.5591 -13.87709,-7.9667 -3.58432,-2.642 -7.44689,-7.4035 -9.74219,-12.0096 -2.09176,-4.1976 -3.80319,-9.0741 -3.80319,-10.8366 0,-1.7625 -0.80203,-3.4719 -1.7823,-3.7986 -1.22527,-0.4085 -2.72124,-11.0659 -4.78667,-34.1008 -2.93344,-32.7153 -3.09689,-33.5988 -6.92125,-37.4124 -3.61705,-3.6069 -4.71446,-3.8799 -14.33689,-3.5665 -5.73101,0.1866 -13.99216,-0.3662 -18.35811,-1.2286 -4.36595,-0.8623 -11.65519,-3.5318 -16.19831,-5.9321 -4.54313,-2.4004 -11.46289,-7.7506 -15.37725,-11.8895 -3.91436,-4.1389 -9.05458,-11.3643 -11.42271,-16.0565 -2.36812,-4.6922 -5.36971,-12.1035 -6.67018,-16.4694 -1.30047,-4.366 -3.13964,-15.4071 -4.08704,-24.5359 -0.9474,-9.1288 -1.70391,-36.0822 -1.68114,-59.8965 0.0228,-23.8142 0.75902,-65.3809 1.63609,-92.3704 1.19989,-36.9236 2.17984,-51.2156 3.9584,-57.7315 1.30006,-4.7629 3.90033,-11.2577 5.7784,-14.4329 1.87806,-3.1753 5.90353,-8.1649 8.9455,-11.0881 3.04196,-2.9233 8.83539,-6.9639 12.87428,-8.9791 4.0389,-2.0153 12.80687,-4.9093 19.48439,-6.4312 6.67752,-1.5219 16.91609,-3.2102 22.75239,-3.7517 5.83629,-0.5414 11.54326,-1.3421 12.68215,-1.7791 1.13889,-0.437 2.98678,-2.5661 4.10643,-4.7313 1.11965,-2.1651 3.38198,-11.991 5.0274,-21.8352 1.64542,-9.8442 4.64973,-24.0061 6.67623,-31.4707 2.0265,-7.4647 6.16948,-19.336 9.20661,-26.3807 3.03713,-7.0447 8.9973,-18.3777 13.24481,-25.1844 4.24751,-6.8067 12.04546,-16.7711 17.32876,-22.1431 5.2833,-5.3719 13.4018,-12.0675 18.0411,-14.879 4.6393,-2.8115 12.65671,-6.5426 17.81647,-8.2914 7.75553,-2.6285 14.75915,-3.4235 40.41206,-4.587 17.06688,-0.7741 41.09763,-1.0827 53.40166,-0.6857 12.30403,0.397 27.24206,1.7644 33.19563,3.0386 5.95356,1.2743 16.99472,4.3327 24.5359,6.7966 7.54118,2.4639 18.25759,6.7613 23.81425,9.5498 5.55666,2.7886 13.02567,7.0376 16.59781,9.4424 3.57214,2.4047 10.00451,7.3258 14.29416,10.9357 4.28964,3.61 11.57137,11.3102 16.18161,17.1117 4.61024,5.8015 12.14168,18.0947 16.73654,27.3183 6.01304,12.0703 10.16656,18.4338 14.82105,22.7069 3.55673,3.2653 9.47247,9.0966 13.1461,12.9585 3.67363,3.8619 8.79457,10.5118 11.37987,14.7775 2.5853,4.2657 6.73159,13.4461 9.21398,20.4008 4.3804,12.2722 4.51377,13.3683 4.52433,37.1809 0.01,21.9459 -0.35095,25.6402 -3.4169,34.9978 -1.88528,5.7541 -6.33495,15.1716 -9.88816,20.9277 -3.5532,5.7562 -7.15582,13.7686 -8.00582,17.8055 -1.2836,6.0961 -1.00816,10.1535 1.62567,23.9469 1.74412,9.1339 3.82003,24.0018 4.61314,33.0397 0.98487,11.2231 0.95516,23.0774 -0.0937,37.3928 -0.84465,11.5282 -2.51785,27.7799 -3.71822,36.1148 -1.20037,8.335 -5.05641,33.0153 -8.56898,54.845 -3.51258,21.8297 -7.66413,48.7831 -9.22568,59.8964 -1.56154,11.1134 -4.23775,24.7524 -5.94712,30.3091 -1.70938,5.5567 -4.77164,13.188 -6.80503,16.9586 -2.0334,3.7706 -4.45938,6.8557 -5.39108,6.8557 -0.9317,0 -3.84524,2.6769 -6.47453,5.9487 -2.84479,3.54 -7.76406,7.2961 -12.14868,9.2762 -6.90363,3.1178 -9.50644,3.3569 -41.28542,3.7935 -31.36572,0.4309 -34.34798,0.2524 -39.64256,-2.3728 -3.14891,-1.5613 -8.06657,-5.18 -10.92815,-8.0415 -2.86157,-2.8616 -6.91354,-8.6358 -9.00438,-12.8316 -2.09084,-4.1957 -4.84087,-8.3886 -6.11117,-9.3175 -1.27031,-0.9289 -3.5723,-6.4982 -5.11554,-12.3763 -1.54324,-5.878 -2.80951,-14.6282 -2.81394,-19.4447 -0.004,-4.8166 -0.69298,-11.2238 -1.53011,-14.2384 -1.02299,-3.6839 -2.67668,-5.9201 -5.04346,-6.8199 -2.18331,-0.8301 -4.89247,-0.8176 -7.12962,0.033 -3.20533,1.2187 -3.61579,2.2219 -3.67605,8.9848 -0.0373,4.1872 -0.59651,15.9799 -1.24267,26.2061 -0.91484,14.4782 -1.67317,18.872 -3.42652,19.8532 -1.28097,0.7169 -3.27218,5.7677 -4.61883,11.716 -1.30193,5.7507 -3.94225,13.1543 -5.86737,16.4524 -1.92512,3.2982 -6.59545,8.2688 -10.37852,11.0458 -3.78306,2.777 -11.42329,7.3275 -16.97829,10.1122 -5.55499,2.7847 -14.09061,6.095 -18.96804,7.3562 -5.68775,1.4707 -14.74575,2.2676 -25.25754,2.2221 -12.33943,-0.053 -19.59938,-0.9053 -29.37908,-3.4474 z m 176.08115,-197.1374 c 9.5257,-0.8256 20.86385,-2.5109 25.19589,-3.745 4.33205,-1.2342 11.07409,-3.8644 14.98233,-5.8448 3.90824,-1.9805 10.218,-6.713 14.02169,-10.5167 3.80369,-3.8037 8.91128,-10.8688 11.35019,-15.7003 2.43892,-4.8314 6.33726,-15.4668 8.66297,-23.6341 2.32572,-8.1674 5.25716,-20.0456 6.51431,-26.396 1.25714,-6.3505 3.28888,-18.3659 4.51497,-26.7009 1.22609,-8.3349 2.58903,-17.6023 3.02875,-20.594 0.48686,-3.3125 0.10573,-6.2754 -0.97471,-7.5772 -0.97581,-1.1758 -3.37922,-2.1378 -5.34092,-2.1378 -1.9617,0 -9.83831,1.9327 -17.50356,4.2948 -7.66526,2.3622 -23.71458,6.2525 -35.66517,8.6453 -11.95058,2.3927 -28.39096,4.9138 -36.53417,5.6023 -8.1432,0.6886 -20.59436,0.7178 -27.66924,0.065 -7.07487,-0.6528 -16.61368,-2.2623 -21.19735,-3.5766 -4.58367,-1.3144 -13.77795,-5.0716 -20.43173,-8.3495 -7.77292,-3.8291 -15.64419,-9.2354 -22.01805,-15.1227 -8.04508,-7.4309 -11.14916,-11.6596 -16.42144,-22.3709 -3.57565,-7.2644 -7.88041,-18.4038 -9.56614,-24.7543 -2.34716,-8.8422 -3.22646,-17.3438 -3.75454,-36.3009 -0.39198,-14.0712 -0.0117,-29.7915 0.88105,-36.4254 0.90842,-6.7501 3.0587,-14.6073 5.1,-18.6356 1.94115,-3.8307 6.14847,-9.3311 9.3496,-12.2231 3.20113,-2.892 8.324,-6.5356 11.38417,-8.0967 3.06016,-1.5612 9.42185,-3.8195 14.13709,-5.0185 4.71524,-1.199 16.04218,-3.6102 25.17098,-5.3582 13.69161,-2.6217 23.92649,-3.3334 58.45316,-4.0646 41.85536,-0.8864 41.85536,-0.8864 41.85536,-4.6631 0,-2.8811 -2.70628,-6.2349 -11.41151,-14.1419 -6.27634,-5.7008 -15.69379,-12.8941 -20.92768,-15.9851 -5.23389,-3.0909 -14.38726,-7.2417 -20.34083,-9.2239 -5.95356,-1.9822 -15.04628,-4.288 -20.20603,-5.124 -5.15976,-0.836 -18.47409,-1.5599 -29.58741,-1.6087 -11.11331,-0.049 -25.40187,-0.6369 -31.75233,-1.3068 -6.66876,-0.7035 -15.20447,-0.6577 -20.20604,0.1084 -4.76285,0.7295 -13.53082,3.6974 -19.48439,6.5954 -8.20871,3.9957 -13.65327,8.1261 -22.52931,17.0914 -11.70465,11.8224 -11.70465,11.8224 -12.53593,26.092 -0.55462,9.5206 -2.12174,18.3523 -4.70886,26.5375 -3.82747,12.1094 -3.87787,12.7995 -3.89949,53.4016 -0.0148,27.8594 0.74854,48.8189 2.36552,64.948 1.31308,13.0979 4.05349,34.5307 6.0898,47.6285 2.03631,13.0979 5.60155,31.18 7.92275,40.1827 2.32121,9.0026 6.71591,22.4292 9.76602,29.8369 3.0501,7.4076 8.70757,18.552 12.57216,24.7653 3.86459,6.2132 9.97072,14.2472 13.56919,17.8533 3.59848,3.6061 9.74968,8.1071 13.66936,10.0022 5.06793,2.4503 11.32195,3.8198 21.64932,4.7408 7.98745,0.7123 21.99166,2.8374 31.12045,4.7225 9.1288,1.8851 18.22152,3.7354 20.20604,4.1119 1.98452,0.3764 8.15457,0.4118 13.71123,0.079 5.55666,-0.3333 17.89678,-1.2814 27.42248,-2.107 z m 28.97574,-160.9972 c 6.41096,-1.1301 17.77685,-4.0653 25.25754,-6.5228 7.48069,-2.4574 19.57609,-7.2719 26.87867,-10.699 8.06284,-3.7838 16.0793,-8.8518 20.41162,-12.9041 4.14475,-3.877 8.44176,-9.7127 10.25461,-13.9268 1.71622,-3.9895 3.4769,-10.2984 3.91262,-14.0198 0.43572,-3.7214 0.0755,-10.6206 -0.8005,-15.3316 -0.876,-4.711 -3.0095,-11.5305 -4.74111,-15.1545 -1.73162,-3.624 -7.13656,-10.5297 -12.01099,-15.3459 -6.35722,-6.2814 -12.70917,-10.6654 -22.4697,-15.5083 -7.48391,-3.7133 -20.10191,-8.4229 -28.04,-10.4658 -10.45548,-2.6907 -19.80237,-3.9364 -33.91727,-4.5202 -14.27412,-0.5905 -23.72978,-0.1697 -35.36055,1.5734 -8.7319,1.3087 -25.61205,4.5112 -37.51145,7.1168 -21.63528,4.7374 -21.63528,4.7374 -26.21886,10.7469 -2.52097,3.3052 -5.96812,9.71 -7.66032,14.2328 -1.69221,4.5228 -3.79357,13.2922 -4.66971,19.4875 -1.18831,8.4029 -1.16264,13.87 0.10106,21.522 0.93171,5.6417 3.23986,13.3082 5.12922,17.0367 1.88936,3.7285 8.53211,11.6381 14.76166,17.577 6.80559,6.4881 15.35901,12.9061 21.42948,16.0794 5.55666,2.9048 14.30248,6.3651 19.43515,7.6896 5.13268,1.3245 14.55013,2.8836 20.92768,3.4646 6.37755,0.5811 16.46664,0.8023 22.4202,0.4916 5.95357,-0.3106 16.06999,-1.4894 22.48095,-2.6195 z m -299.05347,-7.7659 c 4.51393,-1.553 13.54487,-3.5545 20.06878,-4.4477 6.5239,-0.8933 11.94298,-1.7334 12.04241,-1.8671 0.0994,-0.1336 0.74998,-7.1086 1.44568,-15.5 0.6957,-8.3914 1.06205,-16.3105 0.81409,-17.5981 -0.24795,-1.2875 -2.74774,-3.0989 -5.5551,-4.0255 -2.80735,-0.9265 -9.18463,-1.4247 -14.17174,-1.1071 -6.45751,0.4111 -10.48885,1.5513 -14.00567,3.961 -2.71602,1.8611 -6.37358,5.5734 -8.12791,8.2497 -1.75434,2.6763 -4.14592,8.9215 -5.31462,13.8782 -1.16871,4.9568 -2.13452,11.3396 -2.14626,14.1841 -0.0117,2.8445 0.41166,5.6048 0.94086,6.134 0.52921,0.5292 2.05123,0.9622 3.38227,0.9622 1.33105,0 6.11329,-1.2707 10.62721,-2.8237 z"
             id="path3660" /><path
             style="fill:#0a0a0a"
             d="m 260.82298,4124.5396 c -7.14428,-1.857 -16.56173,-4.9915 -20.92768,-6.9656 -4.36594,-1.974 -10.61063,-5.5591 -13.87709,-7.9667 -3.58432,-2.642 -7.44689,-7.4035 -9.74219,-12.0096 -2.09176,-4.1976 -3.80319,-9.0741 -3.80319,-10.8366 0,-1.7625 -0.80203,-3.4719 -1.7823,-3.7986 -1.22527,-0.4085 -2.72124,-11.0659 -4.78667,-34.1008 -2.93344,-32.7153 -3.09689,-33.5988 -6.92125,-37.4124 -3.61705,-3.6069 -4.71446,-3.8799 -14.33689,-3.5665 -5.73101,0.1866 -13.99216,-0.3662 -18.35811,-1.2286 -4.36595,-0.8623 -11.65519,-3.5318 -16.19831,-5.9321 -4.54313,-2.4004 -11.46289,-7.7506 -15.37725,-11.8895 -3.91436,-4.1389 -9.05458,-11.3643 -11.42271,-16.0565 -2.36812,-4.6922 -5.36971,-12.1035 -6.67018,-16.4694 -1.30047,-4.366 -3.13964,-15.4071 -4.08704,-24.5359 -0.9474,-9.1288 -1.70391,-36.0822 -1.68114,-59.8965 0.0228,-23.8142 0.75902,-65.3809 1.63609,-92.3704 1.19989,-36.9236 2.17984,-51.2156 3.9584,-57.7315 1.30006,-4.7629 3.90033,-11.2577 5.7784,-14.4329 1.87806,-3.1753 5.90353,-8.1649 8.9455,-11.0881 3.04196,-2.9233 8.83539,-6.9639 12.87428,-8.9791 4.0389,-2.0153 12.80687,-4.9093 19.48439,-6.4312 6.67752,-1.5219 16.91609,-3.2102 22.75239,-3.7517 5.83629,-0.5414 11.54326,-1.3421 12.68215,-1.7791 1.13889,-0.437 2.98678,-2.5661 4.10643,-4.7313 1.11965,-2.1651 3.38198,-11.991 5.0274,-21.8352 1.64542,-9.8442 4.64973,-24.0061 6.67623,-31.4707 2.0265,-7.4647 6.16948,-19.336 9.20661,-26.3807 3.03713,-7.0447 8.9973,-18.3777 13.24481,-25.1844 4.24751,-6.8067 12.04546,-16.7711 17.32876,-22.1431 5.2833,-5.3719 13.4018,-12.0675 18.0411,-14.879 4.6393,-2.8115 12.65671,-6.5426 17.81647,-8.2914 7.75553,-2.6285 14.75915,-3.4235 40.41206,-4.587 17.06688,-0.7741 41.09763,-1.0827 53.40166,-0.6857 12.30403,0.397 27.24206,1.7644 33.19563,3.0386 5.95356,1.2743 16.99472,4.3327 24.5359,6.7966 7.54118,2.4639 18.25759,6.7613 23.81425,9.5498 5.55666,2.7886 13.02567,7.0376 16.59781,9.4424 3.57214,2.4047 10.00451,7.3258 14.29416,10.9357 4.28964,3.61 11.57137,11.3102 16.18161,17.1117 4.61024,5.8015 12.14168,18.0947 16.73654,27.3183 6.01304,12.0703 10.16656,18.4338 14.82105,22.7069 3.55673,3.2653 9.47247,9.0966 13.1461,12.9585 3.67363,3.8619 8.79457,10.5118 11.37987,14.7775 2.5853,4.2657 6.73159,13.4461 9.21398,20.4008 4.3804,12.2722 4.51377,13.3683 4.52433,37.1809 0.01,21.9459 -0.35095,25.6402 -3.4169,34.9978 -1.88528,5.7541 -6.33495,15.1716 -9.88816,20.9277 -3.5532,5.7562 -7.15582,13.7686 -8.00582,17.8055 -1.2836,6.0961 -1.00816,10.1535 1.62567,23.9469 1.74412,9.1339 3.82003,24.0018 4.61314,33.0397 0.98487,11.2231 0.95516,23.0774 -0.0937,37.3928 -0.84465,11.5282 -2.51785,27.7799 -3.71822,36.1148 -1.20037,8.335 -5.05641,33.0153 -8.56898,54.845 -3.51258,21.8297 -7.66413,48.7831 -9.22568,59.8964 -1.56154,11.1134 -4.23775,24.7524 -5.94712,30.3091 -1.70938,5.5567 -4.77164,13.188 -6.80503,16.9586 -2.0334,3.7706 -4.45938,6.8557 -5.39108,6.8557 -0.9317,0 -3.84524,2.6769 -6.47453,5.9487 -2.84479,3.54 -7.76406,7.2961 -12.14868,9.2762 -6.90363,3.1178 -9.50644,3.3569 -41.28542,3.7935 -31.36572,0.4309 -34.34798,0.2524 -39.64256,-2.3728 -3.14891,-1.5613 -8.06657,-5.18 -10.92815,-8.0415 -2.86157,-2.8616 -6.91354,-8.6358 -9.00438,-12.8316 -2.09084,-4.1957 -4.84087,-8.3886 -6.11117,-9.3175 -1.27031,-0.9289 -3.5723,-6.4982 -5.11554,-12.3763 -1.54324,-5.878 -2.80951,-14.6282 -2.81394,-19.4447 -0.004,-4.8166 -0.69298,-11.2238 -1.53011,-14.2384 -1.02299,-3.6839 -2.67668,-5.9201 -5.04346,-6.8199 -2.18331,-0.8301 -4.89247,-0.8176 -7.12962,0.033 -3.20533,1.2187 -3.61579,2.2219 -3.67605,8.9848 -0.0373,4.1872 -0.59651,15.9799 -1.24267,26.2061 -0.91484,14.4782 -1.67317,18.872 -3.42652,19.8532 -1.28097,0.7169 -3.27218,5.7677 -4.61883,11.716 -1.30193,5.7507 -3.94225,13.1543 -5.86737,16.4524 -1.92512,3.2982 -6.59545,8.2688 -10.37852,11.0458 -3.78306,2.777 -11.42329,7.3275 -16.97829,10.1122 -5.55499,2.7847 -14.09061,6.095 -18.96804,7.3562 -5.68775,1.4707 -14.74575,2.2676 -25.25754,2.2221 -12.33943,-0.053 -19.59938,-0.9053 -29.37908,-3.4474 z m 49.13595,-32.7118 c 4.46078,-1.669 10.37218,-5.0203 13.13642,-7.4473 2.76425,-2.4271 6.71654,-7.7187 8.78286,-11.7592 3.54679,-6.9354 3.81722,-9.0014 4.83454,-36.9338 0.59268,-16.2731 1.54499,-33.809 2.11624,-38.9688 0.57125,-5.1597 1.93713,-11.1564 3.03528,-13.3259 1.09815,-2.1696 3.8659,-4.9113 6.15056,-6.0927 2.28466,-1.1815 6.69923,-2.5551 9.81015,-3.0526 3.37133,-0.5391 13.48978,0.3924 25.04822,2.306 14.30896,2.3689 26.01255,3.2572 44.64955,3.3889 13.89165,0.098 31.75234,-0.3122 39.69043,-0.9119 14.43288,-1.0904 14.43288,-1.0904 5.93715,6.8222 -4.67266,4.3519 -11.49219,9.2489 -15.15453,10.8823 -3.66233,1.6334 -9.57897,4.4789 -13.14808,6.3232 -4.82856,2.4952 -7.41411,5.1499 -10.10302,10.3733 -3.31372,6.4371 -3.61373,8.5859 -3.61373,25.8838 0,15.7503 0.42985,19.5205 2.60418,22.8415 1.43229,2.1877 4.63687,5.2137 7.12127,6.7246 2.4844,1.5108 7.93199,3.1737 12.10576,3.6951 4.4076,0.5507 15.01558,0 25.30606,-1.3253 12.2987,-1.5782 18.8352,-3.1018 21.37227,-4.9818 2.01018,-1.4895 4.43006,-4.9205 5.37752,-7.6245 1.03442,-2.9521 1.75519,-13.9111 1.80411,-27.4307 0.0771,-21.3118 0.38372,-23.7016 5.74033,-44.7419 3.11238,-12.2252 7.32062,-32.2945 9.35165,-44.5985 2.03102,-12.304 4.40236,-29.5152 5.26963,-38.2471 0.86726,-8.7319 1.66814,-27.2421 1.77973,-41.1338 0.11158,-13.8916 -0.71329,-36.8583 -1.83306,-51.0371 -1.85975,-23.5488 -2.29219,-25.8958 -4.9974,-27.1232 -2.14917,-0.9751 -6.7642,-0.1717 -16.82535,2.9291 -7.62513,2.35 -22.8879,6.2279 -33.91727,8.6176 -11.02936,2.3897 -26.44698,5.1289 -34.26137,6.0872 -8.2369,1.01 -20.97465,1.393 -30.30905,0.9111 -8.85559,-0.4571 -19.99795,-1.8789 -24.7608,-3.1594 -4.76285,-1.2805 -14.5302,-5.2093 -21.70522,-8.7305 -7.17502,-3.5213 -16.72112,-9.6784 -21.21355,-13.6824 -4.49243,-4.004 -10.51784,-11.1482 -13.38979,-15.876 -2.87196,-4.7277 -7.13068,-13.8265 -9.46382,-20.2194 -2.33314,-6.393 -5.28276,-17.9281 -6.55472,-25.6336 -1.77645,-10.7616 -2.12355,-19.6988 -1.49705,-38.5459 0.52018,-15.6483 1.61684,-27.195 3.02756,-31.8769 1.21658,-4.0376 4.12985,-9.9887 6.47396,-13.2246 2.3441,-3.236 7.31954,-7.9872 11.05654,-10.5583 3.73699,-2.5712 10.74925,-5.9056 15.58279,-7.41 4.83354,-1.5044 17.88756,-4.4245 29.00893,-6.4892 18.08955,-3.3583 24.37428,-3.796 59.63112,-4.1525 27.98075,-0.283 40.01487,-0.9002 41.49453,-2.1282 1.14625,-0.9513 2.08409,-2.3141 2.08409,-3.0284 0,-0.7144 -2.6636,-4.1885 -5.91911,-7.7203 -3.2555,-3.5318 -10.56215,-9.9717 -16.23699,-14.3109 -5.67483,-4.3391 -15.18898,-10.1824 -21.14254,-12.985 -5.95357,-2.8027 -14.72154,-6.1591 -19.48439,-7.4588 -5.73211,-1.5641 -18.66243,-2.7555 -38.24714,-3.524 -16.27307,-0.6385 -33.80902,-1.6121 -38.96877,-2.1636 -5.39511,-0.5767 -13.06101,-0.325 -18.04111,0.5921 -4.76285,0.8772 -12.88134,3.6462 -18.0411,6.1533 -6.69634,3.2537 -12.91342,8.1073 -21.72221,16.9583 -11.76896,11.8253 -12.69273,13.232 -19.93419,30.3571 -4.17634,9.8765 -9.46494,25.6217 -11.75244,34.9894 -2.2875,9.3677 -5.50034,24.9929 -7.13963,34.7228 -1.6393,9.7298 -3.9729,26.7833 -5.18579,37.8966 -1.39509,12.7829 -2.51957,41.9455 -3.06085,79.3809 -0.49629,34.3234 -0.15415,81.2986 0.81469,111.8548 0.91866,28.974 2.64329,66.6438 3.8325,83.7107 1.18921,17.0669 3.12843,40.4482 4.30936,51.9584 1.18094,11.5102 2.80334,25.7965 3.60533,31.7472 0.92714,6.8793 2.36527,11.6635 3.94898,13.1372 1.36995,1.2747 6.06295,3.6854 10.4289,5.3572 4.36594,1.6718 10.21126,3.6576 12.98959,4.413 2.77833,0.7553 10.71009,1.4319 17.62614,1.5035 9.48777,0.098 14.56563,-0.6148 20.68515,-2.9044 z M 197.08644,3968.4129 c 2.07349,-2.0735 4.20875,-6.1089 4.74503,-8.9675 0.53628,-2.8586 0.22638,-13.6646 -0.68867,-24.0133 -1.01934,-11.5282 -1.66292,-51.0014 -1.66164,-101.9151 0.001,-48.9379 0.64254,-89.4628 1.56004,-98.5791 1.16665,-11.5919 1.13864,-15.9853 -0.11153,-17.4916 -0.91823,-1.1064 -5.13626,-2.7875 -9.37341,-3.7357 -6.00252,-1.3433 -9.24502,-1.3367 -14.68216,0.03 -3.83805,0.9647 -9.03867,3.3235 -11.55694,5.2417 -2.51826,1.9183 -6.2377,6.9029 -8.26542,11.077 -2.02771,4.1741 -4.11547,11.4861 -4.63946,16.249 -0.52399,4.7628 -1.45346,9.6418 -2.0655,10.8422 -0.61204,1.2004 -2.28633,18.0869 -3.72064,37.5255 -1.64147,22.2462 -2.59942,50.5856 -2.58511,76.4767 0.0175,31.6031 0.58558,44.5847 2.45199,56.0282 1.3361,8.192 3.67511,17.711 5.19782,21.1533 1.5227,3.4424 5.48114,8.8913 8.79653,12.1088 3.31539,3.2174 9.3865,7.1413 13.49137,8.7197 4.10487,1.5783 10.13512,2.9036 13.40056,2.9449 4.5385,0.058 6.82528,-0.8129 9.70714,-3.6947 z M 465.87987,3766.405 c 6.41096,-1.1301 17.77685,-4.0653 25.25754,-6.5228 7.48069,-2.4574 19.57609,-7.2719 26.87867,-10.699 8.06284,-3.7838 16.0793,-8.8518 20.41162,-12.9041 4.14475,-3.877 8.44176,-9.7127 10.25461,-13.9268 1.71622,-3.9895 3.4769,-10.2984 3.91262,-14.0198 0.43572,-3.7214 0.0755,-10.6206 -0.8005,-15.3316 -0.876,-4.711 -3.0095,-11.5305 -4.74111,-15.1545 -1.73162,-3.624 -7.13656,-10.5297 -12.01099,-15.3459 -6.35722,-6.2814 -12.70917,-10.6654 -22.4697,-15.5083 -7.48391,-3.7133 -20.10191,-8.4229 -28.04,-10.4658 -10.45548,-2.6907 -19.80237,-3.9364 -33.91727,-4.5202 -14.27412,-0.5905 -23.72978,-0.1697 -35.36055,1.5734 -8.7319,1.3087 -25.61205,4.5112 -37.51145,7.1168 -21.63528,4.7374 -21.63528,4.7374 -26.21886,10.7469 -2.52097,3.3052 -5.96812,9.71 -7.66032,14.2328 -1.69221,4.5228 -3.79357,13.2922 -4.66971,19.4875 -1.18831,8.4029 -1.16264,13.87 0.10106,21.522 0.93171,5.6417 3.23986,13.3082 5.12922,17.0367 1.88936,3.7285 8.53211,11.6381 14.76166,17.577 6.80559,6.4881 15.35901,12.9061 21.42948,16.0794 5.55666,2.9048 14.30248,6.3651 19.43515,7.6896 5.13268,1.3245 14.55013,2.8836 20.92768,3.4646 6.37755,0.5811 16.46664,0.8023 22.4202,0.4916 5.95357,-0.3106 16.06999,-1.4894 22.48095,-2.6195 z"
             id="path3659" /></g></g></g></g></svg>
