<?xml version="1.0" encoding="UTF-8" standalone="no"?>
<!-- Created with Inkscape (http://www.inkscape.org/) -->

<svg
   version="1.1"
   id="svg1"
   width="158.50464"
   height="161.84058"
   viewBox="0 0 158.50464 161.84058"
   sodipodi:docname="Linotte app main inkscape.ai"
   inkscape:version="1.4.2 (ebf0e940, 2025-05-08)"
   xml:space="preserve"
   inkscape:export-batch-path="/Users/giannipie/Documents/Repositories/linotte-web/resources/images/dice"
   inkscape:export-batch-name="rere"
   inkscape:export-filename="/Users/giannipie/Documents/Repositories/linotte-web/resources/images/pieces/p031_00a0d7ff.svg"
   inkscape:export-xdpi="96"
   inkscape:export-ydpi="96"
   xmlns:inkscape="http://www.inkscape.org/namespaces/inkscape"
   xmlns:sodipodi="http://sodipodi.sourceforge.net/DTD/sodipodi-0.dtd"
   xmlns="http://www.w3.org/2000/svg"
   xmlns:svg="http://www.w3.org/2000/svg"><defs
     id="defs1" /><sodipodi:namedview
     id="namedview1"
     pagecolor="#ffffff"
     bordercolor="#000000"
     borderopacity="0.25"
     inkscape:showpageshadow="2"
     inkscape:pageopacity="0.0"
     inkscape:pagecheckerboard="0"
     inkscape:deskcolor="#d1d1d1"
     showgrid="false"
     inkscape:zoom="0.75106338"
     inkscape:cx="1552.4655"
     inkscape:cy="1278.1877"
     inkscape:window-width="1472"
     inkscape:window-height="844"
     inkscape:window-x="0"
     inkscape:window-y="33"
     inkscape:window-maximized="0"
     inkscape:current-layer="layer-MC0"><inkscape:page
       x="0"
       y="0"
       width="158.50464"
       height="161.84058"
       id="page2"
       margin="0"
       bleed="0" /></sodipodi:namedview><pattern
     id="b-2"
     width="41"
     height="41"
     patternUnits="userSpaceOnUse"><circle
       fill="#ffffff"
       cx="20.5"
       cy="20.5"
       r="20.5"
       id="circle2" /></pattern><g
     id="g511"
     transform="translate(-874.88642,-1061.9131)"
     inkscape:export-filename="/Users/giannipie/Documents/Repositories/linotte-web/resources/images/pieces/p021_f6d74aff.svg"
     inkscape:export-xdpi="96"
     inkscape:export-ydpi="96"><ellipse
       style="font-variation-settings:normal;opacity:1;fill:#ae7626;fill-opacity:1;stroke:none;stroke-width:1.60095;stroke-linecap:round;stroke-linejoin:round;stroke-miterlimit:4;stroke-dasharray:none;stroke-dashoffset:0;stroke-opacity:1;paint-order:stroke fill markers"
       id="path511"
       cx="954.40454"
       cy="1142.882"
       rx="78.924751"
       ry="80.871635" /><g
       id="g3760"
       transform="matrix(0.49101515,0,0,0.49101515,33.917467,405.11148)"
       inkscape:export-filename="/Users/giannipie/Documents/Repositories/linotte-web/resources/images/p021_f6d74aff.svg"
       inkscape:export-xdpi="96"
       inkscape:export-ydpi="96"
       style="stroke-width:1.00066;stroke-dasharray:none"><path
         style="fill:#f6d74a;stroke-width:1.00066;stroke-dasharray:none"
         d="m 1850.1191,1659.9824 c -1.65,-0.2494 -7.499,-1.568 -12.9978,-2.9303 -5.4987,-1.3622 -13.1487,-3.5651 -17,-4.8953 -3.8512,-1.3303 -9.2522,-3.403 -12.0022,-4.6061 -2.75,-1.2031 -8.15,-3.9836 -12,-6.179 -3.85,-2.1954 -10.0279,-6.0087 -13.7287,-8.474 -3.7009,-2.4654 -10.4509,-7.7505 -15,-11.7449 -4.5492,-3.9943 -11.0112,-10.3594 -14.36,-14.1447 -3.3488,-3.7853 -9.0214,-11.1574 -12.6058,-16.3824 -3.5844,-5.225 -8.1163,-12.65 -10.071,-16.5 -1.9546,-3.85 -4.6535,-9.7 -5.9976,-13 -1.3441,-3.3 -3.2338,-8.25 -4.1994,-11 -0.9656,-2.75 -3.082,-11.075 -4.7032,-18.5 -2.8428,-13.0202 -2.9354,-14.2641 -2.6071,-35 0.2903,-18.3361 0.6822,-22.8979 2.6632,-31 1.2776,-5.225 3.4337,-12.875 4.7915,-17 1.3577,-4.125 3.3742,-9.525 4.481,-12 1.1069,-2.475 3.1903,-6.975 4.6298,-10 1.4396,-3.025 3.3586,-6.625 4.2645,-8 0.906,-1.375 4.158,-6.325 7.2267,-11 3.0687,-4.675 8.5282,-11.7695 12.1321,-15.7657 3.604,-3.9961 9.7389,-10.1353 13.6332,-13.6427 3.8942,-3.5074 10.7638,-8.8354 15.2656,-11.8399 4.5019,-3.0046 9.9852,-6.5342 12.1852,-7.8436 2.2,-1.3095 6.475,-3.5609 9.5,-5.0032 3.025,-1.4423 8.0875,-3.5859 11.25,-4.7636 3.1625,-1.1777 8.1927,-3.0709 11.1781,-4.207 2.9854,-1.1362 8.0479,-2.4504 11.25,-2.9205 3.2021,-0.4701 8.7469,-1.5588 12.3219,-2.4194 4.6201,-1.1122 11.6228,-1.5691 24.212,-1.5796 13.7806,-0.012 19.9954,0.4348 28,2.0109 5.6584,1.1141 14.113,3.2026 18.788,4.641 4.675,1.4385 11.2,3.7262 14.5,5.0838 3.3,1.3576 8.475,3.6351 11.5,5.0609 3.025,1.4259 6.625,3.3348 8,4.242 1.375,0.9072 6.4084,4.2395 11.1852,7.4052 4.7769,3.1657 11.8714,8.6256 15.7657,12.133 3.8943,3.5074 10.0177,9.6383 13.6077,13.6242 3.5899,3.9859 9.7779,12.2055 13.751,18.2657 3.9732,6.0602 8.7215,14.1685 10.5518,18.0185 1.8304,3.85 3.7626,7.8252 4.294,8.8337 0.5313,1.0085 2.0999,5.0585 3.4857,9 1.3859,3.9415 3.1059,9.8663 3.8224,13.1663 0.7164,3.3 2.068,9.5109 3.0035,13.8019 1.3924,6.387 1.6309,11.737 1.3151,29.5 -0.3262,18.3535 -0.7409,23.1625 -2.6905,31.1981 -1.2676,5.225 -3.4266,12.875 -4.7977,17 -1.3711,4.125 -4.8736,12.5242 -7.7833,18.6648 -2.9098,6.1406 -7.011,13.7906 -9.1139,17 -2.1029,3.2094 -6.2757,8.9852 -9.2728,12.8352 -2.9971,3.85 -10.0614,11.5618 -15.6984,17.1372 -5.9742,5.9089 -14.3527,12.8666 -20.0873,16.6809 -5.411,3.599 -14.3382,8.7907 -19.8382,11.537 -5.5,2.7463 -13.375,6.1396 -17.5,7.5406 -4.125,1.4011 -12,3.7419 -17.5,5.2019 -9.2914,2.4664 -11.7005,2.6743 -34,2.9336 -13.2,0.1535 -25.35,0.075 -27,-0.1745 z"
         id="path3763" /><path
         style="fill:#ecbc40;stroke-width:1.00066;stroke-dasharray:none"
         d="m 1851.6191,1658.1051 c -4.675,-0.7956 -10.525,-1.9324 -13,-2.5261 -2.475,-0.5938 -6.3,-1.5584 -8.5,-2.1437 -2.2,-0.5852 -7.15,-2.1598 -11,-3.499 -3.85,-1.3391 -7.7814,-2.8569 -8.7364,-3.3727 -0.955,-0.5158 -2.4175,-0.9379 -3.25,-0.9379 -0.8325,0 -1.5136,-0.3946 -1.5136,-0.8768 0,-0.4823 -2.1375,-1.8419 -4.75,-3.0214 -2.6125,-1.1795 -6.1,-2.9291 -7.75,-3.8881 -1.65,-0.9589 -5.925,-3.7242 -9.5,-6.145 -3.575,-2.4207 -9.1727,-6.689 -12.4394,-9.485 -3.2667,-2.796 -8.1483,-7.2867 -10.8479,-9.9792 -2.6997,-2.6926 -7.2287,-7.6426 -10.0645,-11 -2.8358,-3.3575 -6.7144,-8.5795 -8.6192,-11.6045 -1.9048,-3.025 -3.7065,-5.725 -4.0038,-6 -0.2972,-0.275 -1.8528,-2.975 -3.4567,-6 -1.604,-3.025 -3.2495,-6.175 -3.6568,-7 -0.4072,-0.825 -1.8871,-4.0644 -3.2888,-7.1987 -1.4016,-3.1342 -3.9345,-9.8024 -5.6286,-14.8182 -1.6941,-5.0157 -3.5313,-11.2263 -4.0826,-13.8013 -0.5514,-2.575 -1.4304,-7.8318 -1.9533,-11.6818 -0.5229,-3.85 -1.2353,-10.4875 -1.583,-14.75 -0.6323,-7.75 -0.6323,-7.75 10.0619,-7.75 5.8818,0 11.5101,0.4367 12.5073,0.9704 1.4756,0.7897 1.9462,2.7911 2.5275,10.75 0.393,5.3788 1.8234,14.2796 3.1787,19.7796 1.3554,5.5 3.2797,11.8 4.2763,14 0.9966,2.2 2.1547,5.125 2.5736,6.5 0.4189,1.375 2.2867,5.425 4.1508,9 1.864,3.575 4.3925,8.1616 5.6189,10.1923 1.2263,2.0307 3.2294,4.832 4.4514,6.2251 1.2219,1.3931 3.3062,4.2315 4.6317,6.3077 1.3254,2.0762 5.9506,7.1928 10.2782,11.3703 4.3276,4.1774 11.5505,10.2843 16.0509,13.5708 4.5004,3.2866 13.0504,8.3859 19,11.3319 5.9496,2.946 11.5894,5.7207 12.533,6.1661 0.9435,0.4453 4.9935,1.7743 9,2.9532 4.0064,1.1789 9.0844,2.3604 11.2844,2.6255 2.2,0.2652 4.5154,0.8974 5.1452,1.405 0.6298,0.5077 7.9662,1.203 16.3032,1.5452 11.9892,0.4922 17.2896,0.2612 25.3548,-1.1048 5.6083,-0.9498 12.8968,-2.4201 16.1968,-3.2672 3.3,-0.8472 9.375,-2.8724 13.5,-4.5005 4.125,-1.6281 8.85,-3.6716 10.5,-4.5412 1.65,-0.8695 4.35,-2.2569 6,-3.083 1.65,-0.8261 6.0375,-3.2845 9.75,-5.4631 3.7125,-2.1787 6.75,-4.2674 6.75,-4.6417 0,-0.3743 2.1375,-2.32 4.75,-4.3236 2.6125,-2.0037 7.2917,-6.2587 10.3982,-9.4555 3.1064,-3.1969 6.5939,-6.825 7.75,-8.0625 1.156,-1.2375 2.1018,-2.4711 2.1018,-2.7413 0,-0.2703 1.5809,-2.6328 3.513,-5.25 1.9322,-2.6173 3.9652,-5.3108 4.5179,-5.9856 0.5527,-0.6748 2.5074,-3.8248 4.3439,-7 1.8364,-3.1752 5.3653,-11.1731 7.8421,-17.7731 2.4767,-6.6 5.2318,-15.15 6.1225,-19 0.8907,-3.85 1.9077,-11.1108 2.2601,-16.1351 0.3523,-5.0243 1.0193,-9.7493 1.4823,-10.5 0.6124,-0.9931 4.0249,-1.4574 12.5265,-1.7045 11.6848,-0.3397 11.6848,-0.3397 10.9985,8 -0.3774,4.5868 -1.068,11.2646 -1.5345,14.8396 -0.4665,3.575 -1.8113,10.1 -2.9885,14.5 -1.1773,4.4 -2.64,9.575 -3.2507,11.5 -0.6106,1.925 -1.4396,4.4 -1.8423,5.5 -0.4026,1.1 -1.8617,4.475 -3.2424,7.5 -1.3807,3.025 -3.4505,7.525 -4.5997,10 -1.1491,2.475 -2.8902,5.85 -3.869,7.5 -0.9788,1.65 -2.1172,3.15 -2.5297,3.3334 -0.4125,0.1833 -0.75,0.8788 -0.75,1.5455 0,0.6666 -3.8099,6.011 -8.4666,11.8763 -4.6566,5.8653 -11.9691,14.1075 -16.25,18.316 -4.2808,4.2085 -12.0555,10.6391 -17.2769,14.2903 -5.2215,3.6512 -10.8465,7.3988 -12.5,8.3281 -1.6536,0.9292 -5.7065,3.0132 -9.0065,4.6309 -3.3,1.6178 -8.025,3.8262 -10.5,4.9076 -2.475,1.0814 -6.975,2.7714 -10,3.7557 -3.025,0.9842 -6.4,2.1421 -7.5,2.5731 -1.1,0.431 -3.575,1.0379 -5.5,1.3487 -1.925,0.3108 -6.65,1.261 -10.5,2.1117 -4.1954,0.927 -14.0112,1.7193 -24.5,1.9777 -12.4573,0.3068 -19.9493,0.014 -26,-1.0156 z m 3.5,-31.5953 c -2.75,-0.4907 -7.025,-1.3862 -9.5,-1.99 -2.475,-0.6038 -8.55,-2.4299 -13.5,-4.058 -4.95,-1.6281 -10.852,-3.9447 -13.1157,-5.1481 -2.2637,-1.2034 -6.0887,-3.2638 -8.5,-4.5787 -2.4113,-1.3149 -6.8593,-4.0855 -9.8843,-6.1568 -3.025,-2.0714 -8.1554,-6.1546 -11.4009,-9.0738 -3.2455,-2.9193 -9.183,-9.0618 -13.1944,-13.6502 -4.2548,-4.8667 -9.7571,-12.7975 -13.2065,-19.0355 -3.2521,-5.8811 -7.0771,-13.843 -8.4999,-17.693 -1.4228,-3.85 -3.2718,-9.475 -4.1089,-12.5 -0.837,-3.025 -2.2755,-10 -3.1966,-15.5 -1.3001,-7.7627 -1.5388,-13.3558 -1.0672,-25 0.3342,-8.25 1.3136,-17.925 2.1765,-21.5 0.863,-3.575 2.5049,-9.2 3.6488,-12.5 1.1438,-3.3 3.883,-9.7827 6.087,-14.406 2.204,-4.6234 6.801,-12.4984 10.2156,-17.5 3.4145,-5.0017 9.5468,-12.5075 13.6274,-16.6796 4.0805,-4.1721 10.1191,-9.5676 13.4191,-11.99 3.3,-2.4224 8.7,-6.1656 12,-8.3181 3.3,-2.1526 8.475,-4.9848 11.5,-6.2939 3.025,-1.309 6.4,-2.7993 7.5,-3.3117 1.1,-0.5124 4.925,-1.9137 8.5,-3.114 3.575,-1.2002 8.525,-2.5864 11,-3.0802 2.475,-0.4939 7.65,-1.3684 11.5,-1.9434 3.85,-0.575 13.75,-0.8236 22,-0.5525 8.25,0.2712 17.25,1.0363 20,1.7004 2.75,0.664 8.15,2.1088 12,3.2106 3.85,1.1017 8.575,2.6785 10.5,3.5038 1.925,0.8253 6.2,2.7881 9.5,4.3616 3.3,1.5736 8.085,4.1103 10.6333,5.6371 2.5484,1.5267 6.3274,4.1259 8.398,5.7759 2.0705,1.65 5.6106,4.5177 7.8667,6.3726 2.2561,1.8549 6.6276,5.982 9.7145,9.1712 3.0869,3.1893 7.9667,9.0354 10.8441,12.9915 2.8774,3.9561 7.7315,12.2041 10.7868,18.3288 3.0552,6.1248 5.9379,11.9173 6.4058,12.8724 0.468,0.955 0.8508,2.4236 0.8508,3.2635 0,0.84 0.401,2.3086 0.891,3.2636 0.49,0.955 1.7233,5.1114 2.7407,9.2364 1.4605,5.9216 1.8441,11.2883 1.823,25.5 -0.015,10.2492 -0.5693,20.7989 -1.2867,24.5 -0.6929,3.575 -2.4011,10.55 -3.7958,15.5 -1.3948,4.95 -4.1224,12.375 -6.0613,16.5 -1.939,4.125 -5.1404,10.2 -7.1144,13.5 -1.974,3.3 -5.6543,8.7 -8.1786,12 -2.5243,3.3 -7.0832,8.475 -10.1308,11.5 -3.0477,3.025 -7.5316,7.1248 -9.9642,9.1107 -2.4326,1.9859 -8.2758,6.1216 -12.985,9.1905 -4.7091,3.069 -11.0091,6.5418 -14,7.7174 -2.9908,1.1756 -6.7879,2.7225 -8.4379,3.4376 -1.65,0.7151 -5.0541,2.0354 -7.5647,2.934 -2.5106,0.8986 -9.2597,2.5284 -14.998,3.6218 -7.5013,1.4294 -14.2276,1.9566 -23.9353,1.8762 -7.4261,-0.062 -15.752,-0.5133 -18.502,-1.0041 z m -31.5,-62.5021 c 0,-2.7454 -0.3899,-4.259 -1,-3.882 -0.55,0.34 -1,2.6431 -1,5.1181 0,2.7453 0.39,4.259 1,3.8819 0.55,-0.3399 1,-2.643 1,-5.118 z m 102.4573,3.868 c -0.4162,-0.9625 -1.0985,-4 -1.5163,-6.75 -0.4178,-2.75 -1.305,-8.375 -1.9717,-12.5 -0.6666,-4.125 -1.6075,-7.9275 -2.0907,-8.45 -0.4832,-0.5225 -0.8786,-3.5334 -0.8786,-6.691 0,-3.1575 -0.45,-6.019 -1,-6.359 -0.55,-0.3399 -1,-1.6899 -1,-3 0,-1.31 -0.45,-2.66 -1,-3 -0.61,-0.377 -1,1.1366 -1,3.882 0,2.475 0.45,4.7781 1,5.118 0.55,0.34 1,2.59 1,5 0,2.4101 0.45,4.6601 1,5 0.55,0.34 1,2.631 1,5.0912 0,2.4602 0.675,6.0886 1.5,8.0631 0.825,1.9745 1.5,5.5661 1.5,7.9814 0,2.4153 0.5583,5.2854 1.2406,6.3779 0.6823,1.0925 1.6304,1.9864 2.107,1.9864 0.4765,0 0.5259,-0.7875 0.1097,-1.75 z m -100.0423,-13 c 0.3486,-2.0625 0.8995,-6.5502 1.2242,-9.9728 0.3247,-3.4225 1.2137,-6.7401 1.9756,-7.3724 0.8539,-0.7087 1.3852,-3.1355 1.3852,-6.3272 0,-2.8477 0.4922,-5.6698 1.0938,-6.2713 0.6016,-0.6016 0.9183,-1.9291 0.7039,-2.95 -0.3028,-1.4416 -0.753,-1.0744 -2.0153,1.6437 -0.894,1.925 -2.3442,7.8806 -3.2227,13.2345 -0.8786,5.354 -2.0389,10.8958 -2.5785,12.3151 -0.5396,1.4194 -0.9812,4.1263 -0.9812,6.0155 0,1.8892 0.4008,3.4349 0.8906,3.4349 0.4899,0 1.1758,-1.6875 1.5244,-3.75 z m 110.185,-56.1956 c 2.145,-1.62 7.6653,-6.4994 12.2672,-10.843 6.4365,-6.0751 8.2274,-8.3381 7.7612,-9.8069 -0.3333,-1.0502 -1.4753,-2.4523 -2.5378,-3.1158 -1.0624,-0.6635 -5.6799,-1.7079 -10.2611,-2.3209 -4.5812,-0.613 -11.2545,-1.5044 -14.8295,-1.9808 -3.575,-0.4765 -10.7738,-1.3808 -15.9975,-2.0096 -5.2236,-0.6288 -10.0415,-1.5948 -10.7064,-2.1467 -0.6649,-0.5518 -2.9789,-4.6769 -5.1421,-9.167 -2.1632,-4.49 -5.1677,-10.8637 -6.6766,-14.1637 -1.5089,-3.3 -4.7707,-10.1695 -7.2486,-15.2656 -3.5247,-7.2492 -5.0528,-9.4031 -7.0217,-9.8973 -1.3841,-0.3473 -3.1992,-0.201 -4.0335,0.3252 -0.8343,0.5263 -2.7788,3.4051 -4.321,6.3973 -1.5423,2.9922 -5.8974,11.9654 -9.678,19.9404 -3.7805,7.975 -7.502,15.9641 -8.2698,17.7536 -0.9196,2.1431 -2.4214,3.57 -4.4004,4.1808 -1.6524,0.51 -5.2544,1.184 -8.0044,1.4977 -2.75,0.3138 -12.65,1.4927 -22,2.6199 -9.35,1.1271 -17.7994,2.2857 -18.7766,2.5745 -0.9772,0.2889 -2.5129,1.6489 -3.4128,3.0223 -1.6296,2.4871 -1.6008,2.5311 7.1471,10.9507 4.8308,4.6494 10.4066,9.7916 12.3906,11.427 3.6074,2.9735 3.6074,2.9735 61.7295,2.9735 58.1222,0 58.1222,0 62.0222,-2.9456 z"
         id="path3762" /><path
         style="fill:#dfa839;stroke-width:1.00066;stroke-dasharray:none"
         d="m 1812.6191,1647.1257 c 0,-0.275 0.225,-0.5 0.5,-0.5 0.275,0 0.5,0.225 0.5,0.5 0,0.275 -0.225,0.5 -0.5,0.5 -0.275,0 -0.5,-0.225 -0.5,-0.5 z m 41,-22.2378 c -2.475,-0.2136 -4.9275,-0.81 -5.45,-1.3253 -0.5225,-0.5153 -1.8779,-0.9369 -3.0121,-0.9369 -1.1341,0 -5.4919,-1.0885 -9.6839,-2.419 -4.192,-1.3304 -8.4615,-2.8594 -9.4879,-3.3976 -1.0263,-0.5382 -5.8282,-2.9023 -10.6709,-5.2535 -4.8426,-2.3511 -11.8306,-6.5597 -15.5289,-9.3523 -3.6982,-2.7927 -8.24,-6.4276 -10.0929,-8.0776 -1.8529,-1.65 -4.9899,-4.7668 -6.9711,-6.9264 -1.9812,-2.1595 -4.2932,-4.6504 -5.1378,-5.5355 -0.8445,-0.885 -2.8669,-3.3931 -4.4943,-5.5736 -1.6273,-2.1804 -3.1863,-4.1895 -3.4645,-4.4645 -0.2781,-0.275 -1.0597,-1.4 -1.7369,-2.5 -0.6772,-1.1 -3.9764,-7.625 -7.3315,-14.5 -3.3551,-6.875 -6.4796,-13.4 -6.9434,-14.5 -0.4638,-1.1 -1.0661,-3.125 -1.3384,-4.5 -0.2724,-1.375 -1.4254,-6.775 -2.5622,-12 -1.6567,-7.6144 -2.0696,-13.0727 -2.0801,-27.5003 -0.01,-12.1459 0.4598,-20.1144 1.4409,-24.5 0.7998,-3.5748 1.8613,-8.0747 2.359,-9.9997 0.4977,-1.925 2.1451,-6.425 3.6609,-10 1.5157,-3.575 4.1158,-9.2 5.7779,-12.5 1.662,-3.3 4.7615,-8.5646 6.8877,-11.6991 2.1262,-3.1345 6.8583,-9.1166 10.5157,-13.2935 3.6574,-4.177 10.6183,-10.7249 15.4687,-14.5509 4.8503,-3.8261 9.0867,-6.9565 9.4141,-6.9565 0.3275,0 2.0279,-1.0592 3.7787,-2.3539 1.7508,-1.2946 6.7832,-4.0558 11.1832,-6.136 4.4,-2.0802 8.9,-4.1483 10,-4.5958 1.1,-0.4474 4.25,-1.5484 7,-2.4466 2.75,-0.8982 9.0183,-2.4958 13.9295,-3.5504 6.6592,-1.4298 12.927,-1.9173 24.6533,-1.9173 11.5063,0 18.2309,0.5099 25.0706,1.901 5.1406,1.0455 12.9466,3.1103 17.3466,4.5883 4.4,1.4781 12.292,4.9215 17.5378,7.652 5.2458,2.7305 12.6708,7.3019 16.5,10.1587 3.8292,2.8568 10.7872,9.0405 15.4622,13.7416 4.675,4.701 10.8251,11.9217 13.6669,16.046 2.8417,4.1243 7.1709,11.5293 9.6204,16.4556 2.4494,4.9262 5.603,12.5568 7.008,16.9568 1.405,4.4 3.1205,10.475 3.8122,13.5 0.7852,3.4339 1.2017,11.8863 1.1088,22.5 -0.095,10.8637 -0.7441,20.2487 -1.7979,26 -0.9069,4.95 -2.047,9.7814 -2.5336,10.7365 -0.4866,0.955 -0.8848,2.532 -0.8848,3.5043 0,0.9723 -1.0721,4.6909 -2.3825,8.2636 -1.3105,3.5726 -4.2886,10.0956 -6.6182,14.4956 -2.3295,4.4 -4.8574,8.7105 -5.6174,9.5788 -0.76,0.8683 -1.3819,1.8569 -1.3819,2.197 0,0.3401 -2.1861,3.5067 -4.8581,7.0369 -2.672,3.5302 -7.9409,9.4115 -11.7086,13.0697 -3.7678,3.6581 -12.128,10.2436 -18.5783,14.6344 -6.4503,4.3908 -12.094,7.986 -12.5414,7.9894 -0.4475,0 -2.1636,0.7111 -3.8136,1.5727 -1.65,0.8616 -6.825,2.9266 -11.5,4.589 -4.675,1.6624 -10.525,3.4504 -13,3.9733 -2.475,0.5228 -6.75,1.3471 -9.5,1.8317 -2.75,0.4846 -11.975,0.8354 -20.5,0.7794 -8.525,-0.056 -17.525,-0.2765 -20,-0.4901 z m -23.2017,-53.1093 c 2.036,-1.0159 6.6267,-3.4176 10.2017,-5.3372 3.575,-1.9196 8.525,-4.621 11,-6.0032 2.475,-1.3821 7.65,-4.2235 11.5,-6.3141 3.85,-2.0906 7.7662,-4.2779 8.7025,-4.8606 1.2963,-0.8067 2.6938,-0.5304 5.8571,1.158 2.285,1.2197 5.5688,3.0021 7.2975,3.9609 1.7286,0.9588 3.3679,1.9683 3.6429,2.2433 0.275,0.275 2.3,1.3957 4.5,2.4905 2.2,1.0947 4.225,2.2197 4.5,2.5 0.275,0.2802 2.3,1.4458 4.5,2.5901 2.2,1.1443 6.993,3.7318 10.6511,5.75 3.6581,2.0182 7.3865,3.6694 8.2852,3.6694 0.8988,0 2.7433,-0.7267 4.0989,-1.615 1.3557,-0.8882 2.4648,-2.5486 2.4648,-3.6898 0,-1.1411 -0.4895,-4.8019 -1.0878,-8.135 -0.5984,-3.3331 -1.7162,-8.7602 -2.4841,-12.0602 -0.768,-3.3 -1.8853,-9.15 -2.4831,-13 -0.5978,-3.85 -1.991,-9.1921 -3.096,-11.8715 -2.0091,-4.8715 -2.0091,-4.8715 5.5347,-12.3665 4.149,-4.1223 8.8438,-8.4551 10.4327,-9.6285 1.589,-1.1734 7.0818,-6.071 12.2062,-10.8835 5.1245,-4.8125 9.6908,-8.75 10.1473,-8.75 0.4566,0 0.8301,-1.0438 0.8301,-2.3196 0,-1.2758 -1.0714,-3.2513 -2.3809,-4.3899 -1.3095,-1.1386 -4.347,-2.3081 -6.75,-2.5989 -2.403,-0.2908 -7.9691,-0.9918 -12.3691,-1.5579 -4.4,-0.566 -12.725,-1.7926 -18.5,-2.7257 -5.775,-0.9331 -11.625,-1.7743 -13,-1.8692 -2.0427,-0.1412 -3.1157,-1.441 -5.866,-7.1058 -1.8514,-3.8131 -4.3994,-9.183 -5.6622,-11.933 -1.2629,-2.75 -4.8153,-10.2741 -7.8942,-16.7203 -3.1907,-6.6801 -6.479,-12.1917 -7.6465,-12.8166 -1.1266,-0.6029 -3.3443,-0.8116 -4.9283,-0.4637 -2.476,0.5439 -3.5709,2.0611 -7.8058,10.8166 -2.7092,5.6012 -6.1689,12.7802 -7.6882,15.9534 -1.5193,3.1731 -3.1553,6.0122 -3.6356,6.309 -0.4802,0.2968 -0.8661,1.3006 -0.8575,2.2306 0.01,0.9301 -1.225,4.166 -2.7413,7.191 -1.5164,3.025 -2.7888,5.6029 -2.8276,5.7286 -0.039,0.1257 -5.2177,0.9024 -11.5087,1.726 -6.2909,0.8237 -15.0381,1.9543 -19.4381,2.5126 -4.4,0.5583 -9.6875,1.2441 -11.75,1.524 -2.0625,0.2799 -5.3347,0.7842 -7.2717,1.1208 -1.9369,0.3365 -4.1869,1.5617 -5,2.7225 -0.813,1.1608 -1.4384,2.7979 -1.3896,3.638 0.049,0.8402 2.8613,3.9669 6.25,6.9483 3.3887,2.9815 9.1259,8.1565 12.7493,11.5 3.6234,3.3436 9.8109,8.9797 13.75,12.5248 5.5003,4.95 7.162,7.0678 7.162,9.1275 0,1.4751 -0.675,3.2422 -1.5,3.9269 -0.825,0.6847 -1.5,2.3954 -1.5,3.8015 0,1.4061 -0.4131,3.9385 -0.9181,5.6275 -0.505,1.6891 -1.6041,6.446 -2.4424,10.571 -0.8383,4.125 -1.9843,9.975 -2.5466,13 -0.5623,3.025 -1.2244,7.4427 -1.4714,9.8171 -0.4141,3.9806 -0.2025,4.4675 2.7147,6.2463 1.7401,1.061 3.2981,1.9308 3.4621,1.9329 0.1641,0 1.9641,-0.8275 4,-1.8434 z m -109.7193,-27.7362 c 0.048,-1.1649 0.2849,-1.4019 0.6042,-0.6042 0.2888,0.7219 0.2533,1.5844 -0.079,1.9167 -0.3323,0.3323 -0.5686,-0.2583 -0.5252,-1.3125 z"
         id="path3761" /><path
         style="fill:#ae7626;stroke-width:1.00066;stroke-dasharray:none"
         d="m 1822.6669,1578.1766 c -1.4674,-1.5621 -2.062,-3.0714 -1.6415,-4.1672 0.5025,-1.3095 0.9369,-1.4405 1.8265,-0.5509 0.642,0.642 2.1863,1.1672 3.4318,1.1672 1.2454,0 4.1929,-1.0581 6.55,-2.3514 2.357,-1.2932 6.9854,-3.8294 10.2854,-5.6359 3.3,-1.8065 11.2816,-6.1484 17.7369,-9.6486 6.4552,-3.5003 12.2423,-6.3641 12.86,-6.3641 0.6178,0 3.8862,1.439 7.2632,3.1978 3.377,1.7587 7.2649,3.937 8.6399,4.8406 1.375,0.9036 5.875,3.4571 10,5.6746 4.125,2.2174 9.8955,5.4469 12.8233,7.1766 2.9278,1.7297 6.3028,3.2151 7.5,3.3009 1.1972,0.086 3.1892,-0.1773 4.4267,-0.5847 1.5852,-0.5217 2.25,-0.3431 2.25,0.6043 0,0.7397 -0.7349,2.3942 -1.6332,3.6767 -1.308,1.8675 -2.2717,2.2281 -4.8408,1.8112 -1.7642,-0.2863 -5.4167,-1.8403 -8.1168,-3.4533 -2.7,-1.613 -10.9754,-6.2654 -18.3897,-10.3387 -7.4143,-4.0733 -14.3893,-7.9508 -15.5,-8.6167 -1.1107,-0.666 -2.5301,-1.4817 -3.1541,-1.8128 -0.6241,-0.331 -5.1241,1.6118 -10,4.3175 -4.876,2.7056 -12.9154,7.0674 -17.8654,9.6927 -4.95,2.6254 -11.475,6.0592 -14.5,7.6307 -3.025,1.5715 -5.984,2.863 -6.5756,2.87 -0.5917,0.01 -2.1111,-1.0895 -3.3766,-2.4365 z m 95.5689,-58.1075 c -0.3672,-0.9569 0.4586,-2.5295 2.143,-4.0813 1.5072,-1.3885 5.4403,-5.0825 8.7403,-8.2087 3.3,-3.1263 10.6524,-9.8749 16.3385,-14.9969 5.6862,-5.1221 10.5648,-9.0865 10.8413,-8.81 0.2766,0.2765 0.2311,1.359 -0.101,2.4055 -0.3322,1.0465 -4.0858,5.2503 -8.3414,9.3418 -4.2555,4.0914 -12.2962,11.5941 -17.8681,16.6726 -5.5718,5.0785 -10.3612,9.2336 -10.643,9.2336 -0.2817,0 -0.7811,-0.7005 -1.1096,-1.5566 z m -107.7344,-15.204 c -9.1398,-8.6566 -17.1796,-16.7075 -17.8662,-17.8908 -0.6867,-1.1832 -1.0539,-2.7349 -0.8162,-3.4482 0.2569,-0.7705 6.8445,4.77 16.2315,13.6514 8.6895,8.2215 17.0973,16.026 18.6839,17.3433 1.5866,1.3172 2.8847,3.2297 2.8847,4.25 0,1.0202 -0.5625,1.8502 -1.25,1.8443 -0.6875,-0.01 -8.7279,-7.0933 -17.8677,-15.75 z m -57.7244,-43.2394 c 0,-1.375 0.227,-1.9375 0.5044,-1.25 0.2774,0.6875 0.2774,1.8125 0,2.5 -0.2774,0.6875 -0.5044,0.125 -0.5044,-1.25 z m 242,0 c 0,-1.375 0.227,-1.9375 0.5044,-1.25 0.2774,0.6875 0.2774,1.8125 0,2.5 -0.2774,0.6875 -0.5044,0.125 -0.5044,-1.25 z m -240.1579,-6.3819 c 0,-0.825 0.45,-1.7781 1,-2.1181 0.55,-0.3399 1,0.057 1,0.882 0,0.825 -0.45,1.7781 -1,2.118 -0.55,0.34 -1,-0.057 -1,-0.8819 z m 237.6384,-0.1181 c -0.3166,-0.825 -0.1397,-1.5 0.393,-1.5 0.5328,0 0.9686,0.675 0.9686,1.5 0,0.825 -0.1768,1.5 -0.393,1.5 -0.2161,0 -0.652,-0.675 -0.9686,-1.5 z m -234.5022,-4.429 c -0.075,-0.7859 0.4042,-2.9234 1.0647,-4.75 0.6605,-1.8265 1.5605,-3.321 2,-3.321 0.4395,0 0.7991,-0.659 0.7991,-1.4645 0,-0.8055 1.1875,-3.618 2.6389,-6.25 1.4513,-2.632 4.9949,-7.9355 7.8745,-11.7855 2.8795,-3.85 9.0046,-10.6117 13.6111,-15.0261 4.6066,-4.4143 11.3005,-10.0857 14.8755,-12.6029 3.575,-2.5173 9.4705,-6.1595 13.1011,-8.0938 3.6306,-1.9343 10.3806,-4.977 15,-6.7616 4.6194,-1.7846 10.6489,-3.825 13.3989,-4.5343 2.75,-0.7094 8.4395,-1.8368 12.6433,-2.5055 4.881,-0.7764 13.5547,-1.0346 24,-0.7146 13.3451,0.4088 18.1059,0.9742 25.8567,3.0707 5.225,1.4132 10.988,3.0176 12.8066,3.5652 1.8186,0.5477 7.977,3.3343 13.6852,6.1926 5.7082,2.8582 13.8258,7.7783 18.0392,10.9335 4.2133,3.1552 10.3811,8.3782 13.7062,11.6068 3.3252,3.2285 8.4571,8.8835 11.4043,12.5666 2.9472,3.6832 5.3585,7.0228 5.3585,7.4213 0,0.3986 0.6294,1.4351 1.3986,2.3034 0.7691,0.8683 2.3441,3.2799 3.5,5.3591 1.1558,2.0793 2.1014,4.4418 2.1014,5.25 0,0.8083 0.45,1.4696 1,1.4696 0.55,0 0.9776,1.2375 0.9502,2.75 -0.045,2.4876 -0.2554,2.3206 -2.2038,-1.75 -1.1846,-2.475 -2.5122,-4.65 -2.9501,-4.8333 -0.438,-0.1833 -0.7963,-0.7698 -0.7963,-1.3032 0,-0.5335 -2.5377,-4.4335 -5.6394,-8.6667 -3.1017,-4.2332 -9.4955,-11.4555 -14.2086,-16.0495 -4.713,-4.594 -11.024,-9.923 -14.0243,-11.8423 -3.0004,-1.9193 -6.0548,-4.0893 -6.7877,-4.8222 -0.7329,-0.7329 -5.4967,-3.3364 -10.5863,-5.7855 -5.0895,-2.4492 -12.8537,-5.5871 -17.2537,-6.9732 -4.4,-1.386 -10.025,-3.0145 -12.5,-3.6189 -2.475,-0.6044 -8.3132,-1.5503 -12.9737,-2.1021 -4.6606,-0.5517 -12.0856,-0.9971 -16.5,-0.9898 -4.4145,0.01 -12.7918,0.8626 -18.6164,1.9005 -5.8246,1.038 -14.3746,3.1265 -19,4.6412 -4.6254,1.5148 -12.0099,4.5349 -16.4099,6.7115 -4.4,2.1766 -10.5824,5.7071 -13.7386,7.8455 -3.1563,2.1384 -6.0813,3.8999 -6.5,3.9144 -0.4188,0.014 -4.6105,3.7269 -9.3151,8.25 -4.7046,4.523 -10.6014,10.6986 -13.1041,13.7236 -2.5028,3.025 -6.5839,8.6779 -9.0692,12.562 -2.4854,3.8842 -4.8314,8.0467 -5.2133,9.25 -0.3819,1.2034 -1.0828,2.188 -1.5575,2.188 -0.4747,0 -1.0581,1.0125 -1.2964,2.25 -0.2384,1.2375 -0.4947,1.607 -0.5696,0.821 z m 232.0217,-1.071 c 0,-1.375 0.227,-1.9375 0.5044,-1.25 0.2774,0.6875 0.2774,1.8125 0,2.5 -0.2774,0.6875 -0.5044,0.125 -0.5044,-1.25 z"
         id="path3760" /></g></g></svg>
