<?xml version="1.0" encoding="UTF-8" standalone="no"?>
<!-- Created with Inkscape (http://www.inkscape.org/) -->

<svg
   version="1.1"
   id="svg1"
   width="172.68701"
   height="151.13342"
   viewBox="0 0 172.68701 151.13342"
   xml:space="preserve"
   xmlns:xlink="http://www.w3.org/1999/xlink"
   xmlns="http://www.w3.org/2000/svg"
   xmlns:svg="http://www.w3.org/2000/svg"><defs
     id="defs1"><linearGradient
       id="linearGradient1301"><stop
         style="stop-color:#3be13b;stop-opacity:0.76033056;"
         offset="0.18134718"
         id="stop1533" /><stop
         style="stop-color:#3be13b;stop-opacity:0;"
         offset="0.9585492"
         id="stop1573" /></linearGradient><linearGradient
       xlink:href="#linearGradient1301"
       id="linearGradient1573"
       x1="-3235.2046"
       y1="1494.0162"
       x2="-3235.2046"
       y2="1690.58"
       gradientUnits="userSpaceOnUse" /></defs><g
     id="layer-MC0"
     transform="translate(-1497.5554,-911.8702)"
     style="display:inline"><g
       id="g1301"
       transform="matrix(0.28256004,0,0,0.3181555,2494.7627,533.5065)"><path
         style="display:inline;fill:url(#linearGradient1573);stroke:none;stroke-width:10.4504;stroke-dasharray:none;stroke-opacity:1;paint-order:markers stroke fill"
         d="m -3305.3346,1520.325 c 0,0 -6.3628,34.5498 -28.1517,113.1821 75.4537,39.7253 121.4435,40.772 196.5636,4.336 -17.1211,-65.1741 -26.345,-109.5535 -26.345,-109.5535 z"
         id="path1289" /><g
         id="g1300"
         style="display:inline"
         transform="matrix(0.21018741,0,0,0.16226655,2247.0818,868.05719)"><ellipse
           style="display:inline;fill:#000000;fill-opacity:1;stroke:none;stroke-width:75.5431;stroke-dasharray:none;stroke-opacity:1;paint-order:markers stroke fill"
           id="path1295"
           cx="-26309.188"
           cy="2379.2886"
           rx="76.480042"
           ry="83.918015" /><ellipse
           style="display:inline;fill:#000000;fill-opacity:1;stroke:none;stroke-width:75.5431;stroke-dasharray:none;stroke-opacity:1;paint-order:markers stroke fill"
           id="path1296"
           cx="-25751.064"
           cy="2405.0208"
           rx="71.464958"
           ry="81.854454" /><path
           style="display:inline;fill:#000000;fill-opacity:1;stroke:none;stroke-width:103.117;stroke-dasharray:none;stroke-opacity:1;paint-order:markers stroke fill"
           d="m -26330.716,2395.9694 83.858,122.0607 60.883,-65.0087 -82.35,-72.1351 z"
           id="path1297" /><path
           style="display:inline;fill:#000000;fill-opacity:1;stroke:none;stroke-width:75.5431;stroke-dasharray:none;stroke-opacity:1;paint-order:markers stroke fill"
           d="m -25866.839,2475.6199 c 0,0 43.362,-65.5082 80.975,-67.5716 37.614,-2.0634 18.655,55.1482 18.655,55.1482 0,0 -58.75,91.0228 -53.175,97.3053 5.575,6.2826 -48.438,-54.1649 -48.438,-54.1649 z"
           id="path1298" /><path
           d="m -26047.657,2416.2056 c -106.566,0 -238.992,137.0037 -291.8,285.8933 -57.424,161.9067 -99.756,236.0426 -99.755,426.6062 0,190.5636 42.331,373.3229 117.683,508.0737 75.351,134.7509 177.551,210.4556 284.116,210.4604 106.567,0 208.771,-75.7006 284.126,-210.4521 75.354,-134.7516 130.493,-230.0122 130.492,-420.5798 0,-190.5677 -37.281,-364.7201 -104.882,-505.0647 -88.16,-183.0286 -213.413,-294.9384 -319.98,-294.937 z"
           style="display:inline;fill:#00d308;fill-opacity:1;stroke:#000000;stroke-width:123.564;stroke-dasharray:none;stroke-opacity:1;paint-order:markers stroke fill"
           id="path1293" /><path
           d="m -26159.859,2564.2032 c -15.051,-0.3053 -34.157,23.1571 -42.052,48.9162 -8.583,28.011 -14.78,40.7907 -15.337,73.9535 -0.558,33.1624 4.883,65.088 15.13,88.7535 10.247,23.6658 24.46,37.1327 39.512,37.439 15.048,0.3052 29.706,-12.5756 40.742,-35.8096 11.039,-23.2339 19.103,-39.6537 19.664,-72.8166 0.558,-33.1633 -4.197,-63.5766 -13.333,-88.1936 -11.914,-32.1035 -29.276,-51.9372 -44.326,-52.2424 z"
           style="display:inline;fill:#000000;fill-opacity:1;stroke:none;stroke-width:11.4313;stroke-opacity:1;paint-order:markers stroke fill"
           id="path1293-2" /><path
           d="m -25945.597,2574.5807 c -13.917,-3.7532 -43.288,22.4076 -55.551,44.5044 -13.335,24.0293 -12.326,37.7631 -19.195,68.4257 -6.869,30.6624 -9.995,49.4839 -5.014,73.8195 4.983,24.336 15.601,40.1166 29.517,43.8704 13.916,3.7533 34.257,0.5182 48.953,-18.5102 14.698,-19.028 21.065,-37.7601 27.934,-68.4233 6.869,-30.6631 8.278,-59.9978 4.509,-84.961 -4.915,-32.5548 -17.238,-54.9728 -31.153,-58.7255 z"
           style="display:inline;fill:#000000;fill-opacity:1;stroke:none;stroke-width:10.8823;stroke-opacity:1;paint-order:markers stroke fill"
           id="path1293-2-1" /></g><path
         style="display:inline;fill:#efef9a;fill-opacity:1;stroke:none;stroke-width:10.151;stroke-dasharray:none;stroke-opacity:1;paint-order:markers stroke fill"
         d="m -3308.0981,1505.5002 c -34.4432,-3.9392 -87.1782,-16.8432 -97.0483,-25.6446 -9.8704,-8.8013 -21.4601,-17.6603 -26.1123,-26.5487 -8.513,-16.2648 -62.1021,-32.99 -62.1021,-32.99 0,0 -28.9636,3.2006 -22.9621,-24.8656 6.0015,-28.0662 116.0639,-36.6496 136.6822,-23.739 42.999,26.9248 191.2557,15.4592 339.1719,-18.4252 38.7931,-8.8867 115.5738,29.9609 115.5738,29.9609 l -16.3977,34.4108 -85.2928,47.6943 c 0,0 -4.4442,5.1977 -15.6234,15.7084 -11.1792,10.5109 -123.3264,27.1022 -123.3264,27.1022 z"
         id="path1285" /><path
         d="m -3224.3017,1193.3655 c -38.3946,0 -75.2167,14.3904 -102.3659,40.0056 -27.1491,25.6152 -44.8973,60.4429 -42.4017,96.5823 6.328,91.6376 75.8939,55.3368 148.0951,55.6216 76.1588,0.3004 134.1982,29.901 141.4401,-55.6216 3.0565,-36.0963 -15.2526,-70.9671 -42.4016,-96.5823 -27.1492,-25.6152 -63.9713,-40.0056 -102.366,-40.0056 z"
         style="display:inline;fill:#39cee1;fill-opacity:0.374214;stroke-width:10.518;paint-order:markers stroke fill"
         id="path1288" /><g
         id="g1298"
         style="display:inline"
         transform="matrix(0.14490786,0,0,0.13206413,102.2869,921.87192)"><g
           id="g1299"><path
             style="fill:#336483;fill-opacity:1"
             d="m -23220.426,4693.1193 c -392.228,-32.8835 -712.456,-122.2886 -892.047,-249.0528 -43.187,-30.4832 -106.381,-97.3912 -95.682,-101.3045 4.173,-1.5263 33.254,4.0515 64.624,12.3949 173.688,46.1951 426.176,92.9748 616.013,114.1315 418.064,46.5918 759.594,46.6595 1155.907,0.2291 193.166,-22.6304 438.038,-68.3503 615.923,-114.9987 33.219,-8.7112 62.494,-13.5385 65.056,-10.7273 6.76,7.4171 -29.421,46.9776 -77.147,84.3533 -121.477,95.1329 -326.251,172.8321 -586.579,222.5706 -257.231,49.1467 -590.823,65.4798 -866.068,42.4039 z m 55.208,-242.8889 c -151.077,-4.6513 -440.455,-32.8489 -576.229,-56.149 -251.505,-43.1605 -371.022,-70.4135 -534.822,-121.9534 -396.539,-124.7711 -662.718,-297.4056 -748.599,-485.5149 -32.322,-70.7953 -41.612,-124.7365 -32.236,-187.1716 36.507,-243.1109 348.521,-466.4698 851.035,-609.2212 50.585,-14.3699 127.114,-23.5023 162.75,-43.053 v 0 l 70.779,-16.9261 7.512,-30.9189 c 51.157,-210.5304 132.613,-373.35 260.618,-520.944 161.977,-186.763 360.139,-301.2939 594.15,-343.3985 70.316,-12.6517 236.673,-14.112 306.019,-2.6862 315.393,51.9658 588.427,251.8109 749.574,548.6446 43.818,80.7116 96.111,214.6113 110.789,283.6791 13.508,63.5617 15.101,65.2659 74.165,79.2997 532.311,126.4796 894.014,329.508 999.27,560.9039 26.463,58.1761 27.39,62.7893 27.39,136.3272 0,73.1257 -1.05,78.4436 -26.737,135.4732 -62.078,137.8225 -216.332,268.7801 -442.633,375.7856 -203.939,96.431 -544.782,196.4923 -796.952,233.9609 -181.077,26.9052 -253.797,35.645 -441.66,53.08 -84.703,7.861 -482.337,14.8419 -614.183,10.7826 z m 277.875,-189.1333 c 125.904,-47.072 167.913,-222.4307 79.645,-332.4615 -90.978,-113.4083 -252.643,-89.997 -312.981,45.3239 -16.178,36.2825 -18.112,48.504 -15.948,100.7916 2.231,53.8967 4.903,63.5351 28.364,102.3059 50.164,82.9 136.314,115.6722 220.92,84.0401 z m -840.302,-115.794 c 71.433,-35.7298 107.821,-95.1267 112.49,-183.6187 2.845,-53.9351 1.326,-63.3677 -16.39,-101.7891 -42.482,-92.1306 -134.981,-135.3063 -226.996,-105.9552 -53.323,17.009 -106.492,73.6227 -124.256,132.3052 -32.303,106.7125 20.643,225.9862 117.133,263.873 33.857,13.2938 106.91,10.7451 138.019,-4.8152 z m 1696.454,-28.2382 c 39.183,-14.6494 90.056,-66.7952 108.383,-111.0936 16.07,-38.8447 18.031,-120.7447 3.781,-157.9521 -18.323,-47.8432 -51.398,-89.1092 -88.495,-110.4099 -30.786,-17.6775 -44.673,-20.8427 -91.502,-20.8557 -66.566,-0.019 -97.816,15.2527 -140.762,68.7877 -128.82,160.5802 22.512,401.0949 208.595,331.5236 z m -2545.269,-293.5063 c 64.85,-33.2829 113.865,-114.5089 113.865,-188.6912 0,-85.2398 -61.033,-175.4278 -134.598,-198.8937 -77.258,-24.6436 -161.142,4.1307 -207.892,71.312 -75.047,107.8451 -38.289,262.6988 75.859,319.5726 41.662,20.7582 108.712,19.3099 152.766,-3.2997 z m 3409.063,0 c 48.502,-24.893 89.718,-76.6076 103.992,-130.481 54.85,-207.0269 -178.29,-356.4696 -317.617,-203.5925 -30.735,33.7243 -42.35,58.5701 -50.566,108.1735 -15.801,95.3865 28.496,188.119 108.92,228.018 44.285,21.9703 110.085,21.0728 155.271,-2.118 z m -1614.819,-391.2148 c 186.581,-13.0079 342.668,-42.8394 479.615,-91.6641 129.223,-46.0714 304.442,-153.3286 318.474,-194.9478 6.571,-19.4901 -10.932,-173.8016 -27.591,-243.2542 -46.396,-193.4312 -129.484,-352.2513 -259.792,-496.585 -203.373,-225.2628 -519.02,-340.5255 -807.447,-294.8494 -212.878,33.712 -385.346,124.8569 -536.715,283.6397 -176.692,185.3474 -281.526,426.1116 -298.585,685.7385 -4.459,67.8707 -4.397,68.2299 15.157,88.0345 186.435,188.8197 643.76,296.8725 1116.884,263.8878 z"
             id="path1284" /></g></g></g></g><pattern
     id="b-2"
     width="41"
     height="41"
     patternUnits="userSpaceOnUse"><circle
       fill="#ffffff"
       cx="20.5"
       cy="20.5"
       r="20.5"
       id="circle2" /></pattern></svg>
