<?xml version="1.0" encoding="UTF-8" standalone="no"?>
<!-- Created with Inkscape (http://www.inkscape.org/) -->

<svg
   version="1.1"
   id="svg1"
   width="158.07147"
   height="167.52661"
   viewBox="0 0 158.07147 167.52661"
   xml:space="preserve"
   xmlns="http://www.w3.org/2000/svg"
   xmlns:svg="http://www.w3.org/2000/svg"><defs
     id="defs1" /><pattern
     id="b-2"
     width="41"
     height="41"
     patternUnits="userSpaceOnUse"><circle
       fill="#ffffff"
       cx="20.5"
       cy="20.5"
       r="20.5"
       id="circle2" /></pattern><g
     id="g559"
     transform="matrix(0.27610851,0,0,0.2491789,-750.50965,-643.02419)"><path
       id="path564"
       style="fill:#f8eaad;stroke-width:0.980523"
       d="m 2949.3633,2589.8242 c -8.633,0.043 -17.2881,0.28 -25.8321,0.9082 -7.9431,0.5335 -15.7865,1.9493 -23.6445,3.1621 -8.2009,1.3388 -16.5434,2.7264 -24.7129,4.2188 -5.0872,0.8728 -10.0588,2.2793 -15.0959,3.3864 -10.8734,2.53 -21.7764,4.9505 -32.5706,7.8053 -2.0844,0.5687 -4.018,1.1189 -6.0759,1.8406 -3.3742,1.3137 -6.8747,2.2589 -10.3967,3.0772 -7.0057,2.0456 -13.8853,4.5013 -20.757,6.9539 -5.5894,1.9617 -11.0778,4.1902 -16.5646,6.4177 -6.2184,2.5055 -12.6492,4.6823 -18.3106,8.3534 -5.1072,3.1539 -10.4601,5.9168 -15.3759,9.3748 -3.9262,2.7513 -7.5119,6.227 -9.4895,10.6657 -2.1309,4.7231 -2.9767,9.8974 -3.6519,14.9977 -0.3227,2.6781 -0.5308,5.6096 -0.6385,8.4054 -0.1799,4.5722 -0.134,9.1795 0.09,13.6889 0.2129,4.369 0.598,8.8139 1.1851,13.2088 0.3752,2.8039 0.8598,5.7677 1.4531,8.6015 1.3345,6.1617 2.5777,12.3554 4.3633,18.4063 2.6059,6.8536 4.2909,14.022 6.9991,20.8412 3.6398,9.4237 8.0797,18.4812 13.3383,27.1434 3.0434,4.9333 6.2818,9.7744 10.0477,14.1897 1.412,1.5625 3.0107,2.9617 4.7868,4.0972 0.2612,0.1615 0.8416,0.5213 1.2537,0.7352 5.2746,2.8756 11.4585,3.2241 17.3422,3.0989 3.2351,-0.075 6.4124,-0.3144 9.5914,-0.581 4.6034,-0.4147 9.2136,-0.7698 13.8049,-1.3078 0.9826,-0.1271 2.2254,-0.2921 3.3063,-0.4652 10.5855,-1.6758 20.8753,-5.1131 31.1183,-8.3988 9.3943,-3.1112 18.7709,-6.2798 28.1002,-9.5803 4.6352,-1.6978 9.0274,-3.9702 13.5827,-5.8559 1.77,-0.6831 3.9674,-1.4214 5.6737,-0.1901 1.3849,1.155 1.3547,3.1281 1.5443,4.772 0.2378,4.1593 0.1053,8.395 -0.9107,12.4519 -0.688,2.4402 -2.0571,4.6137 -3.2502,6.8296 -1.1747,2.1905 -2.8324,4.0707 -3.9647,6.2862 -2.418,4.404 -4.285,9.0793 -6.4076,13.6271 -1.169,2.6546 -2.1971,5.3489 -3.1922,8.0113 -3.2349,8.7719 -6.3221,17.6059 -8.9802,26.5715 -0.4066,1.3883 -0.7781,2.7903 -0.9157,4.2312 -0.3777,1.8736 -1.4651,3.4878 -2.6912,4.9131 -1.5255,1.9983 -2.7684,4.2 -3.8119,6.4839 -0.1121,0.2826 -0.4446,0.992 -0.6192,1.4573 -2.9813,7.4161 -4.0239,15.445 -4.3944,23.3806 -0.027,0.8828 -0.077,2.0524 -0.093,3.0464 -0.055,2.514 -0.023,5.1717 0.035,7.5942 0.2243,9.053 1.2467,18.0583 1.7949,27.0918 0.1502,3.7419 0.082,7.5803 0.2383,11.2637 0.3051,8.7367 0.8788,17.4237 1.6406,26.0918 0.5495,5.8435 1.0799,11.6963 1.9633,17.5002 1.3534,7.3266 3.2902,14.5301 5.21,21.7243 2.4944,9.065 5.0807,18.1149 8.1827,26.9933 0.6068,1.5576 1.0855,3.2179 1.9721,4.6318 1.0341,0.8671 1.4072,2.2536 1.541,3.5371 1.6525,4.4001 3.7492,8.6184 5.7721,12.8569 2.2101,4.6179 4.6353,9.1462 6.4994,13.9204 0.6146,1.65 1.1868,3.7593 -0.072,5.2617 -1.648,1.4873 -3.203,3.0811 -4.6746,4.747 -5.4008,6.0634 -10.4691,12.4241 -15.1572,19.0543 -2.0852,2.8639 -4.3384,5.5969 -6.5649,8.3497 -4.7446,6.2743 -8.9256,12.958 -12.8692,19.7584 -1.8636,3.2571 -3.6443,6.6106 -5.1304,9.9825 -1.5352,3.3044 -2.542,6.8567 -2.7978,10.4986 -0.1895,2.9566 -0.5842,5.9614 -0.061,8.9035 0.6742,2.833 2.3717,5.289 4.0577,7.614 0.9952,1.3372 2.0768,2.6073 3.1912,3.8459 0.3707,0.3956 0.9737,1.0551 1.4466,1.5369 8.9675,9.1639 19.823,16.3116 31.3152,21.907 7.0934,3.422 14.2521,6.5063 21.4714,9.6609 8.7157,3.6809 18.3006,5.5243 27.7606,4.7491 2.5101,-0.1733 4.8973,-1.2239 6.7894,-2.8695 3.1214,-2.6854 5.9132,-5.7359 8.5892,-8.8588 6.6279,-8.0003 12.7307,-16.2797 18.6925,-24.7823 2.3296,-3.4441 4.7868,-6.8281 6.7123,-10.5219 0.2662,-0.8432 0.4114,-1.7486 0.8923,-2.5236 1.6605,-2.9949 3.7682,-5.7523 6.1801,-8.1808 0.9775,-1.004 2.4191,-1.9976 3.862,-1.3654 1.6972,0.5178 2.4219,2.4153 2.3137,4.0555 -0.1847,3.5591 -1.2153,7.004 -2.0424,10.452 -1.3754,5.3066 -2.9193,10.6984 -4.1997,15.948 -0.5911,2.4475 -1.1472,4.9035 -1.6484,7.3711 -0.1743,0.944 -0.4258,2.1526 -0.601,3.2067 -0.2382,1.3078 -0.4252,2.4969 -0.6323,3.8526 -0.5402,3.6374 -0.9394,7.3462 -1.2208,10.9377 -0.2204,2.6715 -0.3993,5.6568 -0.5284,8.3096 -0.074,3.4337 -0.3674,7.0039 0.8008,10.3008 1.0069,2.5331 3.1316,4.3976 5.2388,6.024 4.3821,3.1238 9.4235,5.1548 14.4375,7.025 11.3687,4.0518 23.2126,6.7096 35.1714,8.2752 2.9341,0.3707 6.0852,0.6771 8.9062,0.8535 2.0816,0.1145 4.0012,0.2019 6.0995,0.2579 6.2,0.1669 12.4043,0.1324 18.6036,-0.045 3.9794,-0.1341 8.1459,-0.3062 12.1806,-0.7094 3.7967,-0.3352 7.5855,-1.23 11.0229,-2.9012 3.1816,-1.5246 5.5703,-4.3348 7.0511,-7.4915 1.8886,-3.7476 3.4924,-7.6746 4.2332,-11.8239 0.2591,-1.2927 0.5312,-2.8947 0.749,-4.3287 0.9168,-6.1772 1.5666,-12.2868 2.2685,-18.5192 0.974,-8.1661 1.589,-16.2788 1.9429,-24.4982 0.1865,-3.7308 0.292,-7.4841 0.9015,-11.1752 0.1234,-1.1167 1.0647,-1.8198 2.0296,-2.2326 6.911,-3.1258 14.2693,-5.0904 21.2979,-7.9204 10.7011,-4.2085 21.019,-9.4693 30.4771,-16.0286 4.9224,-3.3706 9.6128,-7.3451 14.0998,-11.3675 10.6786,-9.6347 20.7781,-19.8214 30.5965,-30.3114 5.3251,-5.7204 10.5454,-11.5416 15.5381,-17.5555 0.6729,-0.8183 1.4477,-1.7568 2.1173,-2.601 6.8923,-8.5873 12.8629,-17.8674 18.5897,-27.2583 5.7457,-9.4965 11.0567,-19.2509 16.0105,-29.1822 2.3055,-4.4308 4.5416,-8.9072 7.1232,-13.1859 2.413,-3.5497 4.3579,-7.4098 6.287,-11.1794 4.8652,-9.7344 9.3782,-19.6515 13.3813,-29.7723 1.0418,-2.8092 2.2283,-5.6016 2.784,-8.5572 0.02,-1.7273 0.6475,-3.4459 1.7422,-4.7695 0.7028,-2.5862 0.6092,-5.3087 0.6553,-7.9672 -0.028,-3.9337 -0.1028,-8.072 -2.0493,-11.6102 -1.5448,-2.6515 -2.7915,-5.4568 -4.0323,-8.2591 -2.4264,-4.936 -5.4914,-9.5589 -9.0129,-13.7804 -1.2685,-1.4453 -2.583,-3.0349 -4.5091,-3.5866 -0.7507,-0.3189 -1.7878,-0.4494 -2.2668,0.3771 -1.1579,1.6315 -1.9617,3.4857 -2.8748,5.258 -1.2754,3.9463 -1.945,8.0591 -2.6274,12.1411 -0.5031,3.148 -0.8781,6.3231 -0.8475,9.5156 -0.1573,2.8337 -0.2743,5.8488 -1.7559,8.3545 -0.861,1.4772 -2.7694,2.2822 -4.3883,1.604 -3.3567,-1.196 -6.6196,-2.6911 -9.6904,-4.5011 -3.7467,-2.672 -7.8149,-5.1105 -12.3829,-6.0255 -3.5119,-0.7135 -7.4,-0.4136 -10.4857,1.5196 -1.8933,1.7068 -2.9677,4.1 -4.0535,6.3596 -0.5953,1.3009 -1.0955,2.5377 -1.5867,3.8154 -3.5534,9.4085 -5.8131,19.2323 -8.0489,29.0176 -0.5731,2.0409 -0.9012,4.2475 -2.1386,6.0176 -0.8275,1.2001 -2.6544,1.4547 -3.7422,0.4648 -1.4957,-1.3635 -2.0443,-3.4146 -2.8963,-5.1887 -3.8978,-8.9116 -9.7692,-17.1816 -17.8391,-22.7624 -3.2559,-2.2777 -6.834,-4.0862 -10.5849,-5.3946 -0.4526,-0.1493 -1.2505,-0.4209 -1.8421,-0.5946 -2.7674,-0.7982 -5.6352,-1.6273 -8.5437,-1.2014 -5.2947,0.6542 -10.1864,3.0077 -14.8451,5.4859 -10.0952,5.5516 -19.3032,12.5331 -28.452,19.4894 -1.6351,1.1247 -3.2593,2.6558 -5.3464,2.7367 -1.8913,-0.013 -3.1412,-1.66 -4.4153,-2.8289 -4.8266,-5.0017 -8.3735,-11.0587 -11.6417,-17.1479 -6.0457,-11.5414 -10.8524,-23.6813 -15.3403,-35.8976 -8.1743,-22.5196 -15.0662,-45.481 -21.5725,-68.5292 -12.0873,-43.0982 -22.6426,-86.6049 -32.896,-130.1711 -8.2188,-34.9709 -16.0972,-70.0223 -24.316,-104.9936 -1.3612,-5.7786 -2.7512,-11.5503 -4.1561,-17.3184 -1.8027,-1.1939 -3.9448,-1.7311 -5.8961,-2.6331 -1.8588,-0.7415 -3.6482,-1.6533 -5.4945,-2.4138 -3.8984,-0.9721 -7.9378,-1.1643 -11.9302,-1.4635 -7.659,-0.4705 -15.2916,-0.5916 -22.9917,-0.5775 z" /><path
       id="path563"
       style="fill:#e0a698"
       d="m 2947.0312,2581.7754 c -4.1426,0.056 -8.1532,0.1888 -12.2918,0.4009 -20.4674,1.1028 -41.026,3.8273 -61.246,7.7392 -10.2391,1.9669 -20.3836,4.4134 -30.5572,6.8397 -11.3458,2.7418 -22.7309,5.6691 -33.8815,8.9538 -13.7327,4.0341 -27.3099,8.8365 -40.5952,14.2554 -10.4527,4.3513 -20.696,9.3039 -30.2549,15.3953 -4.5505,2.9648 -9.11,6.1528 -12.3986,10.5504 -2.4871,3.0576 -3.9481,6.8295 -4.5545,10.7004 -0.7127,4.2434 -0.8773,8.6067 -0.9832,12.8319 -0.1532,8.2215 -0.1703,16.4503 0.1356,24.6687 0.2438,6.8585 1.1659,13.6897 2.8046,20.3554 4.2349,17.7583 10.3539,35.1016 18.5972,51.4029 3.5939,7.0766 7.5788,13.9101 12.2738,20.3449 4.0312,5.4312 8.4931,10.7089 14.1314,14.5354 3.0669,2.0565 6.6039,3.451 10.3008,3.7562 4.7859,0.4557 9.6008,0.5681 14.4062,0.5759 5.525,0 10.9044,-0.6178 16.4005,-1.7888 1.5522,-0.3398 3.3147,-0.7404 4.939,-1.15 6.7629,-1.7209 13.4697,-3.6653 20.1247,-5.7634 12.5607,-4.1051 25.0427,-8.4489 37.4952,-12.8693 4.2656,-1.2623 8.6839,-2.1616 13.1442,-2.231 1.9004,-0.014 4.1785,0.4594 5.0781,2.3418 0.9563,2.0355 0.03,4.3127 -0.803,6.2254 -1.7459,3.7515 -3.8795,7.306 -5.7662,10.9515 -2.8502,5.331 -5.5574,10.6012 -7.8824,16.176 -1.2274,2.8889 -2.3922,5.7553 -3.4819,8.6487 -3.7688,10.1054 -7.2122,20.3389 -10.1509,30.7176 -0.6755,2.2126 -0.9856,4.7059 -2.6011,6.4781 -1.3136,1.4101 -3.461,1.3818 -5.162,0.8022 -2.5556,-0.8553 -5.0784,-1.8199 -7.695,-2.4861 -2.8366,-0.7861 -5.6783,-1.4536 -8.5005,-2.0603 -4.3463,-0.8644 -8.7198,-1.787 -13.1624,-1.9204 -3.3027,0.031 -6.7119,0.7429 -9.7965,1.5454 -7.5895,2.0846 -14.9247,5.2182 -21.5391,9.5 -2.4656,1.7815 -4.3408,4.3473 -5.5002,7.1449 -0.3263,0.8864 -0.7008,2.0857 -0.01,2.8825 1.3292,0.5985 2.85,0.1236 4.2012,-0.1856 1.4031,-0.3881 2.7777,-0.9215 4.0312,-1.4531 4.1726,-1.8481 8.1981,-4.2546 12.7555,-5.0341 1.5531,-0.2894 3.5801,-0.068 4.3266,1.54 0.726,1.7051 -0.1573,3.6199 -1.2122,4.9868 -2.3377,2.8857 -5.268,5.2111 -8.0316,7.6684 -3.2568,2.8568 -6.647,5.6865 -9.098,9.2998 -0.3863,0.698 -0.9408,1.4591 -0.832,2.2891 1.0011,1.445 2.9398,1.4117 4.4924,1.1638 4.243,-0.7089 8.2805,-2.2736 12.3217,-3.6984 5.1577,-1.8645 10.2978,-3.823 15.6038,-5.231 1.0438,-0.3127 2.3941,-0.2915 3.0478,0.7168 0.7144,0.9318 0.3659,2.3097 -0.5091,3.0277 -2.7885,2.3041 -6.2153,3.6189 -9.3007,5.4583 -2.1147,1.2299 -4.326,2.4258 -5.8924,4.3602 -4.0086,4.5695 -7.1829,9.8009 -10.0976,15.1151 -1.2807,2.383 -2.4857,4.8301 -3.5248,7.2487 -1.4415,3.4396 -2.9035,7.1019 -2.4849,10.9052 0.2279,1.2521 1.4206,2.0384 2.4512,2.623 1.0846,0.4996 1.9688,-0.6408 2.6157,-1.3484 2.4935,-3.1502 4.003,-6.922 6.0894,-10.3312 1.5455,-2.4854 2.9033,-5.2365 5.2792,-7.0489 1.2085,-0.9527 2.9953,-0.7406 4.0743,0.3086 1.4083,1.089 2.2561,2.8486 2.0276,4.639 -0.3206,3.205 -1.3617,6.2811 -2.0398,9.4192 -0.9548,4.2406 -1.9459,8.6244 -2.1321,13.0422 -0.014,1.1216 -0.014,2.2989 0.4275,3.3469 1.3908,0.3535 2.8175,-0.2435 3.799,-1.2334 2.7113,-2.5944 4.7394,-5.7936 6.8665,-8.8601 4.5969,-6.8228 8.7736,-14.0183 14.4723,-20.0125 1.6614,-1.6348 3.5005,-3.4512 5.913,-3.7846 1.4726,-0.2742 2.6867,0.9957 2.9802,2.3423 0.769,3.0561 0.8014,6.2362 1.0264,9.3645 0.3697,7.9472 0.6877,15.8986 1.3075,23.8318 0.767,10.3375 1.7196,20.5916 3.0807,30.8737 0.7318,5.7656 1.8235,11.4806 3.2574,17.1126 2.9162,11.7069 6.266,23.3096 10.1083,34.7466 1.38,4.1363 2.9727,8.1976 4.6984,12.2011 2.3663,5.5516 4.9925,11.1785 7.7012,16.6454 1.6312,3.4863 3.3583,6.9454 4.625,10.5851 0.6485,1.6989 -0.5455,3.3102 -1.4355,4.664 -2.4097,3.4013 -5.4403,6.2916 -8.1381,9.4558 -3.7106,4.12 -6.9658,8.6185 -10.3638,12.993 -4.2137,5.5697 -8.4809,11.1041 -12.4996,16.8168 -0.662,1.1231 -1.4989,2.1254 -2.3218,3.1227 -2.4483,3.853 -4.7269,7.8137 -6.9346,11.809 -2.6919,5.0087 -5.255,10.366 -6.8068,15.9365 -1.3838,4.9776 -1.9318,10.5002 0.1574,15.3673 1.5389,3.4384 4.1244,6.2626 6.6091,9.0415 1.9983,2.16 4.1072,4.2146 6.2786,6.1996 0.2979,0.2683 0.8985,0.7965 1.3122,1.1643 4.199,3.7105 8.7095,7.0798 13.5765,9.867 0.5504,0.3204 1.3867,0.7987 2.0468,1.1797 4.3618,2.4637 8.8641,4.7897 13.3056,6.9555 7.1961,3.4898 14.4919,6.8063 22.0226,9.5132 0.9259,0.3311 2.2544,0.7594 3.1816,1.0449 2.2166,0.6662 4.4641,1.2499 6.6571,1.7073 2.8267,0.5974 5.6883,1.0392 8.5695,1.2635 0.8331,0.059 1.947,0.1213 2.8918,0.1233 2.4193,-0.038 5.0157,-0.024 7.1773,-1.2589 3.3597,-2.226 6.1062,-5.2306 8.8548,-8.1463 6.7425,-7.3973 12.9524,-15.4665 18.7639,-23.7023 4.7764,-6.7843 9.2284,-13.8043 13.1196,-21.1359 1.2777,-2.1313 2.4271,-4.5164 4.5315,-5.9596 2.0264,-1.3303 5.3002,-0.9184 6.4717,1.357 1.0938,2.1887 0.1552,4.6547 -0.5376,6.8146 -2.4264,8.1016 -4.4029,16.3535 -6.291,24.5634 -1.303,5.7014 -2.4943,11.4338 -3.2393,17.2382 -0.4012,2.9092 -0.7908,5.8206 -1.0825,8.7432 -0.087,0.9512 -0.1869,1.9742 -0.2657,3 -0.049,0.7216 -0.1232,1.9593 -0.1582,2.6562 -0.1219,4.1912 -0.1605,8.6476 1.8729,12.4446 1.8963,3.4996 5.3823,5.6892 8.812,7.4773 7.5535,3.8368 15.6731,6.4186 23.8373,8.6019 3.6087,0.9473 7.1781,1.7673 10.8012,2.4862 2.6414,0.5273 5.2084,0.9765 7.9025,1.3839 3.9062,0.6882 8.0618,0.8404 12.1018,1.0036 8.1222,0.2902 16.3206,0.4216 24.4964,0.2974 5.8664,-0.1299 11.8434,-0.3065 17.6859,-1.4056 4.1628,-0.7913 8.5114,-2.2604 11.2886,-5.6437 2.7937,-3.4098 4.1521,-7.7074 5.3933,-11.8677 1.1423,-4.0303 2.0047,-8.2977 2.689,-12.2896 2.004,-12.0087 2.9322,-24.0825 3.4809,-36.2451 0.2665,-5.1697 0.3793,-10.3682 1.191,-15.4893 0.2195,-1.3093 0.6659,-2.9915 2.1708,-3.2972 12.3167,-3.2669 24.2534,-7.8962 35.7094,-13.4588 7.0901,-3.4908 14.1444,-7.4183 20.482,-12.278 9.407,-7.1528 18.052,-15.2483 26.4346,-23.5615 4.2868,-4.2796 8.4878,-8.6547 12.5683,-13.0668 10.2709,-11.168 20.1347,-22.7457 28.9757,-35.0879 5.3589,-7.539 10.1578,-15.4586 14.8352,-23.4328 4.6769,-7.9886 9.0058,-16.1749 13.1437,-24.4537 3.6092,-7.0578 7.3376,-14.0551 11.2447,-20.9528 3.899,-7.0922 7.6186,-14.2214 10.9278,-21.6567 1.8457,-4.1406 3.5826,-8.4699 5.0761,-12.8124 0.5375,-1.585 1.1236,-3.3824 1.6258,-5.0671 1.0638,-3.5483 1.998,-7.3137 2.7219,-10.7942 1.0538,-4.3133 0.7848,-8.8855 -0.3985,-13.1426 -0.3693,-1.255 -0.9009,-2.4878 -1.839,-3.4239 -2.8695,-4.0681 -4.8223,-8.6786 -7.3001,-12.9774 -2.438,-4.0876 -5.2313,-8.0849 -8.9621,-11.0985 -1.6124,-1.2821 -3.8837,-2.4015 -5.9156,-1.4392 -2.1965,1.1938 -3.2439,3.6532 -4.1026,5.8766 -2.1522,6.0926 -2.3894,12.6129 -3.2809,18.957 -0.4556,3.0727 -0.6846,6.2195 -1.6875,9.1777 -0.5008,1.5142 -1.8408,2.7218 -3.4552,2.8723 -2.2082,0.3676 -4.2881,-0.8042 -6.1761,-1.7947 -3.4664,-1.9703 -6.5707,-4.5116 -10.0567,-6.4541 -4.0438,-2.3119 -8.3272,-4.4446 -12.9702,-5.1821 -1.7249,-0.2899 -3.4448,0.5396 -4.4961,1.8945 -2.5497,3.2025 -3.822,7.1756 -5.1029,11.0054 -2.9219,9.0978 -5.4462,18.3354 -7.5331,27.6521 -0.7434,2.7728 -1.3611,5.6583 -2.8546,8.144 -0.6947,1.2019 -2.352,1.9061 -3.5862,1.0815 -1.1411,-0.7841 -1.5067,-2.2381 -2.1384,-3.4054 -2.2475,-4.8391 -4.0988,-9.8498 -6.3434,-14.6905 -2.4614,-5.3762 -5.2397,-10.813 -8.5098,-15.8261 -2.4172,-3.5795 -5.0146,-7.2011 -8.6086,-9.6895 -2.5521,-1.8425 -5.9191,-1.6345 -8.8251,-0.9135 -5.3632,1.4024 -10.2429,4.1593 -14.974,6.9744 -8.077,4.913 -15.7295,10.48 -23.4071,15.9853 -3.3262,2.4163 -6.6491,4.8393 -9.8883,7.3718 -0.3747,0.2919 -0.9994,0.8399 -1.503,1.1865 -0.9108,0.6631 -2.1086,1.2484 -3.2084,0.6931 -1.0278,-0.5694 -1.3077,-1.8815 -1.0757,-2.9753 0.5638,-3.086 1.769,-6.0195 3.2546,-8.7701 3.0916,-6.4037 5.8545,-12.9634 9.1144,-19.286 0.9883,-2.0429 1.9102,-4.1942 2.7008,-6.2199 0.3854,-0.9665 0.7642,-1.9896 1.1409,-3.0522 2.4838,-7.1057 4.4184,-14.4677 5.008,-21.9921 0.1093,-2.5621 0.2638,-5.2557 -0.703,-7.6841 -0.8208,-1.4884 -2.4059,-2.3367 -3.7839,-3.2411 -4.5623,-2.6816 -9.6388,-4.4934 -14.8841,-5.226 -7.1532,-1.1492 -14.3355,-1.9752 -21.5138,-2.675 -4.2096,-0.4019 -8.4311,-0.7062 -12.6621,-0.6895 -1.7547,-0.023 -3.8305,-0.3349 -4.7936,-1.9981 -0.7516,-1.4403 -1.0851,-3.1085 -1.0753,-4.727 0.1823,-2.9112 1.9356,-5.3844 3.3927,-7.8064 4.504,-6.8537 8.8884,-13.7882 12.9906,-20.8913 4.5722,-7.928 9.0461,-15.9378 12.7636,-24.3089 2.2779,-5.2446 3.569,-10.9006 4.03,-16.591 0.096,-2.0153 0.2571,-4.2026 -0.8823,-5.9832 -2.1027,-3.5418 -5.1634,-6.4655 -8.5729,-8.7428 -3.4637,-2.1375 -7.4312,-3.2679 -11.3362,-4.2998 -3.1716,-0.7999 -6.3899,-1.4069 -9.6279,-1.8663 -0.5503,-0.071 -1.436,-0.1945 -2.1182,-0.2688 -4.4325,-0.4763 -8.8841,-0.7501 -13.3251,-1.1355 -0.1342,-2.3115 -0.5124,-4.6169 -0.4639,-6.9336 0.2568,-3.2051 2.1987,-5.9141 3.8586,-8.5541 4.2996,-6.4209 8.8438,-12.6747 13.3317,-18.9649 2.7393,-3.8054 5.6233,-7.5189 7.9762,-11.5857 1.1658,-1.9406 2.2666,-3.9271 3.2823,-5.8681 2.2174,-4.2658 4.2101,-8.6534 5.8471,-13.1756 0.2596,-0.7247 0.6058,-1.7291 0.8717,-2.5739 0.8535,-2.8909 1.7834,-5.8718 1.5965,-8.9199 -0.4546,-3.4639 -2.9957,-6.1885 -5.5696,-8.337 -5.1792,-4.1787 -11.3906,-6.8343 -17.6399,-8.9752 -5.7414,-1.9768 -11.693,-3.2197 -17.6223,-4.4783 -4.6892,-1.0735 -9.4395,-2.0181 -13.9505,-3.7228 -2.1246,-0.82 -4.438,-2.156 -5.0101,-4.5359 -0.3793,-1.2621 -0.014,-2.5473 0.4904,-3.7139 3.2536,-8.0885 7.4301,-15.7647 10.7711,-23.8161 3.6389,-8.6488 6.9692,-17.5059 8.7411,-26.7477 0.6916,-3.9979 1.2333,-8.1653 0.304,-12.1696 -0.9482,-3.6837 -4.0108,-6.3431 -7.2295,-8.1049 -5.5843,-3.0454 -11.8605,-4.5661 -18.1279,-5.397 -0.4846,-0.062 -1.326,-0.1619 -1.9473,-0.2383 -1.0168,-0.099 -1.9522,-0.2096 -2.8909,-0.2816 -1.4325,-0.1262 -2.7818,-0.2159 -4.2646,-0.3036 -1.5277,-0.089 -3.0392,-0.1544 -4.5144,-0.2097 -5.0651,-0.1576 -10.1316,-0.2648 -15.1973,-0.4004 -4.2799,-3.864 -8.2135,-8.2577 -13.3262,-11.0602 -5.8309,-3.1995 -12.5615,-4.0173 -19.0744,-4.6971 -7.819,-0.7569 -15.6706,-1.0658 -23.5252,-0.9595 z m -10.3496,26.9082 c 7.7056,-0.044 15.5428,1.4353 22.3957,5.052 5.3795,2.8116 9.985,7.0414 13.2683,12.1447 2.247,3.5019 4.1173,7.2554 5.5567,11.1588 1.515,4.3755 1.1844,9.0777 1.1898,13.6306 -0.027,3.9426 -0.3885,7.9733 -2.0237,11.6115 -3.1873,7.6727 -8.6273,14.3871 -15.5149,19.0418 -8.9527,6.0664 -19.7761,9.0729 -30.5335,9.3505 -4.9368,0.065 -10.0381,-0.3282 -14.5903,-2.3883 -5.0133,-2.4957 -9.5725,-6.2038 -12.3041,-11.1638 -2.4544,-4.4163 -3.7485,-9.3942 -4.4152,-14.3758 -1.0151,-8.9739 0.5205,-18.1007 3.5387,-26.5639 2.7207,-7.4148 6.6512,-14.5607 12.4075,-20.0566 2.6334,-2.5388 5.7805,-4.5759 9.2946,-5.6492 3.7771,-1.237 7.7679,-1.7246 11.7304,-1.7923 z m 3.2364,23.4648 c -0.4674,0.074 -1.2731,-0.1007 -1.5415,0.1845 0.5501,2.2988 1.5951,4.6487 0.9432,7.0478 -0.5894,2.1121 -1.6551,4.1181 -3.0987,5.77 -1.9166,2.2406 -5.0002,3.2141 -7.8839,2.8441 -1.7989,-0.1759 -3.5154,-0.8125 -5.3098,-1.0163 -0.7153,4.5617 0.01,9.4277 2.5249,13.3519 1.5328,2.3777 3.5688,4.4972 6.0361,5.903 3.1149,1.3616 6.6615,1.1907 9.9417,0.6212 3.5079,-0.613 6.8067,-2.14 9.6474,-4.2715 3.5654,-2.6005 6.8247,-6.0905 7.9144,-10.4796 1.0334,-4.5261 -0.8737,-9.2216 -3.7711,-12.6655 -3.7502,-4.4788 -9.4748,-7.5343 -15.4027,-7.2896 z m -51.543,81.1328 c 1.4403,-0.097 2.5056,1.289 2.4877,2.6468 0.032,2.8703 -1.2584,5.5212 -2.0323,8.231 -1.8708,5.5919 -3.4768,11.2789 -5.653,16.7636 -0.7321,1.6391 -1.2818,3.4687 -2.6012,4.7473 -0.9902,0.8126 -2.331,0.3953 -3.3106,-0.209 -4.4601,-2.5985 -8.6435,-5.6404 -12.8499,-8.6243 -3.5961,-2.6368 -7.2644,-5.2044 -10.5899,-8.1827 -0.6305,-0.5771 -1.2246,-1.4186 -1.1315,-2.2862 0.1646,-1.0269 1.0225,-1.6828 1.9151,-2.0923 4.3942,-2.0013 8.9977,-3.4968 13.5497,-5.0914 6.0039,-2.0045 12.0105,-4.0397 18.1534,-5.5805 0.6787,-0.1499 1.3649,-0.3092 2.0625,-0.3223 z m -47.0977,14.8047 c 1.5178,-0.11 2.9309,1.0509 3.1289,2.5567 0.4627,2.2892 -0.2226,4.6343 -1.2606,6.6697 -2.3824,5.4988 -4.1161,11.2583 -6.6292,16.7017 -0.7115,1.3669 -1.2759,3.0054 -2.7254,3.7633 -1.6292,0.3294 -3.011,-0.8121 -4.3364,-1.5727 -5.5187,-3.5633 -10.8173,-7.465 -15.9554,-11.5556 -1.3051,-1.1701 -2.8996,-2.16 -3.7238,-3.7564 -0.4959,-1.4001 0.5736,-2.7789 1.8228,-3.3134 1.5516,-0.7204 3.2731,-0.9682 4.8686,-1.5826 7.0755,-2.254 14.0293,-4.8694 21.0999,-7.135 1.2105,-0.3561 2.4409,-0.737 3.7106,-0.7757 z m -42.1074,14.0586 c 1.4883,-0.081 3.0908,0.8378 3.3496,2.3867 0.3569,1.7899 -0.6101,3.5373 -1.0783,5.1221 -0.4275,1.5913 -0.7321,3.0135 -1.0679,4.6345 -0.843,3.9702 -1.4261,7.8933 -2.2329,11.8881 -0.4838,1.9992 -0.7809,4.1845 -2.0955,5.8397 -0.9245,1.1659 -2.6752,1.3745 -3.9105,0.5877 -3.1403,-1.7748 -5.9073,-4.1299 -8.6713,-6.4292 -2.8389,-2.3811 -5.6314,-4.8421 -8.6877,-6.9436 -1.8238,-0.9365 -3.5365,-2.2555 -4.6458,-3.9998 -0.7946,-1.164 -0.3609,-2.9501 0.9907,-3.4676 3.9123,-1.7371 7.9891,-3.0758 12.0109,-4.5347 4.9594,-1.711 9.8989,-3.5017 14.9489,-4.9315 0.3575,-0.079 0.7218,-0.1655 1.0898,-0.1524 z m -37.1367,12.5235 c 1.597,-0.08 2.8162,1.2676 3.2612,2.6911 0.7787,2.1402 0.8911,4.4535 1.2038,6.6939 0.3938,3.6528 0.7196,7.3265 0.8364,10.9555 0.036,2.1555 0.2238,4.3424 -0.1608,6.4759 -0.2048,0.7463 -0.7328,1.4304 -1.5183,1.5943 -0.5994,0.3934 -1.2774,-0.077 -1.8336,-0.3532 -2.4086,-1.773 -4.5054,-3.932 -6.6963,-5.9604 -3.918,-3.8 -7.8748,-7.5756 -11.4944,-11.665 -0.7395,-0.7787 -1.3232,-1.9577 -0.7442,-2.9863 0.8385,-1.4541 2.5519,-2.0492 4.0082,-2.6989 3.825,-1.4372 7.625,-2.9417 11.435,-4.4163 0.5474,-0.1881 1.1217,-0.3283 1.703,-0.3306 z" /><path
       style="fill:#e49157"
       d="m 3041.6655,3252.0512 c -25.1353,-1.9458 -51.2786,-8.4233 -61.5,-15.2378 -7.062,-4.7082 -10.2107,-11.6867 -9.2107,-20.4138 1.8534,-16.1756 3.3974,-24.6634 7.3139,-40.2079 5.0251,-19.9441 5.2928,-22.6302 2.3488,-23.5646 -2.7749,-0.8807 -4.2503,0.5579 -8.5741,8.3604 -12.9703,23.4057 -32.0493,47.3318 -41.2715,51.7567 -7.821,3.7526 -26.2491,-1.0164 -50.6064,-13.0962 -16.2225,-8.0455 -25.5362,-14.4343 -35.1198,-24.0908 -8.1196,-8.1813 -10.1484,-13.3015 -8.6761,-21.8965 2.4436,-14.266 17.8562,-39.1417 40.8615,-65.9501 10.761,-12.5399 10.5264,-10.1276 2.5486,-26.1981 -18.3915,-37.0481 -27.2729,-78.7592 -28.3979,-133.3702 l -0.2163,-10.5 -2.9026,0.2092 c -4.1781,0.3011 -7.75,4.1383 -17.2656,18.5481 -11.1068,16.8194 -15.3318,19.6358 -15.3318,10.2204 0,-2.4224 0.9607,-8.1983 2.1349,-12.8355 2.3578,-9.3113 2.0076,-13.6422 -1.103,-13.6422 -2.3279,0 -5.7485,4.3736 -9.8704,12.62 -4.8105,9.6242 -9.8807,9.2172 -8.9262,-0.7165 0.6283,-6.539 7.544,-20.1346 13.8287,-27.1859 4.4389,-4.9803 10.6352,-8.7988 21.3631,-13.1651 2.9034,-1.1817 3.6345,-1.8909 2.8047,-2.7207 -1.6318,-1.6318 -8.8475,0.4462 -32.3632,9.3197 -3.9805,1.502 -9.2849,0.7033 -9.6949,-1.4598 -0.334,-1.7619 1.789,-4.0837 14.6853,-16.0599 9.1579,-8.5045 4.4861,-11.325 -8.5274,-5.148 -4.2945,2.0384 -8.7646,3.4885 -10.2296,3.3184 -2.2122,-0.2569 -2.5716,-0.7516 -2.3994,-3.3022 0.2632,-3.897 4.8492,-7.9185 14.4354,-12.6585 16.298,-8.0587 23.4467,-8.466 44.362,-2.5275 6.6,1.8739 12.308,3.2366 12.6844,3.0281 0.3765,-0.2085 1.41,-2.9582 2.2968,-6.1105 6.9567,-24.7288 14.1609,-43.0719 23.7283,-60.4162 5.3974,-9.7847 6.0046,-13.4033 2.4746,-14.7454 -3.4873,-1.3258 -9.4616,0.1349 -32.3685,7.9142 -40.089,13.6144 -52.4414,16.4719 -68.3713,15.8166 -12.8826,-0.53 -17.8559,-2.5986 -25.6876,-10.6845 -25.4244,-26.2499 -46.5031,-89.8812 -42.1918,-127.3663 2.4364,-21.1832 7.2587,-27.4154 31.0194,-40.0878 25.6223,-13.6654 84.9345,-31.7848 129.4157,-39.5357 38.0492,-6.63 64.4161,-8.8758 83.6448,-7.1245 20.6403,1.8799 26.2571,3.7588 35.055,11.7262 l 5.484,4.9662 14.4081,0.5832 c 15.045,0.6089 27.2869,3.0075 33.3134,6.5271 3.62,2.1142 7.5548,8.542 7.5783,12.38 0.053,8.6822 -7.5417,30.9887 -17.1905,50.4889 -3.3693,6.8094 -3.9309,8.7782 -3.3647,11.7961 0.8233,4.3885 1.4774,4.6876 16.4731,7.5313 17.6713,3.3512 35.2302,10.4039 39.8323,15.999 2.7331,3.3229 3.4469,8.8668 1.8492,14.3627 -2.0243,6.9632 -10.6864,23.5404 -16.5315,31.6373 -8.8696,12.2866 -14.0515,19.8596 -14.0515,20.5353 0,0.3723 -1.0904,1.5346 -2.4232,2.583 -2.8551,2.2459 -3.9062,6.2003 -2.7594,10.3817 0.7883,2.8739 1.1195,3.0299 7.88,3.7111 17.2587,1.739 26.5628,4.9308 33.8026,11.5961 3.9452,3.6321 3.9996,3.7787 3.9654,10.6877 -0.039,7.9109 -2.2758,15.2034 -8.3786,27.3176 -4.6408,9.2122 -12.3666,22.3767 -15.6865,26.7294 -1.3201,1.7308 -2.4003,3.5885 -2.4003,4.1282 0,0.5397 -1.1181,2.0317 -2.4847,3.3156 -2.8925,2.7174 -4.2097,8.1949 -2.7441,11.4116 0.9425,2.0684 2.0828,2.338 14.5627,3.4429 33.4986,2.9657 44.6661,7.2971 44.6661,17.3242 0,9.2154 -6.3505,27.3086 -18.0887,51.5368 -3.2512,6.7106 -5.9113,12.4481 -5.9113,12.75 0,1.8164 5.0434,-0.01 8.9357,-3.2323 5.8741,-4.8662 16.9276,-12.8899 24.5643,-17.831 3.3,-2.1352 6.225,-4.1605 6.5,-4.5006 1.6547,-2.0466 13.2556,-6.3392 18.0914,-6.6942 5.1164,-0.3756 5.8929,-0.1458 9.1404,2.7056 5.5463,4.8697 15.9377,23.7328 20.4386,37.1013 0.8333,2.475 2.1079,5.1185 2.8324,5.8744 1.108,1.1559 1.5493,0.9175 2.7774,-1.5 0.8031,-1.5809 1.7833,-5.0932 2.1784,-7.8052 0.6955,-4.7748 2.3824,-11.0121 6.6448,-24.5692 4.0308,-12.8201 6.986,-16.9055 12.2729,-16.9667 3.513,-0.041 12.8635,4.6033 20.2383,10.0514 3.3553,2.4787 6.3168,3.9216 7.6541,3.7292 2.9339,-0.4221 4.6946,-4.2563 4.7363,-10.3139 0.047,-6.8278 2.4262,-19.3193 4.4088,-23.1471 3.7619,-7.2631 11.2653,-4.303 18.2561,7.202 1.6893,2.7801 3.4174,6.1446 3.8401,7.4766 0.4228,1.332 2.281,4.6203 4.1293,7.3074 2.7534,4.0027 3.3581,5.814 3.3459,10.0233 -0.034,11.8288 -6.5622,29.9682 -19.3036,53.6378 -4.589,8.525 -11.9428,22.475 -16.3416,31 -8.9324,17.3111 -17.1266,31.0998 -25.34,42.6407 -14.9022,20.9397 -49.3864,56.9945 -67.6562,70.7378 -13.619,10.2447 -32.5443,19.3752 -49.3318,23.8001 -4.1184,1.0855 -7.7698,2.4296 -8.1142,2.9868 -0.3444,0.5572 -0.9354,7.3855 -1.3134,15.1739 -1.3365,27.5355 -4.5503,47.5104 -9.4862,58.9593 -1.8094,4.197 -2.7909,5.1292 -7.8286,7.4356 -3.5383,1.6198 -9.4259,3.1252 -15.2647,3.903 -10.6008,1.412 -13.8785,1.4427 -29.0049,0.2717 z m -275.4361,-478.7845 c -1.0985,-14.5367 -1.6159,-17.1233 -3.4274,-17.1342 -3.1488,-0.019 -17.1365,5.4873 -17.1365,6.7456 0,1.7173 19.2658,20.218 20.3539,19.5455 0.474,-0.2929 0.5685,-4.4135 0.21,-9.1569 z m 29.9501,-2.3744 c 0.3036,-1.2375 0.9481,-4.5 1.4322,-7.25 0.4841,-2.75 1.3807,-7.7 1.9925,-11 1.7149,-9.2509 1.7197,-10.017 0.061,-9.8388 -2.7199,0.2922 -27.4423,9.3801 -28.482,10.4699 -0.7029,0.7369 0.065,1.9411 2.482,3.8911 12.0207,9.6986 20.3021,15.9778 21.0726,15.9778 0.4891,0 1.1377,-1.0125 1.4414,-2.25 z m 40.3547,-18.4367 c 0.724,-2.0973 2.9064,-8.2191 4.8498,-13.6039 1.9435,-5.3849 3.3036,-10.0207 3.0225,-10.3017 -0.7627,-0.7628 -34.741,10.6508 -34.741,11.6698 0,0.482 1.2373,1.6743 2.7496,2.6495 1.5123,0.9752 3.4248,2.3337 4.25,3.0191 6.9253,5.7512 16.6221,11.9829 17.5053,11.2499 0.5762,-0.4782 1.6399,-2.5854 2.3638,-4.6827 z m 44.5678,-7.5633 c 0.2055,-0.6875 2.4413,-7.6026 4.9686,-15.367 2.5272,-7.7643 4.5949,-14.4018 4.5949,-14.75 0,-0.3481 -0.7268,-0.633 -1.6151,-0.633 -2.7539,0 -36.3849,11.0513 -36.3849,11.9562 0,0.4701 4.6125,4.1251 10.25,8.1224 5.6375,3.9972 10.7104,7.7523 11.2731,8.3446 1.2708,1.3376 4.7106,3.4392 5.7583,3.518 0.4298,0.032 0.9495,-0.5037 1.1551,-1.1912 z m 59.0501,-56.216 c 15.9355,-3.049 29.0918,-12.2151 34.7205,-24.1901 8.8202,-18.7649 0.8047,-41.6481 -17.7752,-50.7458 -10.2579,-5.0228 -28.2568,-5.3415 -35.8718,-0.6352 -11.948,7.3843 -20.5601,25.9797 -20.5601,44.394 0,16.9073 6.3924,26.7217 20.5,31.4746 4.3448,1.4637 10.2664,1.3709 18.9866,-0.2975 z m -9.4867,-21.6107 c -5.3241,-3.089 -8.1713,-8.1896 -8.7759,-15.7212 l -0.5161,-6.4295 2.3961,0.8576 c 9.7241,3.4806 17.3439,-3.0616 13.9531,-11.98 -1.3158,-3.4608 0.9076,-4.0931 7.5763,-2.1544 9.7927,2.8468 16.5818,12.2131 14.9927,20.684 -0.9365,4.992 -5.8612,10.2819 -12.8002,13.7494 -7.1613,3.5785 -11.8901,3.8579 -16.826,0.9941 z"
       id="path562" /><path
       style="fill:#d75650"
       d="m 3040.1655,3251.4821 c -17.8892,-1.4492 -26.5674,-2.9651 -40.5,-7.0745 -19.0416,-5.6163 -25.8104,-10.5908 -28.0543,-20.6174 -0.9354,-4.1797 -0.9557,-6.551 -0.086,-10.0057 0.6271,-2.4903 1.1401,-6.0478 1.1401,-7.9055 0,-2.893 1.5034,-10.6203 5.0073,-25.7367 0.4463,-1.925 2.0344,-8.1964 3.5293,-13.9364 2.8646,-10.9998 2.7076,-12.6893 -1.3183,-14.1785 -1.958,-0.7244 -2.722,0.1 -7.3261,7.9031 -14.9224,25.2917 -28.5375,43.2678 -38.5488,50.8963 -3.3676,2.5661 -4.3802,2.8033 -11.4293,2.677 -23.7301,-0.4252 -71.3347,-26.2236 -83.5717,-45.2901 -7.5234,-11.7221 -0.493,-30.0292 23.9964,-62.4862 5.0152,-6.6468 9.3649,-12.3102 9.6661,-12.5852 0.3011,-0.275 3.0107,-3.425 6.0213,-7 5.3621,-6.3673 6.9501,-7.9539 7.992,-7.9847 0.285,-0.01 4.169,5.0472 8.6312,11.2347 10.5604,14.6436 23.2963,27.5541 36.3125,36.8103 5.754,4.0918 11.379,7.9301 12.5,8.5295 1.121,0.5993 5.6381,3.0897 10.0381,5.5342 11.3719,6.3178 14.1918,7.3767 15.8905,5.9669 0.7638,-0.6339 2.4509,-3.9511 3.7491,-7.3717 2.0944,-5.5182 2.3565,-7.8534 2.3254,-20.7192 -0.029,-12.0201 -0.4246,-15.8626 -2.3132,-22.4675 -4.258,-14.8913 -11.6015,-31.6303 -21.8871,-49.8901 -4.7344,-8.4048 -18.2703,-28.7929 -21.3826,-32.2068 -1.0352,-1.1355 -1.8821,-2.5605 -1.8821,-3.1667 0,-0.6062 -0.3648,-1.2522 -0.8106,-1.4355 -0.4459,-0.1834 -3.1651,-3.4229 -6.0428,-7.1989 -10.9631,-14.3858 -33.179,-37.9432 -44.1466,-46.8123 -5.3633,-4.3372 -17.2128,-10.5702 -21.7159,-11.423 -1.8661,-0.3534 -3.4589,-1.3746 -3.7948,-2.4331 -0.3185,-1.0032 -0.4792,-6.5915 -0.3573,-12.4183 0.1347,-6.441 -0.1947,-11.0105 -0.8403,-11.6561 -1.3744,-1.3744 -6.755,1.3117 -10.5859,5.2847 -2.68,2.7795 -11.7058,16.0704 -11.7058,17.2373 0,0.3099 -0.7875,1.5328 -1.75,2.7176 -5.694,7.0092 -7.6553,8.8687 -9.3536,8.8687 -2.5812,0 -2.5425,-5.6935 0.1036,-15.2425 2.3576,-8.5077 2.5567,-14.0506 0.5639,-15.7044 -2.9281,-2.4302 -6.3017,1.1669 -12.4307,13.254 -2.1146,4.1703 -3.1255,5.1929 -5.1332,5.1929 -2.1144,0 -2.5502,-0.526 -2.8253,-3.4108 -0.6173,-6.4712 4.2213,-16.9432 13.4407,-29.0892 4.1107,-5.4155 10.3126,-9.3939 20.3846,-13.0764 1.925,-0.7038 4.3522,-1.8497 5.3938,-2.5464 1.7788,-1.1899 1.7216,-1.3101 -0.9409,-1.9784 -3.7644,-0.9448 -11.8517,1.3273 -26.9529,7.5723 -6.1458,2.5416 -8.5925,3.1417 -11.6232,2.8511 -6.6653,-0.639 -4.6641,-3.9237 11.0094,-18.0707 9.3789,-8.4654 4.1019,-11.7015 -8.6474,-5.3031 -7.4072,3.7175 -11.6722,4.4704 -12.5383,2.2136 -0.8616,-2.2454 2.271,-7.3706 6.1384,-10.043 5.829,-4.028 18.1231,-9.3316 24.8415,-10.7164 7.2805,-1.5007 13.7613,-0.5848 30.1591,4.2622 5.6868,1.6809 10.661,2.669 11.054,2.1957 0.393,-0.4732 1.2734,-3.1105 1.9565,-5.8605 1.8969,-7.636 8.1354,-27.6063 9.7314,-31.1511 0.7802,-1.7331 1.4186,-3.5269 1.4186,-3.9861 0,-0.4593 4.109,-9.0657 9.1311,-19.1253 9.0129,-18.0535 9.1068,-18.3171 7.2575,-20.3606 -2.8,-3.094 -8.1642,-2.0025 -35.8886,7.3023 -13.2,4.4301 -25.35,8.4268 -27,8.8814 -13.8392,3.8133 -22.8836,5.5775 -33.0526,6.4474 -9.958,0.8518 -19.7343,-1.2333 -26.0021,-5.5456 -4.6929,-3.2288 -14.7361,-14.5597 -17.9862,-20.2922 -6.6546,-11.7375 -13.3506,-24.5253 -13.9652,-26.6702 -0.394,-1.375 -1.3131,-3.85 -2.0425,-5.5 -2.4041,-5.4385 -8.472,-25.8295 -10.564,-35.5 -4.5108,-20.8516 -4.6839,-46.8815 -0.3906,-58.7604 1.9354,-5.3552 8.6135,-14.8496 10.6527,-15.1454 0.7108,-0.1031 10.6164,-6.488 12.5583,-8.0948 0.6643,-0.5496 1.6201,-0.9994 2.1241,-0.9994 0.5039,0 2.8854,-1.0912 5.2922,-2.425 5.8787,-3.2579 26.3189,-11.2746 42.8759,-16.8162 37.3605,-12.5043 68.8292,-19.5362 120.5,-26.9266 13.5116,-1.9325 55.3234,-1.6451 62.7064,0.431 9.2271,2.5947 14.1873,5.1969 19.3956,10.1751 2.6939,2.5749 5.7263,5.4421 6.7387,6.3717 1.0123,0.9295 2.9975,3.715 4.4115,6.19 1.4141,2.475 3.7712,5.85 5.2381,7.5 1.467,1.65 3.9008,5.925 5.4085,9.5 1.5077,3.575 3.1274,7.4 3.5993,8.5 2.9624,6.9056 6.0802,15.9547 7.5798,22 0.9551,3.85 2.7908,10.5108 4.0793,14.8017 1.2886,4.2908 2.3428,9.2982 2.3428,11.1275 0,1.8293 0.6461,3.8621 1.4357,4.5175 0.7897,0.6553 1.7071,2.6229 2.0386,4.3724 1.208,6.3738 2.9029,12.2267 4.1066,14.1809 0.6775,1.1 1.9946,5.375 2.9269,9.5 0.9322,4.125 2.3244,10.1239 3.0936,13.3308 0.7693,3.2069 1.3986,7.5679 1.3986,9.691 0,2.1231 0.45,4.1383 1,4.4782 0.55,0.34 1,2.7796 1,5.4215 0,2.6419 1.125,10.3273 2.5,17.0785 1.375,6.7513 2.5,13.7518 2.5,15.5568 0,1.8049 0.6164,5.9055 1.3697,9.1125 0.7534,3.2069 1.9182,8.7557 2.5886,12.3307 0.6705,3.575 1.5846,6.95 2.0315,7.5 0.4469,0.55 1.0135,3.475 1.2592,6.5 0.2456,3.025 1.233,9.7125 2.1942,14.8611 0.9611,5.1486 1.5234,10.5333 1.2496,11.966 -0.2739,1.4327 0.3651,9.3296 1.4199,17.5488 1.0549,8.2191 1.6562,16.3391 1.3363,18.0444 -0.3199,1.7053 -0.073,4.4374 0.5479,6.0714 0.6212,1.6339 1.7852,6.8043 2.5867,11.4896 0.8015,4.6853 2.1231,10.6562 2.9369,13.2687 0.8137,2.6125 2.1568,6.8875 2.9845,9.5 0.8277,2.6125 1.5027,5.6725 1.5,6.8 0,1.1275 0.3787,2.4775 0.8476,3 0.4689,0.5225 1.4522,3.2 2.185,5.95 1.1213,4.2077 4.0156,11.1954 9.1608,22.1172 0.5486,1.1644 3.5014,4.9086 6.5618,8.3204 6.1723,6.8809 17.1798,13.2297 25.2398,14.5576 2.475,0.4077 5.6341,1.3212 7.0202,2.0299 1.3861,0.7087 4.9861,1.7789 8,2.3781 3.0139,0.5992 9.7548,1.9865 14.9798,3.0828 11.7693,2.4696 29.4398,2.7025 35.843,0.4724 9.3685,-3.2629 22.9766,-11.993 26.8182,-17.2051 2.8362,-3.8478 20.0722,-16.8878 28.6983,-21.7118 3.7425,-2.0929 7.0408,-4.421 7.3295,-5.1734 0.2888,-0.7524 0.9451,-1.3681 1.4585,-1.3681 1.0166,0 6.7128,-3.8267 8.3411,-5.6037 2.9137,-3.1796 6.2512,-4.3946 11.9839,-4.363 8.4814,0.047 12.5275,4.1318 12.5275,12.6478 0,8.2999 -6.2578,26.5072 -15.0605,43.8189 -13.2666,26.0906 -27.995,53.9158 -31.6163,59.7302 -1.2777,2.0515 -2.3232,3.9856 -2.3232,4.298 0,0.3123 -1.6857,3.1338 -3.746,6.2699 -2.0604,3.1361 -3.9729,6.1756 -4.25,6.7544 -1.0063,2.1015 -11.7098,15.8149 -20.4279,26.172 -8.3015,9.8624 -29.3651,31.5554 -39.5923,40.7755 -7.9571,7.1736 -23.1958,18.5 -24.89,18.5 -0.4959,0 -3.5324,1.4625 -6.7477,3.25 -3.2153,1.7875 -7.4211,3.8607 -9.3461,4.6071 -8.7014,3.3739 -23.3147,8.1429 -24.9514,8.1429 -3.4858,0 -4.309,2.6622 -4.7214,15.2667 -0.4823,14.7433 -2.7693,35.6511 -4.9479,45.2333 -0.8753,3.85 -1.8206,8.243 -2.1007,9.7623 -0.28,1.5192 -0.9073,3.0083 -1.3939,3.309 -0.4866,0.3007 -0.8847,1.259 -0.8847,2.1295 0,2.0201 -5.2324,7.0479 -8.7779,8.4346 -7.94,3.1055 -28.1062,4.5504 -44.7221,3.2044 z m -273.3497,-480.9274 c -0.4131,-15.2578 -1.0232,-16.5444 -6.8904,-14.531 -11.0671,3.7979 -15.2599,5.7332 -15.2599,7.0438 0,1.9962 19.7488,21.3262 21.266,20.8152 0.9182,-0.3092 1.1445,-3.7203 0.8843,-13.328 z m 30.2211,1.8376 c 0.2784,-0.9625 1.0317,-5.35 1.674,-9.75 0.6423,-4.4 1.5698,-9.0336 2.0612,-10.297 1.3531,-3.4789 1.1177,-10.205 -0.3566,-10.1916 -0.6875,0.01 -7.5306,2.1909 -15.207,4.8547 -14.0219,4.8658 -17.7572,7.2643 -14.3423,9.2094 0.9353,0.5328 2.3931,1.6611 3.2394,2.5074 4.1995,4.1996 19.2684,15.3886 20.7425,15.4019 0.9255,0.01 1.9104,-0.7723 2.1888,-1.7348 z m 40.4226,-19.5 c 1.0657,-2.8875 2.4794,-7.05 3.1415,-9.25 0.6621,-2.2 1.5665,-4.9 2.0097,-6 0.4432,-1.1 1.3118,-3.2586 1.9303,-4.797 2.4243,-6.03 1.2527,-6.0721 -15.6629,-0.5619 -21.791,7.0982 -23.2004,7.981 -17.4626,10.9384 1.5125,0.7795 3.0075,1.7651 3.3222,2.1902 1.7868,2.4136 16.7733,12.6186 18.606,12.6697 1.7346,0.048 2.5727,-1.0084 4.1158,-5.1894 z m 45.9754,-13.312 c 1.3184,-3.8159 3.4513,-9.863 4.7398,-13.438 3.6164,-10.0337 4.0323,-13.002 1.8203,-12.9903 -4.0422,0.021 -37.8194,11.5849 -38.0467,13.0252 -0.2995,1.8987 26.1061,21.2423 28.1534,20.6238 0.5149,-0.1555 2.0148,-3.4048 3.3332,-7.2207 z m 61.5863,-51.0286 c 16.9615,-4.3911 27.68,-13.6729 32.5774,-28.2107 6.2063,-18.4231 -2.9977,-39.5657 -20.9331,-48.0859 -4.7232,-2.2438 -7.1062,-2.6607 -16.8725,-2.9518 -8.8451,-0.2637 -12.3455,0.032 -15.7506,1.3329 -8.7431,3.339 -17.3272,14.803 -22.0938,29.5061 -1.2885,3.9746 -1.7831,8.6895 -1.7831,17 0,10.5265 0.2406,12.0208 2.8423,17.6513 3.4459,7.4577 6.7771,10.8111 13.2514,13.3393 6.2631,2.4457 20.1513,2.6479 28.762,0.4188 z m -14.0571,-22.0335 c -5.0502,-2.4902 -9.2438,-10.4524 -9.2834,-17.6259 -0.017,-3.0266 0.5576,-3.2431 4.5638,-1.72 3.563,1.3547 8.9625,-0.4005 11.0547,-3.5936 1.0554,-1.6108 1.4497,-4.0488 1.2146,-7.5091 l -0.3483,-5.1239 3.7497,0.5031 c 9.2579,1.2422 17.7503,9.7611 17.7503,17.8056 0,12.1626 -17.5898,22.7428 -28.7014,17.2638 z"
       id="path561" /><path
       style="fill:#b64c4d"
       d="m 3016.1156,3248.2241 c -4.9775,-0.944 -9.5387,-2.0185 -10.1361,-2.3877 -0.7673,-0.4742 -0.6922,-1.7754 0.2561,-4.4327 0.7382,-2.0687 1.3619,-4.7586 1.386,-5.9774 0.024,-1.2189 0.6939,-3.6939 1.4883,-5.5 0.7944,-1.8062 1.7148,-4.9715 2.0453,-7.034 0.3816,-2.3814 1.1433,-3.75 2.087,-3.75 0.8174,0 1.7767,-0.7875 2.1318,-1.75 2.4049,-6.5182 9.9952,-2.4554 12.2668,6.566 0.6244,2.48 1.0497,8.7593 0.9449,13.954 -0.1317,6.529 0.1858,9.6775 1.0285,10.1983 0.8905,0.5504 0.7702,0.9256 -0.4466,1.3926 -2.0827,0.7992 -2.1075,0.7967 -13.052,-1.2791 z m -30.2555,-9.1538 c -4.5679,-2.2292 -8.5396,-4.6636 -8.826,-5.4098 -0.2863,-0.7461 0.226,-2.4959 1.1384,-3.8884 0.9234,-1.4094 1.3892,-3.3817 1.0505,-4.4487 -1.3398,-4.2213 6.9234,-17.1811 10.9547,-17.1811 2.0355,0 2.6621,0.8165 4.029,5.25 1.818,5.8963 3.4243,21.6534 2.2795,22.3609 -0.4093,0.253 -0.3114,1.5983 0.2175,2.9896 2.1774,5.7271 0.3348,5.7827 -10.8436,0.3275 z m -15.1946,-20.3689 c 0,-1.4075 0.45,-2.5591 1,-2.5591 0.55,0 1,0.8735 1,1.941 0,1.0676 -0.45,2.2191 -1,2.559 -0.5671,0.3506 -1,-0.4896 -1,-1.9409 z m -52.5,-5.5417 c -13.9814,-1.9602 -50.9277,-18.5671 -61.6392,-27.706 -3.1016,-2.6463 -7.3194,-6.1614 -9.373,-7.8114 -2.0535,-1.65 -5.2533,-5.244 -7.1107,-7.9866 -2.8372,-4.1894 -3.3771,-5.8791 -3.3771,-10.5685 0,-10.248 3.476,-18.8036 14.8069,-36.4449 5.9461,-9.2576 20.0367,-27.9743 26.3493,-35 1.4825,-1.65 3.899,-4.35 5.37,-6 1.7691,-1.9844 2.8401,-2.5707 3.1635,-1.7321 0.2689,0.6973 1.0534,1.8323 1.7433,2.5223 0.6899,0.6899 2.5107,3.2693 4.0461,5.7321 5.6306,9.0312 25.4215,30.3034 32.2924,34.7095 1.5007,0.9623 5.2737,3.6663 8.3845,6.0089 3.1107,2.3427 6.0634,4.2593 6.5614,4.2593 0.498,0 1.8788,0.9068 3.0683,2.015 1.1895,1.1082 3.1869,2.4702 4.4386,3.0266 1.2516,0.5565 6.4871,3.2497 11.6344,5.9851 5.1473,2.7353 10.1987,4.9733 11.2253,4.9733 1.5706,0 1.718,0.3908 0.9295,2.4646 -0.5154,1.3556 -0.5554,2.7005 -0.089,2.9888 0.4665,0.2883 1.0822,-0.3708 1.3682,-1.4646 0.5988,-2.2896 3.7073,-2.7236 3.7073,-0.5176 0,2.7389 -12.6162,22.9857 -23.3849,37.5288 -12.0477,16.2704 -21.9658,24.6852 -28.1151,23.8537 -0.55,-0.074 -3.25,-0.4507 -6,-0.8363 z m 13.8617,-5.5174 c 0.6329,-1.6494 -1.3858,-2.0548 -2.9117,-0.5846 -0.5225,0.5034 -2.075,1.1171 -3.45,1.3638 -1.6446,0.295 -1.0824,0.4951 1.643,0.5847 2.8544,0.094 4.3221,-0.3304 4.7187,-1.3639 z m -33.3617,-6.6224 c 0,-1.8021 -0.2335,-1.9286 -1.5473,-0.8383 -1.2359,1.0257 -1.2862,1.4498 -0.25,2.1071 1.7843,1.1319 1.7973,1.1227 1.7973,-1.2688 z m -12.9908,-4.3666 c -0.6797,-0.8189 -1.6828,-1.2126 -2.2292,-0.875 -0.6035,0.373 -0.4609,0.9515 0.3633,1.4737 2.157,1.3668 3.2152,1.0272 1.8659,-0.5987 z m -3.0092,-1.9519 c 0,-1.0555 -1.9191,-1.499 -2.4899,-0.5754 -0.3455,0.559 0.073,1.0163 0.9309,1.0163 0.8575,0 1.559,-0.1984 1.559,-0.4409 z m -29.6383,-64.0591 c 0.3506,-0.9137 0,-1.5 -0.8931,-1.5 -0.8077,0 -1.4686,0.675 -1.4686,1.5 0,0.825 0.4019,1.5 0.893,1.5 0.4912,0 1.1521,-0.675 1.4687,-1.5 z m 8.1383,-11.5 c -0.3399,-0.55 -1.0414,-1 -1.559,-1 -0.5175,0 -0.941,0.45 -0.941,1 0,0.55 0.7016,1 1.559,1 0.8575,0 1.2809,-0.45 0.941,-1 z m 9.0411,-14.0665 c 1.0763,-1.7414 -0.1495,-2.1102 -1.521,-0.4576 -0.7888,0.9504 -0.8646,1.5241 -0.2015,1.5241 0.5849,0 1.36,-0.4799 1.7225,-1.0665 z m 229.6539,101.5665 c 0.02,-1.65 0.2445,-2.2039 0.498,-1.2309 0.2536,0.9729 0.2369,2.3229 -0.037,3 -0.274,0.677 -0.4814,-0.1191 -0.461,-1.7691 z m 56.805,-65.893 c 0,-0.2161 0.675,-0.652 1.5,-0.9686 0.825,-0.3166 1.5,-0.1397 1.5,0.393 0,0.5328 -0.675,0.9686 -1.5,0.9686 -0.825,0 -1.5,-0.1768 -1.5,-0.393 z m 15.0201,-12.1311 c 0.6957,-0.8383 1.4709,-1.3183 1.7226,-1.0666 0.6935,0.6935 -0.7156,2.5907 -1.9241,2.5907 -0.6631,0 -0.5873,-0.5737 0.2015,-1.5241 z m 19.9799,-18.4759 c 0,-0.55 0.4766,-1 1.059,-1 0.5825,0 0.7809,0.45 0.441,1 -0.3399,0.55 -0.8164,1 -1.059,1 -0.2425,0 -0.441,-0.45 -0.441,-1 z m 2,-2.393 c 0,-0.2161 0.675,-0.652 1.5,-0.9686 0.825,-0.3166 1.5,-0.1397 1.5,0.393 0,0.5328 -0.675,0.9686 -1.5,0.9686 -0.825,0 -1.5,-0.1768 -1.5,-0.393 z m 20.5643,-21.9001 c 0.3756,-0.9862 0.9347,-1.5412 1.2426,-1.2333 0.3079,0.3079 6e-4,1.1148 -0.6828,1.7931 -0.9876,0.9803 -1.1025,0.8654 -0.5598,-0.5598 z m 14.4357,-19.7069 c 0,-0.55 0.4766,-1 1.059,-1 0.5825,0 0.7809,0.45 0.441,1 -0.3399,0.55 -0.8164,1 -1.059,1 -0.2425,0 -0.441,-0.45 -0.441,-1 z m 14.079,-21.5833 c 0.048,-1.1649 0.2849,-1.4019 0.6041,-0.6042 0.2889,0.7219 0.2534,1.5844 -0.079,1.9167 -0.3323,0.3323 -0.5686,-0.2583 -0.5252,-1.3125 z m 6.921,-13.4167 c 0,-0.55 0.4766,-1 1.059,-1 0.5825,0 0.7809,0.45 0.441,1 -0.3399,0.55 -0.8164,1 -1.059,1 -0.2425,0 -0.441,-0.45 -0.441,-1 z m -45.9717,-25.1123 c -3.0444,-1.216 -3.9932,-2.629 -4.013,-5.9765 -0.019,-3.1615 5.5057,-9.9112 8.112,-9.9112 1.03,0 1.8727,-0.3665 1.8727,-0.8144 0,-1.1315 7.7963,-5.1856 9.9721,-5.1856 0.9807,0 2.3432,-0.675 3.0279,-1.5 1.7588,-2.1191 10.5727,-2.0558 11.393,0.082 1.8498,4.8205 -1.8056,11.5134 -9.8358,18.0088 -3.9149,3.1666 -6.2458,4.2476 -10.3194,4.786 -2.8942,0.3826 -5.8192,0.8762 -6.5,1.097 -0.6808,0.2207 -2.3501,-0.043 -3.7095,-0.5859 z m 72.0507,-23.471 c 0.048,-1.1649 0.2849,-1.4019 0.6041,-0.6042 0.2889,0.7219 0.2534,1.5844 -0.079,1.9167 -0.3323,0.3323 -0.5686,-0.2583 -0.5252,-1.3125 z m -247.8578,-3.3638 c -3.1849,-1.7799 -9.2212,-9.0095 -9.2212,-11.0442 0,-0.5548 -0.3477,-1.0087 -0.7726,-1.0087 -1.251,0 -3.3924,-8.9556 -3.9161,-16.3777 -0.6529,-9.2508 1.3254,-14.4878 6.5907,-17.447 2.1287,-1.1964 4.6482,-2.1753 5.5989,-2.1753 2.0891,0 11.4991,4.9962 11.4991,6.1054 0,0.4331 1.598,3.5141 3.5512,6.8466 2.9379,5.0128 3.7242,7.6096 4.5536,15.0381 0.9061,8.1161 0.81,9.4141 -1.0001,13.5063 -1.1015,2.49 -2.8131,4.8343 -3.8037,5.2095 -0.9905,0.3752 -2.3956,1.2699 -3.1224,1.9882 -1.831,1.8096 -6.0592,1.5373 -9.9574,-0.6412 z m 256.8578,-18.6362 c 0.048,-1.1649 0.2849,-1.4019 0.6041,-0.6042 0.2889,0.7219 0.2534,1.5844 -0.079,1.9167 -0.3323,0.3323 -0.5686,-0.2583 -0.5252,-1.3125 z m -464.579,-12.4167 c 0.3399,-0.55 0.8165,-1 1.059,-1 0.2426,0 0.441,0.45 0.441,1 0,0.55 -0.4765,1 -1.059,1 -0.5824,0 -0.7809,-0.45 -0.441,-1 z m 469.7522,-6.5 c 0.011,-2.2 0.2159,-2.9822 0.4551,-1.7383 0.2392,1.2439 0.2301,3.0439 -0.02,4 -0.2503,0.9561 -0.446,-0.062 -0.4349,-2.2617 z m -254.2522,-23.7935 c -4.185,-2.116 -6.9777,-9.1037 -6.9896,-17.4886 -0.013,-9.3007 1.8798,-14.2179 5.4738,-14.2179 3.9895,0 7.4378,2.8481 10.0802,8.3256 3.4508,7.1531 4.1265,13.6965 1.9001,18.3999 -2.8957,6.1173 -5.6367,7.422 -10.4645,4.981 z m -189,-2.7655 c 0,-0.5824 0.45,-0.7809 1,-0.441 0.55,0.34 1,0.8165 1,1.0591 0,0.2425 -0.45,0.4409 -1,0.4409 -0.55,0 -1,-0.4765 -1,-1.059 z m -52.6934,-17.5844 c -0.4444,-1.158 1.1157,-3.2749 5.2814,-7.1666 3.2516,-3.0377 7.8469,-7.3264 10.2117,-9.5305 3.2618,-3.0401 4.2273,-4.6291 4,-6.5834 -0.4595,-3.9501 -4.1349,-3.7102 -13.6241,0.8892 -10.1692,4.9289 -12.1756,5.1165 -12.1756,1.1383 0,-2.0925 1.0359,-3.8059 3.7325,-6.1735 3.9958,-3.5084 20.8054,-11.9301 23.8122,-11.9301 0.9973,0 3.2292,-0.512 4.9598,-1.1377 2.4606,-0.8898 4.8737,-0.8007 11.071,0.4086 9.8599,1.9241 25.413,6.3176 26.6134,7.518 0.5305,0.5305 0.2783,2.087 -0.6165,3.8045 -0.8329,1.5987 -1.7784,5.4429 -2.1011,8.5428 -0.5824,5.5944 -0.6201,5.649 -5.0817,7.3529 -2.4723,0.9441 -5.4068,1.4782 -6.5213,1.1867 -1.5347,-0.4013 -1.8809,-0.1511 -1.4272,1.0313 0.4914,1.2806 5e-4,1.464 -2.7313,1.0207 -5.11,-0.8293 -11.6337,0.7663 -25.5624,6.2519 -13.3965,5.276 -18.7616,6.1891 -19.8408,3.3769 z m 7.1934,-3.3566 c 0.3399,-0.55 0.1415,-1 -0.441,-1 -0.5824,0 -1.059,0.45 -1.059,1 0,0.55 0.1985,1 0.441,1 0.2426,0 0.7191,-0.45 1.059,-1 z m 4.2292,-1.6041 c -0.3323,-0.3323 -1.1948,-0.3679 -1.9167,-0.079 -0.7977,0.3192 -0.5607,0.5562 0.6042,0.6042 1.0542,0.043 1.6448,-0.1929 1.3125,-0.5252 z m 18.2708,-7.0029 c 0,-0.2161 -0.675,-0.393 -1.5,-0.393 -0.825,0 -1.5,0.4359 -1.5,0.9686 0,0.5328 0.675,0.7096 1.5,0.3931 0.825,-0.3166 1.5,-0.7525 1.5,-0.9687 z m 27,-18.7763 c 0,-0.2109 -0.9006,-0.6189 -2.0014,-0.9068 -1.1007,-0.2878 -1.7492,-0.1153 -1.4409,0.3834 0.5382,0.8709 3.4423,1.3124 3.4423,0.5234 z m -27.25,29.7211 c 0.6875,-0.2775 1.8125,-0.2775 2.5,0 0.6875,0.2774 0.125,0.5043 -1.25,0.5043 -1.375,0 -1.9375,-0.2269 -1.25,-0.5043 z m 4.25,-1.3378 c 0,-0.55 0.4766,-1 1.059,-1 0.5825,0 0.7809,0.45 0.441,1 -0.3399,0.55 -0.8164,1 -1.059,1 -0.2425,0 -0.441,-0.45 -0.441,-1 z m 177.25,-18.191 c -1.7875,-0.4764 -3.25,-1.2545 -3.25,-1.7291 0,-0.4747 -1.125,-1.1454 -2.5,-1.4905 -1.375,-0.3451 -2.5,-1.308 -2.5,-2.1398 0,-0.8318 -0.6285,-1.7535 -1.3968,-2.0483 -0.7682,-0.2948 -2.4557,-2.6432 -3.75,-5.2186 -1.2942,-2.5755 -3.0707,-5.8077 -3.9478,-7.1827 -0.877,-1.375 -2.419,-5.7347 -3.4267,-9.6883 -1.5245,-5.9811 -1.6346,-7.8479 -0.6554,-11.116 0.6472,-2.1602 1.1848,-4.7755 1.1948,-5.8117 0.01,-1.0362 1.7796,-3.3465 3.9327,-5.134 4.8738,-4.0462 9.3251,-4.2901 14.1513,-0.7755 1.8689,1.361 4.4104,2.9248 5.6479,3.4753 1.2375,0.5504 2.25,1.7192 2.25,2.5974 0,0.8782 1.1463,3.5527 2.5473,5.9433 3.7348,6.373 6.4527,16.9409 6.4527,25.0897 0,6.607 -0.2199,7.3247 -3.25,10.604 -4.1221,4.4612 -7.3073,5.7421 -11.5,4.6248 z m -135.2528,-44.3626 c 0,-1.6205 0.8647,-4.7464 1.9248,-6.9464 1.0601,-2.2 3.3564,-7.15 5.1028,-11 4.0351,-8.8955 8.0021,-16.7705 11.3341,-22.5 2.7161,-4.6703 3.3662,-8.4338 1.6411,-9.5 -2.1871,-1.3517 -0.9015,-2.6372 2,-2 1.6884,0.3709 3,0.2441 3,-0.2899 0,-0.5218 2.2212,-0.9988 4.9359,-1.06 4.3302,-0.097 8.0121,-0.7441 15.5641,-2.7333 1.1,-0.2897 4.7,-0.7882 8,-1.1077 3.3,-0.3194 7.2152,-1.1947 8.7004,-1.9449 3.169,-1.6009 10.2283,-1.8667 9.2908,-0.3499 -0.3448,0.5579 -2.2838,1.8679 -4.309,2.9113 -2.0252,1.0433 -5.2572,3.3157 -7.1822,5.0498 -1.925,1.734 -4.4664,3.6865 -5.6476,4.3387 -4.6927,2.5913 -19.8771,14.115 -24.7194,18.7601 -2.8232,2.708 -5.4405,4.9242 -5.8163,4.9248 -0.3759,6e-4 -2.9123,2.1385 -5.6366,4.751 -2.7243,2.6125 -6.8187,6.325 -9.0987,8.25 -2.28,1.925 -5.256,5.7259 -6.6134,8.4464 -2.2809,4.5715 -2.4682,4.723 -2.4708,2 z m -101.1847,-32.1295 c 0.7219,-0.2889 1.5844,-0.2533 1.9167,0.079 0.3323,0.3323 -0.2583,0.5686 -1.3125,0.5252 -1.1649,-0.048 -1.4019,-0.285 -0.6042,-0.6042 z m 289.3454,-19.3169 c 0,-1.375 0.227,-1.9375 0.5044,-1.25 0.2774,0.6875 0.2774,1.8125 0,2.5 -0.2774,0.6875 -0.5044,0.125 -0.5044,-1.25 z m -318.6663,-19.4241 c -1.426,-2.4333 -2.8553,-6.0423 -3.1762,-8.0201 -0.496,-3.056 -0.3363,-3.501 1.0633,-2.964 0.9057,0.3476 2.2036,0.1911 2.8841,-0.3478 1.7326,-1.372 19.1055,-9.0682 24.0999,-10.6763 6.0935,-1.962 20.1349,-6.3108 28.1373,-8.7145 3.85,-1.1564 8.6954,-2.7209 10.7675,-3.4767 2.0721,-0.7558 5.4471,-1.7797 7.5,-2.2752 4.021,-0.9706 18.9492,-5.3636 34.2325,-10.0739 5.225,-1.6103 13.775,-4.0928 19,-5.5166 5.225,-1.4238 13.1266,-3.6962 17.5591,-5.0498 10.1362,-3.0952 12.9982,-3.1366 14.6106,-0.211 2.4015,4.3572 0.1916,9.0202 -4.0899,8.6299 -3.7836,-0.3448 -40.7434,11.8011 -41.4408,13.6185 -0.382,0.9956 -1.9496,1.5016 -4.6519,1.5016 -4.817,0 -37.2711,10.4324 -39.0237,12.5442 -0.6645,0.8007 -2.6157,1.4605 -4.3358,1.4662 -3.6924,0.012 -31.3464,9.4307 -33.5842,11.4382 -0.8489,0.7614 -2.6684,1.3631 -4.0434,1.3369 -2.1773,-0.041 -5.5454,1.0812 -18.25,6.0825 -1.7381,0.6842 -2.75,1.8276 -2.75,3.1073 0,3.2657 -1.7271,2.3465 -4.5084,-2.3994 z m 260.8348,-17.1291 c -1.7455,-0.7646 -3.4633,-2.3029 -3.8174,-3.4185 -0.3541,-1.1155 -1.0303,-2.0283 -1.5028,-2.0283 -0.4725,0 -2.0465,-2.4271 -3.4979,-5.3935 -2.043,-4.1757 -2.4876,-6.1999 -1.9689,-8.9644 0.8598,-4.5836 2.1528,-5.5814 8.1531,-6.292 4.8094,-0.5697 5.0091,-0.4829 10.3342,4.4907 l 5.43,5.0715 0.381,7.5439 c 0.3137,6.2132 0.1159,7.5438 -1.1214,7.5438 -0.8263,0 -1.7613,0.675 -2.0779,1.5 -0.7208,1.8785 -5.9638,1.8514 -10.312,-0.053 z m -273.2474,-19.0301 c 0.048,-1.1649 0.2849,-1.4019 0.6041,-0.6042 0.2889,0.7219 0.2534,1.5844 -0.079,1.9167 -0.3323,0.3323 -0.5686,-0.2583 -0.5252,-1.3125 z m -6.9211,-31.4167 c 0,-1.375 0.227,-1.9375 0.5044,-1.25 0.2774,0.6875 0.2774,1.8125 0,2.5 -0.2774,0.6875 -0.5044,0.125 -0.5044,-1.25 z m 211.1407,-27.6241 c -5.0502,-2.4902 -9.2438,-10.4524 -9.2834,-17.6259 -0.017,-3.0266 0.5576,-3.2431 4.5638,-1.72 3.5395,1.3458 8.9582,-0.394 11.018,-3.5376 1.6239,-2.4784 2.1489,-9.4765 0.8665,-11.5514 -1.3351,-2.1603 7.0699,-0.4045 12.0586,2.5191 5.76,3.3756 9.4779,9.1232 9.4779,14.652 0,12.1626 -17.5898,22.7428 -28.7014,17.2638 z m -28.2196,-32.9592 c 0.048,-1.1649 0.2849,-1.4019 0.6041,-0.6042 0.2889,0.7219 0.2534,1.5844 -0.079,1.9167 -0.3323,0.3323 -0.5686,-0.2583 -0.5252,-1.3125 z m -138.2665,-11.0998 c 0.7219,-0.2889 1.5844,-0.2533 1.9167,0.079 0.3323,0.3323 -0.2583,0.5686 -1.3125,0.5252 -1.1649,-0.048 -1.4019,-0.285 -0.6042,-0.6042 z m 146.4375,-38.0062 c 0.9625,-0.2515 2.5375,-0.2515 3.5,0 0.9625,0.2515 0.175,0.4573 -1.75,0.4573 -1.925,0 -2.7125,-0.2058 -1.75,-0.4573 z m 11.5,-0.9729 c 0.6875,-0.2775 1.8125,-0.2775 2.5,0 0.6875,0.2774 0.125,0.5043 -1.25,0.5043 -1.375,0 -1.9375,-0.2269 -1.25,-0.5043 z"
       id="path560" /><path
       style="fill:#a53d39"
       d="m 2942.6655,3198.6423 c 0,-0.825 0.4359,-1.5 0.9686,-1.5 0.5328,0 0.7096,0.675 0.3931,1.5 -0.3166,0.825 -0.7525,1.5 -0.9687,1.5 -0.2161,0 -0.393,-0.675 -0.393,-1.5 z m -66,-2.3952 c -0.825,-0.4277 -4.0258,-2.0396 -7.113,-3.582 -6.3969,-3.1961 -15.1642,-10.5228 -12.5918,-10.5228 0.8989,0 2.157,-0.9764 2.7957,-2.1698 1.6406,-3.0655 7.9431,-9.1893 10.9091,-10.5999 9.1448,-4.3492 11.495,-3.3163 11.13,4.8913 -0.2677,6.0175 -2.9663,14.9542 -4.8866,16.1818 -0.9715,0.6211 -0.9942,1.3018 -0.1003,3 0.636,1.2082 1.6515,2.5272 2.2566,2.9313 1.4585,0.9739 -0.4721,0.8694 -2.3997,-0.1299 z m -25.1733,-16.7287 c -3.2864,-1.7355 -11.7305,-10.9929 -12.948,-14.1951 -0.9676,-2.5452 -0.3072,-4.5638 1.1904,-3.6383 0.512,0.3165 0.9309,-0.1783 0.9309,-1.0994 0,-0.9212 0.7669,-3.8341 1.7042,-6.4731 1.5643,-4.4043 2.1074,-4.9285 6.6149,-6.3842 6.3425,-2.0484 6.8366,-1.9962 8.9807,0.9496 2.5073,3.4447 2.0862,14.0348 -0.5498,13.8255 -0.9625,-0.076 -1.75,0.2612 -1.75,0.75 0,0.4889 0.45,0.8889 1,0.8889 1.4209,0 1.2286,2.0382 -0.5061,5.3643 -0.8216,1.5754 -1.4939,3.4328 -1.4939,4.1276 0,0.6948 -0.6863,1.8329 -1.5252,2.5291 -1.3616,1.13 -1.3449,1.465 0.155,3.1224 1.9307,2.1334 1.8226,2.1474 -1.8031,0.2327 z m 112.2523,-9.9594 c 0.048,-1.1649 0.2849,-1.4019 0.6041,-0.6042 0.2889,0.7219 0.2534,1.5844 -0.079,1.9167 -0.3323,0.3323 -0.5686,-0.2583 -0.5252,-1.3125 z m -94,-70 c 0.048,-1.1649 0.2849,-1.4019 0.6041,-0.6042 0.2889,0.7219 0.2534,1.5844 -0.079,1.9167 -0.3323,0.3323 -0.5686,-0.2583 -0.5252,-1.3125 z m -68.579,-227.4167 c 0.3399,-0.55 0.8165,-1 1.059,-1 0.2426,0 0.441,0.45 0.441,1 0,0.55 -0.4765,1 -1.059,1 -0.5824,0 -0.7809,-0.45 -0.441,-1 z m 80.579,-64.5833 c 0.048,-1.1649 0.2849,-1.4019 0.6041,-0.6042 0.2889,0.7219 0.2534,1.5844 -0.079,1.9167 -0.3323,0.3323 -0.5686,-0.2583 -0.5252,-1.3125 z m -142.9824,-48.9346 c -1.8066,-3.8434 -1.9858,-4.9457 -0.9201,-5.6592 3.2538,-2.1784 17.6287,-8.8229 19.0875,-8.8229 0.8899,0 1.8961,-0.45 2.236,-1 0.3399,-0.55 1.4762,-1 2.5251,-1 1.7228,0 6.6186,-1.8 11.2114,-4.122 0.955,-0.4829 2.8736,-0.878 4.2635,-0.878 1.39,0 3.3086,-0.4209 4.2636,-0.9353 3.3798,-1.8205 17.3957,-6.2387 17.9698,-5.6646 0.3205,0.3204 1.074,0.185 1.6746,-0.3009 0.6006,-0.4859 4.692,-1.8863 9.092,-3.1119 4.4,-1.2256 13.4,-3.9964 20,-6.1572 6.6,-2.1608 13.9248,-4.1944 16.2773,-4.519 2.3525,-0.3247 4.5166,-0.9775 4.809,-1.4507 0.2925,-0.4732 1.4113,-0.8604 2.4863,-0.8604 1.075,0 2.736,-0.394 3.691,-0.8755 0.955,-0.4816 4.2114,-1.5657 7.2364,-2.4091 3.025,-0.8435 10.0043,-2.9245 15.5096,-4.6245 5.5052,-1.7 10.7769,-3.0909 11.7148,-3.0909 2.451,0 3.9735,3.3494 2.8571,6.2856 -0.7437,1.9561 -1.8393,2.5281 -5.7501,3.0019 -2.6573,0.3219 -7.0814,1.4538 -9.8314,2.5152 -2.75,1.0615 -9.05,3.1648 -14,4.674 -4.95,1.5093 -11.1744,3.8194 -13.8321,5.1337 -2.6577,1.3143 -5.7758,2.3896 -6.929,2.3896 -1.9822,0 -6.8014,1.315 -11.2389,3.0666 -1.1,0.4343 -6.725,2.2274 -12.5,3.9849 -5.775,1.7574 -11.9031,4.0398 -13.618,5.072 -1.7149,1.0321 -4.2813,1.8765 -5.703,1.8765 -1.4217,0 -3.8435,0.5061 -5.3819,1.1245 -5.1803,2.0827 -6.7664,2.6569 -16.2971,5.8994 -5.225,1.7777 -9.9275,3.6245 -10.45,4.1041 -0.5225,0.4796 -1.9278,0.872 -3.1229,0.872 -1.8794,0 -5.3859,1.2605 -13.9271,5.0064 -1.1,0.4824 -3.5685,1.1874 -5.4857,1.5666 -1.9171,0.3792 -3.9781,1.3629 -4.5799,2.1859 -0.8965,1.2261 -1.4994,0.6342 -3.3378,-3.2768 z m 193.1093,-92.5741 c -4.3757,-2.2017 -7.2018,-6.2738 -8.6115,-12.408 -0.3791,-1.65 -0.9233,-3.7875 -1.2092,-4.75 -0.3773,-1.27 0.047,-1.75 1.5474,-1.75 1.1371,0 2.0674,0.3787 2.0674,0.8415 0,0.4628 2.1106,0.5212 4.6901,0.1297 6.8994,-1.0471 9.6711,-4.6019 9.0864,-11.6533 -0.2426,-2.9248 -0.2109,-5.3179 0.07,-5.3179 0.2812,0 2.1182,0.5484 4.0822,1.2187 6.3174,2.1558 12.0558,6.6964 14.2995,11.3148 1.8865,3.8828 1.9841,4.8137 0.8884,8.4709 -1.4061,4.6929 -7.7803,11.4103 -12.8292,13.5199 -6.2125,2.5957 -9.5073,2.6855 -14.0818,0.3837 z"
       id="path559" /></g></svg>
