<?xml version="1.0" encoding="UTF-8" standalone="no"?>
<!-- Created with Inkscape (http://www.inkscape.org/) -->

<svg
   version="1.1"
   id="svg1"
   width="166.23608"
   height="149.29126"
   viewBox="0 0 166.23608 149.29126"
   sodipodi:docname="Linotte app main inkscape.ai"
   inkscape:version="1.4.2 (ebf0e940, 2025-05-08)"
   xml:space="preserve"
   xmlns:inkscape="http://www.inkscape.org/namespaces/inkscape"
   xmlns:sodipodi="http://sodipodi.sourceforge.net/DTD/sodipodi-0.dtd"
   xmlns="http://www.w3.org/2000/svg"
   xmlns:svg="http://www.w3.org/2000/svg"><defs
     id="defs1" /><sodipodi:namedview
     id="namedview1"
     pagecolor="#ffffff"
     bordercolor="#000000"
     borderopacity="0.25"
     inkscape:showpageshadow="2"
     inkscape:pageopacity="0.0"
     inkscape:pagecheckerboard="0"
     inkscape:deskcolor="#d1d1d1"
     showgrid="false"
     inkscape:zoom="0.56756752"
     inkscape:cx="1981.2621"
     inkscape:cy="1210.4287"
     inkscape:window-width="1472"
     inkscape:window-height="844"
     inkscape:window-x="0"
     inkscape:window-y="34"
     inkscape:window-maximized="0"
     inkscape:current-layer="g3945"><inkscape:page
       x="0"
       y="0"
       width="166.23608"
       height="149.29126"
       id="page2"
       margin="0"
       bleed="0" /></sodipodi:namedview><g
     id="g4037"
     transform="matrix(0.37468848,0,0,0.37468848,-893.68791,-564.12775)"><ellipse
       style="fill:#e7edf6;fill-opacity:1;stroke:#dfdfdf;stroke-width:0;stroke-linecap:round;stroke-linejoin:round;stroke-miterlimit:1.4;stroke-dasharray:none;stroke-opacity:1;paint-order:stroke fill markers"
       id="path4031"
       cx="2482.3604"
       cy="1635.6167"
       rx="34.304951"
       ry="31.680063" /><ellipse
       style="fill:#e7edf6;fill-opacity:1;stroke:#dfdfdf;stroke-width:0;stroke-linecap:round;stroke-linejoin:round;stroke-miterlimit:1.4;stroke-dasharray:none;stroke-opacity:1;paint-order:stroke fill markers"
       id="path4032"
       cx="2560.7534"
       cy="1578.3517"
       rx="43.82341"
       ry="32.852028" /><ellipse
       style="fill:#e7edf6;fill-opacity:1;stroke:#dfdfdf;stroke-width:0;stroke-linecap:round;stroke-linejoin:round;stroke-miterlimit:1.4;stroke-dasharray:none;stroke-opacity:1;paint-order:stroke fill markers"
       id="path4033"
       cx="2671.4656"
       cy="1573.7002"
       rx="29.992054"
       ry="31.533907" /><ellipse
       style="fill:#e7edf6;fill-opacity:1;stroke:#dfdfdf;stroke-width:0;stroke-linecap:round;stroke-linejoin:round;stroke-miterlimit:1.4;stroke-dasharray:none;stroke-opacity:1;paint-order:stroke fill markers"
       id="path4034"
       cx="2745.5637"
       cy="1648.4587"
       rx="27.345697"
       ry="33.521271" /><ellipse
       style="fill:#e7edf6;fill-opacity:1;stroke:#dfdfdf;stroke-width:0;stroke-linecap:round;stroke-linejoin:round;stroke-miterlimit:1.4;stroke-dasharray:none;stroke-opacity:1;paint-order:stroke fill markers"
       id="path4035"
       cx="2661.885"
       cy="1753.4565"
       rx="40.454842"
       ry="26.437199" /><ellipse
       style="fill:#e7edf6;fill-opacity:1;stroke:#dfdfdf;stroke-width:0;stroke-linecap:round;stroke-linejoin:round;stroke-miterlimit:1.4;stroke-dasharray:none;stroke-opacity:1;paint-order:stroke fill markers"
       id="path4036"
       cx="2442.0784"
       cy="1724.8612"
       rx="38.215393"
       ry="26.804771" /><ellipse
       style="fill:#e7edf6;fill-opacity:1;stroke:#dfdfdf;stroke-width:0;stroke-linecap:round;stroke-linejoin:round;stroke-miterlimit:1.4;stroke-dasharray:none;stroke-opacity:1;paint-order:stroke fill markers"
       id="path4037"
       cx="2521.1882"
       cy="1776.3652"
       rx="40.894474"
       ry="28.227816" /><g
       id="g4024"
       transform="translate(514.94576,128.5546)"><path
         style="fill:#fdcba9"
         d="m 2055.4844,1774.8127 c -44.554,-3.3632 -83.0642,-19.1042 -110.0079,-44.9654 -6.6461,-6.3791 -10.4914,-9.3524 -12.1144,-9.3674 -20.3316,-0.1878 -49.369,-55.3609 -60.5125,-114.9781 -34.1593,-182.75 271.4695,-310.4762 397.4041,-166.0802 28.7208,32.9312 51.9323,106.2256 40.7481,128.6694 -2.2207,4.4564 -2.5247,6.5077 -2.8816,19.4464 -2.8766,104.2719 -127.5833,196.7152 -252.6358,187.2753 z m -48.7416,-107.0609 c 1.4821,-1.6537 5.7416,-22.1885 5.7416,-27.68 0,-5.8418 -9.1714,-7.0283 -10.4659,-1.354 -0.7394,3.2411 -4.5341,24.9668 -4.5341,25.9589 0,3.7176 6.6909,5.9399 9.2584,3.0751 z m 140.1132,-39.3706 c 9.0477,-11.661 9.6634,-13.0782 6.9734,-16.0506 -3.929,-4.3415 -24.345,13.9886 -24.345,21.8576 0,9.7392 7.1688,7.3428 17.3716,-5.807 z m -257.9386,-58.8794 c 8.7727,-50.4311 33.4425,-91.1662 79.567,-131.3817 8.1851,-7.1366 -1.2405,-0.8975 -13.949,9.2332 -54.1396,43.1577 -79.8595,98.6247 -70.551,152.1485 2,11.5 2,11.5 2.6402,-4.5 0.3522,-8.8 1.3839,-20.275 2.2928,-25.5 z m 51.115,36.5671 c 2.2739,-3.4704 1.0927,-5.1223 -10.7666,-15.0567 -11.8153,-9.8976 -15.2035,-10.6569 -17.2167,-3.8583 -2.1174,7.1503 24.0864,24.8625 27.9833,18.915 z m 136.4052,-12.1177 c 25.935,-4.9198 51.2248,-19.6893 64.9807,-37.9494 5.7809,-7.6738 -27.4493,-4.1148 -50.6068,5.42 -16.5769,6.8254 -45.3493,28.9991 -42.8584,33.0293 0.985,1.5939 19.1254,1.2755 28.4845,-0.4999 z m 155.1626,-62.1994 c 11.2309,-13.784 13.9911,-32.2505 4.4632,-29.8591 -2.4934,0.6257 -13.579,22.6197 -13.579,26.9408 0,4.5457 6.1784,6.5236 9.1158,2.9183 z m -262.5706,-14.3 c 4.0151,-4.4366 -4.7848,-31.95 -10.219,-31.95 -5.5881,0 -6.0066,2.9601 -2.4602,17.402 4.0189,16.366 7.4604,20.3148 12.6792,14.548 z m 88.8264,-68.0706 c 9.0953,-11.7224 9.8538,-13.6539 6.6284,-16.8794 -3.9307,-3.9307 -5.7275,-2.6859 -16.4579,11.4022 -8.1591,10.7122 -8.3053,11.0633 -5.9854,14.3753 3.4282,4.8944 6.419,3.2117 15.8149,-8.8981 z m 111.4284,2.9206 c 3.6963,-3.6963 -11.8191,-28.8 -17.8,-28.8 -7.0462,0 -6.6825,5.8316 1.0395,16.6712 9.7644,13.7065 12.908,15.9814 16.7605,12.1288 z m -193.3,-19.8 c 0.3399,-0.55 0.393,-1 0.118,-1 -0.275,0 -0.7781,0.45 -1.118,1 -0.3399,0.55 -0.3931,1 -0.1181,1 0.275,0 0.7782,-0.45 1.1181,-1 z"
         id="path4030" /><path
         style="fill:#eba97c"
         d="m 2054.4521,1774.5496 c -44.4955,-3.7046 -82.2645,-19.2602 -109.314,-45.0223 -7.3797,-7.0284 -9.9077,-8.8369 -13.0439,-9.3316 -21.2088,-3.3453 -48.6643,-57.2489 -59.245,-116.3162 -32.7322,-182.728 275.926,-308.9286 398.4768,-162.9246 29.1682,34.7504 51.4745,109.3466 38.5816,129.0238 -1.1854,1.8092 -1.6288,5.8023 -1.8544,16.7004 -2.1649,104.5948 -128.6226,198.276 -253.6011,187.8705 z m 32.0323,-20.2783 c 35.4078,-13.8576 69.7032,-32.631 93.4061,-51.1308 5.9062,-4.6097 5.9062,-4.6097 -3.8205,-9.1242 -16.1079,-7.4761 -18.6063,-6.4272 -27.647,11.608 -13.4042,26.7397 -18.9567,28.3017 -55.2564,15.5449 -28.421,-9.9879 -26.3324,-10.2141 -39.5863,4.2875 -17.9328,19.6209 -23.2679,19.2812 -56.7118,-3.6107 -29.1764,-19.971 -29.4082,-20.018 -41.8673,-8.4849 -16.6294,15.3936 78.7373,56.9052 110.9832,48.3093 2.75,-0.7331 11.975,-4.0627 20.5,-7.3991 z m -79.6799,-86.0195 c 2.2325,-1.6393 7.1231,-28.0533 5.6899,-30.7313 -4.4875,-8.3849 -10.2196,-2.9806 -12.9234,12.1844 -3.2401,18.1725 -0.7949,24.442 7.2335,18.5469 z m 133.5847,-31.5622 c 15.4186,-16.3497 19.6553,-30.3568 8.0697,-26.6797 -3.0706,0.9746 -18.9646,21.429 -18.9701,24.4132 -0.012,6.538 5.7435,7.7348 10.9004,2.2665 z m -253.5103,-29.4378 c -4.5882,-61.3381 27.9055,-124.8356 89.6055,-175.1018 4.8521,-3.953 1.9689,-2.3496 -7.5,4.1708 -63.7934,43.9286 -95.1935,104.3586 -85,163.5837 1.375,7.989 2.5,14.7665 2.5,15.0613 0,0.2948 0.2276,0.536 0.5058,0.536 0.2782,0 0.2281,-3.7125 -0.1113,-8.25 z m 52.6055,0.25 c 4.1972,-4.1972 3.2562,-5.7004 -11.1222,-17.7652 -8.9609,-7.5191 -11.7596,-8.5567 -15.0491,-5.5798 -4.2101,3.8101 -3.1315,5.6138 9.9632,16.6618 10.7731,9.0891 12.9178,9.9735 16.2081,6.6832 z m 145.965,-15.4387 c 21.9933,-6.1291 58.035,-30.0837 58.035,-38.5723 0,-3.8851 -26.9101,-1.1093 -43.6946,4.5071 -22.5455,7.5442 -52.3054,28.5801 -52.3054,36.9723 0,1.9249 28.4403,-0.2528 37.965,-2.9071 z m 145.1437,-58.5613 c 4.8216,0 14.3204,-29.0175 10.3503,-31.6188 -4.8936,-3.2064 -13.4918,8.3931 -18.9357,25.5454 -0.8079,2.5455 3.78,7.5547 6.1029,6.6634 0.8456,-0.3245 1.9627,-0.59 2.4825,-0.59 z m -260.893,-16.5741 c 3.0938,-6.7901 -5.4802,-31.4259 -10.9372,-31.4259 -5.9765,0 -4.3698,26.5087 1.9924,32.8709 2.2341,2.2341 7.6685,1.3562 8.9448,-1.445 z m 79.4243,-56.8863 c 3.5912,-2.5154 17.36,-21.2612 17.36,-23.6351 0,-5.3964 -6.2311,-7.7196 -9.9624,-3.7145 -5.4896,5.8924 -16.0376,20.8156 -16.0376,22.6898 0,4.6183 4.9149,7.269 8.64,4.6598 z m 120.6799,-8.7561 c 2.3425,-3.1493 1.4346,-5.0313 -9.6648,-20.0335 -6.8747,-9.292 -14.6551,-10.6105 -14.6551,-2.4835 0,2.1017 15.2408,24.2434 17.2761,25.0985 2.4552,1.0314 5.069,0.073 7.0438,-2.5815 z"
         id="path4029" /><path
         style="fill:#fd6c92"
         d="m 2057.4844,1774.4686 c -44.8528,-2.6066 -84.129,-18.3213 -112.2081,-44.8954 -5.2719,-4.9893 -10.4192,-9.0758 -11.4386,-9.0811 -19.1291,-0.1009 -48.1843,-52.7799 -58.9507,-106.8818 -42.255,-212.3331 325.166,-333.4886 418.5428,-138.0128 15.4566,32.3571 23.9373,79.4284 16.82,93.3578 -1.7399,3.4053 -2.1064,6.1859 -2.3128,17.5465 -1.6814,92.5644 -104.0451,181.2564 -216.4288,187.5225 -5.2381,0.292 -12.2238,0.6749 -15.5238,0.8508 -3.3,0.176 -11.625,-0.01 -18.5,-0.4065 z m 47.6196,-13.3949 c 97.2313,-14.2793 178.2901,-81.9565 189.9258,-158.5719 2.7816,-18.3153 2.2366,-21.8334 -3.2954,-21.2736 -13.0402,1.3195 -15.631,5.5851 -14.3723,23.6633 1.8494,26.5625 -5.3653,35.6103 -28.3953,35.6103 -19.0271,0 -20.1957,1.7159 -18.5994,27.3086 2.3934,38.3712 -10.9212,46.9121 -46.383,29.7533 -24.958,-12.0763 -25.8066,-11.8689 -36.4895,8.9176 -13.4243,26.1208 -17.7717,27.2923 -53.9554,14.54 -28.2568,-9.9587 -27.5291,-10.0401 -40.398,4.519 -18.5312,20.9652 -20.68,20.5127 -72.9703,-15.3639 -13.5105,-9.2696 -37.233,1.8714 -25.9567,12.1902 35.5616,32.542 92.8323,47.2334 150.8895,38.7071 z m -98.2995,-92.8219 c 2.2325,-1.6393 7.1231,-28.0533 5.6899,-30.7313 -4.4875,-8.3849 -10.2196,-2.9806 -12.9234,12.1844 -3.2401,18.1725 -0.7949,24.442 7.2335,18.5469 z m 133.5847,-31.5622 c 15.4186,-16.3497 19.6553,-30.3568 8.0697,-26.6797 -3.0706,0.9746 -18.9646,21.429 -18.9701,24.4132 -0.012,6.538 5.7435,7.7348 10.9004,2.2665 z m -200.9048,-29.1878 c 4.1972,-4.1972 3.2562,-5.7004 -11.1222,-17.7652 -8.9609,-7.5191 -11.7596,-8.5567 -15.0491,-5.5798 -4.2101,3.8101 -3.1315,5.6138 9.9632,16.6618 10.7731,9.0891 12.9178,9.9735 16.2081,6.6832 z m 146.5,-15.3821 c 21.8449,-6.392 57.5,-30.3859 57.5,-38.6943 0,-4.0954 -27.0294,-1.3201 -44.6055,4.58 -20.8302,6.9925 -51.3945,28.8014 -51.3945,36.6721 0,2.2514 28.5454,0.355 38.5,-2.5578 z m -46.2086,-6.8679 c 19.3132,-27.0224 59.3714,-45.5471 96.4306,-44.5938 15.3442,0.3947 15.823,0.07 13.3761,-9.079 -5.6323,-21.0587 -44.3323,-25.3693 -81.4835,-9.076 -40.6933,17.8466 -60.8441,53.301 -38.1572,67.1359 4.4298,2.7014 4.926,2.48 9.834,-4.3871 z m 190.8173,-51.75 c 4.8216,0 14.3204,-29.0175 10.3503,-31.6188 -4.8936,-3.2064 -13.4918,8.3931 -18.9357,25.5454 -0.8079,2.5455 3.78,7.5547 6.1029,6.6634 0.8456,-0.3245 1.9627,-0.59 2.4825,-0.59 z m -260.893,-16.5741 c 3.0938,-6.7901 -5.4802,-31.4259 -10.9372,-31.4259 -5.9765,0 -4.3698,26.5087 1.9924,32.8709 2.2341,2.2341 7.6685,1.3562 8.9448,-1.445 z m 79.4243,-56.8863 c 3.5912,-2.5154 17.36,-21.2612 17.36,-23.6351 0,-5.3964 -6.2311,-7.7196 -9.9624,-3.7145 -5.4896,5.8924 -16.0376,20.8156 -16.0376,22.6898 0,4.6183 4.9149,7.269 8.64,4.6598 z m 120.6799,-8.7561 c 2.3425,-3.1493 1.4346,-5.0313 -9.6648,-20.0335 -6.8747,-9.292 -14.6551,-10.6105 -14.6551,-2.4835 0,2.1017 15.2408,24.2434 17.2761,25.0985 2.4552,1.0314 5.069,0.073 7.0438,-2.5815 z"
         id="path4028"
         sodipodi:nodetypes="cscsssssscssssssssssssssssssssssssssssssssssssssssssssssssssssssss" /><path
         style="fill:#cd5083"
         d="m 2057.4844,1774.4686 c -44.8528,-2.6066 -84.129,-18.3213 -112.2081,-44.8954 -5.2719,-4.9893 -10.4192,-9.0758 -11.4386,-9.0811 -19.1291,-0.1009 -48.1843,-52.7799 -58.9507,-106.8818 -42.255,-212.3331 325.166,-333.4886 418.5428,-138.0128 15.4566,32.3571 23.9373,79.4284 16.82,93.3578 -1.7399,3.4053 -2.1064,6.1859 -2.3128,17.5465 -1.6814,92.5644 -104.0451,181.2564 -216.4288,187.5225 -5.2381,0.292 -12.2238,0.6749 -15.5238,0.8508 -3.3,0.176 -11.625,-0.01 -18.5,-0.4065 z m 47.6196,-13.3949 c 97.2313,-14.2793 178.2901,-81.9565 189.9258,-158.5719 2.7816,-18.3153 2.2366,-21.8334 -3.2954,-21.2736 -13.0402,1.3195 -15.631,5.5851 -14.3723,23.6633 1.8494,26.5625 -5.3653,35.6103 -28.3953,35.6103 -19.0271,0 -20.1957,1.7159 -18.5994,27.3086 2.3934,38.3712 -10.9212,46.9121 -46.383,29.7533 -24.958,-12.0763 -25.8066,-11.8689 -36.4895,8.9176 -13.4243,26.1208 -17.7717,27.2923 -53.9554,14.54 -28.2568,-9.9587 -27.5291,-10.0401 -40.398,4.519 -18.5312,20.9652 -20.68,20.5127 -72.9703,-15.3639 -13.5105,-9.2696 -37.233,1.8714 -25.9567,12.1902 35.5616,32.542 92.8323,47.2334 150.8895,38.7071 z m -69.7913,-34.9831 c 1.501,-0.7762 6.4851,-5.5208 11.0758,-10.5436 15.336,-16.7798 19.0352,-17.1885 51.0959,-5.6446 29.8931,10.7634 29.852,10.7741 40.5484,-10.5248 11.8992,-23.6941 20.334,-26.748 43.7619,-15.8441 7.1278,3.3175 13.0542,5.905 13.1699,5.75 0.1157,-0.1549 2.92,-3.8817 6.2319,-8.2817 13.3071,-17.6792 16.2879,-22.8868 16.2879,-28.4557 0,-8.6041 4.4742,-16.0591 12.6998,-21.1608 13.2721,-8.2316 28.9638,-71.7967 25.3646,-102.7489 -7.0179,-60.3522 -73.1846,-135.8378 -122.0644,-139.256 -134.2416,-9.3874 -268.2895,102.1675 -250.0854,208.1214 12.7,73.9176 43.8772,124.3448 65.1451,105.3679 16.659,-14.8645 21.892,-14.0066 55.326,9.071 24.3889,16.8343 25.3848,17.2825 31.4426,14.1499 z m 5.6717,-118.6749 c -21.0315,-4.1586 -40.0733,-22.0131 -43.4726,-40.762 -11.9879,-66.1187 131.7688,-119.0923 161.7402,-59.6004 24.7901,49.2074 -51.1339,113.6369 -118.2676,100.3624 z m 45,-15.296 c 21.8449,-6.392 57.5,-30.3859 57.5,-38.6943 0,-4.0954 -27.0294,-1.3201 -44.6055,4.58 -20.8302,6.9925 -51.3945,28.8014 -51.3945,36.6721 0,2.2514 28.5454,0.355 38.5,-2.5578 z m -46.2086,-6.8679 c 19.3132,-27.0224 59.3714,-45.5471 96.4306,-44.5938 15.3442,0.3947 15.823,0.07 13.3761,-9.079 -5.6323,-21.0587 -44.3323,-25.3693 -81.4835,-9.076 -40.6933,17.8466 -60.8441,53.301 -38.1572,67.1359 4.4298,2.7014 4.926,2.48 9.834,-4.3871 z"
         id="path4027" /><path
         style="fill:#a44e68"
         d="m 2057.4844,1774.4686 c -44.8528,-2.6066 -84.129,-18.3213 -112.2081,-44.8954 -5.2719,-4.9893 -10.4192,-9.0758 -11.4386,-9.0811 -19.1291,-0.1009 -48.1843,-52.7799 -58.9507,-106.8818 -42.255,-212.3331 325.166,-333.4886 418.5428,-138.0128 15.4566,32.3571 23.9373,79.4284 16.82,93.3578 -1.7399,3.4053 -2.1064,6.1859 -2.3128,17.5465 -1.6814,92.5644 -104.0451,181.2564 -216.4288,187.5225 -5.2381,0.292 -12.2238,0.6749 -15.5238,0.8508 -3.3,0.176 -11.625,-0.01 -18.5,-0.4065 z m 47.5,-13.3753 c 102.5248,-15.1104 186.5527,-89.5047 191.1501,-169.2351 0.6425,-11.1437 0.6425,-11.1437 -4.2538,-10.6465 -13.2313,1.3434 -15.8866,5.6748 -14.5534,23.7403 1.943,26.3284 -5.4535,35.5498 -28.5147,35.5498 -18.9117,0 -20.039,1.6968 -18.4204,27.7262 1.4892,23.9482 -0.7338,29.8989 -13.4078,35.8905 -8.656,4.0922 -11.4546,3.5228 -33.2667,-6.7679 -25.4293,-11.9972 -25.2412,-12.0427 -35.948,8.6844 -13.7174,26.5551 -17.9617,27.7304 -54.1231,14.9866 -28.6028,-10.0801 -27.2947,-10.2317 -40.6502,4.7116 -16.2397,18.1704 -23.2824,18.21 -49.512,0.2787 -32.1923,-22.0074 -29.6391,-20.5101 -34.9712,-20.5101 -6.8703,0 -20.1887,11.051 -17.2547,14.3171 17.1092,19.0459 57.2649,37.4484 90.7259,41.5777 4.95,0.6108 10.125,1.3057 11.5,1.5441 5.1335,0.8902 41.8653,-0.4274 51.5,-1.8474 z m -58.5092,-45.4004 c 16.4787,-17.1629 17.0957,-17.2305 50.7257,-5.5562 30.3561,10.5379 30.1544,10.581 39.7138,-8.4959 13.7426,-27.4247 20.1586,-29.4466 49.6277,-15.639 30.0383,14.0743 33.8783,11.8402 31.884,-18.5503 -1.9712,-30.0404 4.85,-39.1636 29.0614,-38.8685 17.5095,0.2134 20.219,-4.4732 17.3987,-30.0942 -1.6525,-15.0125 7.8656,-26.6839 23.5052,-28.8227 15.6928,-2.1462 16.7833,-22.3324 3.5108,-64.9894 -35.3134,-113.4954 -175.4752,-150.9037 -302.8693,-80.8339 -104.1453,57.2823 -134.5808,156.9483 -78.4247,256.8142 16.7102,29.7167 24.5373,33.8599 39.7835,21.0587 14.9177,-12.5255 21.1509,-11.7483 46.6194,5.8129 36.519,25.1807 33.5899,24.6972 49.4638,8.1643 z m -5.8521,-108.7305 c -34.0101,-7.3801 -52.3386,-39.5206 -38.9034,-68.2203 4.5614,-9.744 14.4626,-4.4404 10.4469,5.5959 -1.9973,4.9918 -3.9636,15.8996 -3.1139,17.2744 0.3647,0.5901 1.6597,-1.3793 2.8779,-4.3764 16.5068,-40.6143 97.8202,-71.612 131.377,-50.0827 2.1843,1.4015 2.2619,1.3761 1.2978,-0.4253 -1.4219,-2.6568 -7.1446,-6.8658 -13.0637,-9.6082 -8.2577,-3.8258 -10.5147,-8.0178 -6.4859,-12.0465 5.5965,-5.5966 27.7272,9.0639 34.3911,22.7824 23.8964,49.1935 -53.0574,113.378 -118.8238,99.1067 z m 45.3613,-14.8427 c 21.8449,-6.392 57.5,-30.3859 57.5,-38.6943 0,-4.0954 -27.0294,-1.3201 -44.6055,4.58 -20.8302,6.9925 -51.3945,28.8014 -51.3945,36.6721 0,2.2514 28.5454,0.355 38.5,-2.5578 z m -46.2086,-6.8679 c 19.3132,-27.0224 59.3714,-45.5471 96.4306,-44.5938 15.3442,0.3947 15.823,0.07 13.3761,-9.079 -5.6323,-21.0587 -44.3323,-25.3693 -81.4835,-9.076 -40.6933,17.8466 -60.8441,53.301 -38.1572,67.1359 4.4298,2.7014 4.926,2.48 9.834,-4.3871 z"
         id="path4026" /><path
         style="fill:#471637"
         d="m 2050.4844,1773.8149 c -43.6308,-4.5731 -80.8225,-20.5344 -106.167,-45.5631 -4.3162,-4.2625 -8.4393,-7.75 -9.1622,-7.75 -22.0655,0 -51.6305,-56.5965 -62.3034,-119.2679 -32.1738,-188.9234 297.481,-308.4783 407.5327,-147.7986 22.6797,33.1133 39.0663,96.2889 29.8666,115.1455 -2.4421,5.0055 -2.6794,6.6474 -3.0965,21.421 -2.9165,103.2966 -133.3899,196.7345 -256.6702,183.8131 z m 60.2554,-13.18 c 76.675,-13.7034 139.9003,-56.2193 170.3713,-114.5666 13.0616,-25.011 20.9373,-66.9293 12.2483,-65.1915 -1.7188,0.3438 -4.4717,0.625 -6.1177,0.625 -8.265,0 -10.7983,6.0567 -10.515,25.1401 0.4018,27.0673 -6.0186,34.3779 -29.5551,33.6531 -16.9092,-0.5207 -18.7926,2.5686 -17.366,28.4848 2.0794,37.7754 -10.254,45.4082 -45.8212,28.3577 -25.228,-12.0941 -25.962,-11.9185 -36.6155,8.7609 -13.376,25.9639 -18.0747,27.3092 -52.7521,15.1034 -29.2179,-10.2842 -27.5495,-10.4242 -40.8282,3.4256 -19.3453,20.1773 -23.1153,19.9531 -57.1367,-3.3967 -29.6751,-20.3669 -28.8494,-20.2312 -43.2529,-7.1047 -12.6174,11.4987 45.3128,42.1422 91.682,48.4973 12.3403,1.6913 52.2749,0.6036 65.6588,-1.7884 z m -74.5359,-34.4374 c 1.2207,-0.6784 6.1579,-5.454 10.9714,-10.6126 15.0181,-16.0943 17.7003,-16.3935 48.9942,-5.4644 31.2299,10.9067 31.1449,10.9251 41.3733,-8.9754 13.7809,-26.8125 19.9853,-28.572 50.242,-14.2484 30.2638,14.327 32.9655,12.0714 30.8601,-25.7636 -1.3291,-23.8826 5.7876,-31.9372 28.3333,-32.0673 18.212,-0.105 19.8448,-2.292 18.8661,-25.2699 -0.9501,-22.3073 6.3223,-33.2941 22.0382,-33.2941 15.2902,0 17.3719,-16.5148 7.1205,-56.4897 -29.7876,-116.1551 -163.8707,-160.5723 -293.0186,-97.067 -111.3464,54.7517 -147.1539,148.412 -96.9109,253.486 17.7147,37.0472 29.6463,45.546 44.9617,32.0259 8.5716,-7.5669 15.0986,-9.8482 23.2856,-8.1388 5.38,1.1234 6.3518,1.7255 41.5572,25.7498 11.5459,7.8789 15.9171,9.1353 21.3259,6.1295 z m 6.7805,-119.0951 c -36.34,-7.0716 -56.9828,-43.4816 -39.8856,-70.3506 5.2175,-8.1995 11.2114,-0.5193 7.8516,10.0607 -2.5112,7.9077 -3.6151,22.2571 -1.2839,16.6893 19.5665,-46.7332 95.4138,-78.4965 133.617,-55.956 1.8991,1.1205 3.6282,1.8621 3.8423,1.6479 1.0406,-1.0405 -10.4585,-10.1793 -16.1733,-12.8536 -6.5292,-3.0554 -8.5151,-5.6676 -7.104,-9.3447 3.5239,-9.1833 27.387,5.1305 35.323,21.1879 23.5921,47.7354 -51.3468,111.5366 -116.1871,98.9191 z m 27.2686,-11.6308 c 25.6216,-3.2127 53.3301,-17.5102 68.2229,-35.2028 18.3803,-21.8358 -51.6888,-4.5223 -78.3768,19.3662 -17.59,15.7449 -15.471,19.0497 10.1539,15.8366 z m -31.3357,-8.5666 c 17.5459,-26.426 56.6605,-45.3943 94.5671,-45.8595 23.6129,-0.2898 23.6129,-16.3022 0,-25.7955 -50.5753,-20.3332 -148.698,51.1803 -103.1964,75.2113 4.9079,2.592 4.4111,2.7967 8.6293,-3.5563 z"
         id="path4025" /><path
         style="fill:#3e0e32"
         d="m 2049.2015,1773.3852 c -40.5695,-3.9093 -77.283,-19.5443 -102.9638,-43.8485 -6.7898,-6.4259 -10.5277,-9.2309 -12.9057,-9.6847 -21.9456,-4.1882 -47.813,-53.7698 -59.6233,-114.2839 -36.8527,-188.8261 292.0273,-313.9678 404.8878,-154.0633 23.5808,33.41 40.8785,97.1883 31.5373,116.2811 -2.3932,4.8917 -2.6498,6.5176 -2.6534,16.8156 -0.037,106.251 -129.8796,201.1565 -258.2789,188.7837 z m 57.5797,-11.9563 c 84.5007,-12.1643 161.0926,-68.7186 183.193,-135.2669 6.3839,-19.2232 9.9944,-47.5145 5.915,-46.349 -1.0477,0.2993 -4.2135,0.8365 -7.0353,1.1939 -10.7863,1.366 -11.8653,3.5552 -11.8973,24.1392 -0.043,27.9823 -7.0533,36.1705 -29.7364,34.7353 -16.998,-1.0756 -19.1769,2.334 -17.6042,27.5472 2.3845,38.2281 -9.8364,46.2463 -45.074,29.5732 -25.6825,-12.1519 -26.6276,-11.9541 -36.6017,7.6609 -13.8046,27.1481 -18.0514,28.3774 -54.2492,15.7039 -28.8032,-10.0846 -26.9813,-10.2692 -40.2539,4.0795 -18.3723,19.8619 -22.7525,19.5614 -56.8941,-3.9039 -28.7096,-19.7319 -29.1891,-19.819 -42.3967,-7.698 -16.2214,14.8868 48.4787,46.2483 105.338,51.0596 9.0092,0.7624 33.8321,-0.5365 47.2968,-2.4749 z m -71.9702,-34.2902 c 1.7944,-0.7497 7.2128,-5.6584 12.041,-10.9083 15.1641,-16.4884 17.7539,-16.8121 48.3175,-6.0397 32.4412,11.4342 32.5773,11.4037 43.2795,-9.6883 13.0684,-25.7552 19.3505,-27.4908 48.6756,-13.4483 29.644,14.1953 33.9761,11.5208 32.1136,-19.8262 -1.7777,-29.92 3.9451,-37.7261 27.6576,-37.7261 18.3125,0 20.1951,-2.3452 19.191,-23.9072 -1.1158,-23.961 4.4528,-32.5563 22.769,-35.1453 16.1149,-2.2778 17.1273,-25.4735 3.0092,-68.9475 -37.81,-116.4282 -193.7798,-150.4265 -317.8712,-69.2895 -91.8115,60.0308 -115.8981,146.0492 -67.7251,241.8605 16.7664,33.3467 29.1832,41.8496 42.9456,29.4088 15.8109,-14.2924 21.0519,-13.4751 52.6879,8.2168 25.5035,17.4871 26.6843,18.0411 32.9088,15.4403 z m 12.8662,-119.6664 c -37.6677,-5.1466 -58.2283,-34.5644 -46.2475,-66.1699 4.7719,-12.5882 13.4064,-7.7183 9.0809,5.1217 -1.579,4.6871 -2.0344,8.1753 -1.8167,13.9163 0.2905,7.6614 0.2905,7.6614 2.0097,2.1614 13.3387,-42.6728 90.8045,-75.1342 131.1673,-54.9647 3.2682,1.6332 6.1414,2.7701 6.385,2.5266 1.1883,-1.1883 -10.447,-10.9831 -16.3011,-13.7225 -7.6609,-3.585 -9.3497,-5.8484 -7.0184,-9.4064 4.9696,-7.5847 26.7298,6.5592 34.272,22.2765 21.9477,45.7374 -47.586,106.998 -111.5312,98.261 z m 36.1011,-14.3491 c 24.8268,-6.4095 60.7061,-30.4712 60.7061,-40.7112 0,-3.2447 -30.1603,-0.074 -44.7522,4.7052 -21.3746,7.0002 -53.2478,29.4751 -53.2478,37.5468 0,2.8066 24.3518,1.8005 37.2939,-1.5408 z m -45.6154,-4.3791 c 16.2967,-27.9944 69.3045,-52.1244 104.3215,-47.4888 8.9268,1.1818 8.1516,1.6495 8.2109,-4.9539 0.4471,-49.7567 -125.6355,-16.5314 -130.9019,34.4952 -1.3982,13.5471 12.8355,27.4538 18.3695,17.9475 z"
         id="path4024" /></g></g></svg>
