<?xml version="1.0" encoding="UTF-8" standalone="no"?>
<!-- Created with Inkscape (http://www.inkscape.org/) -->

<svg
   version="1.1"
   id="svg1"
   width="156.48169"
   height="161.03137"
   viewBox="0 0 156.48169 161.03137"
   sodipodi:docname="Linotte app main inkscape.ai"
   inkscape:version="1.4.2 (ebf0e940, 2025-05-08)"
   xml:space="preserve"
   inkscape:export-batch-path="/Users/giannipie/Documents/Repositories/linotte-web/resources/images/dice"
   inkscape:export-batch-name="rere"
   inkscape:export-filename="/Users/giannipie/Documents/Repositories/linotte-web/resources/images/pieces/p031_00a0d7ff.svg"
   inkscape:export-xdpi="96"
   inkscape:export-ydpi="96"
   xmlns:inkscape="http://www.inkscape.org/namespaces/inkscape"
   xmlns:sodipodi="http://sodipodi.sourceforge.net/DTD/sodipodi-0.dtd"
   xmlns="http://www.w3.org/2000/svg"
   xmlns:svg="http://www.w3.org/2000/svg"><defs
     id="defs1" /><sodipodi:namedview
     id="namedview1"
     pagecolor="#ffffff"
     bordercolor="#000000"
     borderopacity="0.25"
     inkscape:showpageshadow="2"
     inkscape:pageopacity="0.0"
     inkscape:pagecheckerboard="0"
     inkscape:deskcolor="#d1d1d1"
     showgrid="false"
     inkscape:zoom="1.1484381"
     inkscape:cx="1064.0539"
     inkscape:cy="1080.5981"
     inkscape:window-width="1472"
     inkscape:window-height="844"
     inkscape:window-x="0"
     inkscape:window-y="33"
     inkscape:window-maximized="0"
     inkscape:current-layer="layer-MC0"><inkscape:page
       x="0"
       y="0"
       width="156.48169"
       height="161.03137"
       id="page2"
       margin="0"
       bleed="0" /></sodipodi:namedview><g
     id="layer-MC0"
     inkscape:groupmode="layer"
     inkscape:label="Livello 1"
     transform="translate(-940.52083,-1136.4221)"><g
       id="g381"
       transform="matrix(0.31523038,0,0,0.31523038,336.64646,1779.1594)"
       style="stroke:#414100;stroke-width:6.26112;stroke-linecap:round;stroke-linejoin:round;stroke-dasharray:none;stroke-opacity:1;paint-order:stroke fill markers"
       inkscape:export-filename="/Users/giannipie/Documents/Repositories/linotte-web/resources/images/pieces/p031_00a0d7ff.svg"
       inkscape:export-xdpi="96"
       inkscape:export-ydpi="96"><g
         id="g504"
         transform="matrix(0.72553048,0,0,0.72553048,-1458.4327,-3315.4995)"
         style="stroke:#414100;stroke-width:6.26112;stroke-linecap:round;stroke-linejoin:round;stroke-dasharray:none;stroke-opacity:1;paint-order:stroke fill markers"><path
           d="m 4994.97,2404.6254 c -1.3863,-0.043 -2.8355,0.4972 -4.1532,1.8149 -4.4548,4.4548 -1.695,14.8521 3.9424,14.8521 2.0343,0 4.6403,-2.4584 5.7914,-5.4582 2.1754,-5.6692 -1.4219,-11.0788 -5.5806,-11.2088 z"
           style="fill:#fbfbfa;stroke-width:0"
           id="path487" /><path
           d="m 4994.6097,2386.5581 c -17.1839,0.016 -34.3843,0.7443 -41.5724,2.182 -10.8079,2.1615 -11.1907,2.8059 -9.4482,15.7969 2.2764,16.9724 10.0808,29.0663 24.3819,37.7863 17.0245,10.3805 23.308,9.0383 23.308,-4.996 0,-7.2859 -1.9993,-12.5762 -5.2203,-13.8122 -7.0054,-2.6883 -6.6631,-18.4759 0.4894,-22.4787 7.7539,-4.3393 17.9932,-1.2092 20.3511,6.2196 2.2527,7.0977 -1.0491,17.5166 -5.5534,17.5166 -1.7093,0 -3.1063,5.4813 -3.1063,12.1808 0,9.2855 1.4477,12.1771 6.0904,12.1672 11.721,-0.025 29.08,-13.9816 35.7946,-28.773 9.9144,-21.8406 8.9949,-29.0758 -4.0376,-31.6823 -7.1209,-1.4242 -24.2933,-2.1233 -41.4772,-2.1072 z"
           style="fill:#fbfbfa;stroke-width:0"
           id="path486" /><path
           d="m 4994.6097,2386.5581 c 17.1839,-0.016 34.3563,0.683 41.4772,2.1072 13.0325,2.6065 13.952,9.8417 4.0376,31.6823 -6.7146,14.7914 -24.0736,28.748 -35.7946,28.773 -4.6427,0.01 -6.0904,-2.8817 -6.0904,-12.1672 0,-6.6995 1.397,-12.1808 3.1063,-12.1808 4.5043,0 7.8061,-10.4189 5.5534,-17.5166 -2.3579,-7.4288 -12.5972,-10.5589 -20.3511,-6.2196 -7.1525,4.0028 -7.4948,19.7904 -0.4894,22.4787 3.221,1.236 5.2203,6.5263 5.2203,13.8122 0,14.0343 -6.2835,15.3765 -23.308,4.996 -14.3011,-8.72 -22.1055,-20.8139 -24.3819,-37.7863 -1.7425,-12.991 -1.3597,-13.6354 9.4482,-15.7969 7.1881,-1.4377 24.3885,-2.1658 41.5724,-2.182 z m 0.3603,18.0673 c 4.1587,0.13 7.756,5.5396 5.5806,11.2088 -1.1511,2.9998 -3.7571,5.4582 -5.7914,5.4582 -5.6374,0 -8.3972,-10.3973 -3.9424,-14.8521 1.3177,-1.3177 2.7669,-1.8582 4.1532,-1.8149 z"
           style="fill:#fbfbfa;stroke-width:0"
           id="path485" /><path
           d="m 4986.0791,2369.7484 c -32.0542,1.2777 -52.868,6.5985 -49.1786,12.5682 0.8279,1.3395 26.7169,2.4335 57.5257,2.4335 41.5421,0 56.0166,-1.0877 56.0166,-4.2144 0,-7.4849 -28.2736,-12.2259 -64.3637,-10.7873 z"
           style="fill:#fbfbfa;stroke-width:0"
           id="path484" /><path
           d="m 4986.0791,2369.7484 c 36.0901,-1.4386 64.3637,3.3024 64.3637,10.7873 0,3.1267 -14.4745,4.2144 -56.0166,4.2144 -30.8088,0 -56.6978,-1.094 -57.5257,-2.4335 -3.6894,-5.9697 17.1244,-11.2905 49.1786,-12.5682 z"
           style="fill:#fbfbfa;stroke-width:0"
           id="path483" /><path
           d="m 4994.9428,2348.6359 c -3.8663,-0.054 -7.738,0.2676 -11.4943,0.9992 -6.2209,1.2118 -15.226,5.2693 -20.0113,9.0133 l -8.7005,6.8041 h 40.0225 40.0226 l -8.7005,-6.8041 c -8.0145,-6.2706 -19.5397,-9.8494 -31.1385,-10.0125 z"
           style="fill:#fbfbfa;stroke-width:0"
           id="path482" /><path
           d="m 4994.9428,2348.6359 c 11.5988,0.1631 23.124,3.7419 31.1385,10.0125 l 8.7005,6.8041 h -40.0226 -40.0225 l 8.7005,-6.8041 c 4.7853,-3.744 13.7904,-7.8015 20.0113,-9.0133 3.7563,-0.7316 7.628,-1.0535 11.4943,-0.9992 z"
           style="fill:#fbfbfa;stroke-width:0"
           id="path481" /><path
           d="m 4995.2147,2330.8066 c -205.8034,0 -211.846,0.1867 -217.8471,6.8177 -6.6271,7.323 -5.0462,23.8008 2.7597,28.7662 6.3109,4.0144 169.389,3.3075 169.389,-0.7341 0,-1.887 6.2364,-7.5573 13.8598,-12.6022 12.0579,-7.9795 16.574,-8.9795 34.7138,-7.6674 16.9716,1.2276 23.4319,3.5873 34.7343,12.6702 l 13.8869,11.1612 80.9084,-0.938 80.9084,-0.9313 5.1456,-9.1695 c 4.6144,-8.2249 4.5267,-10.1072 -0.8225,-18.2712 l -5.9612,-9.1016 z"
           style="fill:#fbfbfa;stroke-width:0"
           id="path480" /><path
           d="m 4905.2114,2177.6971 c -18.4902,0.1951 -34.6271,6.1747 -48.0094,17.9245 -13.7788,12.0979 -20.6014,30.1363 -17.5506,46.3985 1.7285,9.2136 6.1598,14.3228 20.9561,24.144 48.9342,32.4807 105.6936,44.8903 168.1927,36.7735 53.5673,-6.9569 116.0713,-37.9714 120.428,-59.7552 4.8883,-24.4414 -10.1459,-48.9249 -36.9026,-60.1018 -24.8916,-10.3978 -63.5729,-4.4936 -98.0445,14.9609 l -18.645,10.5222 -28.2904,-14.1044 c -22.8011,-11.3681 -43.644,-16.9572 -62.1343,-16.7622 z"
           style="fill:#fbfbfa;stroke-width:0"
           id="path479" /><path
           d="m 4765.2956,2095.2661 c -2.4807,-0.031 -2.5589,3.2386 -1.3799,13.4179 4.7744,41.2213 25.8237,88.2838 53.0394,118.5927 l 15.9737,17.7886 1.8489,-15.8378 c 1.0172,-8.7105 5.6398,-21.3726 10.2775,-28.1408 v -0.01 c 23.084,-33.689 69.8644,-37.8738 124.3229,-11.1272 l 25.0889,12.3235 24.1576,-12.1672 c 28.1479,-14.1751 58.2509,-20.0558 80.6093,-15.7426 8.5731,1.6539 16.7119,3.0774 18.0809,3.1608 5.0685,0.3086 27.6146,22.3811 32.4912,31.8114 2.7734,5.3631 5.0436,15.5575 5.0436,22.6486 v 12.8945 l 7.4906,-6.6341 c 27.4962,-24.3303 56.9204,-82.4336 61.6516,-121.7331 2.3945,-19.8896 2.0645,-22.3707 -2.7529,-20.4055 -43.9806,17.9413 -82.0529,24.8446 -163.8016,29.7178 -49.0877,2.9263 -81.7266,2.9127 -128.8159,-0.068 -79.6299,-5.041 -116.7743,-11.9284 -160.6545,-29.7722 -1.0973,-0.4462 -1.9768,-0.7119 -2.6713,-0.7205 z"
           style="fill:#fbfbfa;stroke-width:0"
           id="path478" /><path
           d="m 4765.2956,2095.2661 c 0.6945,0.01 1.574,0.2743 2.6713,0.7205 43.8802,17.8438 81.0246,24.7312 160.6545,29.7722 47.0893,2.9807 79.7282,2.9943 128.8159,0.068 81.7487,-4.8732 119.821,-11.7765 163.8016,-29.7178 4.8174,-1.9652 5.1474,0.5159 2.7529,20.4055 -4.7312,39.2995 -34.1554,97.4028 -61.6516,121.7331 l -7.4906,6.6341 v -12.8945 c 0,-7.0911 -2.2702,-17.2855 -5.0436,-22.6486 -4.8766,-9.4303 -27.4227,-31.5028 -32.4912,-31.8114 -1.369,-0.083 -9.5078,-1.5069 -18.0809,-3.1608 -22.3584,-4.3132 -52.4614,1.5675 -80.6093,15.7426 l -24.1576,12.1672 -25.0889,-12.3235 c -54.4585,-26.7466 -101.2389,-22.5618 -124.3229,11.1272 v 0.01 c -4.6377,6.7682 -9.2603,19.4303 -10.2775,28.1408 l -1.8489,15.8378 -15.9737,-17.7886 c -27.2157,-30.3089 -48.265,-77.3714 -53.0394,-118.5927 -1.179,-10.1793 -1.1008,-13.4485 1.3799,-13.4179 z m 139.9158,82.431 c 18.4903,-0.195 39.3332,5.3941 62.1343,16.7622 l 28.2904,14.1044 18.645,-10.5222 c 34.4716,-19.4545 73.1529,-25.3587 98.0445,-14.9609 26.7567,11.1769 41.7909,35.6604 36.9026,60.1018 -4.3567,21.7838 -66.8607,52.7983 -120.428,59.7552 -62.4991,8.1168 -119.2585,-4.2928 -168.1927,-36.7735 -14.7963,-9.8212 -19.2276,-14.9304 -20.9561,-24.144 -3.0508,-16.2622 3.7718,-34.3006 17.5506,-46.3985 13.3823,-11.7498 29.5192,-17.7294 48.0094,-17.9245 z"
           style="fill:#fbfbfa;stroke-width:0"
           id="path477" /><path
           d="m 4994.7592,1928.5892 c -9.5325,0 -19.0461,2.3949 -24.3547,7.1983 -21.1732,19.1615 -21.7699,42.8752 -1.5226,60.6525 16.7165,14.6773 34.9132,14.7741 51.4149,0.2854 v 0.01 c 19.4204,-17.0513 18.9696,-43.0712 -1.0604,-60.9311 -5.39,-4.8061 -14.9446,-7.2101 -24.4772,-7.2119 z"
           style="fill:#fbfbfa;stroke-width:0"
           id="path474" /><path
           d="m 4995.0515,1902.739 c -1.2982,0.1437 -4.0587,4.788 -6.1923,10.4407 -3.701,9.8051 -3.428,10.4406 4.459,10.4406 4.6191,0 8.38,-1.1745 8.3539,-2.6101 -0.1131,-6.2118 -4.4436,-18.2712 -6.5594,-18.2712 -0.02,0 -0.041,0 -0.061,0 z"
           style="fill:#fbfbfa;stroke-width:0"
           id="path473" /><path
           d="m 4955.8854,1889.4706 c -4.5653,0.1762 -7.6133,8.4912 -5.0028,15.294 3.0616,7.9784 10.8145,4.0329 10.8145,-5.5058 0,-4.4663 -1.9586,-8.7734 -4.3503,-9.5706 -0.5001,-0.1668 -0.9891,-0.2358 -1.4614,-0.2176 z"
           style="fill:#fbfbfa;stroke-width:0"
           id="path472" /><path
           d="m 5030.9277,1888.8181 c -2.7587,0 -4.8464,3.5019 -4.8464,8.1228 0,12.5837 7.8267,17.6267 11.6981,7.5382 2.7466,-7.1578 -0.9737,-15.661 -6.8517,-15.661 z"
           style="fill:#fbfbfa;stroke-width:0"
           id="path471" /><path
           d="m 5128.5576,1885.3379 c -0.365,0 -1.6219,5.9947 -2.7937,13.3227 -2.6754,16.7313 -19.4464,40.2366 -34.3605,48.1522 -7.0793,3.7572 -19.4647,6.1034 -32.7698,6.2127 l -21.3844,0.1768 1.7402,10.7737 c 3.0115,18.6037 -17.5834,46.65 -34.2585,46.65 -6.0668,0 -6.4914,3.6712 -6.4914,56.2137 v 56.2206 l 56.5536,-2.1004 c 74.9269,-2.785 126.4048,-12.3951 170.531,-31.8318 5.0109,-2.2072 6.079,-0.9212 6.0292,7.2595 -0.1288,21.1922 -10.8537,59.8818 -23.9809,86.5094 -41.0272,83.2204 -128.6871,131.9682 -226.4049,125.8999 -66.6198,-4.1371 -112.0136,-23.6421 -155.1623,-66.6613 -39.1373,-39.0198 -61.352,-83.5832 -66.4437,-133.2817 -2.2071,-21.5424 -1.9683,-22.6679 4.2891,-20.0181 49.8714,21.1181 93.739,29.3656 171.0748,32.1513 l 56.5536,2.0324 v -56.1934 c 0,-54.0149 -0.2756,-56.2001 -7.0148,-56.2001 -3.8563,0 -12.8459,-5.3463 -19.9773,-11.8818 -11.6764,-10.7006 -12.9663,-13.6327 -12.9965,-29.4731 l -0.034,-17.5914 -12.3303,1.9576 c -17.2599,2.7446 -39.585,-4.0883 -53.6172,-16.4087 -10.0113,-8.7901 -18.3294,-24.7136 -24.7626,-47.4045 -2.6566,-9.3704 -61.1404,14.2568 -88.1,35.5907 l -14.9133,11.8002 22.0369,9.8561 c 12.1192,5.4214 43.5202,19.1982 69.7812,30.6151 26.261,11.417 47.7949,21.9101 47.8531,23.3216 0.058,1.4114 -8.8963,-1.4323 -19.9025,-6.3215 -11.0062,-4.8891 -43.3446,-19.1681 -71.8612,-31.7299 l -51.8499,-22.839 -6.6818,8.2859 c -55.0408,68.1706 -67.4997,146.8714 -37.5211,237.0699 5.8905,17.7229 17.9284,44.755 26.7474,60.0679 13.9874,24.2872 22.177,35.8312 52.3869,73.8256 l 6.1244,7.7014 198.9437,0.1291 198.9506,0.1292 14.621,-16.5311 c 34.8546,-39.4087 67.7715,-100.5645 79.916,-148.4669 8.5362,-33.6702 9.2969,-90.976 1.6381,-123.4664 -6.5023,-27.5843 -29.3037,-72.07 -44.4748,-86.7745 l -11.3991,-11.0456 -69.4481,30.9685 c -38.1972,17.0327 -70.1052,30.3367 -70.9028,29.5683 -2.1584,-2.0794 -3.5294,-1.4097 67.5789,-32.7154 36.3683,-16.0113 66.7806,-29.6191 67.5857,-30.2345 3.7288,-2.8505 -16.6559,-19.202 -37.5348,-30.1121 -17.5271,-9.1588 -54.7646,-23.1788 -61.5632,-23.1788 z m -360.2916,100.9265 c 11.3167,0 28.1205,6.4502 28.1205,10.7941 0,1.4934 -4.3068,0.4688 -9.5707,-2.2771 -5.2638,-2.7458 -13.1483,-5.0046 -17.5166,-5.0164 -10.2387,-0.028 -29.1315,7.883 -34.6119,14.4919 -3.7205,4.4866 6.1362,6.1706 76.5649,13.0848 75.0922,7.3721 97.9852,10.6854 73.8324,10.6854 -5.4476,0 -42.6914,-3.324 -82.7641,-7.3887 -79.5547,-8.0696 -78.8611,-8.1787 -78.9712,11.8749 -0.062,11.262 10.2069,32.8918 19.6783,41.4568 6.1782,5.5869 10.1579,5.3425 70.8416,-4.3367 35.3642,-5.6407 68.2178,-11.1552 73.0031,-12.2555 5.4517,-1.2537 7.401,-0.7907 5.2203,1.2371 -1.9141,1.7799 -30.887,7.5173 -64.3841,12.7517 -33.4972,5.2343 -63.2531,10.3706 -66.1243,11.4195 -2.8712,1.0489 -14.6169,2.2919 -26.1017,2.7597 -8.3443,0.3398 -13.5296,0.2716 -13.9005,-0.1087 0,0 0,-0.01 0,-0.01 0,0 -0.01,-0.01 -0.01,-0.01 0,0 0,-0.01 0,-0.01 0,0 -0.01,-0.01 -0.01,-0.01 0,0 0,-0.01 0,-0.01 0,0 0,-0.01 0,-0.01 0,0 0,-0.01 0,-0.01 0,0 0,-0.01 0,-0.01 0,0 0,-0.01 0,-0.01 0,0 0.01,-0.01 0.01,-0.01 0,0 0,-0.01 0,-0.01 0.08,-0.1312 0.6424,-0.2939 1.7266,-0.4826 17.732,-3.0862 18.0402,-3.8312 7.9256,-19.114 -7.291,-11.0164 -9.8057,-19.2801 -10.2231,-33.606 -0.3369,-11.5639 -2.3794,-20.1478 -5.2204,-21.9485 -3.4124,-2.1628 -2.6746,-2.9723 2.7393,-3.0112 4.0724,-0.029 9.5538,-2.644 12.1808,-5.8117 6.4045,-7.7225 24.7836,-15.124 37.562,-15.124 z m 454.4343,0.6321 c 1.892,0 3.7147,0.1174 5.4243,0.3467 7.692,1.0317 19.3093,5.9315 25.8094,10.8893 6.5001,4.9579 14.6578,9.0383 18.1352,9.0676 4.8175,0.041 5.2146,0.7574 1.6586,3.0112 -2.8592,1.8122 -4.8813,10.4392 -5.2204,22.2748 -0.3978,13.8875 -2.7321,22.2625 -8.2995,29.7926 -11.1334,15.058 -10.987,19.0017 0.7885,21.6971 2.6679,0.6106 4.0536,1.0795 4.0988,1.407 1e-4,0 1e-4,0.017 0,0.02 -5e-4,0 8e-4,0.017 0,0.02 0,0 -0.012,0.017 -0.014,0.02 -0.2812,0.5327 -4.6263,0.6646 -13.3839,0.4622 -10.8563,-0.251 -21.819,-1.5216 -24.3616,-2.8209 -2.5426,-1.2993 -32.029,-6.6089 -65.5261,-11.8001 -33.4972,-5.1912 -62.4699,-10.8903 -64.3841,-12.6702 -2.1804,-2.0276 -0.2309,-2.4904 5.2203,-1.2303 4.7853,1.1062 37.6019,6.6545 72.9284,12.3235 60.9065,9.7739 64.5765,9.9954 70.9639,4.3231 8.6561,-7.687 19.5193,-31.312 19.5491,-42.524 0.05,-18.8968 0.3788,-18.8569 -82.6146,-10.5222 -42.1335,4.2313 -79.5153,7.0821 -83.0699,6.3351 -6.0199,-1.2652 12.7167,-3.4918 115.3504,-13.7238 22.0124,-2.1945 40.0226,-5.2893 40.0226,-6.8789 0,-4.9323 -16.0752,-13.7132 -28.9158,-15.797 -7.7168,-1.2522 -16.2181,-0.011 -22.9885,3.3715 -5.9092,2.9479 -10.7398,4.1046 -10.7398,2.5694 0,-4.8944 16.3248,-9.9957 29.5683,-9.9649 z"
           style="fill:#fbfbfa;stroke-width:0"
           id="path470" /><path
           d="m 4933.7806,1788.449 c -38.6687,0.5036 -67.7896,37.7149 -67.7896,88.7661 0,34.5102 15.3955,58.7535 44.0397,69.3462 21.0407,7.7809 36.9425,4.2456 55.9691,-12.4527 20.2423,-17.7652 24.6722,-28.9149 25.0141,-62.9431 0.4824,-48.0079 -17.9813,-78.783 -49.3825,-82.3223 -2.6569,-0.2995 -5.2729,-0.4278 -7.8508,-0.3942 z m 23.8925,82.968 c 8.6696,0 16.2048,12.4148 16.2048,26.7066 0,22.7098 -18.2097,33.7161 -29.3848,17.7614 -10.9811,-15.6777 -2.4493,-44.468 13.18,-44.468 z"
           style="fill:#fbfbfa;stroke-width:0"
           id="path467" /><path
           d="m 4933.7806,1788.449 c 2.5779,-0.034 5.1939,0.095 7.8508,0.3942 31.4012,3.5393 49.8649,34.3144 49.3825,82.3223 -0.3419,34.0282 -4.7718,45.1779 -25.0141,62.9431 -19.0266,16.6983 -34.9284,20.2336 -55.9691,12.4527 -28.6442,-10.5927 -44.0397,-34.836 -44.0397,-69.3462 0,-51.0512 29.1209,-88.2625 67.7896,-88.7661 z m 61.2709,114.29 c 0.021,0 0.041,0 0.061,0 2.1158,0 6.4463,12.0594 6.5594,18.2712 0.026,1.4356 -3.7348,2.6101 -8.3539,2.6101 -7.887,0 -8.16,-0.6355 -4.459,-10.4406 2.1336,-5.6527 4.8941,-10.297 6.1923,-10.4407 z m -0.2923,25.8502 c 9.5326,0 19.0872,2.4058 24.4772,7.2119 20.03,17.8599 20.4808,43.8798 1.0604,60.9311 v -0.01 c -16.5017,14.4887 -34.6984,14.3919 -51.4149,-0.2854 -20.2473,-17.7773 -19.6506,-41.491 1.5226,-60.6525 5.3086,-4.8034 14.8222,-7.2001 24.3547,-7.1983 z"
           style="fill:#fbfbfa;stroke-width:0"
           id="path466" /><path
           d="m 5050.3205,1788.1023 c -28.2047,1.1527 -48.6622,26.213 -51.3265,67.7284 -2.746,42.789 0.836,56.3148 19.5694,73.9004 23.6526,22.2036 32.3117,24.9517 57.0023,18.0945 7.1185,-1.977 17.9135,-7.7767 23.9877,-12.8877 39.5068,-33.2428 28.2284,-116.9626 -18.8217,-139.7392 -10.7511,-5.2045 -21.0097,-7.4806 -30.4112,-7.0964 z m -18.4819,83.3147 c 8.6377,0 18.6042,13.5662 18.6042,25.3268 0,19.7759 -13.8978,32.3188 -26.7542,24.144 -6.3768,-4.0547 -11.9646,-21.71 -9.4686,-29.9217 2.967,-9.7616 11.7897,-19.5491 17.6186,-19.5491 z"
           style="fill:#fbfbfa;stroke-width:0"
           id="path465" /><path
           d="m 5050.3205,1788.1023 c 9.4015,-0.3842 19.6601,1.8919 30.4112,7.0964 47.0501,22.7766 58.3285,106.4964 18.8217,139.7392 -6.0742,5.111 -16.8692,10.9107 -23.9877,12.8877 -24.6906,6.8572 -33.3497,4.1091 -57.0023,-18.0945 -18.7334,-17.5856 -22.3154,-31.1114 -19.5694,-73.9004 2.6643,-41.5154 23.1218,-66.5757 51.3265,-67.7284 z m 78.2371,97.2356 c 6.7986,0 44.0361,14.02 61.5632,23.1788 20.8789,10.9101 41.2636,27.2616 37.5348,30.1121 -0.8051,0.6154 -31.2174,14.2232 -67.5857,30.2345 -71.1083,31.3057 -69.7373,30.636 -67.5789,32.7154 0.7976,0.7684 32.7056,-12.5356 70.9028,-29.5683 l 69.4481,-30.9685 11.3991,11.0456 c 15.1711,14.7045 37.9725,59.1902 44.4748,86.7745 7.6588,32.4904 6.8981,89.7962 -1.6381,123.4664 -12.1445,47.9024 -45.0614,109.0582 -79.916,148.4669 l -14.621,16.5311 -198.9506,-0.1292 -198.9437,-0.1291 -6.1244,-7.7014 c -30.2099,-37.9944 -38.3995,-49.5384 -52.3869,-73.8256 -8.819,-15.3129 -20.8569,-42.345 -26.7474,-60.0679 -29.9786,-90.1985 -17.5197,-168.8993 37.5211,-237.0699 l 6.6818,-8.2859 51.8499,22.839 c 28.5166,12.5618 60.855,26.8408 71.8612,31.7299 11.0062,4.8892 19.9605,7.7329 19.9025,6.3215 -0.058,-1.4115 -21.5921,-11.9046 -47.8531,-23.3216 -26.261,-11.4169 -57.662,-25.1937 -69.7812,-30.6151 l -22.0369,-9.8561 14.9133,-11.8002 c 26.9596,-21.3339 85.4434,-44.9611 88.1,-35.5907 6.4332,22.6909 14.7513,38.6144 24.7626,47.4045 14.0322,12.3204 36.3573,19.1533 53.6172,16.4087 l 12.3303,-1.9576 0.034,17.5914 c 0.03,15.8404 1.3201,18.7725 12.9965,29.4731 7.1314,6.5355 16.121,11.8818 19.9773,11.8818 6.7392,0 7.0148,2.1852 7.0148,56.2001 v 56.1934 l -56.5536,-2.0324 c -77.3358,-2.7857 -121.2034,-11.0332 -171.0748,-32.1513 -6.2574,-2.6498 -6.4962,-1.5243 -4.2891,20.0181 5.0917,49.6985 27.3064,94.2619 66.4437,133.2817 43.1487,43.0192 88.5425,62.5242 155.1623,66.6613 97.7178,6.0683 185.3777,-42.6795 226.4049,-125.8999 13.1272,-26.6276 23.8521,-65.3172 23.9809,-86.5094 0.05,-8.1807 -1.0183,-9.4667 -6.0292,-7.2595 -44.1262,19.4367 -95.6041,29.0468 -170.531,31.8318 l -56.5536,2.1004 v -56.2206 c 0,-52.5425 0.4246,-56.2137 6.4914,-56.2137 16.6751,0 37.27,-28.0463 34.2585,-46.65 l -1.7402,-10.7737 21.3844,-0.1768 c 13.3051,-0.1093 25.6905,-2.4555 32.7698,-6.2127 14.9141,-7.9156 31.6851,-31.4209 34.3605,-48.1522 1.1718,-7.328 2.4287,-13.3227 2.7937,-13.3227 z"
           style="fill:#fbfbfa;stroke-width:0"
           id="path464" /><path
           d="m 4991.5509,1775.2894 c -35.4028,0.2811 -70.7861,3.1163 -91.8317,8.3811 -120.6052,30.1705 -204.6229,110.0543 -227.0506,215.8758 -6.4693,30.5247 -6.3722,86.8746 0.2107,121.5768 13.3161,70.1964 41.4783,126.2125 93.6806,186.3483 20.608,23.7399 26.165,23.7221 6.3554,-0.02 -66.391,-79.5711 -96.0306,-176.0664 -79.4402,-258.6174 6.8955,-34.3109 23.91,-71.9393 42.1026,-93.1163 11.0475,-12.8599 12.1469,-15.6425 8.1092,-20.5075 -4.1265,-4.9722 -3.7578,-5.3431 3.1607,-3.1472 6.0234,1.9117 11.0851,-0.2969 21.8874,-9.5434 16.6418,-14.2446 50.8314,-31.6207 73.2546,-37.2289 l 16.0281,-4.0036 4.3231,-24.1849 c 8.227,-46.0356 35.3005,-72.5253 74.2538,-72.636 18.5189,-0.053 21.2775,0.9996 34.0818,12.9964 7.6611,7.1779 15.9697,19.0405 18.4683,26.36 l 4.5406,13.3091 9.4075,-19.2228 c 11.9417,-24.4081 25.7623,-33.4971 50.9322,-33.4971 39.3367,0 67.011,29.1092 72.5205,76.2862 l 2.2024,18.8626 22.6214,7.4566 c 29.2301,9.6385 55.774,23.3995 71.1067,36.8618 9.3223,8.185 14.0721,10.1218 20.1133,8.2044 6.989,-2.2182 7.365,-1.849 3.2355,3.1268 -4.0335,4.86 -3.0086,7.5663 7.4634,19.8005 51.4007,60.0501 60.8057,165.0826 22.805,254.6818 -13.2312,31.1969 -29.8091,58.9742 -53.4472,89.5681 -23.3067,30.165 -20.461,31.2459 5.1727,1.9645 61.9413,-70.7553 94.0816,-154.5544 94.0816,-245.3015 0,-74.9513 -27.9587,-139.6897 -83.0495,-192.3231 -42.2383,-40.3543 -92.6185,-66.7514 -155.3458,-81.3911 -21.1233,-4.9298 -56.5513,-7.2007 -91.9541,-6.9196 z"
           style="fill:#fbfbfa;stroke-width:0"
           id="path463" /><path
           d="m 4993.964,1760.1722 c -21.8808,0.044 -44.2144,1.7204 -66.804,5.1251 -79.3702,11.9629 -138.6484,40.9903 -191.8338,93.9389 -30.0195,29.886 -37.2844,39.4728 -51.4149,67.8644 -25.5338,51.3033 -31.5039,80.804 -29.2148,144.3273 2.0712,57.4759 10.3214,95.7635 29.9897,139.141 13.1671,29.0396 43.2372,75.024 64.2142,98.194 14.8039,16.3516 15.9199,18.7688 12.3032,26.7066 -5.7124,12.5373 -1.055,31.9869 9.6793,40.4305 8.4461,6.6437 13.7943,7.1099 81.4047,7.1099 h 72.371 l 4.024,20.0113 c 5.2835,26.2863 16.7726,43.3735 35.3392,52.5637 19.3883,9.597 39.2086,9.4769 58.6812,-0.3603 17.666,-8.9246 30.1122,-25.4277 33.0961,-43.8903 4.8795,-30.1912 -0.2597,-28.3244 77.9312,-28.3244 43.5341,0 72.6815,-1.4478 77.9924,-3.8676 14.0398,-6.397 20.8004,-29.7714 12.8877,-44.5564 -2.6434,-4.9392 0.2595,-10.3834 14.2336,-26.7406 85.9729,-100.6347 117.0713,-232.9972 80.6433,-343.2168 -41.378,-125.1968 -172.3583,-204.7675 -325.5233,-204.4563 z m -2.4131,15.1172 c 35.4028,-0.2811 70.8308,1.9898 91.9541,6.9196 62.7273,14.6397 113.1075,41.0368 155.3458,81.3911 55.0908,52.6334 83.0495,117.3718 83.0495,192.3231 0,90.7471 -32.1403,174.5462 -94.0816,245.3015 -25.6337,29.2814 -28.4794,28.2005 -5.1727,-1.9645 23.6381,-30.5939 40.216,-58.3712 53.4472,-89.5681 38.0007,-89.5992 28.5957,-194.6317 -22.805,-254.6818 -10.472,-12.2342 -11.4969,-14.9405 -7.4634,-19.8005 4.1295,-4.9758 3.7535,-5.345 -3.2355,-3.1268 -6.0412,1.9174 -10.791,-0.019 -20.1133,-8.2044 -15.3327,-13.4623 -41.8766,-27.2233 -71.1067,-36.8618 l -22.6214,-7.4566 -2.2024,-18.8626 c -5.5095,-47.177 -33.1838,-76.2862 -72.5205,-76.2862 -25.1699,0 -38.9905,9.089 -50.9322,33.4971 l -9.4075,19.2228 -4.5406,-13.3091 c -2.4986,-7.3195 -10.8072,-19.1821 -18.4683,-26.36 -12.8043,-11.9968 -15.5629,-13.0494 -34.0818,-12.9964 -38.9533,0.1107 -66.0268,26.6004 -74.2538,72.636 l -4.3231,24.1849 -16.0281,4.0036 c -22.4232,5.6082 -56.6128,22.9843 -73.2546,37.2289 -10.8023,9.2465 -15.864,11.4551 -21.8874,9.5434 -6.9185,-2.1959 -7.2872,-1.825 -3.1607,3.1472 4.0377,4.865 2.9383,7.6476 -8.1092,20.5075 -18.1926,21.177 -35.2071,58.8054 -42.1026,93.1163 -16.5904,82.551 13.0492,179.0463 79.4402,258.6174 19.8096,23.7425 14.2526,23.7603 -6.3554,0.02 -52.2023,-60.1358 -80.3645,-116.1519 -93.6806,-186.3483 -6.5829,-34.7022 -6.68,-91.0521 -0.2107,-121.5768 22.4277,-105.8215 106.4454,-185.7053 227.0506,-215.8758 21.0456,-5.2648 56.4289,-8.1 91.8317,-8.3811 z m 3.6638,555.5172 h 211.6751 l 5.9612,9.1016 c 5.3492,8.164 5.4369,10.0463 0.8225,18.2712 l -5.1456,9.1695 -80.9084,0.9313 -80.9084,0.938 -13.8869,-11.1612 c -11.3024,-9.0829 -17.7627,-11.4426 -34.7343,-12.6702 -18.1398,-1.3121 -22.6559,-0.3121 -34.7138,7.6674 -7.6234,5.0449 -13.8598,10.7152 -13.8598,12.6022 0,4.0416 -163.0781,4.7485 -169.389,0.7341 -7.8059,-4.9654 -9.3868,-21.4432 -2.7597,-28.7662 6.0011,-6.631 12.0437,-6.8177 217.8471,-6.8177 z"
           style="fill:#fbfbfa;stroke-width:0"
           id="path462" /><path
           style="fill:#dfc745;stroke-width:0;stroke-dasharray:none"
           d="m 4976.0012,2461.2443 c -25.7341,-6.5342 -47.2089,-31.9261 -47.4792,-56.1396 -0.2412,-21.6086 -2.0336,-22.0955 -81.3464,-22.0955 h -71.9892 l -8.9524,-8.9524 c -8.0179,-8.0179 -8.7825,-11.002 -7.3243,-28.5854 l 1.6281,-19.6329 -22.9695,-28.3974 c -44.7543,-55.3303 -71.8102,-116.0988 -82.1072,-184.4158 -6.611,-43.862 -6.5927,-69.4063 0.077,-107.6545 17.631,-101.1033 89.4999,-183.1955 195.218,-222.9877 61.7024,-23.2247 157.4663,-29.6509 227.9161,-15.2941 72.3888,14.7519 126.9502,43.0013 173.9288,90.0525 34.9319,34.9857 53.9103,65.3262 69.8831,111.721 11.0991,32.2384 11.3789,34.4928 11.2283,90.4858 -0.1361,50.6179 -1.2295,61.4272 -9.2252,91.2021 -15.2371,56.7402 -42.4564,108.3902 -81.1694,154.0229 -18.6518,21.9857 -19.3776,23.5564 -15.3634,33.2476 3.1777,7.6717 3.2543,12.9224 0.3117,21.3636 -8.4011,24.0994 -7.3692,23.8247 -89.4853,23.8247 h -74.1513 l -3.2654,13.0508 c -1.7959,7.178 -4.2281,17.3289 -5.4047,22.5577 -2.3944,10.64 -19.986,32.1695 -31.228,38.2185 -12.9459,6.9659 -31.9031,8.6807 -48.7304,4.4081 z m 239.0259,-161.633 c 39.3013,-49.702 63.2049,-98.3093 74.4835,-151.4598 10.2111,-48.1203 -0.2404,-139.2635 -15.5117,-135.27 -4.8365,1.2648 -5.8239,4.6272 -4.8723,16.5918 1.1878,14.9344 -8.3164,40.2724 -17.1549,45.7349 -5.2292,3.2319 2.9152,8.3772 13.3726,8.4484 4.3068,0.029 7.8306,1.6379 7.8306,3.5747 0,3.1425 -27.0293,1.1936 -31.0019,-2.2354 -3.8564,-3.3288 -10.7668,7.7992 -10.8123,17.4113 -0.092,19.4743 -10.4026,55.5565 -23.4971,82.2292 -19.1219,38.9502 -62.1391,81.3404 -101.7395,100.2566 -103.6735,49.5226 -228.414,24.5838 -298.5754,-59.6929 -26.513,-31.8469 -49.447,-87.928 -49.447,-120.9139 0,-13.3865 -6.2401,-21.7345 -14.3498,-19.1974 -12.0839,3.7805 -27.4129,5.1234 -27.4129,2.4016 0,-1.6532 5.5037,-4.0384 12.2305,-5.3003 l 12.2305,-2.2945 -9.4229,-12.354 c -7.0686,-9.2674 -9.7901,-17.4317 -10.8929,-32.6772 -1.9097,-26.401 -8.5653,-29.4263 -16.5005,-7.5005 -3.7742,10.4285 -6.5122,31.4052 -7.5817,58.0861 -1.3852,34.5551 -0.403,47.0945 5.6909,72.6566 12.0208,50.4235 39.0664,102.6071 76.4291,147.4676 l 18.1159,21.7514 h 198.2372 198.2373 z m -223.7504,-230.8926 v -53.2738 l -14.2001,-6.265 c -17.2643,-7.617 -27.5321,-23.3262 -27.5496,-42.1495 l -0.013,-14.0128 -14.1456,1.349 c -31.2167,2.977 -66.9376,-22.9495 -71.5749,-51.9496 l -2.2912,-14.3284 -13.676,2.1869 c -28.0066,4.4784 -91.1981,40.2232 -83.9399,47.4813 1.6975,1.6975 32.0209,15.8 67.3853,31.3388 59.7988,26.2751 76.016,34.5691 67.5929,34.5691 -1.8252,0 -34.635,-13.9388 -72.9107,-30.9753 l -69.5923,-30.9753 -9.3829,9.2239 c -9.3014,9.1438 -34.1199,47.9807 -34.1199,53.3921 0,4.9473 12.9028,3.0146 17.5915,-2.6349 11.5417,-13.9069 43.4186,-20.276 59.2022,-11.8289 11.8655,6.3502 7.1872,10.1534 -5.8096,4.723 -7.9436,-3.3191 -16.5371,-4.3625 -23.4405,-2.8463 -11.5413,2.5349 -26.6623,11.1052 -26.6623,15.1117 0,1.3143 29.3644,5.1895 65.2542,8.6116 90.6493,8.6436 99.0759,9.7514 95.8951,12.6064 -1.5395,1.3818 -30.2058,-0.2766 -63.703,-3.6853 -115.9749,-11.8019 -103.3159,-11.6216 -105.8543,-1.5078 -3.2307,12.8719 3.5507,34.2584 14.6202,46.1084 l 9.5941,10.2704 60.8313,-9.8536 c 33.4572,-5.4195 65.9211,-10.7533 72.142,-11.8529 6.2209,-1.0995 11.3107,-0.6182 11.3107,1.0697 0,1.6879 -27.7983,7.4437 -61.7739,12.7906 -33.9757,5.3469 -64.047,10.9315 -66.8251,12.4102 -10.5006,5.5894 50.3068,24.6421 99.0171,31.0249 41.5414,5.4434 48.8594,5.9814 89.6158,6.5881 l 37.4124,0.557 z m 144.6297,44.7008 c 32.9584,-5.3959 70.4277,-16.0555 84.7968,-24.1238 7.8203,-4.3911 7.9466,-4.877 1.7402,-6.6943 -3.6808,-1.0777 -33.316,-6.1649 -65.8561,-11.3049 -32.54,-5.1399 -59.8163,-9.9309 -60.6139,-10.6467 -5.1003,-4.5775 9.537,-3.165 72.2184,6.969 l 70.5351,11.4038 10.3239,-10.5596 c 11.6736,-11.9401 18.4507,-32.3566 15.131,-45.5834 -2.1675,-8.6361 -2.8356,-8.8271 -23.5906,-6.7459 -114.135,11.4453 -143.6554,13.9104 -146.6479,12.2458 -4.6291,-2.5751 14.7319,-5.1795 94.8361,-12.7571 36.8469,-3.4856 66.9943,-7.6901 66.9943,-9.3433 0,-1.6531 -7.4289,-6.2919 -16.5086,-10.3083 -15.5083,-6.8601 -17.4063,-6.9798 -31.322,-1.9757 -14.9559,5.3781 -20.5272,2.5318 -8.0817,-4.1288 15.7835,-8.4471 47.6605,-2.078 59.2021,11.8289 4.6887,5.6495 17.5916,7.5822 17.5916,2.6349 0,-5.3685 -24.7842,-44.2149 -34.1199,-53.4792 l -9.3829,-9.3111 -69.4727,31.0625 c -38.2099,17.0843 -71.0198,31.0624 -72.9107,31.0624 -8.6123,0 7.5199,-8.3103 67.5586,-34.8022 35.4112,-15.6251 65.7346,-29.7104 67.3853,-31.3007 7.3608,-7.0917 -56.5192,-42.8879 -84.5283,-47.3667 -12.9218,-2.0663 -14.1791,-1.5984 -14.1791,5.2765 0,4.1492 -3.0635,13.5489 -6.8078,20.8884 -12.9216,25.3284 -39.5564,40.5333 -66.5017,37.9637 l -13.6961,-1.3061 v 13.602 c 0,18.6376 -10.9762,35.1112 -27.9086,41.8862 l -13.854,5.5433 v 54.5165 54.5165 l 53.0734,-2.2509 c 29.1903,-1.238 67.2585,-4.5733 84.5958,-7.4117 z m -134.3278,-149.6101 c 9.2451,-11.1397 -4.3337,-28.2517 -16.3923,-20.6578 -12.0497,7.5884 -7.7568,25.7109 6.0904,25.7109 3.3595,0 7.9954,-2.2739 10.3019,-5.0531 z m -40.8738,-26.2095 c 6.2868,-5.7097 14.0887,-12.6745 17.3375,-15.4774 15.3677,-13.2587 17.4561,-74.5188 3.4674,-101.7106 -30.9223,-60.1079 -108.6934,-29.1155 -114.6315,45.6816 -2.0441,25.7482 3.2762,46.7102 15.5605,61.3094 12.0646,14.338 26.2,20.2733 48.6841,20.442 15.3735,0.1154 19.9005,-1.4524 29.582,-10.245 z m -15.8717,-20.3447 c -7.261,-8.0233 -7.4401,-27.9704 -0.3421,-38.1042 15.2946,-21.836 40.6699,8.8395 27.8383,33.6531 -6.4755,12.5222 -18.4393,14.4589 -27.4962,4.4511 z m 18.0581,-16.0451 c 1.6517,-8.5199 -5.708,-15.6904 -9.6153,-9.3682 -3.8103,6.1652 -0.503,18.5102 4.5117,16.8407 2.149,-0.7155 4.4456,-4.0781 5.1036,-7.4725 z m 133.6248,35.5184 c 44.7478,-34.1308 30.1585,-123.3275 -23.5252,-143.8295 -21.5995,-8.2489 -38.26,-4.439 -54.2937,12.416 -15.7376,16.5437 -21.9415,39.9078 -19.7276,74.2953 1.911,29.684 6.424,39.0735 26.9963,56.1668 14.8594,12.3466 16.4973,12.8581 36.9946,11.5529 16.4926,-1.0502 24.2439,-3.4991 33.5556,-10.6015 z m -76.6916,-17.4787 c -12.0876,-14.5647 -6.6416,-42.731 9.0224,-46.6624 17.6601,-4.4324 28.773,25.3127 16.176,43.2974 -5.9281,8.4636 -19.4665,10.2716 -25.1984,3.365 z m 16.6952,-21.9373 c 0,-9.3613 -6.0223,-11.5091 -9.1821,-3.2748 -2.6746,6.9699 1.2724,16.6585 5.6773,13.9361 1.9277,-1.1914 3.5048,-5.9889 3.5048,-10.6613 z m -36.9357,17.7308 c -2.9677,-9.8754 -8.3072,-15.0595 -8.3072,-8.0654 0,3.0975 -0.8218,7.7734 -1.8263,10.3909 -1.174,3.0595 0.6896,4.7593 5.2182,4.7593 5.4627,0 6.5664,-1.5908 4.9153,-7.0848 z"
           id="path411" /><path
           id="path410"
           style="fill:#00a0d7;stroke-width:0;stroke-dasharray:none"
           d="m 4991.8976,1760.1178 c -166.9739,0.3418 -295.9871,88.9879 -331.2059,227.574 -8.7593,34.4678 -9.4673,99.6228 -1.5362,141.4317 12.7398,67.1592 47.444,135.5986 92.8037,183.0109 11.7911,12.3247 13.2248,15.4231 9.9581,21.527 -7.006,13.0907 -4.5437,28.2738 6.3555,39.173 l 10.1756,10.1755 h 71.4873 c 68.7389,0 75.5406,-18.9507 78.6705,-1.9275 7.1153,-32.0219 34.7832,-36.8101 67.1183,-36.8103 29.0386,0 54.9839,18.4186 64.9551,46.1061 0.1057,-0.2213 0.2182,-0.437 0.3263,-0.6389 3.381,-6.3174 7.9673,-6.7294 74.5393,-6.7294 39.0156,0 73.4732,-0.9724 76.5717,-2.1615 12.3031,-4.7211 21.2837,-39.7018 12.4595,-48.526 -2.1527,-2.1527 2.9474,-10.7357 14.2268,-23.9538 54.4945,-63.8607 83.697,-130.2859 93.6058,-212.9122 15.4075,-128.4794 -47.1682,-240.9153 -165.6845,-297.7019 -54.0296,-25.8881 -109.2291,-37.771 -174.8269,-37.6367 z m 63.1062,28.0389 c 30.6819,0.5983 62.8988,29.3429 67.3206,77.3126 3.3003,35.8031 -9.1476,64.7315 -33.1437,77.0068 -13.0198,6.6603 -35.5603,9.2927 -45.3177,5.2951 -13.5519,-5.5522 -33.0088,-24.1179 -39.4448,-37.6435 -7.7288,-16.2425 -8.1847,-59.9972 -0.8428,-80.8065 10.1634,-28.8064 30.4355,-41.5739 51.4284,-41.1645 z m -120.9921,0.401 c 23.133,-0.028 45.0743,15.7388 53.4268,46.3169 4.8553,17.7755 4.8808,51.7871 0.054,69.1695 -4.1623,14.9906 -23.1212,34.9029 -40.478,42.5104 -10.9347,4.7927 -16.5414,5.5495 -23.6003,3.1947 -1.9141,-0.6385 -7.7608,-2.1038 -12.9896,-3.2559 -14.3194,-3.1553 -32.8137,-21.2846 -39.4584,-38.6835 -8.7187,-22.8297 -5.5061,-57.6669 7.5246,-81.6085 13.7689,-25.2981 35.1089,-37.6187 55.5205,-37.6436 z m 22.1252,83.2127 c -13.4546,0.9411 -23.936,26.5648 -11.6438,44.1146 9.1195,13.0198 22.7666,9.4818 29.2557,-7.5858 4.1798,-10.9936 2.1179,-21.4983 -6.0429,-30.7918 -3.7979,-4.3251 -7.8017,-6.0005 -11.569,-5.737 z m 75.4434,0.2515 c -3.2712,0.2062 -6.6664,1.8857 -9.9105,5.4855 -8.9468,9.9278 -10.6558,23.3676 -4.4862,35.2984 6.8003,13.1503 19.7828,14.5851 27.8418,3.0792 12.6018,-17.9918 0.73,-44.7566 -13.4451,-43.8631 z m 105.2088,16.3136 c 5.3427,-0.1346 13.551,2.7987 27.7262,8.1024 20.8601,7.8047 61.8254,34.0774 61.3798,39.3632 -0.1613,1.9141 -30.1865,16.7922 -66.7225,33.0622 -36.5361,16.2701 -67.7204,30.9469 -69.3054,32.6203 -5.0542,5.3359 9.8732,-0.6263 77.4146,-30.9346 l 65.8728,-29.5615 13.1188,14.4647 c 15.8011,17.4175 35.2893,56.2052 42.5104,84.6129 7.5703,29.7812 6.7719,84.0775 -1.7673,120.2105 -9.5803,40.5381 -39.1397,99.0857 -68.5645,135.7967 l -23.6614,29.5139 -198.7739,0.8973 -198.7738,0.8972 -11.8137,-13.078 c -35.8095,-39.6397 -70.7232,-103.5684 -82.9952,-151.9743 -8.5362,-33.6702 -9.2901,-90.976 -1.6313,-123.4664 6.5005,-27.5764 29.3376,-72.1505 44.3116,-86.4822 l 11.2496,-10.767 69.5433,30.7919 c 38.2512,16.9354 70.2303,30.1184 71.0591,29.2896 2.4173,-2.4172 1.7149,-2.7649 -67.5177,-33.0078 -36.3684,-15.8868 -66.9073,-29.5479 -67.8644,-30.3568 -0.957,-0.809 3.7413,-6.1887 10.4407,-11.9564 16.0157,-13.7884 58.6499,-34.2022 76.4018,-36.5832 12.7134,-1.7052 14.084,-1.1534 14.084,5.669 0,4.1565 3.0597,13.5622 6.8041,20.9017 12.9215,25.3284 39.5595,40.5326 66.5049,37.963 l 13.6966,-1.3051 v 13.316 c 0,19.9653 8.5886,33.4249 26.3464,41.28 l 15.4163,6.8177 v 53.7804 53.7803 h -32.6951 c -39.4738,0 -95.4478,-5.4177 -130.6579,-12.643 -32.554,-6.6802 -72.4,-22.2331 -65.8524,-25.7074 2.5998,-1.3796 32.9208,-6.8522 67.375,-12.1604 34.4542,-5.3083 63.2944,-10.2138 64.0919,-10.8961 5.4327,-4.647 -10.0487,-3.0597 -71.2155,7.2867 -62.8346,10.6286 -70.2149,11.2516 -77.5641,6.5594 -9.3057,-5.9413 -21.296,-30.0702 -21.33,-42.925 -0.05,-18.6375 -0.7161,-18.5622 88.1068,-9.6522 45.2611,4.5403 82.295,7.2134 82.295,5.9477 0,-2.5742 -10.0019,-3.8343 -98.3163,-12.4051 -33.9757,-3.2973 -61.774,-7.2482 -61.774,-8.7822 0,-4.8083 16.1413,-13.6277 28.6711,-15.661 7.8096,-1.2674 15.9854,0.1071 23.376,3.9289 8.4807,4.3856 10.984,4.6989 9.8493,1.2371 -2.146,-6.5469 -23.7072,-11.2659 -38.6496,-8.4627 -6.9315,1.3004 -17.1813,6.2141 -22.7778,10.9233 -5.5965,4.7091 -12.6895,8.5646 -15.7629,8.5646 -3.0734,0 -5.5874,1.5662 -5.5874,3.4803 0,1.9141 1.9643,3.4802 4.3707,3.4802 3.0298,0 4.0039,4.6691 3.1675,15.1852 -1.2022,15.1165 8.2446,40.4165 17.1428,45.9158 5.2292,3.2319 -2.9129,8.3781 -13.3703,8.4491 -4.3068,0.029 -7.8305,1.58 -7.8305,3.4462 0,3.0557 14.648,1.9817 27.4136,-2.012 7.7053,-2.4106 14.3407,5.5761 14.3967,17.3196 0.193,40.8206 25.3395,96.0144 60.9923,133.8798 28.8737,30.6657 57.4658,48.9407 97.3103,62.1955 24.636,8.1954 33.4519,9.2879 76.5649,9.4822 41.7326,0.1882 52.4682,-0.9546 74.8249,-7.9325 41.0119,-12.8005 65.1178,-27.3764 95.8625,-57.9606 38.0425,-37.8441 60.3083,-81.4089 66.1106,-129.3665 2.8504,-23.5598 6.4839,-29.5028 16.7826,-27.4408 4.0878,0.8184 11.7431,2.4006 17.0069,3.5143 5.5042,1.1645 9.5706,0.5171 9.5706,-1.5226 0,-1.9506 -4.4395,-3.5482 -9.8629,-3.5482 -14.4086,0 -15.1236,-2.6905 -4.8533,-18.21 6.913,-10.4462 9.2727,-18.4659 9.3667,-31.8115 0.081,-11.532 1.9759,-19.3446 5.3495,-22.0844 4.4848,-3.6422 4.1724,-4.2553 -2.1888,-4.3503 -4.0724,-0.061 -9.5536,-2.6984 -12.1807,-5.8661 -6.7741,-8.1683 -25.0283,-15.124 -39.6963,-15.124 -13.2349,0 -25.9794,5.084 -25.9794,10.3591 0,1.7332 4.3068,0.9038 9.5706,-1.8421 5.2639,-2.7458 13.5104,-5.0044 18.3256,-5.0164 9.533,-0.023 31.9472,10.7191 33.769,16.1844 0.8915,2.6746 -136.5639,18.8429 -158.4521,18.6382 -2.5056,-0.023 -3.7733,1.2186 -2.8209,2.7597 0.9524,1.541 38.7882,-0.9152 84.076,-5.4582 45.2878,-4.5429 83.3588,-7.2365 84.6061,-5.9884 1.2473,1.2481 2.1221,8.9912 1.9441,17.2108 -0.34,15.701 -11.4634,37.8611 -21.7379,43.3056 -4.903,2.5981 -58.9525,-4.9074 -135.416,-18.8081 -6.2209,-1.131 -11.3108,-0.703 -11.3108,0.9516 0,1.6546 28.5814,7.4062 63.5141,12.7789 34.9328,5.3726 64.9442,11.078 66.6953,12.6838 1.8089,1.6588 -4.2033,6.1106 -13.9209,10.3048 -35.9779,15.5278 -115.4054,27.665 -181.0465,27.665 h -32.6882 v -55.6836 c 0,-53.4987 0.2716,-55.6835 7.008,-55.6835 3.8564,0 12.6721,-5.1887 19.5899,-11.5283 10.4249,-9.5537 12.8603,-14.4749 14.2335,-28.7662 l 1.6586,-17.2448 13.7781,1.3119 c 17.5358,1.6724 40.6898,-7.1191 53.2366,-20.2152 5.3701,-5.6051 12.5851,-18.4915 16.0348,-28.6439 4.0043,-11.7842 6.1409,-17.0309 13.0101,-17.204 z m -104.5019,1.2507 c 4.0398,-0.017 6.9606,6.5735 5.1388,13.5402 -1.7742,6.7845 -4.984,8.2981 -9.0269,4.2552 -3.6753,-3.6753 -2.6976,-14.4363 1.5498,-17.0613 0.8016,-0.4954 1.5902,-0.731 2.3383,-0.7341 z m -75.8648,0.061 c 0.4381,-0.028 0.8897,0.029 1.3527,0.1835 2.1568,0.719 3.922,4.9616 3.922,9.4279 0,9.4666 -6.8965,13.2066 -9.9037,5.3699 -2.4731,-6.4451 0.3942,-14.7133 4.629,-14.9813 z m 37.4736,13.8325 c 0.9655,0.019 1.9928,2.3356 3.956,7.3139 2.1249,5.3885 3.8677,10.4783 3.8677,11.3107 0,0.8325 -3.1322,1.5158 -6.9605,1.5158 -7.3435,0 -8.3186,-4.2022 -3.6229,-15.661 1.2009,-2.9305 1.9597,-4.495 2.7597,-4.4794 z m -3.0384,37.8067 c 10.0738,-0.5251 18.5199,13.1203 10.7194,22.5195 -2.3065,2.7792 -6.9385,5.0572 -10.298,5.0572 -13.8472,0 -18.1401,-18.1259 -6.0904,-25.7143 1.8842,-1.1865 3.8035,-1.7652 5.669,-1.8624 z"
           sodipodi:nodetypes="sssssscscccssssssssssssssssssssssssssssssssssssssssccssccccssssccsssssssscsscccsssssssssssssssssssssssssssssssssssssssssssssssssssssssssscssssccssssssssssssssssssssssss" /><path
           id="path409"
           style="fill:#de4828;stroke-width:0;stroke-dasharray:none"
           d="m 4991.8976,1760.1178 c -166.9739,0.3418 -295.9871,88.9879 -331.2059,227.574 -8.7593,34.4678 -9.4673,99.6228 -1.5362,141.4317 12.7398,67.1592 47.444,135.5986 92.8037,183.0109 11.7911,12.3247 13.2248,15.4231 9.9581,21.527 -7.006,13.0907 -4.5437,28.2738 6.3555,39.173 l 10.1756,10.1755 h 71.4873 c 46.2203,0 70.8495,-6.8091 78.6705,-1.9275 12.4151,-25.6328 32.8256,-35.6961 62.5233,-35.6956 30.5376,0 58.1128,17.3579 70.0259,44.0738 3.3795,-6.0463 8.828,-6.4507 74.3898,-6.4507 39.0156,0 73.4732,-0.9724 76.5717,-2.1615 12.3031,-4.7211 21.2837,-39.7018 12.4595,-48.526 -2.1527,-2.1527 2.9474,-10.7357 14.2268,-23.9538 54.4945,-63.8607 83.697,-130.2859 93.6058,-212.9122 15.4075,-128.4794 -47.1682,-240.9153 -165.6845,-297.7019 -54.0296,-25.8881 -109.2291,-37.771 -174.8269,-37.6367 z m -0.3467,15.1716 c 35.4028,-0.2811 70.8308,1.9898 91.9541,6.9196 62.7273,14.6397 113.1075,41.0368 155.3458,81.3911 55.0908,52.6334 83.0495,117.3718 83.0495,192.3231 0,90.7471 -32.1403,174.5462 -94.0816,245.3015 -25.6337,29.2814 -28.4794,28.2005 -5.1727,-1.9645 23.6381,-30.5939 40.216,-58.3712 53.4472,-89.5681 38.0007,-89.5992 28.5957,-194.6317 -22.805,-254.6818 -10.472,-12.2342 -11.4969,-14.9405 -7.4634,-19.8005 4.1295,-4.9758 3.7535,-5.345 -3.2355,-3.1268 -6.0412,1.9174 -10.791,-0.019 -20.1133,-8.2044 -15.3327,-13.4623 -41.8766,-27.2233 -71.1067,-36.8618 l -22.6214,-7.4566 -2.2024,-18.8626 c -5.5095,-47.177 -33.1838,-76.2862 -72.5205,-76.2862 -25.1699,0 -38.9905,9.089 -50.9322,33.4971 l -9.4075,19.2228 -4.5406,-13.3091 c -2.4986,-7.3195 -10.8072,-19.1821 -18.4683,-26.36 -12.8043,-11.9968 -15.5629,-13.0494 -34.0818,-12.9964 -38.9533,0.1107 -66.0268,26.6004 -74.2538,72.636 l -4.3231,24.1849 -16.0281,4.0036 c -22.4232,5.6082 -56.6128,22.9843 -73.2546,37.2289 -10.8023,9.2465 -15.864,11.4551 -21.8874,9.5434 -6.9185,-2.1959 -7.2872,-1.825 -3.1607,3.1472 4.0377,4.865 2.9383,7.6476 -8.1092,20.5075 -18.1926,21.177 -35.2071,58.8054 -42.1026,93.1163 -16.5904,82.551 13.0492,179.0463 79.4402,258.6174 19.8096,23.7425 14.2526,23.7603 -6.3554,0.02 -52.2023,-60.1358 -80.3645,-116.1519 -93.6806,-186.3483 -6.5829,-34.7022 -6.68,-91.0521 -0.2107,-121.5768 22.4277,-105.8215 106.4454,-185.7053 227.0506,-215.8758 21.0456,-5.2648 56.4289,-8.1 91.8317,-8.3811 z m 63.4529,12.8673 c 30.6819,0.5983 62.8988,29.3429 67.3206,77.3126 3.3003,35.8031 -9.1476,64.7315 -33.1437,77.0068 -13.0198,6.6603 -35.5603,9.2927 -45.3177,5.2951 -13.5519,-5.5522 -33.0088,-24.1179 -39.4448,-37.6435 -7.7288,-16.2425 -8.1847,-59.9972 -0.8428,-80.8065 10.1634,-28.8064 30.4355,-41.5739 51.4284,-41.1645 z m -120.9921,0.401 c 23.133,-0.028 45.0743,15.7388 53.4268,46.3169 4.8553,17.7755 4.8808,51.7871 0.054,69.1695 -4.1623,14.9906 -23.1212,34.9029 -40.478,42.5104 -10.9347,4.7927 -16.5414,5.5495 -23.6003,3.1947 -1.9141,-0.6385 -7.7608,-2.1038 -12.9896,-3.2559 -14.3194,-3.1553 -32.8137,-21.2846 -39.4584,-38.6835 -8.7187,-22.8297 -5.5061,-57.6669 7.5246,-81.6085 13.7689,-25.2981 35.1089,-37.6187 55.5205,-37.6436 z m 22.1252,83.2127 c -13.4546,0.9411 -23.936,26.5648 -11.6438,44.1146 9.1195,13.0198 22.7666,9.4818 29.2557,-7.5858 4.1798,-10.9936 2.1179,-21.4983 -6.0429,-30.7918 -3.7979,-4.3251 -7.8017,-6.0005 -11.569,-5.737 z m 75.4434,0.2515 c -3.2712,0.2062 -6.6664,1.8857 -9.9105,5.4855 -8.9468,9.9278 -10.6558,23.3676 -4.4862,35.2984 6.8003,13.1503 19.7828,14.5851 27.8418,3.0792 12.6018,-17.9918 0.73,-44.7566 -13.4451,-43.8631 z m 105.2088,16.3136 c 5.3427,-0.1346 13.551,2.7987 27.7262,8.1024 20.8601,7.8047 61.8254,34.0774 61.3798,39.3632 -0.1613,1.9141 -30.1865,16.7922 -66.7225,33.0622 -36.5361,16.2701 -67.7204,30.9469 -69.3054,32.6203 -5.0542,5.3359 9.8732,-0.6263 77.4146,-30.9346 l 65.8728,-29.5615 13.1188,14.4647 c 15.8011,17.4175 35.2893,56.2052 42.5104,84.6129 7.5703,29.7812 6.7719,84.0775 -1.7673,120.2105 -9.5803,40.5381 -39.1397,99.0857 -68.5645,135.7967 l -23.6614,29.5139 -198.7739,0.8973 -198.7738,0.8972 -11.8137,-13.078 c -35.8095,-39.6397 -70.7232,-103.5684 -82.9952,-151.9743 -8.5362,-33.6702 -9.2901,-90.976 -1.6313,-123.4664 6.5005,-27.5764 29.3376,-72.1505 44.3116,-86.4822 l 11.2496,-10.767 69.5433,30.7919 c 38.2512,16.9354 70.2303,30.1184 71.0591,29.2896 2.4173,-2.4172 1.7149,-2.7649 -67.5177,-33.0078 -36.3684,-15.8868 -66.9073,-29.5479 -67.8644,-30.3568 -0.957,-0.809 3.7413,-6.1887 10.4407,-11.9564 16.0157,-13.7884 58.6499,-34.2022 76.4018,-36.5832 12.7134,-1.7052 14.084,-1.1534 14.084,5.669 0,4.1565 3.0597,13.5622 6.8041,20.9017 12.9215,25.3284 39.5595,40.5326 66.5049,37.963 l 13.6966,-1.3051 v 13.316 c 0,19.9653 8.5886,33.4249 26.3464,41.28 l 15.4163,6.8177 v 53.7804 53.7803 h -32.6951 c -39.4738,0 -95.4478,-5.4177 -130.6579,-12.643 -32.554,-6.6802 -72.4,-22.2331 -65.8524,-25.7074 2.5998,-1.3796 32.9208,-6.8522 67.375,-12.1604 34.4542,-5.3083 63.2944,-10.2138 64.0919,-10.8961 5.4327,-4.647 -10.0487,-3.0597 -71.2155,7.2867 -62.8346,10.6286 -70.2149,11.2516 -77.5641,6.5594 -9.3057,-5.9413 -21.296,-30.0702 -21.33,-42.925 -0.05,-18.6375 -0.7161,-18.5622 88.1068,-9.6522 45.2611,4.5403 82.295,7.2134 82.295,5.9477 0,-2.5742 -10.0019,-3.8343 -98.3163,-12.4051 -33.9757,-3.2973 -61.774,-7.2482 -61.774,-8.7822 0,-4.8083 16.1413,-13.6277 28.6711,-15.661 7.8096,-1.2674 15.9854,0.1071 23.376,3.9289 8.4807,4.3856 10.984,4.6989 9.8493,1.2371 -2.146,-6.5469 -23.7072,-11.2659 -38.6496,-8.4627 -6.9315,1.3004 -17.1813,6.2141 -22.7778,10.9233 -5.5965,4.7091 -12.6895,8.5646 -15.7629,8.5646 -3.0734,0 -5.5874,1.5662 -5.5874,3.4803 0,1.9141 1.9643,3.4802 4.3707,3.4802 3.0298,0 4.0039,4.6691 3.1675,15.1852 -1.2022,15.1165 8.2446,40.4165 17.1428,45.9158 5.2292,3.2319 -2.9129,8.3781 -13.3703,8.4491 -4.3068,0.029 -7.8305,1.58 -7.8305,3.4462 0,3.0557 14.648,1.9817 27.4136,-2.012 7.7053,-2.4106 14.3407,5.5761 14.3967,17.3196 0.193,40.8206 25.3395,96.0144 60.9923,133.8798 28.8737,30.6657 57.4658,48.9407 97.3103,62.1955 24.636,8.1954 33.4519,9.2879 76.5649,9.4822 41.7326,0.1882 52.4682,-0.9546 74.8249,-7.9325 41.0119,-12.8005 65.1178,-27.3764 95.8625,-57.9606 38.0425,-37.8441 60.3083,-81.4089 66.1106,-129.3665 2.8504,-23.5598 6.4839,-29.5028 16.7826,-27.4408 4.0878,0.8184 11.7431,2.4006 17.0069,3.5143 5.5042,1.1645 9.5706,0.5171 9.5706,-1.5226 0,-1.9506 -4.4395,-3.5482 -9.8629,-3.5482 -14.4086,0 -15.1236,-2.6905 -4.8533,-18.21 6.913,-10.4462 9.2727,-18.4659 9.3667,-31.8115 0.081,-11.532 1.9759,-19.3446 5.3495,-22.0844 4.4848,-3.6422 4.1724,-4.2553 -2.1888,-4.3503 -4.0724,-0.061 -9.5536,-2.6984 -12.1807,-5.8661 -6.7741,-8.1683 -25.0283,-15.124 -39.6963,-15.124 -13.2349,0 -25.9794,5.084 -25.9794,10.3591 0,1.7332 4.3068,0.9038 9.5706,-1.8421 5.2639,-2.7458 13.5104,-5.0044 18.3256,-5.0164 9.533,-0.023 31.9472,10.7191 33.769,16.1844 0.8915,2.6746 -136.5639,18.8429 -158.4521,18.6382 -2.5056,-0.023 -3.7733,1.2186 -2.8209,2.7597 0.9524,1.541 38.7882,-0.9152 84.076,-5.4582 45.2878,-4.5429 83.3588,-7.2365 84.6061,-5.9884 1.2473,1.2481 2.1221,8.9912 1.9441,17.2108 -0.34,15.701 -11.4634,37.8611 -21.7379,43.3056 -4.903,2.5981 -58.9525,-4.9074 -135.416,-18.8081 -6.2209,-1.131 -11.3108,-0.703 -11.3108,0.9516 0,1.6546 28.5814,7.4062 63.5141,12.7789 34.9328,5.3726 64.9442,11.078 66.6953,12.6838 1.8089,1.6588 -4.2033,6.1106 -13.9209,10.3048 -35.9779,15.5278 -115.4054,27.665 -181.0465,27.665 h -32.6882 v -55.6836 c 0,-53.4987 0.2716,-55.6835 7.008,-55.6835 3.8564,0 12.6721,-5.1887 19.5899,-11.5283 10.4249,-9.5537 12.8603,-14.4749 14.2335,-28.7662 l 1.6586,-17.2448 13.7781,1.3119 c 17.5358,1.6724 40.6898,-7.1191 53.2366,-20.2152 5.3701,-5.6051 12.5851,-18.4915 16.0348,-28.6439 4.0043,-11.7842 6.1409,-17.0309 13.0101,-17.204 z m -104.5019,1.2507 c 4.0398,-0.017 6.9606,6.5735 5.1388,13.5402 -1.7742,6.7845 -4.984,8.2981 -9.0269,4.2552 -3.6753,-3.6753 -2.6976,-14.4363 1.5498,-17.0613 0.8016,-0.4954 1.5902,-0.731 2.3383,-0.7341 z m -75.8648,0.061 c 0.4381,-0.028 0.8897,0.029 1.3527,0.1835 2.1568,0.719 3.922,4.9616 3.922,9.4279 0,9.4666 -6.8965,13.2066 -9.9037,5.3699 -2.4731,-6.4451 0.3942,-14.7133 4.629,-14.9813 z m 37.4736,13.8325 c 0.9655,0.019 1.9928,2.3356 3.956,7.3139 2.1249,5.3885 3.8677,10.4783 3.8677,11.3107 0,0.8325 -3.1322,1.5158 -6.9605,1.5158 -7.3435,0 -8.3186,-4.2022 -3.6229,-15.661 1.2009,-2.9305 1.9597,-4.495 2.7597,-4.4794 z m -3.0384,37.8067 c 10.0738,-0.5251 18.5199,13.1203 10.7194,22.5195 -2.3065,2.7792 -6.9385,5.0572 -10.298,5.0572 -13.8472,0 -18.1401,-18.1259 -6.0904,-25.7143 1.8842,-1.1865 3.8035,-1.7652 5.669,-1.8624 z"
           sodipodi:nodetypes="sssssscscscssssssssssssssssssccsscccsssccsssssssssssssssssssssssssssssssssssssssssssccssccccssssccsssssssscsscccsssssssssssssssssssssssssssssssssssssssssssssssssssssssssscssssccssssssssssssssssssssssss" /><path
           id="path408"
           style="fill:#b92330;stroke-width:0;stroke-dasharray:none"
           d="m 4991.8976,1760.1178 c -166.9739,0.3418 -295.9871,88.9879 -331.2059,227.574 -8.7593,34.4678 -9.4673,99.6228 -1.5362,141.4317 12.7398,67.1592 47.444,135.5986 92.8037,183.0109 11.7911,12.3247 13.2248,15.4231 9.9581,21.527 -7.006,13.0907 -4.5437,28.2738 6.3555,39.173 l 10.1756,10.1755 h 71.4873 c 64.3974,0 93.5908,-22.3574 97.1358,-8.4702 12.013,-12.4899 16.2717,-25.203 46.0428,-26.1553 0.8299,-0.098 1.5993,-0.153 2.2839,-0.1563 h 0.088 0.041 c 28.2309,0.016 44.0381,25.2179 55.9478,25.4449 4.6914,-15.7401 13.1264,9.3884 13.1544,9.3362 3.381,-6.3174 4.3437,7e-4 70.9157,7e-4 39.0156,0 73.4732,-0.9724 76.5717,-2.1615 12.3031,-4.7211 21.2837,-39.7018 12.4595,-48.526 -2.1527,-2.1527 2.9474,-10.7357 14.2268,-23.9538 54.4945,-63.8607 83.697,-130.2859 93.6058,-212.9122 15.4075,-128.4794 -47.1682,-240.9153 -165.6845,-297.7019 -54.0296,-25.8881 -109.2291,-37.771 -174.8269,-37.6367 z m -0.3467,15.1716 c 35.4028,-0.2811 70.8308,1.9898 91.9541,6.9196 62.7273,14.6397 113.1075,41.0368 155.3458,81.3911 55.0908,52.6334 83.0495,117.3718 83.0495,192.3231 0,90.7471 -32.1403,174.5462 -94.0816,245.3015 -25.6337,29.2814 -28.4794,28.2005 -5.1727,-1.9645 23.6381,-30.5939 40.216,-58.3712 53.4472,-89.5681 38.0007,-89.5992 28.5957,-194.6317 -22.805,-254.6818 -10.472,-12.2342 -11.4969,-14.9405 -7.4634,-19.8005 4.1295,-4.9758 3.7535,-5.345 -3.2355,-3.1268 -6.0412,1.9174 -10.791,-0.019 -20.1133,-8.2044 -15.3327,-13.4623 -41.8766,-27.2233 -71.1067,-36.8618 l -22.6214,-7.4566 -2.2024,-18.8626 c -5.5095,-47.177 -33.1838,-76.2862 -72.5205,-76.2862 -25.1699,0 -38.9905,9.089 -50.9322,33.4971 l -9.4075,19.2228 -4.5406,-13.3091 c -2.4986,-7.3195 -10.8072,-19.1821 -18.4683,-26.36 -12.8043,-11.9968 -15.5629,-13.0494 -34.0818,-12.9964 -38.9533,0.1107 -66.0268,26.6004 -74.2538,72.636 l -4.3231,24.1849 -16.0281,4.0036 c -22.4232,5.6082 -56.6128,22.9843 -73.2546,37.2289 -10.8023,9.2465 -15.864,11.4551 -21.8874,9.5434 -6.9185,-2.1959 -7.2872,-1.825 -3.1607,3.1472 4.0377,4.865 2.9383,7.6476 -8.1092,20.5075 -18.1926,21.177 -35.2071,58.8054 -42.1026,93.1163 -16.5904,82.551 13.0492,179.0463 79.4402,258.6174 19.8096,23.7425 14.2526,23.7603 -6.3554,0.02 -52.2023,-60.1358 -80.3645,-116.1519 -93.6806,-186.3483 -6.5829,-34.7022 -6.68,-91.0521 -0.2107,-121.5768 22.4277,-105.8215 106.4454,-185.7053 227.0506,-215.8758 21.0456,-5.2648 56.4289,-8.1 91.8317,-8.3811 z m 63.4529,12.8673 c 30.6819,0.5983 62.8988,29.3429 67.3206,77.3126 3.3003,35.8031 -9.1476,64.7315 -33.1437,77.0068 -13.0198,6.6603 -35.5603,9.2927 -45.3177,5.2951 -13.5519,-5.5522 -33.0088,-24.1179 -39.4448,-37.6435 -7.7288,-16.2425 -8.1847,-59.9972 -0.8428,-80.8065 10.1634,-28.8064 30.4355,-41.5739 51.4284,-41.1645 z m -120.9921,0.401 c 23.133,-0.028 45.0743,15.7388 53.4268,46.3169 4.8553,17.7755 4.8808,51.7871 0.054,69.1695 -4.1623,14.9906 -23.1212,34.9029 -40.478,42.5104 -10.9347,4.7927 -16.5414,5.5495 -23.6003,3.1947 -1.9141,-0.6385 -7.7608,-2.1038 -12.9896,-3.2559 -14.3194,-3.1553 -32.8137,-21.2846 -39.4584,-38.6835 -8.7187,-22.8297 -5.5061,-57.6669 7.5246,-81.6085 13.7689,-25.2981 35.1089,-37.6187 55.5205,-37.6436 z m 22.1252,83.2127 c -13.4546,0.9411 -23.936,26.5648 -11.6438,44.1146 9.1195,13.0198 22.7666,9.4818 29.2557,-7.5858 4.1798,-10.9936 2.1179,-21.4983 -6.0429,-30.7918 -3.7979,-4.3251 -7.8017,-6.0005 -11.569,-5.737 z m 75.4434,0.2515 c -3.2712,0.2062 -6.6664,1.8857 -9.9105,5.4855 -8.9468,9.9278 -10.6558,23.3676 -4.4862,35.2984 6.8003,13.1503 19.7828,14.5851 27.8418,3.0792 12.6018,-17.9918 0.73,-44.7566 -13.4451,-43.8631 z m 105.2088,16.3136 c 5.3427,-0.1346 13.551,2.7987 27.7262,8.1024 20.8601,7.8047 61.8254,34.0774 61.3798,39.3632 -0.1613,1.9141 -30.1865,16.7922 -66.7225,33.0622 -36.5361,16.2701 -67.7204,30.9469 -69.3054,32.6203 -5.0542,5.3359 9.8732,-0.6263 77.4146,-30.9346 l 65.8728,-29.5615 13.1188,14.4647 c 15.8011,17.4175 35.2893,56.2052 42.5104,84.6129 7.5703,29.7812 6.7719,84.0775 -1.7673,120.2105 -9.5803,40.5381 -39.1397,99.0857 -68.5645,135.7967 l -23.6614,29.5139 -198.7739,0.8973 -198.7738,0.8972 -11.8137,-13.078 c -35.8095,-39.6397 -70.7232,-103.5684 -82.9952,-151.9743 -8.5362,-33.6702 -9.2901,-90.976 -1.6313,-123.4664 6.5005,-27.5764 29.3376,-72.1505 44.3116,-86.4822 l 11.2496,-10.767 69.5433,30.7919 c 38.2512,16.9354 70.2303,30.1184 71.0591,29.2896 2.4173,-2.4172 1.7149,-2.7649 -67.5177,-33.0078 -36.3684,-15.8868 -66.9073,-29.5479 -67.8644,-30.3568 -0.957,-0.809 3.7413,-6.1887 10.4407,-11.9564 16.0157,-13.7884 58.6499,-34.2022 76.4018,-36.5832 12.7134,-1.7052 14.084,-1.1534 14.084,5.669 0,4.1565 3.0597,13.5622 6.8041,20.9017 12.9215,25.3284 39.5595,40.5326 66.5049,37.963 l 13.6966,-1.3051 v 13.316 c 0,19.9653 8.5886,33.4249 26.3464,41.28 l 15.4163,6.8177 v 53.7804 53.7803 h -32.6951 c -39.4738,0 -95.4478,-5.4177 -130.6579,-12.643 -32.554,-6.6802 -72.4,-22.2331 -65.8524,-25.7074 2.5998,-1.3796 32.9208,-6.8522 67.375,-12.1604 34.4542,-5.3083 63.2944,-10.2138 64.0919,-10.8961 5.4327,-4.647 -10.0487,-3.0597 -71.2155,7.2867 -62.8346,10.6286 -70.2149,11.2516 -77.5641,6.5594 -9.3057,-5.9413 -21.296,-30.0702 -21.33,-42.925 -0.05,-18.6375 -0.7161,-18.5622 88.1068,-9.6522 45.2611,4.5403 82.295,7.2134 82.295,5.9477 0,-2.5742 -10.0019,-3.8343 -98.3163,-12.4051 -33.9757,-3.2973 -61.774,-7.2482 -61.774,-8.7822 0,-4.8083 16.1413,-13.6277 28.6711,-15.661 7.8096,-1.2674 15.9854,0.1071 23.376,3.9289 8.4807,4.3856 10.984,4.6989 9.8493,1.2371 -2.146,-6.5469 -23.7072,-11.2659 -38.6496,-8.4627 -6.9315,1.3004 -17.1813,6.2141 -22.7778,10.9233 -5.5965,4.7091 -12.6895,8.5646 -15.7629,8.5646 -3.0734,0 -5.5874,1.5662 -5.5874,3.4803 0,1.9141 1.9643,3.4802 4.3707,3.4802 3.0298,0 4.0039,4.6691 3.1675,15.1852 -1.2022,15.1165 8.2446,40.4165 17.1428,45.9158 5.2292,3.2319 -2.9129,8.3781 -13.3703,8.4491 -4.3068,0.029 -7.8305,1.58 -7.8305,3.4462 0,3.0557 14.648,1.9817 27.4136,-2.012 7.7053,-2.4106 14.3407,5.5761 14.3967,17.3196 0.193,40.8206 25.3395,96.0144 60.9923,133.8798 28.8737,30.6657 57.4658,48.9407 97.3103,62.1955 24.636,8.1954 33.4519,9.2879 76.5649,9.4822 41.7326,0.1882 52.4682,-0.9546 74.8249,-7.9325 41.0119,-12.8005 65.1178,-27.3764 95.8625,-57.9606 38.0425,-37.8441 60.3083,-81.4089 66.1106,-129.3665 2.8504,-23.5598 6.4839,-29.5028 16.7826,-27.4408 4.0878,0.8184 11.7431,2.4006 17.0069,3.5143 5.5042,1.1645 9.5706,0.5171 9.5706,-1.5226 0,-1.9506 -4.4395,-3.5482 -9.8629,-3.5482 -14.4086,0 -15.1236,-2.6905 -4.8533,-18.21 6.913,-10.4462 9.2727,-18.4659 9.3667,-31.8115 0.081,-11.532 1.9759,-19.3446 5.3495,-22.0844 4.4848,-3.6422 4.1724,-4.2553 -2.1888,-4.3503 -4.0724,-0.061 -9.5536,-2.6984 -12.1807,-5.8661 -6.7741,-8.1683 -25.0283,-15.124 -39.6963,-15.124 -13.2349,0 -25.9794,5.084 -25.9794,10.3591 0,1.7332 4.3068,0.9038 9.5706,-1.8421 5.2639,-2.7458 13.5104,-5.0044 18.3256,-5.0164 9.533,-0.023 31.9472,10.7191 33.769,16.1844 0.8915,2.6746 -136.5639,18.8429 -158.4521,18.6382 -2.5056,-0.023 -3.7733,1.2186 -2.8209,2.7597 0.9524,1.541 38.7882,-0.9152 84.076,-5.4582 45.2878,-4.5429 83.3588,-7.2365 84.6061,-5.9884 1.2473,1.2481 2.1221,8.9912 1.9441,17.2108 -0.34,15.701 -11.4634,37.8611 -21.7379,43.3056 -4.903,2.5981 -58.9525,-4.9074 -135.416,-18.8081 -6.2209,-1.131 -11.3108,-0.703 -11.3108,0.9516 0,1.6546 28.5814,7.4062 63.5141,12.7789 34.9328,5.3726 64.9442,11.078 66.6953,12.6838 1.8089,1.6588 -4.2033,6.1106 -13.9209,10.3048 -35.9779,15.5278 -115.4054,27.665 -181.0465,27.665 h -32.6882 v -55.6836 c 0,-53.4987 0.2716,-55.6835 7.008,-55.6835 3.8564,0 12.6721,-5.1887 19.5899,-11.5283 10.4249,-9.5537 12.8603,-14.4749 14.2335,-28.7662 l 1.6586,-17.2448 13.7781,1.3119 c 17.5358,1.6724 40.6898,-7.1191 53.2366,-20.2152 5.3701,-5.6051 12.5851,-18.4915 16.0348,-28.6439 4.0043,-11.7842 6.1409,-17.0309 13.0101,-17.204 z m -104.5019,1.2507 c 4.0398,-0.017 6.9606,6.5735 5.1388,13.5402 -1.7742,6.7845 -4.984,8.2981 -9.0269,4.2552 -3.6753,-3.6753 -2.6976,-14.4363 1.5498,-17.0613 0.8016,-0.4954 1.5902,-0.731 2.3383,-0.7341 z m -75.8648,0.061 c 0.4381,-0.028 0.8897,0.029 1.3527,0.1835 2.1568,0.719 3.922,4.9616 3.922,9.4279 0,9.4666 -6.8965,13.2066 -9.9037,5.3699 -2.4731,-6.4451 0.3942,-14.7133 4.629,-14.9813 z m 37.4736,13.8325 c 0.9655,0.019 1.9928,2.3356 3.956,7.3139 2.1249,5.3885 3.8677,10.4783 3.8677,11.3107 0,0.8325 -3.1322,1.5158 -6.9605,1.5158 -7.3435,0 -8.3186,-4.2022 -3.6229,-15.661 1.2009,-2.9305 1.9597,-4.495 2.7597,-4.4794 z m -3.0384,37.8067 c 10.0738,-0.5251 18.5199,13.1271 10.7194,22.5263 -2.3065,2.7792 -6.9385,5.0504 -10.298,5.0504 -13.8472,0 -18.1401,-18.1259 -6.0904,-25.7143 1.8842,-1.1865 3.8035,-1.7652 5.669,-1.8624 z m -87.1348,237.3417 c 18.6299,-0.042 47.421,8.0936 70.393,20.3376 l 20.1676,10.7533 24.5519,-12.2895 c 32.7626,-16.3905 59.2341,-21.7981 81.493,-16.6602 31.2948,7.2237 47.5608,25.2634 47.5608,52.7607 0,11.6394 -2.0795,16.3798 -10.7261,24.4568 -14.9617,13.9764 -48.6621,29.749 -81.1872,37.9969 -67.1143,17.0191 -148.9764,2.925 -199.5555,-34.3604 -13.7954,-10.1696 -14.7893,-12.0155 -14.7773,-27.4135 0.023,-29.2535 20.1859,-49.522 54.7659,-55.0515 2.2,-0.3518 4.6525,-0.5241 7.3139,-0.5302 z"
           sodipodi:nodetypes="sssssscsccscsccssssssssssssssssssccsscccsssccsssssssssssssssssssssssssssssssssssssssssssccssccccssssccsssssssscsscccsssssssssssssssssssssssssssssssssssssssssssssssssssssssssscssssccssssssssssssssssssssssssscccssssssss" /><path
           d="m 5222.7003,1986.8965 c -13.2435,-0.031 -29.5683,5.0705 -29.5683,9.9649 0,1.5352 4.8306,0.3785 10.7398,-2.5694 6.7704,-3.3826 15.2717,-4.6237 22.9885,-3.3715 12.8406,2.0838 28.9158,10.8647 28.9158,15.797 0,1.5896 -18.0102,4.6844 -40.0226,6.8789 -102.6337,10.232 -121.3703,12.4586 -115.3504,13.7238 3.5546,0.747 40.9364,-2.1038 83.0699,-6.3351 82.9934,-8.3347 82.6646,-8.3746 82.6146,10.5222 -0.03,11.212 -10.893,34.837 -19.5491,42.524 -6.3874,5.6723 -10.0574,5.4508 -70.9639,-4.3231 -35.3265,-5.669 -68.1431,-11.2173 -72.9284,-12.3235 -5.4512,-1.2601 -7.4007,-0.7973 -5.2203,1.2303 1.9142,1.7799 30.8869,7.479 64.3841,12.6702 33.4971,5.1912 62.9835,10.5008 65.5261,11.8001 2.5426,1.2993 13.5053,2.5699 24.3616,2.8209 8.7576,0.2024 13.1027,0.071 13.3839,-0.4622 0,0 0.012,-0.017 0.014,-0.02 8e-4,0 -5e-4,-0.017 0,-0.02 1e-4,0 1e-4,-0.017 0,-0.02 -0.045,-0.3275 -1.4309,-0.7964 -4.0988,-1.407 -11.7755,-2.6954 -11.9219,-6.6391 -0.7885,-21.6971 5.5674,-7.5301 7.9017,-15.9051 8.2995,-29.7926 0.3391,-11.8356 2.3612,-20.4626 5.2204,-22.2748 3.556,-2.2538 3.1589,-2.9702 -1.6586,-3.0112 -3.4774,-0.029 -11.6351,-4.1097 -18.1352,-9.0676 -6.5001,-4.9578 -18.1174,-9.8576 -25.8094,-10.8893 -1.7096,-0.2293 -3.5323,-0.3423 -5.4243,-0.3467 z"
           style="fill:#1d1c1d;stroke-width:0"
           id="path476" /><path
           d="m 4768.266,1986.2644 c -12.7784,0 -31.1575,7.4015 -37.562,15.124 -2.627,3.1677 -8.1084,5.7827 -12.1808,5.8117 -5.4139,0.039 -6.1517,0.8484 -2.7393,3.0112 2.841,1.8007 4.8835,10.3846 5.2204,21.9485 0.4174,14.3259 2.9321,22.5896 10.2231,33.606 10.1146,15.2828 9.8064,16.0278 -7.9256,19.114 -1.0842,0.1887 -1.6468,0.3514 -1.7266,0.4826 0,0 0,0.01 0,0.01 0,0 -0.01,0.01 -0.01,0.01 0,0 0,0.01 0,0.01 0,0 0,0.01 0,0.01 0,0 0,0.01 0,0.01 0,0 0,0.01 0,0.01 0,0 0,0.01 0,0.01 0,0 0.01,0.01 0.01,0.01 0,0 0,0.01 0,0.01 0,0 0.01,0.01 0.01,0.01 0,0 0,0.01 0,0.01 0.3709,0.3803 5.5562,0.4485 13.9005,0.1087 11.4848,-0.4678 23.2305,-1.7108 26.1017,-2.7597 2.8712,-1.0489 32.6271,-6.1852 66.1243,-11.4195 33.4971,-5.2344 62.47,-10.9718 64.3841,-12.7517 2.1807,-2.0278 0.2314,-2.4908 -5.2203,-1.2371 -4.7853,1.1003 -37.6389,6.6148 -73.0031,12.2555 -60.6837,9.6792 -64.6634,9.9236 -70.8416,4.3367 -9.4714,-8.565 -19.7403,-30.1948 -19.6783,-41.4568 0.1101,-20.0536 -0.5835,-19.9445 78.9712,-11.8749 40.0727,4.0647 77.3165,7.3887 82.7641,7.3887 24.1528,0 1.2598,-3.3133 -73.8324,-10.6854 -70.4287,-6.9142 -80.2854,-8.5982 -76.5649,-13.0848 5.4804,-6.6089 24.3732,-14.5199 34.6119,-14.4919 4.3683,0.012 12.2528,2.2706 17.5166,5.0164 5.2639,2.7459 9.5707,3.7705 9.5707,2.2771 0,-4.3439 -16.8038,-10.7941 -28.1205,-10.7941 z"
           style="fill:#1d1c1d;stroke-width:0"
           id="path475" /><path
           d="m 5031.8386,1871.417 c -5.8289,0 -14.6516,9.7875 -17.6186,19.5491 -2.496,8.2117 3.0918,25.867 9.4686,29.9217 12.8564,8.1748 26.7542,-4.3681 26.7542,-24.144 0,-11.7606 -9.9665,-25.3268 -18.6042,-25.3268 z m -0.9109,17.4011 c 5.878,0 9.5983,8.5032 6.8517,15.661 -3.8714,10.0885 -11.6981,5.0455 -11.6981,-7.5382 0,-4.6209 2.0877,-8.1228 4.8464,-8.1228 z"
           style="fill:#1d1c1d;stroke-width:0"
           id="path469" /><path
           d="m 4957.6731,1871.417 c -15.6293,0 -24.1611,28.7903 -13.18,44.468 11.1751,15.9547 29.3848,4.9484 29.3848,-17.7614 0,-14.2918 -7.5352,-26.7066 -16.2048,-26.7066 z m -1.7877,18.0536 c 0.4723,-0.018 0.9613,0.051 1.4614,0.2176 2.3917,0.7972 4.3503,5.1043 4.3503,9.5706 0,9.5387 -7.7529,13.4842 -10.8145,5.5058 -2.6105,-6.8028 0.4375,-15.1178 5.0028,-15.294 z"
           style="fill:#1d1c1d;stroke-width:0"
           id="path468" /><ellipse
           style="font-variation-settings:normal;opacity:1;fill:#aa7c2b;fill-opacity:1;stroke:#414100;stroke-width:0;stroke-linecap:round;stroke-linejoin:round;stroke-miterlimit:4;stroke-dasharray:none;stroke-dashoffset:0;stroke-opacity:1;paint-order:stroke fill markers"
           id="path504"
           cx="4995.4541"
           cy="2412.0781"
           rx="8.9039812"
           ry="11.039674" /><path
           style="fill:#1d1c1d;stroke:#414100;stroke-width:0;stroke-linecap:round;stroke-linejoin:round;stroke-dasharray:none;stroke-opacity:1;paint-order:stroke fill markers"
           d="m 4964.0204,2455.5869 c -18.5666,-9.1902 -30.0557,-26.2799 -35.3392,-52.5662 0,0 -2.7628,-13.7459 -7.9918,-15.99 -9.2075,-4.0208 -68.3992,-4.0213 -68.3992,-4.0213 -67.6104,-5e-4 -72.963,-0.4676 -81.4091,-7.1113 -10.7343,-8.4436 -15.39,-27.8939 -9.6776,-40.4312 3.6167,-7.9378 2.5039,-10.3538 -12.3,-26.7054 -20.977,-23.17 -51.0495,-69.1537 -64.2166,-98.1933 -19.6683,-43.3775 -27.921,-81.6629 -29.9922,-139.1388 -2.2891,-63.5233 3.6832,-93.0261 29.217,-144.3294 14.1305,-28.3916 21.3933,-37.9784 51.4128,-67.8644 53.1854,-52.9486 112.4643,-81.9771 191.8345,-93.94 180.7169,-27.2382 345.0391,56.2495 392.3282,199.3316 36.428,110.2196 5.3266,242.5819 -80.6463,343.2166 -13.9741,16.3572 -16.8719,21.8037 -14.2285,26.7429 7.9127,14.785 1.1507,38.1617 -12.8891,44.5587 -5.3109,2.4198 -34.4618,3.864 -77.9959,3.864 -78.1909,0 -73.0503,-1.8683 -77.9298,28.3229 -2.9839,18.4626 -15.4284,34.9672 -33.0944,43.8918 -19.4726,9.8372 -39.2945,9.9598 -58.6828,0.3628 z m 27.2562,-18.2617 c 0,-7.2859 -1.9993,-12.5756 -5.2203,-13.8116 -7.0054,-2.6883 -6.6582,-18.4723 0.4943,-22.4751 7.7539,-4.3393 17.9928,-1.2109 20.3507,6.2179 2.2527,7.0977 -1.0521,17.5157 -5.5564,17.5157 -1.7093,0 -3.1078,5.4813 -3.1078,12.1808 0,9.2855 1.4476,12.1777 6.0903,12.1678 11.721,-0.025 29.0837,-13.9794 35.7983,-28.7708 9.9144,-21.8406 8.9913,-29.0786 -4.0412,-31.6851 -14.2419,-2.8484 -68.6686,-2.7974 -83.0448,0.078 -10.8079,2.1615 -11.1914,2.8026 -9.4489,15.7936 2.2764,16.9724 10.0823,29.0701 24.3834,37.7901 17.0245,10.3805 23.3024,9.0331 23.3024,-5.0012 z m 9.2719,-21.4876 c 2.9006,-7.5589 -4.4632,-14.6675 -9.734,-9.3966 -4.4548,4.4548 -1.6951,14.8509 3.9423,14.8509 2.0343,0 4.6406,-2.4545 5.7917,-5.4543 z m 49.8919,-35.3042 c 0,-7.4849 -28.2747,-12.2219 -64.3648,-10.7833 -32.0542,1.2777 -52.8617,6.5942 -49.1723,12.5639 0.8279,1.3395 26.7124,2.4355 57.5212,2.4355 41.5421,0 56.0159,-1.0894 56.0159,-4.2161 z m -100.9265,-14.8757 c 0,-1.887 6.2373,-7.5586 13.8607,-12.6035 12.0579,-7.9795 16.5729,-8.9764 34.7127,-7.6643 16.9716,1.2276 23.4361,3.585 34.7385,12.6679 l 13.8866,11.1596 80.908,-0.9345 80.9081,-0.9345 5.1443,-9.1696 c 4.6144,-8.2249 4.53,-10.1072 -0.8192,-18.2712 l -5.9636,-9.1016 h -211.674 c -205.8034,0 -211.8452,0.1892 -217.8463,6.8202 -6.6271,7.323 -5.0467,23.7986 2.7592,28.764 6.3109,4.0144 169.385,3.3091 169.385,-0.7325 z m 76.5649,-7.0116 c -10.686,-8.3607 -27.6074,-11.9371 -42.6327,-9.0105 -6.2209,1.2118 -15.226,5.2665 -20.0113,9.0105 l -8.7005,6.8074 h 40.0225 40.0226 z m -253.1631,-51.1923 c -66.391,-79.5711 -96.0323,-176.0662 -79.4419,-258.6172 6.8955,-34.3109 23.9088,-71.9396 42.1014,-93.1166 11.0475,-12.8599 12.1503,-15.6483 8.1126,-20.5133 -4.1265,-4.9722 -3.7569,-5.3398 3.1616,-3.1439 6.0234,1.9117 11.0825,-0.2936 21.8848,-9.5401 16.6418,-14.2446 50.8333,-31.6208 73.2565,-37.229 l 16.0248,-4.0079 4.3221,-24.185 c 8.227,-46.0356 35.3069,-72.522 74.2602,-72.6327 18.5189,-0.053 21.2711,0.9968 34.0754,12.9936 7.6611,7.1779 15.9736,19.0394 18.4722,26.3589 l 4.5429,13.308 9.4027,-19.2183 c 11.9417,-24.4081 25.7648,-33.4995 50.9347,-33.4995 39.3367,0 67.0075,29.1089 72.517,76.2859 l 2.2028,18.8622 22.6214,7.4594 c 29.2301,9.6385 55.778,23.4007 71.1107,36.863 9.3223,8.185 14.0713,10.1224 20.1125,8.205 6.989,-2.2182 7.3653,-1.8554 3.2358,3.1204 -4.0335,4.86 -3.0129,7.5697 7.4591,19.8039 51.4007,60.0501 60.8056,165.0834 22.8049,254.6826 -13.2312,31.1969 -29.8049,58.9734 -53.443,89.5673 -23.3067,30.165 -20.4627,31.245 5.171,1.9636 61.9413,-70.7553 94.08,-154.552 94.08,-245.2991 0,-74.9513 -27.9549,-139.6921 -83.0457,-192.3255 -42.2383,-40.3543 -92.6224,-66.7517 -155.3497,-81.3914 -42.2466,-9.8597 -141.689,-9.0701 -183.7801,1.4594 -120.6052,30.1705 -204.6285,110.0576 -227.0562,215.8791 -6.4693,30.5247 -6.3713,86.8725 0.2116,121.5747 13.3161,70.1964 41.477,126.2155 93.6793,186.3513 20.608,23.7399 26.1682,23.7235 6.3586,-0.019 z m 434.243,3.3409 c 34.8546,-39.4087 67.7738,-100.5638 79.9183,-148.4662 8.5362,-33.6702 9.2961,-90.974 1.6373,-123.4644 -6.5023,-27.5843 -29.3011,-72.0688 -44.4722,-86.7733 l -11.4,-11.0492 -69.4494,30.9685 c -38.1972,17.0327 -70.102,30.34 -70.8996,29.5716 -2.1584,-2.0794 -3.5339,-1.4133 67.5744,-32.719 36.3683,-16.0113 66.7829,-29.615 67.588,-30.2304 3.7288,-2.8505 -16.6555,-19.2063 -37.5344,-30.1164 -17.5271,-9.1588 -54.7639,-23.1786 -61.5625,-23.1786 -0.365,0 -1.6224,5.9957 -2.7942,13.3237 -2.6754,16.7313 -19.4486,40.2341 -34.3627,48.1497 -7.0793,3.7572 -19.4613,6.1059 -32.7664,6.2152 l -21.3871,0.1758 1.7437,10.772 c 3.0115,18.6037 -17.5886,46.6517 -34.2637,46.6517 -6.0668,0 -6.4911,3.6751 -6.4911,56.2176 v 56.2176 l 56.5536,-2.1021 c 74.9269,-2.785 126.4048,-12.3935 170.531,-31.8302 5.0109,-2.2072 6.0797,-0.9204 6.0299,7.2603 -0.1288,21.1922 -10.8535,59.8803 -23.9807,86.5079 -41.0272,83.2204 -128.6877,131.9658 -226.4055,125.8975 -66.6198,-4.1371 -112.0119,-23.6374 -155.1606,-66.6566 -39.1373,-39.0198 -61.3528,-83.5814 -66.4445,-133.2799 -2.2071,-21.5424 -1.9657,-22.6684 4.2917,-20.0186 49.8714,21.1181 93.7352,29.3607 171.071,32.1464 l 56.5536,2.0371 v -56.1985 c 0,-54.0149 -0.2724,-56.1985 -7.0116,-56.1985 -3.8563,0 -12.8463,-5.3472 -19.9777,-11.8827 -11.6764,-10.7006 -12.9696,-13.6325 -12.9998,-29.4729 l -0.033,-17.5903 -12.327,1.9602 c -17.2599,2.7446 -39.5848,-4.0872 -53.617,-16.4076 -10.0113,-8.7901 -18.3295,-24.7143 -24.7627,-47.4052 -2.6566,-9.3704 -61.1443,14.2557 -88.1039,35.5896 l -14.9089,11.7978 22.035,9.857 c 12.1192,5.4214 43.5212,19.1983 69.7822,30.6152 26.261,11.417 47.7949,21.9129 47.8531,23.3244 0.058,1.4114 -8.8993,-1.4339 -19.9055,-6.3231 -11.0062,-4.8891 -43.343,-19.1672 -71.8596,-31.729 l -51.8482,-22.8398 -6.6864,8.2815 c -55.0408,68.1706 -67.4961,146.8763 -37.5175,237.0748 5.8905,17.7229 17.9255,44.7523 26.7445,60.0652 13.9874,24.2872 22.179,35.8305 52.3889,73.8249 l 6.1229,7.7007 198.9471,0.1299 198.9471,0.1298 z m -483.8593,-225.9116 c 17.732,-3.0862 18.0421,-3.8339 7.9275,-19.1167 -7.291,-11.0164 -9.8037,-19.2772 -10.2211,-33.6031 -0.3369,-11.5639 -2.3793,-20.1529 -5.2203,-21.9536 -3.4124,-2.1628 -2.6765,-2.9723 2.7374,-3.0112 4.0724,-0.029 9.5538,-2.6451 12.1808,-5.8128 6.4045,-7.7225 24.7846,-15.1219 37.563,-15.1219 11.3167,0 28.1174,6.449 28.1174,10.7929 0,1.4934 -4.3068,0.4686 -9.5707,-2.2773 -5.2638,-2.7458 -13.1446,-5.0021 -17.5129,-5.0139 -10.2387,-0.028 -29.13,7.8817 -34.6104,14.4906 -3.7205,4.4866 6.1362,6.1712 76.5649,13.0854 75.0922,7.3721 97.9835,10.685 73.8307,10.685 -5.4476,0 -42.6915,-3.3257 -82.7642,-7.3904 -79.5547,-8.0696 -78.8588,-8.1743 -78.9689,11.8793 -0.062,11.262 10.2018,32.8885 19.6732,41.4535 6.1782,5.5869 10.1612,5.3432 70.8449,-4.336 35.3642,-5.6407 68.2139,-11.1561 72.9992,-12.2564 5.4517,-1.2537 7.401,-0.7923 5.2203,1.2355 -1.9141,1.7799 -30.887,7.5189 -64.3841,12.7533 -33.4972,5.2343 -63.2531,10.3753 -66.1243,11.4242 -2.8712,1.0489 -14.6169,2.2898 -26.1017,2.7576 -11.4847,0.4677 -16.9661,0.1689 -12.1807,-0.664 z m 504.035,-1.7953 c -2.5426,-1.2993 -32.0297,-6.6098 -65.5268,-11.801 -33.4972,-5.1912 -62.47,-10.8949 -64.3842,-12.6748 -2.1804,-2.0276 -0.2308,-2.4851 5.2204,-1.225 4.7853,1.1062 37.6041,6.6495 72.9306,12.3185 60.9065,9.7739 64.5787,9.9977 70.9661,4.3254 8.6561,-7.687 19.5143,-31.3122 19.5441,-42.5242 0.05,-18.8968 0.3841,-18.8543 -82.6093,-10.5196 -42.1335,4.2313 -79.5146,7.082 -83.0692,6.335 -6.0199,-1.2652 12.7113,-3.4943 115.345,-13.7263 22.0124,-2.1945 40.0225,-5.2906 40.0225,-6.8802 0,-4.9323 -16.07,-13.7129 -28.9106,-15.7967 -7.7168,-1.2522 -16.2191,-0.01 -22.9895,3.3726 -5.9092,2.9479 -10.7439,4.1037 -10.7439,2.5685 0,-5.5936 21.3212,-11.4537 34.9982,-9.6192 7.692,1.0317 19.3037,5.9323 25.8038,10.8901 6.5001,4.9579 14.6635,9.0383 18.1409,9.0676 4.8175,0.041 5.2117,0.7574 1.6557,3.0112 -2.8592,1.8122 -4.8813,10.4414 -5.2204,22.277 -0.3978,13.8875 -2.7309,22.2642 -8.2983,29.7943 -11.1334,15.058 -10.991,18.9965 0.7845,21.6919 7.5054,1.718 4.8915,2.2616 -9.298,1.9336 -10.8563,-0.251 -21.819,-1.5194 -24.3616,-2.8187 z m -198.5334,219.8504 c 53.5673,-6.9569 116.0701,-37.9694 120.4268,-59.7532 4.8883,-24.4414 -10.1449,-48.927 -36.9016,-60.1039 -24.8916,-10.3978 -63.5747,-4.4961 -98.0463,14.9584 l -18.6448,10.5225 -28.2888,-14.1042 c -45.6021,-22.7362 -83.3798,-22.3377 -110.1443,1.1619 -13.7788,12.0979 -20.6031,30.1383 -17.5523,46.4005 1.7285,9.2136 6.1646,14.3235 20.9609,24.1447 48.9342,32.4807 105.6913,44.8901 168.1904,36.7733 z m -183.7434,-101.8549 c 23.084,-33.689 69.8624,-37.8771 124.3209,-11.1305 l 25.085,12.3202 24.1586,-12.1661 c 28.1479,-14.1751 58.2566,-20.0541 80.615,-15.7409 8.5731,1.6539 16.7075,3.0752 18.0765,3.1586 5.0685,0.3086 27.6144,22.3871 32.491,31.8174 2.7734,5.3631 5.0425,15.5531 5.0425,22.6442 v 12.893 l 7.4925,-6.6298 c 27.4962,-24.3303 56.9241,-82.4327 61.6553,-121.7322 2.3945,-19.8896 2.0587,-22.3742 -2.7587,-20.409 -43.9806,17.9413 -82.0473,24.8488 -163.796,29.722 -49.0877,2.9263 -81.7271,2.9077 -128.8164,-0.073 -79.6299,-5.041 -116.7749,-11.9234 -160.6551,-29.7672 -5.0162,-2.0398 -5.5599,-0.336 -4.0508,12.6935 4.7744,41.2213 25.8232,88.2869 53.0389,118.5958 l 15.9696,17.7846 1.8496,-15.8373 c 1.0172,-8.7105 5.6439,-21.3748 10.2816,-28.143 z m 175.2396,-204.3528 c 19.4204,-17.0513 18.9661,-43.07 -1.0639,-60.9299 -10.78,-9.6122 -38.2117,-9.6168 -48.829,-0.01 -21.1732,19.1615 -21.7675,42.8689 -1.5202,60.6462 16.7165,14.6773 34.9114,14.7806 51.4131,0.2919 z m -54.2997,-62.6238 c 20.2423,-17.7652 24.6724,-28.9122 25.0143,-62.9404 0.4824,-48.0079 -17.9773,-78.7835 -49.3785,-82.3228 -42.5117,-4.7917 -75.6448,33.9149 -75.6448,88.3695 0,34.5102 15.3987,58.7568 44.0429,69.3495 21.0407,7.7809 36.9395,4.2425 55.9661,-12.4558 z m -21.5066,-18.2217 c -10.9811,-15.6777 -2.4451,-44.4686 13.1842,-44.4686 8.6696,0 16.2004,12.4146 16.2004,26.7064 0,22.7098 -18.2095,33.7169 -29.3846,17.7622 z m 17.2038,-16.6268 c 0,-4.4663 -1.9568,-8.7728 -4.3485,-9.57 -5.3353,-1.7785 -9.3432,7.5733 -6.4627,15.0798 3.0616,7.9784 10.8112,4.0289 10.8112,-5.5098 z m 113.8693,48.57 c 7.1185,-1.977 17.9125,-7.7764 23.9867,-12.8874 39.5068,-33.2428 28.2326,-116.9686 -18.8175,-139.7452 -43.0044,-20.818 -78.1889,5.2818 -81.7413,60.6357 -2.746,42.789 0.836,56.316 19.5694,73.9016 23.6526,22.2036 32.3121,24.9525 57.0027,18.0953 z m -51.8776,-26.9427 c -6.3768,-4.0547 -11.9613,-21.7058 -9.4653,-29.9175 2.967,-9.7616 11.7886,-19.5516 17.6175,-19.5516 8.6377,0 18.6018,13.5667 18.6018,25.3273 0,19.7759 -13.8976,32.3166 -26.754,24.1418 z m 14.0917,-16.4069 c 2.7466,-7.1578 -0.9733,-15.6611 -6.8513,-15.6611 -2.7587,0 -4.848,3.4997 -4.848,8.1206 0,12.5837 7.8279,17.629 11.6993,7.5405 z m -36.1083,16.531 c -0.1131,-6.2118 -4.4401,-18.2712 -6.5559,-18.2712 -1.2712,0 -4.0847,4.6983 -6.2522,10.4407 -3.701,9.8051 -3.4297,10.4407 4.4573,10.4407 4.6191,0 8.3769,-1.1746 8.3508,-2.6102 z"
           id="path407"
           sodipodi:nodetypes="sscsssssssssssssssssssssssssssssssssssssssssssscccsscssssssscccsssssssscsssscssscssssssssssssssssssssscssssssssscssscssssssssscsssscsssscssssscsssscccsssssssssssssssssssssssssssssssssssscsssssssssssssscssssssscssssscsssssssscssscscsccssssssssssssssssssssssssssssssssss" /></g></g></g><pattern
     id="b-2"
     width="41"
     height="41"
     patternUnits="userSpaceOnUse"><circle
       fill="#ffffff"
       cx="20.5"
       cy="20.5"
       r="20.5"
       id="circle2" /></pattern></svg>
