<?xml version="1.0" encoding="UTF-8" standalone="no"?>
<!-- Created with Inkscape (http://www.inkscape.org/) -->

<svg
   version="1.1"
   id="svg1"
   width="142.53381"
   height="166.33582"
   viewBox="0 0 142.53381 166.33582"
   sodipodi:docname="Linotte app main inkscape.ai"
   inkscape:version="1.4.2 (ebf0e940, 2025-05-08)"
   xml:space="preserve"
   inkscape:export-batch-path="/Users/giannipie/Documents/Repositories/linotte-web/resources/images/dice"
   inkscape:export-batch-name="rere"
   inkscape:export-filename="/Users/giannipie/Documents/Repositories/linotte-web/resources/images/pieces/p031_00a0d7ff.svg"
   inkscape:export-xdpi="96"
   inkscape:export-ydpi="96"
   xmlns:inkscape="http://www.inkscape.org/namespaces/inkscape"
   xmlns:sodipodi="http://sodipodi.sourceforge.net/DTD/sodipodi-0.dtd"
   xmlns="http://www.w3.org/2000/svg"
   xmlns:svg="http://www.w3.org/2000/svg"><defs
     id="defs1" /><sodipodi:namedview
     id="namedview1"
     pagecolor="#ffffff"
     bordercolor="#000000"
     borderopacity="0.25"
     inkscape:showpageshadow="2"
     inkscape:pageopacity="0.0"
     inkscape:pagecheckerboard="0"
     inkscape:deskcolor="#d1d1d1"
     showgrid="false"
     inkscape:zoom="0.49434478"
     inkscape:cx="2138.1838"
     inkscape:cy="1456.4734"
     inkscape:window-width="1472"
     inkscape:window-height="844"
     inkscape:window-x="0"
     inkscape:window-y="33"
     inkscape:window-maximized="0"
     inkscape:current-layer="layer-MC0"><inkscape:page
       x="0"
       y="0"
       width="142.53381"
       height="166.33582"
       id="page2"
       margin="0"
       bleed="0" /></sodipodi:namedview><pattern
     id="b-2"
     width="41"
     height="41"
     patternUnits="userSpaceOnUse"><circle
       fill="#ffffff"
       cx="20.5"
       cy="20.5"
       r="20.5"
       id="circle2" /></pattern><g
     id="g131"
     transform="matrix(1.0982813,0,0,1,-4563.1064,-3862.5846)"><g
       id="g89"
       transform="translate(944,-2.3828125e-5)"><g
         id="g143"
         transform="matrix(0.18659128,0,0,0.18659128,3068.4472,3177.7589)"><rect
           style="fill:#fefefd;fill-opacity:1;stroke:#cf6f57;stroke-width:0.273;stroke-linecap:round;stroke-linejoin:round;paint-order:stroke fill markers"
           id="rect131"
           width="288.50006"
           height="184.50079"
           x="971.46069"
           y="4001.4053"
           ry="17.638206"
           transform="translate(0,2.3828125e-5)" /><path
           id="path93"
           style="fill:#40b93c;fill-opacity:1"
           d="m 1111.8504,3670.2137 c -9.387,-0.3154 -18.824,2.902 -25.2735,8.9941 -1.8608,1.7577 -12.1303,16.4703 -22.8222,32.6953 -10.6919,16.225 -32.277,48.85 -47.9668,72.5 -15.6898,23.65 -42.70497,64.375 -60.03323,90.5 -17.32825,26.125 -32.57926,49.75 -33.89063,52.5 -8.22495,17.2481 4.92307,37.6316 25.32813,39.2695 3.43475,0.2758 6.24566,0.7081 6.26758,0.961 h 0.002 c 0,0.2525 -13.88848,21.4536 -30.86133,47.1133 -28.51942,43.1159 -53.87853,81.5023 -84.77344,128.3242 -6.77581,10.2688 -13.11629,20.6188 -14.09179,23 -1.24611,3.0416 -1.77344,7.0069 -1.77344,13.3301 0,8.0111 0.34077,9.7142 3.10937,15.5 5.65708,11.8221 14.77432,19.8476 28.00586,24.6504 5.32732,1.9337 8.4292,2.3496 17.51172,2.3496 6.07081,0 10.88841,0.3758 10.70508,0.836 -0.18334,0.4602 -19.00703,29.0392 -41.83203,63.5078 -77.31095,116.749 -74.91886,112.8269 -76.5625,125.5254 -0.79372,6.1322 1.76497,18.0395 5.51953,25.6836 3.94837,8.0387 14.35935,18.0704 23.5625,22.705 14.2123,7.1572 6.98084,6.7422 117.16016,6.7422 h 99.32026 v 37.3028 37.3046 l 2.6016,5.2246 c 2.9333,5.8863 7.0424,9.4418 14.0898,12.1954 4.5619,1.7824 8.973,1.8803 86.3086,1.9043 79.8485,0.024 81.5911,-0.016 86,-2.0098 5.9195,-2.6764 10.776,-7.4019 13.1094,-12.7539 1.7412,-3.9938 1.8906,-7.2612 1.8906,-41.75 v -37.418 h 99.8242 99.8242 l 7.1895,-2.4453 c 10.6847,-3.6341 16.9339,-7.358 23.7832,-14.1719 15.6527,-15.5719 19.526,-36.4518 10.1641,-54.8027 -1.117,-2.1893 -18.7036,-29.2041 -39.0801,-60.0313 -69.0807,-104.5112 -73.7406,-111.6843 -73.1641,-112.6171 0.3169,-0.5125 4.98,-0.9317 10.3614,-0.9317 14.0749,0 24.9408,-4.033 34.1973,-12.6914 9.0713,-8.4851 13.9004,-19.0126 13.9004,-30.3086 0,-12.0477 2.4169,-7.9359 -61.1797,-104 -53.287,-80.4912 -70.8203,-107.1202 -70.8203,-107.5488 0,-0.2486 1.7182,-0.4512 3.8184,-0.4512 2.1001,0 6.0376,-0.6591 8.75,-1.4648 11.444,-3.3997 19.1137,-11.2927 21.5488,-22.1739 2.1881,-9.7776 1.2716,-11.5535 -31.5215,-61.0273 -16.345,-24.6591 -44.1121,-66.659 -61.7051,-93.334 -80.4639,-122.0017 -73.8297,-113.0908 -87.2441,-117.1719 -3.0057,-0.9144 -6.1289,-1.4124 -9.2578,-1.5175 z m 79.125,372.1464 c 6.6246,-0.023 13.1866,3.2279 16.3496,9.7618 4.4294,9.1497 1.8956,20.2654 -5.7754,25.3418 -8.8473,5.8548 -20.3776,3.5217 -26.5586,-5.3731 -3.817,-5.4929 -4.1149,-13.3988 -0.7481,-19.8535 3.4201,-6.5569 10.1078,-9.8537 16.7325,-9.877 z m -178.9492,0.1348 c 3.1729,0.016 6.4256,0.8103 9.4921,2.5156 11.3916,6.3349 12.1424,24.5308 1.3204,31.9766 -7.9931,5.4994 -17.9538,4.6268 -24.98442,-2.1875 -4.18237,-4.0538 -5.76501,-8.6875 -5.15039,-15.084 0.99137,-10.3174 9.80351,-17.268 19.32231,-17.2207 z m 202.4355,34.4082 c 10.5043,0 15.6015,12.2152 8.0977,19.4043 -9.1004,8.7187 -23.6024,-1.0811 -18.7579,-12.6758 1.689,-4.0422 5.9447,-6.7285 10.6602,-6.7285 z m -178.1797,0.1328 c 6.3617,0.2519 10.1797,4.6193 10.1797,11.9492 0,3.4995 -0.5837,4.7322 -3.5723,7.5508 -5.0632,4.7752 -11.306,4.4742 -16.0703,-0.7734 -2.9682,-3.2693 -3.7728,-7.9329 -2.0703,-12.0059 1.8552,-4.4383 3.8107,-5.9225 8.6543,-6.5722 1.0089,-0.1354 1.9701,-0.1845 2.8789,-0.1485 z" /><path
           id="path91"
           style="fill:#986c45"
           d="m 1008.6862,4461.8699 c -0.194,0.3321 -0.3944,0.6736 -0.6035,1.0254 -1.0046,1.7379 -2.0442,3.3217 -3.127,4.8086 h 3.5039 v 37.3027 37.3047 l 2.6035,5.2227 c 2.9333,5.8863 7.0425,9.4436 14.0899,12.1972 4.5619,1.7824 8.971,1.8784 86.3066,1.9024 79.8485,0.024 81.5911,-0.016 86,-2.0098 5.9195,-2.6764 10.7779,-7.4019 13.1113,-12.7539 1.7412,-3.9938 1.8887,-7.2612 1.8887,-41.75 v -26.998 c -0.8748,-3.4946 -1.5566,-7.0422 -2.082,-10.6172 -0.2763,-1.8715 -0.474,-3.751 -0.6192,-5.6348 z" /><path
           style="fill:#411811"
           d="m 1040.9608,4559.903 c -12.0399,-0.4014 -15.6907,-0.868 -18.5,-2.3642 -4.8986,-2.6089 -8.816,-6.4552 -11.3416,-11.1357 -2.0746,-3.8446 -2.1779,-5.4736 -2.6584,-41.9252 l -0.5,-37.9251 -96.69346,0.2003 c -107.65795,0.223 -104.235,0.4115 -118.47157,-6.5237 -9.14483,-4.4548 -19.33958,-13.9259 -23.57445,-21.9012 -5.46489,-10.2917 -7.18062,-23.507 -4.40447,-33.9251 1.74101,-6.5336 2.92022,-8.7196 12.81987,-23.7658 4.57822,-6.9583 15.06195,-22.9075 23.29718,-35.4428 8.23524,-12.5353 29.53809,-44.7973 47.33967,-71.6933 17.80158,-26.896 32.59931,-49.5085 32.88384,-50.25 0.41253,-1.075 -1.49333,-1.3481 -9.40817,-1.3481 -15.90327,0 -26.31821,-4.0213 -37.01323,-14.2912 -7.20809,-6.9216 -11.05699,-14.09 -12.30467,-22.9169 -0.95596,-6.7631 0.29312,-16.4658 2.72604,-21.1754 0.88548,-1.7141 11.2899,-17.7415 23.12092,-35.6165 11.83103,-17.875 28.45566,-43.075 36.94363,-56 8.48797,-12.925 21.40853,-32.5 28.71237,-43.5 33.34276,-50.2162 39.78935,-60.0215 40.24891,-61.2191 0.36903,-0.9617 -1.15776,-1.2809 -6.12637,-1.2809 -8.27249,0 -14.28797,-2.6341 -20.77087,-9.0953 -8.40138,-8.3732 -10.06348,-19.524 -4.48391,-30.0821 1.83772,-3.4774 29.13179,-45.2476 60.65348,-92.8226 51.89526,-78.3244 66.48716,-100.4055 92.55336,-140.056 8.2937,-12.6159 11.4306,-15.8621 19.1051,-19.7707 11.5702,-5.8927 28.3655,-3.9668 38.2496,4.386 3.1758,2.6838 24.4683,34.326 85.4204,126.9407 13.7548,20.9 37.3785,56.675 52.497,79.5 15.1185,22.825 28.0938,42.948 28.834,44.7179 2.0053,4.7949 1.6555,13.9999 -0.7328,19.2821 -4.5655,10.0976 -15.4351,16.9978 -26.7784,16.9992 -4.6746,6e-4 -6.2301,0.3316 -5.8773,1.2508 0.2639,0.6875 8.1126,12.725 17.4416,26.75 9.329,14.025 23.1918,34.95 30.8062,46.5 7.6143,11.55 27.9725,42.3291 45.2404,68.3981 17.2679,26.0689 32.7372,49.7743 34.3762,52.6785 5.9704,10.579 5.6461,26.3041 -0.7684,37.2494 -3.5737,6.0981 -11.0372,13.4576 -16.4463,16.2171 -10.4287,5.3204 -16.9357,6.9569 -27.6611,6.9569 -5.6399,0 -10.2543,0.3105 -10.2543,0.6901 0,0.3795 4.6645,7.692 10.3655,16.25 5.7011,8.5579 19.1242,28.8349 29.8291,45.0599 10.705,16.225 28.2406,42.775 38.968,59 36.899,55.8089 36.012,54.3171 38.3875,64.5601 4.5565,19.6472 -7.9919,42.7101 -28.7539,52.8474 -14.1714,6.9193 -8.7419,6.6146 -117.2927,6.5818 l -98.0035,-0.03 -0.5,38.2702 -0.5,38.2702 -2.6464,4.5012 c -3.3628,5.7199 -5.2519,7.3999 -11.3902,10.1298 -4.9558,2.2039 -5.0693,2.2075 -73.4634,2.2882 -37.675,0.044 -75.25,-0.1443 -83.5,-0.4193 z m 153.443,-13.4705 c 5.8335,-3.0166 6.057,-4.6398 6.057,-43.9973 v -35.5321 h -90 -90 l 0.024,33.75 c 0.013,18.5625 0.4317,35.5083 0.9302,37.6575 1.2954,5.5844 4.9735,8.8645 10.7698,9.6043 2.6269,0.3353 39.4776,0.5129 81.8904,0.3947 69.6713,-0.1941 77.4246,-0.3752 80.3288,-1.8771 z m 227.1597,-96.2367 c 10.5537,-5.1615 18.5952,-13.1968 21.8125,-21.7957 2.5723,-6.8752 2.6975,-17.0672 0.291,-23.6992 -0.9384,-2.5861 -19.4034,-31.3861 -41.0332,-64 -53.3714,-80.4743 -86.1082,-130.1974 -85.8705,-130.4269 0.1086,-0.1048 10.0975,-0.4146 22.1975,-0.6884 23.158,-0.524 27.0665,-1.1969 33.816,-5.8224 9.8074,-6.7209 14.0753,-14.0086 13.9732,-23.8601 -0.037,-3.575 -0.5978,-7.85 -1.2462,-9.5 -1.1306,-2.8774 -15.8182,-25.2215 -102.7302,-156.2828 -21.6221,-32.6055 -39.3128,-59.493 -39.3128,-59.75 0,-0.257 7.3125,-0.4771 16.25,-0.4892 13.6807,-0.019 16.898,-0.3163 20.3489,-1.8835 5.3023,-2.408 8.6092,-7.1074 9.1283,-12.9723 0.4068,-4.5966 0.2599,-4.847 -26.481,-45.1222 -14.7895,-22.275 -35.7886,-54 -46.6645,-70.5 -10.876,-16.5 -29.9,-45.3 -42.2755,-64 -12.3756,-18.7 -27.9697,-42.325 -34.6536,-52.5 -12.9928,-19.7789 -15.309,-22.1172 -23.6892,-23.9144 -7.6395,-1.6384 -14.3039,0.1586 -19.61,5.2877 -2.348,2.2697 -15.834,21.6767 -29.969,43.1267 -49.7846,75.5489 -96.99731,146.9543 -120.66752,182.5 -14.6231,21.9595 -15.53894,24.4673 -11.50379,31.5 1.48951,2.596 3.85979,4.7897 6.75287,6.25 4.08011,2.0594 5.8407,2.25 20.78107,2.25 h 16.32329 l -1.17797,2.201 c -0.64788,1.2106 -16.11208,24.7231 -34.36489,52.25 -34.99387,52.774 -58.67175,88.6257 -79.28504,120.049 -6.85508,10.45 -15.04975,22.825 -18.21037,27.5 -8.49522,12.5656 -10.0321,16.0269 -10.0321,22.5941 0,3.1206 0.53981,7.4755 1.19957,9.6776 1.78587,5.9607 9.75502,14.088 17.60478,17.9542 l 6.64774,3.2741 h 22.27246 c 12.24986,0 22.27314,0.252 22.27396,0.56 0.002,0.6359 -11.31368,17.8984 -69.93015,106.684 -22.7874,34.5158 -44.69254,67.706 -48.67808,73.756 -11.13408,16.9014 -12.92391,27.1017 -7.01875,40.0003 4.70311,10.273 17.89788,20.4776 30.24691,23.3925 2.31359,0.5461 125.06745,0.8538 303.88161,0.7617 l 300,-0.1545 z m -318.1861,-327.2742 c -6.2479,-0.8049 -16.1872,-4.9928 -19.761,-8.3263 -3.1728,-2.9595 -6.3451,-9.3511 -5.9651,-12.019 0.4696,-3.2978 5.1878,-3.0363 5.66,0.3137 0.6216,4.4085 4.2824,8.1793 11.0577,11.3897 6.0152,2.8502 7.4665,3.1234 16.5918,3.1234 8.8656,0 10.6301,-0.3095 15.5552,-2.7283 6.7345,-3.3074 9.9477,-6.5511 10.8475,-10.9504 0.4216,-2.0617 1.3615,-3.4411 2.4932,-3.6591 5.2749,-1.0158 4.3893,6.9457 -1.4811,13.3143 -2.1784,2.3633 -6.1634,5.2445 -8.8556,6.4026 -4.2128,1.8123 -16.5134,4.309 -19.5592,3.97 -0.55,-0.061 -3.5126,-0.435 -6.5834,-0.8306 z m -94.4166,-11.3654 c -11.66276,-3.8592 -20.25336,-11.3449 -25.68969,-22.3854 -3.14126,-6.3796 -3.31036,-7.2869 -3.31036,-17.7629 0,-10.5537 0.15114,-11.347 3.4318,-18.0144 4.26868,-8.6752 10.96103,-15.3273 19.79915,-19.6801 6.3766,-3.1404 7.2874,-3.3103 17.7453,-3.3103 10.2599,0 11.4741,0.2146 17.5238,3.0974 17.2217,8.2065 26.5216,25.34 23.9244,44.077 -1.9506,14.0726 -10.4336,25.386 -23.7011,31.6092 -5.8357,2.7373 -7.9775,3.1892 -16.2233,3.4234 -5.9156,0.1679 -11.0093,-0.2297 -13.5,-1.0539 z m 31.8266,-12.7561 c 3.6655,-1.6701 7.0102,-8.2877 6.2465,-12.3587 -2.4788,-13.2133 -21.1031,-13.3722 -23.2409,-0.1982 -1.5388,9.4825 8.1041,16.6076 16.9944,12.5569 z m -21.027,-19.514 c 9.0118,-4.5532 13.1302,-13.2991 10.6507,-22.6182 -4.1005,-15.4119 -22.5316,-19.8638 -33.00013,-7.9709 -8.63304,9.8076 -5.88013,25.1551 5.43373,30.293 5.0868,2.31 12.6671,2.4427 16.9157,0.2961 z m 168.2004,32.2701 c -11.6636,-3.8595 -20.2541,-11.3455 -25.6897,-22.3868 -3.1451,-6.3886 -3.3095,-7.2744 -3.2935,-17.7453 0.015,-9.7733 0.3114,-11.6437 2.618,-16.521 5.4183,-11.4573 14.0363,-19.23 25.5807,-23.0718 9.1331,-3.0393 22.3115,-2.4717 30.5371,1.3152 7.9512,3.6605 15.7588,11.3349 19.8741,19.5351 3.2702,6.5161 3.3733,7.0881 3.3733,18.7215 v 12 l -3.8605,7.2244 c -4.694,8.7843 -10.6012,14.4244 -19.4599,18.5797 -5.7877,2.7148 -7.9482,3.1692 -16.1796,3.4029 -5.9156,0.1679 -11.0093,-0.2297 -13.5,-1.0539 z m 32.5327,-13.1701 c 4.035,-2.0865 6.3187,-6.8259 5.6591,-11.7441 -1.778,-13.2555 -21.222,-13.5713 -23.3628,-0.3795 -1.5998,9.8587 8.5898,16.8366 17.7037,12.1236 z m -18.3199,-21.1341 c 5.7605,-4.6559 7.7761,-8.8033 7.7821,-16.0128 0,-5.2335 -0.4498,-6.8183 -3.0083,-10.5 -8.8201,-12.6918 -27.1814,-11.2359 -33.5966,2.6639 -3.3665,7.2942 -2.0154,15.9386 3.3524,21.4489 4.6732,4.7971 8.25,6.1314 15.4704,5.7711 5.1799,-0.2585 6.8424,-0.819 10,-3.3711 z"
           id="path90" /><path
           style="fill:#38190e"
           d="m 1023.1377,4557.4867 c -6.2191,-3.0589 -9.1557,-5.8753 -11.7815,-11.2996 -2.0157,-4.1639 -2.1424,-6.1828 -2.5226,-40.2098 -0.2202,-19.7042 -0.017,-36.8618 0.4514,-38.1281 0.8389,-2.2679 0.8754,-2.2546 2.4454,0.8927 0.8766,1.7572 1.1886,2.9444 0.6932,2.6382 -0.4971,-0.3072 -0.9438,2.4856 -0.9971,6.2332 -0.5471,38.5008 -0.5692,49.9365 -0.098,50.7843 0.6313,1.1361 1.1296,7.1112 1.0887,13.0561 -0.02,2.9445 0.7926,5.1831 2.9765,8.198 3.4057,4.7014 5.7783,6.242 10.0763,6.5425 1.6428,0.1149 2.9878,0.5464 2.9889,0.9589 0,1.1214 3.8452,0.9043 6.1884,-0.3498 1.1815,-0.6323 1.7945,-0.6784 1.4423,-0.1085 -0.3435,0.5558 0.8117,1.1494 2.6293,1.351 1.7831,0.1979 33.167,0.2446 69.742,0.1039 36.575,-0.1406 67.625,-0.2139 69,-0.1628 3.2441,0.1205 3.1759,0.1233 12.3038,-0.5008 8.7554,-0.5986 12.1836,-2.1617 15.5654,-7.0972 2.9501,-4.3053 5.0575,-11.4397 4.1313,-13.9858 -0.4215,-1.1587 -0.2591,-2.3155 0.3859,-2.75 0.7885,-0.5311 0.7174,-1.0055 -0.2432,-1.625 -0.7462,-0.4813 -0.9707,-1.1136 -0.4989,-1.4052 0.6911,-0.4272 0.8392,-19.3745 0.3964,-50.7198 -0.037,-2.6499 -0.2875,-3.1357 -1.0298,-2 -0.9465,1.4482 -1.0848,1.2471 -1.3763,-2 -0.074,-0.825 -0.7733,-1.3621 -1.5539,-1.1936 -1.1314,0.2443 -1.175,0.012 -0.2149,-1.1447 0.6624,-0.7982 1.076,-2.0013 0.9192,-2.6736 -0.1568,-0.6724 0.5117,-1.3563 1.4854,-1.5198 0.9738,-0.1636 2.6021,-1.3243 3.6185,-2.5795 1.3656,-1.6865 2.9256,-2.2961 5.9764,-2.3355 2.2706,-0.029 4.1299,-0.2783 4.1319,-0.5533 0,-0.4972 7.9325,-0.4101 23.8134,0.2613 4.5709,0.1933 8.5395,-0.019 8.8191,-0.4713 0.2797,-0.4524 0.9199,-0.5684 1.4228,-0.2575 0.7947,0.4911 12.112,0.6103 58.4475,0.6152 5.5,6e-4 10.5625,-0.032 11.25,-0.073 2.3497,-0.1399 3.7639,-0.1391 16.4071,0.01 6.9615,0.082 13.1179,-0.136 13.6809,-0.484 0.5631,-0.3479 1.2695,-0.2351 1.5698,0.2508 0.3003,0.486 2.9189,0.7345 5.8191,0.5523 6.9962,-0.4394 22.4875,-0.483 37.2731,-0.1048 12.9514,0.3314 18.328,-0.6619 26.7969,-4.9505 2.6384,-1.336 5.048,-3.0833 5.3548,-3.8827 0.3068,-0.7995 0.9607,-1.2047 1.453,-0.9004 1.0345,0.6394 1.164,-0.7008 0.2883,-2.9829 -0.7187,-1.8729 -3.3863,-2.1326 -3.4084,-0.3318 -0.011,0.8996 -0.2212,0.9308 -0.75,0.1114 -0.5238,-0.812 -3.1383,-0.3217 -9.112,1.7085 -10.707,3.639 -13.3694,4.0602 -26.1226,4.1334 -6.5716,0.038 -10.7749,0.4786 -11.2347,1.1784 -0.531,0.8083 -0.739,0.7929 -0.75,-0.055 -0.012,-0.89 -22.9141,-1.1666 -94.7653,-1.1448 l -94.75,0.029 -0.661,2.1447 -0.661,2.1448 -0.6906,-2.1924 -0.6906,-2.1924 h -94.8984 c -66.534,0 -94.8984,0.3173 -94.8984,1.0649 0,0.7463 -0.3796,0.7513 -1.26488,0.017 -0.86342,-0.7165 -30.299,-1.0403 -92.75,-1.0201 -50.31684,0.016 -93.04021,-0.2642 -94.94083,-0.6232 -1.90061,-0.3591 -6.2638,-1.7762 -9.69597,-3.1493 -3.43218,-1.3731 -7.16632,-2.6749 -8.2981,-2.8928 -1.13178,-0.218 -2.39359,-0.5996 -2.80402,-0.8481 -0.85432,-0.5171 -2.62548,1.3316 -2.99625,3.1275 -0.1375,0.666 0.2,1.2109 0.75,1.2109 0.55,0 1,0.7015 1,1.559 0,0.9642 0.47692,1.2846 1.25,0.8397 0.6875,-0.3957 0.91454,-0.3493 0.50453,0.1031 -0.41001,0.4523 2.56975,2.3258 6.62168,4.1632 6.79811,3.0827 8.13016,3.3371 17.24548,3.2934 17.62374,-0.084 21.67973,-0.077 34.87831,0.068 12.18997,0.1337 26.78677,0.1462 30.75,0.026 6.34252,-0.1918 8.53572,-0.2181 10.75,-0.1288 1.375,0.056 4.075,0.1064 6,0.1132 1.925,0.01 5.43484,0.147 7.79963,0.3117 2.36479,0.1647 4.53339,-0.079 4.8191,-0.5411 0.28571,-0.4623 0.90838,-0.6002 1.38371,-0.3064 0.47533,0.2938 21.46736,0.5913 46.64896,0.6611 25.18159,0.07 46.92405,0.4731 48.31665,0.8962 1.3926,0.4231 -42.7351,0.8079 -98.0615,0.8552 -97.33519,0.083 -100.77748,0.023 -106.27529,-1.8689 -19.65128,-6.761 -32.54972,-19.8005 -37.09959,-37.5052 -2.01757,-7.8509 -1.93434,-14.631 0.27754,-22.6078 2.06542,-7.4485 0.56898,-5.0807 63.47346,-100.4321 49.75464,-75.4187 52.02351,-78.7687 53.73384,-79.3389 0.70666,-0.2355 -0.58296,2.1801 -2.86583,5.3681 -2.28287,3.188 -4.15068,6.816 -4.15068,8.0621 0,2.2804 2.35125,5.4087 4.06516,5.4087 2.15183,0 9.85382,-12.8332 9.15248,-15.25 -0.1197,-0.4125 0.28746,-0.75 0.90481,-0.75 0.73142,0 0.64433,-0.5894 -0.25,-1.692 -0.75485,-0.9306 -0.84838,-1.3778 -0.20786,-0.9938 1.58686,0.9514 2.28531,-1.3873 1.10052,-3.6849 -0.70636,-1.3698 -0.64842,-1.6752 0.21639,-1.1408 0.68109,0.421 2.41654,-0.4537 4.09976,-2.0664 1.60531,-1.538 2.92564,-2.3746 2.93406,-1.8592 0.008,0.5154 0.43467,0.274 0.94721,-0.5365 1.25495,-1.9845 -0.92674,-3.2909 -2.87095,-1.7192 -1.17845,0.9526 -1.3119,0.921 -0.66286,-0.157 0.6347,-1.0542 0.40303,-1.138 -1.05804,-0.3827 -1.68794,0.8725 -6.41027,1.4514 -10.37068,1.2712 -0.825,-0.037 -2.5125,-0.067 -3.75,-0.065 -1.2375,0 -2.25,-0.3914 -2.25,-0.8741 0,-0.4827 -2.8125,-0.9069 -6.25,-0.9426 -7.36988,-0.077 -10.56,-0.6211 -17.09419,-2.9176 -4.5697,-1.6061 -4.9153,-1.6053 -6.09888,0.013 -0.69007,0.9437 -1.54768,1.4229 -1.9058,1.0648 -1.20792,-1.208 -0.66272,0.8121 0.59887,2.2189 0.6875,0.7666 1.86379,2.1204 2.61398,3.0084 0.89051,1.054 2.19221,1.4066 3.75,1.0156 1.31231,-0.3293 2.38602,-0.1884 2.38602,0.3132 0,0.5017 0.73865,1.1955 1.64145,1.542 1.31437,0.5044 1.41027,0.3513 0.48129,-0.768 -0.94047,-1.1332 -0.69112,-1.3979 1.31689,-1.3979 1.36237,0 2.4425,0.2812 2.40029,0.625 -0.22847,1.8603 0.30041,2.4517 1.08465,1.2128 0.75564,-1.1937 1.15108,-1.155 2.55611,0.25 1.48967,1.4897 5.32081,2.2876 8.01932,1.6702 0.9991,-0.2285 5.83609,-0.2901 8.30902,-0.1056 0.71996,0.054 1.0309,0.5476 0.69098,1.0976 -0.34375,0.5562 -4.952,1 -10.38386,1 -7.78053,0 -11.25459,-0.5064 -17.08911,-2.4908 -13.3146,-4.5286 -23.67217,-13.2504 -28.84697,-24.2912 -2.37505,-5.0673 -2.67949,-6.913 -2.67508,-16.218 0.004,-9.1404 0.31394,-11.081 2.3911,-14.9868 2.5744,-4.8407 8.47435,-13.9092 43.59888,-67.0132 12.55061,-18.975 30.69103,-46.425 40.31204,-61 33.21711,-50.3211 44.41067,-67.0165 45.30024,-67.5663 2.47404,-1.529 0.189,-2.4337 -6.14707,-2.4337 -7.68976,0 -12.27246,-1.7459 -19.20373,-7.316 -4.56199,-3.6661 -8.59663,-11.5121 -9.38198,-18.2446 -1.07203,-9.1901 -6.27251,-0.8083 98.12559,-158.1516 16.5,-24.868 37.8242,-57.1556 47.3872,-71.7503 10.0349,-15.315 19.2448,-28.2481 21.7803,-30.5852 6.0554,-5.5816 12.2987,-8.1139 21.4591,-8.7039 8.7271,-0.562 14.7097,0.9936 22.2763,5.7921 4.809,3.0499 11.2667,12.5248 90.4433,132.7013 8.0596,12.233 28.3177,42.833 45.018,68 16.7004,25.167 31.4335,48.0082 32.7403,50.7582 8.1153,17.0781 -5.1327,36.0193 -26.2284,37.5 l -7.1239,0.5 16.6239,25.046 c 9.1431,13.7752 25.3752,38.3002 36.0712,54.5 10.6961,16.1997 32.0919,48.6064 47.5464,72.0149 15.4544,23.4085 28.9667,44.3335 30.0272,46.5 4.2842,8.7518 2.8282,26.6144 -2.8479,34.9391 -6.6456,9.7464 -12.3046,14.3109 -23.173,18.6909 -6.9095,2.7846 -9.5896,3.298 -19.661,3.7666 l -11.661,0.5425 11.661,17.5101 c 6.4135,9.6305 19.515,29.4305 29.1144,44 9.5993,14.5694 29.2071,44.2736 43.5727,66.0093 14.3656,21.7357 27.2887,41.5357 28.7179,44 4.3309,7.4674 6.04,15.1555 5.5673,25.0428 -0.3635,7.6028 -0.9004,9.7275 -4.0684,16.0983 -6.8168,13.7086 -16.7532,22.4282 -31.8266,27.9294 l -7.9739,2.9101 h -100.4267 -100.4267 l -0.2945,38.25 c -0.2844,36.9317 -0.3686,38.3883 -2.444,42.2631 -2.7308,5.0985 -6.4332,8.8008 -11.1432,11.1432 -3.5019,1.7415 -8.3348,1.8563 -87.2073,2.0716 l -83.5,0.2279 z m 392.9873,-104.5569 c 7.3164,-2.5715 16.9819,-8.9808 21.1397,-14.018 5.8121,-7.0413 8.6886,-14.5477 8.6257,-22.5087 -0.03,-3.85 -0.6606,-8.8 -1.4005,-11 -0.7398,-2.2 -18.0561,-29.2 -38.4806,-60 -20.4246,-30.8 -43.641,-65.8682 -51.5921,-77.9292 -7.951,-12.0611 -19.6872,-29.8361 -26.0803,-39.5 l -11.6238,-17.5708 23.1238,-0.5127 c 26.5249,-0.588 28.5663,-1.1119 37.7275,-9.681 8.4946,-7.9457 11.4788,-16.9416 8.957,-27.0007 -1.2312,-4.9115 -2.8789,-7.4465 -102.754,-158.0943 -21.6186,-32.6088 -39.3075,-59.6088 -39.3085,-60 -10e-4,-0.3912 5.6519,-0.5727 12.5619,-0.4033 19.404,0.4758 26.8775,-1.9522 31.0914,-10.1008 3.7686,-7.2878 3.7544,-7.316 -26.882,-53.4803 -15.5954,-23.4998 -36.3632,-54.8769 -46.1507,-69.7269 -9.7874,-14.85 -29.1181,-44.1106 -42.9571,-65.0235 -13.8389,-20.9129 -28.7616,-43.6379 -33.1616,-50.5 -4.4,-6.8621 -9.7221,-14.3643 -11.8268,-16.6717 -8.8894,-9.7449 -25.7138,-9.4485 -33.6713,0.5932 -1.5699,1.9811 -14.2856,20.927 -28.2573,42.102 -13.9716,21.175 -34.3205,52 -45.2198,68.5 -17.7655,26.8945 -28.65241,43.3536 -75.34725,113.912 -11.63868,17.5867 -13.1776,20.4014 -13.1776,24.1021 0,4.5634 2.73715,9.5059 7,12.64 3.746,2.7541 12.93141,4.0448 26.16057,3.676 6.51319,-0.1816 11.84154,-0.188 11.8408,-0.014 -0.004,1.0147 -5.44025,9.3937 -34.82781,53.6843 -35.38945,53.3361 -63.01229,95.1429 -80.93907,122.5 -6.30714,9.625 -14.05382,21.325 -17.21482,26 -8.55667,12.6549 -9.38342,14.5941 -9.40897,22.069 -0.0409,11.9515 6.23074,20.9768 19.11231,27.5038 l 5.77699,2.9272 22.72005,0.3173 22.72005,0.3173 -2.6382,4.1827 c -1.45101,2.3005 -15.321,23.3077 -30.82221,46.6827 -60.34235,90.993 -90.85504,137.6851 -92.79535,142 -3.10678,6.909 -3.42124,18.0658 -0.71159,25.2466 3.94423,10.4527 15.69669,20.9458 27.7892,24.8115 5.51103,1.7617 17.59855,1.8364 305.513,1.8881 295.9278,0.053 299.8471,0.029 305.3893,-1.9195 z m -316.7315,-330.6742 c -1.412,-0.2476 -5.3986,-1.8963 -8.8591,-3.6638 -7.2653,-3.711 -12.1619,-9.5552 -12.4127,-14.815 -0.1412,-2.9606 0.1402,-3.3737 2.2981,-3.3737 1.9834,0 2.5907,0.6441 3.1402,3.3307 1.601,7.828 11.3176,13.2527 24.999,13.9569 11.3231,0.5827 18.4769,-1.433 24.373,-6.8679 2.872,-2.6473 4.5354,-5.1414 4.9684,-7.4497 0.4834,-2.5767 1.1623,-3.47 2.6371,-3.47 2.698,0 3.3409,2.2044 1.9086,6.5445 -1.8074,5.4763 -6.2384,9.8427 -13.2084,13.0157 -5.488,2.4983 -7.5967,2.8817 -16.7769,3.05 -5.775,0.1058 -11.6553,-0.01 -13.0673,-0.2577 z m 36.8123,-9.1442 c 3.556,-4.2899 2.6535,-4.4914 -2.745,-0.6129 -2.75,1.9757 -5,3.8238 -5,4.1068 0,1.4662 5.8036,-1.1519 7.745,-3.4939 z m -47.6081,-0.3525 c -2.5375,-2.2859 -3.6422,-2.7454 -4.5,-1.8718 -1.4663,1.4934 1.984,4.4925 5.4454,4.7333 2.3157,0.1612 2.2758,0.041 -0.9454,-2.8615 z m -6.5582,-5.6296 c -1.722,-1.6493 -1.7433,-1.628 -0.4784,0.4783 0.7282,1.2125 1.5392,1.9893 1.8023,1.7262 0.2631,-0.2631 -0.3327,-1.2551 -1.3239,-2.2045 z m -72.3944,4.2117 c -14.35901,-3.8642 -26.07814,-16.5186 -29.32702,-31.6676 -1.67422,-7.8066 -0.48156,-17.8392 3.00689,-25.2938 8.73809,-18.6729 27.96653,-27.9279 48.30953,-23.2523 7.3063,1.6793 19.2796,9.8868 23.5131,16.118 6.7748,9.9719 9.1331,25.1655 5.7004,36.7263 -6.1859,20.8328 -29.3942,33.2383 -51.2029,27.3694 z m 19.4189,-2.9503 c 1.6003,-1.6003 3.2324,-2.3809 4.2009,-2.0093 1.2616,0.4841 1.2076,0.1922 -0.2652,-1.4353 -1.0169,-1.1237 -1.3557,-2.043 -0.753,-2.043 0.6028,0 1.3406,0.3957 1.6395,0.8793 0.7769,1.2571 4.5746,2.1097 4.5746,1.0271 0,-0.4986 -0.684,-0.9064 -1.5199,-0.9064 -2.2868,0 -8.798,-4.4006 -11.813,-7.9838 -2.1281,-2.529 -2.6387,-4.1142 -2.5263,-7.8429 l 0.1408,-4.6733 0.6316,5.1933 c 0.752,6.1837 3.6881,9.8074 9.3115,11.4922 3.1923,0.9564 4.4337,0.8709 7.3168,-0.5039 6.5471,-3.1221 9.08,-10.4622 5.9132,-17.1357 -1.732,-3.65 -4.5944,-5.5022 -10.1737,-6.5833 -3.7163,-0.7201 -3.7267,-0.7346 -0.6044,-0.8476 2.1207,-0.077 3.3287,-0.6967 3.634,-1.865 0.371,-1.4196 0.4793,-1.3571 0.5734,0.331 0.064,1.1568 1.3012,2.7112 2.7848,3.5 1.4679,0.7804 3.8831,3.0913 5.367,5.1354 1.4839,2.044 3.0462,3.394 3.4718,3 0.4255,-0.3941 0.5033,0.6336 0.1727,2.2836 -0.3305,1.65 -0.3723,2.4852 -0.093,1.8561 0.2795,-0.6291 1.4133,-0.9071 2.5194,-0.6179 1.4573,0.3811 2.1638,-0.058 2.5657,-1.5949 0.3051,-1.1665 1.0099,-1.8395 1.5663,-1.4956 0.6379,0.3942 0.8548,-0.7183 0.5871,-3.0112 -0.2335,-2.0001 -0.01,-3.6365 0.4971,-3.6365 0.5069,0 0.4294,-0.5932 -0.1723,-1.3182 -0.8081,-0.9736 -0.6797,-1.9096 0.491,-3.581 2.9534,-4.2166 -0.7108,-23.0559 -4.2223,-21.7084 -0.8817,0.3384 -1.1129,-0.028 -0.6988,-1.1074 0.4485,-1.1686 0.2498,-1.3849 -0.7208,-0.785 -0.9596,0.593 -1.171,0.3878 -0.7448,-0.7228 0.458,-1.1935 0.094,-1.4218 -1.5801,-0.9906 -1.9325,0.4977 -2.0221,0.3735 -0.8027,-1.1132 1.1797,-1.4385 1.149,-1.6734 -0.2186,-1.6734 -1.0732,0 -1.3832,-0.5417 -0.9525,-1.6641 0.4293,-1.1189 0.2552,-1.4271 -0.5314,-0.941 -0.6435,0.3977 -1.1699,0.2999 -1.1699,-0.2172 0,-2.0102 -6.5352,-7.1897 -9.9276,-7.8682 -1.9648,-0.393 -3.9282,-0.6173 -4.363,-0.4985 -0.4347,0.1188 -1.6449,-0.2413 -2.6893,-0.8002 -1.3005,-0.6961 -2.1035,-0.685 -2.5485,0.035 -0.4037,0.6533 -1.0893,0.7029 -1.8107,0.1312 -0.6385,-0.5061 -1.9506,-0.7925 -2.9157,-0.6364 -1.0067,0.1628 -1.4814,-0.1585 -1.1135,-0.7537 1.0432,-1.688 -8.5433,-0.1006 -9.7882,1.6208 -0.3611,0.4993 -2.3861,1.0148 -4.5,1.1457 -2.114,0.1308 -4.325,0.2849 -4.9135,0.3422 -0.5885,0.057 -2.96625,1.7275 -5.28383,3.7112 -3.62957,3.1068 -4.03579,3.8347 -2.92999,5.25 1.14802,1.4694 1.09697,1.4966 -0.48283,0.257 -1.56263,-1.2262 -2.05318,-1.053 -4.24877,1.5 -1.3652,1.5874 -2.48273,3.6471 -2.4834,4.5772 -6.8e-4,0.93 -0.45123,1.9691 -1.00123,2.309 -0.55,0.3399 -1,1.5665 -1,2.7257 0,1.1592 0.2961,1.8115 0.658,1.4496 0.36189,-0.3619 1.27596,-0.1451 2.03125,0.4817 1.05506,0.8757 1.65782,0.7506 2.60128,-0.5397 1.02392,-1.4003 1.24137,-0.6964 1.30837,4.2347 0.0942,6.9313 2.10979,10.9881 7.70747,15.5124 3.24228,2.6206 4.81598,3.1336 10.61878,3.4615 3.9515,0.2233 7.8123,-0.1024 9.1936,-0.7757 2.2498,-1.0965 2.2751,-1.0754 0.4575,0.3819 -3.0201,2.4215 -7.6052,2.7774 -13.5762,1.0537 -3.025,-0.8733 -6.66448,-1.7131 -8.08769,-1.8664 -1.4232,-0.1532 -3.66083,-1.0303 -4.9725,-1.949 -2.10668,-1.4756 -1.98942,-2.1519 0.31014,-1.7888 1.13898,0.1798 0.94292,-0.5215 -1.5,-5.3654 -1.39905,-2.774 -2.93416,-4.4717 -4.05901,-4.4888 -0.99496,-0.015 -1.5309,-0.4774 -1.19099,-1.0274 0.92017,-1.4889 -0.43422,-1.2087 -2.07142,0.4285 -0.78572,0.7858 -1.42858,2.3342 -1.42858,3.441 0,1.1069 -0.47634,2.3068 -1.05854,2.6667 -0.60887,0.3763 -0.79795,1.9944 -0.44509,3.809 0.3374,1.7351 0.8495,4.3923 1.138,5.9048 0.2885,1.5125 1.10869,2.75 1.82264,2.75 2.39705,0 3.65976,2.5627 2.61574,5.3086 -0.78094,2.0541 -0.54432,3.1021 1.21279,5.3717 5.13771,6.6361 8.64753,8.9866 10.56127,7.0729 0.87094,-0.871 1.15324,-0.7633 1.15324,0.4398 0,1.4997 2.601,3.3148 4.25,2.9657 0.4125,-0.087 0.75,0.2772 0.75,0.8099 0,0.5327 0.7531,0.6796 1.6736,0.3264 1.3237,-0.508 1.5217,-0.2465 0.9471,1.2509 -0.3995,1.0412 -0.4241,1.5908 -0.055,1.2212 0.3696,-0.3695 1.2589,-0.085 1.9763,0.6325 0.8003,0.8002 4.23,1.3818 8.8741,1.5047 6.9651,0.1844 7.7787,-0.01 10.1867,-2.4167 z m 23.9998,-21.6543 c 0.2832,-0.4583 0.9384,-0.8333 1.456,-0.8333 0.5175,0 0.941,0.375 0.941,0.8333 0,0.4583 -0.6553,0.8333 -1.4561,0.8333 -0.8008,0 -1.2242,-0.375 -0.9409,-0.8333 z m -25.8463,-8.5833 c 1.2951,-1.2375 2.8922,-2.2363 3.549,-2.2196 0.6568,0.017 0.2943,0.5297 -0.8057,1.14 -1.1,0.6102 -2.6971,1.6091 -3.5491,2.2196 -0.8519,0.6105 -0.4893,0.098 0.8058,-1.14 z m 1.9981,-7.4603 c 2.7603,-5.5333 2.7505,-12.5993 -0.025,-18.0033 -1.3315,-2.5924 -2.034,-4.4744 -1.5611,-4.1821 1.5703,0.9705 4.7691,8.1547 5.4069,12.1435 0.4696,2.9364 0.1003,4.9671 -1.4592,8.0239 -1.1483,2.2509 -2.5136,4.3557 -3.0339,4.6773 -0.5203,0.3215 -0.2178,-0.8751 0.6723,-2.6593 z m 4.2452,-11.8487 c 0,-0.5825 0.45,-0.7809 1,-0.441 0.55,0.3399 1,0.8165 1,1.059 0,0.2425 -0.45,0.441 -1,0.441 -0.55,0 -1,-0.4766 -1,-1.059 z m -41.00005,-4.096 c 0,-0.3006 0.47992,-1.9233 1.06648,-3.6059 2.01599,-5.7831 12.84597,-11.1307 21.68357,-10.7069 3.3276,0.1596 4.2533,-0.1473 4.2653,-1.4142 0.013,-1.3711 0.1555,-1.3964 0.934,-0.1658 0.5053,0.7988 0.7,1.8061 0.4327,2.2386 -0.2672,0.4324 0.2176,0.5163 1.0774,0.1864 1.1806,-0.4531 1.3956,-0.163 0.8783,1.185 -0.5541,1.4439 -0.3232,1.6462 1.2082,1.0585 1.0412,-0.3995 1.5732,-0.4065 1.1822,-0.016 -0.3909,0.391 -0.2096,1.3148 0.403,2.0529 1.6773,2.021 0.061,1.6146 -3.4114,-0.8576 -2.0296,-1.4452 -5.0344,-2.3402 -8.7617,-2.6098 -8.0929,-0.5854 -13.96811,2.179 -17.93909,8.4405 -1.66043,2.6183 -3.01896,4.5145 -3.01896,4.2139 z m 15.00005,-16.904 c 0,-0.5825 0.45,-0.7809 1,-0.441 0.55,0.3399 1,0.8165 1,1.059 0,0.2425 -0.45,0.441 -1,0.441 -0.55,0 -1,-0.4766 -1,-1.059 z m 37.6104,65.4372 c 2.1393,-1.4421 4.3099,-3.3501 4.8237,-4.2402 1.2451,-2.1572 1.3746,-6.1378 0.1756,-5.3968 -0.5371,0.3319 -0.6722,-0.1361 -0.3111,-1.0772 1.0704,-2.7894 -0.6757,-1.7826 -2.8174,1.6245 -1.1103,1.7663 -3.667,4.2794 -5.6815,5.5847 -3.179,2.0598 -3.508,2.6211 -2.4907,4.25 1.4995,2.4011 1.6626,2.3818 6.3014,-0.745 z m -47.6305,-25.9024 c -0.69572,-0.8383 -1.47088,-1.3182 -1.72258,-1.0665 -0.6935,0.6935 0.71554,2.5907 1.9241,2.5907 0.66309,0 0.58723,-0.5738 -0.20152,-1.5242 z m -7.97995,-15.9168 c 0,-0.2425 -0.45,-0.7191 -1,-1.059 -0.55,-0.3399 -1,-0.1415 -1,0.441 0,0.5824 0.45,1.059 1,1.059 0.55,0 1,-0.1985 1,-0.441 z m 200.62435,50.3301 c -14.1281,-3.3174 -26.5433,-15.613 -30.2132,-29.9224 -4.9368,-19.2487 4.2254,-38.7356 22.4465,-47.7409 7.2626,-3.5894 7.925,-3.7258 18.0905,-3.7258 9.7723,0 11.0453,0.2338 17.2315,3.1645 16.2563,7.7016 24.8573,22.7599 23.547,41.2254 -1.8076,25.4736 -25.8998,42.9169 -51.1023,36.9992 z m 14.9297,-1.8016 c -0.3101,-0.5019 0.5399,-0.7913 1.889,-0.6432 1.3627,0.1496 2.6859,-0.3379 2.9771,-1.0968 0.2883,-0.7514 0.8742,-1.3086 1.302,-1.2384 2.6416,0.4337 6.3021,-0.2609 5.7849,-1.0977 -0.3524,-0.5702 0.056,-0.7325 0.9658,-0.3835 1.219,0.4678 9.3746,-3.7035 9.5649,-4.8921 0.021,-0.1297 0.2888,-2.0358 0.5956,-4.2358 l 0.5577,-4 -3.7844,3.5 -3.7845,3.5 2.6889,-3.3267 c 4.3807,-5.4198 3.4011,-13.1946 -2.2652,-17.9785 -1.3116,-1.1074 -1.2167,-1.1463 0.6266,-0.2563 1.1948,0.5769 3.0476,2.1614 4.1172,3.5212 1.0697,1.3599 2.1693,2.248 2.4437,1.9736 0.2743,-0.2743 0.3739,0.6395 0.2211,2.0309 -0.1875,1.7082 0.512,3.1508 2.1543,4.4426 1.6598,1.3057 2.0286,2.0752 1.1616,2.4241 -0.9357,0.3765 -0.9504,0.532 -0.055,0.5901 1.336,0.087 3.7671,-3.7724 2.9138,-4.6257 -0.2934,-0.2934 0.101,-1.1679 0.8765,-1.9433 0.7754,-0.7755 1.1559,-2.0719 0.8454,-2.881 -0.3105,-0.809 -0.085,-1.471 0.5022,-1.471 1.1387,0 1.2606,-1.3117 1.2021,-12.9356 -0.024,-4.85 -0.4752,-7.7135 -1.2962,-8.2347 -0.9263,-0.5881 -0.9423,-0.8031 -0.061,-0.8144 0.8966,-0.012 0.9349,-0.7702 0.1522,-3.0153 -0.5752,-1.65 -1.4783,-3 -2.007,-3 -0.5286,0 -0.7147,-0.3989 -0.4134,-0.8863 0.3013,-0.4875 -0.44,-1.1447 -1.6473,-1.4604 -1.2073,-0.3157 -1.8693,-0.8998 -1.4712,-1.2979 0.3982,-0.3982 -0.7465,-2.3089 -2.5437,-4.2461 -1.7971,-1.9373 -2.3885,-2.8668 -1.3141,-2.0658 1.9379,1.4449 1.9379,1.4349 0,-1.2621 -1.0744,-1.4952 -2.5159,-2.7327 -3.2034,-2.75 -0.6875,-0.017 -1.25,-0.3981 -1.25,-0.8462 0,-1.4803 -7.0814,-4.2241 -12.2227,-4.7358 -2.7805,-0.2768 -5.4429,-0.7427 -5.9164,-1.0354 -0.4735,-0.2926 -0.8609,-0.1255 -0.8609,0.3714 0,0.4968 -2.5875,0.8045 -5.75,0.6837 -3.1625,-0.1209 -6.7054,0.1413 -7.8731,0.5825 -1.1903,0.4499 -2.5403,0.385 -3.0729,-0.1476 -1.1285,-1.1285 -7.3355,1.224 -9.2197,3.4944 -0.6911,0.8327 -0.9233,2.0532 -0.5159,2.7123 0.4517,0.7308 0.3171,0.9366 -0.3448,0.5275 -0.597,-0.369 -1.3681,-0.2135 -1.7136,0.3455 -0.8403,1.3597 4.5821,1.3154 8.1749,-0.067 1.5483,-0.5956 5.0651,-1.0943 7.8151,-1.1081 2.75,-0.014 4.4375,-0.2389 3.75,-0.5003 -1.8317,-0.6964 -1.5367,-1.649 1,-3.2287 2.0594,-1.2826 2.1338,-1.2606 0.8775,0.2594 -1.8078,2.1874 -0.3376,2.1297 2.2765,-0.089 1.9928,-1.6917 2.0121,-1.6863 0.5787,0.1626 -1.1356,1.4648 -1.1901,2.0111 -0.2327,2.3333 0.6875,0.2314 1.25,1.0848 1.25,1.8964 0,0.8117 0.4448,1.2008 0.9885,0.8648 0.5669,-0.3504 0.7345,0.051 0.393,0.9409 -0.3275,0.8536 -0.182,1.552 0.3234,1.552 0.5054,0 1.9843,1.4625 3.2865,3.25 2.2754,3.1234 2.1922,3.0942 -2.1374,-0.75 -2.4777,-2.2 -4.4026,-4.225 -4.2774,-4.5 0.4744,-1.0426 -12.7881,-1.0853 -15.9213,-0.051 -3.8706,1.2774 -10.0949,7.3786 -11.5958,11.3664 -0.5828,1.5483 -1.0595,5.1087 -1.0595,7.9121 0,5.7777 3.1384,12.1598 7.7382,15.736 2.5879,2.0121 2.6044,2.0705 0.2618,0.9286 -1.375,-0.6702 -2.9857,-1.877 -3.5792,-2.6818 -0.8891,-1.2055 -1.4882,-1.2443 -3.4016,-0.2203 -2.008,1.0746 -2.2402,1.0284 -1.7145,-0.3414 0.3343,-0.8713 0.216,-1.8265 -0.263,-2.1225 -0.479,-0.2961 -1.0774,0.027 -1.3298,0.7179 -0.2524,0.691 -0.4034,0.057 -0.3354,-1.41 0.068,-1.4664 0.468,-2.5914 0.8892,-2.5 0.4211,0.091 0.8711,-3.6787 1,-8.3781 0.17,-6.2027 0.722,-9.2887 2.0137,-11.2599 1.2086,-1.8442 1.369,-2.632 0.5,-2.4556 -0.7037,0.143 -1.1707,-0.2912 -1.0379,-0.9648 0.1835,-0.9304 -0.328,-0.9652 -2.1282,-0.145 -2.334,1.0634 -6.7482,8.953 -7.0148,12.5378 -0.075,1.0076 -0.6481,2.7359 -1.2736,3.8407 -1.036,1.8302 -1.6681,7.1041 -1.4218,11.8636 0.084,1.629 0.3145,1.694 1.7703,0.5 1.4867,-1.2193 1.6109,-1.1298 1.1132,0.8028 -0.4077,1.5828 -0.1826,2.0302 0.8265,1.643 0.7628,-0.2927 1.3869,-0.034 1.3869,0.5748 0,0.6088 -0.5625,1.1139 -1.25,1.1223 -0.9049,0.011 -0.9341,0.2182 -0.1056,0.75 0.6295,0.4041 1.1148,2.8492 1.0786,5.4336 -0.051,3.6061 0.5966,5.6548 2.7829,8.8097 2.5393,3.6641 6.4941,7.0057 6.4941,5.4871 0,-0.316 0.6277,0.01 1.395,0.7148 0.7673,0.7092 1.1609,1.6752 0.8748,2.1466 -0.2862,0.4714 0.4628,0.5451 1.6643,0.1638 1.6794,-0.533 2.908,0.064 5.3136,2.5809 1.8262,1.9109 4.6121,3.5645 6.6907,3.9712 5.3669,1.0503 15.2618,1.0601 14.6156,0.015 z m 8.049,-5.2542 c 0.2832,-0.4583 -0.9741,-0.8946 -2.794,-0.9695 -2.3478,-0.097 -2.6555,-0.2621 -1.059,-0.5696 1.2375,-0.2383 2.25,-0.927 2.25,-1.5304 0,-0.6035 -0.288,-0.8092 -0.6399,-0.4573 -0.352,0.352 -2.3682,-0.7288 -4.4804,-2.4018 -4.5339,-3.5909 -6.8431,-9.5396 -5.1035,-13.1474 0.9565,-1.9838 1.0966,-1.691 1.1561,2.416 0.1134,7.8287 7.5016,14.0108 14.6117,12.2263 2.7057,-0.6791 2.718,-0.6609 0.8507,1.2606 -1.1814,1.2157 -2.1566,1.5635 -2.5904,0.9237 -0.3826,-0.5643 -1.0092,-0.7124 -1.3925,-0.3291 -0.3833,0.3833 -0.1899,1.3077 0.4298,2.0543 0.8602,1.0365 0.786,1.3575 -0.3135,1.3575 -0.7921,0 -1.2084,-0.375 -0.9251,-0.8333 z m -23.9647,-19.3333 c 0.3166,-0.825 1.54,-1.4478 2.7186,-1.384 1.6904,0.091 1.7734,0.2126 0.3931,0.5733 -0.9625,0.2515 -1.75,0.8743 -1.75,1.384 0,0.5097 -0.4359,0.9267 -0.9687,0.9267 -0.5327,0 -0.7096,-0.675 -0.393,-1.5 z m -3.9573,-3.7951 c -2.495,-1.0664 -1.8417,-1.2049 5.6842,-1.2049 7.2026,0 8.1692,0.1858 6.319,1.2145 -2.7822,1.5471 -8.3717,1.5426 -12.0032,-0.01 z m 18.181,-0.3655 c 2.4566,-4.7706 13.6787,-8.5095 15.7042,-5.2323 0.4644,0.7515 -0.026,0.8816 -1.528,0.405 -3.7105,-1.1776 -8.6868,0.3747 -12.0725,3.7661 -2.2715,2.2754 -2.8895,2.5871 -2.1037,1.0612 z m -2.862,-1.7032 c 0,-0.275 1.35,-1.4613 3,-2.6362 1.65,-1.1749 3,-1.9112 3,-1.6362 0,0.275 -1.35,1.4613 -3,2.6362 -1.65,1.1749 -3,1.9112 -3,1.6362 z m 8.1007,-9.1362 c 1.6327,-3.191 1.9574,-5.3148 1.6055,-10.5 -0.411,-6.0559 -0.3508,-6.295 0.8812,-3.5 0.7273,1.65 1.3401,3.675 1.3619,4.5 0.077,2.9216 -2.0256,8.8716 -3.9472,11.17 -1.8378,2.198 -1.8322,2.1035 0.099,-1.67 z m 4.7804,-8.7186 c 0.4604,-2.7769 0.6012,-2.9178 0.9161,-0.9161 0.2046,1.3009 -0.04,2.7776 -0.544,3.2814 -0.5548,0.5548 -0.7015,-0.3781 -0.3721,-2.3653 z m 226.6189,386.2186 c 1.1,-1.6469 2.6028,-2.9956 3.3397,-2.9971 3.1379,-0.01 9.4237,-10.503 9.724,-16.2376 0.1303,-2.4895 -0.1811,-3.5483 -0.9341,-3.1758 -0.6213,0.3073 -0.4438,-0.037 0.3945,-0.7654 1.1052,-0.9602 1.3677,-2.4454 0.9553,-5.4042 -0.5566,-3.993 0.8834,-7.131 2.5743,-5.6098 0.4218,0.3794 0.4432,0.1274 0.048,-0.5601 -0.3957,-0.6875 -1.4803,-1.2569 -2.4104,-1.2653 -1.0152,-0.01 -1.2684,-0.3089 -0.6336,-0.75 0.5816,-0.4041 1.017,-2.9982 0.9676,-5.7647 -0.096,-5.3523 -2.0675,-9.4775 -8.1924,-17.1383 -1.8329,-2.2926 -3.3325,-4.6816 -3.3325,-5.309 0,-0.6274 -0.3991,-0.8942 -0.8867,-0.5928 -1.2311,0.7609 -3.4342,-2.1017 -2.6251,-3.4109 0.3632,-0.5877 0.095,-0.9449 -0.597,-0.7938 -0.6917,0.1511 -2.2708,-1.7502 -3.5092,-4.2252 -1.2384,-2.475 -2.6185,-4.9676 -3.0668,-5.5391 -0.4484,-0.5715 -0.9534,-1.6611 -1.1223,-2.4213 -0.439,-1.9756 -7.8649,-14.3093 -9.9988,-16.6068 -0.9873,-1.0631 -2.0958,-2.7203 -2.4633,-3.6828 -0.3674,-0.9625 -1.4322,-1.75 -2.3661,-1.75 -0.934,0 -1.414,-0.2841 -1.0667,-0.6314 0.8617,-0.8617 -2.039,-4.8576 -3.5673,-4.9141 -0.6769,-0.025 -1.0977,-0.6491 -0.9351,-1.3869 0.1626,-0.7379 -0.629,-2.3258 -1.7591,-3.5288 -1.1302,-1.2029 -1.7613,-2.4807 -1.4026,-2.8395 0.3588,-0.3587 -0.087,-0.936 -0.9908,-1.2828 -0.9037,-0.3468 -1.6448,-1.3699 -1.6469,-2.2735 0,-1.5256 -2.7823,-6.7542 -5.0323,-9.4689 -0.5352,-0.6458 -2.81,-3.9891 -5.055,-7.4297 -2.3237,-3.5611 -4.5419,-5.9713 -5.1499,-5.5955 -0.6381,0.3943 -0.7753,0.1864 -0.3408,-0.5166 0.4297,-0.6953 -1.1326,-3.2452 -3.8192,-6.2334 -2.5006,-2.7812 -4.505,-5.3587 -4.4543,-5.7278 0.2971,-2.1648 -0.2712,-4.211 -1.0381,-3.7371 -0.4913,0.3037 -1.1862,-0.6149 -1.5442,-2.0413 -0.9277,-3.6962 -4.745,-8.5367 -6.2706,-7.9512 -0.842,0.3231 -1.2918,-0.3687 -1.2918,-1.9867 0,-2.6676 -7.9179,-15.6236 -9.1013,-14.8923 -0.3917,0.2421 -0.4923,-0.4009 -0.2234,-1.4289 0.3511,-1.3428 -0.5217,-2.4936 -3.0995,-4.0868 -1.9736,-1.2197 -3.3562,-2.5932 -3.0725,-3.0522 0.2836,-0.4589 -0.5011,-1.6747 -1.7438,-2.7016 -2.8644,-2.367 -5.0066,-6.0843 -4.2302,-7.3405 0.3284,-0.5314 -0.3313,-2.2701 -1.4661,-3.8637 -1.1348,-1.5937 -2.0632,-3.3775 -2.0632,-3.9641 0,-0.5865 -2.3245,-3.3306 -5.1655,-6.0979 -5.1259,-4.9929 -7.2678,-10.0268 -4.2663,-10.0268 0.7875,0 1.4386,0.5625 1.4471,1.25 0.01,0.8044 0.2771,0.8816 0.75,0.2165 0.404,-0.5684 1.4097,-0.9911 2.2347,-0.9393 0.825,0.052 2.5125,-0.2595 3.75,-0.6918 1.3325,-0.4654 2.25,-0.3883 2.25,0.1893 0,2.2204 17.9908,0.4904 24,-2.3079 3.7707,-1.7558 7.0118,-4.3717 6.2994,-5.0841 -0.348,-0.348 -0.092,-0.6327 0.5691,-0.6327 0.8919,0 0.9258,-0.5157 0.1315,-2 -0.5887,-1.1 -1.6171,-1.9931 -2.2852,-1.9847 -0.7632,0.01 -0.6571,0.3757 0.2852,0.9847 0.825,0.5331 1.0275,0.9762 0.45,0.9847 -0.5775,0.01 -1.4893,-0.424 -2.0262,-0.9608 -0.6348,-0.6349 -3.2058,-0.301 -7.3532,0.9547 -3.5074,1.0619 -8.8795,2.201 -11.9379,2.5313 -3.0585,0.3303 -6.027,0.9464 -6.5968,1.3693 -1.3174,0.9776 -15.7492,1.2749 -15.1542,0.3121 0.2439,-0.3946 -1.9923,-0.7875 -4.9692,-0.8733 -4.6174,-0.1331 -5.4125,0.1104 -5.4125,1.6572 0,1.8764 5.1244,8.0248 6.6884,8.0248 0.4873,0 0.9588,-0.9671 1.0478,-2.1491 0.2034,-2.6995 1.9246,-4.5874 1.9458,-2.1343 0.01,0.9809 -0.479,2.114 -1.0833,2.5181 -0.631,0.4219 -0.1409,0.7412 1.1513,0.75 2.3179,0.016 3.0173,1.423 1.25,2.5153 -0.55,0.3399 -1.0317,0.029 -1.0703,-0.691 -0.039,-0.72 -0.4219,-0.409 -0.8515,0.691 -0.9132,2.338 0.7323,5.5 2.8623,5.5 1.0968,0 1.1748,0.2847 0.3136,1.1459 -0.8612,0.8612 -0.6291,2.1655 0.9343,5.25 1.1441,2.2572 2.407,4.3291 2.8064,4.6041 0.3993,0.275 1.42,1.85 2.2682,3.5 0.8481,1.65 2.9359,4.0259 4.6395,5.2799 1.7036,1.254 3.0975,2.9415 3.0975,3.75 0,0.8085 0.675,1.4701 1.5,1.4701 1.5563,0 2.0631,-1.5205 0.75,-2.25 -0.4125,-0.2292 -0.3,-0.338 0.25,-0.2417 0.55,0.096 1.0308,1.2587 1.0685,2.5833 0.038,1.3246 0.3976,3.1287 0.7998,4.0092 0.4021,0.8804 0.5962,2.2304 0.4314,3 -0.1649,0.7695 0.2962,1.2755 1.0246,1.1244 0.7284,-0.1511 1.0743,0.1297 0.7688,0.6241 -0.5737,0.9282 5.786,11.3948 8.6778,14.2816 0.8986,0.8971 1.3552,1.9096 1.0148,2.25 -0.3405,0.3405 0.054,0.6191 0.877,0.6191 0.9083,0 1.4649,0.8839 1.4167,2.25 -0.055,1.5498 0.4618,2.2073 1.6598,2.1129 0.9566,-0.075 1.4614,0.3124 1.1219,0.8618 -0.3396,0.5494 -0.2131,1.2861 0.2811,1.6371 0.4942,0.351 1.4537,1.9011 2.1324,3.4446 0.6786,1.5435 1.6141,2.5713 2.0789,2.2841 0.4648,-0.2872 1.4201,0.6999 2.123,2.1936 3.1323,6.6565 5.0618,9.6977 6.0056,9.4659 0.5598,-0.1375 0.9452,0.087 0.8564,0.5 -0.2192,1.0179 2.1067,6.582 3.022,7.2296 0.4045,0.2862 1.9053,2.5454 3.335,5.0204 1.4298,2.475 3.9623,6.0595 5.6278,7.9655 1.6655,1.9061 2.8508,3.7528 2.6338,4.1038 -0.2169,0.351 0.8055,1.1849 2.2721,1.8532 1.8759,0.8547 2.2936,1.4453 1.4089,1.9921 -0.9082,0.5613 -0.5466,1.2429 1.3022,2.4543 1.4078,0.9225 2.5597,2.3418 2.5597,3.1541 0,0.8124 0.3987,1.477 0.886,1.477 0.4873,0 1.604,1.513 2.4816,3.3622 0.8775,1.8492 2.252,3.9071 3.0545,4.5731 0.8024,0.666 1.2348,1.795 0.9609,2.5089 -0.2739,0.7138 0.09,1.9184 0.8094,2.6768 0.7192,0.7585 2.399,3.404 3.733,5.879 1.334,2.475 2.688,4.725 3.0089,5 0.3209,0.275 1.7045,2.1844 3.0746,4.2431 1.3701,2.0588 3.0232,3.7463 3.6737,3.75 0.6504,0 1.4703,0.9134 1.822,2.0214 0.3516,1.108 1.0569,1.7564 1.5674,1.441 0.5104,-0.3155 0.928,0.128 0.928,0.9855 0,0.8574 0.45,1.559 1,1.559 0.55,0 1,0.7585 1,1.6855 0,0.9271 1.0125,2.7996 2.25,4.1613 1.2375,1.3616 1.6875,2.1516 1,1.7554 -0.6875,-0.3961 -1.25,-0.3438 -1.25,0.1163 0,0.8975 2.9437,5.4546 4.0576,6.2815 0.6913,0.5132 4.3743,8.3912 7.2462,15.5 3.1101,7.6982 2.1799,14.258 -3.7216,26.2451 -1.4202,2.8848 -2.5822,5.9852 -2.5822,6.8897 0,0.9046 -0.7875,2.2482 -1.75,2.9859 -1.5366,1.1777 -1.5671,1.4771 -0.25,2.4546 1.2926,0.9594 1.2695,1.0399 -0.1673,0.5822 -1.7294,-0.551 -3.2874,1.7978 -2.277,3.4327 0.9412,1.5228 1.8541,1.039 3.9443,-2.0902 z m -5,-68 c -0.34,-0.55 -0.1415,-1 0.4409,-1 0.5825,0 1.0591,0.45 1.0591,1 0,0.55 -0.1985,1 -0.441,1 -0.2426,0 -0.7191,-0.45 -1.059,-1 z m -99.9269,-162.8954 c -1.7242,-0.6755 -1.7505,-0.8226 -0.25,-1.3984 0.9223,-0.3539 1.6769,-0.2389 1.6769,0.2556 0,0.4945 1.0125,1.0941 2.25,1.3324 1.8927,0.3646 1.9324,0.4439 0.25,0.4993 -1.1,0.036 -2.8671,-0.2738 -3.9269,-0.6889 z m -551.14339,228.5729 c -0.35405,-0.9226 -1.29715,-1.6775 -2.09576,-1.6775 -0.79862,0 -1.17391,0.45 -0.834,1 0.33992,0.55 0.38231,1 0.0942,1 -0.28811,0 -1.00008,-0.8899 -1.58216,-1.9775 -0.83733,-1.5646 -0.76822,-1.8662 0.33095,-1.4444 2.07598,0.7966 1.51469,-2.321 -1.46144,-8.1175 -1.42307,-2.7716 -3.13642,-6.7028 -3.80743,-8.736 -0.67102,-2.0332 -1.70674,-3.9976 -2.30159,-4.3652 -0.59485,-0.3676 -0.82006,-0.2453 -0.50046,0.2718 0.3196,0.5171 -0.27945,0.9402 -1.33121,0.9402 -1.25639,0 -1.5742,-0.3381 -0.92658,-0.9857 1.63945,-1.6395 1.14252,-3.5723 -0.76429,-2.9727 -1.60945,0.5061 -1.60465,0.4309 0.0598,-0.9354 1.14945,-0.9435 1.42311,-1.7246 0.75,-2.1406 -0.58292,-0.3603 -1.05295,-1.416 -1.04453,-2.346 0.0132,-1.4573 0.14929,-1.4837 0.98468,-0.191 0.53316,0.825 0.96938,1.05 0.96938,0.5 0,-0.55 -0.41219,-1.6516 -0.91598,-2.4479 -0.72032,-1.1386 -1.05757,-0.8837 -1.57883,1.1932 -0.36457,1.4526 -0.38815,3.0855 -0.0524,3.6287 0.33575,0.5433 0.18458,1.251 -0.33595,1.5727 -1.08631,0.6714 -0.86266,4.4879 0.38091,6.5001 0.59959,0.9701 0.46978,1.1322 -0.45103,0.5631 -1.01448,-0.627 -1.13745,0.03 -0.57102,3.049 1.45732,7.7682 7.85282,17.7971 12.0156,18.8419 1.46985,0.3689 2.53932,1.3513 2.53932,2.3325 0,1.5249 0.15442,1.5408 1.53675,0.1585 0.86938,-0.8694 1.25719,-2.2652 0.89301,-3.2143 z m 651.07029,2.3225 c 0.3399,-0.55 -0.1101,-1 -1,-1 -0.89,0 -1.34,0.45 -1,1 0.3399,0.55 0.7899,1 1,1 0.21,0 0.66,-0.45 1,-1 z m -662.89868,-42.9159 c 0.79583,0.6605 1.76056,0.8873 2.14384,0.504 0.38328,-0.3833 0.0349,-1.1155 -0.77417,-1.6272 -1.17324,-0.742 -1.1932,-0.9334 -0.0986,-0.9456 1.16326,-0.013 1.16326,-0.2732 0,-1.7073 -1.01998,-1.2574 -1.04017,-1.4921 -0.0786,-0.9139 0.72347,0.4351 2.00402,0.1891 2.90493,-0.558 3.00738,-2.494 11.26783,-14.0812 10.69692,-15.005 -0.31231,-0.5053 -0.10484,-1.4766 0.46105,-2.1585 0.6475,-0.7802 0.68509,-1.7833 0.1014,-2.7062 -0.51011,-0.8065 -0.94126,-1.0164 -0.95811,-0.4664 -0.0168,0.55 -0.37874,0.4521 -0.80422,-0.2175 -0.58236,-0.9165 -1.56746,-0.7347 -3.98469,0.7353 -1.7661,1.074 -3.21109,2.436 -3.21109,3.0265 0,0.5905 0.51953,0.7526 1.15451,0.3602 0.6991,-0.4321 0.8837,-0.2754 0.46798,0.3973 -0.3776,0.611 -1.42094,0.829 -2.31856,0.4846 -1.04377,-0.4006 -1.38679,-0.2295 -0.95166,0.4745 0.3742,0.6055 0.25151,1.3659 -0.27263,1.6899 -1.59017,0.9827 -4.09065,6.7223 -3.40908,7.8251 0.35116,0.5682 0.16609,0.7411 -0.41126,0.3843 -1.44279,-0.8917 -2.21332,1.5244 -1.64208,5.149 0.26139,1.6586 0.004,3.3066 -0.57098,3.6622 -0.57543,0.3556 -0.98495,1.6326 -0.91005,2.8376 0.13233,2.1291 0.14864,2.1257 0.5772,-0.1174 0.36043,-1.8866 0.7054,-2.0889 1.88798,-1.1075 z m 18.99296,-28.8231 c -0.31734,-0.3174 -0.0758,-1.1809 0.5368,-1.919 0.61257,-0.7381 0.80302,-1.342 0.42322,-1.342 -0.37979,0 0.24011,-1.307 1.37756,-2.9044 1.13745,-1.5974 2.06809,-3.0766 2.06809,-3.2872 0,-0.8367 -3.99732,-0.6218 -4.53224,0.2438 -0.3144,0.5087 0.12674,0.6569 0.98031,0.3293 0.85356,-0.3275 1.55193,-0.2056 1.55193,0.2709 0,1.291 -3.93578,3.5053 -5.02922,2.8295 -0.52133,-0.3222 -0.69323,0.078 -0.382,0.8888 0.31122,0.8111 -0.35459,2.3951 -1.4796,3.5201 -1.88221,1.8822 -1.9104,2.121 -0.35314,2.9925 1.72148,0.9634 5.99204,-0.4686 4.83829,-1.6223 z m 11.1039,-15.261 c 0.68099,-0.825 1.25248,-2.3141 1.26997,-3.309 0.0175,-0.995 0.37277,-1.5983 0.78952,-1.3408 0.84692,0.5235 11.24168,-14.2067 11.59505,-16.431 0.12401,-0.7806 1.03415,-2.6369 2.02255,-4.1252 0.98839,-1.4884 1.46376,-3.2454 1.05637,-3.9046 -0.50253,-0.8131 -0.31484,-0.9352 0.58374,-0.3799 0.98249,0.6072 1.14557,0.3524 0.63162,-0.9869 -0.55868,-1.4559 -0.42438,-1.5827 0.69355,-0.6549 1.12812,0.9362 1.33393,0.6727 1.10482,-1.4145 -0.21213,-1.9324 0.31477,-2.7917 2.1365,-3.4844 1.32995,-0.5056 2.41808,-1.632 2.41808,-2.5031 0,-0.8711 0.42743,-1.3196 0.94983,-0.9967 0.52241,0.3228 1.4673,-0.3799 2.09977,-1.5617 0.87592,-1.6367 0.87028,-1.9758 -0.0236,-1.4234 -0.81168,0.5017 -0.78072,0.096 0.10038,-1.3146 0.70069,-1.122 1.55134,-1.8685 1.89034,-1.659 0.339,0.2095 1.46118,-1.0571 2.49374,-2.8147 1.03255,-1.7576 2.46512,-3.7903 3.18348,-4.5171 0.71836,-0.7267 1.30611,-1.9964 1.30611,-2.8214 0,-0.825 0.67914,-2.1791 1.5092,-3.0092 0.83005,-0.83 1.2466,-1.934 0.92567,-2.4533 -0.32094,-0.5193 -0.092,-0.8205 0.50871,-0.6694 0.60073,0.1511 2.09667,-1.5252 3.32433,-3.7252 1.22765,-2.2 2.5724,-4.151 2.98832,-4.3354 0.41593,-0.1845 0.50187,-0.747 0.19099,-1.25 -0.31089,-0.5031 0.13631,-0.9146 0.99377,-0.9146 0.85746,0 1.59245,-0.3375 1.63332,-0.75 0.52983,-5.3475 2.57053,-9.5876 4.14581,-8.614 0.72982,0.4511 0.89739,0.1126 0.48121,-0.972 -0.42385,-1.1045 -0.12491,-1.664 0.88908,-1.664 0.84019,0 1.24951,-0.45 0.90959,-1 -0.33991,-0.55 -0.029,-1.0143 0.69099,-1.0318 0.79293,-0.019 0.52051,-0.6328 -0.69099,-1.5561 -1.91983,-1.4632 -1.88626,-1.5041 0.83768,-1.0185 2.16546,0.3859 2.70881,0.1699 2.29368,-0.9119 -0.29921,-0.7797 -0.0441,-1.7266 0.56683,-2.1042 0.67265,-0.4157 0.82937,-0.2311 0.39731,0.468 -0.39244,0.6349 -0.334,1.1545 0.12988,1.1545 0.46388,0 1.70539,-1.4625 2.75893,-3.25 1.05354,-1.7875 2.72556,-4.1224 3.71561,-5.1886 0.99005,-1.0662 1.85751,-2.6412 1.92771,-3.5 0.39913,-4.8832 0.73519,-6.0671 2.11351,-7.4454 0.83642,-0.8364 1.87149,-1.2047 2.30014,-0.8184 0.42866,0.3863 0.45567,0.1399 0.06,-0.5476 -0.39564,-0.6875 -0.21246,-1.25 0.40707,-1.25 0.68012,0 0.86887,-0.8114 0.47639,-2.048 -0.3575,-1.1264 -0.18857,-2.604 0.37541,-3.2836 0.57466,-0.6924 0.66242,-1.8228 0.19966,-2.5716 -0.58169,-0.9412 -1.21721,-0.1924 -2.15015,2.5335 -0.72841,2.1283 -1.39983,4.2072 -1.49204,4.6197 -0.0922,0.4125 -0.2239,0.9908 -0.29265,1.2852 -0.0687,0.2943 -1.01487,0.059 -2.10249,-0.5232 -1.5463,-0.8275 -1.86495,-0.765 -1.46136,0.2867 0.29604,0.7715 -0.50777,1.8116 -1.88499,2.4391 -2.12368,0.9676 -9.52363,11.2622 -8.09548,11.2622 0.3092,0 -0.17084,0.733 -1.06676,1.6289 -0.89591,0.8959 -1.39218,2.2459 -1.10281,3 0.28937,0.7541 0.0637,1.3711 -0.50151,1.3711 -0.5652,0 -0.74908,0.4507 -0.40862,1.0016 0.34045,0.5508 -0.87049,2.4104 -2.69098,4.1324 -1.8205,1.7219 -2.7475,2.8197 -2.06,2.4394 0.6875,-0.3803 1.25,-0.2149 1.25,0.3676 0,0.5824 -0.88587,1.059 -1.96861,1.059 -1.44742,0 -1.80237,0.4633 -1.34067,1.75 0.34537,0.9625 0.25864,1.4149 -0.19274,1.0053 -1.05146,-0.9541 -5.79545,5.9543 -4.98704,7.2624 0.33391,0.5402 -0.0679,0.9823 -0.8929,0.9823 -0.825,0 -1.82109,0.5195 -2.21353,1.1545 -0.48504,0.7848 -0.26379,0.8818 0.69099,0.303 0.77248,-0.4683 -0.058,0.6217 -1.8455,2.4224 -1.7875,1.8007 -3.25,3.9143 -3.25,4.697 0,0.7827 -0.41424,1.4231 -0.92054,1.4231 -0.5063,0 -1.23021,1.4099 -1.6087,3.1331 -0.44618,2.0315 -0.9579,2.6967 -1.4553,1.8919 -0.50794,-0.8219 -1.54476,0.3157 -3.06856,3.3668 -1.26577,2.5345 -2.74664,4.6082 -3.29082,4.6082 -0.54417,0 -0.69331,0.2961 -0.33142,0.658 0.3619,0.3619 0.1568,1.2619 -0.45578,2 -0.61257,0.7381 -0.74766,1.342 -0.30019,1.342 0.44747,0 -0.0599,0.7083 -1.12756,1.5741 -1.06762,0.8658 -1.47505,1.3489 -0.90541,1.0735 0.56964,-0.2755 1.03571,0.3412 1.03571,1.3704 0,1.523 -0.27496,1.6489 -1.47767,0.6766 -0.95559,-0.7726 -1.24053,-0.7986 -0.80647,-0.074 0.36916,0.6165 -0.21946,2.1479 -1.30804,3.403 -1.08859,1.2552 -1.97925,2.6632 -1.97925,3.1291 0,1.9045 -0.2048,2.4158 -1.57344,3.9281 -0.787,0.8697 -1.09244,1.9543 -0.67874,2.4104 0.4137,0.456 0.24258,0.5381 -0.38028,0.1824 -1.42687,-0.8148 -6.36754,2.9861 -6.36754,4.8987 0,0.785 -0.41329,1.4274 -0.91844,1.4274 -0.50514,0 -1.94388,1.6875 -3.19721,3.75 -1.25332,2.0625 -2.57724,3.975 -2.94203,4.25 -1.19117,0.8979 -4.36056,7.4755 -4.07732,8.4618 0.15191,0.529 -0.44833,1.4916 -1.33387,2.1391 -1.36316,0.9967 -1.4,1.3873 -0.24024,2.5471 0.75341,0.7534 1.1722,1.9627 0.93066,2.6873 -0.36193,1.0858 -0.0279,1.0843 1.89967,-0.01 1.28636,-0.7295 2.89602,-2.0014 3.57701,-2.8264 z m 76.30177,-116.6903 c 0,-1.9684 -2.41213,-1.0971 -2.82264,1.0196 -0.225,1.1602 0.15331,1.481 1.25,1.0602 0.86495,-0.3319 1.57264,-1.2679 1.57264,-2.0798 z m 502.00005,-38.8687 c 0,-0.7926 0.45,-1.441 1,-1.441 0.55,0 1,0.4091 1,0.9092 0,0.5001 1.8,0.04 4,-1.0233 2.2,-1.0629 4,-2.5971 4,-3.4093 0,-0.8121 0.4341,-1.4766 0.9648,-1.4766 1.8923,0 3.1659,-4.2144 3.4449,-11.3996 0.1559,-4.0122 0.604,-7.8136 0.9958,-8.4476 0.3919,-0.6341 0.1808,-1.1528 -0.469,-1.1528 -0.8804,0 -0.8642,-0.3822 0.063,-1.5 0.8601,-1.0364 0.8979,-1.5 0.1224,-1.5 -0.6173,0 -1.1224,-0.675 -1.1224,-1.5 0,-0.825 0.54,-1.5 1.2,-1.5 0.8868,0 0.9072,-0.2927 0.078,-1.1219 -0.617,-0.617 -0.8945,-1.7144 -0.6166,-2.4386 0.278,-0.7243 -0.692,-3.7069 -2.1554,-6.6282 -2.8192,-5.6277 -8.4829,-12.0489 -8.5379,-9.68 -0.023,0.9827 -0.4032,0.8796 -1.3489,-0.3658 -0.7244,-0.9539 -1.6101,-1.4414 -1.9682,-1.0833 -0.3581,0.3581 -0.6511,-0.3239 -0.6511,-1.5156 0,-1.1916 -0.5162,-2.0541 -1.147,-1.9166 -0.6826,0.1488 -1.2311,-1.3205 -1.3548,-3.629 -0.1283,-2.3928 -0.8383,-4.2318 -1.8531,-4.7997 -0.9048,-0.5064 -1.6451,-1.7377 -1.6451,-2.7362 0,-0.9985 -0.9,-2.9596 -2,-4.358 -1.1,-1.3984 -2,-2.7935 -2,-3.1001 0,-1.6502 -6.3423,-10.2095 -8.0267,-10.8326 -1.0853,-0.4015 -1.9733,-1.2496 -1.9733,-1.8846 0,-0.79 0.5527,-0.7212 1.75,0.2177 1.586,1.2439 1.6214,1.2085 0.3775,-0.3775 -1.7123,-2.1834 -2.9663,-2.2059 -5.2988,-0.095 -2.0009,1.8107 -2.5589,4.9143 -0.6742,3.7495 0.7243,-0.4477 0.8827,-0.2737 0.425,0.4667 -0.7004,1.1333 7.7323,14.8718 12.2954,20.0318 1.1688,1.3216 2.1251,2.8107 2.1251,3.309 0,0.4983 0.45,0.6279 1,0.288 0.55,-0.3399 1,0.1386 1,1.0634 0,1.4083 0.2528,1.4717 1.5564,0.3897 0.856,-0.7104 1.4823,-0.878 1.3918,-0.3724 -0.2958,1.6526 1.2622,5.4193 2.2417,5.4193 0.5262,0 0.7948,0.7875 0.597,1.75 -0.1979,0.9625 0.3316,2.3458 1.1767,3.0741 0.845,0.7283 0.9739,1.0393 0.2864,0.691 -1.9587,-0.9921 -1.5426,0.047 2.9043,7.2529 2.2849,3.7026 4.6474,7.741 5.25,8.9742 0.6026,1.2332 1.3452,2.2457 1.6501,2.25 0.305,0 0.6607,1.8078 0.7906,4.0078 0.1298,2.2 -0.161,4 -0.6462,4 -0.4853,0 -1.4459,1.9125 -2.1349,4.25 -0.6889,2.3375 -2.5601,6.3942 -4.1582,9.015 -1.5982,2.6208 -2.9057,5.2083 -2.9057,5.75 0,0.5417 -0.9165,1.9014 -2.0365,3.0215 -1.1201,1.12 -1.764,2.4774 -1.4309,3.0163 0.8021,1.2978 2.4674,0.21 2.4674,-1.6118 z m -538.00005,0.5904 c 0,-0.5328 -0.675,-0.7096 -1.5,-0.3931 -0.825,0.3166 -1.5,0.7525 -1.5,0.9687 0,0.2161 0.675,0.393 1.5,0.393 0.825,0 1.5,-0.4359 1.5,-0.9686 z m -4.11721,-6.196 c -1.30625,-1.8345 -2.25626,-3.5604 -2.11113,-3.8354 0.48959,-0.9277 -2.00599,-6 -2.95199,-6 -0.51574,0 -0.68201,-0.4137 -0.36949,-0.9194 0.31251,-0.5057 0.002,-1.5182 -0.69098,-2.25 -0.69256,-0.7318 -1.41807,-2.4556 -1.61226,-3.8306 -0.19418,-1.375 -0.86918,-2.8211 -1.5,-3.2135 -0.63081,-0.3925 -1.03444,-0.955 -0.89694,-1.25 0.69319,-1.4876 0.0853,-2.4106 -1.25,-1.8982 -1.98629,0.7623 -1.93759,4.3617 0.059,4.3617 0.85746,0 1.27637,0.4573 0.9309,1.0163 -0.34546,0.559 -0.97202,0.8038 -1.39235,0.544 -0.42033,-0.2598 -0.76423,0.1426 -0.76423,0.8942 0,0.8098 0.78312,1.2156 1.92235,0.9962 1.58446,-0.3051 1.70942,-0.1136 0.71089,1.0896 -0.66631,0.8028 -0.9425,1.4597 -0.61377,1.4597 0.32873,0 0.14532,1.1898 -0.40757,2.644 -1.98929,5.2323 3.7096,14.782 8.13124,13.6257 1.10479,-0.2889 1.93625,-0.1303 1.84769,0.3525 -0.41066,2.2388 0.21278,2.6694 1.70473,1.1775 1.5052,-1.5052 1.44854,-1.8822 -0.74611,-4.9643 z m -7.56693,-27.0854 c -0.23864,-0.4125 0.0568,-0.75 0.65651,-0.75 0.59972,0 1.38091,-0.7875 1.73596,-1.75 0.35506,-0.9625 1.72193,-3.4777 3.03749,-5.5892 1.31556,-2.1116 2.45435,-4.6679 2.53064,-5.6808 0.0763,-1.0128 0.4953,-1.6211 0.93113,-1.3517 0.77766,0.4806 1.20992,-1.8131 0.84402,-4.4787 -0.10195,-0.7427 0.29473,-1.0536 0.88151,-0.691 1.47059,0.9089 1.34352,-0.7605 -0.18312,-2.4058 -1.02682,-1.1067 -0.89292,-1.2211 0.75,-0.6408 1.53455,0.5421 1.72728,0.4316 0.82815,-0.4746 -0.64452,-0.6496 -0.95134,-1.7558 -0.68183,-2.4581 0.26952,-0.7024 -0.0602,-1.6171 -0.73265,-2.0327 -0.74487,-0.4603 -0.96564,-0.3397 -0.56493,0.3086 0.99188,1.6049 -0.42131,4.4309 -1.92685,3.8532 -0.884,-0.3392 -1.11556,0.026 -0.70102,1.1065 0.38545,1.0045 0.21558,1.3638 -0.45018,0.9524 -1.33023,-0.8222 -6.57086,5.0406 -9.31641,10.4223 -1.41579,2.7752 -1.88748,5.1069 -1.51158,7.4722 0.30451,1.916 0.12,3.4382 -0.41675,3.4382 -0.52975,0 -0.70415,0.675 -0.38757,1.5 0.31658,0.825 1.20246,1.5 1.96861,1.5 0.76616,0 1.42464,0.5625 1.4633,1.25 0.0387,0.6875 0.43235,0.35 0.87487,-0.75 0.44252,-1.1 0.60933,-2.3375 0.3707,-2.75 z m 15.68414,-28.25 c 0,-0.825 -0.5625,-1.5069 -1.25,-1.5153 -0.84651,-0.01 -0.77516,-0.3156 0.22104,-0.9457 0.80908,-0.5116 1.12211,-1.2792 0.69563,-1.7057 -0.42648,-0.4265 -1.19405,-0.1134 -1.70573,0.6956 -1.2319,1.948 -1.19813,2.9711 0.0981,2.9711 0.58246,0 0.7809,0.45 0.44098,1 -0.33991,0.55 -0.14147,1 0.44099,1 0.58246,0 1.05901,-0.675 1.05901,-1.5 z m 4,-3.6667 c 0,-1.0083 0.675,-1.8333 1.5,-1.8333 0.825,0 1.5,-0.3823 1.5,-0.8495 0,-0.4673 1.31801,-2.812 2.9289,-5.2106 1.61089,-2.3985 2.70934,-4.7163 2.44098,-5.1505 -0.26835,-0.4342 0.1309,-0.7894 0.88723,-0.7894 0.75632,0 3.02948,-2.7965 5.05146,-6.2145 3.02013,-5.1052 3.41636,-6.36 2.21987,-7.0296 -1.04779,-0.5863 -1.21577,-1.4481 -0.59867,-3.0712 0.69745,-1.8344 0.51417,-2.2562 -0.98059,-2.2562 -1.27487,0 -1.54506,0.3535 -0.88145,1.1531 1.12325,1.3534 -1.27376,3.834 -2.57006,2.6597 -0.45007,-0.4077 -0.54527,-0.2608 -0.21155,0.3265 0.33372,0.5873 -0.30461,1.7123 -1.41851,2.5 -2.69567,1.9062 -8.03793,9.8476 -7.36121,10.9425 0.29462,0.4767 -0.0945,1.2319 -0.86467,1.6782 -0.77019,0.4463 -2.29155,2.4871 -3.38081,4.535 -1.08925,2.048 -2.26857,3.4355 -2.62069,3.0834 -0.35212,-0.3522 -0.64023,0.3347 -0.64023,1.5264 0,1.1917 0.45,2.1667 1,2.1667 0.55,0 1,0.825 1,1.8333 0,1.0083 0.675,1.8333 1.5,1.8333 0.825,0 1.5,-0.825 1.5,-1.8333 z m 506.25005,-26.7162 c -0.1375,-0.6144 0.1903,-1.1171 0.7285,-1.1171 0.5953,0 0.5324,-0.9792 -0.1605,-2.5 -0.6265,-1.375 -1.5434,-2.5 -2.0376,-2.5 -0.4942,0 -0.5731,-0.5265 -0.1754,-1.17 0.4862,-0.7866 0.1779,-0.9607 -0.941,-0.5313 -0.9152,0.3512 -1.664,0.2026 -1.664,-0.3301 0,-0.5327 0.4765,-0.9686 1.059,-0.9686 0.5824,0 0.7619,-0.4807 0.3988,-1.0682 -0.3631,-0.5875 -1.2548,-0.84 -1.9817,-0.561 -0.9307,0.3571 -1.1937,-0.198 -0.8893,-1.8768 0.2821,-1.5556 -0.1791,-2.7399 -1.3273,-3.4086 -0.9677,-0.5635 -1.3853,-1.0383 -0.928,-1.055 2.335,-0.085 -8.1821,-14.0304 -10.5815,-14.0304 -1.1001,0 -1.75,-0.7648 -1.75,-2.059 0,-1.1325 -0.45,-1.7809 -1,-1.441 -0.55,0.3399 -1,0.1149 -1,-0.5 0,-0.6149 -0.45,-0.8399 -1,-0.5 -0.55,0.3399 -1,0.179 -1,-0.3577 0,-0.5366 0.5625,-1.1865 1.25,-1.4442 0.893,-0.3348 0.7441,-0.859 -0.5213,-1.8355 -0.9742,-0.7518 -2.0036,-2.7159 -2.2876,-4.3648 -0.284,-1.6488 -1.3994,-4.2171 -2.4788,-5.7073 -1.0793,-1.4903 -1.9623,-3.0005 -1.9623,-3.3561 0,-0.3557 -1.4109,-2.428 -3.1353,-4.6052 -2.2173,-2.7995 -3.4471,-3.6469 -4.2,-2.8939 -1.3633,1.3633 -2.6647,1.3661 -2.6647,0.01 0,-0.5825 0.5625,-0.7211 1.25,-0.3081 0.9068,0.5448 0.8867,0.3028 -0.073,-0.8815 -0.749,-0.9243 -2.0175,-1.3661 -2.9236,-1.0184 -1.2053,0.4626 -1.437,0.1882 -0.9383,-1.1114 0.394,-1.0268 0.2619,-1.4781 -0.3264,-1.1145 -1.4092,0.8709 -1.2255,2.1131 0.5793,3.9179 0.8623,0.8623 1.6831,2.6485 1.8239,3.9694 0.3074,2.8831 7.7324,14.6469 8.8204,13.9745 0.4207,-0.2601 0.497,0.2256 0.1694,1.0791 -0.3275,0.8536 -0.097,1.552 0.5115,1.552 1.67,0 4.7871,3.4595 4.3361,4.8125 -0.2177,0.6531 0.3312,1.1875 1.2197,1.1875 1.6105,0 3.7111,3.8293 2.8775,5.2455 -0.6982,1.1861 9.9625,16.694 11.0247,16.0375 0.5269,-0.3256 0.6741,-0.1328 0.3272,0.4285 -0.3469,0.5614 1.3836,3.1531 3.8455,5.7594 2.4619,2.6064 4.4763,5.5519 4.4763,6.5455 0,1.166 0.6204,1.7022 1.75,1.5123 0.9625,-0.1619 1.6375,-0.7971 1.5,-1.4116 z m -2.25,-3.0095 c 0,-0.6741 -0.5196,-0.9046 -1.1546,-0.5121 -0.7442,0.4599 -0.8817,0.2722 -0.3871,-0.5281 0.5453,-0.8823 1.0772,-0.9318 1.8379,-0.1712 0.5887,0.5887 0.7629,1.3779 0.3871,1.7538 -0.3758,0.3758 -0.6833,0.1318 -0.6833,-0.5424 z m -485.00005,-5.5486 c 0,-0.7925 -0.44484,-1.7159 -0.98854,-2.0519 -0.58719,-0.3629 -0.7212,0.086 -0.33006,1.105 0.48212,1.2564 0.30375,1.4967 -0.66597,0.8974 -0.88123,-0.5446 -1.08567,-0.4322 -0.61092,0.336 0.99909,1.6165 2.59549,1.4403 2.59549,-0.2865 z m 7.59949,-4.559 c 0.8352,0 1.26419,-0.4116 0.9533,-0.9146 -0.31089,-0.503 -0.2044,-1.0655 0.23664,-1.25 2.06688,-0.8645 8.04437,-10.105 7.48302,-11.5678 -0.43934,-1.1449 -0.23817,-1.3645 0.71212,-0.7772 0.84348,0.5213 1.0845,0.4304 0.66371,-0.2505 -0.3634,-0.588 -0.32043,-1.2588 0.0955,-1.4906 0.41593,-0.2319 0.19373,-0.2844 -0.49377,-0.1168 -0.6875,0.1676 -1.25,-0.094 -1.25,-0.5806 0,-0.4869 0.5625,-1.0862 1.25,-1.3317 1.62336,-0.5798 0.58363,-1.6745 -2.077,-2.1869 -1.57869,-0.304 -2.97279,0.7883 -5.6353,4.4153 -1.94573,2.6506 -3.5377,5.1736 -3.5377,5.6066 0,0.433 -0.68627,1.5456 -1.52505,2.4725 -0.83878,0.9268 -1.5865,3.3195 -1.66159,5.317 -0.11892,3.1632 -0.34153,3.4721 -1.72495,2.3936 -1.40194,-1.093 -1.42853,-1.0344 -0.22653,0.4989 0.74903,0.9555 1.06694,2.5305 0.70646,3.5 -0.41101,1.1055 0.30814,0.7373 1.9286,-0.9872 1.4212,-1.5125 3.26735,-2.75 4.10255,-2.75 z m 10.90051,-23 c 0.33992,-0.55 0.14148,-1 -0.44098,-1 -0.58246,0 -1.05902,0.45 -1.05902,1 0,0.55 0.19845,1 0.44099,1 0.24254,0 0.7191,-0.45 1.05901,-1 z m 6.5,-5.4686 c 0,-0.8946 0.58629,-1.2437 1.5,-0.8931 0.94985,0.3645 1.5,-0.014 1.5,-1.0313 0,-0.8839 0.39587,-1.607 0.87972,-1.607 1.10285,0 8.71011,-11.9241 8.37028,-13.1201 -0.1375,-0.484 0.18588,-0.8799 0.71862,-0.8799 0.53274,0 0.68127,-0.7488 0.33006,-1.6641 -0.42645,-1.1113 -0.25375,-1.4262 0.51993,-0.948 0.75689,0.4678 0.95204,0.178 0.56295,-0.836 -0.32754,-0.8536 -0.0974,-1.5519 0.51146,-1.5519 0.60884,0 1.10698,-0.9322 1.10698,-2.0715 0,-1.8831 -0.14285,-1.9285 -1.57142,-0.5 -2.03055,2.0306 -2.49578,1.9848 -1.81556,-0.1785 0.52153,-1.6587 0.47557,-1.6595 -0.88026,-0.016 -0.78678,0.954 -1.67901,1.486 -1.98274,1.1823 -0.71214,-0.7122 -9.28225,11.3616 -10.21083,14.3852 -1.11289,3.6238 -1.39896,11.1981 -0.42294,11.1981 0.48606,0 0.88375,-0.6609 0.88375,-1.4686 z m 417.66665,-25.8648 c 0,-0.7333 -0.6,-1.3333 -1.3333,-1.3333 -0.7333,0 -1.3333,0.6 -1.3333,1.3333 0,0.7334 0.6,1.3334 1.3333,1.3334 0.7333,0 1.3333,-0.6 1.3333,-1.3334 z m -396.66665,-6.7487 c 0,-0.7436 -1.00241,-0.3248 -2.42776,1.0142 -1.33527,1.2544 -2.18726,2.9075 -1.89331,3.6736 0.40002,1.0424 1.01068,0.7873 2.42777,-1.0142 1.04132,-1.3239 1.8933,-2.9769 1.8933,-3.6736 z m 395.00005,0.964 c 0,-1.179 -0.4439,-1.7256 -1.0814,-1.3316 -0.6492,0.4012 -0.9886,-0.075 -0.8493,-1.191 0.2833,-2.2693 -3.4755,-10.6216 -5.5577,-12.3497 -0.8314,-0.69 -1.5116,-1.6182 -1.5116,-2.0627 0,-1.6694 -4.5524,-7.864 -5.8091,-7.9046 -0.7199,-0.023 -1.0501,-0.4612 -0.7337,-0.9732 1.1088,-1.7941 -1.3134,-2.0701 -3.0373,-0.3462 -1.3038,1.3038 -1.6161,1.3689 -1.2429,0.2592 0.2742,-0.8152 -0.1236,-1.9408 -0.884,-2.5014 -0.7604,-0.5607 -1.4559,-1.992 -1.5454,-3.1808 -0.09,-1.1887 -0.5194,-1.941 -0.9552,-1.6716 -0.4359,0.2693 -0.7924,-0.1567 -0.7924,-0.9469 0,-0.7901 -0.7593,-2.0541 -1.6873,-2.809 -1.4989,-1.2193 -1.6039,-1.1493 -0.9407,0.6276 0.6011,1.6106 0.4999,1.7552 -0.5199,0.7428 -1.0213,-1.0138 -0.9474,-1.5761 0.3818,-2.9053 1.5309,-1.531 1.5004,-1.9395 -0.4297,-5.7429 -4.0635,-8.0072 -13.3436,-20.3599 -14.9274,-19.8696 -0.3998,0.1237 -2.2231,-1.3013 -4.0518,-3.1667 -3.2439,-3.3089 -4.5831,-5.678 -3.075,-5.4399 0.4125,0.065 1.425,0.051 2.25,-0.032 1.1741,-0.1176 1.0783,-0.4692 -0.4412,-1.6184 -1.897,-1.4348 -1.8913,-1.4682 0.25,-1.4682 1.2051,0 2.1912,-0.4839 2.1912,-1.0754 0,-0.5914 1.2375,-0.9938 2.75,-0.894 1.5125,0.1 3.0875,0.099 3.5,0 0.4125,-0.1006 2.6625,-0.2066 5,-0.2356 4.5693,-0.057 8.123,-1.3809 7.2962,-2.7186 -0.2804,-0.4537 0.5633,-0.8248 1.8748,-0.8248 3.5791,0 9.1819,-4.8125 11.1202,-9.5517 2.4997,-6.1118 2.7665,-18.6246 0.3654,-17.1406 -0.486,0.3004 -0.6157,-0.1522 -0.2882,-1.0058 0.3275,-0.8536 0.1349,-1.5519 -0.4281,-1.5519 -0.563,0 -1.2507,0.5625 -1.5281,1.25 -0.3142,0.7788 -0.5341,0.6212 -0.5833,-0.4182 -0.043,-0.9176 -0.3804,-2.4539 -0.7489,-3.4141 -0.43,-1.1207 -0.2844,-1.5075 0.4068,-1.0804 1.893,1.17 0.1223,-3.5811 -3.099,-8.3147 -4.4957,-6.6066 -5.785,-7.9034 -7.2849,-7.3278 -0.7441,0.2855 -1.3529,-0.054 -1.3529,-0.7545 0,-0.7005 -0.3123,-0.9614 -0.6939,-0.5798 -0.3817,0.3817 -0.5852,2.5369 -0.4523,4.7894 0.2908,4.9292 5.962,14.3534 9.648,16.0329 2.5356,1.1553 3.3792,2.8172 1.4301,2.8172 -0.5875,0 -0.049,1.4312 1.1966,3.1805 1.2456,1.7494 1.7169,2.842 1.0472,2.4281 -0.8083,-0.4996 -1.7499,0.5324 -2.8008,3.0694 -0.8707,2.1021 -3.2237,5.8171 -5.229,8.2555 -2.0053,2.4384 -3.9518,5.1384 -4.3257,6 -0.3738,0.8616 -0.7113,1.0354 -0.75,0.3863 -0.049,-0.8253 -0.948,-0.9285 -2.9894,-0.343 -1.6055,0.4604 -8.2786,0.6607 -14.829,0.4449 -14.9241,-0.4915 -16.5656,0.2675 -12.604,5.8283 1.4694,2.0625 3.0497,3.75 3.5119,3.75 0.4621,0 0.8758,0.7875 0.9192,1.75 0.046,1.0305 0.2851,1.2397 0.5804,0.5089 0.6337,-1.5686 2.342,-10e-5 4.6549,4.2739 0.8831,1.632 1.6237,2.3869 1.6457,1.6777 0.057,-1.842 2.5897,0.6178 2.795,2.7148 0.5325,5.4382 1.0815,7.902 2.2498,10.0954 1.4279,2.681 5.138,8.1688 6.0706,8.9793 0.3164,0.275 1.4115,1.938 2.4335,3.6956 1.0219,1.7576 2.1577,3.0104 2.524,2.7841 0.3662,-0.2263 1.6306,0.6981 2.8099,2.0544 1.1792,1.3562 2.597,2.4659 3.1506,2.4659 0.5537,0 0.9534,0.3375 0.8882,0.75 -0.065,0.4125 -0.034,1.65 0.07,2.75 l 0.1887,2 0.8595,-2 c 0.82,-1.9084 0.8626,-1.8969 0.9297,0.25 0.039,1.2375 0.4473,2.25 0.9082,2.25 0.4609,0 0.8983,1.6035 0.972,3.5634 0.08,2.137 1.346,5.3593 3.162,8.0501 1.6654,2.4677 3.0281,4.8019 3.0281,5.1871 0,0.3851 1.6875,2.5464 3.75,4.8027 2.0625,2.2563 3.75,4.4632 3.75,4.9042 0,0.441 0.8663,0.929 1.9251,1.0844 1.0588,0.1554 2.3239,0.9952 2.8114,1.8663 1.1184,1.9984 2.7635,1.06 2.7635,-1.5763 z m -396.03121,-4.1319 c 0.71942,-1.7898 0.91736,-1.8831 0.96778,-0.4562 0.0817,2.3135 2.98108,1.8788 5.29485,-0.7938 5.45879,-6.3054 11.01512,-15.415 10.39227,-17.0382 -0.39369,-1.0259 -0.20143,-1.3189 0.55766,-0.8497 0.77368,0.4781 0.94638,0.1632 0.51993,-0.9481 -0.35121,-0.9152 -0.27491,-1.664 0.16954,-1.664 1.64081,0 3.04121,-4.6824 1.8018,-6.0245 -0.9195,-0.9957 -0.81115,-1.1432 0.50186,-0.683 1.11633,0.3912 2.26086,-0.3098 3.43341,-2.1029 2.0553,-3.1429 3.98464,-5.1896 4.89206,-5.1896 1.2687,0 7.5,-8.146 7.5,-9.8045 0,-0.4871 0.85544,-1.6597 1.90098,-2.6059 1.04553,-0.9462 2.20504,-3.3412 2.57669,-5.3223 0.37165,-1.981 1.78599,-5.0575 3.14298,-6.8366 1.80707,-2.3692 2.12102,-3.3736 1.17331,-3.7538 -0.87158,-0.3496 -0.75899,-0.5448 0.34493,-0.598 0.90139,-0.043 1.57639,-0.8271 1.5,-1.7414 -0.0885,-1.0597 0.95039,-1.9535 2.86483,-2.4648 3.61047,-0.9643 9.13958,-8.6295 7.44617,-10.3228 -1.56995,-1.5699 -18.83005,-1.3619 -19.81934,0.2388 -0.63238,1.0233 -1.39748,1.0431 -3.71351,0.096 -1.60437,-0.6559 -3.55515,-1.3196 -4.33508,-1.475 -0.77992,-0.1553 -2.6742,-1.2112 -4.2095,-2.3463 -1.53531,-1.1351 -3.25969,-2.0638 -3.83196,-2.0638 -0.57227,0 -1.0405,-0.635 -1.0405,-1.4111 0,-0.7761 -1.35,-2.5471 -3,-3.9355 -1.65,-1.3884 -3,-3.0034 -3,-3.5889 0,-0.5855 -0.47655,-1.0645 -1.05901,-1.0645 -0.58246,0 -0.82726,0.375 -0.54399,0.8333 0.28326,0.4583 -0.12038,0.8333 -0.897,0.8333 -0.77661,0 -1.23651,-0.2839 -1.02199,-0.631 0.21452,-0.3471 -0.0234,-1.2846 -0.52868,-2.0834 -0.6363,-1.0058 -0.92341,-0.035 -0.93401,3.1582 -0.0221,6.6623 4.21629,12.6088 11.86757,16.6502 1.92001,1.0141 2.69108,1.0141 3.94383,0 0.96115,-0.7781 1.29454,-0.8223 0.87099,-0.1154 -0.90751,1.5145 1.49571,2.3548 6.73486,2.3548 5.44753,0 10.19816,1.6515 10.9679,3.8129 0.33045,0.9279 0.85979,2.3621 1.17631,3.1871 0.51154,1.3333 0.44543,1.3333 -0.59498,0 -1.02,-1.3072 -1.10376,-1.2898 -0.65157,0.1352 0.28539,0.8993 -0.10627,2.5277 -0.87036,3.6186 -0.76409,1.0909 -1.13508,2.2376 -0.82442,2.5483 0.31065,0.3106 0.23851,1.0928 -0.16031,1.7381 -0.53869,0.8716 -0.96969,0.8245 -1.67627,-0.1835 -0.73947,-1.0548 -1.064,-1.0786 -1.45833,-0.1067 -0.27896,0.6875 -1.14188,1.25 -1.9176,1.25 -1.45324,0 -6.40096,6.2042 -9.17102,11.5 -1.934,3.6974 -3.37357,9.6932 -2.14501,8.9339 0.4912,-0.3036 0.89309,0.1355 0.89309,0.9757 0,0.8504 -0.58211,1.3042 -1.31309,1.0237 -0.7222,-0.2771 -2.13235,0.4014 -3.13365,1.5078 -1.0013,1.1065 -2.28688,1.7235 -2.85684,1.3712 -0.62237,-0.3846 -0.79614,-0.015 -0.43504,0.9264 0.33069,0.8618 -0.0285,2.3981 -0.79826,3.4141 -2.00323,2.644 -1.92954,5.3174 0.0769,2.7883 1.5194,-1.9152 1.53592,-1.9144 1.23643,0.059 -0.21401,1.41 -1.09093,2.0134 -2.97263,2.0455 -1.46798,0.025 -2.44781,-0.3125 -2.1774,-0.75 0.27041,-0.4375 0.27599,-0.7955 0.0124,-0.7955 -0.84619,0 -9.66712,12.4705 -9.39809,13.2865 0.14262,0.4325 -0.1907,1.1075 -0.7407,1.5 -1.91676,1.3676 -3.82842,5.604 -2.69874,5.9806 0.64849,0.2161 0.4054,1.0624 -0.61376,2.1367 -0.92812,0.9784 -2.01984,1.6019 -2.42604,1.3856 -0.4062,-0.2163 -0.47056,0.3051 -0.14301,1.1586 0.80532,2.0987 1.28332,1.9567 2.35039,-0.698 z m 20.53116,-29.75 c -0.33991,-0.55 -0.11491,-1 0.5,-1 0.61492,0 0.79695,-0.5196 0.40451,-1.1545 -0.43206,-0.6991 -0.27534,-0.8837 0.39731,-0.468 0.61096,0.3776 0.85734,1.3471 0.54752,2.1545 -0.66385,1.73 -1.01454,1.8187 -1.84934,0.468 z m -7.88815,-68.5691 c -0.28847,-0.7518 -0.0942,-1.6328 0.43183,-1.9579 0.52598,-0.3251 0.95632,-1.2591 0.95632,-2.0757 0,-0.8165 1.16525,-2.7025 2.58944,-4.191 4.2345,-4.4257 7.15631,-9.4588 7.86874,-13.5548 0.45461,-2.6136 0.32807,-3.6375 -0.3944,-3.1909 -1.44454,0.8927 -1.35119,-0.7732 0.1261,-2.2505 0.65443,-0.6544 1.30518,-1.9819 1.44611,-2.95 0.19185,-1.3179 -0.2271,-1.1321 -1.66764,0.7399 -1.05813,1.375 -1.93388,2.8375 -1.94611,3.25 -0.0122,0.4125 -0.62749,0.75 -1.36725,0.75 -3.46561,0 -9.75818,11.5381 -9.80811,17.9843 -0.02,2.5874 -0.39913,5.2912 -0.84242,6.0085 -0.45367,0.734 -0.30295,1.849 0.34478,2.5507 1.41303,1.5307 2.98106,0.7596 2.26261,-1.1126 z m 15.37284,-27.6809 c -0.0119,-1.7567 -0.21673,-1.9316 -0.93402,-0.7978 -0.50528,0.7988 -0.69683,1.8113 -0.42567,2.25 0.86737,1.4035 1.37543,0.8608 1.35969,-1.4522 z m 337.72656,-2.4401 c 0.3621,-0.9435 0.1274,-1.8637 -0.5313,-2.0833 -0.649,-0.2163 -1.1799,-1.2558 -1.1799,-2.31 0,-1.0541 -0.5025,-1.9166 -1.1167,-1.9166 -0.6275,0 -0.8855,-0.8837 -0.589,-2.0176 0.3031,-1.1591 -0.1791,-2.7243 -1.1334,-3.6786 -0.9135,-0.9135 -1.6609,-2.016 -1.6609,-2.45 0,-0.4339 -0.7875,-1.7087 -1.75,-2.8328 -0.9625,-1.1242 -1.75,-2.4541 -1.75,-2.9555 0,-0.5014 -1.8546,-2.7295 -4.1213,-4.9514 -2.4781,-2.4291 -3.8987,-4.6197 -3.5631,-5.4942 0.3069,-0.7999 -0.089,-1.7025 -0.8788,-2.0058 -0.7903,-0.3032 -1.4368,-1.1326 -1.4368,-1.843 0,-0.7103 -1.1433,-2.5245 -2.5405,-4.0313 -1.3973,-1.5069 -2.2275,-2.7398 -1.845,-2.7398 0.3825,0 0.01,-0.7875 -0.839,-1.75 -0.8439,-0.9625 -2.2627,-3.1883 -3.1528,-4.9462 -1.6518,-3.2621 -5.999,-8.4598 -6.7223,-8.0376 -0.2203,0.1286 -0.287,0.045 -0.1483,-0.1851 0.1387,-0.2303 -0.5363,-1.2901 -1.5,-2.355 -0.9637,-1.0648 -1.645,-2.2264 -1.5141,-2.5811 0.4193,-1.1362 -0.8423,-4.145 -1.738,-4.145 -0.4759,0 -1.1643,-0.9423 -1.5298,-2.0939 -1.0111,-3.1856 -6.4674,-10.9061 -7.7078,-10.9061 -0.6027,0 -0.8116,-0.2842 -0.4643,-0.6315 1.0631,-1.0631 -1.2612,-4.3676 -3.0833,-4.3838 -1.174,-0.01 -1.3359,-0.2562 -0.5133,-0.7791 0.852,-0.5416 0.1974,-2.0326 -2.25,-5.1254 -1.8984,-2.3989 -3.4515,-4.7484 -3.4515,-5.221 0,-0.4726 -0.6393,-0.8592 -1.4206,-0.8592 -0.7813,0 -1.6956,-1.2524 -2.0318,-2.7832 -0.3362,-1.5307 -1.7123,-4.0644 -3.0579,-5.6304 -1.3456,-1.566 -2.2047,-3.2386 -1.9091,-3.7168 0.2955,-0.4783 0.061,-0.8696 -0.5216,-0.8696 -0.5825,0 -1.059,-0.675 -1.059,-1.5 0,-0.825 -0.3672,-1.5 -0.8159,-1.5 -0.4487,0 -1.8861,-1.9125 -3.1942,-4.25 -2.9624,-5.2938 -4.6734,-7.0637 -6.0224,-6.23 -0.671,0.4147 -0.8365,-0.1938 -0.4604,-1.6924 0.6794,-2.7071 -4.6209,-10.6872 -11.5842,-17.4413 -3.0553,-2.9634 -3.8471,-4.2695 -2.832,-4.671 0.9432,-0.3731 0.7478,-0.5886 -0.5909,-0.6517 -1.6644,-0.078 -1.7483,-0.2569 -0.5,-1.0636 0.825,-0.5332 1.0275,-0.9763 0.45,-0.9847 -0.5775,-0.01 -1.59,0.5247 -2.25,1.1847 -0.9334,0.9333 -1.2,0.698 -1.2,-1.059 0,-1.2514 -0.4461,-1.9834 -1,-1.641 -0.55,0.3399 -1,0.1415 -1,-0.441 0,-0.5825 0.7875,-1.0659 1.75,-1.0743 0.9882,-0.01 1.3147,-0.3352 0.75,-0.75 -1.7017,-1.2503 -4.1405,-4.7031 -2.7176,-3.8476 0.7053,0.424 -0.6447,-2.4035 -3,-6.2833 -2.4756,-4.078 -4.8098,-6.867 -5.5324,-6.6104 -1.0503,0.3729 -1.8034,-0.94 -1,-1.7434 0.1375,-0.1375 -0.779,-1.2789 -2.0365,-2.5365 -1.2576,-1.2576 -2.0429,-2.6807 -1.7451,-3.1625 0.2978,-0.4818 -0.5858,-0.7523 -1.9635,-0.601 -2.5552,0.2805 -2.8657,-0.2334 -2.5429,-4.2087 0.1008,-1.2423 -1.0178,-4.1673 -2.486,-6.5 -11.0272,-17.5213 -14.6166,-22.7413 -15.6374,-22.7413 -0.6446,0 -0.8748,-0.2972 -0.5117,-0.6603 0.3632,-0.3632 -0.2858,-1.323 -1.4421,-2.133 -1.7788,-1.2459 -2.2373,-1.2597 -2.9784,-0.09 -0.6319,0.9979 -0.8801,1.0349 -0.8911,0.133 -0.01,-0.6875 -0.4812,-1.25 -1.0505,-1.25 -0.7011,0 -0.7124,0.6031 -0.035,1.8685 0.55,1.0277 0.7361,2.1324 0.4137,2.4548 -0.3225,0.3225 0.7001,2.7442 2.2724,5.3815 6.291,10.5523 8.3036,13.4312 11.2937,16.1549 1.4248,1.2979 1.9156,1.999 1.0906,1.5581 -1.2888,-0.6889 -1.3081,-0.565 -0.1367,0.8792 0.7498,0.9245 1.7623,1.4344 2.25,1.1329 0.8043,-0.4971 1.3064,0.9116 1.0051,2.8201 -0.065,0.4125 0.4441,0.7517 1.1316,0.7537 0.6875,0 2.0817,2.0263 3.0983,4.4983 1.0166,2.4719 2.2541,4.2437 2.75,3.9372 0.4959,-0.3065 0.9017,0.3469 0.9017,1.4521 0,1.1051 0.7875,2.468 1.75,3.0286 0.9625,0.5606 1.4033,1.0329 0.9796,1.0497 -1.6602,0.066 10.2043,19.9868 12.4259,20.8637 0.4645,0.1833 0.8445,0.7934 0.8445,1.3557 0,1.6634 4.7096,6.7613 5.5481,6.0055 0.4238,-0.382 0.5022,0.056 0.1743,0.9727 -0.3552,0.9933 0.01,1.9 0.9041,2.243 0.8251,0.3166 1.2182,1.032 0.8735,1.5898 -0.3448,0.5577 0,1.2553 0.7699,1.5501 0.7682,0.2948 1.3967,1.114 1.3967,1.8205 0,2.2398 6.3967,10.7083 7.5501,9.9954 0.6383,-0.3945 0.8076,-0.2144 0.4072,0.4334 -0.88,1.4239 4.7219,10.4961 5.8486,9.4717 0.4664,-0.4241 0.5517,-0.2528 0.1894,0.3808 -0.8039,1.4057 4.3595,9.2468 10.1032,15.3426 2.3292,2.4721 4.2349,4.8975 4.2349,5.3898 0,0.4924 0.7875,1.544 1.75,2.3371 1.651,1.3603 1.6438,1.408 -0.1262,0.8432 -1.8135,-0.5787 -1.817,-0.5063 -0.1037,2.1683 7.8061,12.1865 12.1511,18.2276 13.1229,18.2457 0.6286,0.012 1.4214,0.7471 1.7618,1.634 0.4645,1.2104 0.9485,1.3391 1.9403,0.5159 0.9913,-0.8227 1.3215,-0.7369 1.3215,0.3434 0,0.792 -0.375,1.2083 -0.8333,0.9251 -0.4583,-0.2833 -0.8333,-0.065 -0.8333,0.4849 0,0.55 0.45,1.2782 1,1.6181 0.55,0.3399 1,1.3262 1,2.1917 0,0.8655 0.7937,2.3015 1.7638,3.191 0.97,0.8895 2.6326,3.2773 3.6944,5.3061 1.0619,2.0289 2.2932,3.4648 2.7362,3.191 0.4431,-0.2738 0.8056,0.4553 0.8056,1.6202 0,1.1649 0.4448,1.8431 0.9885,1.5071 0.5669,-0.3504 0.7345,0.051 0.393,0.9409 -0.3275,0.8536 -0.097,1.552 0.5115,1.552 0.6088,0 1.107,0.7272 1.107,1.616 0,1.9375 6.7581,11.384 8.1441,11.384 0.5357,0 0.6958,0.45 0.3559,1 -0.34,0.55 -0.1415,1 0.4409,1 0.5825,0 1.0591,0.675 1.0591,1.5 0,0.825 0.4765,1.5 1.059,1.5 0.5824,0 0.798,0.4223 0.4789,0.9385 -0.319,0.5162 0.072,1.3037 0.87,1.75 0.7975,0.4463 1.4715,1.2615 1.4977,1.8115 0.1036,2.173 7.6355,13.8287 9.2005,14.238 0.9161,0.2396 2.1809,1.409 2.8107,2.5988 0.6298,1.1897 0.9257,1.3901 0.6578,0.4452 -0.268,-0.9449 -0.057,-1.9839 0.469,-2.309 0.98,-0.6056 1.3236,0.6811 1.0087,3.777 -0.2279,2.2397 1.8049,2.2855 2.6589,0.06 z m -9.2042,-6.2985 c -0.3503,-0.5668 0.051,-0.7345 0.941,-0.393 1.7324,0.6648 2.0494,1.3816 0.611,1.3816 -0.5176,0 -1.2159,-0.4449 -1.552,-0.9886 z m -30.5271,-55.5356 c -0.6957,-0.8383 -1.0123,-1.7768 -0.7035,-2.0856 0.3088,-0.3089 1.0638,0.377 1.6777,1.5241 1.3099,2.4475 0.8236,2.7277 -0.9742,0.5615 z m -294.73109,60.3678 c -0.35208,-1.3464 -0.17562,-1.9164 0.46977,-1.5175 0.56852,0.3513 2.3269,-1.2658 3.90752,-3.5937 1.58062,-2.3278 3.4713,-4.862 4.2015,-5.6315 0.73021,-0.7695 1.14143,-2.1195 0.91383,-3 -0.2276,-0.8805 0.4816,-2.5009 1.57599,-3.6009 1.09439,-1.1 1.62614,-1.368 1.18166,-0.5955 -0.54693,0.9505 -0.42971,1.1706 0.36268,0.6809 0.64395,-0.398 0.91192,-1.1425 0.59549,-1.6545 -0.31643,-0.512 -0.0722,-0.9309 0.5427,-0.9309 0.61492,0 0.84408,-0.4433 0.50925,-0.9851 -0.33484,-0.5417 0.72437,-2.2882 2.3538,-3.881 3.00657,-2.9391 6.71782,-9.015 6.34256,-10.3839 -0.11308,-0.4125 0.35689,-0.7642 1.04439,-0.7814 1.76449,-0.044 4.94566,-4.6939 5.11111,-7.4703 0.0764,-1.2819 0.36389,-2.256 0.63889,-2.1646 0.275,0.091 0.5,-0.1519 0.5,-0.5407 0,-0.3888 0.9,-1.4347 2,-2.3241 1.1,-0.8895 1.4375,-1.3323 0.75,-0.9841 -0.6875,0.3483 -1.25,0.1016 -1.25,-0.5483 0,-0.8319 -0.49127,-0.7754 -1.66065,0.191 -1.52082,1.2569 -1.54215,1.1822 -0.25329,-0.8874 0.77405,-1.2429 1.55885,-1.8054 1.74399,-1.25 0.45724,1.3717 2.88594,1.2784 3.76545,-0.1446 0.4691,-0.7591 0.23241,-0.9049 -0.69099,-0.4259 -0.77248,0.4008 -0.13105,-0.2684 1.42539,-1.4871 1.82499,-1.4289 2.42961,-2.4631 1.70266,-2.9124 -0.77362,-0.4781 -0.58162,-1.1395 0.61207,-2.1084 1.51515,-1.2298 1.62538,-1.2184 0.85537,0.088 -0.76972,1.3062 -0.65945,1.3178 0.85355,0.09 0.95561,-0.7757 1.49715,-2.0365 1.20342,-2.802 -0.30766,-0.8017 -0.0928,-1.119 0.50686,-0.7484 0.57376,0.3546 1.5646,-0.744 2.20778,-2.448 0.64178,-1.7003 1.46693,-3.0914 1.83367,-3.0914 0.82253,0 8.89477,-13.4691 8.89477,-14.8415 0,-0.5455 0.4745,-1.15 1.0544,-1.3433 0.9796,-0.3266 1.6862,-2.4619 1.869,-5.6486 0.042,-0.7333 0.616,-1.1535 1.2753,-0.9337 1.1914,0.3971 7.5883,-7.1418 8.0564,-9.4947 0.1347,-0.677 0.7971,-1.6826 1.4721,-2.2346 0.675,-0.552 2.2966,-3.132 3.6037,-5.7333 1.307,-2.6013 2.6652,-4.4408 3.0182,-4.0878 0.353,0.353 1.1379,-0.7812 1.7442,-2.5204 0.6063,-1.7392 1.5348,-3.1621 2.0635,-3.1621 0.5287,0 0.7122,-0.4029 0.4079,-0.8952 -0.3043,-0.4924 0.1658,-1.1712 1.0448,-1.5085 0.9041,-0.3469 1.3514,-1.2556 1.0302,-2.0928 -0.3123,-0.8137 -0.2465,-1.3724 0.1462,-1.2415 0.3927,0.1309 0.8585,-0.212 1.0351,-0.762 0.1766,-0.55 0.9641,-1.3599 1.75,-1.7997 0.7859,-0.4398 1.429,-1.6615 1.429,-2.7148 0,-1.0533 0.9126,-2.4036 2.028,-3.0005 1.1154,-0.597 1.7496,-1.5359 1.4093,-2.0865 -0.3403,-0.5506 0.4346,-2.0778 1.722,-3.3937 4.2691,-4.3639 5.4798,-5.9448 10.1998,-13.3174 2.5748,-4.022 4.4139,-7.7456 4.0869,-8.2748 -0.3271,-0.5292 0,-0.8385 0.7296,-0.6874 0.7284,0.1511 1.2119,-0.2877 1.0744,-0.9752 -0.1375,-0.6875 0.2,-1.25 0.75,-1.25 0.55,0 1,-1.35 1,-3 0,-1.65 0.4765,-3 1.059,-3 0.5824,0 0.81,-0.4029 0.5057,-0.8952 -0.3043,-0.4924 0.1658,-1.1712 1.0448,-1.5085 0.924,-0.3545 1.3529,-1.2519 1.0169,-2.1274 -0.6567,-1.7114 2.634,-5.4689 4.7895,-5.4689 2.2206,0 9.1111,-9.4217 15.6455,-21.3928 1.7863,-3.2724 1.8627,-3.7921 0.4798,-3.2614 -0.9634,0.3697 -1.3919,0.2216 -1.0342,-0.3573 0.3361,-0.5437 1.286,-0.9885 2.111,-0.9885 0.825,0 1.2332,-0.4317 0.9071,-0.9593 -0.8428,-1.3636 1.6652,-5.0346 3.4654,-5.0725 1.1916,-0.025 1.1199,-0.327 -0.3407,-1.4335 -1.8129,-1.3735 -1.4192,-4.1283 0.4269,-2.9873 0.5162,0.3191 1.6101,-0.091 2.4309,-0.9122 1.869,-1.8691 1.891,-2.6352 0.076,-2.6352 -0.7792,0 -1.5988,-0.5464 -1.8214,-1.2142 -0.2226,-0.6678 -1.0449,0.2322 -1.8274,2 -0.7825,1.7678 -1.7895,3.2142 -2.2377,3.2142 -0.4482,0 -0.4938,-0.5196 -0.1014,-1.1545 0.4524,-0.732 0.2732,-0.8824 -0.4895,-0.411 -0.9048,0.5592 -0.9204,1.0842 -0.063,2.1174 0.8895,1.0717 0.5703,1.9019 -1.4514,3.7756 -1.4254,1.321 -2.5916,2.9393 -2.5916,3.5962 0,0.6569 -0.4744,0.9011 -1.0542,0.5428 -0.5798,-0.3583 -2.0968,0.5618 -3.3711,2.0448 -3.3527,3.9018 -11.914,18.5563 -12.0688,20.6584 -0.072,0.9843 -0.5132,2.1362 -0.9792,2.5599 -0.4661,0.4237 -0.4781,0.095 -0.027,-0.7296 0.4793,-0.8761 0.4473,-1.1587 -0.077,-0.6794 -0.4936,0.4513 -0.9404,1.3513 -0.9927,2 -0.3219,3.9876 -1.8708,7.6794 -3.222,7.6794 -0.8479,0 -1.2456,0.2961 -0.8837,0.658 0.3619,0.3619 0.1568,1.2619 -0.4558,2 -0.6125,0.7381 -0.7639,1.342 -0.3363,1.342 0.4276,0 -0.037,0.9 -1.0325,2 -1.9445,2.1486 -4.0897,2.7631 -2.8945,0.8291 0.398,-0.6439 -0.3629,-0.3435 -1.6909,0.6676 -2.4303,1.8503 -10.2096,13.112 -13.382,19.3726 -0.9391,1.8531 -3.2431,5.5068 -5.12,8.1194 -1.877,2.6126 -3.4126,5.5105 -3.4126,6.4397 0,0.9293 -0.45,1.4115 -1,1.0716 -0.5694,-0.3519 -1,0.5093 -1,2 0,1.5029 -0.429,2.3529 -1.0071,1.9956 -0.5539,-0.3423 -1.294,0.1936 -1.6447,1.191 -0.3506,0.9974 -1.8911,3.1634 -3.4231,4.8134 -1.5321,1.65 -2.9295,3.6509 -3.1054,4.4464 -0.1758,0.7956 -1.2197,2.3738 -2.3197,3.5072 -2.2198,2.2871 -3.4668,4.1719 -6.6055,9.9837 -1.1695,2.1655 -2.7647,4.5757 -3.5449,5.3559 -1.0881,1.0881 -1.1491,1.7435 -0.2617,2.8127 0.9268,1.1167 0.7398,1.3941 -0.9398,1.3941 -1.95478,0 -5.88296,5.3195 -5.35375,7.25 0.11308,0.4125 -0.2444,0.75 -0.7944,0.75 -0.55,0 -1,0.4765 -1,1.059 0,0.5825 0.45,0.7809 1,0.441 0.55,-0.3399 1,-0.1415 1,0.441 0,0.5824 -0.65678,1.059 -1.45953,1.059 -0.80274,0 -2.53021,1.1547 -3.83883,2.5659 -3.49722,3.7716 -10.84497,16.3931 -10.17474,17.4776 0.31734,0.5135 -0.12139,0.6656 -0.97496,0.338 -0.85356,-0.3275 -1.55194,-0.097 -1.55194,0.5115 0,2.0052 -0.28387,2.5924 -1.90076,3.9311 -0.87958,0.7283 -1.03674,1.0393 -0.34924,0.691 1.46961,-0.7444 1.60195,0.38 0.28906,2.4559 -0.51167,0.8091 -1.23548,1.1659 -1.60848,0.7929 -0.37299,-0.373 -1.6613,0.765 -2.86291,2.5289 -3.04606,4.4715 -9.52726,13.6912 -11.8362,16.8372 -1.60054,2.1809 -1.72779,3.0083 -0.74502,4.8447 1.09679,2.0493 1.01095,2.1603 -1.15062,1.487 l -2.33583,-0.7275 2,2.3656 c 1.49101,1.7636 1.55463,2.0208 0.25,1.0105 -1.05333,-0.8157 -1.75,-0.9319 -1.75,-0.2918 0,0.5849 0.45,1.3416 1,1.6815 0.55,0.3399 1,1.1416 1,1.7815 0,0.6399 -0.70579,0.1558 -1.56842,-1.0757 -1.65623,-2.3646 -3.95897,-2.0226 -3.0112,0.4473 0.30619,0.7979 0.13164,1.188 -0.3879,0.8669 -0.51954,-0.321 -1.74149,0.6681 -2.71545,2.1981 -0.97395,1.53 -2.05827,3.0069 -2.40959,3.2819 -0.61466,0.4811 -4.31506,7.4419 -5.05022,9.5 -0.19647,0.55 -0.70407,0.8844 -1.12801,0.743 -1.14397,-0.3813 0.39819,5.136 1.67477,5.9917 2.12502,1.4244 3.41607,0.7931 2.84488,-1.3911 z m 52.48236,-82.7635 c -0.43498,-1.6633 -0.30483,-2.0537 0.43723,-1.3117 0.58111,0.5811 0.8598,1.6468 0.61932,2.3683 -0.24965,0.7489 -0.70294,0.2956 -1.05655,-1.0566 z m 19.26883,-29.791 c 0,-0.5743 0.7875,-1.6618 1.75,-2.4167 1.6187,-1.2695 1.6399,-1.2224 0.2829,0.6276 -0.8068,1.1 -1.5943,2.1875 -1.75,2.4166 -0.1556,0.2292 -0.2829,-0.053 -0.2829,-0.6275 z m 119.9176,-105.443 c -0.5599,-1.0462 -1.4454,-1.638 -1.9678,-1.3151 -0.5224,0.3228 -0.9498,-0.1145 -0.9498,-0.972 0,-0.8575 -0.4235,-1.559 -0.941,-1.559 -1.4389,0 -2.442,2.1405 -1.3411,2.8618 0.5357,0.351 1.2896,1.9262 1.6753,3.5004 0.6742,2.7521 0.7752,2.7953 2.6218,1.1242 1.4881,-1.3468 1.6914,-2.1665 0.9026,-3.6403 z m -46.2992,-0.3981 c -0.3745,-0.9758 -0.1871,-1.2995 0.5048,-0.8718 0.6052,0.374 1.3875,0.2396 1.7386,-0.2986 0.351,-0.5383 2.6632,-2.2545 5.1382,-3.8138 3.4712,-2.187 5.7573,-2.8498 10,-2.8995 7.2492,-0.085 9.4533,0.4178 15.9697,3.6418 4.9327,2.4405 5.6348,2.5568 7.1518,1.1839 3.5341,-3.1984 0.5221,-7.2572 -7.6561,-10.3171 -7.5732,-2.8335 -17.9666,-3.0456 -20.1153,-0.4105 -0.8242,1.0107 -1.2135,1.2751 -0.8653,0.5876 0.9856,-1.9457 -2.9237,-1.524 -8.002,0.863 -5.6231,2.6432 -9.512,7.0595 -8.7574,9.9452 0.3603,1.3775 0.803,1.7047 1.2746,0.9418 0.4727,-0.765 0.9109,-0.4485 1.2676,0.9154 0.2998,1.1465 1.0854,2.0846 1.7457,2.0846 0.6742,0 0.9395,-0.6804 0.6051,-1.552 z m 95.6068,863.4319 c 0.1517,-0.7005 -1.0688,-1.5765 -2.7252,-1.956 -2.939,-0.6733 -2.9238,-0.6897 0.75,-0.8056 2.6531,-0.084 3.75,0.3032 3.75,1.3227 0,0.7925 -0.4612,1.7259 -1.0248,2.0743 -0.5636,0.3483 -0.9011,0.062 -0.75,-0.6354 z m -155.0069,-1.4702 c -1.0903,-1.185 0.3662,-1.3624 9.75,-1.187 6.0674,0.1134 11.0317,0.6009 11.0317,1.0834 0,0.4824 -4.2581,0.6727 -9.4625,0.4227 -5.2043,-0.2499 -9.5918,-0.1105 -9.75,0.3099 -0.1581,0.4203 -0.8643,0.1373 -1.5692,-0.629 z m 25.9141,0.1612 c -1.8774,-1.0048 -1.2079,-1.1823 4.5846,-1.2161 3.7306,-0.022 6.333,0.088 5.783,0.2439 -6.7151,1.9031 -8.343,2.0557 -10.3676,0.9722 z m 20.8676,-0.7722 c 0,-1.0122 6.7239,-1.0568 7.3412,-0.049 0.2526,0.4125 -1.2958,0.7719 -3.441,0.7987 -2.1451,0.027 -3.9002,-0.3107 -3.9002,-0.75 z m 11,0.2327 c 0,-0.5328 0.675,-0.7096 1.5,-0.3931 0.825,0.3166 1.5,0.7525 1.5,0.9687 0,0.2161 -0.675,0.393 -1.5,0.393 -0.825,0 -1.5,-0.4359 -1.5,-0.9686 z m 12.507,-0.02 c -0.3503,-0.5668 0.051,-0.7345 0.941,-0.393 1.7324,0.6648 2.0494,1.3816 0.611,1.3816 -0.5176,0 -1.2159,-0.4449 -1.552,-0.9886 z m 40.993,-0.011 c 0.3399,-0.55 0.8164,-1 1.059,-1 0.2425,0 0.441,0.45 0.441,1 0,0.55 -0.4766,1 -1.0591,1 -0.5824,0 -0.7809,-0.45 -0.4409,-1 z m 11.103,0.1666 c -0.2833,-0.4583 0.1203,-0.8333 0.897,-0.8333 0.7766,0 1.1802,0.375 0.8969,0.8333 -0.2832,0.4584 -0.6869,0.8334 -0.8969,0.8334 -0.2101,0 -0.6138,-0.375 -0.897,-0.8334 z m -31.7905,-0.8497 c 0.7218,-0.2889 1.5843,-0.2534 1.9166,0.079 0.3323,0.3323 -0.2583,0.5686 -1.3125,0.5252 -1.1649,-0.048 -1.4019,-0.2849 -0.6041,-0.6041 z m 8.4565,-0.01 c 0.973,-0.2536 2.323,-0.2369 3,0.037 0.677,0.274 -0.119,0.4814 -1.769,0.461 -1.65,-0.02 -2.204,-0.2445 -1.231,-0.498 z m 36.9947,-0.025 c 1.5201,-0.2299 3.7701,-0.2237 5,0.014 1.2299,0.2374 -0.014,0.4255 -2.7637,0.418 -2.75,-0.01 -3.7564,-0.2018 -2.2363,-0.4316 z m -148.8087,-15.334 c -0.041,-3.1047 0.7481,-3.0873 1.2234,0.027 0.1615,1.0581 -0.039,2.1295 -0.4458,2.3808 -0.4067,0.2514 -0.7566,-0.8321 -0.7776,-2.4078 z m 182.545,-4.4484 c 0,-2.6584 0.2363,-4.597 0.5251,-4.3082 0.7869,0.7869 0.899,7.7174 0.1371,8.4793 -0.3643,0.3642 -0.6622,-1.5128 -0.6622,-4.1711 z m -182.8422,-4.5 c 0,-1.375 0.227,-1.9375 0.5044,-1.25 0.2774,0.6875 0.2774,1.8125 0,2.5 -0.2774,0.6875 -0.5044,0.125 -0.5044,-1.25 z m 182.8422,-52 v -7 l -5.25,-0.1362 c -2.8875,-0.075 -4.2309,-0.3321 -2.9852,-0.5715 1.2456,-0.2394 1.9861,-0.8864 1.6453,-1.4376 -0.4079,-0.6601 0.014,-0.6563 1.2352,0.011 1.0201,0.5574 2.9797,1.2465 4.3547,1.5312 2.1894,0.4535 2.5378,1.1131 2.8045,5.3104 0.1675,2.636 0.73,5.2202 1.25,5.7427 0.52,0.5225 0.9455,1.396 0.9455,1.9411 0,0.5451 -0.6983,0.1176 -1.5518,-0.95 -1.5081,-1.8865 -1.5344,-1.8778 -0.9326,0.3089 0.3618,1.3147 0.1755,2.25 -0.4483,2.25 -0.6548,0 -1.0673,-2.7054 -1.0673,-7 z m -182.7069,2.2409 c -0.073,-0.9676 -0.222,-2.2051 -0.3313,-2.75 -0.4384,-2.1861 0.094,-4.4909 1.0382,-4.4909 0.55,0 1,2.025 1,4.5 0,4.2431 -1.4218,6.5262 -1.7069,2.7409 z m 5.4569,-9.9643 c 1.7875,-0.2218 4.7125,-0.2218 6.5,0 1.7875,0.2218 0.325,0.4033 -3.25,0.4033 -3.575,0 -5.0375,-0.1815 -3.25,-0.4033 z m 28.0625,0.04 c 0.7218,-0.2889 1.5843,-0.2534 1.9166,0.079 0.3323,0.3323 -0.2583,0.5686 -1.3125,0.5252 -1.1649,-0.048 -1.4019,-0.2849 -0.6041,-0.6041 z m 53.9375,0.021 c 0.6875,-0.2774 1.8125,-0.2774 2.5,0 0.6875,0.2774 0.125,0.5044 -1.25,0.5044 -1.375,0 -1.9375,-0.227 -1.25,-0.5044 z m 62.0625,-0.021 c 0.7218,-0.2889 1.5843,-0.2534 1.9166,0.079 0.3323,0.3323 -0.2583,0.5686 -1.3125,0.5252 -1.1649,-0.048 -1.4019,-0.2849 -0.6041,-0.6041 z M 892.46075,4215.9621 c 0,-2.4146 0.55612,-2.6582 1.34934,-0.591 0.30982,0.8073 0.13297,1.7339 -0.39301,2.059 -0.52598,0.325 -0.95633,-0.3355 -0.95633,-1.468 z"
           id="path89" /><ellipse
           style="fill:#e87560;fill-opacity:1;stroke:#cf6f57;stroke-width:0.273;stroke-linecap:round;stroke-linejoin:round;paint-order:stroke fill markers"
           id="path131"
           cx="1007.9608"
           cy="4136.9653"
           rx="39.863564"
           ry="18.322609" /><ellipse
           style="fill:#e87560;fill-opacity:1;stroke:#cf6f57;stroke-width:0.273;stroke-linecap:round;stroke-linejoin:round;paint-order:stroke fill markers"
           id="path131-3"
           cx="1215.8286"
           cy="4136.9653"
           rx="39.863564"
           ry="18.322609" /></g></g></g></svg>
