<?xml version="1.0" encoding="UTF-8" standalone="no"?>
<!-- Created with Inkscape (http://www.inkscape.org/) -->

<svg
   version="1.1"
   id="svg1"
   width="147.21997"
   height="167.53247"
   viewBox="0 0 147.21997 167.53247"
   sodipodi:docname="Linotte app main inkscape.ai"
   inkscape:version="1.4.2 (ebf0e940, 2025-05-08)"
   xml:space="preserve"
   inkscape:export-batch-path="/Users/giannipie/Documents/Repositories/linotte-web/resources/images/dice"
   inkscape:export-batch-name="rere"
   inkscape:export-filename="/Users/giannipie/Documents/Repositories/linotte-web/resources/images/volume.svg"
   inkscape:export-xdpi="96"
   inkscape:export-ydpi="96"
   xmlns:inkscape="http://www.inkscape.org/namespaces/inkscape"
   xmlns:sodipodi="http://sodipodi.sourceforge.net/DTD/sodipodi-0.dtd"
   xmlns="http://www.w3.org/2000/svg"
   xmlns:svg="http://www.w3.org/2000/svg"><defs
     id="defs1" /><sodipodi:namedview
     id="namedview1"
     pagecolor="#ffffff"
     bordercolor="#000000"
     borderopacity="0.25"
     inkscape:showpageshadow="2"
     inkscape:pageopacity="0.0"
     inkscape:pagecheckerboard="0"
     inkscape:deskcolor="#d1d1d1"
     showgrid="false"
     inkscape:zoom="0.03871024"
     inkscape:cx="7000.7317"
     inkscape:cy="6380.7407"
     inkscape:window-width="1472"
     inkscape:window-height="850"
     inkscape:window-x="0"
     inkscape:window-y="33"
     inkscape:window-maximized="0"
     inkscape:current-layer="g94-4-3"><inkscape:page
       x="0"
       y="0"
       width="147.21997"
       height="167.53247"
       id="page2"
       margin="0"
       bleed="0" /></sodipodi:namedview><g
     id="layer-MC0"
     inkscape:groupmode="layer"
     inkscape:label="Livello 1"
     transform="translate(-1132.9564,-1116.9602)"><g
       id="g132"
       transform="matrix(0.34572547,0,0,0.34572547,1042.209,-73.291589)"><g
         id="g61"
         transform="translate(-887.0648,-43.013758)"><path
           d="m 1479.4367,3921.6514 c -1.1496,0 3.6798,8.9943 7.248,13.5 1.7423,2.2 5.6568,5.6863 8.6993,7.748 7.8417,5.3137 19.3669,8.5973 19.3125,5.502 -0.031,-1.7876 -3.5932,-9.4003 -5.9395,-12.6953 -1.4451,-2.0295 -5.647,-4.346 -15.2793,-8.4258 -7.3079,-3.0953 -13.627,-5.6289 -14.041,-5.6289 z"
           style="fill:#fdfdfb"
           id="path127" /><path
           d="m 1258.3488,3765.8779 c -0.1319,0.01 -0.2243,0.035 -0.2715,0.082 -0.8915,0.8915 2.6652,2.6438 14.1406,6.9687 23.5646,8.8811 27.0684,9.669 76,17.1055 6.3655,0.9675 47.4766,-0.3541 58.5,-1.8809 22.0487,-3.054 38.932,-7.8127 43.6602,-12.3047 l 2.8398,-2.6972 -2.5,-0.2852 c -1.375,-0.1572 -11.95,1.1166 -23.5,2.8321 -18.5901,2.7612 -24.3852,3.1819 -50.5039,3.664 -23.8519,0.4403 -32.3395,0.2237 -44.2988,-1.1367 -9.6762,-1.1007 -20.3964,-1.5783 -30.9941,-1.3789 l -16.2032,0.3047 -7.1113,-3.6914 c -6.7184,-3.4887 -17.779,-7.6926 -19.7578,-7.5821 z"
           style="fill:#fdfdfb"
           id="path126" /><path
           d="m 1197.9621,3743.4151 c -12.7453,-0.3063 -24.6776,4.3747 -28.7793,12.3066 -5.0464,9.7587 5.4058,26.9725 23.7734,39.1504 12.2399,8.1152 12.1127,8.0672 20.1426,7.3789 16.404,-1.4062 23.7336,1.944 23.8691,10.9082 0.09,5.921 -1.3745,7.1806 -9.3945,8.0879 -3.2198,0.3643 -5.8555,0.9513 -5.8555,1.3047 0,0.3535 2.4883,4.4581 5.5293,9.1211 11.0126,16.8863 17.8708,31.8426 26.127,56.9785 5.3707,16.3508 15.7715,41.1466 18.8027,44.8242 1.2131,1.4719 4.0644,5.4393 6.336,8.8164 7.7763,11.5605 16.0361,16.3273 25.9707,14.9902 7.0318,-0.9465 12.121,-4.9849 15.9648,-12.666 4.2501,-8.4929 5.6667,-15.6987 4.8926,-24.8769 -0.7529,-8.926 -3.4214,-15.1366 -10.4102,-24.2305 -4.7683,-6.2047 -4.992,-6.7462 -3.3886,-8.1973 2.4477,-2.2151 6.1077,-3.3961 8.8847,-2.8652 2.8507,0.5449 7.2266,8.5178 11.3653,20.7051 l 2.7168,8 13.8554,0.3027 c 9.8837,0.2156 16.3471,-0.176 22.5547,-1.3652 l 8.7031,-1.666 4.0293,-8.1368 c 4.6863,-9.4599 8.9844,-15.0239 13.3496,-17.2812 3.0567,-1.5807 3.1454,-1.5572 5.9102,1.5371 1.5437,1.7278 2.8066,3.5299 2.8066,4.0059 0,0.476 -1.6875,2.1491 -3.75,3.7168 -5.9737,4.5407 -8.3238,7.4503 -11.6191,14.3867 -2.8631,6.0266 -3.0895,7.3011 -3.1094,17.5 -0.02,10.4224 0.1438,11.3175 3.1348,17.0371 3.5707,6.8285 10.8407,14.0898 15.0352,15.0176 1.545,0.3417 3.2585,0.7697 3.8085,0.9531 1.8294,0.6103 4.9591,0.4539 8.8165,-0.4414 2.0985,-0.4871 5.4735,-2.0384 7.5,-3.4473 5.7363,-3.9882 21.4866,-19.9281 23.4335,-23.7148 0.9627,-1.8726 5.0716,-13.3043 9.129,-25.4043 8.5147,-25.393 14.5952,-40.2904 21.6328,-53 8.5176,-15.3825 12.4183,-23.402 11.7226,-24.0977 -0.3678,-0.3678 -3.4956,-1.1746 -6.9512,-1.791 -5.439,-0.9702 -6.327,-1.4348 -6.6152,-3.4668 -0.576,-4.0619 0.7187,-6.9118 4.0801,-8.9746 4.0335,-2.4754 7.2861,-2.8423 16.4101,-1.8477 8.3211,0.907 10.8054,0.1312 20.5391,-6.416 13.9554,-9.3869 25.7204,-22.0232 29.4102,-31.5898 1.5628,-4.0522 1.5388,-4.3214 -0.7657,-8.5 -2.7098,-4.9137 -10.5032,-10.1688 -16.5722,-11.1719 -11.0077,-1.8193 -30.9205,0.1602 -47.7696,4.7481 -13.7672,3.7487 -13.8698,3.8082 -15.1933,8.7421 -2.6881,10.0203 -20.66,18.5172 -53.4551,25.2735 -12.3483,2.544 -35.6771,4.5772 -46.0254,4.0117 -2.929,-0.1601 -10.7753,-0.5534 -17.4355,-0.875 -21.9937,-1.0622 -52.5299,-6.2083 -72.377,-12.1973 -14.9216,-4.5027 -19.6672,-7.3212 -25.668,-15.2421 -4.305,-5.6823 -6.1826,-7.1306 -16.8457,-13 -12.8987,-7.0998 -15.4888,-8.2478 -25.5,-11.3086 -4.1689,-1.2746 -8.5074,-1.9312 -12.7558,-2.0332 z"
           style="fill:#fdfdfb"
           id="path124" /><path
           d="m 1428.9953,3614.251 c -4.7759,0 -8.2774,3.9862 -8.2774,9.4238 0,3.2397 0.4728,4.169 2.75,5.4043 4.0523,2.1985 6.0709,1.9059 9.3282,-1.3515 2.2452,-2.2452 2.9218,-3.8396 2.9218,-6.877 0,-4.7671 -1.8662,-6.5996 -6.7226,-6.5996 z"
           style="fill:#fdfdfb"
           id="path120" /><path
           d="m 1290.6086,3611.7451 c -1.767,-0.072 -3.4191,0.7616 -4.7774,2.4883 -2.7737,3.5262 -3.4187,5.9752 -2.6523,10.0606 1.3293,7.0857 7.1841,9.494 11.6152,4.7773 1.9599,-2.0862 2.4238,-3.6351 2.4238,-8.0879 0,-4.5819 -0.3954,-5.8297 -2.3593,-7.4199 -1.4303,-1.1582 -2.8758,-1.7624 -4.25,-1.8184 z"
           style="fill:#fdfdfb"
           id="path119" /><path
           d="m 1536.9191,3571.669 c -5.7388,0.027 -17.0497,2.6661 -24.0351,5.6093 l -6.3321,2.67 0.666,3.6015 c 1.0407,5.6219 6.0366,20.1016 6.9356,20.1016 0.2665,0 2.6409,-2.3188 5.2754,-5.1524 5.5071,-5.9231 12.2769,-10.4842 20.6289,-13.9004 6.8312,-2.7942 13.6691,-8.2806 12.1601,-9.7558 -1.3024,-1.2731 -10.5708,-3.196 -15.2988,-3.1738 z"
           style="fill:#fdfdfb"
           id="path116" /><path
           d="m 1175.4679,3568.4522 c -9.933,0.5181 -7.2031,3.8013 10.9825,13.2129 5.6277,2.9125 12.6027,7.4557 15.5,10.0957 2.8974,2.6401 5.7684,4.8208 6.3808,4.8457 0.6124,0.025 2.2684,-4.1176 3.6778,-9.2051 1.4095,-5.0875 2.843,-10.657 3.1875,-12.377 l 0.6269,-3.1269 -8.3027,-1.25 c -10.7264,-1.6138 -24.7716,-2.5751 -32.0528,-2.1953 z"
           style="fill:#fdfdfb"
           id="path115" /><path
           d="m 1528.9738,3533.6514 c -6.0251,0 -18.7157,3.1488 -25.8437,6.4121 -6.9717,3.1918 -9.0662,6.932 -7.4571,13.3223 1.2663,5.0291 6.6745,16.2781 7.8106,16.2461 0.4046,-0.011 6.1343,-1.1324 12.7343,-2.4903 13.9277,-2.8654 27.6545,-3.2562 35.0918,-1 6.8407,2.0752 7.6546,1.9296 9.8086,-1.7461 4.7812,-8.1591 4.8472,-8.4202 3.0567,-12.1933 -4.4777,-9.4361 -21.7733,-18.5508 -35.2012,-18.5508 z"
           style="fill:#fdfdfb"
           id="path114" /><path
           d="m 1194.6926,3529.8291 c -10.6121,0.3365 -13.1307,0.7392 -16.8672,2.7012 -6.2657,3.2902 -14.0892,10.906 -16.3047,15.8711 -1.8748,4.2015 -1.8734,4.3036 0.1426,8.8613 1.7379,3.9287 2.3731,4.5259 4.2968,4.0449 13.1579,-3.2901 23.236,-3.0993 40.7578,0.7715 17.3243,3.8271 16.027,4.3043 20.8028,-7.6582 l 4.084,-10.2285 -2.5743,-3.377 c -3.473,-4.5533 -10.4636,-8.831 -16.7168,-10.2304 -3.0198,-0.6758 -10.304,-0.9879 -17.621,-0.7559 z"
           style="fill:#fdfdfb"
           id="path113" /><path
           d="m 1366.0578,3499.9131 c -40.9728,-1.0365 -65.5465,4.3165 -94.8399,20.6582 -10.6532,5.9431 -24.5342,19.8083 -35.621,35.5801 -7.719,10.9806 -8.8335,13.1971 -13.1309,26.0918 -2.5829,7.7504 -6.0145,20.3504 -7.625,28 -1.796,8.5311 -4.5402,17.7743 -7.0977,23.9082 -10.9234,26.1977 -13.8214,37.9977 -12.7402,51.8828 1.2307,15.8049 9.1247,31.9952 21.3438,43.7773 7.5412,7.2715 19.3314,15.6065 26.916,19.0274 3.2759,1.4776 8.43,3.7888 11.455,5.1367 15.2821,6.8096 43.8953,14.1877 65,16.7598 22.6505,2.7604 52.3589,3.0562 81.5,0.8125 22.7352,-1.7505 50.3311,-8.8431 70.5,-18.1211 21.9144,-10.0809 42.51,-31.2452 49.1719,-50.5313 2.0003,-5.7907 2.3249,-8.6505 2.2969,-20.2441 -0.036,-14.7023 0.4783,-12.626 -10.7813,-43.5684 -1.4146,-3.8873 -3.5468,-11.9873 -4.7382,-18 -2.5547,-12.8928 -9.7795,-38.2772 -13.4571,-47.2871 -7.7196,-18.9124 -20.9521,-36.8672 -34.7949,-47.2129 -22.8706,-17.0929 -52.802,-25.644 -93.3574,-26.6699 z m 64.9473,101.0508 c 1.1513,0.042 2.3441,0.2217 3.5742,0.543 6.5321,1.706 9.2319,3.9272 12.3906,10.1894 6.109,12.1112 6.0505,24.9884 -0.1758,38.4609 -6.8884,14.9055 -14.7242,20.4255 -23.0293,16.2227 -3.7644,-1.905 -8.8384,-9.2331 -10.7617,-15.5449 -2.2568,-7.406 -2.1836,-22.5412 0.1484,-30.711 3.6931,-12.9381 9.7938,-19.4548 17.8536,-19.1601 z m -143.7071,1.1875 c 5.4616,0 6.7033,0.3781 10.0078,3.0527 7.6518,6.1931 10.8281,17.4541 9.3457,33.1231 -0.4864,5.141 -1.6029,11.8224 -2.4824,14.8476 -3.6522,12.5632 -13.868,17.9558 -22.6758,11.9707 -4.6692,-3.1728 -9.0901,-9.569 -11.4433,-16.5547 -1.3723,-4.0741 -1.8321,-8.4514 -1.8321,-17.4394 0,-11.1464 0.2017,-12.4091 2.8282,-17.7578 4.0741,-8.2966 8.3318,-11.2422 16.2519,-11.2422 z m -19.9785,81.5 c 5.1727,0 8.3984,3.3423 8.3984,8.7012 0,4.6824 -1.3789,6.8868 -5.1269,8.1933 -3.9906,1.3911 -4.7698,1.3526 -7.9844,-0.3945 -3.1679,-1.7218 -5.3257,-6.5069 -4.3633,-9.6758 1.3549,-4.4612 4.4963,-6.8242 9.0762,-6.8242 z m 182.5488,2.2969 c 4.1805,0 10.5916,2.1394 13.7461,4.7656 l 2.3985,1.9961 -2.1836,2.3222 c -2.6637,2.8354 -8.2693,4.6192 -14.5215,4.6192 -3.6663,0 -5.2255,-0.5439 -7.1973,-2.5156 -4.1137,-4.1137 -1.0132,-9.7147 6.1192,-11.0528 0.4901,-0.092 1.0414,-0.1349 1.6386,-0.1347 z m -74.7285,26.7949 c 1.5489,0.061 2.5435,2.6757 2.5645,7.6562 0.019,4.5804 -5.6149,10.6409 -11.2344,12.084 -6.6839,1.7164 -9.9739,2.0127 -13.8457,1.2461 -9.0706,-1.7959 -15.1955,-8.4771 -14.7012,-16.0351 0.4003,-6.1196 2.5182,-6.3127 6.1367,-0.5606 4.0963,6.5118 7.0542,8.5176 12.5586,8.5176 6.4861,0 11.0917,-2.722 14.0996,-8.332 1.6769,-3.1276 3.2172,-4.6238 4.4219,-4.5762 z"
           style="fill:#fdfdfb"
           id="path112" /><path
           d="m 1483.0851,3499.1631 c -0.5224,0.015 -1.1588,0.4245 -2.2246,1.1172 -3.9685,2.5793 -15.3953,11.825 -17.416,14.0918 -1.7313,1.9423 -1.6083,2.1175 5.1172,7.2305 6.6303,5.0406 11.7701,10.4164 15.6309,16.3496 3.0267,4.6513 4.1231,1.936 2.6816,-6.6426 -0.8825,-5.2524 -0.9441,-8.6078 -0.2188,-11.7539 1.6851,-7.3103 1.3002,-13.7856 -1.0449,-17.5801 -1.2434,-2.012 -1.7617,-2.834 -2.5254,-2.8125 z"
           style="fill:#fdfdfb"
           id="path111" /><path
           d="m 1242.6945,3496.3584 c -4.3288,0.2434 -6.3126,5.0225 -5.582,13.793 0.5864,7.0406 4.2355,19.5 5.7109,19.5 0.5632,0 5.1568,-3.6435 10.209,-8.0977 5.0522,-4.4542 9.3133,-8.4357 9.4687,-8.8476 0.527,-1.397 -13.3276,-14.7004 -16.4394,-15.7852 -1.2442,-0.4337 -2.3682,-0.6186 -3.3672,-0.5625 z"
           style="fill:#fdfdfb"
           id="path110" /><path
           style="fill:#181005"
           d="m 1404.0426,3968.2634 c -10.6385,-3.457 -16.9553,-10.0687 -24.7374,-25.8919 -5.0666,-10.3018 -5.7453,-12.3925 -5.7203,-17.6195 l 0.028,-5.9306 -3.1909,0.9151 c -1.7549,0.5033 -7.1794,0.9151 -12.0543,0.9151 -4.875,0 -11.9654,0.7487 -15.7566,1.6637 l -6.8931,1.6638 -0.01,3.5862 c -0.018,11.4186 -3.6922,21.6329 -10.3968,28.907 -5.3985,5.857 -10.815,8.8197 -18.7937,10.2798 -5.8579,1.072 -7.5482,0.9983 -13.5,-0.5883 -6.2258,-1.6597 -7.3983,-2.4266 -13.8037,-9.0285 -4.6476,-4.7901 -9.5869,-11.5447 -14.6977,-20.0992 -9.3001,-15.5669 -10.11,-17.4207 -18.952,-43.3845 -7.0739,-20.7718 -15.9037,-39.9879 -27.2505,-59.3042 -2.9709,-5.0577 -6.433,-11.3272 -7.6935,-13.9324 -2.0517,-4.2402 -3.5028,-5.4636 -13.8491,-11.6752 -18.9178,-11.3579 -28.4547,-20.5255 -34.3876,-33.0565 -7.1444,-15.0898 -2.3175,-29.3523 12.6082,-37.2549 3.5466,-1.8778 5.8222,-2.2388 14.2222,-2.2562 5.5,-0.011 12.4026,0.3802 15.3392,0.8701 l 5.3392,0.8906 -6.4733,-8.8906 c -12.8591,-17.6611 -16.9523,-29.2653 -16.8929,-47.8907 0.045,-14.1504 2.6193,-25.9497 8.9988,-41.2485 6.7481,-16.1827 7.192,-17.7096 7.167,-24.6507 -0.043,-11.9869 -4.5453,-17.3571 -21.5181,-25.667 -12.8121,-6.2728 -15.3053,-8.2714 -20.039,-16.064 -2.0099,-3.3087 -5.1769,-8.2781 -7.0377,-11.0433 -7.5199,-11.1746 -2.5456,-23.2229 14.1684,-34.3169 8.5242,-5.6581 19.0389,-7.8934 33.9174,-7.2105 8.2039,0.3765 14.2074,1.2358 18.8728,2.7013 3.7631,1.1821 7.0194,1.9717 7.2364,1.7548 0.2169,-0.217 -0.2986,-3.9632 -1.1456,-8.3248 -1.7957,-9.247 -1.2439,-14.8959 2.0995,-21.4937 4.1207,-8.1319 10.3627,-10.409 20.1387,-7.3466 4.5974,1.4402 7.1076,3.1027 11.8794,7.868 3.3276,3.323 7.1526,7.4987 8.5,9.2792 l 2.4498,3.2373 6,-2.8952 c 15.962,-7.7023 37.1026,-12.3238 65.2469,-14.2635 19.0489,-1.3129 43.0027,-0.053 61.2876,3.2243 12.855,2.3039 31.5853,8.2247 40.9112,12.9324 l 6.18,3.1197 5.5272,-5.6161 c 9.3696,-9.5206 22.2381,-16.3179 28.3508,-14.9754 3.2389,0.7114 9.4308,6.8685 11.0615,10.9992 0.6513,1.65 1.4112,8.6925 1.6886,15.6499 0.2774,6.9574 0.8534,13.2146 1.28,13.9048 0.602,0.9741 1.9717,0.7847 6.1209,-0.8466 2.9399,-1.1559 7.1453,-2.573 9.3453,-3.1493 5.2798,-1.3829 20.0484,-1.3461 26.7008,0.066 12.2198,2.5948 25.4401,12.3535 30.3609,22.4113 2.3308,4.764 2.4639,5.6629 1.4231,9.6095 -1.5,5.6875 -9.3386,19.3256 -13.8947,24.1751 -2.3538,2.5053 -7.7225,5.836 -15.5901,9.6718 -13.7402,6.699 -21.2763,12.9863 -24.6165,20.5375 -2.8456,6.433 -2.2225,10.9278 4.0608,29.2935 6.8172,19.9261 8.1272,26.2783 8.1437,39.4914 0.026,20.8409 -7.0863,38.3899 -22.5683,55.6846 -8.4134,9.3985 -9.9721,11.7713 -6.978,10.6224 0.848,-0.3254 5.4856,-1.0712 10.3057,-1.6572 22.1326,-2.6911 40.9816,5.9749 44.1913,20.3173 1.486,6.6402 0.8923,10.2504 -3.0594,18.6012 -5.3574,11.3214 -23.6652,27.0472 -40.4161,34.716 -6.2713,2.8711 -6.7794,3.5014 -16.0427,19.9003 -3.7282,6.6 -7.8044,13.8102 -9.0584,16.0227 -4.9188,8.6785 -18.9076,42.7353 -18.2677,44.4742 0.6134,1.6671 14.2587,12.199 18.7612,14.4806 2.5464,1.2904 7.3106,3.1171 10.5871,4.0595 7.7823,2.2382 11.2294,4.0021 15.2926,7.825 4.1078,3.8648 5.4088,6.3111 9.7842,18.3986 l 3.4515,9.5349 -2.2098,2.3523 c -2.9022,3.0892 -10.9497,3.1839 -20.5059,0.2412 -17.7335,-5.4608 -25.4679,-12.3152 -36.2782,-32.1507 -2.3266,-4.269 -4.6093,-7.5274 -5.0728,-7.241 -0.4634,0.2865 -3.1518,5.2958 -5.9741,11.1319 -12.9877,26.8567 -26.4268,39.3702 -43.0302,40.0668 -3.575,0.15 -8.3791,-0.3379 -10.6758,-1.0842 z m 13.9914,-9.5451 c 2.0986,-0.4871 5.4736,-2.0384 7.5,-3.4473 5.7363,-3.9882 21.488,-19.928 23.4349,-23.7147 0.9627,-1.8726 5.0701,-13.3047 9.1275,-25.4047 8.5147,-25.393 14.5954,-40.2904 21.633,-53 8.5176,-15.3825 12.4195,-23.4028 11.7238,-24.0985 -0.3678,-0.3678 -3.4962,-1.1732 -6.9518,-1.7896 -5.439,-0.9702 -6.3277,-1.436 -6.6159,-3.468 -0.576,-4.0619 0.7198,-6.9114 4.0812,-8.9742 4.0335,-2.4754 7.2864,-2.8415 16.4104,-1.8469 8.3211,0.907 10.8049,0.1311 20.5386,-6.4161 13.9554,-9.3869 25.7208,-22.0248 29.4106,-31.5914 1.5628,-4.0522 1.5386,-4.3214 -0.7659,-8.5 -2.7098,-4.9137 -10.5049,-10.1674 -16.5739,-11.1705 -11.0077,-1.8193 -30.919,0.1596 -47.7681,4.7475 -13.7672,3.7487 -13.871,3.8085 -15.1945,8.7424 -2.6881,10.0203 -20.6593,18.5172 -53.4544,25.2735 -12.3483,2.544 -35.6773,4.5776 -46.0256,4.0121 -2.929,-0.1601 -10.7748,-0.5542 -17.435,-0.8758 -21.9937,-1.0622 -52.5301,-6.2084 -72.3772,-12.1974 -14.9216,-4.5027 -19.6678,-7.321 -25.6686,-15.2419 -4.305,-5.6823 -6.1816,-7.1306 -16.8447,-13 -12.8987,-7.0998 -15.4888,-8.2486 -25.5,-11.3094 -16.6759,-5.0984 -36.067,-0.3022 -41.5359,10.2737 -5.0464,9.7587 5.4069,26.9727 23.7745,39.1506 12.2399,8.1152 12.1124,8.0684 20.1423,7.3801 16.404,-1.4062 23.7324,1.9426 23.8679,10.9068 0.09,5.921 -1.3746,7.1817 -9.3946,8.089 -3.2198,0.3643 -5.8542,0.9516 -5.8542,1.305 0,0.3535 2.4881,4.4579 5.5291,9.1209 11.0126,16.8863 17.8705,31.8422 26.1267,56.9781 5.3707,16.3508 15.7722,41.1463 18.8034,44.8239 1.2131,1.4719 4.0642,5.4391 6.3358,8.8162 7.7763,11.5605 16.0347,16.3276 25.9693,14.9905 7.0318,-0.9465 12.1217,-4.9842 15.9655,-12.6653 4.2501,-8.4929 5.6676,-15.6993 4.8935,-24.8775 -0.7529,-8.926 -3.4214,-15.1375 -10.4102,-24.2314 -4.7683,-6.2047 -4.9922,-6.7463 -3.3888,-8.1974 2.4477,-2.2151 6.107,-3.3948 8.884,-2.8639 2.8507,0.5449 7.2274,8.5176 11.3661,20.7049 l 2.7167,8 13.8545,0.3023 c 9.8837,0.2156 16.3482,-0.1755 22.5558,-1.3647 l 8.7015,-1.6668 4.0301,-8.1354 c 4.6863,-9.4599 8.985,-15.0245 13.3502,-17.2818 3.0567,-1.5807 3.1452,-1.5577 5.91,1.5366 1.5437,1.7278 2.8068,3.5309 2.8068,4.0069 0,0.476 -1.6875,2.1482 -3.75,3.7159 -5.9737,4.5407 -8.3238,7.4506 -11.6191,14.387 -2.8631,6.0266 -3.0895,7.3011 -3.1094,17.5 -0.02,10.4224 0.1442,11.317 3.1352,17.0366 3.5707,6.8285 10.8398,14.0892 15.0342,15.017 1.545,0.3417 3.2591,0.7715 3.8091,0.9549 1.8294,0.6103 4.9583,0.4535 8.8156,-0.4418 z m 96.6624,-10.3167 c -0.031,-1.7876 -3.5924,-9.3997 -5.9387,-12.6947 -1.4451,-2.0295 -5.6482,-4.3476 -15.2805,-8.4274 -7.3079,-3.0953 -13.6258,-5.6279 -14.0398,-5.6279 -1.1496,0 3.6786,8.9943 7.2468,13.5 1.7423,2.2 5.6571,5.6868 8.6996,7.7485 7.8417,5.3137 19.367,8.5968 19.3126,5.5015 z m -107.978,-160.2485 c 22.0487,-3.054 38.9322,-7.8118 43.6604,-12.3038 l 2.8396,-2.6977 -2.5,-0.2857 c -1.375,-0.1572 -11.95,1.1178 -23.5,2.8333 -18.5901,2.7612 -24.3858,3.1816 -50.5045,3.6637 -23.8519,0.4403 -32.3386,0.2222 -44.2979,-1.1382 -9.6762,-1.1007 -20.3978,-1.5773 -30.9955,-1.3779 l -16.2021,0.3048 -7.1109,-3.6925 c -7.1663,-3.7213 -19.2748,-8.2551 -20.03,-7.4999 -0.8915,0.8915 2.6655,2.6447 14.1409,6.9696 23.5646,8.8811 27.0684,9.6698 76,17.1063 6.3655,0.9675 47.4766,-0.3552 58.5,-1.882 z m -5.5,-16.6053 c 22.7352,-1.7505 50.3311,-8.8439 70.5,-18.1219 21.9144,-10.0809 42.5089,-31.2452 49.1708,-50.5313 2.0003,-5.7907 2.3246,-8.6494 2.2966,-20.243 -0.036,-14.7023 0.4783,-12.6255 -10.7813,-43.5679 -1.4146,-3.8873 -3.5468,-11.9873 -4.7382,-18 -2.5547,-12.8928 -9.7779,-38.2774 -13.4555,-47.2873 -7.7196,-18.9124 -20.9523,-36.8679 -34.7951,-47.2136 -22.8706,-17.0929 -52.8021,-25.6434 -93.3575,-26.6693 -40.9728,-1.0365 -65.5464,4.3162 -94.8398,20.6579 -10.6532,5.9431 -24.5346,19.8084 -35.6214,35.5802 -7.7189,10.9806 -8.8344,13.1971 -13.1318,26.0918 -2.5829,7.7504 -6.0138,20.3504 -7.6243,28 -1.796,8.5311 -4.54,17.7743 -7.0975,23.9082 -10.9234,26.1977 -13.8207,37.997 -12.7395,51.8821 1.2307,15.8049 9.1248,31.9965 21.3439,43.7786 7.5412,7.2715 19.3298,15.6049 26.9144,19.0258 3.2759,1.4776 8.4312,3.7894 11.4562,5.1373 15.2821,6.8096 43.8953,14.1871 65,16.7592 22.6505,2.7604 52.3589,3.0569 81.5,0.8132 z m -48.5949,-37.8192 c -9.0706,-1.7959 -15.1954,-8.4761 -14.7011,-16.0341 0.4003,-6.1196 2.5189,-6.3133 6.1374,-0.5612 4.0963,6.5118 7.0546,8.5183 12.559,8.5183 6.4861,0 11.0917,-2.7214 14.0996,-8.3314 3.8329,-7.1488 6.9491,-5.7757 6.9863,3.0785 0.019,4.5804 -5.6154,10.6409 -11.2349,12.084 -6.6839,1.7164 -9.9745,2.0125 -13.8463,1.2459 z m -90.0171,-33.5766 c -3.1679,-1.7218 -5.3263,-6.5078 -4.3639,-9.6767 1.3549,-4.4612 4.4977,-6.8237 9.0776,-6.8237 5.1727,0 8.3983,3.3417 8.3983,8.7006 0,4.6824 -1.3801,6.8877 -5.1281,8.1942 -3.9906,1.3911 -4.7693,1.3527 -7.9839,-0.3944 z m 179.5044,-3.017 c -4.1137,-4.1137 -1.013,-9.7135 6.1194,-11.0516 3.9213,-0.7356 11.7798,1.63 15.385,4.6313 l 2.3969,1.9953 -2.1825,2.3232 c -2.6637,2.8354 -8.2705,4.6184 -14.5227,4.6184 -3.6663,0 -5.2243,-0.5449 -7.1961,-2.5166 z m -160.6166,-31.9898 c -4.6692,-3.1728 -9.0904,-9.5685 -11.4436,-16.5542 -1.3723,-4.0741 -1.8322,-8.4514 -1.8322,-17.4394 0,-11.1464 0.2011,-12.4096 2.8276,-17.7583 4.0741,-8.2966 8.3316,-11.2417 16.2517,-11.2417 5.4616,0 6.703,0.3787 10.0075,3.0533 7.6518,6.1931 10.8293,17.4529 9.3469,33.1219 -0.4864,5.141 -1.6039,11.8225 -2.4834,14.8477 -3.6522,12.5632 -13.8667,17.9558 -22.6745,11.9707 z m 13.2999,-36.0742 c 1.9599,-2.0862 2.4243,-3.6355 2.4243,-8.0883 0,-4.5819 -0.3969,-5.8292 -2.3608,-7.4194 -3.2693,-2.6474 -6.6107,-2.399 -9.0254,0.6708 -2.7737,3.5262 -3.4194,5.9748 -2.653,10.0602 1.3293,7.0857 7.1838,9.4934 11.6149,4.7767 z m 128.97,37.3091 c -3.7644,-1.905 -8.837,-9.2331 -10.7603,-15.5449 -2.2568,-7.406 -2.1837,-22.5421 0.1483,-30.7119 4.2206,-14.7864 11.5862,-21.1858 21.4265,-18.6158 6.5321,1.706 9.2328,3.9266 12.3915,10.1888 6.109,12.1112 6.0499,24.9887 -0.1764,38.4612 -6.8884,14.9055 -14.7245,20.4254 -23.0296,16.2226 z m 9.0312,-38.6516 c 2.2452,-2.2452 2.9231,-3.8401 2.9231,-6.8775 0,-4.7671 -1.8667,-6.5994 -6.7231,-6.5994 -4.7759,0 -8.2769,3.9862 -8.2769,9.4238 0,3.2397 0.4728,4.1689 2.75,5.4042 4.0523,2.1985 6.0696,1.9063 9.3269,-1.3511 z m 86.633,-29.2289 c 5.5071,-5.9231 12.277,-10.4852 20.629,-13.9014 6.8312,-2.7942 13.6701,-8.2803 12.1611,-9.7555 -1.3024,-1.2731 -10.5712,-3.1959 -15.2992,-3.1737 -5.7388,0.027 -17.0489,2.6669 -24.0343,5.6101 l -6.3336,2.6685 0.6668,3.602 c 1.0407,5.6219 6.0365,20.102 6.9355,20.102 0.2665,0 2.6402,-2.3184 5.2747,-5.152 z m -307.4203,-11.098 c 1.4095,-5.0875 2.8445,-10.6573 3.189,-12.3773 l 0.6264,-3.1273 -8.3025,-1.249 c -10.7264,-1.6138 -24.7713,-2.5763 -32.0525,-2.1965 -9.933,0.5181 -7.2036,3.8021 10.982,13.2137 5.6277,2.9125 12.6027,7.4555 15.5,10.0955 2.8974,2.6401 5.7691,4.8206 6.3815,4.8455 0.6124,0.025 2.2667,-4.1171 3.6761,-9.2046 z m 304.2104,-20.2602 c 13.9277,-2.8654 27.6538,-3.2568 35.0911,-1.0006 6.8407,2.0752 7.6557,1.9302 9.8097,-1.7455 4.7812,-8.1591 4.8466,-8.42 3.0561,-12.1931 -4.4777,-9.4361 -21.773,-18.5506 -35.2009,-18.5506 -6.0251,0 -18.7172,3.1489 -25.8452,6.4122 -6.9717,3.1918 -9.0651,6.9323 -7.456,13.3226 1.2663,5.0291 6.6735,16.2765 7.8096,16.2445 0.4046,-0.011 6.1356,-1.1316 12.7356,-2.4895 z m -288.6977,-12.7198 4.0842,-10.23 -2.5744,-3.3752 c -3.473,-4.5533 -10.4627,-8.8313 -16.7159,-10.2307 -3.0198,-0.6758 -10.3052,-0.9886 -17.6222,-0.7566 -10.6121,0.3365 -13.1296,0.7398 -16.8661,2.7018 -6.2657,3.2902 -14.0896,10.9056 -16.3051,15.8707 -1.8748,4.2015 -1.8731,4.3026 0.1429,8.8603 1.7379,3.9287 2.3731,4.5268 4.2968,4.0458 13.1579,-3.2901 23.2357,-3.0993 40.7575,0.7715 17.3243,3.8271 16.0265,4.3049 20.8023,-7.6576 z m 259.3539,-23.1125 c -0.8825,-5.2524 -0.9454,-8.6081 -0.2201,-11.7542 1.6851,-7.3103 1.3003,-13.7846 -1.0448,-17.5791 -2.0942,-3.3886 -2.1266,-3.4001 -4.75,-1.6951 -3.9685,2.5793 -15.3951,11.825 -17.4158,14.0918 -1.7313,1.9423 -1.6069,2.118 5.1186,7.231 6.6303,5.0406 11.7695,10.4163 15.6303,16.3495 3.0267,4.6513 4.1233,1.9347 2.6818,-6.6439 z m -233.842,-9.7561 c 5.0522,-4.4542 9.3129,-8.4356 9.4683,-8.8475 0.527,-1.397 -13.3279,-14.6997 -16.4397,-15.7845 -6.6357,-2.3132 -9.8481,2.4362 -8.9489,13.2306 0.5864,7.0406 4.2351,19.5 5.7105,19.5 0.5632,0 5.1576,-3.6444 10.2098,-8.0986 z"
           id="path61-1" /><path
           id="path66"
           style="fill:#d1c5d9"
           d="m 1243.0129,3485.8037 c -7.5396,-0.392 -13.1059,4.0366 -16.3106,13.1543 -2.3506,6.6877 -2.4468,10.1468 -0.5039,18.1934 0.7968,3.3 1.4644,6.3169 1.4844,6.7051 0.02,0.3881 -1.6978,0.095 -3.8164,-0.6524 -11.2358,-3.9642 -34.4545,-4.5368 -45.6934,-1.1269 -9.483,2.8771 -22.0474,12.8639 -26.0019,20.6679 -4.5604,8.9994 -3.587,13.4576 6.2285,28.5235 7.9127,12.1451 7.5866,11.8515 20.4648,18.3906 16.0952,8.1725 17.6379,9.334 20.459,15.3926 3.9283,8.4364 2.792,18.9513 -3.3613,31.0996 -1.393,2.75 -3.6052,8.15 -4.918,12 -11.2159,32.8933 -7.0006,59.081 13.5899,84.4082 l 3.5839,4.4082 -4,-0.7734 c -18.0706,-3.4982 -29.4359,-1.3766 -37.8847,7.0722 -7.3688,7.3689 -9.7843,16.2672 -7.1778,26.4414 2.0916,8.1643 5.1911,13.4048 12.6524,21.3809 4.95,5.2915 22.3305,18.5625 24.3105,18.5625 0.3084,0 3.046,1.5898 6.084,3.5332 4.6427,2.9698 6.1008,4.6766 9.1328,10.6973 1.984,3.9398 4.6868,8.8732 6.0059,10.9628 5.832,9.2385 17.4578,32.2331 20.8848,41.3067 1.4541,3.85 4.8838,13.7344 7.621,21.9648 5.6105,16.8697 11.0452,29.0794 17.0567,38.3145 0.2406,0.3696 0.4755,0.7343 0.7012,1.0898 l 0.9121,-0.4844 71.1914,-9.4707 1.0215,-0.027 c 0.084,-2.3125 0.6831,-2.7727 3.7382,-3.6641 8.2999,-2.4215 10.7871,-2.4757 14.3418,-0.3086 2.5506,1.555 5.0907,2.0821 10.0918,2.0821 3.8589,0 5.567,-0.067 6.5371,0.9375 l 15.8008,-0.4336 28.1621,8.3613 35.0059,0.6074 4.3672,2.336 c 1.0164,-2.0986 2.3384,-4.7648 3.7754,-7.5977 l 5.7285,-11.293 2.3027,4.793 c 3.9169,8.1548 10.8161,18.6197 14.8164,22.4707 8.1463,7.8421 25.1597,14.7777 36.3203,14.8047 4.3278,0.011 11,-2.8972 11,-4.793 0,-2.87 -7.765,-22.4199 -10.3183,-25.9785 -3.5991,-5.0162 -10.4869,-9.1955 -19.8985,-12.0722 -8.8883,-2.7167 -11.2174,-3.9984 -20.1191,-11.0723 l -7.5254,-5.9805 1.043,-3.7929 c 3.766,-13.6876 26.8146,-60.3772 34.8476,-70.5899 1.2098,-1.538 5.6364,-4.5324 9.836,-6.6562 16.9972,-8.5959 32.5147,-22.283 38.0781,-33.584 5.2922,-10.75 5.1222,-18.6031 -0.6035,-27.7051 -6.1146,-9.72 -24.9233,-15.3111 -43.3203,-12.877 -4.1147,0.5444 -7.5593,0.9067 -7.6543,0.8047 -0.095,-0.102 2.5416,-3.1105 5.8594,-6.6855 8.0576,-8.6821 12.8221,-15.8697 17.625,-26.5899 4.8435,-10.8109 6.1503,-17.4881 6.1503,-31.4101 0,-14.1301 -1.0451,-19.3192 -8.0625,-40 -3.2659,-9.625 -5.9379,-18.9663 -5.9375,-20.7598 0,-9.7463 9.4086,-19.3602 27.6739,-28.2832 13.8428,-6.7625 15.4282,-8.2923 23.2773,-22.4609 6.6066,-11.9257 7.0457,-14.5977 3.5332,-21.5293 -3.084,-6.0859 -11.757,-15.0483 -17.2832,-17.8594 -14.1663,-7.2063 -31.6433,-8.4653 -46.3105,-3.3379 l -8.6094,3.0098 -0.6777,-11.334 c -0.8051,-13.4674 -2.4621,-19.6343 -6.627,-24.6699 -7.4283,-8.9812 -20.1431,-5.9698 -35.5195,8.414 l -6.4981,6.0782 -9.5332,-4.1973 c -10.7368,-4.7273 -26.2517,-9.3321 -38.8398,-11.5273 -22.7832,-3.9732 -63.9165,-3.9368 -87.586,0.076 -11.7483,1.9917 -29.8509,7.4071 -37.5195,11.2246 l -5.7578,2.8672 -6.1113,-7.5234 c -4.4997,-5.5386 -7.6243,-8.3066 -11.8496,-10.5 -4.2061,-2.1835 -8.0397,-3.357 -11.4668,-3.5352 z m -0.4746,11.6074 c 1.6555,-0.092 3.7397,0.5615 5.9023,1.9786 2.3328,1.5285 2.3507,1.6337 0.5781,3.4062 -1.0062,1.0062 -4.0117,2.1286 -6.6797,2.4942 -5.2895,0.725 -5.0226,1.1859 -3.1328,-5.3887 0.449,-1.562 1.6765,-2.3983 3.3321,-2.4903 z m 239.957,3.2403 c 0.8653,0 4.2226,4.2363 4.2226,5.3281 0,0.2196 -1.6875,1.5375 -3.75,2.9277 -4.0922,2.7582 -9.6695,4.0229 -12.6308,2.8633 -1.5989,-0.6262 -0.9031,-1.5165 4.6406,-5.9277 3.5879,-2.8549 6.9713,-5.1914 7.5176,-5.1914 z m -122.1699,0.1055 c 30.8899,0.116 60.9087,5.7163 80.8925,15.6601 13.6782,6.8061 28.7464,19.088 35.8672,29.2344 5.549,7.9068 13.4482,21.6641 13.7793,24 l 0.3535,2.5 -9.5,-0.043 c -7.7044,-0.035 -10.2691,-0.4471 -13.5683,-2.1777 -4.8992,-2.57 -10.5556,-8.6306 -13.5195,-14.4844 -6.6396,-13.1136 -15.1617,-21.3069 -25.2891,-24.3144 -2.7528,-0.8175 -9.0799,-1.9519 -14.0625,-2.5215 -4.9826,-0.5696 -14.9106,-2.4225 -22.0606,-4.1172 -10.963,-2.5985 -14.3137,-2.9992 -21.3906,-2.5625 -15.9023,0.9814 -26.6885,9.2985 -27.8594,21.4844 -0.4822,5.0187 3.6108,20.2245 8.3497,31.0175 3.2286,7.3532 11.9634,16.1899 20.0703,20.3047 11.709,5.9432 23.0283,5.0968 31.0488,-2.3222 l 2.2187,-2.0528 6.7813,6.3438 c 3.73,3.4893 6.7556,6.5919 6.7246,6.8945 -0.031,0.3027 -1.501,3.5155 -3.2676,7.1387 -5.8273,11.9509 -7.5832,26.0874 -4.6426,37.3769 5.8664,22.5229 21.0834,27.4672 32.1036,10.4317 2.4005,-3.7108 4.3632,-7.2311 4.3632,-7.8223 0,-1.8407 1.3401,-1.2287 8.3125,3.791 3.7163,2.6755 9.7792,6.1094 13.4727,7.6309 13.9943,5.7648 17.408,7.5351 23.3652,12.1191 7.0171,5.3995 11.5327,7.2798 17.6446,7.3418 l 4.2968,0.043 -0.6269,3.75 c -1.9701,11.7817 -7.1238,22.6935 -13.7051,29.0234 l -3.4023,3.2735 -9.4278,-4.2539 c -8.2791,-3.735 -10.2831,-4.2481 -16.4297,-4.2071 -8.3122,0.056 -13.7178,2.428 -18.3574,8.0567 -7.2396,8.7828 -5.5391,22.4864 3.5391,28.5332 2.1008,1.3993 5.5058,3.5437 7.5683,4.7656 2.0625,1.2219 3.75,2.5351 3.75,2.918 0,0.3828 -3.9375,2.1305 -8.75,3.8847 -24.6388,8.9811 -43.6576,12.5286 -76.25,14.2227 v 0 c -10.725,0.5574 -20.625,0.951 -22,0.875 -1.375,-0.076 -9.0402,-0.4981 -17.0351,-0.9355 -30.2238,-1.6536 -59.0756,-7.2873 -81.8457,-15.9824 l -8.293,-3.1661 4.3379,-2.455 c 2.3852,-1.3495 5.3153,-3.3661 6.5117,-4.4825 5.2298,-4.88 5.6628,-22.0688 0.7188,-28.5507 -3.2578,-4.2713 -11.4611,-8.2488 -17.0391,-8.2618 -3.3798,-0.01 -10.5643,1.6894 -19.0937,4.5098 -0.681,0.2251 -4.8205,-1.4543 -9.1993,-3.7305 l -7.9609,-4.1386 -3.9961,1.8027 c -2.1982,0.9912 -4.5897,1.575 -5.3144,1.2969 -0.7247,-0.2781 -2.4248,-3.8224 -3.7774,-7.877 -2.088,-6.2589 -2.4504,-9.1849 -2.3984,-19.373 0.071,-13.8361 1.4253,-20.0382 7.4922,-34.3184 6.6311,-15.6084 10.5328,-27.8064 13.3339,-41.6816 1.4435,-7.15 3.9408,-16.375 5.5489,-20.5 1.608,-4.125 3.5086,-9.525 4.2246,-12 l 1.3027,-4.5 4.4903,0.1855 c 2.4704,0.1016 8.0187,0.5822 12.3281,1.0684 l 7.8359,0.8848 6.7598,-9.0704 c 8.1189,-10.8898 8.0596,-10.8345 20.2871,-17.9726 11.7252,-6.8449 22.706,-15.4226 26.1406,-20.4199 1.389,-2.021 3.6303,-6.7429 4.9824,-10.4922 1.3521,-3.7492 2.7372,-7.0946 3.0762,-7.4336 0.3391,-0.339 7.2462,-1.4149 15.3496,-2.3906 10.1509,-1.2223 20.5432,-1.7926 30.8399,-1.7539 z m -160.6368,30.0761 c 6.83,0.1971 13.6211,0.9662 17.0586,2.2129 5.0967,1.8484 12.9707,8.9034 12.9707,11.6211 0,0.9818 -1.6196,5.6549 -3.5996,10.3848 -4.0996,9.7933 -3.4085,9.4993 -15.4004,6.5429 -14.7642,-3.6399 -32.4632,-4.2969 -45.2363,-1.6777 -0.6268,0.1286 -1.9729,-1.4823 -2.9902,-3.5801 -1.8327,-3.7795 -1.8279,-3.855 0.4394,-8.414 3.1492,-6.3324 12.2849,-13.7788 19.4688,-15.8672 3.5908,-1.0439 10.4591,-1.4197 17.289,-1.2227 z m 329.4903,3.8399 c 15.384,0.054 34.5221,11.83 34.5351,21.25 0,2.5701 -4.4843,10.7479 -5.8789,10.7129 -0.3394,-0.01 -3.3172,-0.6681 -6.6172,-1.4649 -8.3874,-2.0252 -18.7513,-1.8599 -32.8886,0.5215 -6.6611,1.122 -12.8333,2.2565 -13.7168,2.5215 -1.2,0.3599 -2.4278,-1.3546 -4.8516,-6.7754 -4.68,-10.4666 -4.8819,-12.8566 -1.4004,-16.5195 4.9788,-5.2382 20.1533,-10.2831 30.8184,-10.2461 z m -241.0703,65.9882 c -3.3192,-0.2272 -6.6451,0.555 -9.4102,2.3848 -9.2705,6.1349 -12.4738,14.7213 -11.8164,31.6797 0.3591,9.2641 0.7792,11.2347 3.7695,17.6797 2.2222,4.7896 4.9989,8.7801 8.1739,11.75 4.3163,4.0374 5.2968,4.4922 9.5996,4.4922 11.2078,-0.01 17.3099,-9.1961 19.3574,-29.1485 1.7626,-17.1766 -1.4088,-27.9966 -10.3047,-35.166 -2.738,-2.2067 -6.05,-3.4446 -9.3691,-3.6719 z m 1.8672,12.1934 c 1.3483,0.047 2.8188,0.7836 4.2871,2.252 3.8246,3.8246 2.7995,11.4559 -1.9864,14.7793 -4.6649,3.2395 -9.4757,-4.3282 -7.4394,-11.7032 0.985,-3.5673 2.8914,-5.4061 5.1387,-5.3281 z m 139.1582,2.7969 c 6.2391,0 7.8767,5.9966 3.0214,11.0644 -3.146,3.2838 -3.8683,3.4448 -7.4375,1.6485 -1.8276,-0.9199 -2.5784,-2.1975 -2.7949,-4.7481 -0.3929,-4.6285 2.6268,-7.9648 7.211,-7.9648 z m -161.8809,67 c -5.0353,0 -8.0503,1.9974 -9.4453,6.2539 -1.5176,4.6308 -0.078,8.8217 3.9785,11.5781 10.0152,6.8049 20.763,-6.1352 12.3711,-14.8945 -2.2149,-2.3118 -3.6843,-2.9375 -6.9043,-2.9375 z m 183.7441,2.2187 c -1.8644,-0.092 -3.3333,0.2935 -5.8125,1.2403 -7.2431,2.7662 -8.6924,9.7267 -2.7031,12.9765 5.9993,3.2552 18.9831,0.8794 22.6621,-4.1465 l 1.9258,-2.6308 -3.3477,-2.7969 c -1.8621,-1.5546 -5.6954,-3.3203 -8.6367,-3.9785 -1.7065,-0.3819 -2.9692,-0.6089 -4.0879,-0.6641 z m -110.1718,25.8125 c -2.3284,0.1218 -4.1075,3.1021 -4.1075,6.8789 0,7.6708 5.607,14.4886 13.7051,16.6661 6.4204,1.7264 8.9822,1.7058 15.1211,-0.1172 5.7038,-1.6939 11.7424,-6.8897 12.7715,-10.9903 0.3443,-1.3715 0.3232,-4.5124 -0.047,-6.9804 -0.5842,-3.8958 -0.991,-4.4883 -3.0937,-4.4883 -1.8933,0 -2.9625,1.0641 -4.8926,4.873 -1.934,3.8165 -3.3504,5.2249 -6.5371,6.5 -8.4932,3.3983 -13.6886,1.5966 -18.668,-6.4707 -2.0038,-3.2464 -3.9175,-5.8881 -4.2519,-5.8711 z m -118.3809,39.7012 11.7051,6.3848 c 12.1626,6.6327 13.6176,7.811 20.7617,16.8066 3.5272,4.4413 5.5735,5.9472 11.3066,8.3262 8.2,3.4028 29.377,9.1206 41.5,11.2051 11.1685,1.9204 41.7583,5.2725 55,6.0273 31.7621,1.8104 78.0917,-7.2284 96.0332,-18.7363 6.7647,-4.3389 8.5804,-6.3238 10.2852,-11.2481 1.2702,-3.6689 1.7604,-4.0106 9.4941,-6.6093 9.9357,-3.3385 16.2186,-4.6742 26.6875,-5.6739 l 8,-0.7636 0.1641,26.6992 0.166,26.7011 -3.7246,1.4903 c -2.8176,1.1274 -6.158,1.3574 -13.707,0.9414 -7.8298,-0.4315 -10.618,-0.221 -12.9414,0.9805 -5.062,2.6177 -6.6166,5.0564 -6.2696,9.8378 l 0.3125,4.3067 6.2461,1.125 c 3.4349,0.6184 6.4815,1.3623 6.7715,1.6523 0.5353,0.5352 -2.6271,6.8516 -8.4179,16.8145 -5.526,9.5072 -11.1977,21.9805 -17.0333,37.4531 l -5.6406,14.9531 -10.4629,1.7227 v 0 c -12.4287,2.0468 -18.87,2.1754 -24.9629,0.498 -9.9342,-2.7349 -11.9383,-4.3282 -20.3789,-16.2011 -1.8632,-2.6209 -1.9618,-2.639 -12,-2.1641 -5.5667,0.2633 -16.1961,1.2917 -23.6211,2.2852 -11.9437,1.5981 -15.1716,1.6682 -28,0.5996 -7.975,-0.6643 -16.127,-1.5845 -18.1171,-2.043 -4.975,-1.1462 -8.5539,0.5704 -13.3184,6.3848 -5.3523,6.5317 -12.5728,9.8073 -21.457,9.7363 -8.575,-0.068 -14.7511,-2.2449 -24.67,-8.6934 l -8.0625,-5.2421 -3.3027,-8.8946 c -6.8797,-18.5242 -13.3861,-31.4736 -24.6894,-49.1445 l -3.3575,-5.25 3.2383,-0.01 c 1.7807,0 4.8931,-0.4649 6.918,-1.0273 2.9394,-0.8164 3.9144,-1.7236 4.8301,-4.4981 1.4014,-4.2463 0.6489,-8.1106 -2.2911,-11.7832 -1.8422,-2.3012 -3.4149,-2.9459 -9.2207,-3.7773 -3.85,-0.5512 -10.1581,-0.7129 -14.0195,-0.3594 -6.0331,0.5523 -7.3544,0.3731 -9.3926,-1.2773 l -2.373,-1.92 1.7734,-8.9257 c 1.7088,-8.6036 1.6689,-19.2748 -0.1094,-29.0528 -0.4928,-2.7094 -0.101,-3.4831 2.9375,-5.8008 2.7377,-2.0881 5.0292,-2.8008 10.4571,-3.2558 z" /><path
           style="fill:#deb760;fill-opacity:1;stroke-width:0.159656;-inkscape-stroke:none;paint-order:markers stroke fill"
           d="m 1454.0067,3516.1741 12.7382,-9.3482 c 0,0 -1.2491,14.7027 19.3285,-2.7219 20.5777,-17.4247 3.3677,43.2686 3.3677,43.2686 l -15.7651,-13.6078 z"
           id="path130"
           sodipodi:nodetypes="ccsccc" /><path
           style="fill:#a69f9b"
           d="m 1405.6477,3969.3355 c -11.2496,-3.1594 -18.4398,-9.8882 -25.4931,-23.8573 -2.4086,-4.7704 -4.7902,-8.9273 -5.2924,-9.2377 -1.1586,-0.7161 -2.6369,-9.1777 -2.2648,-12.9642 l 0.2825,-2.8753 -5.3308,0.657 c -2.9319,0.3614 -8.7057,0.6743 -12.8307,0.6953 -4.125,0.021 -9.8625,0.7136 -12.75,1.5392 -5.1052,1.4596 -5.2504,1.6025 -5.2648,5.1801 -0.021,5.1578 -2.5886,15.4813 -5.052,20.3099 -3.0039,5.8882 -9.0734,12.0756 -15.1448,15.4393 -4.8589,2.6919 -6.1005,2.9298 -15.2884,2.9298 -9.0445,0 -10.4355,-0.256 -14.5575,-2.6793 -6.0739,-3.5709 -11.1537,-9.2472 -19.2076,-21.4631 -9.7382,-14.7708 -14.9388,-25.7175 -21.3111,-44.8576 -3.1129,-9.35 -6.9877,-20.375 -8.6105,-24.5 -3.0189,-7.6735 -13.4456,-28.1474 -19.3522,-38 -1.8135,-3.025 -4.8023,-8.425 -6.6417,-12 -3.5395,-6.879 -3.1745,-6.5767 -22.9444,-19 -17.6304,-11.0788 -29.9353,-27.944 -30.1038,-41.2607 -0.2605,-20.5844 18.9844,-32.714 43.5193,-27.4292 l 6.7906,1.4627 -2.5083,-3.1364 c -5.4139,-6.7696 -11.5986,-16.4404 -14.4766,-22.6364 -4.7806,-10.2924 -6.213,-17.2004 -6.2205,-30 -0.01,-15.073 2.5006,-26.3989 9.5447,-43.0775 6.3331,-14.9951 7.88,-21.6392 6.4843,-27.8509 -2.1966,-9.7766 -5.2963,-12.7461 -22.0955,-21.1672 -6.521,-3.2689 -12.8024,-7.0314 -13.9586,-8.3612 -1.1562,-1.3297 -5.1956,-7.2556 -8.9764,-13.1687 -5.9531,-9.3104 -6.8742,-11.3694 -6.8742,-15.3664 0,-7.5334 3.8999,-13.9606 12.8318,-21.1473 8.9593,-7.2089 11.7343,-8.5072 22.5996,-10.574 10,-1.9021 25.0654,-1.2123 35.0542,1.605 3.8421,1.0837 7.1553,1.8006 7.3627,1.5932 0.2074,-0.2074 -0.1952,-2.7624 -0.8946,-5.6778 -3.5151,-14.6527 1.242,-28.7365 10.7683,-31.8805 9.6868,-3.1969 23.9967,4.9651 33.3149,19.002 l 1.537,2.3152 5.963,-3.002 c 8.6389,-4.3492 24.0101,-9.0203 37.88,-11.5112 10.63,-1.9091 15.751,-2.1737 42.5831,-2.2004 24.6122,-0.024 32.6926,0.3173 41.8581,1.7701 13.8284,2.1919 31.7914,7.5145 42.8916,12.709 l 8.2498,3.8607 5.2502,-5.23 c 13.0659,-13.0154 25.9282,-17.7385 33.7415,-12.3901 6.0013,4.1081 8.1547,10.0565 8.9746,24.7905 0.3973,7.1396 0.9384,13.1971 1.2025,13.4611 0.264,0.2641 4.2717,-0.8569 8.9059,-2.491 19.1267,-6.7445 42.6647,-2.1765 55.6391,10.798 2.7995,2.7994 6.2891,7.541 7.7548,10.5367 2.4317,4.9703 2.5636,5.8279 1.5066,9.8008 -1.5047,5.6557 -10.5612,21.3737 -14.6999,25.5124 -1.7756,1.7756 -6.7263,4.8543 -11.0016,6.8416 -13.3706,6.215 -14.4377,6.8629 -20.5885,12.4999 -6.6417,6.087 -9.6295,11.4797 -9.6628,17.4403 -0.012,2.2223 2.572,11.6274 5.9275,21.5717 6.7313,19.9482 8.0396,26.4672 8.0257,39.988 -0.013,12.5577 -1.9411,21.0859 -7.3479,32.4997 -5.0137,10.584 -7.1718,13.7385 -16.8619,24.6481 l -6.793,7.6478 3.7639,-0.8739 c 2.0701,-0.4807 8.5539,-0.8847 14.4084,-0.8978 21.1175,-0.047 34.1758,7.3112 37.9684,21.3957 4.3126,16.0159 -12.0773,36.5972 -42.113,52.8826 -4.675,2.5347 -9.1396,5.6412 -9.9213,6.9032 -11.0527,17.8444 -21.6659,38.6252 -29.5169,57.7946 -6.4083,15.6469 -6.3861,15.0971 -0.81,20.0553 7.5735,6.7342 14.1105,10.4709 23.5921,13.4859 9.6354,3.0639 14.9577,6.3655 19.1754,11.8952 3.0986,4.0625 9.4453,20.6811 9.4666,24.7879 0.051,9.8335 -26.176,5.986 -42.7595,-6.2729 -5.1379,-3.798 -11.8797,-13.0071 -16.7775,-22.9174 -3.4833,-7.0481 -3.6404,-7.2057 -5.1027,-5.1179 -0.8298,1.1847 -3.1012,5.6258 -5.0475,9.869 -13.3018,28.9996 -33.6912,44.1444 -52.3694,38.8988 z m -128.6095,-40.5596 c 9.3677,-6.4444 23.0155,-8.5195 37.7581,-5.741 4.7179,0.8892 8.9429,1.6167 9.3889,1.6167 0.446,0 0.5731,-2.6229 0.2824,-5.8286 -0.6353,-7.0061 -4.2413,-14.9889 -10.2894,-22.7776 -2.4529,-3.1589 -4.4598,-6.3091 -4.4598,-7.0005 0,-2.1762 5.6227,-5.3933 9.4264,-5.3933 3.2201,0 3.9446,0.5156 6.5936,4.6927 1.6369,2.581 4.4011,9.0401 6.1427,14.3537 l 3.1667,9.661 13.2908,0.2064 c 9.2362,0.1434 15.9054,-0.3129 21.8616,-1.4958 l 8.5708,-1.7021 4.5328,-8.7764 c 4.7587,-9.2137 12.6558,-17.9395 16.2357,-17.9395 1.1031,0 3.102,1.7246 4.7423,4.0915 l 2.8354,4.0915 -6.1216,5.6585 c -5.9755,5.5234 -11.2772,13.2421 -11.2772,16.4184 0,2.4069 7.6389,8.4444 15.7805,12.4724 10.013,4.9539 18.9172,5.4678 31.7195,1.8307 8.9291,-2.5368 9.0129,-2.5414 10.6394,-0.5858 1.6102,1.9361 1.6582,1.9227 2.6979,-0.753 0.5822,-1.4983 1.9387,-5.6492 3.0144,-9.2242 3.6177,-12.0223 15.3301,-43.4215 19.5834,-52.5 2.3191,-4.95 7.0051,-13.9122 10.4134,-19.9161 7.3749,-12.9915 8.2581,-15.5839 5.3091,-15.5839 -1.1325,0 -4.3313,-0.4873 -7.1084,-1.0829 -4.9848,-1.069 -5.0492,-1.1311 -5.0492,-4.8651 0,-8.449 6.2276,-11.6763 20.5083,-10.628 7.6847,0.564 9.8242,0.3851 12.8933,-1.0785 l 3.6797,-1.7547 -0.1582,-24.0454 c -0.087,-13.225 0.1686,-25.2829 0.5678,-26.7954 0.6411,-2.4287 0.4503,-2.7493 -1.6325,-2.7441 -6.0382,0.015 -23.3373,3.2706 -32.5174,6.1195 l -10.1589,3.1526 -1.2401,4.429 c -2.773,9.9044 -21.7614,18.9738 -52.909,25.2708 -15.3716,3.1077 -25.3796,4.0222 -44.0068,4.0216 -37.2296,0 -87.411,-8.3993 -107.5114,-17.9923 -5.1598,-2.4626 -7.1176,-4.1652 -11.206,-9.7455 -4.5266,-6.1786 -6.0136,-7.3541 -17.2448,-13.6335 l -12.291,-6.8719 -7.7241,0.4471 c -6.5483,0.3791 -8.2888,0.8779 -11.434,3.2769 -2.077,1.5842 -3.4867,3.4114 -3.2028,4.1514 0.2789,0.7269 1.0096,5.0973 1.6237,9.712 0.9209,6.9197 0.8354,10.0348 -0.4877,17.7733 -0.8823,5.1607 -1.8402,10.1494 -2.1286,11.086 -0.3794,1.232 0.5901,2.2716 3.5061,3.7592 3.4657,1.768 4.6739,1.912 8.6208,1.0275 3.0426,-0.6819 7.1786,-0.7073 12.268,-0.075 6.7175,0.834 8.0223,1.3388 10.4317,4.0354 2.2049,2.4677 2.7539,4.0512 2.7539,7.9438 0,5.9764 -1.2169,7.1254 -9.0468,8.5414 l -5.8986,1.0667 6.0495,9.4993 c 10.0786,15.8259 22.8499,44.2212 26.8699,59.7414 2.0097,7.7589 15.292,39.2579 16.554,39.2579 0.3364,0 2.4927,-1.2941 4.7918,-2.8757 z m 111.6802,-157.1643 c 26.6653,-1.6657 45.0358,-5.1486 66.3957,-12.5879 5.5574,-1.9355 10.8918,-3.7635 11.8543,-4.0622 0.9625,-0.2987 1.75,-0.8371 1.75,-1.1965 0,-0.3593 -3.1648,-2.6061 -7.0328,-4.993 -3.868,-2.3868 -8.2555,-5.9428 -9.75,-7.9022 -2.3782,-3.118 -2.7172,-4.466 -2.7172,-10.8042 0,-6.4359 0.3338,-7.7143 3,-11.4888 3.4743,-4.9185 8.2689,-7.693 15.183,-8.786 6.1051,-0.9651 12.7213,0.4576 21.7277,4.6722 3.7476,1.7537 7.4032,3.1886 8.1236,3.1886 3.6562,0 13.3139,-15.4804 15.9345,-25.5415 2.0979,-8.0545 2.0015,-10.4585 -0.4196,-10.4585 -6.2075,0 -12.3883,-2.4677 -20.0635,-8.0103 -4.4697,-3.2278 -11.3575,-7.0876 -15.3062,-8.5773 -9.8855,-3.7294 -16.1729,-6.9751 -22.3454,-11.5349 -2.8868,-2.1326 -5.6283,-3.8775 -6.0922,-3.8775 -0.4638,0 -1.8029,1.975 -2.9757,4.389 -2.6925,5.542 -7.6753,11.2541 -11.5774,13.2719 -13.5028,6.9826 -27.2594,-15.0121 -23.8263,-38.0946 1.3139,-8.8344 4.0969,-17.2961 7.0544,-21.4496 1.1457,-1.609 2.0831,-3.3471 2.0831,-3.8626 0,-1.0972 -12.4652,-13.2541 -13.5903,-13.2541 -0.4198,0 -3.2135,1.6875 -6.2082,3.75 -5.0469,3.4759 -5.9673,3.75 -12.5942,3.75 -6.034,0 -8.1602,-0.5005 -13.6283,-3.2083 -13.8471,-6.857 -20.1038,-15.0891 -26.0283,-34.2464 -3.8666,-12.5026 -4.1687,-18.911 -1.1646,-24.6986 6.6604,-12.8315 24.6382,-17.0295 47.2139,-11.0249 5.225,1.3898 13.8233,3.0057 19.1074,3.591 21.6063,2.3933 29.3967,7.1431 39.8926,24.3225 7.5801,12.4069 9.1853,14.3066 14.2919,16.9128 8.3511,4.2622 24.7081,4.8582 24.7081,0.9003 0,-2.5596 -11.8759,-21.936 -18.3745,-29.979 -9.2584,-11.459 -26.4756,-22.9585 -44.5814,-29.7762 -24.8602,-9.3612 -68.5092,-13.0398 -101.5125,-8.5553 -14.6079,1.9849 -13.5734,1.2444 -17.6632,12.6429 -3.4003,9.477 -11.4349,17.0025 -29.8601,27.9683 -11.1668,6.6459 -16.2527,11.3169 -22.1089,20.3054 l -4.2931,6.5893 -6.0532,-0.6669 c -3.3292,-0.3668 -9.0019,-0.9295 -12.6059,-1.2504 l -6.5527,-0.5835 -1.8811,6.3785 c -1.0345,3.5082 -3.1086,9.5285 -4.609,13.3785 -1.5004,3.85 -3.461,11.05 -4.3569,16 -2.2291,12.3167 -5.8277,24.6592 -10.0978,34.6336 -9.6948,22.6456 -12.1332,33.2713 -11.1836,48.7328 0.6326,10.3001 4.2288,21.4127 7.109,21.9673 1.0279,0.198 3.5817,-0.4123 5.6749,-1.3562 3.6975,-1.6674 3.8921,-1.6549 6.834,0.4399 1.6654,1.1859 5.1122,3.0781 7.6596,4.2049 l 4.6316,2.0488 9.4687,-2.6863 c 10.3725,-2.9426 13.7477,-2.8361 21.0991,0.6657 5.5458,2.6417 8.1451,6.4646 9.3088,13.6907 1.9098,11.8587 -1.4511,19.7191 -10.3987,24.3202 -2.1158,1.088 -3.5749,2.2502 -3.2424,2.5827 1.2934,1.2934 15.6561,6.4721 27.0893,9.7674 16.6288,4.793 37.1862,7.973 63.5,9.8228 10.5319,0.7403 28.6196,0.5865 44,-0.3743 z m -41.5,-38.85 c -7.0089,-3.2348 -10.5,-8.5905 -10.5,-16.1077 0,-3.1098 0.4322,-4.0047 2.2063,-4.5678 2.3169,-0.7353 2.6068,-0.4685 7.1151,6.5509 3.0401,4.7334 6.1387,6.1731 12.3365,5.7323 6.6268,-0.4715 9.9938,-2.7394 12.3998,-8.3524 1.5652,-3.6513 2.3528,-4.4451 4.1533,-4.1855 2.5282,0.3644 4.432,6.1221 3.393,10.2617 -0.9292,3.7023 -5.5879,8.6463 -10.0626,10.6788 -5.4194,2.4617 -15.6962,2.4566 -21.0414,-0.01 z m -84.1713,-31.5678 c -3.8816,-1.6884 -5.3386,-4.2263 -5.2969,-9.2264 0.035,-4.165 1.2875,-6.3603 4.6524,-8.1524 6.3657,-3.3904 14.3158,1.2331 14.3158,8.3254 0,4.9282 -1.514,7.4102 -5.5484,9.0959 -4.0667,1.6992 -4.1198,1.6989 -8.1229,-0.043 z m 180.056,-1.9764 c -5.4228,-2.3603 -5.3606,-8.5698 0.1218,-12.162 3.4911,-2.2875 11.6663,-1.9826 17.0775,0.6369 6.3251,3.0619 7.1695,5.1475 3.3764,8.3392 -5.2829,4.4453 -14.4287,5.8614 -20.5757,3.1859 z m -160.9273,-32.4287 c -9.2009,-5.6109 -15.3352,-19.4679 -15.4223,-34.8379 -0.078,-13.6892 3.9578,-23.4362 11.7483,-28.3768 10.9236,-6.9275 23.4646,-0.1966 27.8703,14.9584 1.2399,4.2652 1.4817,8.229 1.0713,17.5638 -0.5535,12.5911 -2.1209,18.9687 -6.3044,25.6512 -4.0228,6.426 -12.8461,8.7716 -18.9632,5.0413 z m 12.47,-38.7719 c 2.792,-3.5495 2.8303,-10.6074 0.073,-13.3652 -4.4233,-4.4233 -9.8814,-1.2606 -10.7158,6.2094 -0.9111,8.1567 6.1314,12.8916 10.6432,7.1558 z m 136.7123,0.1746 c 5.0898,-3.565 5.0696,-11.8217 -0.032,-13.1022 -5.1031,-1.2808 -8.704,1.6668 -10.0743,8.2464 -0.5801,2.7852 -0.3105,3.3752 2.1518,4.71 3.5756,1.9382 5.3492,1.9708 7.9547,0.1458 z m 89.5356,-32.4756 c 4.6125,-4.6556 8.3149,-7.1194 17.1671,-11.4239 6.2075,-3.0184 11.8688,-6.1899 12.5807,-7.0476 2.0515,-2.472 -2.9867,-3.9903 -13.4231,-4.0453 -7.2818,-0.038 -10.6604,0.4969 -17.6967,2.8034 -12.2388,4.0118 -12.0779,3.836 -10.3252,11.2811 1.557,6.6139 4.4053,14.3681 5.2777,14.3681 0.2963,0 3.185,-2.6711 6.4195,-5.9358 z m -308.1035,-14.9795 c 1.062,-4.0784 1.73,-7.6163 1.4843,-7.8619 -2.007,-2.007 -42.5561,-4.2911 -42.5561,-2.3971 0,1.7481 4.8541,5.1397 13.6042,9.5055 5.0073,2.4983 12.2064,7.0301 15.998,10.0706 l 6.8939,5.5282 1.3223,-3.715 c 0.7273,-2.0432 2.1913,-7.0519 3.2534,-11.1303 z m 307.7776,-15.1271 c 13.577,-2.3418 21.441,-2.4488 30.0928,-0.4096 3.5432,0.8352 6.9956,1.3061 7.6719,1.0466 2.4211,-0.9291 6.6289,-9.49 5.9649,-12.1358 -1.1794,-4.6989 -7.5466,-10.3859 -16.4568,-14.6987 -7.3536,-3.5593 -9.6851,-4.1993 -16.5891,-4.5533 -5.4893,-0.2814 -10.0732,0.1201 -14.4753,1.2678 -9.1216,2.3784 -18.6663,6.9254 -20.0794,9.5657 -1.6634,3.1082 -0.7225,8.2452 2.9897,16.3225 3.1036,6.753 3.2051,6.8523 6.343,6.2075 1.7539,-0.3603 8.2961,-1.5361 14.5383,-2.6127 z m -293.8733,-11.3988 c 4.4782,-11.0062 4.4391,-11.3356 -2.0028,-16.8497 -5.5435,-4.7449 -13.8042,-6.913 -26.9606,-7.0759 -13.9146,-0.1723 -19.8693,1.7356 -27.7907,8.904 -3.2102,2.9051 -6.6667,7.1226 -7.6812,9.3724 -1.7916,3.9729 -1.7917,4.2076 0,8.171 1.6292,3.613 2.1337,4.0059 4.4019,3.4283 1.409,-0.3587 8.4118,-0.8638 15.5618,-1.1225 11.6044,-0.4197 14.4492,-0.1615 26.5,2.4051 7.425,1.5814 13.6121,2.8007 13.7491,2.7095 0.137,-0.091 2.0391,-4.5652 4.227,-9.9422 z m 259.9007,-28.3088 c 0.051,-7.0125 0.1445,-14.4361 0.208,-16.497 0.066,-2.1597 -0.7021,-5.0381 -1.8142,-6.7946 l -1.9296,-3.0475 -5.9205,4.4493 c -3.2563,2.4471 -7.8835,6.1862 -10.2827,8.309 l -4.3621,3.8596 5.8621,4.6212 c 7.5865,5.9805 10.1318,8.419 14.1962,13.6 1.8337,2.3375 3.4727,4.25 3.6421,4.25 0.1695,0 0.3498,-5.7375 0.4007,-12.75 z m -234.3926,-4.5 c 4.8269,-4.1222 8.4951,-8.0331 8.5026,-9.0652 0.016,-2.2403 -9.4126,-11.8194 -13.9372,-14.1591 -6.2628,-3.2386 -9.0496,0.209 -9.0496,11.1954 0,5.9361 3.8291,19.2789 5.5326,19.2789 0.2543,0 4.2825,-3.2625 8.9516,-7.25 z"
           id="path63" /><path
           style="fill:#f9e6d2;fill-opacity:1;stroke-width:0.159656;-inkscape-stroke:none;paint-order:markers stroke fill"
           d="m 1222.2414,3751.1235 c -7.1436,-20.5955 -26.4669,-42.0999 -9.6386,-60.7703 16.8283,-18.6703 45.4324,-37.0859 69.1158,-44.1983 23.6835,-7.1124 115.0308,-21.3298 141.7498,-17.0753 26.719,4.2546 84.0104,32.0447 90.0906,53.2877 6.0802,21.243 0.1978,36.4892 -8.8397,45.6775 -9.0376,9.1883 -51.191,59.5763 -71.2954,63.1535 -20.1044,3.5772 -204.0389,-19.4793 -211.1825,-40.0748 z"
           id="path72"
           sodipodi:nodetypes="ssssssss" /><path
           style="fill:#deb760;fill-opacity:1;stroke-width:0.159656;-inkscape-stroke:none;paint-order:markers stroke fill"
           d="m 1239.7837,3537.5518 -8.5042,-27.9659 c 0,0 -3.95,-9.3866 1.3083,-7.3594 5.2583,2.0272 20.9381,2.6788 19.6252,-5.3969 -1.3129,-8.0758 15.8636,13.7376 15.8636,13.7376 z"
           id="path128" /><path
           style="fill:#52545f"
           d="m 1406.1019,3969.2877 c -12.0127,-3.0276 -18.4442,-9.2243 -27.0637,-26.0752 -5.0119,-9.7982 -5.6574,-11.747 -5.7338,-17.3093 -0.071,-5.1507 -0.3534,-6.1611 -1.586,-5.6684 -0.825,0.3298 -7.8,0.9581 -15.5,1.3963 -7.7,0.4382 -15.4074,1.3219 -17.1275,1.9637 -3.1026,1.1578 -3.131,1.2331 -3.5633,9.4702 -0.3348,6.3781 -1.0611,9.5812 -3.133,13.816 -3.851,7.8711 -9.8187,14.2023 -16.4618,17.4645 -4.9801,2.4455 -6.8743,2.8061 -14.7411,2.8061 -7.7211,0 -9.746,-0.3701 -14,-2.5586 -6.5908,-3.3908 -14.337,-12.7354 -23.929,-28.8668 -8.3019,-13.9618 -10.9422,-20.159 -19.2043,-45.0746 -5.4067,-16.3049 -17.1273,-41.4481 -26.3295,-56.4828 -2.1712,-3.5474 -5.3105,-9.1494 -6.9761,-12.449 -2.8387,-5.6234 -3.6394,-6.3568 -12.7814,-11.7064 -12.1863,-7.1311 -19.1402,-12.4251 -26.538,-20.2038 -26.2518,-27.6034 -8.417,-60.9761 28.7153,-53.7324 4.3617,0.8509 8.053,1.4244 8.203,1.2745 0.1499,-0.15 -2.4671,-4.0813 -5.8155,-8.7364 -12.9125,-17.9511 -17.3903,-31.6451 -16.5014,-50.4637 0.6421,-13.5931 2.7846,-23.1911 7.9243,-35.5 7.7839,-18.6409 9.0394,-22.9743 8.4714,-29.2383 -0.5981,-6.5954 -4.1332,-13.4656 -8.4211,-16.3655 -1.5351,-1.0382 -8.191,-4.6366 -14.791,-7.9964 -12.9237,-6.579 -12.7788,-6.4403 -22.6222,-21.6432 -5.7578,-8.8926 -7.1362,-12.8121 -6.2424,-17.7493 1.4294,-7.8953 6.386,-14.0122 17.7148,-21.8619 11.2456,-7.7919 32.7507,-9.8683 51.4062,-4.9634 7.8509,2.0642 9.1851,2.1971 8.7871,0.8758 -3.9065,-12.9694 -3.0309,-24.2465 2.4565,-31.6378 4.7591,-6.4104 13.0137,-7.2523 22.8609,-2.3316 5.7599,2.8782 7.4044,4.4145 16.4429,15.3605 l 2.435,2.9488 8.0508,-3.6801 c 14.4328,-6.5974 30.4042,-10.3824 54.0679,-12.8135 14.7807,-1.5184 49.0632,-0.663 64.1425,1.6005 14.7476,2.2137 32.7384,7.3716 44.0595,12.6316 l 8.9065,4.1381 7.1392,-6.7348 c 7.6713,-7.2366 19.0226,-13.5423 24.3666,-13.5358 1.6655,0 4.4727,0.8845 6.2382,1.961 7.2502,4.4207 10.2673,13.6318 10.2824,31.3923 0.01,8.0389 0.1692,8.7911 1.7576,8.1431 12.65,-5.1601 15.9421,-5.9067 26.25,-5.953 6.1479,-0.028 12.5724,0.537 15.5,1.3621 12.8891,3.6327 24.3193,12.0738 28.9602,21.3868 4.1191,8.266 3.7172,10.0351 -6.3346,27.8822 -4.359,7.7395 -8.2555,10.8719 -21.3902,17.1959 -12.384,5.9625 -19.3732,11.4454 -23.4435,18.3908 -3.9759,6.7844 -3.5562,11.0021 3.0258,30.4056 7.0162,20.6832 9.1157,31.9556 8.3498,44.8295 -0.6404,10.7637 -3.2475,20.2133 -8.4148,30.5 -4.8161,9.5875 -8.3806,14.5734 -16.6694,23.3165 l -7.0833,7.4714 5,-0.8939 c 8.4324,-1.5077 25.3579,-1.0411 31.6239,0.8718 18.0225,5.5017 25.4922,20.5195 18.0225,36.2342 -6.0016,12.6264 -17.4404,23.1964 -36.8396,34.0416 -12.0636,6.7443 -11.2938,5.8445 -23.4929,27.4584 -9.6927,17.1732 -23.8148,49.0708 -23.8134,53.7875 6e-4,2.073 8.1234,9.2287 15.5575,13.7053 2.9827,1.7961 9.1481,4.427 13.7009,5.8465 8.8748,2.767 14.2322,6.1629 18.1391,11.4978 2.8944,3.9524 9.8815,22.4486 9.4186,24.9327 -0.1774,0.9516 -1.8962,2.5378 -3.8196,3.5248 -4.3215,2.2178 -10.9003,1.6395 -21.1987,-1.8632 -16.5805,-5.6394 -23.861,-12.3365 -33.8527,-31.14 -2.399,-4.5147 -4.451,-8.1147 -4.5601,-8 -0.1091,0.1147 -2.5418,4.9336 -5.4058,10.7086 -6.8594,13.8308 -14.8953,25.8652 -20.7465,31.0694 -9.5315,8.4776 -21.6857,12.1283 -31.8497,9.5667 z m -128.2611,-40.1266 c 6.9349,-4.7703 13.472,-6.5143 24.3091,-6.485 8.0201,0.022 11.0206,0.3912 20.3185,2.5027 2.1218,0.4818 2.25,0.1987 2.25,-4.9706 0,-7.4982 -2.9248,-14.6673 -9.5936,-23.5157 l -5.6219,-7.4592 3.1235,-2.7908 c 3.4807,-3.11 8.0628,-3.6772 10.4469,-1.2932 2.1424,2.1425 6.6096,11.8379 9.2161,20.0023 l 2.2348,7 11.3471,0.7454 c 12.0546,0.7918 16.402,0.4912 26.9478,-1.8638 6.5476,-1.4621 6.62,-1.5155 9,-6.6357 4.0922,-8.8038 9.3605,-16.1188 13.8354,-19.2106 l 4.291,-2.9647 2.8865,3.2305 c 3.8985,4.3633 3.6481,6.399 -1.2006,9.7592 -4.3599,3.0214 -9.0688,9.1749 -11.5316,15.0693 -1.4272,3.4158 -1.3907,3.7316 0.6872,5.9435 3.8624,4.1113 14.1617,10.4347 19.8836,12.2078 7.4443,2.3068 17.7123,2.0562 27.5033,-0.6713 l 7.9555,-2.2162 1.7324,2.2968 c 1.3699,1.816 1.8359,1.9842 2.2268,0.8033 17.4321,-52.673 20.8789,-61.1607 35.5209,-87.4705 3.3599,-6.0373 6.1089,-11.2528 6.1089,-11.5898 0,-0.3371 -3.1518,-1.1761 -7.0039,-1.8646 -6.24,-1.1151 -7.0748,-1.5341 -7.6538,-3.8408 -0.7849,-3.1274 1.0783,-6.7312 4.9792,-9.6306 2.8862,-2.1453 8.3482,-2.5807 19.7958,-1.5782 3.1034,0.2718 5.9779,-0.2091 8.767,-1.4668 l 4.1496,-1.8712 -0.2669,-26.9672 -0.267,-26.9671 -8.186,0.6276 c -7.3861,0.5662 -26.6466,4.8794 -33.5103,7.5043 -1.9142,0.732 -3.0436,2.1901 -3.8934,5.0265 -3.1924,10.6552 -20.9664,19.1747 -54.4103,26.0799 -33.9853,7.0171 -88.711,3.8174 -130,-7.6007 -16.9773,-4.695 -24.4274,-8.1112 -28.1048,-12.8877 -7.9945,-10.3838 -10.7421,-12.4806 -28.1106,-21.4526 -5.7848,-2.9882 -6.6662,-3.1623 -12.7254,-2.5134 -4.4444,0.4759 -7.8141,1.5336 -10.6196,3.3333 -3.9435,2.5297 -4.0845,2.7976 -3.4915,6.6361 1.693,10.9603 1.752,20.2425 0.177,27.857 -0.8938,4.3213 -1.6251,8.6542 -1.6251,9.6287 0,3.0859 5.4733,4.4111 18.4405,4.4646 13.3361,0.055 15.586,0.7664 18.159,5.7421 1.678,3.245 1.4603,10.1478 -0.3782,11.9862 -0.515,0.5151 -3.4887,1.1999 -6.6082,1.5219 -3.1195,0.3219 -5.9097,0.9704 -6.2006,1.441 -0.2908,0.4706 2.3638,5.4688 5.8991,11.1071 10.9663,17.4896 19.6607,36.6327 25.0941,55.2514 3.5376,12.1225 16.6215,43.5 18.1387,43.5 0.2771,0 2.7872,-1.5707 5.578,-3.4905 z m 117.8776,-157.5232 c 17.1641,-1.2828 28.3145,-3.168 44,-7.4391 14.2878,-3.8905 29,-9.2876 29,-10.6385 0,-0.5039 -3.5464,-3.2381 -7.8809,-6.0759 -8.3629,-5.4752 -10.4458,-8.0255 -11.5454,-14.1364 -0.9341,-5.1908 1.6186,-13.5647 5.1396,-16.86 8.7893,-8.226 19.3052,-8.6165 34.938,-1.2974 5.7022,2.6696 7.8729,3.2508 9.2962,2.4891 2.4157,-1.2928 8.1051,-9.1343 11.4416,-15.7692 2.8911,-5.7492 6.0231,-17.7423 5.1962,-19.8972 -0.3175,-0.8273 -2.0553,-1.3617 -4.4282,-1.3617 -5.8048,0 -11.3352,-2.3159 -18.3671,-7.6915 -6.3103,-4.824 -7.7127,-5.5465 -22.0359,-11.3521 -4.2602,-1.7268 -10.7756,-5.3484 -14.4786,-8.048 -3.703,-2.6996 -7.0029,-4.9084 -7.3332,-4.9084 -0.3302,0 -1.6769,2.2983 -2.9926,5.1074 -4.5637,9.7436 -12.4575,15.474 -19.4696,14.1336 -4.0926,-0.7824 -9.9278,-7.207 -12.6032,-13.8762 -2.0393,-5.0836 -2.3491,-7.5297 -2.3257,-18.3648 0.029,-13.5526 1.6659,-20.1964 6.9379,-28.1629 1.381,-2.0868 2.5109,-3.9884 2.5109,-4.2258 0,-0.2373 -3.3542,-3.4335 -7.4537,-7.1025 l -7.4538,-6.6711 -4.6582,3.5569 c -5.353,4.0872 -9.3008,5.0766 -17.3461,4.3471 -9.9389,-0.9012 -22.0841,-8.9353 -28.2824,-18.7089 -3.7144,-5.8571 -10.812,-27.7347 -10.7839,-33.2402 0.044,-8.5957 6.413,-17.2382 14.9818,-20.3297 8.7363,-3.152 18.4066,-3.0599 33.676,0.3208 7.6011,1.6829 17.6453,3.5225 22.3203,4.0879 4.675,0.5654 10.8067,1.7264 13.6261,2.5801 9.2778,2.8093 17.9157,10.7873 23.3702,21.5848 7.2259,14.3039 14.2826,19.0991 29.0037,19.7088 11.3203,0.4688 12.0416,-0.1038 8.6966,-6.9043 -4.4463,-9.0393 -14.4757,-23.7577 -20.4816,-30.0572 -22.8603,-23.9778 -60.3139,-36.2147 -110.715,-36.173 -17.9603,0.015 -42.6379,2.1203 -45.4864,3.8808 -0.4718,0.2916 -1.8123,3.3984 -2.9789,6.9039 -4.0363,12.1292 -11.6957,19.9029 -30.5702,31.0264 -11.8161,6.9636 -16.0781,10.7836 -22.1007,19.8085 -2.4702,3.7017 -4.8001,6.9101 -5.1776,7.1298 -0.3774,0.2196 -5.8275,-0.2328 -12.1112,-1.0054 -6.2837,-0.7727 -11.7988,-1.031 -12.2557,-0.5741 -1.5574,1.5574 -10.6193,29.2494 -11.7791,35.9954 -2.1878,12.7246 -5.2241,22.7618 -11.6263,38.4323 -8.0089,19.6031 -9.3805,25.3658 -9.3991,39.49 -0.012,9.2663 0.427,12.597 2.546,19.3047 1.4285,4.522 3.244,8.3685 4.1061,8.6993 0.8499,0.3262 3.43,-0.3226 5.7334,-1.4417 3.7329,-1.8136 4.4008,-1.8753 6.1439,-0.568 3.8651,2.8989 11.4401,6.3073 14.0173,6.3073 1.4454,0 5.78,-0.9574 9.6325,-2.1275 8.3273,-2.5294 14.8537,-2.1142 21.0316,1.338 6.8167,3.8091 8.0948,6.384 8.1909,16.501 0.1106,11.6403 -1.1231,14.3676 -8.5812,18.971 -3.2488,2.0053 -5.5533,3.9743 -5.1211,4.3757 0.4322,0.4013 5.7358,2.5328 11.7858,4.7366 19.6201,7.147 42.3715,11.8991 67.5,14.0986 13.8214,1.2098 47.3918,1.2593 63,0.093 z m -49,-39.6611 c -4.2611,-2.2217 -6.0069,-3.8679 -7.75,-7.3083 -2.8289,-5.5831 -2.9602,-10.5664 -0.3158,-11.9817 2.7506,-1.4721 2.82,-1.434 4.9539,2.7148 1.0608,2.0625 3.3495,5.1 5.086,6.75 2.5864,2.4576 4.0041,2.9998 7.8415,2.9988 7.0986,0 10.5473,-1.9123 13.6101,-7.5396 1.4661,-2.6937 3.1382,-5.1897 3.7159,-5.5467 1.9678,-1.2162 4.0342,2.263 4.1045,6.9106 0.1327,8.7819 -7.1065,14.5933 -19.211,15.4222 -5.743,0.3933 -7.2017,0.1 -12.0351,-2.4201 z m -86.0769,-33.2483 c -5.663,-5.663 -2.5552,-15.004 5.0769,-15.2594 5.5035,-0.1842 8.0596,1.0808 9.5913,4.7468 2.0744,4.9648 1.7448,7.2535 -1.5144,10.5126 -2.1641,2.1641 -3.8718,2.9231 -6.5769,2.9231 -2.7051,0 -4.4128,-0.759 -6.5769,-2.9231 z m 23.5429,-31.4293 c -11.6619,-5.2637 -19.2729,-25.1339 -16.575,-43.2729 1.4366,-9.659 3.2567,-13.4545 8.7861,-18.3216 7.9349,-6.9847 16.6177,-6.0693 24.2065,2.552 5.1642,5.8669 6.6361,11.4814 6.5264,24.8949 -0.1739,21.2578 -6.0019,33.5989 -16.5542,35.0542 -1.8457,0.2546 -4.7211,-0.1534 -6.3898,-0.9066 z m 9.6849,-38.4911 c 2.7114,-2.4227 3.1824,-3.5307 3.1824,-7.4871 0,-5.8047 -2.3007,-8.6694 -6.9626,-8.6694 -2.6643,0 -3.6204,0.5822 -4.845,2.9504 -2.3941,4.6296 -1.9803,10.6859 0.9288,13.5951 3.1147,3.1146 3.8148,3.0792 7.6964,-0.389 z m 139.2602,-2.2332 c 4.6027,-5.47 2.4964,-11.9233 -3.8918,-11.9233 -3.9758,0 -7.3918,3.4391 -8.1681,8.2234 -0.4718,2.9074 -0.1693,3.7907 1.7621,5.1434 3.6747,2.5739 7.351,2.0586 10.2978,-1.4435 z m 87.7376,-30.1733 c 4.9466,-4.8381 9.095,-7.6054 18.3638,-12.25 7.2421,-3.629 12.0994,-6.6663 12.2916,-7.6861 0.7481,-3.9678 -17.5448,-5.1945 -28.8073,-1.9318 -11.4932,3.3296 -14.9968,5.0923 -14.9968,7.545 0,3.3221 5.4402,20.5729 6.4878,20.5729 0.1489,0 3.1463,-2.8125 6.6609,-6.25 z m -308.693,-11.1939 c 4.0859,-14.0996 5.0984,-12.9189 -12.8899,-15.0324 -13.9424,-1.6381 -26.7316,-1.6912 -28.3054,-0.1175 -1.2944,1.2945 3.5967,4.8612 13.8782,10.1203 5.9674,3.0524 13.6649,7.954 17.1056,10.8926 4.2688,3.6458 6.4799,4.9575 6.9615,4.1298 0.3881,-0.6672 1.8506,-5.164 3.25,-9.9928 z m 324.0443,-20.8097 c 8.677,-0.097 12.036,0.3659 20.6275,2.8416 2.028,0.5844 7.8725,-8.1248 7.8725,-11.7313 0,-2.6425 -3.6442,-8.2213 -7.2784,-11.1423 -3.8158,-3.0668 -10.9797,-6.4315 -18.6624,-8.765 -6.8757,-2.0885 -7.9531,-2.1588 -15.4747,-1.01 -10.5075,1.6049 -22.8953,6.372 -25.6608,9.8748 -2.8091,3.5581 -2.1938,9.4453 1.9139,18.3116 l 3.0696,6.6258 11.7964,-2.4468 c 7.4552,-1.5463 15.4765,-2.4878 21.7964,-2.5584 z m -309.3209,-9.6745 c 2.1015,-5.1855 3.8209,-9.9293 3.8209,-10.5418 0,-1.6051 -7.9437,-9.0331 -11.654,-10.8974 -8.4259,-4.2337 -30.9253,-4.6818 -39.7211,-0.791 -6.5824,2.9117 -12.3903,7.7189 -15.7762,13.058 -3.2389,5.1072 -3.5274,7.8872 -1.2711,12.2503 1.4391,2.783 1.8998,2.9969 5.25,2.4375 2.0198,-0.3373 8.6224,-0.8531 14.6724,-1.1462 9.6921,-0.4696 12.6052,-0.1818 24.5,2.4208 7.425,1.6245 14.1431,2.8826 14.9291,2.7958 0.8071,-0.089 3.0918,-4.2608 5.25,-9.586 z m 259.402,-23.6243 c -0.4382,-5.4003 -0.2415,-11.2452 0.5338,-15.8588 1.1304,-6.7277 1.0702,-7.6099 -0.7599,-11.1364 -1.0931,-2.1064 -2.4485,-3.9836 -3.012,-4.1714 -1.0896,-0.3632 -9.1991,5.6452 -16.3967,12.1482 l -4.3488,3.9292 3.9199,3.0708 c 6.8327,5.3526 14.1837,12.532 17.0156,16.6185 1.5065,2.1738 2.9647,3.9523 3.2405,3.9523 0.2758,0 0.1893,-3.8486 -0.1924,-8.5524 z m -224.5811,-18.52 c 0,-1.2806 -8.5247,-10.2951 -12.3694,-13.0802 -7.7112,-5.586 -11.6306,-2.7992 -11.6306,8.2698 0,5.5769 2.7227,17.9026 4.6691,21.1367 0.4651,0.7728 19.3309,-15.1606 19.3309,-16.3263 z"
           id="path62"
           sodipodi:nodetypes="ssssssssssssssssssssssssssssssssscsssscscscssssssssssscsssssssssssssssssssssscssscsssscsssssscscssssssscccssssssssssssssssssssssssssssssssssssssssssscsssssssssssssssssssssssssssssssssssssssssscssssssssssssssssssssssssssssssssssssssssssssssssssscsssssssssssssssssscsssssssss" /><path
           d="m 1241.2121,3486.9502 c -5.2973,0.2235 -9.1338,3.048 -11.9668,8.6387 -3.3434,6.5978 -3.8953,12.2452 -2.0996,21.4922 0.847,4.3616 1.3634,8.1091 1.1465,8.3261 -0.217,0.2169 -3.4733,-0.5737 -7.2364,-1.7558 -4.6654,-1.4655 -10.6691,-2.3247 -18.873,-2.7012 -14.8785,-0.6829 -25.3938,1.5528 -33.918,7.2109 -16.714,11.094 -21.6878,23.1419 -14.1679,34.3165 1.8608,2.7652 5.0272,7.7342 7.0371,11.0429 4.7337,7.7926 7.2269,9.7917 20.039,16.0645 16.9728,8.3099 21.4766,13.681 21.5196,25.6679 0.025,6.9411 -0.4199,8.4677 -7.168,24.6504 -6.3795,15.2988 -8.9531,27.0977 -8.9981,41.2481 -0.059,18.6254 4.0335,30.2295 16.8926,47.8906 l 6.4727,8.8906 -5.3379,-0.8906 c -2.9366,-0.4899 -9.8399,-0.8801 -15.3399,-0.8691 -8.4,0.017 -10.676,0.378 -14.2226,2.2558 -14.9257,7.9026 -19.7518,22.1641 -12.6074,37.2539 5.9329,12.531 15.4689,21.6988 34.3867,33.0567 10.3463,6.2116 11.7979,7.4356 13.8496,11.6758 1.2605,2.6052 4.7224,8.8739 7.6933,13.9316 11.3468,19.3163 20.1761,38.5329 27.25,59.3047 8.842,25.9638 9.6531,27.8178 18.9532,43.3847 5.1108,8.5545 10.0496,15.3096 14.6972,20.0997 6.4054,6.6019 7.577,7.3676 13.8028,9.0273 5.9518,1.5866 7.6421,1.6618 13.5,0.5898 7.9787,-1.4601 13.3964,-4.4242 18.7949,-10.2812 6.7046,-7.2741 10.3785,-17.4877 10.3965,-28.9063 l 0.01,-3.5859 6.8926,-1.6641 c 3.7912,-0.915 10.8828,-1.664 15.7578,-1.664 4.8749,0 10.2979,-0.4108 12.0528,-0.9141 l 3.1914,-0.916 -0.027,5.9316 c -0.025,5.227 0.6541,7.3174 5.7207,17.6192 7.7821,15.8232 14.0979,22.4336 24.7364,25.8906 2.2978,0.7458 7.0984,1.2339 10.6718,1.084 16.6034,-0.6966 30.0416,-13.2097 43.0293,-40.0664 2.8223,-5.8361 5.5112,-10.8463 5.9746,-11.1328 0.4635,-0.2864 2.7457,2.9732 5.0723,7.2422 10.8103,19.8355 18.5458,26.6896 36.2793,32.1504 9.5562,2.9427 17.6037,2.8489 20.5059,-0.2403 l 2.209,-2.3535 -3.4512,-9.5352 c -4.3754,-12.0875 -5.6754,-14.5336 -9.7832,-18.3984 -4.0632,-3.8229 -7.5107,-5.586 -15.293,-7.8242 -3.2765,-0.9424 -8.0415,-2.7702 -10.5879,-4.0606 -4.5025,-2.2816 -18.1483,-12.8133 -18.7617,-14.4804 -0.6399,-1.7389 13.3488,-35.7961 18.2676,-44.4746 1.254,-2.2125 5.3304,-9.4215 9.0586,-16.0215 9.2633,-16.3989 9.7716,-17.0293 16.0429,-19.9004 16.7509,-7.6688 35.0587,-23.3954 40.4161,-34.7168 3.9517,-8.3508 4.5465,-11.9614 3.0605,-18.6016 -3.2097,-14.3424 -22.0588,-23.0075 -44.1914,-20.3164 -4.8201,0.586 -9.4586,1.3328 -10.3066,1.6582 -2.9941,1.1489 -1.4349,-1.2245 6.9785,-10.623 15.482,-17.2947 22.5943,-34.8447 22.5683,-55.6856 -0.016,-13.2131 -1.3273,-19.5641 -8.1445,-39.4902 -6.2833,-18.3657 -6.9062,-22.8619 -4.0605,-29.2949 3.3402,-7.5512 10.8769,-13.8381 24.6171,-20.5371 7.8676,-3.8358 13.2361,-7.1666 15.5899,-9.6719 4.5561,-4.8495 12.3945,-18.4863 13.8945,-24.1738 1.0408,-3.9466 0.907,-4.8454 -1.4238,-9.6094 -4.9208,-10.0578 -18.1396,-19.8173 -30.3594,-22.4121 -6.6524,-1.4121 -21.4214,-1.4493 -26.7012,-0.066 -2.2,0.5763 -6.4058,1.9945 -9.3457,3.1504 -4.1492,1.6313 -5.5191,1.8198 -6.1211,0.8457 -0.4266,-0.6902 -1.0019,-6.9469 -1.2793,-13.9043 -0.2774,-6.9574 -1.0381,-14.0004 -1.6894,-15.6504 -1.6307,-4.1307 -7.8217,-10.2867 -11.0606,-10.9981 -6.1127,-1.3425 -18.9819,5.454 -28.3515,14.9746 l -5.5274,5.6153 -6.1796,-3.1192 c -9.3259,-4.7077 -28.0552,-10.6277 -40.9102,-12.9316 -18.2849,-3.2773 -42.2402,-4.5375 -61.2891,-3.2246 -28.1443,1.9397 -49.2841,6.5614 -65.2461,14.2637 l -6,2.8945 -2.4492,-3.2363 c -1.3474,-1.7805 -5.1724,-5.9563 -8.5,-9.2793 -4.7718,-4.7653 -7.2834,-6.429 -11.8808,-7.8692 -3.055,-0.957 -5.764,-1.3926 -8.1719,-1.291 z m 1.4824,9.4082 c 0.999,-0.056 2.123,0.1288 3.3672,0.5625 3.1118,1.0848 16.9664,14.3882 16.4394,15.7852 -0.1554,0.4119 -4.4165,4.3934 -9.4687,8.8476 -5.0522,4.4542 -9.6458,8.0977 -10.209,8.0977 -1.4754,0 -5.1245,-12.4594 -5.7109,-19.5 -0.7306,-8.7705 1.2532,-13.5496 5.582,-13.793 z m 240.3906,2.8047 c 0.7637,-0.022 1.282,0.8005 2.5254,2.8125 2.3451,3.7945 2.73,10.2698 1.0449,17.5801 -0.7253,3.1461 -0.6637,6.5015 0.2188,11.7539 1.4415,8.5786 0.3451,11.2939 -2.6816,6.6426 -3.8608,-5.9332 -9.0006,-11.309 -15.6309,-16.3496 -6.7255,-5.113 -6.8485,-5.2882 -5.1172,-7.2305 2.0207,-2.2668 13.4475,-11.5125 17.416,-14.0918 1.0658,-0.6927 1.7022,-1.1025 2.2246,-1.1172 z m -117.0273,0.75 c 40.5554,1.0259 70.4868,9.577 93.3574,26.6699 13.8428,10.3457 27.0753,28.3005 34.7949,47.2129 3.6776,9.0099 10.9024,34.3943 13.4571,47.2871 1.1914,6.0127 3.3236,14.1127 4.7382,18 11.2596,30.9424 10.7453,28.8661 10.7813,43.5684 0.028,11.5936 -0.2966,14.4534 -2.2969,20.2441 -6.6619,19.2861 -27.2575,40.4504 -49.1719,50.5313 -20.1689,9.278 -47.7648,16.3706 -70.5,18.1211 -29.1411,2.2437 -58.8495,1.9479 -81.5,-0.8125 -21.1047,-2.5721 -49.7179,-9.9502 -65,-16.7598 -3.025,-1.3479 -8.1791,-3.6591 -11.455,-5.1367 -7.5846,-3.4209 -19.3748,-11.7559 -26.916,-19.0274 -12.2191,-11.7821 -20.1131,-27.9724 -21.3438,-43.7773 -1.0812,-13.8851 1.8168,-25.6851 12.7402,-51.8828 2.5575,-6.1339 5.3017,-15.3771 7.0977,-23.9082 1.6105,-7.6496 5.0421,-20.2496 7.625,-28 4.2974,-12.8947 5.4119,-15.1112 13.1309,-26.0918 11.0868,-15.7718 24.9678,-29.637 35.621,-35.5801 29.2934,-16.3417 53.8671,-21.6947 94.8399,-20.6582 z m -171.3652,29.916 c 7.317,-0.232 14.6012,0.08 17.621,0.7559 6.2532,1.3994 13.2438,5.6771 16.7168,10.2304 l 2.5743,3.377 -4.084,10.2285 c -4.7758,11.9625 -3.4785,11.4853 -20.8028,7.6582 -17.5218,-3.8708 -27.5999,-4.0616 -40.7578,-0.7715 -1.9237,0.481 -2.5589,-0.1162 -4.2968,-4.0449 -2.016,-4.5577 -2.0174,-4.6598 -0.1426,-8.8613 2.2155,-4.9651 10.039,-12.5809 16.3047,-15.8711 3.7365,-1.962 6.2551,-2.3647 16.8672,-2.7012 z m 334.2812,3.8223 c 13.4279,0 30.7235,9.1147 35.2012,18.5508 1.7905,3.7731 1.7245,4.0342 -3.0567,12.1933 -2.154,3.6757 -2.9679,3.8213 -9.8086,1.7461 -7.4373,-2.2562 -21.1641,-1.8654 -35.0918,1 -6.6,1.3579 -12.3297,2.4793 -12.7343,2.4903 -1.1361,0.032 -6.5443,-11.217 -7.8106,-16.2461 -1.6091,-6.3903 0.4854,-10.1305 7.4571,-13.3223 7.128,-3.2633 19.8186,-6.4121 25.8437,-6.4121 z m -353.5059,34.8008 c 7.2812,-0.3798 21.3264,0.5815 32.0528,2.1953 l 8.3027,1.25 -0.6269,3.1269 c -0.3445,1.72 -1.778,7.2895 -3.1875,12.377 -1.4094,5.0875 -3.0654,9.2301 -3.6778,9.2051 -0.6124,-0.025 -3.4834,-2.2056 -6.3808,-4.8457 -2.8973,-2.64 -9.8723,-7.1832 -15.5,-10.0957 -18.1856,-9.4116 -20.9155,-12.6948 -10.9825,-13.2129 z m 361.4512,3.2168 c 4.728,-0.022 13.9964,1.9007 15.2988,3.1738 1.509,1.4752 -5.3289,6.9616 -12.1601,9.7558 -8.352,3.4162 -15.1218,7.9773 -20.6289,13.9004 -2.6345,2.8336 -5.0089,5.1524 -5.2754,5.1524 -0.899,0 -5.8949,-14.4797 -6.9356,-20.1016 l -0.666,-3.6015 6.3321,-2.67 c 6.9854,-2.9432 18.2963,-5.5823 24.0351,-5.6093 z m -338.957,171.7461 c 4.2484,0.102 8.5869,0.7586 12.7558,2.0332 10.0112,3.0608 12.6013,4.2088 25.5,11.3086 10.6631,5.8694 12.5407,7.3177 16.8457,13 6.0008,7.9209 10.7464,10.7394 25.668,15.2421 19.8471,5.989 50.3833,11.1351 72.377,12.1973 6.6602,0.3216 14.5065,0.7149 17.4355,0.875 10.3483,0.5655 33.6771,-1.4677 46.0254,-4.0117 32.7951,-6.7563 50.767,-15.2532 53.4551,-25.2735 1.3235,-4.9339 1.4261,-4.9934 15.1933,-8.7421 16.8491,-4.5879 36.7619,-6.5674 47.7696,-4.7481 6.069,1.0031 13.8624,6.2582 16.5722,11.1719 2.3045,4.1786 2.3285,4.4478 0.7657,8.5 -3.6898,9.5666 -15.4548,22.2029 -29.4102,31.5898 -9.7337,6.5472 -12.218,7.323 -20.5391,6.416 -9.124,-0.9946 -12.3766,-0.6277 -16.4101,1.8477 -3.3614,2.0628 -4.6561,4.9127 -4.0801,8.9746 0.2882,2.032 1.1762,2.4966 6.6152,3.4668 3.4556,0.6164 6.5834,1.4232 6.9512,1.791 0.6957,0.6957 -3.205,8.7152 -11.7226,24.0977 -7.0376,12.7096 -13.1181,27.607 -21.6328,53 -4.0574,12.1 -8.1663,23.5317 -9.129,25.4043 -1.9469,3.7867 -17.6972,19.7266 -23.4335,23.7148 -2.0265,1.4089 -5.4015,2.9602 -7.5,3.4473 -3.8574,0.8953 -6.9871,1.0517 -8.8165,0.4414 -0.55,-0.1834 -2.2635,-0.6114 -3.8085,-0.9531 -4.1945,-0.9278 -11.4645,-8.1891 -15.0352,-15.0176 -2.991,-5.7196 -3.1548,-6.6147 -3.1348,-17.0371 0.02,-10.1989 0.2463,-11.4734 3.1094,-17.5 3.2953,-6.9364 5.6454,-9.846 11.6191,-14.3867 2.0625,-1.5677 3.75,-3.2408 3.75,-3.7168 0,-0.476 -1.2629,-2.2781 -2.8066,-4.0059 -2.7648,-3.0943 -2.8535,-3.1178 -5.9102,-1.5371 -4.3652,2.2573 -8.6633,7.8213 -13.3496,17.2812 l -4.0293,8.1368 -8.7031,1.666 c -6.2076,1.1892 -12.671,1.5808 -22.5547,1.3652 l -13.8554,-0.3027 -2.7168,-8 c -4.1387,-12.1873 -8.5146,-20.1602 -11.3653,-20.7051 -2.777,-0.5309 -6.437,0.6501 -8.8847,2.8652 -1.6034,1.4511 -1.3797,1.9926 3.3886,8.1973 6.9888,9.0939 9.6573,15.3045 10.4102,24.2305 0.7741,9.1782 -0.6425,16.384 -4.8926,24.8769 -3.8438,7.6811 -8.933,11.7195 -15.9648,12.666 -9.9346,1.3371 -18.1944,-3.4297 -25.9707,-14.9902 -2.2716,-3.3771 -5.1229,-7.3445 -6.336,-8.8164 -3.0312,-3.6776 -13.432,-28.4734 -18.8027,-44.8242 -8.2562,-25.1359 -15.1144,-40.0922 -26.127,-56.9785 -3.041,-4.663 -5.5293,-8.7676 -5.5293,-9.1211 0,-0.3534 2.6357,-0.9404 5.8555,-1.3047 8.02,-0.9073 9.4845,-2.1669 9.3945,-8.0879 -0.1355,-8.9642 -7.4651,-12.3144 -23.8691,-10.9082 -8.0299,0.6883 -7.9027,0.7363 -20.1426,-7.3789 -18.3676,-12.1779 -28.8198,-29.3917 -23.7734,-39.1504 4.1017,-7.9319 16.034,-12.6129 28.7793,-12.3066 z m 60.3867,22.4628 c 1.9788,-0.1105 13.0394,4.0934 19.7578,7.5821 l 7.1113,3.6914 16.2032,-0.3047 c 10.5977,-0.1994 21.3179,0.2782 30.9941,1.3789 11.9593,1.3604 20.4469,1.577 44.2988,1.1367 26.1187,-0.4821 31.9138,-0.9028 50.5039,-3.664 11.55,-1.7155 22.125,-2.9893 23.5,-2.8321 l 2.5,0.2852 -2.8398,2.6972 c -4.7282,4.492 -21.6115,9.2507 -43.6602,12.3047 -11.0234,1.5268 -52.1345,2.8484 -58.5,1.8809 -48.9316,-7.4365 -52.4354,-8.2244 -76,-17.1055 -11.4754,-4.3249 -15.0321,-6.0772 -14.1406,-6.9687 0.047,-0.047 0.1396,-0.075 0.2715,-0.082 z m 221.0879,155.7735 c 0.414,0 6.7331,2.5336 14.041,5.6289 9.6323,4.0798 13.8342,6.3963 15.2793,8.4258 2.3463,3.295 5.9085,10.9077 5.9395,12.6953 0.054,3.0953 -11.4708,-0.1883 -19.3125,-5.502 -3.0425,-2.0617 -6.957,-5.548 -8.6993,-7.748 -3.5682,-4.5057 -8.3976,-13.5 -7.248,-13.5 z"
           style="fill:#181005"
           id="path109" /><path
           d="m 1287.298,3602.1514 c -7.9201,0 -12.1778,2.9456 -16.2519,11.2422 -2.6265,5.3487 -2.8282,6.6114 -2.8282,17.7578 0,8.988 0.4598,13.3653 1.8321,17.4394 2.3532,6.9857 6.7741,13.3819 11.4433,16.5547 8.8078,5.9851 19.0236,0.5925 22.6758,-11.9707 0.8795,-3.0252 1.996,-9.7066 2.4824,-14.8476 1.4824,-15.669 -1.6939,-26.93 -9.3457,-33.1231 -3.3045,-2.6746 -4.5462,-3.0527 -10.0078,-3.0527 z m 3.3106,9.5937 c 1.3742,0.056 2.8197,0.6602 4.25,1.8184 1.9639,1.5902 2.3593,2.838 2.3593,7.4199 0,4.4528 -0.4639,6.0017 -2.4238,8.0879 -4.4311,4.7167 -10.2859,2.3084 -11.6152,-4.7773 -0.7664,-4.0854 -0.1214,-6.5344 2.6523,-10.0606 1.3583,-1.7267 3.0104,-2.5602 4.7774,-2.4883 z"
           style="fill:#181005"
           id="path118" /><path
           d="m 1375.1398,3712.7432 c -1.2047,-0.048 -2.745,1.4486 -4.4219,4.5762 -3.0079,5.61 -7.6135,8.332 -14.0996,8.332 -5.5044,0 -8.4623,-2.0058 -12.5586,-8.5176 -3.6185,-5.7521 -5.7364,-5.559 -6.1367,0.5606 -0.4943,7.558 5.6306,14.2392 14.7012,16.0351 3.8718,0.7666 7.1618,0.4703 13.8457,-1.2461 5.6195,-1.4431 11.2534,-7.5036 11.2344,-12.084 -0.021,-4.9805 -1.0156,-7.5951 -2.5645,-7.6562 z"
           style="fill:#181005"
           id="path123" /><path
           d="m 1431.0051,3600.9639 c -8.0598,-0.2947 -14.1605,6.222 -17.8536,19.1601 -2.332,8.1698 -2.4052,23.305 -0.1484,30.711 1.9233,6.3118 6.9973,13.6399 10.7617,15.5449 8.3051,4.2028 16.1409,-1.3172 23.0293,-16.2227 6.2263,-13.4725 6.2848,-26.3497 0.1758,-38.4609 -3.1587,-6.2622 -5.8585,-8.4834 -12.3906,-10.1894 -1.2301,-0.3213 -2.4229,-0.5009 -3.5742,-0.543 z m -2.0098,13.2871 c 4.8564,0 6.7226,1.8325 6.7226,6.5996 0,3.0374 -0.6766,4.6318 -2.9218,6.877 -3.2573,3.2574 -5.2759,3.55 -9.3282,1.3515 -2.2772,-1.2353 -2.75,-2.1646 -2.75,-5.4043 0,-5.4376 3.5015,-9.4238 8.2774,-9.4238 z"
           style="fill:#181005"
           id="path117" /><path
           d="m 1267.3195,3683.6514 c -4.5799,0 -7.7213,2.363 -9.0762,6.8242 -0.9624,3.1689 1.1954,7.954 4.3633,9.6758 3.2146,1.7471 3.9938,1.7856 7.9844,0.3945 3.748,-1.3065 5.1269,-3.5109 5.1269,-8.1933 0,-5.3589 -3.2257,-8.7012 -8.3984,-8.7012 z"
           style="fill:#181005"
           id="path121" /><path
           d="m 1449.8683,3685.9483 c -4.5799,0 -7.7213,2.363 -9.0762,6.8242 -0.9624,3.1689 1.1954,7.954 4.3633,9.6758 3.2146,1.7471 3.9938,1.7856 7.9844,0.3945 3.748,-1.3065 5.1269,-3.5109 5.1269,-8.1933 0,-5.3589 -3.2257,-8.7012 -8.3984,-8.7012 z"
           style="fill:#181005"
           id="path121-1" /></g></g></g><pattern
     id="b-2"
     width="41"
     height="41"
     patternUnits="userSpaceOnUse"><circle
       fill="#ffffff"
       cx="20.5"
       cy="20.5"
       r="20.5"
       id="circle2" /></pattern></svg>
