<?xml version="1.0" encoding="UTF-8" standalone="no"?>
<!-- Created with Inkscape (http://www.inkscape.org/) -->

<svg
   version="1.1"
   id="svg1"
   width="169.40277"
   height="178.61389"
   viewBox="0 0 169.40277 178.61389"
   xml:space="preserve"
   xmlns="http://www.w3.org/2000/svg"
   xmlns:svg="http://www.w3.org/2000/svg"><defs
     id="defs1" /><g
     id="layer-MC0"
     transform="translate(1040.7825,-1380.2995)"><g
       id="g46"
       transform="matrix(1.072217,0,0,1.072217,-5680.2671,-235.74162)"><g
         id="g53"
         transform="matrix(0.19186708,0,0,0.19186708,4585.0173,1088.7654)"><g
           id="g5080"
           transform="translate(2846.4935,283.03312)"><g
             id="g4315"
             transform="translate(-3268.4977,-1695.2188)"><path
               style="fill:#f18e35"
               d="m -624.34503,4142.5097 c -0.17224,0.4267 -0.34485,0.8515 -0.51953,1.2773 0.24661,0.021 0.49311,0.043 0.74023,0.061 -0.0731,-0.4464 -0.14721,-0.8917 -0.2207,-1.3379 z"
               id="path5049" /><path
               style="fill:#f18e35"
               d="m -465.47003,4115.2226 v 0.01 h 0.002 z"
               id="path5048" /><path
               style="fill:#f18e35"
               d="m -466.49542,4114.7597 c 0.33448,0.146 0.67101,0.3057 1.01953,0.4609 -0.0703,-0.039 -0.26722,-0.1422 -0.34961,-0.1875 -0.21199,-0.1085 -0.43741,-0.1983 -0.66992,-0.2734 z"
               id="path5047" /><path
               style="fill:#f18e35"
               d="m -474.89972,4113.0507 c 0.0515,0.022 0.10309,0.044 0.1543,0.066 -0.0151,-0.01 -0.0346,-0.02 -0.0469,-0.025 h 0.006 c -0.0382,-0.014 -0.0752,-0.028 -0.11328,-0.041 z"
               id="path5046" /><path
               style="fill:#f18e35"
               d="m -523.36847,4068.9081 v 0 h 0.002 c 0.002,0 0.004,0.01 0.006,0.012 h 0.002 c 0.0496,0.049 0.1002,0.098 0.15039,0.1465 -0.0118,-0.018 -0.0233,-0.037 -0.0352,-0.055 -0.0555,-0.05 -0.10503,-0.092 -0.125,-0.1074 z"
               id="path5044" /><path
               style="fill:#f18e35"
               d="m -523.56183,4068.7011 c 0.0986,0.099 0.19967,0.1952 0.30078,0.291 -0.009,-0.014 -0.0198,-0.029 -0.0293,-0.043 h -0.002 c -0.1037,-0.096 -0.27399,-0.2561 -0.26953,-0.248 z"
               id="path5043" /><path
               style="fill:#f18e35"
               d="m -523.72003,4068.494 c 0.12588,0.1352 0.25511,0.2669 0.38477,0.3985 -0.0199,-0.024 -0.0401,-0.046 -0.0606,-0.07 -0.0996,-0.1166 -0.42873,-0.4405 -0.32422,-0.3282 z"
               id="path5042" /><path
               style="fill:#f18e35"
               d="m -523.66923,4068.482 c 0.10369,0.125 0.20924,0.2494 0.31445,0.3731 -0.0147,-0.021 -0.0298,-0.04 -0.0449,-0.061 -0.082,-0.1099 -0.35703,-0.418 -0.26953,-0.3125 z"
               id="path5041" /><path
               style="fill:#f18e35"
               d="m -525.22392,4066.7125 c 0.0847,0.084 0.16893,0.1662 0.25391,0.25 -0.006,-0.01 -0.0116,-0.014 -0.0176,-0.019 -0.0737,-0.082 -0.31473,-0.3085 -0.23633,-0.2305 z"
               id="path5040" /><path
               style="fill:#f18e35"
               d="m -533.41532,4057.0016 c 0.0719,0.1151 0.10467,0.1701 0.0332,0.049 0.0235,0.025 0.0361,0.039 0.041,0.043 h 0.002 c -0.005,-0.01 -0.0476,-0.058 -0.0762,-0.092 z"
               id="path5039" /><path
               style="fill:#f18e35"
               d="m -535.35282,4054.5113 c 0.004,0.01 0.01,0.02 0.0195,0.033 0.0964,0.1319 0.19346,0.2636 0.29101,0.3946 0.0272,0.03 0.0607,0.066 0.0957,0.1093 -0.12682,-0.1897 -0.36295,-0.489 -0.40625,-0.5371 z"
               id="path5038" /><path
               style="fill:#f18e35"
               d="m -536.1829,4053.8551 v 0 h -0.002 c 0.006,0.01 0.0192,0.021 0.041,0.043 0.26034,0.2619 0.53658,0.508 0.81055,0.7558 -0.0292,-0.037 -0.0579,-0.073 -0.0879,-0.1094 -0.17052,-0.206 -0.71047,-0.6699 -0.76172,-0.6933 z"
               id="path5037" /><path
               style="fill:#f18e35"
               d="m -536.82353,4052.9371 h 0.002 z"
               id="path5036" /><path
               style="fill:#f18e35"
               d="m -536.85083,4052.9101 h 0.002 z"
               id="path5035" /><path
               style="fill:#f18e35"
               d="m -540.97974,4048.6327 c 0.0438,0.055 0.0915,0.1143 0.13868,0.1738 -0.0424,-0.054 -0.0862,-0.1123 -0.13477,-0.1738 h -0.002 z"
               id="path5034" /><path
               style="fill:#f18e35"
               d="m -540.98374,4048.6227 v 0.01 h 0.002 v 0 c -3.3e-4,0 -0.001,0 -0.002,-0.01 z"
               id="path5033" /><path
               style="fill:#f18e35"
               d="m -541.65366,4047.8434 c 0.0359,0.066 0.072,0.1312 0.10742,0.1972 0.0223,0.041 -0.0414,-0.085 -0.0625,-0.1269 0.0787,0.1138 0.0396,0.056 -0.0449,-0.07 z"
               id="path5032" /><path
               style="fill:#f18e35"
               d="m -542.71616,4046.3238 c 0.0298,0.081 0.0579,0.16 0.0859,0.2383 0.11398,0.1851 0.21194,0.3067 0.24219,0.3223 h 0.002 0.002 0.002 0.002 0.002 c -1.8e-4,0 -0.002,-0.01 -0.002,-0.01 -0.0121,-0.049 -0.10657,-0.2178 -0.33593,-0.5508 z"
               id="path5031" /><path
               style="fill:#f18e35"
               d="m -544.5521,4044.148 v 0 h -0.002 c 0.006,0.01 0.0204,0.026 0.043,0.049 0.26273,0.2704 0.54311,0.5253 0.81836,0.7832 -0.0192,-0.025 -0.0389,-0.051 -0.0586,-0.076 -0.17555,-0.2261 -0.74674,-0.7331 -0.80078,-0.7598 z"
               id="path5030" /><path
               style="fill:#f18e35"
               d="m -545.32944,4041.6109 c 0.11128,0.146 0.22686,0.288 0.34375,0.4297 -0.003,-0.01 -0.005,-0.015 -0.008,-0.019 -0.2161,-0.2689 -0.46068,-0.5739 -0.33593,-0.4102 z"
               id="path5029" /><path
               style="fill:#f18e35"
               d="m -545.60874,4041.027 c 0.14119,0.1856 0.27229,0.378 0.4043,0.5703 -0.15425,-0.2544 -0.54702,-0.7578 -0.4043,-0.5703 z"
               id="path5028" /><path
               style="fill:#f18e35"
               d="m -563.62046,4019.9762 c 0.0145,0.035 0.15103,0.2223 0.45703,0.6133 0.77878,0.8951 1.53944,1.8067 2.33399,2.6875 0.57769,0.6405 -2.61748,-3.1853 -2.78516,-3.3008 h -0.002 -0.002 z"
               id="path5026" /><path
               style="fill:#f18e35"
               d="m -487.24937,3783.4488 c -10e-4,5e-4 -0.003,0 -0.004,0 -0.0448,0.038 -0.0899,0.076 -0.13477,0.1133 0.016,-0.013 0.0393,-0.029 0.0703,-0.053 0.0181,-0.016 0.0428,-0.039 0.0703,-0.062 z"
               id="path5018" /><path
               style="fill:#f18e35"
               d="m -487.00718,3783.2437 c -0.0439,0.037 -0.0889,0.074 -0.13281,0.1114 0.002,0 0.006,0 0.008,0 h 0.002 c 0.10024,-0.086 0.18473,-0.1597 0.12305,-0.1075 z"
               id="path5017" /><path
               style="fill:#f18e35"
               d="m -451.47984,3757.6246 c -0.0487,0.018 -0.0957,0.037 -0.14257,0.055 -0.32643,0.141 -0.60769,0.2613 -0.84766,0.3652 -0.0627,0.034 -0.14388,0.078 -0.26953,0.1465 0.3436,-0.1416 0.71717,-0.2941 1.00391,-0.4082 0.0893,-0.054 0.17342,-0.1082 0.25585,-0.1582 z"
               id="path5013" /><path
               style="fill:#f18e35"
               d="m -451.71616,3757.4937 c -0.64678,0.239 -0.51241,0.2024 -0.0762,0.055 0.0253,-0.018 0.0512,-0.036 0.0762,-0.055 z"
               id="path5012" /><path
               style="fill:#f18e35"
               d="m -450.56968,3757.0777 c -0.51215,0.1842 -0.88218,0.3169 -1.13476,0.4102 -0.0243,0.019 -0.0461,0.038 -0.0684,0.055 0.26914,-0.091 0.64504,-0.2219 1.02343,-0.3574 0.0627,-0.038 0.12335,-0.074 0.17969,-0.1075 z"
               id="path5011" /><path
               style="fill:#f18e35"
               d="m -450.10484,3756.9098 c -0.064,0.023 -0.12504,0.045 -0.18554,0.066 -0.0502,0.032 -0.103,0.066 -0.15625,0.1 0.0533,-0.019 0.10638,-0.04 0.1582,-0.059 0.0617,-0.035 0.12231,-0.071 0.18359,-0.1074 z"
               id="path5010" /><path
               style="fill:#f18e35"
               d="m -449.26499,3756.6109 c -0.17165,0.061 -0.33437,0.1189 -0.48828,0.1739 -0.0386,0.025 -0.0806,0.05 -0.12696,0.08 0.16973,-0.065 0.31344,-0.1207 0.41407,-0.164 0.0693,-0.03 0.13646,-0.06 0.20117,-0.09 z"
               id="path5009" /><path
               style="fill:#f18e35"
               d="m -448.88999,3756.193 c 0.10902,-0.035 0.22206,-0.072 0.33789,-0.1094 0.0649,-0.025 0.12824,-0.05 0.18945,-0.074 -0.13601,0.042 -0.29668,0.093 -0.48437,0.1523 -0.006,0 -0.0122,0.01 -0.0176,0.014 -0.009,0.01 -0.0172,0.012 -0.0254,0.018 z"
               id="path5008" /><path
               style="fill:#f18e35"
               d="m -449.20249,3756.2945 c 0.0563,-0.018 0.11362,-0.036 0.17187,-0.055 0.02,-0.013 0.0404,-0.026 0.0605,-0.039 -0.14392,0.046 -0.30294,0.098 -0.47852,0.1543 -0.0219,0.01 -0.0335,0.012 -0.0371,0.014 0.007,8e-4 0.13695,-0.035 0.2832,-0.074 z"
               id="path5007" /><path
               style="fill:#f18e35"
               d="m -448.92515,3756.2205 c 0.0119,-0.01 0.0226,-0.018 0.0352,-0.027 -0.0476,0.015 -0.0943,0.032 -0.14063,0.047 -0.009,0.01 -0.0169,0.01 -0.0254,0.016 0.0467,-0.013 0.0923,-0.025 0.13086,-0.035 z"
               id="path5004" /><path
               style="fill:#f18e35"
               d="m -447.90757,3755.8747 c -0.0342,0.011 -0.0679,0.022 -0.10156,0.033 -0.0493,0.037 -0.0988,0.073 -0.14844,0.1094 0.085,-0.047 0.16803,-0.094 0.25,-0.1426 z"
               id="path5002" /><path
               style="fill:#f18e35"
               d="m -443.25327,3753.5935 c -0.17014,0.1126 -0.34188,0.2236 -0.51367,0.3339 0.0361,-0.021 0.0729,-0.042 0.10742,-0.064 0.13605,-0.089 0.54177,-0.3595 0.40625,-0.2695 z"
               id="path5000" /></g></g><ellipse
           style="fill:#fbfbfb;fill-opacity:1;stroke-width:0.159656;-inkscape-stroke:none;paint-order:markers stroke fill"
           id="path53"
           cx="-689.32953"
           cy="2361.9407"
           rx="103.36333"
           ry="92.55925" /><path
           style="fill:#83623b"
           d="m -884.71816,3047.75 c -0.52968,-0.6875 -1.50077,-4.4 -2.15797,-8.25 -1.125,-6.5904 -1.05089,-7.3658 1.26629,-13.25 l 2.46122,-6.25 h -31.22569 c -17.25796,0 -31.65064,-0.4047 -32.17569,-0.9047 -0.5225,-0.4976 -5.27945,-1.1722 -10.57101,-1.4992 -10.55602,-0.6523 -15.84046,-1.4603 -17.38735,-2.6587 -0.55459,-0.4297 -3.25459,-1.0282 -6,-1.3301 -5.50064,-0.6049 -16.62222,-3.8237 -23.26844,-6.7343 -2.3522,-1.0302 -5.0522,-1.8925 -6,-1.9164 -1.7006,-0.043 -4.6677,-1.6821 -13.3094,-7.3531 -6.7411,-4.4238 -22.9303,-20.6031 -25.119,-25.1035 -2.5095,-5.1601 -4.1003,-7.9553 -5.4884,-9.6433 -5.1161,-6.2219 -13.5872,-29.5493 -17.197,-47.3567 -1.6971,-8.3718 -4.1094,-24.6081 -4.1094,-27.659 0,-0.4626 -4.0174,-0.841 -8.9276,-0.841 -11.1364,0 -22.8951,-1.5399 -30.0724,-3.9383 -3.025,-1.0109 -7.075,-2.1593 -9,-2.5521 -6.1427,-1.2534 -35.0932,-16.7087 -44.2582,-23.6275 -23.8722,-18.0212 -47.1958,-42.0321 -66.4249,-68.3821 -6.078,-8.3287 -15.3169,-22.2182 -15.3169,-23.0268 0,-0.3151 -2.8576,-4.938 -6.3503,-10.2731 -7.9457,-12.1371 -42.6497,-81.7605 -42.6497,-85.5641 0,-0.8349 -0.4154,-1.7747 -0.9231,-2.0885 -0.5076,-0.3137 -1.2381,-2.0278 -1.6232,-3.809 -0.6417,-2.9683 -3.8754,-11.8325 -7.0181,-19.2385 -0.7002,-1.65 -2.4704,-7.275 -3.9338,-12.5 -1.4634,-5.225 -3.525,-11.4076 -4.5813,-13.7391 -1.0563,-2.3315 -1.9205,-4.8641 -1.9205,-5.6279 0,-0.7638 -0.6247,-2.9062 -1.3881,-4.7609 -0.7635,-1.8546 -1.689,-5.3971 -2.0567,-7.8721 -0.3677,-2.475 -1.0679,-5.4 -1.5559,-6.5 -1.0262,-2.313 -4.5461,-16.0419 -6.5378,-25.5 -0.7529,-3.575 -2.0609,-9.2 -2.9067,-12.5 -0.8459,-3.3 -1.7713,-7.8 -2.0566,-10 -0.2853,-2.2 -1.1797,-6.925 -1.9876,-10.5 -0.8079,-3.575 -1.4783,-9.0609 -1.4898,-12.191 -0.011,-3.13 -0.3956,-5.9226 -0.8536,-6.2057 -0.9833,-0.6077 -3.1861,-19.4991 -3.6851,-31.6033 -0.1927,-4.675 -0.8094,-13.3742 -1.3704,-19.3315 -0.9051,-9.6117 -0.2695,-35.9493 1.2952,-53.6685 0.6924,-7.8406 3.6027,-24.2276 5.6833,-32 2.0233,-7.5588 5.2989,-19.8672 6.8129,-25.6003 2.1754,-8.2378 13.8533,-29.4159 22.5168,-40.8351 8.9178,-11.7541 23.5818,-25.8946 32.3615,-31.2061 5.8957,-3.5668 15.9956,-8.3585 17.6179,-8.3585 0.8155,0 1.7266,-0.3947 2.0247,-0.877 0.4826,-0.7808 5.2653,-2.277 12.576,-3.9342 3.2687,-0.7409 28.7706,-0.7344 32,0.01 3.8781,0.8918 9.9565,2.4403 16.1644,4.1181 6.3576,1.7182 27.6699,12.0694 34.7228,16.8646 2.537,1.7249 7.7628,5.2668 11.6128,7.8708 3.85,2.6041 9.4295,7.033 12.3989,9.8421 2.9694,2.8091 5.6694,5.1239 6,5.1441 1.9898,0.1214 32.4031,31.8402 41.197,42.9655 4.8651,6.1548 12.9041,17.7372 12.9041,18.592 0,0.3161 1.9848,3.1242 4.4108,6.2403 2.4259,3.116 6.0828,8.8155 8.1264,12.6655 2.0436,3.85 4.1178,7.5069 4.6092,8.1265 0.4915,0.6196 4.421,8.05 8.7323,16.512 7.9769,15.6565 13.6883,28.9677 16.6744,38.8615 0.913,3.025 2.9122,8.65 4.4427,12.5 2.9659,7.4607 5.8622,16.7688 7.0011,22.5 0.3825,1.925 0.7489,-5.725 0.8143,-17 0.1086,-18.7406 1.6661,-44.326 2.922,-48 0.282,-0.825 0.6231,-3.975 0.758,-7 0.3255,-7.3008 1.3567,-14.3921 2.981,-20.5 0.7313,-2.75 1.8237,-8.2678 2.4276,-12.2617 0.6038,-3.9939 1.5159,-8.0439 2.027,-9 0.511,-0.9561 1.4758,-4.564 2.144,-8.0176 0.6682,-3.4536 1.6006,-6.5176 2.0721,-6.809 0.4714,-0.2913 0.8571,-1.8863 0.8571,-3.5444 0,-3.2228 4.1299,-16.7255 6.38244,-20.8673 0.7478,-1.375 1.92631,-4.3 2.61892,-6.5 0.69261,-2.2 1.70574,-4.5625 2.25141,-5.25 0.67192,-0.8466 0.57937,-1.7473 -0.28676,-2.791 -0.70339,-0.8475 -2.33349,-3.8172 -3.62245,-6.5993 -2.75616,-5.9489 -3.23696,-17.6948 -0.9445,-23.0758 0.76948,-1.8061 2.23198,-5.3089 3.25,-7.7839 1.0858,-2.6398 4.74768,-7.4541 8.85843,-11.6462 7.40962,-7.5562 11.27406,-9.4546 20.30591,-9.9753 4.05661,-0.2338 5.10246,-1.0115 17.56809,-13.0636 12.69028,-12.2692 15.97281,-14.9156 30.61851,-24.6847 6.46949,-4.3153 31.1408,-16.6246 33.34397,-16.6364 0.63582,0 2.50603,-0.7188 4.15603,-1.5899 8.23329,-4.3467 25.61899,-9.4712 45.5,-13.4112 20.93446,-4.1487 42.68891,-5.327 87.30073,-4.7284 l 35.80073,0.4804 2.69927,-2.6224 c 7.52798,-7.3134 25.14624,-10.522 36.25487,-6.6027 8.84093,3.1193 15.70167,11.0991 18.6608,21.7046 1.37028,4.9111 2.03653,5.871 4.69037,6.758 3.29217,1.1003 5.81953,3.0682 19.46776,15.1589 14.46604,12.8152 16.20487,14.8631 30.44709,35.8589 5.96346,8.7913 15.52593,26.7604 18.62571,35 0.7242,1.925 1.97655,6.875 2.78301,11 0.80646,4.125 1.72773,8.175 2.04726,9 0.31953,0.825 0.6897,2.175 0.8226,3 0.1329,0.825 1.03008,5.775 1.99374,11 2.10476,11.4121 2.57696,52.8274 0.67838,59.5 -0.62596,2.2 -1.43673,8.05 -1.8017,13 -0.36497,4.95 -0.91575,9.4087 -1.22394,9.9083 -0.3082,0.4995 -1.15555,4.9124 -1.88301,9.8064 -0.72746,4.8939 -1.99412,10.8758 -2.81479,13.2931 -0.82067,2.4172 -1.70683,5.4293 -1.96924,6.6936 -0.26241,1.2642 -0.71175,3.1986 -0.99854,4.2986 -0.28678,1.1 -2.0326,7.85 -3.87958,15 -1.84699,7.15 -3.84825,13.9135 -4.44724,15.0299 -2.44093,4.5496 -3.5623,22.2697 -2.29719,36.3003 0.66693,7.3965 1.59707,14.398 2.06698,15.559 0.46991,1.1609 1.35879,5.9358 1.97529,10.6108 0.61651,4.675 1.53561,9.85 2.04246,11.5 0.50685,1.65 1.56073,6.15 2.34197,10 0.78123,3.85 2.38402,11.05 3.56176,16 1.17773,4.95 2.57556,11.025 3.10629,13.5 0.95719,4.4638 4.02957,14.2734 6.57717,21 0.72908,1.925 1.84115,5.6451 2.47129,8.267 0.63013,2.6218 1.54034,5.0109 2.0227,5.309 0.48235,0.2981 0.877,1.5025 0.877,2.6765 0,1.988 3.69314,15.4301 6.11235,22.2475 0.58552,1.65 1.88383,5.925 2.88513,9.5 1.00131,3.575 2.80142,9.875 4.00026,14 1.19884,4.125 2.99973,10.425 4.00198,14 1.00225,3.575 2.77902,9.875 3.94837,14 4.39049,15.4879 6.25289,22.6872 7.502,29 0.70738,3.575 1.79909,7.625 2.42602,9 1.20357,2.6397 3.22416,11.9 5.67321,26 0.81201,4.675 1.90044,9.625 2.41873,11 0.5183,1.375 1.19463,4.975 1.50296,8 0.99388,9.7511 1.55701,13.1832 2.4379,14.8587 3.56954,6.7894 3.40432,84.7645 -0.19947,94.1413 -0.31707,0.825 -0.7941,3.525 -1.06007,6 -0.58129,5.4094 -1.50835,9.7927 -2.64369,12.5 -0.4613,1.1 -1.35951,4.8663 -1.99603,8.3695 -0.63652,3.5032 -2.65883,9.8032 -4.49401,14 -1.83519,4.1968 -3.84251,9.4305 -4.46073,11.6305 -0.61821,2.2 -1.89597,5.4413 -2.83947,7.2029 -2.70101,5.0431 -13.52369,23.6892 -14.39289,24.7971 -11.39937,14.5299 -15.03381,18.3272 -22.0629,23.0515 -7.59884,5.1073 -7.68608,5.2132 -4.77206,5.796 2.93734,0.5875 16.2027,8.3594 16.84574,9.8697 0.18334,0.4305 0.8924,0.7828 1.57569,0.7828 1.9105,0 5.59098,4.3839 5.59098,6.6595 0,3.3224 -3.43616,5.7033 -7.15724,4.9591 -1.76634,-0.3533 -3.91605,-1.2215 -4.77714,-1.9294 -2.92857,-2.4076 -11.90934,-5.9631 -13.51023,-5.3488 -0.87709,0.3365 -2.53031,2.1976 -3.67382,4.1358 -2.78584,4.7216 -7.52762,4.9198 -12.53435,0.5238 -6.03505,-5.2988 -8.5595,-3.7113 -8.74599,5.5 -0.0993,4.9068 -0.16303,5.0059 -3.41655,5.3182 -4.53431,0.4353 -5.80623,-0.9491 -6.50053,-7.0751 -0.82365,-7.2674 -2.34242,-12.0389 -4.84431,-15.2196 -1.79036,-2.2761 -2.62521,-2.6009 -5.23495,-2.0368 -1.70769,0.369 -5.30363,0.6313 -7.99097,0.5827 -2.68735,-0.049 -5.56799,0.4775 -6.40143,1.1692 -1.86938,1.5515 -80.48561,2.5524 -82.47717,1.0501 -1.39287,-1.0507 -84.60768,-1.119 -86.28838,-0.071 -0.57918,0.3612 -7.55418,0.7418 -15.5,0.8459 -7.94582,0.104 -14.76747,0.3733 -15.15923,0.5984 -0.84428,0.4851 1.20731,5.3378 2.25666,5.3378 0.91494,0 4.73615,9.435 5.57977,13.7771 0.46679,2.4026 0.16023,3.8037 -1.1487,5.25 -2.4504,2.7077 -4.73348,2.4856 -11.4945,-1.1179 -6.95537,-3.7072 -9.11653,-3.5082 -10.57031,0.9733 -2.13047,6.5676 -7.40091,6.625 -11.90219,0.1297 -2.19899,-3.1732 -3.07648,-3.7857 -4.14865,-2.8958 -0.74789,0.6207 -1.35979,2.0983 -1.35979,3.2835 0,5.0105 -6.09712,8.7521 -8.71816,5.3501 z M -708.26118,2407 c 2.05236,-1.1 4.63823,-2.0153 5.74637,-2.0339 1.10815,-0.019 3.81481,-0.9034 6.01481,-1.9661 2.2,-1.0627 4.675,-1.9502 5.5,-1.9722 0.825,-0.022 2.78894,-0.7123 4.36431,-1.534 1.57537,-0.8216 3.23357,-1.4938 3.6849,-1.4938 0.45132,0 2.08739,-0.5248 3.63569,-1.1662 1.54831,-0.6414 3.0401,-1.233 3.3151,-1.3146 6.42584,-1.9068 9.29549,-3.1257 9.67253,-4.1082 0.45163,-1.1769 -2.49978,-7.4067 -19.50903,-41.179 l -8.19328,-16.268 -2.73511,1.3943 c -1.50431,0.7669 -8.13511,3.3041 -14.73511,5.6382 -6.6,2.3341 -13.41801,4.8647 -15.15113,5.6236 -1.73312,0.759 -3.66145,1.3799 -4.28518,1.3799 -0.62373,0 -2.18721,0.69 -3.47439,1.5334 -1.28718,0.8434 -3.20845,1.7007 -4.26948,1.905 -3.24066,0.6241 -9.32124,3.4108 -9.29646,4.2606 0.0128,0.4405 1.31292,3.051 2.88906,5.801 1.57613,2.75 4.49852,8.15 6.4942,12 11.53795,22.2587 17.38034,32.6293 19.12508,33.9483 2.73831,2.0702 6.81215,1.9073 11.20712,-0.4483 z M -643.5,2383.0468 c 1.1,-0.475 4.025,-1.528 6.5,-2.3402 2.475,-0.8121 6.075,-2.0462 8,-2.7426 1.925,-0.6964 5.975,-2.1494 9,-3.2289 11.71929,-4.1823 11.93033,-4.3406 11.33281,-8.501 -0.29497,-2.0537 -1.28566,-4.8591 -2.20153,-6.2341 -0.91586,-1.375 -3.21786,-5.65 -5.11555,-9.5 -1.89769,-3.85 -5.12406,-9.7 -7.16973,-13 -2.04566,-3.3 -4.86293,-8.25 -6.26059,-11 -1.39766,-2.75 -3.59234,-6.2984 -4.87706,-7.8853 -2.30045,-2.8416 -2.38792,-2.8616 -5.7721,-1.3208 -3.59362,1.6361 -15.23886,5.0974 -22.93625,6.8173 -2.475,0.553 -5.4,1.3978 -6.5,1.8774 -1.1,0.4797 -3.8,1.3876 -6,2.0177 -2.2,0.6301 -4.675,1.4079 -5.5,1.7284 -0.825,0.3206 -1.8375,0.5114 -2.25,0.4241 -1.82562,-0.3865 0.0365,3.9037 12.50215,28.8035 15.55745,31.0756 14.08037,29.77 27.24785,24.0845 z"
           id="path49" /><path
           style="fill:#62492b"
           d="m -885.06738,3046.4188 c -2.10728,-2.5391 -1.8735,-18.2959 0.31738,-21.3913 0.9625,-1.3599 1.75,-3.2724 1.75,-4.25 0,-1.663 -1.89318,-1.7775 -29.39405,-1.7775 -16.16672,0 -34.05422,-0.4779 -39.75,-1.0619 -26.09529,-2.6758 -58.77215,-12.1144 -69.13115,-19.9682 -2.8736,-2.1787 -5.5126,-3.9632 -5.8644,-3.9656 -1.7027,-0.012 -18.7904,-18.2076 -20.7372,-22.0823 -2.5041,-4.9842 -3.7363,-7.1069 -6.63,-11.422 -3.4918,-5.207 -6.4932,-11.2091 -6.4932,-12.985 0,-0.942 -0.6078,-3.1307 -1.3507,-4.8639 -3.5303,-8.2362 -5.5239,-14.6153 -6.1156,-19.5689 -0.3559,-2.9798 -1.243,-6.8441 -1.9714,-8.5872 -0.7283,-1.7432 -1.6448,-7.2204 -2.0367,-12.1716 -0.3919,-4.9512 -1.0156,-10.4843 -1.3861,-12.2958 l -0.6736,-3.2936 -10.1397,0.1883 c -5.5769,0.1036 -10.4002,-0.233 -10.7185,-0.7481 -0.3184,-0.5151 -3.9979,-1.2569 -8.1767,-1.6485 -4.1788,-0.3916 -9.49,-1.549 -11.8026,-2.5719 -2.3127,-1.023 -5.7626,-2.0487 -7.6666,-2.2794 -2.9304,-0.355 -27.4614,-11.8738 -28.9618,-13.5994 -0.275,-0.3162 -2.075,-1.3034 -4,-2.1937 -3.4678,-1.6039 -15.3982,-10.6375 -25.9997,-19.6868 -11.4947,-9.8117 -33.5746,-33.0037 -42.7423,-44.8951 -7.1939,-9.3312 -18.258,-24.3291 -18.258,-24.7497 0,-0.4798 -7.2579,-12.3787 -12.7677,-20.9318 -2.5219,-3.9149 -10.947,-19.9429 -18.7225,-35.6179 -17.0166,-34.3047 -21.446,-43.8507 -25.5205,-55 -1.7084,-4.675 -3.7549,-9.918 -4.5477,-11.6511 -0.7929,-1.7332 -1.4444,-3.7582 -1.4478,-4.5 0,-0.7419 -0.6336,-2.5516 -1.4005,-4.0215 -0.7669,-1.4699 -1.9019,-5.0392 -2.5223,-7.9318 -0.6203,-2.8925 -1.5064,-5.7399 -1.969,-6.3274 -0.4627,-0.5875 -1.1273,-2.6432 -1.477,-4.5682 -0.3497,-1.925 -1.3325,-4.8354 -2.1839,-6.4675 -0.8515,-1.6321 -2.8845,-8.3821 -4.5178,-15 -1.6332,-6.6179 -3.4092,-12.8139 -3.9464,-13.7689 -0.5373,-0.9551 -0.9769,-2.6455 -0.9769,-3.7565 0,-2.5153 -5.7408,-25.7849 -7.0329,-28.5071 -0.5222,-1.1 -0.8735,-2.9 -0.7808,-4 0.2187,-2.5954 -2.2318,-15.701 -3.1788,-17 -0.4009,-0.55 -0.7756,-2.575 -0.8326,-4.5 -0.057,-1.925 -0.8305,-8.225 -1.7189,-14 -1.7206,-11.1853 -1.7848,-11.8129 -4.0391,-39.5 -0.8061,-9.9 -1.7107,-20.9918 -2.0102,-24.6483 -0.3453,-4.2147 -0.1534,-6.8902 0.5243,-7.3091 0.6603,-0.408 1.069,-5.141 1.069,-12.3779 0,-6.4444 0.4807,-15.5304 1.0683,-20.1909 0.5876,-4.6606 1.0968,-9.8238 1.1317,-11.4738 0.035,-1.65 0.3945,-3.45 0.7992,-4 0.4048,-0.55 1.3051,-4.825 2.0008,-9.5 0.6957,-4.675 1.6129,-8.95 2.0384,-9.5 0.4255,-0.55 1.3304,-3.925 2.011,-7.5 0.6806,-3.575 1.5826,-6.95 2.0045,-7.5 0.4219,-0.55 1.0858,-2.8 1.4752,-5 1.6517,-9.3307 12.4456,-30.0907 22.6173,-43.5 16.8698,-22.2395 33.5165,-35.0509 54.8447,-42.2087 8.501,-2.8529 11.0019,-3.2326 23.5945,-3.5815 13.2471,-0.3671 14.8246,-0.2007 26.5,2.7949 14.7885,3.7945 35.7561,13.6031 48.9144,22.8822 28.5393,20.1256 64.3075,57.2029 78.4796,81.3519 0.5612,0.9564 2.7486,4.1064 4.8609,7 5.425,7.4318 11.0735,17.5307 21.4003,38.2612 8.2834,16.6283 13.2592,27.8371 13.2592,29.8682 0,0.4562 0.5931,2.2475 1.3179,3.9807 0.7249,1.7331 2.8161,7.6511 4.6473,13.1511 1.8312,5.5 3.6545,10.45 4.0518,11 0.3973,0.55 1.3077,4.15 2.0232,8 0.7154,3.85 1.6036,7.357 1.9736,7.7932 0.6703,0.7905 2.4519,-42.879 2.0861,-51.135 -0.1058,-2.3881 0.2093,-4.8631 0.7002,-5.5 0.4909,-0.637 1.4542,-7.4582 2.1406,-15.1582 0.6865,-7.7 1.4272,-15.125 1.6461,-16.5 1.1978,-7.5229 4.7519,-23.3941 8.3976,-37.5 6.0315,-23.3374 6.5215,-24.8526 12.6623,-39.1511 1.76346,-4.1062 1.71139,-5.0182 -0.46781,-8.1945 -3.18345,-4.6401 -5.17889,-11.5288 -5.17889,-17.8788 0,-3.3867 0.41538,-6.4143 0.92306,-6.7281 0.50769,-0.3137 1.2318,-1.9761 1.60913,-3.6941 1.30543,-5.9436 5.39734,-12.3787 11.71321,-18.4209 6.77327,-6.4797 13.17858,-9.4325 20.46126,-9.4325 3.52825,0 4.61932,-0.7968 13.8121,-10.0866 13.86906,-14.0155 34.53279,-29.5874 46.48124,-35.0276 1.925,-0.8765 7.05533,-3.2782 11.40073,-5.3372 4.3454,-2.059 9.70654,-4.3808 11.91366,-5.1595 2.20712,-0.7787 4.50778,-1.8265 5.11257,-2.3285 0.6048,-0.5019 3.34365,-1.4608 6.08634,-2.1309 2.74268,-0.6701 5.4367,-1.5447 5.9867,-1.9436 0.55,-0.3989 2.73554,-1.0384 4.85676,-1.4211 2.12122,-0.3826 5.04622,-1.1799 6.5,-1.7718 1.45378,-0.5919 3.31824,-1.1651 4.14324,-1.2738 6.76006,-0.891 16.72287,-3.0094 17.7062,-3.7649 0.6634,-0.5097 1.58763,-0.6909 2.05383,-0.4028 0.4662,0.2881 2.84841,0.067 5.2938,-0.491 2.44539,-0.5581 10.52117,-1.4391 17.94617,-1.9576 15.06049,-1.0518 72.17635,-1.285 84.35537,-0.3444 7.60305,0.5872 7.97243,0.5126 11.5,-2.3216 3.94067,-3.1661 9.44807,-6.2941 12.64463,-7.1817 1.1,-0.3055 7.175,-0.5434 13.5,-0.5288 10.76032,0.025 11.76886,0.1997 15.68006,2.7184 5.33014,3.4324 11.02256,10.8688 12.36195,16.1492 1.63444,6.4436 3.10757,8.6415 7.18668,10.7225 4.44435,2.2673 21.81746,17.0972 29.89578,25.5194 13.17783,13.7388 32.21067,44.548 37.83611,61.2469 1.17756,3.4955 3.56649,13.1644 5.30872,21.4863 3.08032,14.7133 3.16857,15.8479 3.1992,41.1307 0.0433,35.7424 -1.80333,48.7643 -13.40109,94.5 -2.30126,9.075 -4.80908,17.8679 -5.57294,19.5398 -2.66983,5.8436 -3.91991,24.0918 -2.62298,38.2893 1.3404,14.6734 5.68417,39.4254 9.98393,56.8912 1.59497,6.4788 3.67318,15.0975 4.61826,19.1525 0.94507,4.0551 3.8763,14.1801 6.51383,22.5 2.63752,8.32 5.7169,18.2772 6.84306,22.1272 1.12616,3.85 3.61695,12.175 5.5351,18.5 1.91815,6.325 5.56826,18.925 8.11136,28 2.5431,9.075 5.32271,18.75 6.17692,21.5 3.07285,9.8926 14.10652,55.2419 16.17969,66.5 5.17589,28.1069 6.25457,35.9145 7.68017,55.5899 1.56156,21.5519 1.00656,45.9227 -1.47821,64.9101 -1.77898,13.5941 -8.08739,39.6829 -10.99891,45.4866 -0.96938,1.9324 -2.54108,5.9884 -3.49267,9.0134 -2.50788,7.9723 -16.92385,32.7509 -24.61276,42.3051 -6.29215,7.8186 -14.89982,15.3566 -20.39466,17.8602 -1.39513,0.6356 -2.5366,1.4735 -2.5366,1.8619 0,0.3884 2.22853,1.6323 4.95228,2.7642 2.72376,1.132 8.57376,4.4169 13,7.2998 6.69943,4.3636 8.04772,5.683 8.04772,7.8753 0,6.1858 -3.7677,6.4352 -14.75338,0.9764 -9.22932,-4.586 -10.57587,-4.4398 -14.09887,1.5313 -2.77162,4.6975 -6.09998,4.7051 -11.27943,0.026 -2.13074,-1.925 -4.66454,-3.5 -5.63065,-3.5 -2.76677,0 -4.34395,3.4832 -3.62186,7.9988 0.73547,4.5994 -0.67646,7.0012 -4.11581,7.0012 -3.25402,0 -4.20088,-1.6362 -6.00698,-10.3801 -0.88622,-4.2904 -1.98782,-8.7911 -2.44799,-10.0015 -1.79425,-4.7192 -2.53725,-4.8225 -22.20034,-3.0867 -15.78464,1.3935 -28.11336,1.5244 -88.34469,0.9378 -64.44041,-0.6276 -105.7837,0.1672 -110.90422,2.1321 -1.06198,0.4075 -0.59434,1.7444 1.97474,5.6454 3.8872,5.9024 6.36006,15.0471 4.7602,17.6033 -1.78452,2.8514 -6.15579,2.5574 -11.51554,-0.7744 -5.86545,-3.6462 -9.46999,-3.3758 -10.46177,0.7847 -1.6347,6.8575 -6.48324,7.1393 -11.33872,0.659 -3.71229,-4.9545 -5.31054,-4.7904 -6.40011,0.6575 -0.34455,1.7228 -1.12888,3.7377 -1.74296,4.4776 -1.51673,1.8275 -5.33421,1.6978 -6.939,-0.2359 z M -867,3010.6978 c 3.16427,-1.3255 54.42967,-2.6705 98,-2.571 104.73239,0.2393 122.5,0.071 122.5,-1.1614 0,-0.133 6.3,-0.8081 14,-1.5002 7.7,-0.692 15.125,-1.5869 16.5,-1.9885 1.375,-0.4017 7.225,-1.4183 13,-2.2592 23.55375,-3.4295 33.3964,-12.7883 53.33937,-50.7175 2.81202,-5.3481 4.48283,-9.414 5.1881,-12.625 0.37993,-1.7299 1.76668,-5.2873 3.08166,-7.9053 1.31498,-2.6181 2.39087,-5.8423 2.39087,-7.1649 0,-1.3227 0.45551,-2.8603 1.01225,-3.4171 0.55674,-0.5567 1.19103,-2.7842 1.40952,-4.95 0.54642,-5.4161 1.71055,-10.7392 2.61074,-11.9377 0.94094,-1.2528 1.87592,-7.656 2.62833,-18 0.32004,-4.4 0.99717,-8.5201 1.50472,-9.1557 1.42009,-1.7785 1.41369,-47.165 -0.007,-48.5856 -0.72583,-0.7258 -1.15872,-4.9444 -1.15872,-11.2919 0,-10.0995 -1.50944,-21.1126 -3.14095,-22.9168 -0.47248,-0.5225 -0.85905,-2.6863 -0.85905,-4.8084 0,-5.408 -2.02731,-18.0188 -3.11109,-19.3524 -0.49648,-0.6109 -1.35001,-4.6388 -1.89673,-8.9509 -0.54672,-4.3121 -1.44362,-8.2897 -1.99311,-8.8392 -0.54949,-0.5495 -0.99907,-2.0944 -0.99907,-3.4331 0,-2.9284 -2.00806,-10.29 -3.16858,-11.616 -0.45728,-0.5225 -0.83142,-2.2357 -0.83142,-3.8072 0,-3.2437 -1.92607,-11.7357 -3.00362,-13.2428 -0.64636,-0.9041 -1.01462,-2.3733 -2.62406,-10.4689 -0.26996,-1.358 -0.85212,-2.933 -1.29369,-3.5 -0.89018,-1.1432 -2.07243,-5.5531 -2.62653,-9.7971 -0.19863,-1.5213 -0.99335,-3.6687 -1.76606,-4.7719 -1.24127,-1.7721 -1.55204,-1.8285 -2.66792,-0.4839 -2.09094,2.5194 -6.03785,1.8034 -9.52683,-1.7282 -1.76592,-1.7875 -4.43866,-4.375 -5.93943,-5.75 l -2.72867,-2.5 0.72302,3.8743 c 2.36664,12.6817 0.21186,19.4831 -5.53757,17.4789 -2.18906,-0.7631 -3.04298,-1.9325 -3.90176,-5.343 -0.60467,-2.4014 -0.79961,-5.1474 -0.4332,-6.1022 1.36747,-3.5636 -1.32063,-0.4036 -3.63146,4.2689 -4.74116,9.5867 -6.89391,12.3231 -9.69452,12.3231 -1.44497,0 -3.22501,-0.7875 -3.95565,-1.75 -1.62683,-2.1431 -1.80138,-8.4407 -0.27623,-9.9658 1.37176,-1.3718 3.20069,-4.4747 5.89002,-9.9928 1.12811,-2.3147 2.48829,-4.4788 3.02263,-4.809 0.53434,-0.3302 0.97153,-1.3121 0.97153,-2.1819 0,-0.8698 0.99882,-3.5814 2.21961,-6.0258 2.13823,-4.2814 2.15649,-4.5543 0.49789,-7.4442 -0.94694,-1.65 -2.79283,-5.7743 -4.10197,-9.1652 -3.27919,-8.4937 -3.37117,-8.6946 -5.8855,-12.8573 -1.22652,-2.0306 -3.77978,-6.3056 -5.67391,-9.5 -1.89414,-3.1944 -4.83953,-7.833 -6.54531,-10.308 -1.70579,-2.475 -4.36889,-6.975 -5.91802,-10 -1.54912,-3.025 -3.38251,-6.175 -4.0742,-7 -0.69169,-0.825 -1.42883,-1.9726 -1.6381,-2.5502 -0.81235,-2.2422 -9.44568,-12.3412 -10.59531,-12.394 -2.85339,-0.1311 -3.79121,-7.4879 -1.16645,-9.1503 0.7597,-0.4812 2.77687,-0.8818 4.48261,-0.8902 2.52896,-0.012 4.23612,1.1845 9.25,6.4858 3.38176,3.5756 6.14866,6.8899 6.14866,7.3651 0,0.4753 0.87494,1.9764 1.94431,3.3359 1.06937,1.3595 3.39578,5.1326 5.16981,8.3848 4.78899,8.7793 11.0921,18.4131 12.04717,18.4131 0.46129,0 0.83871,0.6122 0.83871,1.3605 0,0.7482 1.125,3.0182 2.5,5.0444 1.375,2.0261 2.5,4.2838 2.5,5.0171 0,0.7332 0.60418,1.8345 1.34263,2.4474 2.88406,2.3936 3.57439,-3.6572 4.94802,-43.3694 0.15959,-4.6137 -0.96192,-11.7646 -2.60569,-16.6141 -0.81763,-2.4123 -1.76011,-6.1132 -2.09439,-8.2243 -0.33428,-2.1112 -1.27322,-5.9362 -2.08653,-8.5 -0.81331,-2.5639 -1.69326,-6.6866 -1.95544,-9.1616 -0.26219,-2.475 -1.19187,-7.65 -2.06595,-11.5 -0.87408,-3.85 -1.77864,-9.25 -2.01012,-12 -0.23149,-2.75 -0.85939,-8.15 -1.39535,-12 -1.29756,-9.3208 -1.30564,-21.6238 -0.0191,-29 0.5756,-3.3 1.18349,-6.9886 1.35086,-8.1968 0.16737,-1.2083 0.81535,-3.4583 1.43995,-5 1.27291,-3.142 4.55354,-15.4603 6.73884,-25.3032 0.79371,-3.575 2.05224,-8.075 2.79674,-10 0.74449,-1.925 1.67966,-5.75 2.07814,-8.5 0.39849,-2.75 1.14624,-5.5128 1.66167,-6.1395 0.51543,-0.6267 1.10252,-3.7767 1.30464,-7 0.69191,-11.0342 1.8318,-18.8607 2.95134,-20.2639 1.57319,-1.9718 1.56927,-65.2267 -0.004,-67.1925 -1.01527,-1.2684 -1.45855,-3.4788 -2.98898,-14.9041 -0.25785,-1.925 -0.98917,-4.5362 -1.62515,-5.8026 -1.04963,-2.0902 -1.66865,-2.2576 -6.70917,-1.8142 -4.9594,0.4363 -31.01368,5.5133 -31.91087,6.2182 -0.29456,0.2315 2.81462,5.9017 7.89527,14.3986 3.60996,6.0373 9.505,16.8551 12.57731,23.0801 2.01413,4.0809 4.04981,8.2013 4.52375,9.1563 0.47393,0.9551 0.8617,4.3471 0.8617,7.5378 0,8.9512 -2.51378,11.3054 -17.5,16.3889 -6.6,2.2388 -12.45,4.41 -13,4.8249 -0.55,0.4149 -3.475,1.3601 -6.5,2.1004 -3.025,0.7404 -5.725,1.6266 -6,1.9694 -0.64786,0.8076 -9.94939,3.9422 -11.69801,3.9422 -0.73795,0 -3.02029,1.0413 -5.07186,2.314 -2.05157,1.2727 -10.03013,4.4921 -17.73013,7.1543 -7.7,2.6623 -14.45,5.1512 -15,5.5309 -0.55,0.3798 -3.25,1.298 -6,2.0406 -2.75,0.7425 -6.125,1.9349 -7.5,2.6497 -1.375,0.7148 -3.96747,1.5781 -5.76105,1.9185 -1.79357,0.3403 -3.497,1.0005 -3.7854,1.4672 -0.74615,1.2073 -4.9394,-0.5817 -10.1728,-4.34 -3.17681,-2.2815 -5.46392,-5.1402 -7.78647,-9.7327 -7.47689,-14.7845 -11.02666,-21.5302 -11.57826,-22.0025 -0.32119,-0.275 -2.25056,-3.875 -4.28748,-8 -2.89017,-5.8529 -7.98797,-15.2658 -9.04177,-16.6953 -0.28633,-0.3883 -13.7245,4.5636 -14.89055,5.4872 -1.3005,1.0301 -8.57868,3.6653 -10.19622,3.6917 -0.55,0.01 -1.225,0.2461 -1.5,0.5269 -0.275,0.2808 -2.975,1.5869 -6,2.9025 -3.025,1.3155 -9.325,4.1737 -14,6.3514 -11.09979,5.1705 -15.73065,7.2105 -20,8.8105 -1.925,0.7213 -3.725,1.5621 -4,1.8683 -0.78142,0.8702 -11.59068,6.0568 -12.62272,6.0568 -0.50759,0 -3.3144,1.575 -6.23737,3.5 -2.92296,1.925 -5.69073,3.5 -6.1506,3.5 -0.45986,0 -2.89948,1.575 -5.42137,3.5 -5.28131,4.0313 -6.57905,4.2502 -9.04484,1.5255 -2.59371,-2.866 -0.49045,-7.2745 5.14134,-10.7764 2.43155,-1.512 6.98928,-4.4355 10.12829,-6.4967 3.139,-2.0612 6.0789,-3.7487 6.53311,-3.75 0.45422,0 5.34493,-2.2524 10.86826,-5.0024 5.52332,-2.75 10.44032,-5 10.92666,-5 0.48635,0 5.72063,-2.3054 11.63175,-5.1231 5.91112,-2.8177 12.09749,-5.7147 13.74749,-6.4379 1.65,-0.7232 5.05458,-2.2428 7.56572,-3.3769 2.51115,-1.1342 4.89834,-2.0621 5.30487,-2.0621 0.40653,0 2.85195,-0.9475 5.43427,-2.1055 7.99421,-3.5851 10.47855,-4.5814 17.19514,-6.8961 3.575,-1.2321 7.0013,-2.64 7.61399,-3.1288 0.6127,-0.4888 3.96737,-1.8255 7.45483,-2.9703 3.48746,-1.1449 8.16117,-2.9164 10.38601,-3.9366 3.98856,-1.829 6.28867,-2.6812 26.04517,-9.6501 5.5,-1.9401 10.45,-3.8708 11,-4.2905 1.1382,-0.8686 27.77075,-9.4196 43.5,-13.9667 5.775,-1.6695 12.525,-3.7617 15,-4.6494 5.74493,-2.0605 45.3697,-10.3642 50,-10.4779 1.925,-0.047 2.96281,-0.3045 2.30624,-0.5716 -0.65657,-0.2671 -1.73428,-2.1441 -2.39492,-4.1711 -0.66063,-2.027 -1.50621,-3.9104 -1.87908,-4.1854 -0.37286,-0.275 -2.1296,-3.425 -3.90386,-7 -3.12694,-6.3005 -7.71735,-13.736 -13.37057,-21.6575 -1.50821,-2.1134 -4.26078,-5.9954 -6.11681,-8.6268 -3.6909,-5.2327 -15.23109,-17.7055 -16.40674,-17.7326 -0.40384,-0.01 -2.88495,-2.0344 -5.51357,-4.5 -2.62862,-2.4657 -5.16102,-4.4831 -5.62756,-4.4831 -0.46653,0 -1.45229,-0.7278 -2.19057,-1.6174 -1.37064,-1.6515 -18.9729,-10.3826 -20.93181,-10.3826 -0.59426,0 -3.0808,-0.9113 -5.52564,-2.025 -2.44484,-1.1138 -5.90765,-2.3021 -7.69514,-2.6407 -1.78748,-0.3387 -3.69997,-0.9608 -4.24997,-1.3826 -1.3582,-1.0416 -12.02505,-2.9517 -16.48366,-2.9517 -1.98899,0 -4.10496,-0.4886 -4.70217,-1.0858 -1.69664,-1.6967 -22.67499,-2.4886 -61.1125,-2.3069 -35.44189,0.1675 -49.24603,0.8271 -52.39898,2.504 -0.93352,0.4965 -4.08352,1.1218 -7,1.3897 -6.51625,0.5984 -10.6782,1.3599 -13.30269,2.434 -1.1,0.4501 -4.86383,1.3522 -8.36407,2.0045 -3.50024,0.6523 -7.10024,1.5925 -8,2.0893 -0.89976,0.4968 -4.22343,1.4005 -7.38593,2.0081 -3.1625,0.6077 -5.75,1.4247 -5.75,1.8157 0,0.3909 -2.12781,1.339 -4.72847,2.1069 -2.60066,0.7679 -5.86316,1.9884 -7.25,2.7122 -1.38684,0.7238 -3.02893,1.3188 -3.64909,1.3221 -0.62015,0 -1.66374,0.6523 -2.31909,1.4419 -0.65535,0.7897 -2.47936,1.7186 -4.05335,2.0643 -1.57399,0.3457 -3.35145,1.2185 -3.9499,1.9396 -0.59846,0.7211 -3.10455,1.8757 -5.5691,2.5657 -2.46455,0.6901 -4.481,1.6461 -4.481,2.1247 0,0.4785 -0.7875,0.8883 -1.75,0.9106 -0.9625,0.022 -3.308,1.3724 -5.21223,3 -1.90422,1.6277 -4.04172,2.9594 -4.75,2.9594 -0.70827,0 -1.28777,0.3401 -1.28777,0.7559 0,0.4157 -1.2375,1.3202 -2.75,2.0098 -2.44363,1.1143 -6.01738,3.9612 -12.89095,10.2695 -1.17752,1.0806 -2.49264,1.9648 -2.92248,1.9648 -0.42985,0 -3.26648,2.5452 -6.30364,5.6559 -6.19689,6.3471 -6.1667,6.4169 3.36707,7.7839 7.35436,1.0544 14.55298,5.6833 19.3539,12.445 3.05048,4.2964 4.15797,14.0305 1.8173,15.9731 -2.43626,2.0219 -4.57542,0.1307 -7.2245,-6.3873 -3.18059,-7.8256 -8.27636,-12.4706 -13.68096,-12.4706 -1.30116,0 -2.79324,-0.4209 -3.31574,-0.9354 -1.34816,-1.3274 -21.44671,-1.5479 -24.45,-0.2682 -1.375,0.5858 -3.69371,1.3189 -5.1527,1.629 -5.51891,1.1731 -16.8473,15.8756 -16.8473,21.8653 0,0.8752 -0.40982,1.8445 -0.91071,2.1541 -0.50089,0.3096 -0.7755,4.0207 -0.61025,8.2471 l 0.30045,7.6841 6.36026,6.1237 c 5.37802,5.178 7.59572,6.5433 14.36025,8.8405 4.4,1.4942 8.675,3.0874 9.5,3.5404 1.9475,1.0694 2.48518,4.8299 0.95432,6.6744 -1.26104,1.5195 -6.0911,1.9749 -7.37099,0.695 -0.4125,-0.4125 -1.05,-0.7867 -1.41666,-0.8315 -4.13797,-0.5061 -13.34565,-4.4938 -16.24695,-7.0364 -1.37136,-1.2018 -1.73126,-1.0873 -2.72242,0.8665 -3.77096,7.4333 -7.12516,18.0379 -12.09876,38.2514 -1.7592,7.15 -3.8321,15.25 -4.6064,18 -0.7743,2.75 -1.6617,7.25 -1.9721,10 -0.3103,2.75 -0.7616,6.125 -1.0027,7.5 -1.9544,11.1442 -2.5471,15.7146 -3.1122,24 -0.3564,5.225 -0.8089,10.85 -1.0057,12.5 -1.3408,11.2433 -2.2466,35.1782 -2.5487,67.3454 -0.1929,20.54 -0.6899,37.5551 -1.1044,37.8113 -0.4145,0.2562 -0.4767,1.5691 -0.1383,2.9176 0.3384,1.3484 0.1765,3.0083 -0.3598,3.6887 -0.5363,0.6803 -1.2732,3.262 -1.6376,5.737 -0.3643,2.475 -2.2025,9.225 -4.085,15 -3.4394,10.5514 -5.6309,18.784 -5.9894,22.5 -0.1062,1.1 -0.4957,2.675 -0.8656,3.5 -1.3969,3.1151 -3.4516,12.4072 -3.0024,13.5778 0.2575,0.671 0.028,1.4919 -0.5098,1.8243 -0.5379,0.3324 -1.5403,3.8654 -2.2276,7.8511 -0.6873,3.9858 -1.5966,7.7052 -2.0206,8.2654 -0.8968,1.1847 -3.4526,14.2755 -3.215,16.4668 0.089,0.817 -0.1847,1.717 -0.6073,2 -0.6677,0.4471 -4.4613,16.498 -6.7394,28.5146 -0.9085,4.7926 -0.8655,4.622 -1.6391,6.5 -0.6184,1.501 -2.7325,11.733 -3.2026,15.5 -0.1373,1.1 -0.4843,2.675 -0.7712,3.5 -0.8396,2.4145 -2.7243,12.1601 -3.191,16.5 -0.2365,2.2 -1.1539,7.825 -2.0386,12.5 -3.1671,16.7361 -5.5048,32.755 -7.0745,48.4779 -0.8773,8.7878 -1.8034,16.3149 -2.058,16.7268 -0.2546,0.4119 -0.6829,7.6218 -0.9519,16.0221 -0.269,8.4003 -0.7397,19.9982 -1.0461,25.7732 -0.9745,18.3678 2.5939,60.1793 6.0943,71.4089 0.8416,2.6999 1.5302,6.0287 1.5302,7.3974 0,2.3641 2.7539,11.2014 5.5138,17.6937 0.7014,1.65 1.6064,4.575 2.011,6.5 0.4047,1.925 1.5772,4.5732 2.6055,5.8849 1.0283,1.3116 1.8697,2.7787 1.8697,3.2602 0,0.4815 1.4625,3.0151 3.25,5.6303 1.7875,2.6153 4.1001,6.4202 5.139,8.4555 2.3567,4.6166 10.6597,13.1908 18.3168,18.9151 7.3705,5.5099 9.0427,6.4393 16.0664,8.9292 3.1503,1.1167 6.50915,2.4567 7.46419,2.9776 0.95504,0.521 2.16324,0.9472 2.6849,0.9472 0.52166,0 2.21527,0.5202 3.76357,1.1559 1.54831,0.6358 3.2651,1.224 3.8151,1.3072 0.55,0.083 1.675,0.4103 2.5,0.727 1.95018,0.7487 13.92838,2.8432 16.45391,2.8772 1.07466,0.014 2.42466,0.3971 3,0.8504 0.57535,0.4532 5.53542,1.1418 11.02238,1.5301 5.48696,0.3884 10.54194,1.0227 11.2333,1.4096 1.54781,0.8662 75.20482,0.7141 77.29041,-0.1596 z m 41.99888,-286.1992 c -1.25675,-1.5142 -0.99171,-14.789 0.58041,-29.0705 0.62231,-5.6533 0.42925,-6.5153 -2.79958,-12.5 -6.39377,-11.8512 -7.27476,-13.3732 -8.33708,-14.403 -0.96603,-0.9366 -5.50855,-7.474 -7.94263,-11.4309 -0.55,-0.894 -2.19461,-3.1935 -3.65469,-5.1099 -1.46007,-1.9164 -4.23133,-6.1843 -6.15836,-9.4843 -1.92702,-3.3 -4.66991,-7.0909 -6.09531,-8.4243 -1.4254,-1.3334 -2.59164,-3.0209 -2.59164,-3.75 0,-0.7291 -0.41968,-1.3257 -0.93261,-1.3257 -0.51294,0 -1.19585,-0.7875 -1.51757,-1.75 -0.32173,-0.9625 -3.06031,-4.45 -6.08574,-7.75 -3.02543,-3.3 -5.77086,-7.0306 -6.10095,-8.2903 -1.36864,-5.2228 6.50687,-8.3397 10.63687,-4.2097 1.1,1.1 2.004,2.3375 2.00889,2.75 0.005,0.4125 2.26472,3.3855 5.02185,6.6066 2.75713,3.2211 5.52576,6.8211 6.1525,8 0.62674,1.1789 2.79723,4.1684 4.8233,6.6434 2.02608,2.475 4.7288,6.3 6.00604,8.5 1.27725,2.2 3.82192,5.8757 5.65484,8.1683 1.83292,2.2926 3.33258,4.4247 3.33258,4.7381 0,1.0999 7.43304,11.5936 8.21218,11.5936 0.4333,0 0.78782,0.5749 0.78782,1.2775 0,0.7026 0.73118,2.3214 1.62484,3.5973 l 1.62485,2.3198 1.27237,-2.8473 c 1.92254,-4.3022 3.481,-22.8647 3.47938,-41.4423 -10e-4,-14.8081 0.19548,-16.7732 1.8273,-18.25 2.38369,-2.1572 6.10403,-2.1118 7.77921,0.095 3.01043,3.9657 0.78794,47.72 -3.56256,70.1365 -1.87271,9.6494 -1.65551,10.3391 4.87016,15.466 3.25355,2.5561 6.18821,4.6475 6.52146,4.6475 0.33326,0 3.46899,2.25 6.9683,5 3.49931,2.75 6.63965,5 6.97854,5 1.75685,0 4.61615,4.3658 4.61615,7.0483 0,2.4902 -0.59494,3.3 -3.25,4.4237 -1.8071,0.7649 -3.39799,0.9654 -3.58333,0.4518 -0.18334,-0.5081 -0.72201,-0.9238 -1.19705,-0.9238 -0.47504,0 -3.86549,-2.272 -7.53434,-5.049 -6.87256,-5.2018 -8.83254,-5.784 -6.03728,-1.7932 3.46429,4.946 1.14895,11.2606 -3.91521,10.678 -2.40939,-0.2772 -3.44758,-1.3432 -5.95069,-6.1098 l -3.0321,-5.7739 -1.0776,5.8405 c -0.59267,3.2123 -1.40673,6.373 -1.80901,7.0239 -1.03858,1.6805 -6.13253,1.4678 -7.61451,-0.3179 z m -12.65872,-389.0463 c -3.1589,-1.384 -6.34016,-6.1753 -6.34016,-9.5488 0,-0.984 0.9025,-3.3188 2.00557,-5.1884 3.27141,-5.5446 9.62186,-7.3158 14.58073,-4.0666 2.87549,1.8841 5.4137,6.2685 5.4137,9.3515 0,3.3879 -2.80712,7.8489 -5.96727,9.4831 -3.51049,1.8153 -5.49365,1.809 -9.69257,-0.031 z m 204.50688,-70.2445 c -10.61334,-6.438 -5.37373,-21.8532 6.75871,-19.8844 5.37883,0.8729 8.10817,4.014 8.94706,10.2969 0.37095,2.7783 -3.12281,8.4545 -5.60303,9.1031 -1.07238,0.2804 -1.94978,0.9074 -1.94978,1.3932 0,1.4261 -5.27281,0.8384 -8.15296,-0.9088 z m -582.72294,531.5255 c -0.9876,-0.9802 -1.1025,-0.8654 -0.5598,0.5598 0.3755,0.9862 0.9347,1.5412 1.2426,1.2334 0.3079,-0.3079 6e-4,-1.1148 -0.6828,-1.7932 z M -1060,2703.559 c 0,-0.2425 -0.45,-0.7191 -1,-1.059 -0.55,-0.3399 -1,-0.1415 -1,0.441 0,0.5824 0.45,1.059 1,1.059 0.55,0 1,-0.1984 1,-0.441 z m 498.67114,-25.5164 c -0.84565,-1.6951 -2.06637,-5.6607 -2.71272,-8.8123 -0.64635,-3.1517 -1.53411,-6.1803 -1.9728,-6.7303 -0.4387,-0.55 -1.34847,-3.8125 -2.02173,-7.25 -0.67325,-3.4375 -1.533,-6.25 -1.91054,-6.25 -0.37754,0 -1.26865,-2.9291 -1.98025,-6.5092 -0.71161,-3.58 -1.67433,-6.7443 -2.13939,-7.0318 -0.46506,-0.2874 -1.3761,-3.2192 -2.02454,-6.5151 -0.64843,-3.2959 -1.49978,-6.1909 -1.89189,-6.4332 -1.01286,-0.626 -2.17599,28.0213 -1.38077,34.0074 0.364,2.7401 1.20915,5.7831 1.8781,6.7623 2.44232,3.5751 16.73714,18.8012 17.20862,18.3297 0.26699,-0.267 -0.20645,-1.8724 -1.05209,-3.5675 z m -490.98804,-11.2301 c -0.3192,-0.7977 -0.5562,-0.5608 -0.6042,0.6042 -0.043,1.0541 0.193,1.6448 0.5253,1.3125 0.3323,-0.3323 0.3678,-1.1948 0.079,-1.9167 z m 8,-36 c -0.3192,-0.7977 -0.5562,-0.5608 -0.6042,0.6042 -0.043,1.0541 0.193,1.6448 0.5253,1.3125 0.3323,-0.3323 0.3678,-1.1948 0.079,-1.9167 z m 8,-34 c -0.3192,-0.7977 -0.5562,-0.5608 -0.6042,0.6042 -0.043,1.0541 0.193,1.6448 0.5253,1.3125 0.3323,-0.3323 0.3678,-1.1948 0.079,-1.9167 z m 4,-16 c -0.3192,-0.7977 -0.5562,-0.5608 -0.6042,0.6042 -0.043,1.0541 0.193,1.6448 0.5253,1.3125 0.3323,-0.3323 0.3678,-1.1948 0.079,-1.9167 z m 4,-12 c -0.3192,-0.7977 -0.5562,-0.5608 -0.6042,0.6042 -0.043,1.0541 0.193,1.6448 0.5253,1.3125 0.3323,-0.3323 0.3678,-1.1948 0.079,-1.9167 z M -694.5,2402.9156 c 28.78623,-10.2052 28.65408,-10.1535 29.13084,-11.396 0.3912,-1.0194 -25.53993,-54.2528 -27.89568,-57.2663 -0.76367,-0.9769 -1.76021,-0.8345 -4.60487,0.6579 -1.99666,1.0475 -10.81365,4.4591 -19.59331,7.5812 -8.77966,3.1221 -17.21716,6.3251 -18.75,7.1178 -1.53284,0.7926 -2.78698,1.1495 -2.78698,0.793 0,-0.3564 -0.5625,-0.2016 -1.25,0.344 -0.6875,0.5457 -2.9375,1.5357 -5,2.2 -2.0625,0.6644 -3.74027,1.5105 -3.72838,1.8804 0.0119,0.3698 1.35686,3.1474 2.98881,6.1724 1.63195,3.025 4.87029,9.1 7.19631,13.5 2.32602,4.4 5.67967,10.7 7.45257,14 1.77289,3.3 4.60288,8.7 6.28885,12 3.10147,6.0706 6.31337,9.4347 9.05184,9.4808 0.825,0.014 10.5,-3.1655 21.5,-7.0652 z m 59,-21.9182 c 8.25,-2.8721 17.7,-6.2793 21,-7.5713 l 6,-2.3493 -0.15704,-4.2884 c -0.11508,-3.1426 -1.74371,-7.2273 -6.09571,-15.2884 -7.63902,-14.1495 -16.7529,-29.997 -19.3437,-33.6355 -1.95241,-2.7419 -2.13992,-2.7936 -4.91702,-1.3575 -1.58797,0.8211 -3.51198,1.493 -4.2756,1.493 -0.76361,0 -5.17346,1.1496 -9.79966,2.5547 -23.54676,7.1517 -31.90481,10.0229 -31.84057,10.9381 0.0389,0.554 6.22638,13.1463 13.75,27.9831 11.47612,22.6311 14.08195,27.075 16.1793,27.5912 1.375,0.3384 2.95,0.2862 3.5,-0.1161 0.55,-0.4023 7.75,-3.0814 16,-5.9536 z M -663.54293,2201.75 c -0.95372,-3.1664 -6.45918,-8.7124 -9.37524,-9.4443 -1.34669,-0.338 -3.60352,-1.2173 -5.01518,-1.954 -4.06277,-2.1201 -12.01162,-1.6487 -18.64678,1.106 l -5.91987,2.4578 4.05,0.042 c 2.2275,0.023 4.4775,0.4566 5,0.9629 0.5225,0.5063 2.975,1.1585 5.45,1.4493 5.25841,0.6179 9.08873,1.6017 10.5133,2.7005 0.55731,0.4299 3.15246,1.3202 5.767,1.9786 2.61453,0.6583 4.9976,1.5916 5.29572,2.074 0.29811,0.4823 1.22078,0.877 2.05038,0.877 1.09837,0 1.32416,-0.6116 0.83067,-2.25 z"
           id="path48" /><path
           style="fill:#090604"
           d="m -884.26301,3046.25 c -0.90062,-1.002 -1.86515,-4.6379 -2.2565,-8.5063 -0.60647,-5.9946 -0.40664,-7.2911 1.77256,-11.5 1.35085,-2.609 2.25903,-5.3062 2.01818,-5.9937 -0.33775,-0.9641 -7.60964,-1.25 -31.79555,-1.25 -17.2467,0 -31.59505,-0.3841 -31.8852,-0.8536 -0.29015,-0.4695 -4.02921,-1.1469 -8.30902,-1.5054 -13.85761,-1.1608 -18.76191,-1.816 -19.78146,-2.6429 -0.79587,-0.6454 -9.29998,-2.3381 -11.5,-2.289 -0.275,0.01 -2.975,-0.8717 -6,-1.9508 -3.025,-1.0791 -6.53474,-2.104 -7.79942,-2.2775 -1.26468,-0.1736 -3.28968,-0.9555 -4.49998,-1.7376 -1.2103,-0.7821 -3.7228,-1.72 -5.5833,-2.0842 -1.8605,-0.3641 -5.5741,-2.2364 -8.2523,-4.1605 -2.6783,-1.9242 -5.3072,-3.4985 -5.8419,-3.4985 -0.5348,0 -5.5266,-4.3713 -11.0929,-9.714 -7.3705,-7.0744 -11.0525,-11.49 -13.5501,-16.25 -1.8862,-3.5948 -4.3123,-7.886 -5.3912,-9.536 -4.4197,-6.7591 -10.4565,-21.784 -13.0581,-32.5 -2.9639,-12.2082 -4.9674,-22.7833 -5.9678,-31.5 -0.6313,-5.5 -1.3206,-10.1769 -1.5319,-10.3932 -0.2112,-0.2162 -4.1801,-0.3018 -8.8196,-0.1902 -11.0693,0.2662 -23.3936,-1.4412 -32.2795,-4.4718 -3.9424,-1.3447 -7.8754,-2.4448 -8.74,-2.4448 -0.8646,0 -7.3141,-2.9965 -14.332,-6.6589 -7.018,-3.6624 -14.5205,-7.5332 -16.6722,-8.6017 -4.6871,-2.3276 -13.5878,-8.8473 -13.5878,-9.9529 0,-0.4326 -0.5782,-0.7865 -1.2849,-0.7865 -3.805,0 -37.0398,-32.4011 -51.2865,-50 -9.4324,-11.6517 -25.4286,-34.1313 -25.4286,-35.7349 0,-0.662 -1.297,-2.7502 -8.5495,-13.7651 -2.1728,-3.3 -10.313,-18.825 -18.0895,-34.5 -19.4088,-39.1225 -22.361,-45.3404 -22.361,-47.0962 0,-0.8369 -0.6607,-2.395 -1.4682,-3.4627 -0.8075,-1.0676 -1.4825,-2.5481 -1.5,-3.29 -0.017,-0.7418 -0.668,-2.7668 -1.4456,-4.5 -0.7775,-1.7331 -1.9612,-4.9511 -2.6303,-7.1511 -0.6691,-2.2 -1.5268,-4.45 -1.9061,-5 -0.3792,-0.55 -1.2719,-3.025 -1.9837,-5.5 -0.7117,-2.475 -1.651,-5.4 -2.0874,-6.5 -0.4363,-1.1 -1.3548,-4.25 -2.0411,-7 -0.6864,-2.75 -1.5661,-5.45 -1.9549,-6 -0.3888,-0.55 -1.0287,-2.35 -1.4219,-4 -0.3933,-1.65 -1.3312,-4.35 -2.0843,-6 -2.0071,-4.3974 -13.884,-52.5 -17.4069,-70.5 -12.1568,-62.1132 -12.5044,-123.1716 -0.9497,-166.8076 1.7029,-6.4308 3.7165,-14.2763 4.4746,-17.4344 0.7582,-3.1581 1.7865,-6.5331 2.285,-7.5 0.4986,-0.9669 3.5383,-7.1431 6.755,-13.7249 9.5875,-19.6177 22.517,-35.5199 41.4166,-50.9392 3.5514,-2.8974 20.7094,-11.5939 22.8746,-11.5939 1.0492,0 2.0576,-0.4262 2.241,-0.9471 0.1833,-0.5209 3.4833,-1.7197 7.3333,-2.664 7.4999,-1.8396 31.8347,-2.5193 36.5,-1.0195 1.375,0.442 4.75,1.2546 7.5,1.8057 2.75,0.5511 5.45,1.3472 6,1.7691 0.55,0.4219 3.199,1.3041 5.8868,1.9603 9.0572,2.2115 30.2326,13.8196 40.321,22.1037 0.6643,0.5455 1.5912,0.9918 2.0598,0.9918 0.863,0 9.5795,7.0255 14.3157,11.5384 1.4209,1.3539 2.9195,2.4616 3.3303,2.4616 0.4108,0 4.8202,3.9375 9.7986,8.75 12.1061,11.7026 12.5945,12.2121 15.5761,16.25 1.4214,1.925 4.2025,5.0944 6.1803,7.043 1.9778,1.9487 5.6641,6.2237 8.1918,9.5 2.5278,3.2764 5.5507,6.8142 6.7178,7.862 1.167,1.0477 2.1218,2.2898 2.1218,2.7602 0,0.4704 1.575,3.0961 3.5,5.8348 1.925,2.7387 3.5,5.2936 3.5,5.6775 0,0.3839 1.9631,3.201 4.3624,6.2603 2.3993,3.0592 5.5593,7.8122 7.0222,10.5622 1.463,2.75 3.7502,6.8 5.0828,9 8.4736,13.989 19.9537,39.6514 27.5103,61.4955 4.4703,12.9225 8.3903,25.41 8.711,27.75 1.1421,8.3322 2.219,4.0306 2.7529,-10.9955 1.0573,-29.7599 1.5136,-37.4056 3.0282,-50.75 2.4789,-21.8397 4.4133,-35.7232 5.2946,-38 0.3193,-0.825 0.6938,-2.4 0.8322,-3.5 0.3093,-2.4577 6.3223,-26.4244 7.1504,-28.5 0.3292,-0.825 1.1398,-3.75 1.8013,-6.5 1.4231,-5.9155 2.94525,-10.1703 6.11726,-17.0997 1.28394,-2.8048 2.33444,-5.7523 2.33444,-6.55 0,-0.7977 0.51375,-1.9641 1.14167,-2.592 0.85557,-0.8555 0.29171,-2.4658 -2.25,-6.4254 -3.27862,-5.1076 -3.39167,-5.6179 -3.39167,-15.3083 0,-9.2172 0.2583,-10.5664 3.20698,-16.7514 2.84981,-5.9777 9.33796,-13.6779 15.71393,-18.6495 2.33099,-1.8176 8.06413,-3.2371 13.31988,-3.2981 4.04113,-0.047 4.74732,-0.5582 15,-10.8609 10.09477,-10.144 14.88704,-14.3846 20.30181,-17.9647 1.24779,-0.825 2.97367,-2.2875 3.83529,-3.25 0.86163,-0.9625 1.92623,-1.75 2.36579,-1.75 0.84425,0 8.90349,-5.042 9.75632,-6.1038 0.275,-0.3423 3.2,-1.9704 6.5,-3.618 3.3,-1.6475 9.15,-4.569 13,-6.4922 3.85,-1.9232 8.125,-3.8284 9.5,-4.2339 2.3917,-0.7053 9.83875,-3.8383 13,-5.4692 0.825,-0.4257 3.975,-1.3524 7,-2.0594 3.025,-0.707 5.95,-1.6366 6.5,-2.0658 0.55,-0.4293 3.925,-1.3258 7.5,-1.9924 3.575,-0.6665 7.4,-1.5803 8.5,-2.0306 2.05505,-0.8412 15.42893,-3.2075 19,-3.3617 1.1,-0.047 2.53334,-0.4294 3.18521,-0.8486 2.60682,-1.6767 41.25444,-2.9448 74.59241,-2.4474 l 34.77762,0.5188 3.98798,-3.3319 c 8.46815,-7.0749 24.27629,-9.7022 34.92335,-5.8041 8.35462,3.0587 15.55246,11.615 18.04944,21.4558 0.95429,3.761 1.92094,4.9075 6.79823,8.0635 9.67288,6.2591 12.14685,8.3658 26.43576,22.5115 5.9125,5.8532 10.75,11.2048 10.75,11.8925 0,0.6876 0.3375,1.4002 0.75,1.5836 0.4125,0.1833 2.31168,2.5833 4.2204,5.3333 1.90871,2.75 3.82755,5.45 4.26408,6 2.17243,2.7371 5.76552,8.7048 5.76552,9.5758 0,0.5428 0.6475,1.2354 1.43889,1.5391 0.79139,0.3037 1.72032,1.8335 2.06428,3.3995 0.34396,1.5661 1.24254,3.3596 1.99683,3.9856 0.75429,0.626 1.65429,2.426 2,4 0.34571,1.574 1.23048,3.3614 1.96617,3.9719 0.73568,0.6106 1.63965,2.3136 2.00881,3.7844 0.36916,1.4709 1.48829,4.4899 2.48695,6.709 0.99865,2.2191 2.14164,6.0597 2.53997,8.5347 0.39833,2.475 1.0804,4.95 1.51573,5.5 0.43532,0.55 1.04969,3.4192 1.36527,6.3761 0.89083,8.3467 1.77812,12.4989 2.99749,14.027 1.5625,1.9582 1.56499,58.226 0.003,60.1916 -1.24724,1.5692 -2.04285,7.0689 -2.95193,20.4053 -0.33742,4.95 -0.96378,9.45 -1.39192,10 -0.69681,0.8951 -1.29656,3.477 -2.67141,11.5 -0.23562,1.375 -1.07252,4.1535 -1.85977,6.1744 -0.78725,2.021 -1.7206,5.846 -2.07411,8.5 -0.35351,2.6541 -0.98371,5.2756 -1.40045,5.8256 -0.89169,1.1768 -1.77969,4.6862 -2.55625,10.1022 -0.30739,2.1438 -0.93448,4.7978 -1.39354,5.8978 -2.56385,6.1435 -3.08368,7.8035 -3.08368,9.8471 0,1.2391 -0.5625,2.8154 -1.25,3.503 -1.6318,1.6318 -1.72989,34.2348 -0.10914,36.2776 0.59883,0.7548 1.63137,6.3145 2.29453,12.3549 0.66316,6.0404 1.58436,11.4404 2.0471,12 0.46275,0.5596 1.08715,3.789 1.38756,7.1765 0.60774,6.8529 1.53055,11.3333 2.64482,12.8409 0.4065,0.55 1.27575,4.1416 1.93167,7.9814 0.65592,3.8397 1.56914,7.4397 2.02938,8 0.46024,0.5602 1.12087,3.7061 1.46808,6.9909 0.34721,3.2847 1.25929,7.2311 2.02684,8.7697 0.76756,1.5386 1.90589,5.2557 2.52964,8.2603 0.62374,3.0046 1.52353,5.7035 1.99952,5.9977 0.47599,0.2942 1.40016,3.1145 2.05371,6.2674 0.65355,3.1529 1.80882,6.6202 2.56728,7.7051 0.75845,1.0849 1.37901,3.2447 1.37901,4.7997 0,1.5549 0.63307,4.0514 1.40683,5.5476 0.77376,1.4963 1.8949,5.3607 2.49141,8.5876 0.59652,3.2268 1.52565,6.3984 2.06474,7.048 0.53908,0.6496 1.49551,3.6253 2.12539,6.6128 0.62988,2.9875 1.49982,5.8818 1.93321,6.4318 0.43338,0.55 1.06394,2.754 1.40124,4.8978 0.92855,5.9016 1.7174,8.6022 2.51274,8.6022 0.3953,0 1.2766,3.0276 1.95843,6.7281 0.68184,3.7004 1.61804,7.1879 2.08046,7.75 0.46242,0.562 1.33303,3.6958 1.93469,6.9638 0.60165,3.2681 1.47096,6.1931 1.93179,6.5 0.46083,0.307 1.40474,3.4831 2.09758,7.0581 0.69284,3.575 1.68053,7.2867 2.19488,8.2483 0.51435,0.9616 1.11874,3.5934 1.34309,5.8486 0.57026,5.7322 1.59778,10.2078 2.6424,11.5097 0.48836,0.6086 1.29889,3.0836 1.80116,5.5 0.50227,2.4164 1.22779,5.5184 1.61226,6.8934 0.38446,1.375 1.14384,5.2 1.6875,8.5 0.54367,3.3 1.64142,8.1854 2.43946,10.8564 0.79804,2.6711 1.83916,8.5211 2.3136,13 0.47443,4.479 1.5676,10.8436 2.42925,14.1436 0.94297,3.6114 1.57287,10.2561 1.58227,16.691 0.01,6.8298 0.42226,10.9423 1.14155,11.3868 0.73294,0.453 0.94985,2.8894 0.62145,6.9805 -0.28017,3.4904 -0.0705,6.7186 0.47153,7.2606 1.871,1.871 -2.29307,58.3229 -4.69342,63.6283 -0.75967,1.679 -1.69049,5.5278 -2.06849,8.5528 -0.378,3.025 -1.10044,6.2859 -1.60544,7.2465 -0.50499,0.9605 -1.3926,4.3355 -1.97246,7.5 -0.57987,3.1644 -1.5986,6.4285 -2.26385,7.2535 -1.41009,1.7487 -5.1334,11.1867 -6.08369,15.4211 -0.36055,1.6066 -1.52764,4.0298 -2.59355,5.3848 -1.06591,1.3551 -1.93801,2.8444 -1.93801,3.3095 0,0.4652 -1.575,3.3079 -3.5,6.3171 -1.925,3.0093 -3.5,5.7134 -3.5,6.0092 0,1.7882 -9.77139,15.0766 -15.13986,20.5892 -8.38509,8.6101 -12.31005,11.8413 -16.52089,13.6007 -1.91273,0.7992 -3.31682,1.9357 -3.1202,2.5256 0.19662,0.5898 2.5161,1.8918 5.1544,2.8933 2.6383,1.0015 8.60786,4.3829 13.2657,7.5142 7.40329,4.977 8.43055,6.0231 8.16482,8.3143 -0.26004,2.2422 -0.84734,2.6659 -4.06399,2.932 -2.57765,0.2131 -4.67016,-0.3372 -6.65437,-1.75 -1.59189,-1.1336 -3.40973,-2.061 -4.03964,-2.061 -0.62991,0 -2.52141,-0.7116 -4.20333,-1.5814 -4.11504,-2.1279 -7.21615,-1.1456 -9.70616,3.0747 -2.65024,4.4918 -6.0677,4.6523 -10.78926,0.5067 -6.31848,-5.5477 -10.84722,-3.2892 -10.84722,5.4094 0,5.001 -0.0566,5.0961 -3.21569,5.4014 -3.50902,0.3391 -3.52943,0.3016 -4.7652,-8.7612 -0.33376,-2.4477 -0.97504,-4.9227 -1.42508,-5.5 -0.45004,-0.5773 -1.14036,-2.3996 -1.53405,-4.0496 -0.39369,-1.65 -1.42549,-3.7875 -2.29288,-4.75 -1.61186,-1.7886 -7.72229,-2.4405 -8.65962,-0.9239 -0.2808,0.4543 -2.80515,0.6432 -5.60966,0.4196 -3.3122,-0.2641 -5.66103,0.06 -6.70258,0.9239 -1.31036,1.0872 -19.48276,1.3304 -99.41324,1.3304 -91.14392,0 -97.92695,0.1171 -99.52905,1.7189 -1.5627,1.5623 -1.57708,1.881 -0.15791,3.5 3.8669,4.4112 6.54173,11.2865 6.42352,16.5108 -0.0986,4.357 -0.44878,5.3033 -2.07941,5.6188 -2.09264,0.4049 -10.34383,-3.4693 -12.07678,-5.6705 -1.88211,-2.3906 -5.8053,-0.3891 -7.96237,4.0621 -2.79431,5.7661 -5.6328,5.7944 -9.72449,0.097 -3.49415,-4.8655 -3.21459,-4.7075 -5.84125,-3.3017 -1.20781,0.6464 -1.93426,2.0905 -1.93426,3.845 0,2.7196 -2.59675,6.1198 -4.67375,6.1198 -0.55895,0 -1.72412,-0.7875 -2.58926,-1.75 z m 16.61766,-34.1062 c 1.79239,-1.4513 63.25103,-3.1747 104.64535,-2.9344 84.2554,0.489 114.40597,0.2069 116.5,-1.0901 0.55,-0.3406 7.3,-1.1756 15,-1.8554 14.61154,-1.2902 16.03783,-1.4873 18.5,-2.557 0.825,-0.3584 5.775,-1.0858 11,-1.6165 6.02702,-0.612 11.10452,-1.7519 13.88902,-3.1181 8.61965,-4.229 18.96266,-12.6104 19.09349,-15.4723 0.0251,-0.55 1.83937,-2.9889 4.03161,-5.4197 2.19223,-2.4308 3.98588,-4.7846 3.98588,-5.2306 0,-0.446 1.48167,-3.1821 3.2926,-6.0803 1.81093,-2.8982 3.85767,-6.3944 4.54831,-7.7694 0.69064,-1.375 2.32829,-4.3 3.63922,-6.5 1.31092,-2.2 2.89057,-5.8 3.51032,-8 1.3522,-4.8 3.36157,-9.6944 6.03424,-14.6981 1.08642,-2.034 1.97531,-4.8374 1.97531,-6.2298 0,-1.3924 0.6452,-4.2282 1.43377,-6.3019 0.78858,-2.0736 1.96512,-7.1452 2.61455,-11.2702 0.64943,-4.125 1.58589,-8.0041 2.08102,-8.6203 1.10012,-1.369 2.81696,-22.5107 2.84797,-35.0707 0.0125,-5.055 0.47269,-9.4691 1.02269,-9.809 1.28877,-0.7965 1.29951,-8.9993 0.0148,-11.2636 -0.54189,-0.955 -1.37632,-10.8363 -1.85429,-21.9584 -0.54207,-12.6133 -1.30496,-20.7472 -2.02761,-21.6179 -0.63722,-0.7678 -1.62017,-6.2678 -2.18435,-12.2221 -0.56418,-5.9544 -1.39508,-11.3013 -1.84644,-11.8821 -0.99873,-1.285 -2.05456,-6.3675 -2.70105,-13.0022 -0.26508,-2.7205 -0.8883,-5.4359 -1.38492,-6.0343 -0.49662,-0.5984 -1.36065,-3.93 -1.92006,-7.4037 -0.55941,-3.4736 -1.43799,-6.8332 -1.95238,-7.4657 -0.5144,-0.6325 -1.44985,-4.5002 -2.07878,-8.5949 -0.62892,-4.0947 -1.53634,-7.9197 -2.01648,-8.5 -0.48015,-0.5803 -1.40192,-3.9801 -2.0484,-7.5551 -0.64648,-3.575 -1.56238,-6.9677 -2.03534,-7.5394 -0.82209,-0.9936 -2.69704,-7.7233 -3.33497,-11.9701 -0.16602,-1.1052 -0.82562,-2.9881 -1.46577,-4.1842 -0.64016,-1.1962 -1.16392,-3.3294 -1.16392,-4.7406 0,-1.4111 -0.45,-2.5657 -1,-2.5657 -0.55,0 -1,0.81 -1,1.8 0,2.4168 -1.92798,4.2 -4.54103,4.2 -2.42049,0 -13.45897,-9.8491 -13.45897,-12.0087 0,-1.0219 -0.29557,-1.0957 -1.1133,-0.278 -0.69446,0.6945 -0.86799,2.7448 -0.46125,5.45 1.79408,11.9321 1.80404,13.9256 0.0791,15.8317 -2.55643,2.8248 -5.80747,0.8872 -7.36561,-4.3899 -0.69081,-2.3397 -1.11718,-4.8392 -0.94749,-5.5545 0.16969,-0.7153 -0.14978,-1.4721 -0.70994,-1.6818 -0.56016,-0.2096 -3.06501,3.5592 -5.56634,8.375 -4.10994,7.913 -4.84899,8.786 -7.67512,9.0654 -2.88981,0.2856 -3.17953,0.03 -3.81582,-3.3613 -0.73761,-3.9318 -0.60044,-4.2797 6.68109,-16.9479 2.21294,-3.85 4.88325,-9.5398 5.93403,-12.6441 1.87523,-5.5398 1.87559,-5.7153 0.0195,-9.5 -1.04004,-2.1207 -2.3213,-4.9809 -2.84724,-6.3559 -0.52595,-1.375 -2.13873,-5.0592 -3.58397,-8.1871 -1.44523,-3.1278 -2.6277,-6.0956 -2.6277,-6.595 0,-0.4993 -0.9,-1.7224 -2,-2.7179 -1.1,-0.9955 -2,-2.4152 -2,-3.155 0,-0.7397 -0.69611,-2.1325 -1.54691,-3.095 -2.14535,-2.427 -8.15834,-11.7542 -11.44299,-17.75 -6.06436,-11.07 -7.37595,-13.1451 -10.49709,-16.6084 -1.78856,-1.9846 -3.42318,-4.0259 -3.63247,-4.5361 -0.2093,-0.5103 -1.84304,-1.9546 -3.63054,-3.2097 -3.60324,-2.53 -4.56034,-7.429 -1.66821,-8.5388 4.28091,-1.6428 7.16941,-0.5804 11.75691,4.324 4.50917,4.8207 12.62827,16.5728 14.66711,21.2301 0.56314,1.2864 1.8047,3.5155 2.75904,4.9535 0.95433,1.4381 3.06847,4.8131 4.69808,7.5 1.62961,2.687 3.31711,5.0354 3.75,5.2187 0.43289,0.1834 0.78707,0.7759 0.78707,1.3168 0,0.5408 1.06093,2.4158 2.35762,4.1666 2.82631,3.8161 5.64238,9.4743 5.64238,11.3369 0,0.7405 0.38732,1.3464 0.86071,1.3464 1.17152,0 2.10733,-8.5368 2.19242,-20 0.0388,-5.225 0.53118,-12.875 1.09422,-17 1.53083,-11.2155 1.38647,-18.3404 -0.466,-23 -0.32799,-0.825 -1.04193,-3.75 -1.58654,-6.5 -0.54461,-2.75 -1.68873,-7.4606 -2.5425,-10.4679 -0.85377,-3.0074 -1.55231,-6.726 -1.55231,-8.2636 0,-1.5376 -0.44873,-3.577 -0.99718,-4.5321 -0.54845,-0.955 -1.65486,-6.2364 -2.45868,-11.7364 -0.80382,-5.5 -1.90298,-12.3626 -2.44259,-15.2502 -2.84699,-15.2353 -2.10692,-43.316 1.36103,-51.6424 2.03677,-4.8901 4.91377,-15.5453 8.97837,-33.252 0.77577,-3.3796 1.85291,-6.9796 2.39363,-8 0.54073,-1.0205 1.51729,-5.6804 2.17015,-10.3554 0.65286,-4.675 1.56266,-9.85 2.02177,-11.5 0.45912,-1.65 1.3094,-7.896 1.88951,-13.8799 0.58012,-5.984 1.52897,-11.4513 2.10856,-12.1497 0.69808,-0.8411 0.89634,-8.308 0.58734,-22.1201 -0.46825,-20.93 -0.85412,-26.5677 -2.00892,-29.3503 -0.34238,-0.825 -1.04041,-4.425 -1.55117,-8 -0.51076,-3.575 -1.68545,-9.5678 -2.61043,-13.3173 l -1.68178,-6.8173 -6.1298,0.5071 c -3.3714,0.2789 -9.19814,1.2087 -12.94832,2.0663 -3.75018,0.8575 -8.25018,1.7912 -10,2.0749 -7.67448,1.2439 -9.74056,1.7729 -10.26975,2.6291 -0.31007,0.5017 0.82043,3.002 2.51224,5.5562 1.69181,2.5541 3.07602,4.9707 3.07602,5.3702 0,0.3995 1.74299,3.5954 3.87332,7.102 2.13032,3.5066 5.55184,9.7087 7.60338,13.7825 2.05153,4.0738 4.69604,8.7131 5.87668,10.3095 1.79273,2.424 2.14662,4.2803 2.14662,11.2601 0,9.7006 -1.1716,11.491 -9.2868,14.1917 -2.59226,0.8626 -5.1632,1.9027 -5.7132,2.3112 -0.55,0.4086 -2.575,1.0708 -4.5,1.4716 -1.925,0.4008 -5.31561,1.5448 -7.53469,2.5423 -2.21908,0.9976 -5.36908,2.1143 -7,2.4817 -1.63092,0.3675 -4.87291,1.5253 -7.20441,2.5731 -2.33151,1.0478 -5.11745,1.9051 -6.19098,1.9051 -1.07354,0 -2.23,0.45 -2.56992,1 -0.33992,0.55 -1.53451,1 -2.65465,1 -1.12013,0 -3.23259,0.8516 -4.69434,1.8925 -1.46175,1.0408 -6.03122,3.0526 -10.15437,4.4706 -10.45792,3.5966 -21.12483,7.5091 -23.49664,8.6182 -1.1,0.5144 -4.025,1.448 -6.5,2.0747 -2.475,0.6268 -4.95598,1.5122 -5.5133,1.9678 -0.55731,0.4555 -3.15246,1.3668 -5.767,2.0252 -2.61453,0.6583 -5.00397,1.6019 -5.30985,2.0969 -0.4866,0.7873 -8.06613,-2.6329 -9.40985,-4.2462 -0.275,-0.3302 -1.45394,-1.1022 -2.61987,-1.7155 -1.16593,-0.6134 -3.13069,-3.6058 -4.36614,-6.6497 -1.23545,-3.044 -2.64401,-5.5345 -3.13013,-5.5345 -0.48612,0 -0.88386,-0.8303 -0.88386,-1.845 0,-1.0148 -0.9,-2.6595 -2,-3.655 -1.1,-0.9955 -2,-2.5401 -2,-3.4325 0,-0.8924 -0.7875,-2.7291 -1.75,-4.0815 -1.58946,-2.2335 -4.54829,-7.8005 -12.85759,-24.1916 -2.71707,-5.3598 -5.37426,-7.2508 -6.84486,-4.8713 -0.31377,0.5076 -2.02782,1.2429 -3.80902,1.6339 -1.78119,0.391 -5.71353,1.8437 -8.73853,3.2282 -3.025,1.3844 -6.4,2.8212 -7.5,3.1927 -1.1,0.3716 -4.025,1.6178 -6.5,2.7694 -2.475,1.1516 -6.3,2.6757 -8.5,3.3868 -2.2,0.7111 -5.19447,2.0969 -6.65437,3.0794 -1.4599,0.9826 -3.11094,1.7865 -3.66896,1.7865 -0.55803,0 -2.28856,0.684 -3.84563,1.52 -1.55707,0.8359 -3.95604,1.9599 -5.33104,2.4976 -1.375,0.5377 -3.175,1.3766 -4,1.8643 -3.78153,2.2353 -20.95463,10.1181 -22.0429,10.1181 -0.67003,0 -3.41053,1.575 -6.08998,3.5 -2.67946,1.925 -5.28624,3.5 -5.79284,3.5 -0.5066,0 -2.98445,1.575 -5.50634,3.5 -2.52188,1.925 -5.20125,3.5 -5.95415,3.5 -2.15308,0 -3.84355,-2.7007 -3.11912,-4.9832 0.67059,-2.1128 5.37236,-7.0168 6.7275,-7.0168 0.40843,0 3.56303,-1.7131 7.01022,-3.807 6.97216,-4.2349 40.1407,-20.1804 42.05026,-20.2152 0.66954,-0.012 2.34235,-0.9023 3.71735,-1.9778 1.375,-1.0755 3.10557,-1.9655 3.84571,-1.9778 0.74014,-0.012 2.54014,-0.6671 4,-1.4553 5.24863,-2.8339 14.43078,-6.5669 16.15269,-6.5669 0.96619,0 2.31691,-0.675 3.0016,-1.5 0.68469,-0.825 1.97729,-1.5017 2.87244,-1.5037 0.89516,0 3.0573,-0.8756 4.80476,-1.9411 1.74746,-1.0655 4.89746,-2.253 7,-2.6389 2.10254,-0.3858 6.0728,-1.8875 8.8228,-3.3371 2.75,-1.4495 7.025,-3.2195 9.5,-3.9333 2.475,-0.7139 6.525,-2.2043 9,-3.312 6.99681,-3.1315 8.22107,-3.6109 12.5,-4.8946 2.2,-0.6599 4.45,-1.5102 5,-1.8895 0.55,-0.3792 3.025,-1.2719 5.5,-1.9837 4.74309,-1.364 5.52618,-1.659 13.5,-5.0854 7.77277,-3.3401 44.79257,-15.1098 56.95795,-18.1086 2.17687,-0.5366 5.32687,-1.6098 7,-2.3849 3.49639,-1.6199 42.11955,-9.4872 46.57532,-9.4872 1.6317,0 2.96673,-0.3871 2.96673,-0.8602 0,-1.1771 -10.79009,-22.3299 -12.01575,-23.5556 -0.54134,-0.5413 -0.98425,-1.6192 -0.98425,-2.3954 0,-0.7762 -1.73397,-3.4987 -3.85328,-6.05 -2.1193,-2.5513 -4.0318,-5.1873 -4.25,-5.8578 -1.26769,-3.895 -21.19761,-27.2476 -23.31253,-27.3161 -0.59631,-0.019 -4.19864,-2.9148 -8.00519,-6.4345 -3.80654,-3.5197 -8.04603,-6.6818 -9.42107,-7.0269 -1.37505,-0.3451 -3.60879,-1.4996 -4.96387,-2.5655 -1.35508,-1.0659 -3.27653,-1.938 -4.2699,-1.938 -0.99337,0 -2.04609,-0.3883 -2.33938,-0.8628 -0.29329,-0.4746 -2.68235,-1.4531 -5.30902,-2.1745 -2.62667,-0.7214 -5.67576,-1.8749 -6.77576,-2.5632 -1.1,-0.6884 -3.8,-1.5685 -6,-1.9559 -2.2,-0.3874 -4.45,-1.0541 -5,-1.4816 -1.34894,-1.0484 -11.99809,-2.962 -16.48366,-2.962 -1.98899,0 -4.12337,-0.507 -4.74307,-1.1267 -1.76483,-1.7649 -23.59624,-2.5958 -61.77327,-2.3513 -34.65462,0.2219 -50.05724,0.9683 -52.00868,2.5202 -0.55478,0.4412 -3.47978,1.0405 -6.5,1.3318 -6.91619,0.6671 -12.19945,1.6967 -13.49132,2.6293 -0.55,0.397 -3.36225,0.9874 -6.24945,1.3121 -2.88719,0.3246 -6.71219,1.2557 -8.5,2.0689 -1.7878,0.8133 -5.83805,1.9915 -9.00055,2.6181 -3.1625,0.6267 -5.75,1.4761 -5.75,1.8877 0,0.4116 -2.27852,1.3688 -5.06337,2.1272 -2.78485,0.7583 -5.28641,1.7396 -5.55902,2.1807 -0.2726,0.4411 -1.3084,0.802 -2.30177,0.802 -0.99337,0 -2.95029,0.9 -4.34871,2 -1.39842,1.1 -3.19842,2 -4,2 -0.80158,0 -2.5306,0.8125 -3.84227,1.8056 -1.31167,0.9931 -4.29736,2.4151 -6.63486,3.1601 -2.3375,0.7449 -4.25,1.7324 -4.25,2.1944 0,0.4619 -0.8449,0.8399 -1.87756,0.8399 -1.03265,0 -2.46505,0.7079 -3.1831,1.5731 -0.71805,0.8652 -2.93777,2.4058 -4.93272,3.4235 -8.25988,4.2139 -35.00662,26.3662 -35.00662,28.9933 0,0.4047 3.36972,1.2793 7.48826,1.9437 8.63483,1.3929 11.48174,2.6369 17.16241,7.4994 4.2299,3.6206 8.34933,10.8869 8.34933,14.7274 0,3.3582 -2.83543,5.998 -5.12587,4.7722 -1.03077,-0.5516 -1.87413,-1.9021 -1.87413,-3.001 0,-2.6614 -4.74648,-11.9316 -6.10912,-11.9316 -0.59148,0 -2.15268,-0.8474 -3.46933,-1.8831 -1.31665,-1.0356 -4.86804,-2.1921 -7.89197,-2.5699 -3.02393,-0.3779 -5.75671,-1.1055 -6.07283,-1.617 -0.94963,-1.5365 -14.89869,-1.1018 -18.09244,0.5638 -1.57537,0.8217 -3.67416,1.4967 -4.66397,1.5 -5.34771,0.018 -12.58953,6.9289 -16.77346,16.0062 -0.63376,1.375 -1.8536,3.8248 -2.71074,5.444 -2.09958,3.9663 -2.58154,16.9632 -0.75762,20.4306 1.88062,3.5751 9.27177,10.5118 13.54148,12.709 1.925,0.9905 6.39286,2.7538 9.92858,3.9183 6.69483,2.2049 8.82608,4.0891 7.76195,6.8622 -0.69915,1.8219 -6.16674,2.2924 -7.20061,0.6196 -0.34546,-0.559 -1.01593,-0.7766 -1.48992,-0.4837 -0.47399,0.2929 -1.14446,0.075 -1.48992,-0.4837 -0.34546,-0.559 -1.61406,-1.0175 -2.8191,-1.0189 -1.20504,0 -4.76189,-1.5528 -7.9041,-3.4476 l -5.71313,-3.445 -2.88268,6.1976 c -3.5957,7.7305 -6.20086,14.9988 -7.23944,20.1976 -1.253,6.2721 -3.89341,16.5552 -5.55741,21.6438 -0.8353,2.554 -1.7217,6.379 -1.9699,8.5 -0.2482,2.1209 -0.8665,4.9812 -1.374,6.3562 -1.3881,3.7605 -2.7615,11.8797 -2.9602,17.5 -0.097,2.75 -0.6005,6.35 -1.1183,8 -1.2831,4.0887 -2.6589,21.3673 -2.9047,36.4793 -0.1116,6.8637 -0.5721,12.9387 -1.0234,13.5 -0.4512,0.5614 -1.0761,18.5707 -1.3886,40.0207 -0.5929,40.7032 -1.0074,49.3795 -2.4966,52.2664 -0.4918,0.9535 -1.4432,4.2086 -2.1142,7.2336 -0.6711,3.025 -1.8596,6.9266 -2.6412,8.6702 -0.7817,1.7436 -1.6786,4.6686 -1.9932,6.5 -0.3146,1.8314 -0.9643,4.2298 -1.4438,5.3298 -1.5006,3.4426 -2.9143,9.7748 -2.3764,10.6451 0.283,0.458 -0.155,2.3002 -0.9736,4.0938 -2.0122,4.4094 -3.6581,10.8842 -3.0264,11.9062 0.283,0.458 -0.1416,2.3002 -0.9437,4.0938 -1.6574,3.7063 -2.5994,7.4904 -3.2948,13.2369 -0.2646,2.1867 -0.8405,4.4367 -1.2797,5 -0.7625,0.9781 -1.7831,6.0231 -2.7264,13.4771 -0.2403,1.899 -0.8537,3.955 -1.3631,4.5688 -0.5094,0.6138 -1.4434,4.4601 -2.0754,8.5472 -0.632,4.0871 -1.5081,8.3311 -1.9468,9.4311 -0.8284,2.0769 -1.6477,6.1514 -2.6139,13 -0.3104,2.2 -0.9019,4.45 -1.3144,5 -0.9532,1.2708 -2.0506,6.5916 -2.6768,12.9779 -0.2684,2.7378 -0.8435,5.4378 -1.278,6 -1.0252,1.3265 -2.7399,11.6411 -2.9899,17.9851 -0.1075,2.7297 -0.5687,5.4297 -1.0248,6 -0.7344,0.9184 -2.0756,7.9929 -3.5141,18.537 -0.2627,1.925 -1.1154,7.325 -1.8951,12 -0.7796,4.675 -1.4887,12.2479 -1.5758,16.8286 -0.087,4.5807 -0.5823,9.0807 -1.1006,10 -1.9054,3.3797 -2.7664,22.5337 -2.5472,56.6714 0.2204,34.3175 1.0195,49.0412 2.7185,50.0913 0.4688,0.2897 0.8523,2.5509 0.8523,5.0249 0,4.9403 1.7753,13.3377 3.136,14.8338 0.4752,0.5225 0.8838,2.5475 0.9079,4.5 0.024,1.9525 0.7338,5.35 1.577,7.55 0.8432,2.2 2.2104,6.25 3.0382,9 2.0649,6.86 4.9649,13.0712 8.8711,19 1.8118,2.75 4.4785,7.25 5.9259,10 1.4474,2.75 5.1994,7.6132 8.3378,10.8071 6.6367,6.7541 20.6677,16.5243 25.4197,17.7006 2.9238,0.7237 12.76551,4.0578 16.78638,5.6867 2.52154,1.0215 4.2621,1.4169 10.5,2.3853 3.3,0.5122 6.675,1.2311 7.5,1.5974 2.01617,0.8953 3.68041,1.1385 16.5,2.4116 6.05,0.6008 11.36491,1.4391 11.81091,1.8628 1.18252,1.1233 75.66421,1.3093 77.04374,0.1923 z m 42.67329,-288.6101 c -0.79172,-0.954 -1.02394,-3.3126 -0.66458,-6.75 0.3038,-2.906 1.06946,-10.2118 1.70146,-16.2351 l 1.14909,-10.9513 -2.74472,-5.5487 c -3.03507,-6.1356 -14.95805,-24.6147 -16.49442,-25.5642 -0.53612,-0.3313 -0.97477,-1.3765 -0.97477,-2.3226 0,-0.9461 -1.5069,-3.282 -3.34867,-5.191 -1.84177,-1.9089 -4.15144,-5.176 -5.13261,-7.2601 -0.98117,-2.0842 -3.68573,-5.9092 -6.01013,-8.5 -2.32441,-2.5909 -4.51479,-5.6107 -4.86752,-6.7107 -0.35273,-1.1 -3.35128,-4.925 -6.66344,-8.5 -5.26187,-5.6794 -5.98774,-6.9418 -5.74987,-10 0.24182,-3.1089 0.61738,-3.5337 3.36066,-3.8013 2.81333,-0.2745 3.72631,0.4975 10.25,8.6672 3.93887,4.9327 7.16158,9.2772 7.16158,9.6544 0,0.3772 1.9125,2.8158 4.25,5.419 2.3375,2.6033 4.90217,6.0444 5.69927,7.647 0.79709,1.6025 2.41608,4.2637 3.59773,5.9137 7.55468,10.5489 13.453,19.5045 13.453,20.4261 0,0.5906 0.36714,1.0739 0.81586,1.0739 0.44872,0 1.84954,1.8392 3.11292,4.0871 2.84142,5.0556 3.99366,4.1621 4.76427,-3.6947 0.31788,-3.2408 1.03688,-6.4727 1.59779,-7.182 0.58685,-0.7421 1.27231,-11.347 1.6145,-24.978 l 0.59466,-23.6883 2.69025,-0.9441 c 1.96954,-0.6911 3.1422,-0.569 4.37726,0.456 1.52252,1.2636 1.62609,3.4499 1.06224,22.4221 -0.34362,11.562 -0.82283,22.3719 -1.06492,24.0219 -0.24208,1.65 -0.91116,6.5191 -1.48684,10.8202 -0.57568,4.3011 -1.2349,8.1261 -1.46493,8.5 -0.23003,0.3739 -0.71247,3.8967 -1.07208,7.8285 l -0.65384,7.1488 6.99154,5.3512 c 3.84534,2.9432 10.05824,7.5917 13.80643,10.33 10.1272,7.3985 11.93187,9.3162 10.66964,11.3378 -1.37631,2.2044 -5.7488,4.433 -6.18808,3.154 -0.18334,-0.5338 -0.80982,-0.9705 -1.39219,-0.9705 -0.58237,0 -3.35737,-1.9552 -6.16667,-4.345 -5.00391,-4.2566 -9.60781,-7.2325 -9.60781,-6.2104 0,0.2832 0.71063,2.291 1.57918,4.4617 1.87064,4.6752 1.58222,7.9748 -0.82918,9.4865 -2.58153,1.6182 -4.75898,-0.1344 -8.27071,-6.657 -3.69457,-6.8622 -4.7514,-7.995 -4.41822,-4.7358 0.23627,2.3111 -0.57164,8.0793 -1.71578,12.25 -0.59806,2.1801 -5.58304,2.3734 -7.31735,0.2837 z m -12.13467,-389.0306 C -840.278,2332.7794 -843,2328.824 -843,2325.9395 c 0,-3.8139 3.24396,-7.9323 7.17588,-9.1103 11.40583,-3.4173 17.94817,12.2434 7.40075,17.7154 -3.45521,1.7926 -5.32536,1.7837 -8.68336,-0.042 z m 204.37768,-70.2386 c -5.90165,-2.938 -6.78471,-12.142 -1.55931,-16.2523 4.56041,-3.5872 12.48424,-2.0967 14.45914,2.7199 1.85081,4.5139 1.91225,6.2067 0.33594,9.2549 -3.00463,5.8103 -7.34155,7.2119 -13.23577,4.2775 z M -1076.5,2863.0607 c 0,-12.4095 -0.3234,-16.6993 -1.3193,-17.5 -0.7257,-0.5834 -2.2693,-2.0732 -3.4304,-3.3107 -2.7129,-2.8916 -4.1433,-2.8372 -6.5716,0.25 -1.0816,1.375 -2.4643,2.5 -3.0726,2.5 -0.6084,0 -1.1061,0.675 -1.1061,1.5 0,0.825 -0.5625,1.5028 -1.25,1.5062 -0.6875,0 -3.6178,2.4427 -6.5117,5.4206 -2.8939,2.9779 -5.6414,5.5626 -6.1055,5.7438 -0.4641,0.1812 -3.8283,3.0772 -7.476,6.4356 -6.3167,5.8157 -6.5457,6.1843 -4.8157,7.75 0.999,0.9041 2.5135,1.6438 3.3655,1.6438 0.852,0 3.0979,0.6471 4.9908,1.438 1.8929,0.7909 4.3103,1.2987 5.3721,1.1284 1.0618,-0.1702 2.3862,0.049 2.9432,0.4875 1.4045,1.1055 7.5447,1.6644 16.9873,1.5462 l 8,-0.1001 z m -47.2003,-1.8107 c 0.4398,-0.6875 1.2643,-1.25 1.8322,-1.25 0.8466,0 18.0388,-15.2975 27.7804,-24.7188 l 2.4122,-2.333 -2.8493,-2.9741 c -1.5672,-1.6358 -3.2211,-2.9741 -3.6754,-2.9741 -0.4543,0 -3.0642,-2.25 -5.7998,-5 -2.7356,-2.75 -5.2749,-5 -5.6429,-5 -0.368,0 -2.3527,-1.6875 -4.4104,-3.75 -2.0578,-2.0625 -5.3778,-5.2634 -7.3778,-7.1131 l -3.6365,-3.3631 -5.7162,5.3239 c -17.1157,15.9412 -28.3337,27.0257 -28.0438,27.7101 0.6018,1.4211 16.5364,16.1922 17.4676,16.1922 0.5048,0 3.8018,2.9099 7.3268,6.4665 6.5845,6.6436 7.6754,6.9374 10.3329,2.7835 z m -32.6559,-9.836 c -9.6269,-9.31 -9.9024,-9.49 -11.8397,-7.7367 -1.9607,1.7744 -1.9393,1.8332 1.8562,5.1144 2.1118,1.8256 4.7397,3.7536 5.8397,4.2845 1.1,0.5308 4.475,2.5289 7.5,4.4403 3.025,1.9114 5.725,3.4649 6,3.4522 0.275,-0.013 -3.9353,-4.3123 -9.3562,-9.5547 z m -19.4725,-14.069 c 1.9656,-1.7788 2.4594,-4.345 0.8362,-4.345 -0.5459,0 -4.0334,-2.898 -7.75,-6.4401 -16.8003,-16.0112 -22.9801,-21.5599 -24.0119,-21.5599 -0.611,0 -1.4086,0.9383 -1.7726,2.085 -0.5308,1.6723 0.9893,3.8004 7.6787,10.75 11.3454,11.7868 21.1558,21.097 22.2696,21.1342 0.5067,0.017 1.7442,-0.7139 2.75,-1.6242 z m 13.7169,-13.4058 c 2.5365,-2.2334 8.2519,-7.6334 12.7009,-12 4.449,-4.3666 8.4776,-7.9392 8.9524,-7.9392 1.2221,0 7.4585,-6.1863 7.4585,-7.3986 0,-1.2773 -6.0843,-7.6014 -7.3132,-7.6014 -0.5065,0 -2.6196,-1.7504 -4.6958,-3.8899 -2.0763,-2.1394 -4.4966,-4.2937 -5.3785,-4.7872 -0.882,-0.4936 -4.8709,-4.0997 -8.8643,-8.0137 l -7.2608,-7.1162 -16.2437,15.9033 c -8.934,8.7469 -16.2114,16.241 -16.172,16.6535 0.039,0.4126 3.5269,3.8107 7.75,7.5514 4.2231,3.7406 11.2783,10.35 15.6783,14.6876 4.4,4.3376 8.1747,7.9146 8.3882,7.9488 0.2135,0.034 2.4635,-1.765 5,-3.9984 z m 86.6056,-15.0539 c 0.4002,-5.1619 1.0976,-9.8451 1.5499,-10.407 0.4523,-0.562 1.0026,-4.9293 1.223,-9.7051 l 0.4006,-8.6833 -4.0836,-3.8108 c -2.2461,-2.0959 -5.5499,-5.1289 -7.3419,-6.7399 l -3.2582,-2.9291 -3.784,3.695 c -2.0811,2.0322 -4.3275,3.6949 -4.9918,3.6949 -0.6643,0 -1.2078,0.675 -1.2078,1.5 0,0.825 -0.5109,1.5 -1.1353,1.5 -1.3349,0 -5.8647,4.6741 -5.8647,6.0515 0,0.5217 -0.4652,0.9485 -1.0337,0.9485 -1.2939,0 -6.9663,5.728 -6.9663,7.0345 0,0.531 -0.5271,0.9655 -1.1713,0.9655 -3.0461,0 -6.5474,5.9242 -3.5787,6.0551 0.6875,0.03 8.225,6.4944 16.75,14.3645 l 15.5,14.3093 4.1331,-4.2292 c 4.0855,-4.1803 4.1416,-4.3374 4.8607,-13.6144 z M -1214,2798.7082 c 0,-1.6646 -8.7544,-10.2871 -9.593,-9.4485 -0.3493,0.3492 0.2038,1.6746 1.229,2.9453 6.0408,7.487 8.364,9.2934 8.364,6.5032 z m 11,-11.2434 c 0,-0.8056 0.7171,-1.4648 1.5936,-1.4648 0.8765,0 1.829,-0.9 2.1167,-2 0.2876,-1.1 1.0403,-2 1.6726,-2 0.6324,0 6.3174,-5.1966 12.6334,-11.5479 l 11.4837,-11.5479 -3.6397,-3.2021 c -2.0018,-1.7612 -6.0289,-5.2271 -8.949,-7.7021 -2.9202,-2.475 -8.0705,-7.0875 -11.4453,-10.25 -3.3747,-3.1625 -6.6034,-5.75 -7.1748,-5.75 -1.2295,0 -31.2912,29.5662 -31.2912,30.7753 0,0.4561 3.0619,3.7308 6.8042,7.277 3.7423,3.5462 10.263,9.7283 14.4904,13.738 6.6908,6.3461 7.9465,7.151 9.6958,6.2148 1.1053,-0.5915 2.0096,-1.7346 2.0096,-2.5403 z m 93.3609,-12.7785 c 8.0515,-7.8725 14.6391,-14.7958 14.6391,-15.385 0,-0.5892 -1.0433,-1.7549 -2.3185,-2.5904 -1.2752,-0.8355 -4.9282,-4.1498 -8.1179,-7.365 -3.1896,-3.2153 -6.1038,-5.8459 -6.4758,-5.8459 -0.3721,0 -3.9127,-3.3671 -7.8681,-7.4825 l -7.1917,-7.4826 -6.264,5.9753 c -15.1129,14.4162 -25.764,25.0014 -25.764,25.6044 0,0.3587 0.7875,0.9139 1.75,1.2339 0.9625,0.3199 8.275,6.6496 16.25,14.066 7.975,7.4163 14.9999,13.507 15.6109,13.5348 0.611,0.028 7.6985,-6.3905 15.75,-14.263 z m 39.6655,-12.1863 c 0.5078,-1.1 1.0648,-4.546 1.2378,-7.6578 l 0.3145,-5.6578 -5.5394,5.0386 c -6.4331,5.8517 -6.8348,6.5345 -4.3942,7.4711 0.9963,0.3823 2.9454,2.0426 4.3312,3.6896 2.2353,2.6565 2.554,2.7757 2.8233,1.0554 0.1669,-1.0665 0.719,-2.8391 1.2268,-3.9391 z m -172.0264,-8 c 0,-0.825 0.7171,-1.5 1.5936,-1.5 0.8765,0 1.829,-0.9 2.1167,-2 0.2876,-1.1 1.1876,-2 2,-2 0.8123,0 1.7123,-0.9 2,-2 0.2876,-1.1 1.1876,-2 2,-2 0.8123,0 1.7123,-0.9 2,-2 0.2876,-1.1 1.1876,-2 2,-2 0.8123,0 1.7123,-0.9 2,-2 0.2876,-1.1 1.1876,-2 2,-2 0.8123,0 1.7123,-0.9 2,-2 0.2876,-1.1 1.1455,-2 1.9063,-2 0.7609,0 1.3834,-0.675 1.3834,-1.5 0,-0.825 0.5966,-1.5 1.3257,-1.5 0.7291,0 2.3889,-1.1317 3.6883,-2.5149 l 2.3627,-2.515 -3.9383,-4.1043 c -2.1661,-2.2573 -5.2393,-4.9167 -6.8292,-5.9098 -1.59,-0.993 -7.7816,-6.3755 -13.7591,-11.9611 -5.9775,-5.5855 -11.2476,-10.0069 -11.7114,-9.8252 -0.4638,0.1817 -5.4733,4.6835 -11.1322,10.004 l -10.2889,9.6737 8.8144,17.7455 c 6.1911,12.4641 9.9893,18.8857 12.7618,21.5763 4.2367,4.1116 5.7062,4.7118 5.7062,2.3308 z m 97.3765,-22.5 c 1.0859,0 9.6235,-8.6388 9.6235,-9.7376 0,-0.4576 -5.7375,-6.0971 -12.75,-12.5324 -7.0125,-6.4352 -13.6974,-12.607 -14.8552,-13.7152 -1.1579,-1.1081 -2.4583,-2.0148 -2.8898,-2.0148 -0.4315,0 -3.3091,2.4215 -6.3948,5.3812 -3.0856,2.9596 -9.7727,9.3411 -14.8602,14.181 -5.0875,4.8398 -9.25,9.5681 -9.25,10.5072 0,0.9392 6.6375,7.7948 14.75,15.2348 l 14.75,13.5272 10.5163,-10.4157 c 5.784,-5.7286 10.8961,-10.4157 11.3602,-10.4157 z m 69.6235,9.487 c 9.7652,-9.2929 10.0421,-9.7201 11.0909,-17.113 1.0232,-7.2125 0.013,-11.374 -2.7599,-11.374 -0.732,0 -1.331,-0.418 -1.331,-0.9288 0,-1.2303 -6.4814,-8.0712 -7.647,-8.0712 -0.5009,0 -3.7644,-2.8792 -7.2522,-6.3983 l -6.3414,-6.3982 -15.6097,15.502 -15.6097,15.5021 2.73,2.3482 c 1.5015,1.2916 2.73,2.7895 2.73,3.3288 0,0.5394 0.9,1.2663 2,1.6154 1.1,0.3491 2,1.2795 2,2.0674 0,0.7879 0.4522,1.4326 1.0049,1.4326 0.5527,0 5.798,4.4849 11.6562,9.9664 l 10.6513,9.9665 3.5938,-3.106 c 1.9766,-1.7083 6.0688,-5.4612 9.0938,-8.3399 z m -113.4367,-39.2029 15.8528,-15.2159 -7.958,-7.7928 c -14.9405,-14.6302 -26.6575,-25.2754 -27.8202,-25.2754 -0.6387,0 -8.2132,7.0875 -16.8321,15.75 l -15.6707,15.75 13.9679,12.5 c 7.6823,6.875 15.6235,14.1928 17.6469,16.2618 2.0235,2.069 3.9675,3.644 4.3199,3.5 0.3524,-0.144 7.7745,-7.109 16.4935,-15.4777 z m 65.7832,8.2159 c 2.3379,-2.475 4.5915,-4.5 5.0078,-4.5 1.0223,0 20.6457,-19.8959 20.6457,-20.9324 0,-1.1752 -28.5665,-28.0676 -29.8148,-28.0676 -0.5722,0 -5.0826,4.05 -10.0232,9 -4.9406,4.95 -9.2677,9 -9.6158,9 -1.2797,0 -11.5897,10.5238 -11.3225,11.5573 0.152,0.5877 5.0013,5.4106 10.7763,10.7177 5.775,5.307 12.2965,11.4662 14.4922,13.6871 2.1956,2.2208 4.3547,4.0379 4.7978,4.0379 0.4431,0 2.7185,-2.025 5.0565,-4.5 z m 63.1787,-9.75 c 0.3855,-2.3375 1.0536,-4.7 1.4847,-5.25 0.431,-0.55 1.0447,-3.6099 1.3636,-6.7998 0.3189,-3.1898 1.2126,-7.2398 1.9859,-9 0.7734,-1.7601 1.9485,-7.0252 2.6114,-11.7002 0.6629,-4.675 1.6866,-9.0816 2.2749,-9.7924 0.6766,-0.8175 0.72,-1.6419 0.1182,-2.2437 -0.6019,-0.6019 -2.7586,0.8834 -5.8701,4.0424 -2.7052,2.7465 -5.3771,4.9937 -5.9374,4.9937 -1.4468,0 -19.5564,18.2106 -19.5564,19.6655 0,0.6628 2.7479,3.8216 6.1064,7.0198 3.3585,3.1981 7.746,7.4943 9.75,9.5472 2.004,2.0528 3.9415,3.7403 4.3057,3.75 0.3642,0.01 0.9775,-1.895 1.3631,-4.2325 z m -203.9684,-6.1537 8.9432,-8.4037 -3.9529,-4.0963 c -2.1742,-2.253 -4.3593,-4.0963 -4.856,-4.0963 -0.4966,0 -5.0536,-3.81 -10.1266,-8.4667 l -9.2236,-8.4667 -3.5839,3.7167 c -4.0815,4.2327 -4.3103,7.4265 -0.8476,11.8287 1.1498,1.4617 2.0906,3.4419 2.0906,4.4004 0,0.9585 0.675,2.3029 1.5,2.9876 0.825,0.6847 1.5,1.8321 1.5,2.5498 0,0.7177 1.5051,4.1925 3.3447,7.7218 4.2461,8.1462 4.6144,8.7284 5.5212,8.7284 0.4113,0 4.7722,-3.7817 9.6909,-8.4037 z m 703.56115,-15.2284 c -1.08454,-1.9362 -4.57524,-13.8816 -6.09808,-20.8679 -0.47955,-2.2 -1.57742,-5.35 -2.43972,-7 -0.86231,-1.65 -1.5706,-4.1684 -1.57399,-5.5964 -0.003,-1.428 -0.7072,-4.0016 -1.56403,-5.7191 -0.85683,-1.7176 -1.82796,-4.8242 -2.15808,-6.9037 -0.33011,-2.0794 -1.42907,-5.7306 -2.44213,-8.1137 -1.01306,-2.3831 -1.84192,-5.4206 -1.84192,-6.75 0,-1.3294 -0.3792,-2.4171 -0.84266,-2.4171 -1.07466,0 -2.28746,34.0693 -1.4652,41.1595 0.58622,5.0548 1.12775,5.8909 10.12381,15.6303 5.79953,6.2787 9.86382,9.9304 10.42635,9.3679 0.56254,-0.5625 0.51407,-1.65 -0.12435,-2.7898 z m -671.61395,-16.372 c 16.8727,-16.8974 17.2733,-17.5889 11.8978,-20.54 -1.046,-0.5742 -5.2768,-4.3064 -9.4018,-8.2937 -12.6149,-12.1938 -13.4355,-12.8628 -15.25,-12.4315 -0.9625,0.2288 -1.75,1.058 -1.75,1.8426 0,0.7847 -0.4875,1.4267 -1.0834,1.4267 -1.3356,0 -7.9166,6.6655 -7.9166,8.0182 0,0.54 -0.4455,0.9818 -0.99,0.9818 -0.5445,0 -5.3157,4.3752 -10.6026,9.7226 l -9.6127,9.7227 8.3527,7.5222 c 4.5939,4.1372 10.8276,9.8779 13.8526,12.7572 3.025,2.8792 5.7303,5.2441 6.0117,5.2551 0.2815,0.011 7.703,-7.1816 16.4923,-15.9839 z m 82.3859,1.1933 c 13.5776,-12.9098 14.9325,-14.5007 13.84,-16.25 -0.666,-1.0666 -1.7777,-1.9392 -2.4704,-1.9392 -0.6927,0 -1.2595,-0.6861 -1.2595,-1.5248 0,-0.8386 -1.0125,-1.92 -2.25,-2.4031 -1.2375,-0.4831 -3.825,-2.5373 -5.75,-4.565 -1.925,-2.0277 -7.9367,-7.7911 -13.3593,-12.8077 -8.3363,-7.712 -10.0355,-8.8857 -11,-7.5982 -0.6274,0.8375 -1.9282,1.8182 -2.8907,2.1794 -0.9625,0.3611 -1.75,1.3458 -1.75,2.188 0,0.8423 -0.675,1.5314 -1.5,1.5314 -0.825,0 -1.5,0.4154 -1.5,0.9231 0,1.2009 -5.876,7.0769 -7.0769,7.0769 -0.5077,0 -0.9231,0.4154 -0.9231,0.9231 0,1.2009 -5.876,7.0769 -7.0769,7.0769 -0.5077,0 -0.9231,0.4977 -0.9231,1.1061 0,0.6083 -1.125,1.991 -2.5,3.0726 -1.375,1.0815 -2.5,2.4183 -2.5,2.9706 0,1.426 13.2565,14.823 14.6826,14.8382 0.6504,0.01 1.461,0.8895 1.8012,1.9613 0.3402,1.0719 1.4955,2.2272 2.5674,2.5674 1.0718,0.3402 1.9488,1.2329 1.9488,1.9838 0,0.7509 0.9,1.6509 2,2 1.1,0.3491 2,1.2491 2,2 0,0.7509 0.8288,1.6283 1.8418,1.9498 1.013,0.3215 2.9057,1.717 4.206,3.1011 1.3002,1.384 2.9102,2.3888 3.5776,2.2328 0.6674,-0.1561 7.9864,-6.7236 16.2645,-14.5945 z m 76.2039,-1.5278 15.3701,-14.8386 -4.482,-4.0851 c -2.465,-2.2469 -9.2823,-8.732 -15.1494,-14.4114 -5.8671,-5.6795 -10.9795,-10.3263 -11.3608,-10.3263 -0.3813,0 -5.9806,5.2875 -12.4428,11.75 -6.4622,6.4625 -13.4611,13.2394 -15.5531,15.0598 l -3.8036,3.3097 6.8871,6.9403 c 3.7879,3.8171 7.3491,6.9716 7.9139,7.0099 0.5647,0.038 4.1768,3.394 8.0268,7.457 3.85,4.063 7.5003,7.2942 8.1119,7.1803 0.6115,-0.1138 8.0284,-6.8844 16.4819,-15.0456 z m -218.218,-9.8934 c -0.5143,-0.961 -2.2388,-2.4215 -3.8321,-3.2454 l -2.8971,-1.4981 0.8084,2.7377 c 0.4446,1.5058 1.3723,3.9501 2.0617,5.4318 l 1.2533,2.6941 1.7705,-2.1864 c 1.2651,-1.5623 1.5035,-2.6852 0.8353,-3.9337 z m 24.7812,-22.1414 16.3734,-16.3735 -8.2439,-7.8765 c -4.5342,-4.3321 -11.9815,-11.4591 -16.5497,-15.8376 l -8.3057,-7.961 -13.6803,13.6803 -13.6804,13.6803 1.1438,3.7807 c 3.7303,12.3308 4.8041,14.0915 13.3749,21.9325 4.626,4.2321 9.0859,8.5108 9.9109,9.5082 0.825,0.9974 1.9013,1.8195 2.3918,1.8268 0.4905,0.01 8.2598,-7.3548 17.2652,-16.3602 z m 150.4236,2.3734 c 0.5057,0 0.9194,-0.675 0.9194,-1.5 0,-0.825 0.7171,-1.5 1.5936,-1.5 0.8765,0 1.829,-0.9 2.1167,-2 0.2876,-1.1 1.1876,-2 2,-2 0.8123,0 1.7014,-0.8584 1.9758,-1.9075 0.2743,-1.0492 1.3572,-2.1321 2.4064,-2.4064 1.0491,-0.2744 1.9075,-1.216 1.9075,-2.0925 0,-0.8765 0.675,-1.5936 1.5,-1.5936 0.825,0 1.5,-0.6225 1.5,-1.3834 0,-0.7608 0.9,-1.6187 2,-1.9063 2.955,-0.7728 2.4384,-3.3617 -1.3955,-6.9936 -1.8675,-1.7692 -8.1276,-7.8292 -13.9112,-13.4667 -5.7836,-5.6375 -10.8717,-10.25 -11.3069,-10.25 -0.4351,0 -2.1626,-1.3203 -3.8388,-2.9341 l -3.0476,-2.9341 -14.7279,14.4341 c -8.1004,7.9388 -15.1879,14.4341 -15.75,14.4341 -0.5622,0 -1.0221,0.4904 -1.0221,1.0898 0,1.304 5.1372,6.9102 6.3321,6.9102 0.7818,0 13.9129,12.4659 24.4258,23.1883 l 4.5966,4.6884 5.4034,-4.9384 c 2.9718,-2.7161 5.817,-4.9383 6.3227,-4.9383 z m 68.8158,4.4652 c 1.707,-1.9441 3.1036,-4.6176 3.1036,-5.941 0,-1.3234 0.4303,-2.6721 0.9563,-2.9972 0.526,-0.3251 0.7203,-1.2061 0.4319,-1.9579 -0.2885,-0.7517 -0.044,-1.6639 0.5436,-2.027 0.5875,-0.3631 1.0682,-2.223 1.0682,-4.1332 0,-1.9102 0.6809,-5.1028 1.5131,-7.0946 0.8322,-1.9917 1.2862,-3.8484 1.0087,-4.1258 -0.2774,-0.2775 -0.1139,-0.9959 0.3635,-1.5965 0.4773,-0.6006 1.1705,-3.5972 1.5404,-6.6592 l 0.6725,-5.5672 -5.2991,-4.7496 c -2.9145,-2.6123 -6.3153,-5.7265 -7.5573,-6.9205 l -2.2582,-2.1709 -15.2299,15.2299 -15.2298,15.2298 9.4683,9.5079 c 5.2076,5.2293 9.9761,9.5078 10.5967,9.5078 0.6206,0 3.1045,2.2042 5.5198,4.8983 2.4152,2.694 4.6822,4.944 5.0377,5 0.3555,0.056 2.043,-1.489 3.75,-3.4331 z m -145.2357,-12.8718 c 7.8866,-7.9236 14.3393,-14.8325 14.3393,-15.353 0,-1.2752 -18.6326,-19.2404 -19.9551,-19.2404 -0.5747,0 -1.0449,-0.675 -1.0449,-1.5 0,-0.825 -0.675,-1.5 -1.5,-1.5 -0.825,0 -1.5,-0.6199 -1.5,-1.3776 0,-0.7576 -0.723,-1.9776 -1.6067,-2.711 -1.4068,-1.1675 -3.2118,0.3035 -14.5,11.8163 -7.0913,7.2324 -12.8933,13.6274 -12.8933,14.2111 0,0.5837 -0.4821,1.0612 -1.0714,1.0612 -0.5893,0 -1.7177,0.6463 -2.5077,1.4362 -1.1525,1.1525 -1.2054,1.9426 -0.268,4 0.6425,1.4101 1.5863,2.5638 2.0974,2.5638 0.5111,0 5.9247,4.725 12.0302,10.5 6.1056,5.775 11.7625,10.5 12.5709,10.5 0.8085,0 7.9227,-6.483 15.8093,-14.4066 z m -20.8788,-48.5616 c 0.155,-0.3976 -6.9821,-7.6036 -15.8602,-16.0133 l -16.1421,-15.2902 -15.6398,15.6644 -15.6398,15.6643 7,6.6407 c 3.85,3.6525 10.825,10.317 15.5,14.81 4.675,4.4931 9.175,8.3974 10,8.6761 0.9778,0.3304 6.5476,-4.7037 16,-14.461 7.975,-8.2324 14.6268,-15.2933 14.7819,-15.691 z m 139.8906,14.7628 c 7.8801,-7.8129 14.3275,-14.7879 14.3275,-15.5 0,-0.712 -0.7875,-1.9469 -1.75,-2.7441 -2.5266,-2.0928 -20.5918,-19.1361 -26.8175,-25.3005 -2.9162,-2.8875 -5.7403,-5.25 -6.2758,-5.25 -0.5354,0 -7.635,6.4497 -15.7768,14.3327 l -14.8033,14.3328 12.937,12.4172 c 7.1153,6.8295 14.9731,14.5443 17.4617,17.1441 2.4886,2.5997 4.9398,4.7372 5.4472,4.75 0.5074,0.013 7.3699,-6.3692 15.25,-14.1822 z m -91.3001,6.23 c 19.4191,-18.8427 25.6276,-25.1242 25.6276,-25.9287 0,-0.5049 -1.4625,-2.1336 -3.25,-3.6192 -1.7875,-1.4857 -8.0884,-7.4129 -14.002,-13.1716 -5.9137,-5.7587 -11.0887,-10.3207 -11.5,-10.1378 -0.4114,0.183 -7.561,7.3077 -15.8881,15.8327 l -15.1401,15.5 4.1401,3.8838 c 2.2771,2.136 8.539,8.0985 13.9155,13.25 5.3765,5.1514 10.044,9.3662 10.3724,9.3662 0.3284,0 2.9045,-2.2389 5.7246,-4.9754 z m -130.1959,-24.8091 c -2.3779,-2.0435 -7.1097,-6.4155 -10.5151,-9.7155 -3.4053,-3.3 -9.4902,-9.15 -13.5218,-13 l -7.3303,-7 0.5477,6.5 c 0.3012,3.575 1.2387,8.4031 2.0833,10.7292 0.8445,2.326 1.7228,5.7389 1.9516,7.5841 0.2289,1.8452 1.1307,5.4594 2.004,8.0317 0.8733,2.5723 1.7733,6.1723 2,8 0.2267,1.8277 1.1303,5.4386 2.0081,8.024 0.8778,2.5855 1.596,5.4703 1.596,6.4106 0,1.0417 4.5913,-2.8929 11.75,-10.0695 l 11.75,-11.7792 z m 263.3983,9.0345 c 0.8809,-2.0625 2.2426,-6.225 3.0261,-9.25 0.7834,-3.025 1.8312,-6.4 2.3283,-7.5 1.5476,-3.4243 1.9313,-6.5 0.8111,-6.5 -1.1498,0 -17.7403,16.3628 -17.7403,17.4969 0,0.5704 9.0271,9.3443 9.7366,9.4634 0.1301,0.022 0.9573,-1.6478 1.8382,-3.7103 z m -236.5627,-27.7869 15.4879,-15.5369 -7.9642,-7.4631 c -4.3802,-4.1047 -8.3177,-7.4631 -8.75,-7.4631 -0.4322,0 -0.7858,-0.4154 -0.7858,-0.9231 0,-1.0808 -5.8197,-7.0769 -6.8687,-7.0769 -0.3932,0 -2.7023,-2.025 -5.1313,-4.5 -2.429,-2.475 -4.7744,-4.5 -5.2119,-4.5 -1.2559,0 -30.7878,29.1429 -30.7909,30.3853 0,1.1046 20.8591,21.6147 21.9853,21.6147 0.3222,0 3.0301,2.475 6.0175,5.5 2.9874,3.025 5.6775,5.5 5.9779,5.5 0.3005,0 7.5159,-6.9916 16.0342,-15.5369 z m 75.152,2.8363 c 7.0597,-6.9853 12.8359,-13.2527 12.8359,-13.9274 0,-0.6748 1.125,-2.1118 2.5,-3.1933 1.375,-1.0816 2.5,-2.1582 2.5,-2.3925 0,-0.707 -5.6321,-6.7862 -6.2871,-6.7862 -0.3348,0 -4.5876,-4.0285 -9.4508,-8.9522 -4.8631,-4.9237 -10.5856,-10.1353 -12.7166,-11.5815 l -3.8745,-2.6293 -15.5167,15.5167 -15.5167,15.5167 7.0229,7.0648 c 3.8626,3.8856 7.4317,7.083 7.9312,7.1054 0.4996,0.022 4.5083,3.7972 8.9083,8.3888 4.4,4.5915 8.1863,8.3982 8.4141,8.4594 0.2277,0.061 6.1902,-5.6041 13.25,-12.5894 z m 157.132,-2.1295 c 12.8919,-13.0106 13.7039,-14.0609 13.7039,-17.7246 0,-3.1577 -0.6379,-4.4668 -3.3716,-6.9199 -1.8544,-1.664 -8.9951,-8.3129 -15.8682,-14.7754 -6.8732,-6.4625 -12.8883,-11.75 -13.367,-11.75 -0.4788,0 -7.9252,7.0444 -16.5477,15.6543 l -15.6773,15.6543 2.104,2.8457 c 1.1571,1.5651 2.6943,2.8457 3.4159,2.8457 0.7215,0 1.3119,0.675 1.3119,1.5 0,0.825 0.4906,1.5 1.0902,1.5 0.5996,0 6.9831,5.625 14.1854,12.5 7.2024,6.875 13.5951,12.5 14.206,12.5 0.6108,0 7.2774,-6.2236 14.8145,-13.8301 z m -82.8943,-2.6699 c 6.9,-6.875 12.9818,-12.5 13.5151,-12.5 0.5333,0 1.6712,-1.0015 2.5286,-2.2257 1.5054,-2.1492 1.2937,-2.4924 -6.1698,-10 -4.2508,-4.2758 -8.1431,-7.7743 -8.6495,-7.7743 -0.5064,0 -3.5957,-2.7 -6.8651,-6 -3.2694,-3.3 -6.235,-6 -6.5902,-6 -1.1543,0 -29.1709,28.4394 -29.1709,29.6111 0,1.3978 17.4865,18.6376 19.8184,19.5388 0.9249,0.3574 3.2324,2.2699 5.1278,4.25 1.8954,1.98 3.5505,3.6001 3.6781,3.6001 0.1276,0 5.8775,-5.625 12.7775,-12.5 z m -111.0875,-36.314 15.7908,-15.814 -5.3025,-4.856 c -2.9165,-2.6708 -10.3202,-9.7295 -16.4529,-15.686 -6.1326,-5.9565 -11.4027,-10.83 -11.7113,-10.83 -0.3086,0 -2.3432,1.8 -4.5213,4 -2.1782,2.2 -4.3257,4 -4.7724,4 -1.323,0 -22.3447,21.3545 -22.3447,22.6985 0,1.0906 5.3585,7.3015 6.2994,7.3015 0.2017,0 6.1794,5.6225 13.2837,12.4945 7.1043,6.872 13.1472,12.497 13.4286,12.5 0.2815,0 7.6176,-7.1108 16.3026,-15.8085 z m -80.251,-0.7177 15.6417,-15.5317 -16.2225,-15.4683 c -8.9223,-8.5076 -16.6427,-15.4683 -17.1563,-15.4683 -0.5136,0 -2.4398,1.5537 -4.2804,3.4527 l -3.3465,3.4527 0.7245,10.7973 c 0.3984,5.9385 0.958,14.3973 1.2435,18.7973 0.2855,4.4 0.8659,8.45 1.2896,9 0.4238,0.55 1.0718,3.6811 1.44,6.9579 0.5785,5.1486 2.6362,9.5421 4.4689,9.5421 0.3057,0 7.5946,-6.9893 16.1975,-15.5317 z M -1139,2499.9651 c 0,-0.4073 -3.667,-4.2786 -8.149,-8.6028 -4.4819,-4.3243 -11.2193,-10.9659 -14.972,-14.7592 l -6.8232,-6.897 -15.2779,14.8182 -15.2779,14.8182 11.5,11.1663 c 6.325,6.1415 13.4002,12.958 15.7227,15.1479 l 4.2226,3.9816 14.5274,-14.4663 c 7.99,-7.9564 14.5273,-14.7995 14.5273,-15.2069 z m 61.4554,12.0796 c 14.7701,-14.7948 14.9153,-14.9836 13.5239,-17.5834 -0.7736,-1.4455 -3.1491,-4.0531 -5.2789,-5.7947 -2.1299,-1.7416 -7.9444,-7.1041 -12.9212,-11.9166 -4.9769,-4.8125 -9.6198,-8.75 -10.3177,-8.75 -0.6978,0 -8.0895,7.0618 -16.426,15.693 l -15.1571,15.693 14.3108,13.7556 c 7.8709,7.5656 14.9914,13.7787 15.8233,13.807 0.8319,0.028 8.2312,-6.6785 16.4429,-14.9039 z m 52.8621,2.7053 c -0.2724,-1.2375 -0.7518,-2.925 -1.0652,-3.75 -0.3134,-0.825 -0.4826,-1.8849 -0.376,-2.3553 0.1066,-0.4704 -0.2285,-1.3704 -0.7448,-2 -0.5163,-0.6296 -1.237,-3.8447 -1.6014,-7.1447 -0.3645,-3.3 -1.0479,-6.9 -1.5186,-8 -0.4708,-1.1 -1.1119,-3.125 -1.4249,-4.5 -1.2358,-5.4302 -1.9734,-5.2683 -9.2783,2.0365 l -7.0594,7.0595 7.0182,6.202 c 3.86,3.4111 8.9672,8.1145 11.3492,10.452 2.3821,2.3375 4.5258,4.25 4.7638,4.25 0.2379,0 0.2098,-1.0125 -0.063,-2.25 z m -234.0536,-58.2478 c -2.4488,-2.2012 -8.4119,-7.8272 -13.2514,-12.5022 -14.7564,-14.2548 -19.0125,-17.0397 -19.0125,-12.441 0,0.7926 -0.675,1.441 -1.5,1.441 -0.825,0 -1.5208,0.5625 -1.5463,1.25 -0.025,0.6875 -1.8046,2.6 -3.9537,4.25 -2.1491,1.65 -3.9282,3.5625 -3.9537,4.25 -0.025,0.6875 -0.4431,1.25 -0.928,1.25 -1.3966,0 -17.1183,15.1289 -17.1183,16.4728 0,0.6656 3.0375,4.0447 6.75,7.5091 3.7125,3.4644 10.1304,9.6108 14.2619,13.6585 4.1316,4.0478 8.014,7.3596 8.6276,7.3596 0.6136,0 1.6714,0.6697 2.3508,1.4883 1.0479,1.2626 3.6987,-0.898 17.4806,-14.2478 l 16.2454,-15.7362 z M -1204,2489.5 c 1.2917,-1.375 2.6803,-2.5 3.0857,-2.5 0.7554,0 20.2778,-19.0795 22.8326,-22.3146 1.2865,-1.6289 0.7775,-2.4418 -5.4732,-8.7407 -3.7903,-3.8196 -7.3812,-6.9447 -7.9798,-6.9447 -0.5986,0 -4.8058,-3.825 -9.3493,-8.5 -4.5436,-4.675 -8.717,-8.5 -9.2743,-8.5 -1.0183,0 -6.9206,5.4675 -22.3943,20.7444 l -8.3506,8.2444 10.0452,9.7556 c 5.5248,5.3656 10.7905,10.0384 11.7016,10.384 0.911,0.3456 3.6814,2.8873 6.1564,5.6482 2.475,2.761 4.9841,5.0657 5.5757,5.1217 0.5916,0.056 2.1326,-1.0233 3.4243,-2.3983 z m 75.2106,0.8391 c 0.7092,-0.9135 7.5391,-8.083 15.1775,-15.9322 l 13.8881,-14.2712 -8.7612,-8.3179 c -4.8186,-4.5748 -9.2659,-8.5045 -9.8829,-8.7328 -0.617,-0.2282 -3.4286,-2.8157 -6.248,-5.75 -2.8193,-2.9342 -5.5165,-5.335 -5.9937,-5.335 -0.4772,0 -7.9096,7.0316 -16.5164,15.6258 l -15.6487,15.6258 5.8197,5.8742 c 3.2009,3.2308 6.1976,5.8742 6.6594,5.8742 0.4619,0 4.6449,3.825 9.2956,8.5 4.6507,4.675 9.0105,8.5 9.6885,8.5 0.678,0 1.8129,-0.7474 2.5221,-1.6609 z m 83.7188,-10.0891 9.1442,-8.75 -1.5647,-2.9182 c -0.8607,-1.605 -2.0672,-4.98 -2.6812,-7.5 -0.614,-2.52 -1.4681,-5.0378 -1.898,-5.5951 -0.4299,-0.5573 -1.3389,-3.2573 -2.0199,-6 -0.681,-2.7427 -1.919,-6.1117 -2.751,-7.4867 -1.9635,-3.2448 -9.3228,-11 -10.4384,-11 -1.2155,0 -3.7204,2.6451 -3.7204,3.9286 0,0.5893 -0.675,1.0714 -1.5,1.0714 -0.825,0 -1.5,0.5705 -1.5,1.2679 0,0.6973 -4.725,5.9768 -10.5,11.7321 -5.775,5.7553 -10.5,11.0445 -10.5,11.7536 0,0.7091 1.125,1.8019 2.5,2.4284 1.375,0.6264 2.5,1.7418 2.5,2.4785 0,0.7367 0.6447,1.3395 1.4326,1.3395 0.7879,0 1.711,0.877 2.0512,1.9488 0.3402,1.0719 1.4955,2.2272 2.5674,2.5674 1.0718,0.3402 1.9488,1.2329 1.9488,1.9838 0,0.7509 0.7987,1.6187 1.7749,1.9285 0.9761,0.3099 4.6756,3.4902 8.2211,7.0674 3.5454,3.5773 6.7484,6.5041 7.1177,6.5041 0.3693,0 4.7864,-3.9375 9.8157,-8.75 z M -1335,2461 c 0,-0.55 -0.45,-1 -1,-1 -0.55,0 -1,0.45 -1,1 0,0.55 0.45,1 1,1 0.55,0 1,-0.45 1,-1 z m 181.6195,-20.6364 15.5047,-15.6365 -8.3121,-7.9156 c -4.5717,-4.3536 -12.1449,-11.4454 -16.8295,-15.7595 l -8.5175,-7.8438 -15.9825,15.494 -15.9826,15.4941 16.5,15.8636 c 9.075,8.725 16.8633,15.8808 17.3074,15.9019 0.4441,0.021 7.7845,-6.9982 16.3121,-15.5982 z m -157.3495,-2.736 15.77,-15.3587 -4.27,-3.7799 c -2.3485,-2.0789 -9.2876,-8.6644 -15.4203,-14.6344 -6.1326,-5.97 -11.7855,-10.8546 -12.5619,-10.8546 -2.0832,0 -5.821,5.554 -6.2376,9.2686 -0.1993,1.7773 -0.6961,6.2834 -1.1039,10.0136 -0.4078,3.7302 -1.1251,7.0193 -1.5939,7.309 -0.4688,0.2898 -0.8524,6.1101 -0.8524,12.934 v 12.4072 l 3.7089,4.0338 c 2.0398,2.2186 4.4023,4.0307 5.25,4.0269 0.8476,0 8.6376,-6.9183 17.3111,-15.3655 z m 73.23,6.3724 c 4.9271,-4.95 9.5302,-9 10.2292,-9 0.6989,0 1.2708,-0.675 1.2708,-1.5 0,-0.825 0.7171,-1.5 1.5936,-1.5 0.8765,0 1.829,-0.9 2.1167,-2 0.2876,-1.1 1.1596,-2 1.9377,-2 0.7781,0 1.6979,-0.7377 2.0439,-1.6394 0.4597,-1.1981 -3.7671,-5.9148 -15.7053,-17.5254 -8.9839,-8.7373 -16.6892,-15.762 -17.123,-15.6106 -0.4338,0.1515 -7.292,6.7266 -15.2405,14.6115 l -14.4518,14.3361 11.0513,10.6639 c 6.0782,5.8651 13.1272,12.7789 15.6644,15.3639 2.5371,2.585 5.2974,4.7225 6.1338,4.75 0.8365,0.028 5.5521,-4 10.4792,-8.95 z m 158.8156,-4.9205 c 7.5264,-7.6563 13.6844,-14.3413 13.6844,-14.8555 0,-1.146 -28.4601,-28.224 -29.6645,-28.224 -0.4738,0 -7.3023,6.4524 -15.1745,14.3387 l -14.3132,14.3388 15.2953,14.1612 c 8.4125,7.7887 15.5638,14.1613 15.8918,14.1613 0.328,0 6.7543,-6.2642 14.2807,-13.9205 z m -36.6594,-36.9753 c 7.3391,-7.3677 13.3438,-13.7547 13.3438,-14.1935 0,-0.4387 -1.35,-1.5951 -3,-2.5698 -1.65,-0.9747 -3,-2.3501 -3,-3.0565 0,-0.7064 -0.675,-1.2844 -1.5,-1.2844 -0.825,0 -1.5,-0.6861 -1.5,-1.5248 0,-0.8386 -1.0125,-1.9248 -2.25,-2.4138 -1.2375,-0.4889 -5.4,-4.1113 -9.25,-8.0497 -3.85,-3.9383 -8.2393,-8.059 -9.754,-9.1571 l -2.7539,-1.9964 -14.4916,13.8209 c -7.9703,7.6015 -14.4935,14.3434 -14.496,14.982 0,0.6386 1.458,2.358 3.2455,3.8209 1.7875,1.4629 6.7326,6.0029 10.989,10.0889 4.2565,4.086 8.1637,7.4291 8.6826,7.4291 0.519,0 1.2293,0.9 1.5784,2 0.3491,1.1 1.167,2.0041 1.8174,2.0091 0.6504,0 2.252,1.3628 3.5591,3.0175 2.8495,3.6072 1.1485,4.7777 18.7797,-12.9224 z m -91.9701,12.9883 c 0.2743,-1.0492 1.3572,-2.1321 2.4064,-2.4064 1.0491,-0.2744 1.9075,-1.216 1.9075,-2.0925 0,-0.8765 0.7171,-1.5936 1.5936,-1.5936 0.8765,0 1.829,-0.9 2.1167,-2 0.2876,-1.1 1.033,-2.0227 1.6563,-2.0504 0.6234,-0.028 5.1834,-4.078 10.1334,-9.0006 l 9,-8.95 -7.5,-7.0386 c -4.125,-3.8712 -11.383,-10.7153 -16.1288,-15.2091 -4.7458,-4.4938 -9.0483,-8.3103 -9.561,-8.4812 -0.5127,-0.1709 -7.8512,6.3551 -16.3078,14.5022 -11.5046,11.0838 -15.2123,15.2384 -14.7271,16.5027 0.3566,0.9293 2.4485,2.9351 4.6486,4.4573 2.2001,1.5222 4.0173,3.2488 4.0381,3.8368 0.021,0.5881 2.3647,3.0631 5.2085,5.5 2.8437,2.437 7.9062,7.0099 11.25,10.162 6.317,5.9549 9.4135,7.1197 10.2656,3.8614 z m -65.2988,-14.7002 14.759,-14.6077 -2.2475,-2.3923 c -1.2361,-1.3158 -2.6589,-2.3923 -3.1619,-2.3923 -0.503,0 -6.5737,-5.3857 -13.4906,-11.9682 l -12.5762,-11.9683 -13.2232,12.4683 c -7.2728,6.8575 -13.6154,12.4682 -14.0946,12.4682 -0.4791,0 -1.4226,0.883 -2.0966,1.9622 -1.104,1.7677 -0.2334,2.9247 8.7866,11.6774 5.5067,5.3434 11.2373,10.4784 12.7349,11.4111 1.4975,0.9327 4.0445,3.1029 5.6599,4.8226 1.6154,1.7197 3.2193,3.1267 3.5642,3.1267 0.3449,0 7.2686,-6.5735 15.386,-14.6077 z m 208.789,7.8577 c -0.9493,-2.0625 -2.8674,-5.55 -4.2626,-7.75 -1.3951,-2.2 -3.1125,-5.43 -3.8165,-7.1777 -0.704,-1.7477 -2.1388,-3.955 -3.1886,-4.905 -1.0497,-0.95 -1.9086,-2.1846 -1.9086,-2.7435 0,-0.559 -0.7559,-1.8516 -1.6798,-2.8725 -1.6214,-1.7916 -1.8129,-1.7261 -5.511,1.8851 l -3.8313,3.7411 6.7342,6.7863 c 3.7039,3.7324 7.128,6.7862 7.6093,6.7862 0.4813,0 2.9412,2.25 5.4663,5 2.5252,2.75 4.934,5 5.3529,5 0.4189,0 -0.015,-1.6875 -0.9643,-3.75 z m 354.3237,0.8147 c 0.55,-0.3875 3.025,-1.3166 5.5,-2.0647 2.475,-0.7481 4.95,-1.655 5.5,-2.0152 0.55,-0.3602 5.6125,-2.1618 11.25,-4.0037 5.6375,-1.8419 10.25,-3.7427 10.25,-4.224 0,-0.4813 0.37758,-0.6418 0.83906,-0.3566 0.46149,0.2852 3.04899,-0.2701 5.75,-1.234 3.46603,-1.2369 4.99925,-2.3583 5.21108,-3.8114 0.16549,-1.1352 -6.04784,-14.7028 -13.84974,-30.2427 -15.7245,-31.3202 -13.70976,-29.0975 -22.6895,-25.0317 -2.33151,1.0556 -4.77693,1.9193 -5.43428,1.9193 -0.65734,0 -3.02475,0.838 -5.2609,1.8623 -2.23614,1.0243 -7.44072,3.0156 -11.56572,4.425 -4.125,1.4095 -10.2,3.6618 -13.5,5.0051 -8.99268,3.6607 -9.94143,4.0273 -10.66667,4.1212 -1.7986,0.233 -1.55098,1.6502 1.16162,6.6481 1.62342,2.9911 4.50233,8.3633 6.39759,11.9383 1.89526,3.575 5.30209,9.875 7.57074,14 2.26864,4.125 5.72995,10.7625 7.69179,14.75 1.96184,3.9875 4.13692,7.25 4.83351,7.25 0.69659,0 1.84333,0.695 2.54832,1.5445 1.2611,1.5195 6.00669,1.2505 8.4631,-0.4798 z m 63,-23.4547 c 1.1,-0.7089 3.46249,-1.5749 5.24997,-1.9244 1.78749,-0.3496 5.275,-1.5581 7.75003,-2.6856 2.47503,-1.1275 5.8594,-2.3219 7.52084,-2.6542 1.66143,-0.3323 3.26297,-0.996 3.55899,-1.475 0.29601,-0.4789 1.35727,-0.8708 2.35834,-0.8708 3.38955,0 13.06259,-5.0587 13.04728,-6.8233 -0.0347,-3.9929 -7.96507,-21.0164 -14.52364,-31.1767 -1.59765,-2.475 -4.20269,-6.975 -5.789,-10 -4.01533,-7.657 -7.74103,-13.0011 -9.05881,-12.9938 -0.6127,0 -2.40294,0.6783 -3.97831,1.5 -1.57537,0.8216 -3.92099,1.4938 -5.21248,1.4938 -1.2915,0 -4.72757,0.8638 -7.6357,1.9196 -2.90813,1.0558 -6.86251,2.2283 -8.78751,2.6055 -1.925,0.3772 -4.85,1.2504 -6.5,1.9404 -1.65,0.69 -5.7,2.043 -9,3.0067 -3.3,0.9637 -6.52285,2.1739 -7.16188,2.6893 -0.84059,0.678 2.58702,8.4589 12.39512,28.1378 7.45636,14.9604 14.03249,27.8062 14.61363,28.5462 1.23481,1.5725 7.95026,0.8286 11.15313,-1.2355 z m -444.6731,-7.3609 c 5.9253,-6.0978 5.973,-5.3991 -0.9809,-14.3939 -5.6634,-7.3256 -20.4316,-23.9182 -21.9225,-24.6307 -0.317,-0.1515 -1.8027,0.861 -3.3015,2.25 -1.4988,1.389 -3.0677,2.5255 -3.4864,2.5255 -0.9322,0 -6.1356,5.3409 -6.1356,6.2977 0,0.3786 4.0838,4.6289 9.075,9.4453 4.9913,4.8163 11.8538,11.5626 15.25,14.9917 3.3963,3.4291 6.7721,6.2416 7.5019,6.25 0.7298,0.01 2.5298,-1.2226 4,-2.7356 z M -1219.5,2348.9207 c 0,-0.3186 -4.725,-4.9454 -10.5,-10.2818 -5.775,-5.3364 -12.3497,-11.4882 -14.6105,-13.6707 -2.2608,-2.1825 -4.4605,-3.9682 -4.8882,-3.9682 -0.9247,0 -7.1214,5.4447 -17.7518,15.5977 -4.2628,4.0712 -8.0362,7.4023 -8.3853,7.4023 -1.2536,0 -5.4628,5.2422 -5.1667,6.4346 0.1664,0.6701 7.0285,7.572 15.2493,15.3376 l 14.9467,14.1192 15.5533,-15.1957 c 8.5542,-8.3576 15.5532,-15.4564 15.5532,-15.775 z m 75.4529,4.6512 2.4529,-2.6328 -3.4529,-3.2929 c -1.8991,-1.8111 -9.1908,-8.8483 -16.2038,-15.6381 -12.6018,-12.2007 -12.782,-12.3285 -15.4076,-10.9266 -1.4611,0.7802 -2.8632,2.206 -3.1157,3.1685 -0.2525,0.9625 -1.0816,1.75 -1.8424,1.75 -0.7609,0 -1.3834,0.4154 -1.3834,0.9231 0,1.0719 -5.8156,7.0769 -6.8537,7.0769 -0.385,0 -3.7727,3.0965 -7.5283,6.881 -7.3797,7.4367 -7.9199,9.5491 -3.1014,12.1279 1.3659,0.731 2.4834,1.6856 2.4834,2.1214 0,0.8914 7.8461,8.8697 8.7228,8.8697 0.3104,0 4.3463,3.6308 8.9687,8.0685 l 8.4044,8.0686 12.702,-11.9663 c 6.9862,-6.5814 13.8059,-13.1509 15.155,-14.5989 z M -1316.7718,2369 c 5.2742,-4.95 9.9868,-9 10.4724,-9 1.1093,0 9.2994,-8.2826 9.2994,-9.4044 0,-0.8376 -14.5321,-15.5956 -15.3569,-15.5956 -0.6757,0 -4.6431,6.9663 -4.6431,8.1528 0,0.5711 -0.844,2.2329 -1.8757,3.6928 -1.0316,1.4599 -2.204,4.2294 -2.6054,6.1544 -0.4014,1.925 -1.3194,4.85 -2.0399,6.5 -0.7206,1.65 -1.5856,5.037 -1.9223,7.5266 -0.3367,2.4896 -1.2747,5.8035 -2.0845,7.3643 -1.7975,3.4648 -1.8036,3.6091 -0.1528,3.6091 0.7257,0 5.6346,-4.05 10.9088,-9 z m 56.0218,-52.0174 c 1.5125,-1.1703 2.75,-2.622 2.75,-3.226 0,-1.2078 -19.0179,-19.7044 -20.2928,-19.7366 -0.4361,-0.011 -2.9111,1.9318 -5.5,4.3173 -2.589,2.3855 -5.5049,4.6253 -6.4799,4.9773 -0.975,0.352 -2.0714,1.4377 -2.4365,2.4127 -0.3651,0.975 -3.4808,5.1336 -6.9238,9.2413 -8.541,10.1901 -8.6115,10.8097 -1.9948,17.5331 2.9762,3.0241 5.8258,5.4983 6.3324,5.4983 0.5067,0 2.2089,1.344 3.7827,2.9867 l 2.8614,2.9867 12.5757,-12.4316 c 6.9166,-6.8373 13.8131,-13.389 15.3256,-14.5592 z m 133.122,20.3848 6.661,-6.1326 -11.2665,-10.4288 c -6.1966,-5.7358 -14.1007,-12.2939 -17.5648,-14.5735 l -6.2982,-4.1448 -3.9138,2.7062 c -2.1526,1.4883 -3.9309,3.2686 -3.9517,3.9561 -0.021,0.6875 -0.68,1.25 -1.4647,1.25 -3.9574,0 -1.4272,3.8917 8.9267,13.7301 6.05,5.7488 13.241,12.6643 15.98,15.3678 2.739,2.7035 5.2615,4.7999 5.6055,4.6588 0.344,-0.1412 3.623,-3.0164 7.2865,-6.3893 z m -59.696,-19.0522 c 2.9282,-2.8517 5.324,-5.4392 5.324,-5.75 0,-0.7578 -3.8404,-4.5652 -4.6047,-4.5652 -0.3326,0 -6.0063,-5.175 -12.6082,-11.5 -6.6019,-6.325 -12.3264,-11.5 -12.721,-11.5 -0.3946,0 -7.4335,6.5114 -15.6418,14.4697 l -14.9243,14.4698 3.5,3.364 c 6.3873,6.1393 20.5702,19.1547 23.9578,21.9859 l 3.3376,2.7894 9.5283,-9.2894 c 5.2406,-5.1092 11.9242,-11.6226 14.8523,-14.4742 z m -51.7193,-20.644 c 20.0391,-19.2717 20.341,-19.6076 19.0351,-21.181 -0.9257,-1.1155 -3.4691,-1.4902 -10.1142,-1.4902 -4.8827,0 -8.8776,0.3999 -8.8776,0.8887 0,0.8861 -5.5084,2.3995 -9.7174,2.6698 -1.2195,0.078 -2.7945,0.5787 -3.5,1.1118 -0.7054,0.5332 -3.3076,1.5805 -5.7826,2.3273 -2.475,0.7468 -5.2104,1.9528 -6.0787,2.6801 -0.8683,0.7273 -2.0507,1.3223 -2.6276,1.3223 -0.5768,0 -1.5794,0.6393 -2.2278,1.4206 -0.9599,1.1566 -0.066,2.3182 4.8083,6.25 3.293,2.6562 6.0185,5.3919 6.0566,6.0794 0.038,0.6875 0.472,1.25 0.9642,1.25 0.4923,0 1.9548,1.1305 3.25,2.5122 3.394,3.6207 6.071,2.565 14.8117,-5.841 z m 72.7123,-2.0913 c -0.3133,-0.8166 -2.7295,-2.4214 -5.3693,-3.5664 -2.6399,-1.1449 -5.4747,-2.503 -6.2997,-3.018 -4.4258,-2.7625 -14.006,-6.8508 -17.5,-7.4679 -2.2,-0.3886 -4.5224,-1.1382 -5.161,-1.6656 -0.7489,-0.6187 -1.391,-0.5869 -1.809,0.089 -0.3564,0.5767 -0.1219,1.0486 0.5211,1.0486 0.643,0 5.507,4.264 10.809,9.4755 5.3019,5.2115 11.2149,10.8184 13.1399,12.4597 l 3.5,2.9842 4.3694,-4.4274 c 2.6858,-2.7215 4.1498,-4.9995 3.7996,-5.9121 z m 503.42213,-94.8402 c -1.17322,-3.0858 -10.06497,-10.9637 -11.67662,-10.3453 -0.67106,0.2575 -2.05135,-0.1615 -3.06731,-0.9313 -1.89773,-1.4378 -13.42231,-2.0547 -14.69064,-0.7863 -0.37223,0.3722 -2.78002,1.3847 -5.35065,2.25 -6.35608,2.1394 -6.80627,4.0732 -0.94826,4.0732 2.48837,0 4.75566,0.3743 5.03841,0.8318 0.28275,0.4575 3.79681,1.4099 7.80902,2.1164 4.0122,0.7065 7.74492,1.6357 8.29492,2.0649 0.55,0.4292 3.025,1.3599 5.5,2.0683 2.475,0.7084 5.38366,1.8771 6.4637,2.5971 1.63636,1.0909 2.09567,1.0734 2.75536,-0.1055 0.43542,-0.778 0.37785,-2.503 -0.12793,-3.8333 z"
           id="path47" /></g></g></g><pattern
     id="b-2"
     width="41"
     height="41"
     patternUnits="userSpaceOnUse"><circle
       fill="#ffffff"
       cx="20.5"
       cy="20.5"
       r="20.5"
       id="circle2" /></pattern></svg>
