<?xml version="1.0" encoding="UTF-8" standalone="no"?>
<!-- Created with Inkscape (http://www.inkscape.org/) -->

<svg
   version="1.1"
   id="svg1"
   width="114.57733"
   height="175.40649"
   viewBox="0 0 114.57733 175.40649"
   xml:space="preserve"
   xmlns="http://www.w3.org/2000/svg"
   xmlns:svg="http://www.w3.org/2000/svg"><defs
     id="defs1" /><pattern
     id="b-2"
     width="41"
     height="41"
     patternUnits="userSpaceOnUse"><circle
       fill="#ffffff"
       cx="20.5"
       cy="20.5"
       r="20.5"
       id="circle2" /></pattern><g
     id="g190"
     transform="translate(-3038.0802,-1439.0072)"><path
       id="path61"
       style="font-variation-settings:normal;display:inline;vector-effect:none;fill:#aa8967;fill-opacity:1;stroke-width:0.412609;stroke-linecap:butt;stroke-linejoin:miter;stroke-miterlimit:4;stroke-dasharray:none;stroke-dashoffset:0;stroke-opacity:1;-inkscape-stroke:none;stop-color:#000000"
       d="m 3124.8771,1540.4993 h -57.0045 c -0.2348,0.7745 -0.8274,2.3784 -1.5168,4.0832 -2.7162,6.7172 -4.4066,12.0165 -5.7577,18.0555 -1.0938,4.888 -1.5826,6.7397 -3.4979,13.2447 -1.364,4.6324 -1.5283,5.6935 -1.5682,10.1405 -0.062,6.9624 0.833,9.6836 4.7141,14.3328 l 1.945,2.3298 c -9.061,9.3017 14.6631,4.8589 14.6631,5.4254 0,0.6115 0.8471,3.567 1.1656,4.0054 0.516,0.71 0.7318,0.7413 1.9827,0.2861 1.9924,-0.725 2.5192,-0.6468 3.5308,0.5238 1.0811,1.2512 1.6963,1.2927 3.0681,0.207 1.2515,-0.9907 1.6789,-1.0282 2.3563,-0.207 0.622,0.7542 1.8898,0.2835 2.4702,-0.4262 0.2328,-0.2845 0.3984,-2.219 0.5554,-3.2797 0.3189,-2.1565 1.1973,-1.0426 4.3782,-1.0426 2.9435,0 3.7019,0.334 3.7019,1.6306 0,0.6224 0.2032,1.7188 0.4515,2.4357 0.5186,1.4969 1.4653,1.6771 3.2464,0.6183 1.0969,-0.6519 1.2057,-0.6419 2.2784,0.2071 1.4499,1.1476 1.8908,1.1223 3.1025,-0.1755 0.995,-1.0657 1.6195,-1.1272 3.9188,-0.388 1.1974,0.3848 1.3365,-0.7589 1.3365,-2.4818 0,-0.7671 1.0249,-1.6081 1.2777,-1.6394 5.1246,-0.6347 8.5712,-1.8919 14.826,-5.7218 0.1751,-0.1072 0.5187,-0.867 1.1529,-1.4705 3.6997,-3.5205 5.4275,-8.1423 5.4275,-14.5139 0,-5.0077 -0.6025,-8.3144 -2.6615,-14.6189 -0.7982,-2.4442 -1.4564,-4.7724 -1.4622,-5.1737 -0.039,-2.6403 -4.2035,-16.454 -7.1354,-23.669 -0.5023,-1.2362 -0.8199,-2.0942 -0.9456,-2.7179 z" /><path
       id="path60"
       style="display:inline;fill:#6d533a;stroke-width:0.416472"
       d="m 3066.9336,1540.5 c -0.2393,0.7747 -0.8427,2.3773 -1.5449,4.0817 -2.1759,5.2815 -3.7043,9.686 -4.9278,14.2633 0.2954,-0.066 0.5884,-0.099 0.877,-0.1003 0.743,0 1.4512,0.2071 2.0664,0.6153 1.4081,-5.0422 3.1314,-9.9299 5.3184,-15.137 0.5782,-1.3766 1.1297,-2.7452 1.5,-3.7192 z m 54.7969,0 c 0.2908,0.8939 0.6988,1.9809 1.1718,3.098 3.096,7.3131 5.3374,14.2485 7.1036,22.0005 0.2069,-0.048 0.414,-0.095 0.6211,-0.1409 0.5575,-0.1278 1.1211,-0.233 1.6855,-0.3259 0.034,-0.01 0.068,-0.01 0.1016,-0.016 -2.7004,0.5829 -1.5396,1.7815 -0.711,5.409 0.581,-0.3495 1.2056,-0.7012 1.8086,-1.0513 -0.053,-0.1379 -0.11,-0.2848 -0.1699,-0.4437 0,-0.01 -0.01,-0.014 -0.01,-0.022 0.013,0.018 0.026,0.034 0.039,0.052 -0.01,-0.014 -0.017,-0.027 -0.023,-0.037 0.014,0.023 0.033,0.044 0.047,0.067 0.079,0.1039 0.1586,0.2072 0.2403,0.3087 0.072,-0.042 0.1451,-0.085 0.2168,-0.1273 -0.3657,-1.2257 -0.606,-2.1489 -0.6094,-2.3882 -0.04,-2.6401 -4.2824,-16.4542 -7.2695,-23.669 -0.5118,-1.2361 -0.8349,-2.0926 -0.9629,-2.7161 z m 10.7675,24.597 v 0 0 0 0 c -0.01,0 -0.032,0.01 -0.043,0.01 0.014,0 0.027,-0.01 0.041,-0.01 z m 0.4004,3.2619 c -0.032,-0.048 0.072,0.091 0.1075,0.137 0.033,0.046 0.06,0.095 0.092,0.1409 -0.092,-0.1305 -0.1776,-0.2457 -0.1993,-0.2779 z m 0.3789,0.5537 c 0.023,0.036 0.048,0.073 0.07,0.1099 l -0.01,-0.01 c 0,0 -0.01,-0.01 -0.01,-0.012 -0.011,-0.024 -0.033,-0.058 -0.051,-0.089 z m -54.6757,25.5346 c 0.7234,2.7897 0.4861,4.2042 1.0376,5.8081 0.9929,2.8887 1.693,5.5143 0.8222,6.2281 -0.8685,0.7119 -4.3784,0.2427 -8.5155,-0.8367 -3.2008,-0.8351 -6.187,-1.4902 -8.3477,-2.9501 -0.8317,0.7991 0.034,-0.037 0,0 -0.6242,0.6522 -0.1257,-0.03 -0.8623,0.4918 -1.9812,1.116 -4.4092,4.2011 -3.1793,5.1919 0.3726,0.3002 0.8794,0.213 0.9395,0.2797 -10e-5,0 0,-10e-4 0,0.01 0.6172,1.4952 1.0958,1.767 2.9101,1.6513 1.5678,-0.1 1.9908,0.029 2.3672,0.7233 0.675,1.2457 1.8964,1.0508 6.0899,-0.9702 3.9951,-1.9253 5.4418,-2.3437 5.4418,-0.3934 0,1.3563 0.097,3.0383 0.8765,3.0383 0.3491,0 1.2189,-0.2986 1.9336,-0.6636 1.2772,-0.6524 1.3209,-0.6415 2.5157,0.6211 1.4241,1.5049 1.9434,1.5754 3.3828,0.4572 1.2752,-0.9907 1.7083,-1.0295 2.3984,-0.2083 0.6337,0.7542 2.2524,0.8137 2.8438,0.1041 0.2371,-0.2845 0.4218,-1.7213 0.5817,-2.782 0.325,-2.1565 0.8767,-2.0695 4.1175,-2.0695 2.9988,0 4.4538,-0.065 4.4538,1.2321 0,0.6224 -0.3211,2.0535 -0.068,2.7704 0.5284,1.4969 1.3406,1.7398 3.1553,0.6812 1.1174,-0.652 1.2275,-0.6406 2.3203,0.2084 1.5037,1.1682 1.9069,1.1272 3.3223,-0.3318 1.1521,-1.1878 1.2262,-1.2058 2.6425,-0.6212 0.8021,0.3309 1.611,0.6019 1.7969,0.6019 0.7928,0 1.2863,-1.4683 1.2863,-2.7597 0,-0.767 0.5499,-1.4403 0.7704,-1.5749 0.2203,-0.1345 2.1017,0.5984 4.1816,1.6301 2.0798,1.0315 4.1287,1.8769 4.5527,1.8769 0.424,0 1.1807,-0.4649 1.6817,-1.034 4.4856,-5.0952 3.2594,-1.7631 4.4487,-3.558 0.8915,-1.3452 0.1334,-3.4902 -2.2926,-4.8312 -2.5579,1.1791 -8.9244,3.5412 -11.6639,3.9539 -2.1265,0.3203 -3.5491,0.5485 -4.4706,-0.1675 -0.689,-0.5351 -1.4113,-2.9667 -1.2341,-3.408 0.3089,-0.7691 2.7355,-8.4349 2.2117,-8.8649 -0.1593,0.4737 -1.8386,4.1774 -1.9585,4.4452 l -0.7871,1.7573 -2.9981,0.073 -2.998,0.075 -0.6152,-1.4507 c -0.1028,-0.2428 -1.2191,-2.1316 -1.3066,-2.4943 0.7813,4.9822 1.0121,7.2346 0.013,9.8081 -0.3046,0.7841 -12.0884,0.4875 -12.5157,-0.3059 -0.2019,-0.3749 0.5402,-11.1607 -0.5927,-11.8575 -0.096,0.6926 -0.871,4.2079 -1.0059,4.5932 l -0.5,1.4275 -2.4336,-0.1139 c -1.3438,-0.062 -2.6848,0.092 -2.9942,0.3452 -0.8041,0.6594 -3.5953,-5.8767 -3.7554,-5.8365 z" /><path
       id="path55"
       style="display:inline;fill:#4a3014;stroke-width:0.419065"
       d="m 3067.1955,1540.4993 c -0.383,1.1176 -1.1377,3.1641 -2.002,5.4102 -2.4799,6.4455 -4.6969,13.7373 -6.0617,19.9384 -0.482,2.1896 -1.5441,6.1302 -2.3606,8.7578 -3.6618,11.785 -2.7178,20.5273 2.8876,26.7285 l 1.9628,2.1714 -1.6885,1.6722 c -2.0817,2.061 -2.2191,3.3291 -0.3995,3.693 0.8471,0.1694 1.4239,0.6111 1.6804,1.2858 0.364,0.9575 0.5309,1.0078 2.4431,0.7448 1.8401,-0.253 2.0804,-0.1919 2.3287,0.5902 0.4195,1.3219 1.806,1.0925 6.1394,-1.0166 2.2,-1.0707 4.0381,-1.7314 4.2447,-1.5248 0.2005,0.2004 0.4304,1.0717 0.5107,1.9357 0.2023,2.1769 0.7304,2.603 2.4514,1.9807 2.0275,-0.7331 2.6973,-0.6273 3.4655,0.5451 0.8294,1.2659 1.7954,1.3288 3.2183,0.2096 1.3214,-1.0394 1.3238,-1.0394 2.8426,0.083 1.1244,0.8313 1.3104,0.8577 1.8948,0.2733 0.3563,-0.3563 0.7785,-1.5725 0.9388,-2.7026 l 0.2913,-2.0544 1.9881,-0.3847 c 1.2062,-0.2333 2.7708,-0.2333 3.9787,0 1.9863,0.3837 1.991,0.389 2.214,2.3278 0.123,1.0686 0.4753,2.2464 0.7833,2.6175 0.5111,0.6159 0.6994,0.5962 2.1518,-0.2202 l 1.5912,-0.8938 1.1385,0.8955 c 1.4615,1.1496 1.9199,1.1278 3.1217,-0.1515 1.0847,-1.1546 1.9384,-1.292 3.5293,-0.5672 1.469,0.6694 2.3376,-0.134 2.3376,-2.1632 0,-0.9871 0.2254,-1.667 0.6015,-1.8113 0.3312,-0.1271 2.3242,0.6068 4.4289,1.6312 2.1047,1.0244 4.1225,1.8629 4.4837,1.8629 0.3611,0 1.0651,-0.4243 1.5649,-0.9429 0.4998,-0.5186 2.088,-2.0508 3.5293,-3.4049 l 2.6208,-2.462 -0.8618,-0.9175 c -0.4741,-0.5047 -0.8619,-1.0531 -0.8619,-1.2188 0,-0.1657 0.6637,-0.9657 1.4757,-1.7777 1.9431,-1.9431 3.4434,-4.3645 4.4935,-7.2518 0.6714,-1.8461 0.8568,-3.3814 0.8635,-7.1683 0.01,-5.1976 -0.3967,-7.3687 -2.7918,-14.9431 -0.7902,-2.499 -1.6576,-5.7692 -1.9276,-7.2674 -0.75,-4.1626 -3.1824,-12.1326 -5.7065,-18.6999 -0.9401,-2.4462 -1.751,-4.7042 -2.0961,-5.8105 h -2.4825 c 0.2723,0.7397 0.6269,1.6283 1.0231,2.5521 2.3419,5.4597 5.6429,15.4402 6.7083,20.2821 1.3245,6.0193 1.458,6.5273 3.1332,11.9433 3.6527,11.8093 2.6142,19.8579 -3.2527,25.216 -3.2663,2.9829 -6.7354,4.5782 -12.626,5.8071 -3.9732,0.8289 -4.2267,0.8004 -5.2227,-0.5983 -0.95,-1.334 -0.9984,-1.0191 1.2335,-8.0048 0.4049,-1.2677 0.9581,-3.2477 1.2293,-4.4002 0.2713,-1.1524 0.6559,-2.7553 0.8545,-3.562 0.1988,-0.8067 0.5581,-2.5039 0.7989,-3.7716 0.2408,-1.2677 0.6543,-3.3107 0.9191,-4.5393 0.3047,-1.4137 0.335,-2.3799 0.083,-2.6323 -0.4028,-0.4028 -0.6297,0.4279 -2.0176,7.3811 -1.2013,6.0185 -2.2879,10.0769 -3.8141,14.2482 -0.5904,1.6134 -1.174,3.2731 -1.2973,3.6889 -0.1331,0.4486 0.281,1.4712 1.0182,2.5144 1.6678,2.3606 1.9395,3.1984 1.1369,3.5064 -0.3574,0.1372 -0.8636,0.036 -1.1246,-0.2251 -0.7973,-0.7972 -1.8706,-0.5334 -2.7575,0.6778 l -0.8439,1.1524 -0.8839,-0.9429 c -1.0536,-1.1241 -0.9765,-1.1161 -2.611,-0.2709 l -1.2998,0.6719 0.3471,-2.453 c 0.4739,-3.3521 0.4417,-6.1801 -0.1384,-12.0915 -0.2713,-2.7658 -0.6053,-6.4902 -0.7423,-8.2765 -0.1371,-1.7863 -0.4421,-3.2477 -0.6777,-3.2477 -0.4637,0 -0.2314,5.422 0.5483,12.7814 0.2443,2.3049 0.3808,5.2279 0.3029,6.4955 l -0.1416,2.3049 h -6.0764 -6.0765 l 0.01,-4.6097 c 0.01,-2.5354 0.2375,-7.3332 0.514,-10.6616 0.2763,-3.3284 0.4133,-6.1411 0.3036,-6.2508 -0.5342,-0.5342 -0.8127,0.7959 -1.1082,5.2964 -0.4106,6.2542 -1.0677,12.594 -1.434,13.8431 -0.1565,0.5337 -0.074,1.3823 0.1833,1.8858 0.5635,1.1028 1.3478,4.5904 1.0903,4.8479 -0.1009,0.1009 -0.8543,-0.1768 -1.6746,-0.6172 l -1.4921,-0.8004 -0.8226,1.0476 -0.8234,1.0477 -0.9511,-1.1524 c -0.9475,-1.1478 -2.5225,-1.5308 -3.0153,-0.7334 -0.1424,0.2305 -0.5437,0.4191 -0.8913,0.4191 -0.868,0 -0.4195,-1.4035 1.1786,-3.6873 l 1.2604,-1.8015 -0.8487,-2.1796 c -0.4668,-1.199 -1.0497,-2.8397 -1.2949,-3.6464 -0.2451,-0.8067 -0.7099,-2.3153 -1.0337,-3.3525 -0.9608,-3.078 -2.0644,-7.9656 -3.2412,-14.353 -0.4876,-2.6469 -1.2056,-3.8452 -1.2056,-2.0118 0,1.2416 1.3855,8.2719 2.3997,12.1741 0.3295,1.2677 0.9439,3.6249 1.3645,5.2383 0.4206,1.6134 1.0652,3.7584 1.4331,4.7669 0.8863,2.4288 0.8442,3.478 -0.1849,4.5827 -0.9941,1.0671 -0.7944,1.0437 -3.9926,0.4772 -10.7551,-1.905 -17.1416,-7.1318 -18.6639,-15.2746 -0.8666,-4.6349 0.1195,-11.4436 2.7411,-18.9226 0.5779,-1.6487 1.1724,-3.8173 1.321,-4.8192 0.6024,-4.0598 4.3714,-16.7584 6.2622,-21.0982 0.4017,-0.9219 0.8657,-2.0534 1.0305,-2.5144 0.1648,-0.4609 0.7044,-1.7391 1.1991,-2.8401 0.077,-0.1713 0.152,-0.3412 0.2234,-0.5075 z m -3.5956,64.7407 c 0.8112,0 7.6341,2.6225 7.6299,2.9334 0,0.1153 -0.5092,0.4453 -1.1295,0.7334 -1.5309,0.711 -1.9298,0.663 -2.534,-0.3045 -0.4,-0.6403 -0.8029,-0.771 -1.777,-0.5762 -1.0814,0.2163 -1.2596,0.1265 -1.2596,-0.631 0,-0.5913 -0.3453,-0.9686 -1.0453,-1.1443 -1.1208,-0.2813 -1.0375,-1.0108 0.1155,-1.0108 z m 64.6571,0 c 0.5129,-0.021 0.8087,0.1029 0.8087,0.3863 0,0.215 -0.3656,0.5066 -0.8119,0.6482 -0.4464,0.1417 -0.8707,0.6735 -0.9429,1.1811 -0.1129,0.7935 -0.3514,0.9033 -1.7025,0.7858 -1.1856,-0.1032 -1.5715,0.019 -1.5715,0.4992 0,0.9885 -0.5797,1.1178 -1.9161,0.4281 -1.6756,-0.8648 -2.1914,-1.4184 -1.321,-1.4184 0.386,0 1.937,-0.5658 3.4466,-1.2572 1.6978,-0.7776 3.1558,-1.2176 4.0106,-1.2531 z m 2.5874,0.3149 c 0,0 -0.781,0.5564 -1.9802,1.7556 -1.1563,1.1563 -1.6839,2.5968 -1.5579,2.7228 0.5053,0.5054 2.9096,0.6808 3.3562,-0.062 0.4081,-0.6787 -0.032,-1.9259 1.1448,-1.4668 1.2836,0.5009 2.2811,-0.9276 1.616,-1.5927 -0.058,-0.058 -1.5732,-1.5667 -1.5732,-1.5667 z" /><path
       id="path61-9-7"
       style="display:inline;fill:#aa8967;fill-opacity:1;stroke-width:0.4134"
       d="m 3119.3614,1440.1054 c -0.7655,-0.01 -1.4344,0.3876 -2.1408,1.1481 -1.6389,1.7647 -1.6721,2.5798 -1.6721,5.4413 0,1.4581 -0.4085,2.9067 -0.5267,3.0255 -0.1182,0.1187 -1.5381,-0.2316 -3.1552,-0.7784 -8.5385,-2.8875 -23.5679,-2.8798 -32.1658,0.016 -1.5592,0.5252 -2.9266,0.8633 -3.0384,0.751 -0.1117,-0.1124 -2.197,-0.7058 -2.197,-2.1602 0,-2.8819 1.1296,-4.5579 -0.5306,-5.9992 -1.3749,-1.1935 -2.4631,-1.6838 -4.3957,-0.4582 -5.4175,3.4344 -8.5209,10.9937 -6.9905,17.0281 l 0.61,2.4023 -2.4437,3.7787 c -1.3438,2.078 -3.6881,6.2474 -5.2098,9.2655 l -2.766,5.4875 h -1.7388 c -1.3333,0 -1.8452,0.2012 -2.1946,0.8569 -0.3376,0.6334 -0.3289,1.0074 0.032,1.4442 0.6096,0.7379 0.2238,1.8433 -0.6439,1.8433 -1.1283,0 -3.0868,1.2347 -3.0868,1.9458 0,0.375 0.3165,1.0328 0.7035,1.4622 0.5742,0.6374 0.6122,0.9282 0.2062,1.5811 -0.7342,1.1806 -0.6169,1.7192 0.5818,2.679 l 1.0781,0.8634 -1.2554,3.709 c -2.803,8.2823 -4.8863,16.6308 -6.3531,25.4586 -0.5702,3.4322 -0.5859,14.829 -0.024,17.8186 2.6411,14.0731 9.9829,24.064 23.7309,32.2918 1.9852,1.1881 3.3302,2.6299 3.6094,2.6774 27.8442,4.7417 48.6066,2.958 58.2647,-1.4589 2.4344,-1.0126 9.6061,-6.017 12.4741,-8.7046 2.8851,-2.7035 4.5283,-4.5318 5.3395,-6.0637 2.1617,-2.2717 3.7645,-5.4144 4.9503,-8.7588 0.2765,-0.3455 0.5665,-0.859 0.8397,-1.5156 0.9103,-2.1883 2.2872,-8.1017 2.2872,-9.8245 0,-0.8668 -0.062,-1.282 -0.2722,-1.4288 0.2814,-2.2548 0.4066,-4.0379 0.4584,-4.9649 0.4212,-1.0053 0.3725,-2.0224 -0.033,-6.3929 -0.2833,-3.0466 -0.7204,-6.7335 -0.9718,-8.1934 -0.6697,-3.8896 -3.4467,-14.4891 -5.1371,-19.6077 -1.6963,-5.1365 -2.6287,-6.2905 -1.5657,-6.6293 1.0616,-0.3384 2.2344,-0.5255 1.6705,-1.7687 -0.3793,-0.8357 -1.4806,-2.0546 -0.9248,-2.6712 0.3763,-0.4177 1.0078,-0.3985 1.0078,-0.7735 0,-0.7648 -2.0534,-1.9243 -3.3413,-1.9243 -0.7425,0 -0.9381,-0.3806 -0.8498,-2.1186 l 1.0909,-1.6232 -1.9482,-0.1254 -1.9483,-0.1263 -2.5155,-5.104 c -1.3834,-2.8073 -3.7187,-6.9456 -5.1887,-9.1958 l -3.2663,-4.7979 0.5937,-1.2922 c 0.6689,-2.3638 0.7089,-6.2528 0.01,-8.3982 -0.6336,-1.9349 -2.6208,-4.6104 -4.523,-6.5587 -2.4381,-2.4971 -3.2476,-3.5425 -4.5235,-3.5595 z" /><path
       style="display:inline;fill:#6d533a;stroke-width:0.419065"
       d="m 3096.0529,1473.4526 c -3.8465,-0.1725 -7.6656,1.1374 -12.2304,3.8946 -3.7674,2.2757 -10.3222,8.4138 -11.6641,10.9218 -0.8421,1.5742 -0.892,2.1877 -0.7949,10.0586 0.057,4.6097 0.286,10.3612 0.5078,12.7813 0.2218,2.4201 0.6053,7.1344 0.8535,10.4765 0.8381,11.2844 3.0588,25.9991 4.8692,32.2676 2.0122,6.9684 2.5088,8.4109 3.7539,10.9258 1.0417,2.1042 3.1147,4.5375 5.0664,6.1406 l 18.955,-0.9394 c 0.258,-0.2509 0.5172,-0.5196 0.7813,-0.8086 3.6845,-4.0314 6.0626,-10.4272 8.4238,-22.6524 2.6068,-13.497 4.6798,-35.9403 4.666,-50.5195 -0.01,-6.4596 -0.017,-6.5346 -1.209,-8.3809 -1.5569,-2.4123 -6.2609,-6.9111 -9.5839,-9.166 -4.6736,-3.1714 -8.5482,-4.8276 -12.3946,-5 z"
       id="path180" /><path
       style="display:inline;fill:#6d533a;stroke-width:0.419065"
       d="m 3061.9413,1460.5054 c -0.01,0 -0.018,0 -0.027,0 0,4e-4 0.032,0 0.027,0 z m -0.027,0 c 0.022,-0.01 -0.1404,0.01 -0.3301,0.025 l -0.018,0.025 c 0.1159,-0.015 0.2322,-0.032 0.3477,-0.051 z"
       id="path179" /><path
       style="display:inline;fill:#6d533a;stroke-width:0.419065"
       d="m 3065.6581,1457.1538 -0.035,0.035 c -0.077,0.075 -0.2878,0.3163 -0.2148,0.2383 0.085,-0.09 0.1665,-0.1818 0.25,-0.2734 z"
       id="path178" /><path
       style="display:inline;fill:#6d533a;stroke-width:0.419065"
       d="m 3065.83,1456.9917 c -0.01,0.01 -0.018,0.015 -0.027,0.025 l -0.01,0.012 c -0.046,0.048 -0.1419,0.1584 -0.1055,0.1191 0.047,-0.051 0.094,-0.1 0.1406,-0.1504 z"
       id="path175" /><path
       style="display:inline;fill:#6d533a;stroke-width:0.419065"
       d="m 3065.76,1456.8608 c -0.01,0 -0.016,0 -0.025,0.01 -0.4992,0.3177 -0.279,0.1743 0.025,-0.01 z"
       id="path174" /><path
       style="display:inline;fill:#6d533a;stroke-width:0.419065"
       d="m 3069.633,1453.5757 c -0.046,0.043 -0.089,0.087 -0.1328,0.1328 -0.035,0.042 -0.057,0.071 -0.061,0.078 0,0 0.015,-0.013 0.029,-0.027 0.057,-0.06 0.1117,-0.1211 0.166,-0.1836 z"
       id="path170" /><path
       style="display:inline;fill:#6d533a;stroke-width:0.419065"
       d="m 3069.9455,1453.2124 v 0 c -0.025,0.021 -0.05,0.043 -0.074,0.062 -0.01,0.01 -0.011,0.014 -0.018,0.024 0.015,-0.011 0.031,-0.021 0.047,-0.031 0.016,-0.019 0.032,-0.038 0.049,-0.057 z"
       id="path169" /><path
       style="display:inline;fill:#6d533a;stroke-width:0.419065"
       d="m 3069.9865,1453.1754 -0.01,0.01 c -0.016,0.019 -0.031,0.038 -0.047,0.057 0.019,-0.022 0.038,-0.041 0.057,-0.061 z"
       id="path168" /><path
       style="display:inline;fill:#6d533a;stroke-width:0.419065"
       d="m 3070.2209,1453.0874 -0.01,0.01 c -0.03,0.016 -0.054,0.031 -0.076,0.043 0.024,-0.013 0.057,-0.028 0.1,-0.051 0,0 -0.01,0 -0.01,0 z"
       id="path166" /><path
       style="display:inline;fill:#6d533a;stroke-width:0.419065"
       d="m 3073.002,1450.7747 c -0.027,0.014 -0.055,0.026 -0.082,0.041 -0.018,0.01 -0.033,0.023 -0.051,0.033 0.044,-0.024 0.088,-0.05 0.1329,-0.074 z"
       id="path163" /><path
       style="display:inline;fill:#6d533a;stroke-width:0.419065"
       d="m 3116.3105,1449.332 c 0.01,0 0.01,0.01 0.016,0.01 h 0.01 c -0.01,0 -0.016,-0.01 -0.025,-0.01 z"
       id="path162" /><path
       style="display:inline;fill:#6d533a;stroke-width:0.419065"
       d="m 3115.2344,1448.9785 v 0.01 0 c 0,10e-5 0.01,0 0.012,0 0.4962,0.169 0.7822,0.2601 0.9512,0.3105 0.014,0.01 0.028,0.013 0.043,0.02 -0.01,-9e-4 -0.019,-0.01 -0.029,-0.01 0.153,0.085 0.3051,0.1723 0.4609,0.2519 -0.04,-0.029 -0.3053,-0.1859 -0.4258,-0.2402 0.023,0.01 0.044,0.011 0.062,0.016 -0.07,-0.028 -0.1236,-0.05 -0.1699,-0.068 -0.07,-0.031 -0.1386,-0.061 -0.207,-0.09 -0.094,-0.032 -0.2081,-0.066 -0.4609,-0.1386 -0.06,-0.017 -0.2197,-0.056 -0.2383,-0.057 z"
       id="path161" /><path
       style="display:inline;fill:#6d533a;stroke-width:0.419065"
       d="m 3113.9941,1448.6777 v 0.01 0 c 0,-10e-5 0,0 0.01,0 v -0.01 0 c 0,10e-5 0,0 -0.01,0 z"
       id="path160" /><path
       style="display:inline;fill:#6d533a;stroke-width:0.3977"
       d="m 3071.2426,1439.9463 c -0.7251,0.01 -1.5169,0.3057 -2.4406,0.8993 -5.1782,3.3253 -8.1449,10.644 -6.6821,16.4869 l 0.4833,1.9312 c 0.3374,-0.082 0.6869,-0.1189 1.0274,-0.1889 0,-1e-4 0.01,2e-4 0.011,0 0.311,-0.43 0.6772,-0.8158 1.077,-1.1627 0.2239,-0.2005 0.4901,-0.3941 0.759,-0.5739 0.076,-0.051 0.1492,-0.1048 0.2241,-0.1515 0.044,-0.026 0.1775,-0.1065 0.1341,-0.079 -0.1054,0.069 -0.2517,0.1615 -0.3582,0.23 0,0 0.071,-0.043 0.6579,-0.4188 0.113,-0.062 0.2284,-0.1203 0.3454,-0.174 h 0.01 c 0.027,-0.026 0.044,-0.044 0.064,-0.063 0.2019,-0.2355 0.4112,-0.4635 0.623,-0.6899 0.1923,-0.2043 0.389,-0.4065 0.5844,-0.6075 0.2652,-0.2827 0.5518,-0.5419 0.8491,-0.789 0.054,-0.046 0.1091,-0.088 0.158,-0.1382 0.2897,-0.2817 0.613,-0.5166 0.9502,-0.7328 -0.1023,0.069 -0.1489,0.1004 -0.2867,0.2112 -0.028,0.022 -0.091,0.076 -0.1067,0.09 0.1342,-0.098 0.265,-0.2006 0.397,-0.3009 0.032,-0.02 0.061,-0.042 0.094,-0.061 0.01,-0.01 0.013,-0.014 0.02,-0.022 v -0.01 l 0.01,-0.01 v 0 0 0 0 0 0 0 0 0 0 c 0.02,-0.021 0.038,-0.041 0.058,-0.061 -0.022,0.019 -0.041,0.036 -0.058,0.051 0.08,-0.087 0.1601,-0.1743 0.2536,-0.245 0.018,-0.017 0.038,-0.036 0.057,-0.055 0.025,-0.023 0.051,-0.046 0.079,-0.071 l 0.022,-0.024 0.015,-0.013 c 0.1675,-0.1817 0.3379,-0.3511 0.5476,-0.5292 0.016,-0.014 0.05,-0.042 0.083,-0.069 -0.01,0.01 -0.025,0.023 -0.034,0.032 -0.038,0.035 0.1054,-0.088 0.1213,-0.101 0.062,-0.051 0.3086,-0.2645 0.4686,-0.3888 0.04,-0.032 0.084,-0.061 0.1268,-0.09 0.2099,-0.1704 0.4204,-0.3402 0.6304,-0.5104 0.013,-0.01 0.026,-0.017 0.038,-0.026 0.013,-0.016 0.028,-0.034 0.042,-0.049 0.3194,-0.3514 0.354,-0.3987 0.6634,-0.6767 0.07,-0.063 0.1691,-0.1413 0.2463,-0.2038 0.048,-0.04 0.056,-0.046 0.097,-0.08 0.3852,-0.3221 0.514,-0.4193 0.7111,-0.5385 0.01,-0.014 0.088,-0.068 0.2776,-0.1738 h 0.01 c 0.016,-0.01 0.034,-0.017 0.05,-0.026 0.018,-0.01 0.037,-0.02 0.056,-0.03 0.064,-0.038 0.1151,-0.069 0.1268,-0.075 0,0 -0.034,0.022 -0.1085,0.067 0.036,-0.02 0.077,-0.039 0.1177,-0.061 0.018,-0.01 0.035,-0.02 0.053,-0.03 0.012,-0.01 0.026,-0.012 0.036,-0.017 0.1502,-0.079 0.3316,-0.1743 0.5513,-0.286 0.1135,-0.058 0.2362,-0.096 0.3565,-0.1382 -0.098,-0.2291 -0.1764,-1.404 -0.1764,-2.7258 0,-2.7904 -0.5467,-4.2335 -2.1335,-5.6289 -0.6573,-0.5779 -1.3151,-0.8632 -2.0399,-0.8564 z"
       id="path159" /><path
       style="display:inline;fill:#6d533a;stroke-width:0.413946"
       d="m 3119.4743,1439.5453 0.021,0.02 h 0.01 v 0.011 l -0.01,0.011 c -0.7372,-0.017 -1.382,0.4 -2.0586,1.2063 -1.5598,1.8592 -1.8882,2.8864 -1.8882,5.9012 0,1.5361 -0.092,2.8956 -0.205,3.0208 h -0.01 c 0.037,0.015 0.076,0.032 0.1133,0.049 0.01,0 0.015,0.011 0.02,0.011 v 0 c -8e-4,-9e-4 0,0 0,0 v 0 0 c 0.01,0 0.012,0 0.017,0.011 v 0 c 0,0 0.01,0 0.012,0.011 0,-9e-4 0,8e-4 -0.01,0 v 0 0 0 c 8e-4,3e-4 0,-3e-4 0,0 0,10e-5 0.01,0 0.01,0 0.047,0.02 0.095,0.041 0.1428,0.059 0.047,0.017 -0.094,-0.042 -0.1391,-0.061 0.2164,0.068 0.066,0.012 0.3092,0.118 h 0.012 v 0 0 0 0 c 7e-4,0 0,0 0,0 0.049,0.021 0.1936,0.086 0.1445,0.064 -0.071,-0.03 -0.1259,-0.056 -0.1683,-0.073 -0.1773,-0.056 -0.3913,-0.1262 -0.5233,-0.1708 0,10e-5 -0.011,0 -0.014,0 0.087,0.032 0.2301,0.087 0.4482,0.1668 8e-4,0 0,-10e-5 0.01,0 0.016,0 0.05,0.015 0.065,0.018 0.1573,0.051 0.3037,0.1103 0.4501,0.1749 h 0.01 v 0 0 c 5e-4,7e-4 0,0 0,0.011 0.056,0.021 0.1161,0.044 0.1775,0.064 v 0 0 0 0 0 0 0 0 0 0 0 c 0.058,0.023 0.1162,0.047 0.1738,0.071 0.039,0.016 0.1006,0.049 0.1739,0.089 0.1586,0.045 -0.075,-0.042 0.6202,0.3418 -0.095,-0.059 -0.1963,-0.1201 -0.3073,-0.1871 -0.038,-0.023 0.076,0.041 0.1135,0.061 0.091,0.057 0.368,0.222 0.2744,0.1709 -0.028,-0.016 -0.055,-0.031 -0.081,-0.045 0.1055,0.066 0.2014,0.1329 0.2984,0.1993 v 0 c 0,10e-5 0.01,0 0.01,0 v 0 c 0,6e-4 0,0 0,0 0.017,0.011 0.035,0.017 0.053,0.026 0.029,0.019 0.057,0.04 0.086,0.059 -0.02,-0.013 -0.036,-0.024 -0.052,-0.032 -0.019,-0.013 -0.059,-0.036 -0.088,-0.053 0.01,0.011 0.015,0.012 0.022,0.016 l 0.085,0.054 0.01,0.011 v 0 0 c 0.029,0.018 0.058,0.033 0.086,0.052 v 0 c 0.039,0.023 0.08,0.046 0.1024,0.061 0.028,0.018 0.056,0.038 0.085,0.057 0.041,0.025 0.082,0.05 0.1225,0.075 0.021,0.015 0.053,0.037 0.087,0.061 0.082,0.055 0.1615,0.109 0.2433,0.1667 -0.066,-0.05 -0.1031,-0.079 -0.1097,-0.086 0.022,0.012 0.1629,0.1072 0.2671,0.181 0.1338,0.082 0.2654,0.1667 0.3971,0.2604 0.035,0.026 0.063,0.048 0.088,0.064 0.015,0.011 0.028,0.015 0.042,0.025 0.037,0.025 0.1278,0.082 0.1645,0.1061 v 0 0 0 0 0 0 0 0 0 0 c 0.1456,0.091 0.2902,0.1835 0.4393,0.2868 0.067,0.045 0.2167,0.1659 0.3621,0.2889 0.1403,0.1039 0.2739,0.2144 0.41,0.3255 0.01,0.011 0.018,0.014 0.025,0.02 v 0 0 0 0 0 0 0.011 0 0 c 0.04,0.031 0.096,0.074 0.1281,0.1 l 0.01,0.013 0.01,0.011 v 0 c 0.01,0.011 0.02,0.015 0.029,0.022 0.037,0.027 0.077,0.054 0.1171,0.086 0.069,0.044 0.1409,0.09 0.2233,0.1444 0.054,0.035 0.1124,0.064 0.1628,0.1061 0.1283,0.084 0.253,0.1731 0.3788,0.2644 v 0 0 0 0 0 0 0 0 0 0 c 0,10e-5 0.01,0 0.01,0 0.019,0.014 0.039,0.025 0.057,0.039 0.057,0.043 0.2291,0.1748 0.1701,0.1342 0.1871,0.1399 0.3732,0.2807 0.5526,0.4352 0.021,0.018 -0.036,-0.035 -0.057,-0.053 0.1881,0.1505 0.3695,0.3109 0.5472,0.476 0.1879,0.1451 0.3723,0.2938 0.5598,0.4394 0.3345,0.2561 0.056,0.039 0.6699,0.5025 0.2745,0.2377 0.2557,0.2162 0.5068,0.4576 l 0.01,0.011 v 0 0 c 0.036,0.033 0.074,0.063 0.1078,0.1 0.2004,0.1756 0.3891,0.3667 0.569,0.5675 0.032,0.034 0.064,0.067 0.097,0.1018 -0.012,-0.014 -0.023,-0.027 -0.034,-0.041 0.011,0.011 0.022,0.021 0.03,0.032 0.012,0.013 0.024,0.026 0.037,0.041 0.01,0.011 0.015,0.016 0.022,0.025 0.025,0.027 0.052,0.055 0.077,0.082 0.01,0.011 0.012,0.017 0.019,0.026 0.081,0.086 0.1626,0.1692 0.2433,0.2542 0.1117,0.1319 0.2139,0.2715 0.3147,0.413 l 0.012,0.011 c 0.024,0.027 0.07,0.081 0.1026,0.1179 0.013,0.013 0.021,0.024 0.031,0.034 0.042,0.041 0.089,0.086 0.1409,0.1362 0.1334,0.1394 0.26,0.2856 0.3859,0.4332 0.4098,0.3549 0.7735,0.7739 1.0906,1.2308 0.01,0.011 -0.4693,-0.6076 -0.4643,-0.6006 0.09,0.1123 0.3404,0.637 0.43,0.7494 l 0.3442,-0.6788 c 0.6469,-2.5111 0.8192,-6.632 0.1443,-8.9069 -0.5944,-2.0096 -2.8982,-4.6408 -4.7943,-6.8374 -2.3017,-2.6665 -2.9958,-3.8332 -4.2245,-3.8624 z m 6.1498,17.3982 c -0.011,-0.012 -0.022,-0.021 -0.032,-0.032 0.01,0.011 0.017,0.021 0.025,0.03 h 0.01 z m -10.1772,-7.1806 c -0.041,-0.015 -0.082,-0.028 -0.1225,-0.043 0,0 -0.01,2e-4 -0.01,0 0.054,0.018 0.095,0.03 0.1317,0.043 z m 2.5014,1.2509 c 9e-4,10e-4 9e-4,0 0,0 v 0 c 0,-7e-4 0,0 0,0 z m 0.033,0.028 c 0.094,0.064 0.1886,0.1294 0.2837,0.1912 0.094,0.061 -0.057,-0.045 -0.2122,-0.1484 -0.024,-0.015 -0.048,-0.028 -0.071,-0.043 z m 0.8729,0.5858 c 0.064,0.042 0.1308,0.083 0.1958,0.1221 -0.041,-0.027 -0.082,-0.056 -0.1245,-0.081 -0.023,-0.014 -0.095,-0.056 -0.071,-0.041 z m 0.1958,0.1221 c -0.072,-0.043 -0.161,-0.093 -0.1172,-0.064 0.053,0.032 0.1078,0.062 0.161,0.094 h 0.01 c -0.015,-0.011 -0.029,-0.02 -0.05,-0.032 z m 0.044,0.028 c -0.049,-0.027 -0.1054,-0.057 -0.077,-0.041 v 0 c 0.039,0.021 0.076,0.045 0.1134,0.064 -0.01,-0.011 -0.018,-0.015 -0.027,-0.02 -0.01,0 0,0 -0.01,-0.011 z m 1.1127,0.7831 v 0 c 0,10e-4 0.01,4e-4 0.01,0 v 0 0 0 0 0 z m 0.01,0.011 v 0 0 c 0.061,0.048 0.1224,0.094 0.1848,0.1404 -0.031,-0.026 -0.065,-0.057 -0.1043,-0.09 -0.033,-0.022 -0.063,-0.045 -0.081,-0.055 z m 0.1574,0.1079 c 0.039,0.033 0.074,0.064 0.106,0.093 0.041,0.03 0.084,0.059 0.1245,0.09 -0.063,-0.053 -0.1246,-0.1029 -0.1884,-0.1526 -0.012,-0.011 -0.025,-0.018 -0.042,-0.03 z m 7.877,7.2762 c 3e-4,7e-4 -0.5273,0.079 0,0 v 0 c -0.3679,0.3312 0,4e-4 0,0 z"
       id="path60-1-9" /><path
       id="path55-5-3"
       style="display:inline;fill:#4a3014;stroke-width:0.419065"
       d="m 3070.6315,1439.0103 c -0.2667,0.01 -0.9212,0.6 -1.0748,0.8064 -0.1853,0.2488 -0.6187,0.5313 -1.3044,0.9658 -1.6997,1.0771 -3.8159,3.3953 -5.3072,6.5551 -1.1482,2.4327 -1.3182,3.2381 -1.3006,6.1517 0.011,1.8439 0.166,4.1069 0.3446,5.0288 0.3033,1.5666 0.1752,1.898 -1.9521,5.0648 -1.252,1.8637 -3.6318,6.0596 -5.2883,9.3242 l -3.0112,5.9357 h -1.8269 c -1.8902,0 -2.8499,0.9102 -1.9299,1.8301 0.9626,0.9627 0.4244,1.797 -1.556,2.4121 -2.2271,0.6916 -2.7114,1.6247 -1.524,2.9367 0.6167,0.6814 0.661,0.9755 0.2464,1.6394 -0.7805,1.2498 -0.6041,2.0604 0.5426,2.4964 1.2721,0.4837 1.2881,0.8332 0.1735,3.7659 -2.5657,6.7507 -5.7897,19.8563 -6.7017,27.2449 -0.2703,2.1896 -0.8274,4.0836 -0.8578,4.3797 -0.4096,3.9828 -0.157,5.4766 -0.01,8.7849 0.01,0.2325 0.4846,1.437 0.6368,2.922 0.6545,6.3883 3.6515,14.1976 7.5423,19.6502 3.8241,5.3589 10.6037,11.0367 18.1753,15.2214 1.2098,0.6686 1.4011,0.9809 2.2001,1.6026 0.799,0.6217 3.2771,-0.7282 1.8491,-1.6831 -1.4281,-0.9549 -1.1715,-0.8212 -1.953,-1.2275 -17.6684,-9.1855 -26.2538,-22.4993 -26.289,-40.7688 -0.012,-5.9951 1.7844,-16.7151 4.1907,-25.0154 0.2005,-0.6914 0.5374,-1.9172 0.7489,-2.7239 0.2114,-0.8067 1.1709,-3.8221 2.1321,-6.701 1.8456,-5.5276 1.8433,-5.6213 -0.1195,-6.457 -0.2734,-0.1164 -0.051,-0.5589 0.5402,-1.0755 l 1.0043,-0.8774 -0.9388,-0.9994 c -0.9349,-0.9951 -0.9354,-1.0015 -0.089,-1.4544 0.4674,-0.2502 1.7109,-0.4551 2.7632,-0.4551 2.0574,0 2.2547,-0.2265 1.2981,-1.4913 -1.0457,-1.3825 -0.7994,-1.9708 0.7489,-1.79 1.2317,0.1438 1.3713,0.059 1.2196,-0.7342 -0.3709,-1.9402 8.3299,-17.0822 12.1414,-21.13 3.4719,-3.6872 9.2757,-7.4347 13.9544,-9.0108 7.4924,-2.5238 23.1327,-2.5152 30.5917,0.017 2.8439,0.9656 4.9075,2.0468 8.3879,4.3928 5.6781,3.8274 10.0782,9.6094 15.3589,20.1839 2.5269,5.0602 2.8125,6.0013 1.921,6.3376 -0.047,0.018 -0.071,0.033 -0.074,0.044 v 8e-4 8e-4 9e-4 8e-4 8e-4 9e-4 8e-4 c 2e-4,4e-4 0,0 0,0 0.041,0.047 0.5579,0.022 1.3308,-0.072 1.4049,-0.1718 1.7811,-0.085 1.7811,0.4142 0,0.3478 -0.2829,0.8671 -0.6286,1.154 -1.3179,1.0937 -0.7308,1.6763 1.6893,1.6763 1.7644,0 2.381,0.1645 2.5823,0.6892 0.1567,0.4082 -0.019,0.8973 -0.4321,1.199 -0.9413,0.6883 -0.8764,1.23 0.2463,2.0585 0.5564,0.4106 0.7529,0.7806 0.4789,0.9036 -2.1065,0.9461 -2.1065,0.9215 -0.056,7.1372 2.4733,7.4966 3.3974,10.77 4.4247,15.6708 1.534,7.3178 1.7316,8.56 2.2369,14.1107 v 0.033 c 0.071,0.7769 0.147,1.5181 0.2235,2.1911 0.4968,5.9059 0.614,18.0125 -6.8917,26.4306 -0.1728,0.011 -1.0443,1.0378 -1.9357,2.2819 -3.3595,4.6885 -9.2661,9.4394 -16.5997,13.3512 -1.057,0.5638 -2.0639,1.2697 -2.7133,1.5723 -0.6494,0.3026 0.022,2.1185 1.5653,1.5972 1.5434,-0.5214 1.5347,-0.8562 2.5018,-1.391 5.1411,-2.843 9.5822,-6.1336 13.41,-9.9372 1.4981,-1.4886 2.8274,-2.9572 3.9362,-4.293 0.3068,-0.1522 0.6976,-0.4842 1.1835,-1.0566 3.3472,-3.9433 10.7579,-16.401 7.0987,-33.283 -0.6382,-7.4606 -3.0895,-18.1996 -6.4685,-28.196 -1.5101,-4.4674 -1.5189,-4.6998 -0.1972,-5.2023 1.0602,-0.4031 1.4418,-1.8023 0.6286,-2.3049 -0.6399,-0.3954 -0.4989,-1.7653 0.2095,-2.0372 1.1451,-0.4394 0.7178,-1.8085 -0.7334,-2.3499 -3.5281,-1.3162 -3.3366,-1.1404 -2.6625,-2.444 0.812,-1.5702 0.3955,-2.0936 -1.7933,-2.2541 l -1.8228,-0.1342 -2.7943,-5.4478 c -1.5368,-2.9964 -3.9532,-7.2394 -5.3693,-9.429 l -2.5741,-3.9811 0.6261,-2.3049 c 0.7691,-2.8304 0.5022,-6.8527 -0.6187,-9.3348 -0.837,-1.8534 -6.0629,-9.0514 -8.8757,-9.104 -0.2981,-0.01 -1.2394,0.7114 -2.0912,1.5804 -1.6693,1.703 -2.4105,4.3962 -1.8777,6.8221 0.3777,1.7194 -0.4464,1.9194 -3.657,0.8865 -4.5884,-1.4763 -7.0606,-1.8271 -14.3677,-2.0381 -7.8247,-0.2259 -13.6734,0.4055 -18.0738,1.9521 -3.873,1.3613 -3.6449,1.4186 -3.8155,-2.7358 -0.1483,-3.6103 -0.3222,-3.6305 -1.963,-5.0488 -1.0601,-0.9164 -2.1643,-1.4581 -2.7509,-1.4397 z m 49.155,2.5496 c 1.0681,-0.019 4.9816,4.0808 6.0355,6.3228 1.1045,2.3497 1.5541,5.263 1.1884,7.7019 -0.2548,1.6996 -0.7678,2.4073 -1.1393,1.5715 -0.2053,-0.462 -3.9867,-3.4726 -6.1902,-4.9289 -1.8129,-1.1981 -1.9269,-1.3902 -2.2427,-3.7716 -0.5879,-4.4336 0.2379,-6.8588 2.3483,-6.8957 z m -48.5256,0.027 c 0.4234,0.017 0.7472,0.2454 1.1475,0.6924 0.7278,0.8129 0.8868,1.99 0.7931,5.8546 l -0.063,2.6061 -3.0382,2.0626 c -1.6711,1.1344 -3.5923,2.6492 -4.2693,3.3656 -1.4962,1.5835 -1.8172,1.6161 -2.1673,0.221 -0.3867,-1.5405 0.058,-6.8511 0.6204,-7.4139 0.2601,-0.26 0.4731,-0.7865 0.4731,-1.1704 0,-1.0036 3.296,-4.9121 4.757,-5.641 0.8002,-0.3992 1.3233,-0.5939 1.7467,-0.577 z m -5.4323,27.2728 c -0.4294,-0.01 -0.6448,0.1577 -0.9773,0.4902 -1.0813,1.0813 -0.2304,1.9848 3.093,3.283 3.3746,1.3182 3.3315,1.3105 4.3839,0.7473 1.9326,-1.0344 0.2461,-2.6148 -4.2398,-3.973 -1.1872,-0.3594 -1.8305,-0.5399 -2.2598,-0.5475 z m 60.324,0.012 c -0.5455,0 -1.4428,0.2783 -3.3303,0.893 -3.6759,1.1971 -4.6519,2.1376 -3.5703,3.4409 0.6563,0.7908 0.8802,0.7626 4.5557,-0.5705 3.5163,-1.2753 4.4082,-2.1733 3.2805,-3.3009 -0.2999,-0.2999 -0.5112,-0.464 -0.9356,-0.4625 z m -47.5785,15.255 c -0.2664,0.01 -0.6338,0.038 -1.0379,0.085 -2.6938,0.3145 -5.7994,4.63 -5.5976,7.7789 0.021,0.3329 0.041,0.5092 0.07,0.5222 v 8e-4 0 0 0 0 0 c 0.034,-0.011 0.08,-0.2345 0.1523,-0.6801 0.4466,-2.7543 2.4828,-5.4993 4.933,-6.6511 1.045,-0.4912 1.9004,-0.9484 1.9071,-1.019 v -0.01 c -0.028,-0.027 -0.1867,-0.037 -0.4281,-0.029 z m 34.5,0.1981 -1.1721,0.034 1.2245,0.5402 c 1.4756,0.6511 4.4329,3.5096 4.4329,4.2848 0,0.3052 0.1886,0.5549 0.419,0.5549 0.983,0 0.2751,-1.4405 -1.6566,-3.3721 -1.5423,-1.5424 -2.3764,-2.0666 -3.2477,-2.0413 z m -4.1121,4.9944 c -1.3981,0 -4.6712,3.2865 -6.2164,6.2417 -1.39,2.6584 -1.3964,3.0654 -0.046,2.7264 0.6903,-0.1733 1.3165,-0.039 1.7818,0.3822 0.3946,0.3571 1.2824,0.9534 1.9734,1.3252 3.2434,1.745 7.7486,-1.2945 7.7486,-5.2277 0,-2.7984 -2.5491,-5.4478 -5.2416,-5.4478 z m -27.5977,0.1055 c -1.3131,0.04 -2.7631,0.804 -3.8338,2.0765 -1.8601,2.2107 -1.2237,6.1697 1.2989,8.0785 0.4662,0.3528 1.7574,0.6143 3.0701,0.6221 1.7902,0.011 2.5567,-0.2084 3.6538,-1.0453 1.0089,-0.7695 1.678,-0.9865 2.4489,-0.7931 1.3152,0.3302 1.3139,0.2398 -0.04,-2.6224 -1.3157,-2.7812 -4.1075,-5.8214 -5.7171,-6.2254 -0.2821,-0.071 -0.5776,-0.1 -0.8807,-0.091 z m 37.2231,1.4823 c -0.06,0 -0.1025,0.2578 -0.108,0.717 -0.01,0.6915 0.078,1.0253 0.1931,0.7416 0.1148,-0.2838 0.1218,-0.8495 0.015,-1.2572 -0.036,-0.137 -0.071,-0.202 -0.1007,-0.2014 z m -23.2385,9.7269 c -0.2756,0 -0.419,10.6129 -0.419,31.0002 v 31.0002 l -1.1909,0.6155 c -0.655,0.3387 -3.0217,0.9825 -5.2596,1.4299 -2.238,0.4473 -4.1775,0.9207 -4.3094,1.0525 -0.1319,0.1319 -0.1274,0.5308 0.01,0.8865 0.1364,0.3556 0.3953,0.6466 0.5753,0.6466 0.9513,-3e-4 6.8779,-1.3106 8.5704,-1.8948 1.806,-0.6235 2.1134,-0.6222 3.9811,0.015 2.4869,0.849 8.4982,1.942 8.9944,1.6353 0.6256,-0.3866 0.3967,-1.3664 -0.37,-1.5829 -0.4033,-0.1139 -1.5819,-0.3286 -2.6191,-0.4772 -1.0372,-0.1486 -3.1587,-0.6603 -4.7145,-1.1369 l -2.8287,-0.8659 v -31.1623 c 0,-20.4952 -0.1434,-31.1622 -0.4191,-31.1622 z" /></g></svg>
