<?xml version="1.0" encoding="UTF-8" standalone="no"?>
<!-- Created with Inkscape (http://www.inkscape.org/) -->

<svg
   version="1.1"
   id="svg1"
   width="206.47083"
   height="148.35046"
   viewBox="0 0 206.47083 148.35046"
   xml:space="preserve"
   xmlns="http://www.w3.org/2000/svg"
   xmlns:svg="http://www.w3.org/2000/svg"><defs
     id="defs1" /><g
     id="layer-MC0"
     transform="translate(471.87003,-1410.0449)"
     style="display:inline"><g
       id="g587"
       transform="matrix(0.14490786,0,0,0.13206413,372.34519,1164.105)"><path
         style="display:inline;fill:#ffffff;fill-opacity:1;stroke:none;stroke-width:10.4504;stroke-dasharray:none;stroke-opacity:1;paint-order:markers stroke fill"
         d="m -5427.7172,2750.0756 -80.7288,-164.0498 -65.8384,-169.9458 -18.8364,-406.7663 71.7299,-79.2737 544,25.0622 9.4601,151.3737 -280.4894,254.1041 z"
         id="path593"
         transform="translate(0,4e-5)" /><path
         id="path591"
         style="fill:#f1e9d6"
         d="m -5158.8909,1862.4148 c -99.5733,1.1677 -183.7918,11.0133 -263.5,30.8066 -102.4394,25.4379 -164.0632,64.3728 -172.5273,109.0039 -3.4379,18.1277 -3.7714,140.4047 -0.5664,207.3555 2.2446,46.8884 5.8976,98.434 9.1426,129 0.8174,7.7 2.1332,20.3 2.9238,28 4.081,39.7471 14.856,107.194 22.0273,137.8867 1.6829,7.2025 1.4825,9.6133 -0.7968,9.6133 -4.2539,0 -53.072,15.2531 -75.2032,23.498 -73.7857,27.4884 -122.0457,54.8592 -155.25,88.0508 -7.6738,7.6708 -12.25,13.0093 -12.25,14.2891 0,1.1237 -0.45,2.3221 -1,2.6621 -0.6499,0.4016 -1,23.0976 -1,64.8223 0,72.8211 -0.4336,68.6233 8.4473,81.6289 8.7512,12.8156 10.9139,15.6633 19.082,25.1172 7.884,9.1252 28.2553,28.8898 34.3575,33.3359 1.581,1.152 7.0905,5.286 12.2441,9.1855 78.1451,59.1283 204.7935,99.9921 365.3691,117.8887 50.6541,5.6456 84.2129,7.8796 164,10.9141 h 0.01 c 11.3799,0.4328 147.2592,-0.3634 158,-0.9258 39.9952,-2.094 52.2729,-2.8402 74.1699,-4.502 120.9487,-9.1787 221.6943,-29.0654 304.8301,-60.1738 38.5968,-14.4424 75.3424,-32.8461 104,-52.0859 31.666,-21.2595 62.1945,-50.2431 78.1582,-74.2051 9.0097,-13.5238 10.7593,-16.5114 16.4062,-28 6.6692,-13.5687 11.6993,-28.1579 14.9649,-43.4102 1.8708,-8.7378 2.1429,-12.4006 1.707,-22.9921 -1.1329,-27.5289 -12.0694,-49.6465 -36.6562,-74.1387 -23.2168,-23.1274 -45.9961,-38.4565 -87.8946,-59.1446 -12.2732,-6.0601 -22.0984,-11.2355 -21.8339,-11.5 0.2646,-0.2646 6.7613,-3.3042 14.4394,-6.7558 41.8061,-18.7938 74.0964,-40.6845 104.0488,-70.5391 12.6847,-12.6431 22.2987,-23.7986 30.6973,-35.6172 23.3213,-32.8176 36.821,-64.0779 43.9102,-101.6796 7.9466,-42.1495 1.6395,-100.3512 -15.752,-145.3594 -22.4138,-58.0055 -64.1041,-92.8122 -132.6953,-110.7832 -30.1265,-7.8932 -78.2255,-13.4269 -117.75,-13.5469 l -11.25,-0.033 -0.01,-13.25 c -0.01,-20.4065 -1.8775,-50.5812 -3.5468,-57.25 -1.7429,-6.9628 -7.0525,-18.612 -11.293,-24.7754 -4.5379,-6.5956 -16.8231,-18.7504 -25.2598,-24.9922 -45.2405,-33.4704 -121.8533,-58.7101 -225.3965,-74.2558 -68.0556,-10.2177 -130.4239,-14.0935 -211.5,-13.1426 z m 33.5,133.289 c 13.172,-0.034 14.9758,0.2106 30.5,4.1231 17.9467,4.5231 27.467,5.702 58.8692,7.293 22.5045,1.1402 27.1308,2.207 27.1308,6.2539 0,1.3179 -0.9,3.2115 -2,4.207 -1.1,0.9954 -2,2.3231 -2,2.9512 0,0.6281 -1.6875,2.7375 -3.75,4.6875 -10.3656,9.8001 -26.8326,15.8467 -53.9414,19.8086 -6.962,1.0175 -34.7493,1.2837 -38.8086,0.3711 -1.1,-0.2473 -5.6,-1.3176 -10,-2.377 -21.0196,-5.0609 -43.1422,-5.1416 -94.125,-0.3437 -12.6286,1.1884 -17.6752,-1.2822 -16.0273,-7.8477 1.7255,-6.875 13.0659,-16.8421 23.6562,-20.793 35.6041,-13.2826 57.5196,-18.275 80.4961,-18.334 z m -435.9941,8.6133 c 0.4616,0.014 1.0426,0.1172 1.8008,0.2696 6.2802,1.2619 6.4214,1.3863 6.9472,6.0507 0.4098,3.6357 1.6483,5.8924 6.4336,11.7227 6.7278,8.1971 20.152,20.1395 28.3125,25.1875 42.4122,26.2359 91.8348,43.0917 162.5,55.4219 17.4875,3.0513 58.6197,8.4706 73.2559,9.6523 9.021,0.7283 11.3171,1.8856 5.4746,2.7578 -28.2519,4.2176 -34.2503,4.7012 -58.3281,4.7012 -13.6562,0 -29.4581,-0.4693 -35.1153,-1.041 -31.0852,-3.1412 -60.9511,-8.1999 -82.2871,-13.9395 -4.4,-1.1837 -9.8,-2.5958 -12,-3.1386 -14.6683,-3.619 -36.2958,-11.7283 -38.5605,-14.4571 -0.6506,-0.7839 -2.4427,-1.4238 -3.9805,-1.4238 -8.7697,0 -13.2059,26.1378 -16.3808,96.5 -2.0067,44.4741 -2.6883,101.7974 -1.5332,129.0391 0.9937,23.4389 3.3284,52.4744 4.9003,60.9609 0.5093,2.75 1.2095,7.7 1.5567,11 1.1525,10.9545 5.0864,33.8277 11.5234,67 0.7348,3.7864 2.0622,9.6138 5.5801,24.5 0.8448,3.575 1.9326,8.3 2.416,10.5 0.4835,2.2 1.8391,7.6 3.0137,12 1.1747,4.4 2.7866,10.7 3.582,14 0.7954,3.3 2.4943,9.6 3.7754,14 1.2812,4.4 3.1213,10.925 4.0879,14.5 0.9666,3.575 3.2266,11.225 5.0234,17 1.7968,5.775 4.5201,14.55 6.0508,19.5 4.0915,13.2311 19.7517,58.0097 22.8086,65.2187 1.4506,3.421 2.6367,6.9085 2.6367,7.75 0,0.8416 -0.3876,1.5313 -0.8613,1.5313 -0.8971,0 -9.621,-11.2054 -14.793,-19 -1.6422,-2.475 -4.3585,-6.525 -6.0371,-9 -7.2562,-10.6989 -22.0267,-41.4224 -27.8828,-58 -7.2526,-20.5312 -8.9709,-25.65 -12.4238,-37 -2.0915,-6.875 -4.2796,-14.525 -4.8633,-17 -0.5837,-2.475 -1.9885,-7.875 -3.1211,-12 -2.2693,-8.2645 -2.4714,-9.1327 -6.9336,-30 -6.0852,-28.4574 -10.7513,-55.746 -14.0527,-82.1816 -1.0771,-8.6241 -2.1937,-16.7241 -2.4824,-18 -0.2887,-1.2759 -1.4082,-11.3184 -2.4883,-22.3184 -7.3648,-75.0069 -9.0024,-106.3475 -10.0059,-191.5 -0.8411,-71.3694 -0.506,-68.1656 -8.8359,-84.5703 l -4.0274,-7.9297 0.9375,-25.5 c 0.5156,-14.025 1.3978,-27.219 1.961,-29.3184 0.7294,-2.7186 1.0313,-3.4875 2.416,-3.4453 z m 906.3281,217.2754 c 32.0883,0.014 43.422,1.3814 62.8047,7.5762 17.6236,5.6326 27.2036,11.5415 38.5195,23.7637 7.4324,8.0277 12.3595,16.7634 16.4414,29.1484 2.6103,7.9197 2.7986,9.6264 2.8086,25 0.01,15.0785 -0.2175,17.1892 -2.5996,24.5 -3.8505,11.8176 -6.3452,17.0877 -12.3047,25.9883 -15.4391,23.0585 -42.3251,43.5619 -74.5761,56.873 -18.1864,7.5062 -45.4213,15.579 -65.9278,19.543 -12.7755,2.469 -14.9446,2.8171 -15.3086,2.4531 -0.2108,-0.2108 0.4394,-5.6654 1.4434,-12.1211 3.7917,-24.3795 8.0688,-61.5121 12.8691,-111.7363 0.9703,-10.151 3.0278,-39.3406 5.0762,-72 0.6209,-9.9 1.3438,-18.225 1.6074,-18.5 0.2636,-0.275 13.3798,-0.4983 29.1465,-0.4883 z m 194.3926,689.4551 c -2.4398,0.073 -4.8519,0.7272 -6.9844,2.0273 -9.6609,5.8903 -9.6609,20.0316 0,26.0547 2.4627,1.5354 4.6121,1.9633 8.7949,1.75 4.5199,-0.2306 6.0689,0.1375 8.4415,2.0039 5.6849,4.4717 9.6259,0.9585 5.4707,-4.8769 -1.8375,-2.5806 -2.0129,-3.4884 -1.0723,-5.5528 1.7531,-3.8477 1.3424,-10.5023 -0.8711,-14.1328 -2.9158,-4.7823 -8.4118,-7.4344 -13.7793,-7.2734 z m 0.9141,7.0332 c 7.1003,0 10.702,8.9794 5.5449,13.8242 -5.2862,4.9662 -13.6856,1.3058 -13.6856,-5.9648 0,-4.6156 3.3605,-7.8594 8.1407,-7.8594 z m -0.1407,1 c -1.4919,0 -7,5.4973 -7,6.9863 0,0.6274 1.2375,2.4408 2.75,4.0293 1.5125,1.5884 3.3484,2.9086 4.0782,2.9356 1.6073,0.058 7.1718,-5.3352 7.1718,-6.9512 0,-1.499 -5.5011,-7 -7,-7 z" /><path
         id="path590"
         style="fill:#d3b89b"
         d="m -5158.8909,1863.3992 c -75.2217,0.8853 -129.3171,5.4933 -196.2226,16.7148 -124.2893,20.846 -209.7919,59.4965 -232.6153,105.1504 -5.711,11.4238 -6.8894,16.9589 -8.2324,38.6933 -1.5663,25.3491 -0.6175,150.4299 1.4375,189.6231 6.0491,115.3692 15.6062,200.3549 31.1953,277.3711 2.4905,12.3041 4.3969,22.4944 4.2344,22.6465 -0.1625,0.1521 -7.7219,2.3799 -16.7969,4.9511 -65.6334,18.5959 -128.9815,45.2871 -170.5,71.836 -23.8473,15.2491 -50.2986,38.0019 -57.6425,49.582 l -2.8575,4.5039 v 63.9082 63.9102 l 2.5547,5.084 c 7.9384,15.8051 25.931,37.9337 46.4453,57.1191 51.224,47.9061 130.7446,86.0413 232.5,111.5 21.0291,5.2614 25.7533,6.3152 50,11.1523 73.12,14.587 164.6833,24.2388 255,26.879 66.1376,1.9333 158.8535,0.8681 214.0801,-2.459 188.9135,-11.381 330.9582,-46.1212 427.5527,-104.5664 69.0965,-41.8073 112.994,-96.266 124.9961,-155.0703 2.9678,-14.5405 2.3208,-32.6147 -1.6074,-44.8477 -10.8277,-33.7185 -37.8463,-62.635 -85.5215,-91.5313 -10.7574,-6.5201 -39.6051,-21.4814 -51.248,-26.5781 -4.2619,-1.8656 -7.623,-3.7719 -7.4688,-4.2363 0.1541,-0.4643 7.0838,-3.8886 15.3985,-7.6094 60.8431,-27.2269 108.4833,-66.1256 141.5097,-115.5449 14.2073,-21.2593 27.6944,-51.3107 33.7481,-75.1992 11.5301,-45.4983 8.3648,-101.9654 -8.5371,-152.3008 -4.8314,-14.3885 -16.971,-38.5382 -25.1348,-50 -8.6777,-12.1836 -25.1456,-28.6397 -37.2676,-37.2422 -11.9352,-8.4699 -35.828,-20.425 -51.4785,-25.7578 -34.8921,-11.8892 -76.8259,-18.3218 -129.5215,-19.8691 l -21.5,-0.6309 -0.2246,-11.5 c -0.1244,-6.325 -0.6882,-21.2421 -1.2519,-33.1484 -1.0904,-23.0329 -2.3581,-29.6135 -7.7715,-40.3516 -30.0323,-59.5726 -160.5305,-104.6183 -344.7227,-118.9902 -36.171,-2.8223 -72.8103,-3.7765 -122.5293,-3.1914 z m -64.5,31.4668 c 27.0401,-1.7376 139.9599,-1.7376 167,0 29.9688,1.9258 66.0921,5.4141 90.5,8.7402 142.7219,19.4493 242.2158,61.2788 250.877,105.4746 0.5929,3.025 1.1883,9.5748 1.3242,14.5566 0.2923,10.7173 0.294,10.7141 -13.0391,22.7793 -27.7301,25.0932 -54.5399,40.3406 -118.6621,67.4844 -10.45,4.4236 -21.544,9.4344 -24.6543,11.1348 -7.1138,3.8893 -12.5161,9.7795 -13.4277,14.6386 -1.2605,6.7192 0.4514,26.5755 4.0449,46.9063 11.4131,64.5704 15.5452,101.1836 15.5352,137.7988 -0.01,47.735 -6.4012,79.6272 -21.8926,109.211 -16.0529,30.6562 -31.5502,48.0002 -62.1055,69.5136 -28.2043,19.8581 -36.5112,29.5955 -49.5976,58.1289 -3.9483,8.6088 -9.3178,18.9588 -11.9317,23 -30.2338,46.7434 -85.9053,75.3948 -161.9707,83.3614 -8.9046,0.9326 -33.0832,1.9508 -59.5,2.5058 -59.6721,1.2538 -80.3436,3.041 -104.3203,9.0117 -18.8192,4.6864 -35.2223,12.7419 -43.6523,21.4395 -1.8808,1.9404 -3.6693,3.5293 -3.9746,3.5293 -0.3053,0 -5.7284,-2.3913 -12.0528,-5.3125 -22.0071,-10.1652 -48.4057,-26.4622 -66.8047,-41.2441 -9.4093,-7.5595 -20.1169,-21.6496 -29.5957,-38.9434 -21.9071,-39.9689 -39.6083,-103.5887 -53.0585,-190.6914 -4.8911,-31.6743 -8.0873,-58.5772 -12.5567,-105.7207 -8.753,-92.3277 -13.1518,-239.3203 -9.0723,-303.1719 0.7623,-11.9312 1.0048,-12.9678 4.6719,-20 11.6646,-22.3693 46.6175,-44.3015 99.416,-62.3808 32.5827,-11.1571 63.3961,-18.7321 112,-27.5333 31.4303,-5.6914 81.6441,-11.3343 126.5,-14.2167 z m 119.0684,9.6464 c -50.8098,-1.0386 -102.8934,-0.067 -149.0684,3.0645 -148.4206,10.0651 -247.9068,40.8882 -282.6113,87.5586 -3.787,5.0928 -5.7769,6.9453 -7.4687,6.9453 -1.2687,0 -3.5478,1.0665 -5.0645,2.3711 -5.8097,4.9974 -2.5327,12.4436 11.3008,25.6738 30.8982,29.5507 85.5004,52.577 160.8437,67.8281 48.6424,9.8463 113.829,17.0423 173.5,19.1543 39.5216,1.3988 129.5218,0.319 164,-1.9687 43.5016,-2.8865 75.237,-6.3931 110,-12.1504 82.8823,-13.7266 147.0031,-37.8445 182.5059,-68.6465 10.8418,-9.4062 18.4941,-19.4492 18.4941,-24.2734 0,-2.8905 -5.2657,-7.9883 -8.2519,-7.9883 -1.7031,0 -3.3414,-1.2996 -5.5977,-4.4414 -29.8883,-41.6187 -105.1439,-70.2451 -221.1504,-84.1231 -41.0859,-4.9151 -90.6218,-7.9652 -141.4316,-9.0039 z m -24.8125,89.6817 c 12.1335,-0.3492 23.3652,0.9015 33.5605,3.7558 15.0443,4.2118 27.7211,5.9267 52.6836,7.1289 24.6205,1.1857 29.4222,1.7134 33.25,3.6563 3.2964,1.6732 3.4825,3.9898 0.7481,9.3496 -7.2418,14.1953 -28.8513,24.194 -61.5508,28.4805 -10.5906,1.3883 -29.6529,1.8041 -36.9473,0.8047 -1.65,-0.2261 -7.5,-1.562 -13,-2.9668 -8.8458,-2.2593 -12.5971,-2.6082 -32.5,-3.0235 -20.9633,-0.4376 -32.9473,0.1942 -64.5293,3.4004 -9.8994,1.005 -15.4419,-3.5983 -13.3691,-11.1055 1.4894,-5.394 10.6946,-14.7296 18.1133,-18.3691 8.2295,-4.0375 30.3742,-11.623 44.5664,-15.2676 13.8048,-3.5451 26.8411,-5.4945 38.9746,-5.8437 z m 468.1172,226.0488 c 51.1653,-0.882 84.6091,8.3012 105.1211,28.8633 14.4152,14.4505 21.6116,31.4174 22.7168,53.5547 0.8081,16.1859 -2.171,30.8597 -9.0332,44.4922 -19.3899,38.5203 -64.1766,67.5155 -128.9239,83.4648 -16.7438,4.1245 -34.6378,7.4785 -35.1406,6.5879 -0.1946,-0.3447 0.477,-6.025 1.4942,-12.625 4.4679,-28.9877 8.831,-66.4955 12.8515,-110.5 1.3553,-14.8335 3.6488,-47.2355 5.0957,-72 0.6266,-10.725 1.5554,-19.9383 2.0645,-20.4727 0.5236,-0.5498 10.8381,-1.1426 23.7539,-1.3652 z m -377.2246,16.5859 c -9.422,0.043 -17.7851,2.9163 -27.7539,9.5332 -5.4827,3.6392 -18.9953,16.7405 -24.9805,24.2188 -9.1557,11.4396 -24.2243,37.4772 -30.9609,53.5 -1.7343,4.125 -3.4755,7.8463 -3.8711,8.2695 -0.3956,0.4232 -2.6701,-2.9518 -5.0528,-7.5 -20.3642,-38.8713 -48.8284,-70.1918 -71.5039,-78.6758 -16.0537,-6.0064 -32.9645,-4.3573 -44.5254,4.3418 -4.9511,3.7255 -10.6116,12.5754 -13.0429,20.3907 -3.9394,12.6629 -3.6544,38.6966 0.6347,58.1738 16.4546,74.7217 63.4885,154.5185 120.9082,205.1269 5.5,4.8476 10.9,8.8259 12,8.8399 3.4797,0.045 41.9666,-52.8811 64.9532,-89.3223 33.6832,-53.3988 52.9841,-94.2385 61.2187,-129.5371 2.3172,-9.9327 2.7123,-13.8443 2.7363,-27.1074 0.023,-12.7678 -0.3544,-16.9418 -2.1367,-23.6738 -4.4035,-16.6323 -12.382,-27.7956 -23.9297,-33.4805 -5.6251,-2.7692 -7.3421,-3.1317 -14.6933,-3.0977 z m -513.1407,311.252 c 1.3978,0 5.8128,13.1172 5.2989,15.7441 -0.2027,1.0361 -3.5152,2.4907 -9.8067,4.3086 -84.2703,24.3489 -150.23,54.2984 -175.7168,79.7852 -13.3827,13.3826 -19.2832,28.0367 -19.2832,47.8926 0,16.7853 3.5314,29.9868 12.67,47.3632 17.248,32.7961 53.7301,62.156 100.9101,81.2149 35.5301,14.3528 70.4106,22.0042 128.4199,28.166 73,7.7542 93.2828,8.7387 185,8.9785 64.5042,0.1686 84.2156,0.5413 104.5,1.9824 47.541,3.3775 111.2048,1.0243 188.5,-6.9687 34.6109,-3.5791 96.0935,-10.7183 116,-13.4707 4.125,-0.5704 21.9,-2.8505 39.5,-5.0664 40.3238,-5.0769 44.2426,-5.5657 59.5,-7.4082 6.875,-0.8303 15.875,-1.953 20,-2.4961 39.1253,-5.1513 91.8593,-9.4809 104.9805,-8.6192 27.6177,1.8136 28.8487,1.8187 38.6699,0.1446 19.4008,-3.307 40.5801,-10.068 60.8496,-19.4239 54.6744,-25.2366 93.5901,-60.6662 106.5957,-97.0449 2.1838,-6.1083 2.338,-6.2851 3.2012,-3.6953 1.2772,3.8315 -1.6894,20.6342 -5.9277,33.5781 -6.3687,19.4503 -21.2826,45.7364 -32.2676,56.8711 -5.014,5.0822 -22.8927,16.0442 -44.1016,27.041 -42.8997,22.2434 -101.6936,41.7853 -156.5,52.0157 -46.3132,8.6451 -140.1728,22.2671 -190,27.5761 -8.25,0.879 -18.825,2.0214 -23.5,2.5391 -31.6025,3.4994 -87.1887,6.7588 -136.0019,7.9727 -43.231,1.0746 -81.9009,1.0636 -149.9981,-0.043 -77.8067,-1.2644 -131.9898,-5.3193 -200,-14.9668 -142.2971,-20.1854 -269.6653,-61.6515 -322.5,-104.9941 -8.4896,-6.9643 -19.0296,-17.8679 -23.1777,-23.9766 -15.2591,-22.4714 -17.444,-47.5927 -6.6543,-76.5 4.0628,-10.8849 15.9556,-33.8 21.0801,-40.6172 15.3725,-20.4499 65.6118,-48.2607 135.7519,-75.1445 21.6014,-8.2795 62.3043,-22.7383 64.0078,-22.7383 z m 1091.4922,364.0117 c -14.5541,0 -19.4775,19.5681 -6.6601,26.4707 2.6074,1.4042 4.6637,1.694 8.9277,1.2539 4.9584,-0.5118 5.7775,-0.3184 7.8106,1.8457 1.2493,1.3298 2.8825,2.418 3.6289,2.418 2.4856,0 2.6086,-3.0366 0.2265,-5.5723 -2.0875,-2.222 -2.2008,-2.7997 -1.1269,-5.7695 3.8863,-10.7474 -2.2537,-20.6465 -12.8067,-20.6465 z m 0.959,4.5469 c 0.4092,0.01 0.791,0.052 1.1348,0.1367 3.3737,0.8296 5.0129,2.3179 6.5137,5.9082 1.6499,3.947 0.5719,8.2033 -2.6602,10.4961 -5.0577,3.588 -9.9777,3.0772 -13.3047,-1.3789 -2.318,-3.1048 -2.5672,-8.9019 -0.4902,-11.4063 1.7437,-2.1025 5.9422,-3.8138 8.8066,-3.7558 z m -0.959,3.2871 -3.0683,3.0703 -3.0703,3.0684 2.8203,2.959 c 1.5509,1.6274 2.9667,2.9808 3.1465,3.0078 0.1798,0.026 1.6761,-1.3012 3.3261,-2.9512 l 3,-3 -3.0761,-3.0781 z" /><path
         id="path589"
         style="fill:#ab8762"
         d="m -5047.8909,1866.3542 c -32.7801,-2.5404 -151.3095,-2.5365 -184,0.01 -84.6948,6.5969 -145.4462,16.197 -205,32.3945 -34.3387,9.3396 -59.2194,18.5502 -84.5,31.2813 -34.1616,17.2035 -54.7639,34.5207 -65.4082,54.9804 -8.4521,16.2461 -9.416,27.593 -9.416,111.0606 0,57.0679 0.4121,73.2601 3.3613,131.5 5.175,102.1954 15.452,190.7644 30.918,266.4609 2.7846,13.6309 3.6437,19.6678 2.8692,20.1465 -0.6083,0.3759 -8.4972,2.7815 -17.5313,5.3457 -56.3427,15.9924 -114.5896,39.4973 -153.8574,62.0879 -31.2087,17.9543 -59.2117,40.3268 -72.4903,57.9141 l -3.9453,5.2265 v 63.3262 63.3262 l 3.6133,6.582 c 14.2142,25.8969 43.3913,56.9552 75.3867,80.2481 59.2211,43.1135 145.2208,76.8295 248.1192,97.2734 29.3743,5.8361 48.7796,9.0259 88.3808,14.5273 8.0106,1.1129 37.739,4.4034 54,5.9766 30.0572,2.9079 92.6247,6.8013 118.5,7.375 v 0 c 32.5831,0.7224 139.9983,0.5241 164,-0.3027 65.0361,-2.2403 129.7077,-7.6835 184.9063,-15.5645 211.0371,-30.1308 350.247,-100.6492 400.6367,-202.9492 22.2471,-45.1655 22.3107,-81.0439 0.2031,-114.6895 -19.7833,-30.1081 -52.8304,-55.4695 -107.5644,-82.5468 -13.9258,-6.8891 -24.9508,-12.8567 -24.5,-13.2618 0.4507,-0.405 6.2183,-3.1038 12.8183,-5.998 32.7376,-14.3559 56.9643,-28.769 82.8301,-49.2773 12.97,-10.2835 38.1704,-35.4106 47.9141,-47.7754 28.1429,-35.7138 44.8258,-72.6155 52.4179,-115.9512 2.8179,-16.0848 2.5632,-59.4294 -0.457,-77.8457 -14.3658,-87.6001 -49.0894,-135.4918 -117.7969,-162.4668 -34.5277,-13.5559 -90.7607,-22.6581 -140.2539,-22.7031 -9.1599,-0.01 -17.2171,-0.3731 -17.9062,-0.8106 -0.9151,-0.581 -1.516,-8.3281 -2.2266,-28.7344 -0.5352,-15.3665 -1.2328,-30.4144 -1.5508,-33.4394 -2.2116,-21.0382 -15.2284,-40.9084 -38.0254,-58.043 -45.3087,-34.0547 -125.4173,-59.8018 -234.4453,-75.3535 -23.0713,-3.2908 -55.4025,-6.6411 -90,-9.3262 z m -18,27.1856 c 52.704,2.9779 96.1563,7.7003 138.5,15.0527 95.4816,16.5791 166.5933,43.3396 197.6192,74.3672 9.4463,9.4468 13.9339,16.913 15.7011,26.1211 1.6588,8.6438 2.4008,89.2008 1.252,136 -4.946,201.4853 -27.0803,359.0022 -62.7422,446.5 -7.4475,18.2726 -16.777,35.1427 -28.7558,52 -10.8007,15.1992 -11.9119,16.4077 -22.2207,24.1738 -60.7631,45.7758 -145.796,71.6592 -257.3536,78.336 -83.3997,4.9915 -166.3769,-1.7762 -232.0898,-18.9297 -25.5855,-6.6788 -62.878,-19.8031 -82.4473,-29.0157 -20.0703,-9.4485 -44.3282,-24.5049 -61.5703,-38.2148 -37.5169,-29.8312 -66.601,-108.4484 -84.8457,-229.3496 -1.162,-7.7 -2.5255,-16.7 -3.0312,-20 -3.35,-21.8614 -8.5538,-69.5349 -11.461,-105 -3.0475,-37.1766 -3.4994,-44.2286 -6.5937,-103 -1.4748,-28.0115 -2.3341,-156.8148 -1.1856,-177.7188 0.9575,-17.4271 1.0328,-17.8456 4.627,-25.414 15.1869,-31.9793 80.2487,-63.5286 172.0976,-83.4512 48.7039,-10.5642 95.5741,-16.9174 159,-21.5527 33.6964,-2.4627 128.7304,-2.9819 165.5,-0.9043 z m -145.8105,54.4355 c -47.6142,2.1549 -92.7089,6.4409 -131.1895,12.6699 -73.1691,11.8442 -134.7824,32.5764 -169.6777,57.0938 -3.3986,2.3878 -6.7736,4.3265 -7.5,4.3105 -1.7998,-0.041 -8.5242,-6.2568 -14.2969,-13.2187 -4.025,-4.8543 -5.2765,-5.75 -8.0351,-5.75 -8.0071,0 -10.2543,7.1184 -4.7657,15.0957 8.4478,12.2785 30.6567,29.3315 53.1153,40.7812 63.6239,32.4362 168.4155,53.0529 290.1601,57.086 32.6308,1.0812 95.2901,1.0982 125.209,0.035 144.8821,-5.1484 252.9527,-29.0276 314.291,-69.4453 19.8163,-13.0576 35.5,-29.2042 35.5,-36.5488 0,-3.3585 -4.3787,-7.0039 -8.4121,-7.0039 -3.1274,0 -4.0824,0.7262 -8.9121,6.7793 -5.0591,6.3407 -11.4933,12.2248 -13.3574,12.2148 -0.4492,0 -2.8434,-1.3689 -5.3184,-3.039 -46.4819,-31.3653 -118.6259,-53.0718 -212.5,-63.9336 -5.5,-0.6364 -13.375,-1.5675 -17.5,-2.0703 -10.829,-1.3199 -46.1438,-3.7969 -70.5,-4.9453 -48.5625,-2.2898 -98.6963,-2.2662 -146.3105,-0.1114 z m 83.959,44.4004 c 10.1279,-0.2735 19.2125,0.6298 26.8847,2.7207 21.385,5.8279 30.8663,7.1164 65.9668,8.961 10.725,0.5635 21.1921,1.4954 23.2598,2.0722 4.4454,1.2401 7.2002,4.8427 6.2363,8.1524 -1.2676,4.3531 -7.7605,12.822 -12.4941,16.2968 -11.5549,8.4821 -31.7381,15.3646 -51.002,17.3907 -22.3207,2.3477 -40.0578,1.8694 -49.9843,-1.3477 -9.7893,-3.1726 -18.6019,-4.0421 -40.5157,-3.9941 -13.6066,0.03 -28.9707,0.7451 -40.2714,1.875 -21.3192,2.1314 -27.2411,1.8524 -30.7598,-1.4532 -7.1272,-6.6957 2.1581,-21.8669 18.0683,-29.5195 9.8068,-4.7168 37.1488,-13.6496 51.4629,-16.8125 11.8483,-2.6181 23.0205,-4.0682 33.1485,-4.3418 z m 465.1504,226.8574 c 12.0493,-0.2108 26.2743,0.1998 36.2089,1.3457 42.5733,4.9105 68.3094,18.216 82.6153,42.711 8.5058,14.5639 12.4475,30.8349 11.5762,47.791 -0.6982,13.5894 -3.4761,24.0982 -9.6485,36.5 -6.2704,12.5987 -12.502,20.8289 -24.3027,32.1016 -27.2483,26.0292 -68.878,44.9465 -122.7481,55.7793 -4.125,0.8295 -9.8625,1.815 -12.75,2.1914 -6.2235,0.8111 -6.0216,1.5581 -3.7109,-13.8262 4.7015,-31.3026 9.7419,-75.7152 12.9082,-113.7461 3.1173,-37.4421 3.5088,-42.9413 4.6445,-65 0.6371,-12.375 1.5589,-22.9335 2.0469,-23.4629 1.2367,-1.3413 11.1108,-2.1739 23.1602,-2.3848 z m -375.6778,18.5 c -9.6856,0.065 -18.7212,3.3881 -28.8437,10.6114 -18.8464,13.4485 -40.0795,43.5515 -54.4805,77.2363 -1.8811,4.4 -3.7865,8.3718 -4.2344,8.8262 -0.4479,0.4545 -3.5749,-4.4311 -6.9492,-10.8555 -3.3743,-6.4244 -9.4679,-16.6961 -13.541,-22.8262 -27.642,-41.601 -55.3582,-60.7635 -81.9414,-56.6523 -22.6897,3.509 -33.6309,20.2701 -33.6309,51.5234 0,44.2085 23.2883,107.154 60.4844,163.4844 21.179,32.0737 42.9427,56.9427 69.8633,79.8359 2.1159,1.7994 4.5617,3.1351 5.4355,2.9668 2.7322,-0.5262 30.8266,-38.6322 52.9375,-71.8027 40.8865,-61.3378 65.7504,-112.9797 73.4219,-152.5 2.0182,-10.3965 1.7715,-33.238 -0.4609,-42.7539 -3.808,-16.2316 -12.2033,-28.4161 -23.3633,-33.9102 -5.8269,-2.8686 -7.5022,-3.2316 -14.6973,-3.1836 z m -512.9804,309.002 c 1.5418,0.1142 2.1158,1.2337 3.5293,5.8437 1.0119,3.3 2.5253,8.925 3.3632,12.5 3.0992,13.2223 14.7903,43.7164 23.1836,60.4668 8.2868,16.5379 13.7694,24.7703 42.6387,64.0332 48.0883,65.4012 77.5658,93.6299 118.1445,113.1348 33.5171,16.1106 70.6742,24.5737 132,30.0645 29.1872,2.6136 147.4469,2.6208 177,0.012 74.9222,-6.6146 119.5561,-19.2202 157.2891,-44.4219 32.1569,-21.4774 54.8265,-46.3283 104.248,-114.2871 19.0521,-26.1982 26.2343,-37.7135 34.4239,-55.1816 l 5.9453,-12.6797 10.0469,-3.1289 c 27.9152,-8.6932 55.1015,-17.5784 73.5468,-24.0371 11.275,-3.9481 21.6375,-7.3933 23.0274,-7.6563 2.7523,-0.5208 13.5052,3.5235 36.4726,13.7207 40.6912,18.0664 73.6982,38.5714 94.8477,58.9219 10.8643,10.4538 17.4833,19.0682 22.6992,29.541 9.8635,19.8045 10.3726,35.4 1.9805,60.6523 -6.5851,19.815 -21.6929,45.7112 -33.459,57.3477 -14.5233,14.3633 -67.9728,41.0973 -111.7383,55.8906 -48.0736,16.2494 -80.7433,23.1843 -175.3301,37.2129 -5.5,0.8158 -12.7,1.9175 -16,2.4492 -14.7667,2.3795 -57.6262,7.8512 -85,10.8516 -37.6082,4.122 -64.1016,6.3915 -102,8.7402 -20.367,1.2622 -47.1238,1.6557 -123.5,1.8125 -53.625,0.1101 -103.125,0.061 -110,-0.1093 -17.3395,-0.4297 -70.2971,-3.2101 -83,-4.3575 -33.6647,-3.0407 -46.5799,-4.353 -65,-6.6074 -149.5625,-18.3048 -285.3205,-59.4624 -345.7832,-104.8301 -22.1828,-16.6447 -34.2347,-32.0478 -40.3711,-51.5898 -3.4703,-11.0515 -3.3092,-29.644 0.375,-43.0274 4.9906,-18.129 18.9143,-46.1986 27.9356,-56.3203 17.232,-19.3338 62.915,-44.5275 125.3437,-69.123 25.6957,-10.1236 69.1223,-25.6157 72.4161,-25.834 0.265,-0.018 0.5043,-0.02 0.7246,0 z m 1091.3593,366.3457 c -9.9402,0 -16.2187,11.2062 -11.039,19.7012 2.9571,4.8499 7.2367,6.6464 14.0039,5.8808 5.1394,-0.5815 5.844,-0.4169 7.9824,1.8594 3.2729,3.4838 4.6683,2.0764 1.5801,-1.5937 -2.9143,-3.4635 -2.9256,-3.5273 -1.0274,-6.8477 4.6023,-8.051 -2.0247,-19 -11.5,-19 z m -0.2929,2.1816 c 0.9514,0.016 1.9854,0.3267 3.5996,0.8965 5.5989,1.9764 8.467,7.3952 6.8222,12.8848 -0.6288,2.0988 -2.2651,4.5513 -3.6386,5.4512 -6.1305,4.0169 -12.9725,2.3 -15.9649,-4.0059 -2.5853,-5.4481 -0.6562,-10.8996 4.8653,-13.7461 2.0059,-1.0341 3.0931,-1.5008 4.3164,-1.4805 z m 0.2929,6.3731 -2.1855,2.1875 c -2.1306,2.1306 -2.1401,2.2397 -0.3457,4.2226 1.0131,1.1194 2.1516,2.0352 2.5312,2.0352 0.3795,0 1.5202,-0.9158 2.5332,-2.0352 1.7945,-1.9829 1.7849,-2.092 -0.3457,-4.2226 z" /><path
         style="fill:#0d0d0c"
         d="m -5226.8901,2982.0388 c -66.4258,-2.337 -138.7518,-8.8229 -195.5,-17.5317 -141.9111,-21.7782 -247.705,-60.8656 -318.9549,-117.8436 -21.7536,-17.3961 -46.8559,-45.4222 -59.4305,-66.3525 -2.4019,-3.998 -4.7602,-7.512 -5.2408,-7.809 -0.4835,-0.2988 -18.1455,-34.8928 -19.7731,-66.2302 -1.6276,-31.3375 18.8993,-60.3491 18.8993,-60.3491 l 5.8852,-7.1714 c 36.6412,-44.6489 118.5837,-87.6364 225.963,-118.5415 9.5416,-2.7461 17.5933,-5.2381 17.8929,-5.5376 0.2995,-0.2995 0.051,-2.9178 -0.5519,-5.8184 -7.7357,-37.2072 -12.2123,-62.2508 -16.5835,-92.7738 -8.8649,-61.9024 -14.5261,-126.103 -18.8264,-213.5 -1.7676,-35.9241 -1.7728,-180.4066 -0.01,-193.2663 2.1461,-15.6292 7.1055,-26.5933 17.6797,-39.0863 40.1555,-47.4421 151.2024,-83.9103 301.9499,-99.1616 38.7373,-3.919 63.636,-5.1376 116.098,-5.6818 65.4648,-0.679 100.8887,0.7244 155.6883,6.168 64.3412,6.3914 132.9081,19.5703 181.3117,34.8489 70.0865,22.1228 113.8407,50.4028 128.4804,83.0419 4.9865,11.1173 5.6235,16.0965 7.0459,55.081 0.6221,17.0507 1.3766,27.1872 2.0549,27.6064 0.5895,0.3643 11.9499,0.9355 25.2453,1.2693 90.2553,2.2661 153.7797,21.6031 193.0447,58.7635 31.0686,29.4032 48.0329,66.3876 57.8399,126.0981 2.9879,18.1921 3.2169,60.8429 0.4097,76.3189 -4.7978,26.4502 -10.714,44.8419 -21.5525,67 -30.3442,62.0349 -84.4934,111.333 -158.8521,144.6208 -11.159,4.9955 -16.1945,7.7413 -16,8.7247 0.1561,0.7892 7.7088,4.8746 16.7838,9.0787 61.6391,28.5549 103.9292,62.0261 121.3898,96.0758 8.742,17.0478 11.0484,27.3319 10.3581,46.1868 -0.5702,15.5758 -3.3436,27.6298 -10.3979,45.193 -27.5501,68.5913 -97.9749,126.2919 -201.85,165.3801 -101.8045,38.309 -227.6899,59.3154 -391,65.2459 -30.1622,1.0953 -137.8809,1.0655 -169.5,-0.047 z m 148,-25.9656 c 199.3602,-5.2889 347.2108,-32.7905 451.5,-83.9832 39.6053,-19.4412 65.7145,-37.4617 93.0541,-64.2259 9.3914,-9.1938 19.6542,-20.2977 22.8063,-24.6756 17.4663,-24.2586 28.2607,-48.9676 31.6758,-72.5081 1.257,-8.665 0.8501,-13.3863 -2.1039,-24.4098 -10.5405,-39.3335 -63.5261,-79.4436 -150.8696,-114.2082 l -8.4372,-3.3582 -7.5628,2.6851 c -20.4061,7.2452 -65.5831,22.2143 -82.0627,27.1909 -10.175,3.0727 -19.0131,6.1297 -19.6401,6.7933 -0.627,0.6635 -3.3389,5.9679 -6.0265,11.7874 -8.5292,18.4683 -15.3093,29.3217 -36.435,58.3241 -33.5889,46.1125 -47.4958,63.307 -66.3984,82.095 -40.7076,40.4607 -86.3973,60.6643 -158.1296,69.9237 -64.2479,8.2933 -180.493,8.2933 -244.7409,0 -83.7615,-10.8121 -131.8549,-36.038 -180.9732,-94.9237 -16.7214,-20.0466 -57.7521,-75.4523 -66.6888,-90.053 -12.6469,-20.6626 -25.4949,-51.5874 -34.5444,-83.147 -3.5127,-12.2506 -5.0191,-16.1366 -6.7471,-17.4048 -2.0387,-1.4962 -60.0222,16.7195 -88.7495,27.881 -57.4552,22.3233 -103.7914,48.7546 -129.4766,73.8565 -24.2348,23.6844 -33.2879,45.6255 -29.0153,70.3212 7.961,46.0149 40.9311,90.9801 93.7244,127.823 29.0984,20.3069 69.9102,40.4373 112.2642,55.3744 123.9789,43.7239 304.3711,64.392 513.5768,58.8419 z m -10.5,-208.0225 c 115.0205,-5.7603 205.6967,-33.4473 267.4412,-81.6603 7.505,-5.8603 14.0323,-13.9395 26.996,-33.4144 40.2489,-60.4648 68.0602,-194.3822 79.518,-382.896 3.5788,-58.8812 4.0448,-76.7951 4.0448,-155.5 0,-87.4357 0.041,-86.7491 -5.8371,-98 -6.7199,-12.8628 -27.9109,-30.0879 -51.6809,-42.0091 -57.3222,-28.7481 -139.8278,-48.4809 -244.482,-58.4725 -83.5367,-7.9754 -197.7447,-7.1447 -273.5,1.9893 -37.4924,4.5205 -61.4619,8.1746 -88,13.4152 -106.5801,21.0469 -179.6812,56.6664 -190.9109,93.0239 -5.2023,16.843 -4.9884,133.1796 0.4253,231.2984 8.53,154.6019 28.4536,277.1609 56.9297,350.2006 13.6062,34.8991 29.5275,60.2907 46.1928,73.6692 47.9081,38.4595 113.7884,65.4718 193.3631,79.2832 24.178,4.1964 57.0865,7.8683 81,9.0379 23.4016,1.1445 75.9688,1.1629 98.5,0.035 z m -48.5001,-216.2909 c -48.0286,-42.6323 -89.4011,-106.7066 -110.53,-171.1798 -19.3998,-59.1973 -15.9145,-100.2997 9.5301,-112.3872 4.9812,-2.3664 6.6318,-2.6128 17.5,-2.6128 10.7268,0 12.6661,0.2806 18.2788,2.6453 11.558,4.8697 17.5876,9.2217 30.279,21.8547 16.1523,16.0778 28.5164,33.4702 41.4422,58.2958 2.2,4.2254 4.5753,7.6874 5.2785,7.6934 0.7033,0.01 2.4694,-2.8017 3.9247,-6.2392 5.1305,-12.1183 17.9741,-36.3576 24.0484,-45.3861 14.1527,-21.0357 27.7764,-34.3463 42.188,-41.2185 6.3238,-3.0155 8.7411,-3.6098 16.1166,-3.9625 7.8112,-0.3734 9.2874,-0.1409 14.7947,2.3306 10.89,4.8872 18.9927,16.1211 23.3281,32.3429 2.742,10.2595 2.956,32.8135 0.4284,45.1436 -7.948,38.7719 -30.7087,86.1479 -70.3824,146.5 -20.5049,31.1922 -51.8683,74.2806 -54.7251,75.1838 -0.5501,0.1739 -5.7251,-3.8779 -11.5,-9.004 z m -60.4999,-416.7752 c -141.2832,-4.4154 -253.3648,-28.7594 -315,-68.4177 -21.2356,-13.6638 -37.5263,-30.8467 -35.7359,-37.6931 0.691,-2.6422 4.7128,-5.0946 7.1081,-4.3344 1.0836,0.3439 4.5512,3.7801 7.7058,7.6359 11.9018,14.5476 37.2912,30.8833 67.9789,43.7382 59.2971,24.8392 138.6692,39.4463 246.4431,45.3539 30.2085,1.6558 127.8291,1.6751 159.1721,0.031 114.4926,-6.0042 201.0503,-23.0303 260.5443,-51.2495 23.8743,-11.3241 45.2745,-26.1142 54.7443,-37.8347 6.3209,-7.8232 8.4991,-9.0462 12.0124,-6.7442 5.7716,3.7817 3.2566,10.0558 -8.839,22.0503 -37.885,37.5682 -119.4191,66.0941 -225.6748,78.9556 -67.652,8.1888 -146.9749,11.1173 -230.4593,8.5083 z m 504,322.6489 c 20.3143,-3.464 48.567,-11.4335 67.5,-19.0404 48.4248,-19.4561 81.3202,-49.8414 92.0362,-85.0131 10.0739,-33.0641 0.4957,-68.8886 -24.0462,-89.9385 -19.4318,-16.6669 -53.1688,-25.6355 -95.9602,-25.5102 -19.973,0.059 -30.8321,1.0107 -31.9383,2.8006 -0.4192,0.6782 -1.2973,10.7764 -1.9514,22.4405 -1.1754,20.9592 -1.7909,29.5564 -4.7044,65.7076 -2.9274,36.3248 -8.541,85.3768 -13.3326,116.5 -1.9027,12.3592 -1.5592,15.0621 1.788,14.0666 0.8849,-0.2632 5.6589,-1.1691 10.6089,-2.0131 z"
         id="path588" /><ellipse
         style="display:none;fill:#ffffff;fill-opacity:1;stroke:none;stroke-width:73.2132;stroke-dasharray:none;stroke-opacity:1;paint-order:markers stroke fill"
         id="path1291"
         cx="-22956.217"
         cy="3068.2603"
         rx="1000.9667"
         ry="998.28705"
         transform="translate(6.9009369e-5,3.0288315e-4)" /></g></g><pattern
     id="b-2"
     width="41"
     height="41"
     patternUnits="userSpaceOnUse"><circle
       fill="#ffffff"
       cx="20.5"
       cy="20.5"
       r="20.5"
       id="circle2" /></pattern></svg>
