<?xml version="1.0" encoding="UTF-8" standalone="no"?>
<!-- Created with Inkscape (http://www.inkscape.org/) -->

<svg
   version="1.1"
   id="svg1"
   width="75.675781"
   height="75.677002"
   viewBox="0 0 75.675781 75.677002"
   sodipodi:docname="Linotte app main inkscape.ai"
   inkscape:version="1.4.2 (ebf0e940, 2025-05-08)"
   xml:space="preserve"
   inkscape:export-batch-path="/Users/giannipie/Documents/Repositories/linotte-web/resources/images/dice"
   inkscape:export-batch-name="rere"
   inkscape:export-filename="/Users/giannipie/Documents/Repositories/linotte-web/resources/images/volume.svg"
   inkscape:export-xdpi="96"
   inkscape:export-ydpi="96"
   xmlns:inkscape="http://www.inkscape.org/namespaces/inkscape"
   xmlns:sodipodi="http://sodipodi.sourceforge.net/DTD/sodipodi-0.dtd"
   xmlns="http://www.w3.org/2000/svg"
   xmlns:svg="http://www.w3.org/2000/svg"><defs
     id="defs1" /><sodipodi:namedview
     id="namedview1"
     pagecolor="#ffffff"
     bordercolor="#000000"
     borderopacity="0.25"
     inkscape:showpageshadow="2"
     inkscape:pageopacity="0.0"
     inkscape:pagecheckerboard="0"
     inkscape:deskcolor="#d1d1d1"
     showgrid="false"
     inkscape:zoom="0.03871024"
     inkscape:cx="7000.7317"
     inkscape:cy="6380.7407"
     inkscape:window-width="1472"
     inkscape:window-height="850"
     inkscape:window-x="0"
     inkscape:window-y="33"
     inkscape:window-maximized="0"
     inkscape:current-layer="g94-4-3"><inkscape:page
       x="0"
       y="0"
       width="75.675781"
       height="75.677002"
       id="page2"
       margin="0"
       bleed="0" /></sodipodi:namedview><pattern
     id="b-2"
     width="41"
     height="41"
     patternUnits="userSpaceOnUse"><circle
       fill="#ffffff"
       cx="20.5"
       cy="20.5"
       r="20.5"
       id="circle2" /></pattern><g
     id="g177-8"
     transform="translate(-8630.3725,-11353.44)"><path
       d="m 8668.2107,11353.44 a 37.838017,37.838017 0 0 0 -37.8379,37.839 37.838017,37.838017 0 0 0 37.8379,37.838 37.838017,37.838017 0 0 0 37.8379,-37.838 37.838017,37.838017 0 0 0 -37.8379,-37.839 z m 8.7617,12.228 a 6.8649998,6.8649998 0 0 1 4.8867,1.928 6.8649998,6.8649998 0 0 1 0.168,9.707 l -13.8457,14.332 14.5332,13.322 a 6.8649998,6.8649998 0 0 1 0.4219,9.699 6.8649998,6.8649998 0 0 1 -9.6993,0.422 l -19.7285,-18.086 a 6.8649998,6.8649998 0 0 1 -0.041,-0.09 6.8649998,6.8649998 0 0 1 -0.09,-0.03 6.8649998,6.8649998 0 0 1 -1.0176,-2.338 6.8649998,6.8649998 0 0 1 -1.0391,-2.39 6.8649998,6.8649998 0 0 1 0.8985,-2.467 6.8649998,6.8649998 0 0 1 0.8671,-2.381 6.8649998,6.8649998 0 0 1 0.088,-0.04 6.8649998,6.8649998 0 0 1 0.035,-0.09 l 18.7422,-19.398 a 6.8649998,6.8649998 0 0 1 4.8203,-2.094 z"
       style="fill:#000000;fill-opacity:0.503145;stroke-width:12.659;stroke-linecap:round;stroke-linejoin:round;stroke-miterlimit:1.4;paint-order:markers stroke fill"
       id="path109-3-3-0-8-6" /></g></svg>
