<?xml version="1.0" encoding="UTF-8" standalone="no"?>
<!-- Created with Inkscape (http://www.inkscape.org/) -->

<svg
   version="1.1"
   id="svg1"
   width="213"
   height="213"
   viewBox="0 0 213 213"
   sodipodi:docname="Linotte app main.ai"
   xmlns:inkscape="http://www.inkscape.org/namespaces/inkscape"
   xmlns:sodipodi="http://sodipodi.sourceforge.net/DTD/sodipodi-0.dtd"
   xmlns="http://www.w3.org/2000/svg"
   xmlns:svg="http://www.w3.org/2000/svg">
  <defs
     id="defs1">
    <clipPath
       clipPathUnits="userSpaceOnUse"
       id="clipPath3255-4">
      <path
         d="M 0,1080 H 1920 V 0 H 0 Z"
         transform="translate(-151.39791,-234.85111)"
         id="path3255-6" />
    </clipPath>
  </defs>
  <sodipodi:namedview
     id="namedview1"
     pagecolor="#ffffff"
     bordercolor="#000000"
     borderopacity="0.25"
     inkscape:showpageshadow="2"
     inkscape:pageopacity="0.0"
     inkscape:pagecheckerboard="0"
     inkscape:deskcolor="#d1d1d1"
     showgrid="false"
     inkscape:zoom="0.44394258"
     inkscape:cx="571.01979"
     inkscape:cy="1874.1162"
     inkscape:window-width="1472"
     inkscape:window-height="844"
     inkscape:window-x="0"
     inkscape:window-y="34"
     inkscape:window-maximized="0"
     inkscape:current-layer="layer-MC0">
    <inkscape:page
       x="0"
       y="0"
       width="213"
       height="213"
       id="page2"
       margin="0"
       bleed="0" />
  </sodipodi:namedview>
  <g
     id="layer-MC0"
     inkscape:groupmode="layer"
     inkscape:label="Livello 1"
     transform="translate(-284.95117,-1542.7076)">
    <g
       id="g10488">
      <rect
         style="fill:#4f4f4f;fill-opacity:0;stroke:#000000;stroke-width:0;stroke-linecap:round;stroke-miterlimit:1.4;stroke-dasharray:none;stroke-opacity:1;paint-order:markers stroke fill"
         id="rect10482-7-8"
         width="213"
         height="213"
         x="284.95129"
         y="1542.7076"
         ry="0" />
      <path
         id="path3254-4"
         d="m 0,0 c 2.936,0.308 6.398,0.462 10.388,0.462 2.215,0 4.171,-0.039 5.871,-0.115 2.65,-0.103 4.35,-0.156 5.096,-0.156 1.159,0.025 2.871,0.064 5.137,0.117 L 13.13,-22.593 c 4.788,-0.515 8.239,-1.069 10.351,-1.661 0.925,-1.955 1.389,-4.557 1.389,-7.801 0,-6.332 -1.635,-11.136 -4.905,-14.405 -3.294,-3.294 -7.261,-4.942 -11.894,-4.942 -3.734,0 -7.802,0.541 -12.203,1.622 v 0.23 c 5.844,0.594 9.743,1.843 11.701,3.748 1.956,1.88 2.936,4.272 2.936,7.183 0,4.866 -3.258,7.311 -9.771,7.337 0.515,0.952 1.274,2.047 2.278,3.283 3.655,4.401 6.745,9.589 9.269,15.564 -1.751,0.101 -3.683,0.154 -5.793,0.154 -1.443,0 -2.897,-0.039 -4.364,-0.117 -2.112,-0.076 -3.424,-0.115 -3.939,-0.115 -0.18,0 -0.812,0.025 -1.894,0.078 C -1.776,-6.619 -0.541,-2.473 0,0"
         style="fill:#593117;fill-opacity:1;fill-rule:nonzero;stroke:none"
         transform="matrix(1.3333333,0,0,-1.3333333,376.54463,1615.2476)"
         clip-path="url(#clipPath3255-4)" />
    </g>
  </g>
</svg>
