<?xml version="1.0" encoding="UTF-8" standalone="no"?>
<!-- Created with Inkscape (http://www.inkscape.org/) -->

<svg
   version="1.1"
   id="svg1"
   width="151.20898"
   height="103.22461"
   viewBox="0 0 151.20898 103.22461"
   sodipodi:docname="Linotte app main inkscape.ai"
   inkscape:version="1.4.2 (ebf0e940, 2025-05-08)"
   xml:space="preserve"
   xmlns:inkscape="http://www.inkscape.org/namespaces/inkscape"
   xmlns:sodipodi="http://sodipodi.sourceforge.net/DTD/sodipodi-0.dtd"
   xmlns="http://www.w3.org/2000/svg"
   xmlns:svg="http://www.w3.org/2000/svg"><defs
     id="defs1" /><sodipodi:namedview
     id="namedview1"
     pagecolor="#ffffff"
     bordercolor="#000000"
     borderopacity="0.25"
     inkscape:showpageshadow="2"
     inkscape:pageopacity="0.0"
     inkscape:pagecheckerboard="0"
     inkscape:deskcolor="#d1d1d1"
     showgrid="false"
     inkscape:zoom="0.15362997"
     inkscape:cx="2027.5992"
     inkscape:cy="1100.0458"
     inkscape:window-width="1472"
     inkscape:window-height="844"
     inkscape:window-x="0"
     inkscape:window-y="34"
     inkscape:window-maximized="0"
     inkscape:current-layer="g3654"><inkscape:page
       x="0"
       y="0"
       width="151.20898"
       height="103.22461"
       id="page2"
       margin="0"
       bleed="0" /></sodipodi:namedview><g
     id="layer-MC0"
     inkscape:groupmode="layer"
     inkscape:label="Livello 1"
     transform="translate(-3220.0823,-127.54779)"><path
       id="text1"
       style="font-size:76.9632px;font-family:'Changa One';-inkscape-font-specification:'Changa One';fill:#000000;fill-opacity:0.503937;stroke:#b2a918;stroke-width:0;stroke-linecap:round;stroke-linejoin:round;stroke-miterlimit:1.4;paint-order:markers stroke fill"
       d="m 3220.0821,127.54777 v 103.22462 h 151.209 V 127.54777 Z m 98.9238,26.40625 c 6.8241,0 12.9826,0.64111 18.4727,1.92383 l -1.9238,12.31445 c -4.7718,-0.76963 -8.5955,-1.1543 -11.4688,-1.1543 -2.8733,0 -5.3095,0.12822 -7.3105,0.38477 v 3.77148 l 5.541,0.53906 c 6.7215,0.66702 11.3642,2.28222 13.9297,4.84766 2.5654,2.51413 3.8476,6.02975 3.8476,10.54492 0,3.23246 -0.4363,5.97679 -1.3086,8.23438 -0.8722,2.20628 -1.9229,3.89997 -3.1543,5.08008 -1.1801,1.12879 -2.8738,2.00148 -5.08,2.61718 -2.2063,0.61571 -4.1564,0.97356 -5.8496,1.07617 -1.6419,0.15393 -3.8465,0.23243 -6.6172,0.23243 -6.6702,0 -12.8536,-0.66793 -18.5489,-2.00196 l 2.1543,-12.69922 c 4.7204,1.18011 8.9537,1.77149 12.6993,1.77149 3.7968,0 6.8493,-0.15504 9.1582,-0.46289 v -3.84766 l -6.9258,-0.61523 c -6.2597,-0.5644 -10.5695,-2.05333 -12.9297,-4.46485 -2.3089,-2.46282 -3.4629,-6.07984 -3.4629,-10.85156 0,-6.56753 1.4104,-11.0821 4.2324,-13.54492 2.8733,-2.46282 7.7209,-3.69531 14.5449,-3.69531 z m -67.7265,1.15429 h 16.2383 l 6.5429,30.55469 h 0.6914 l 6.6192,-30.55469 h 16.2402 l -11.9297,48.10352 h -22.4726 z" /></g></svg>
