<?xml version="1.0" encoding="UTF-8" standalone="no"?>
<!-- Created with Inkscape (http://www.inkscape.org/) -->

<svg
   version="1.1"
   id="svg1"
   width="213"
   height="213"
   viewBox="0 0 213 213"
   sodipodi:docname="Linotte app main.ai"
   xmlns:inkscape="http://www.inkscape.org/namespaces/inkscape"
   xmlns:sodipodi="http://sodipodi.sourceforge.net/DTD/sodipodi-0.dtd"
   xmlns="http://www.w3.org/2000/svg"
   xmlns:svg="http://www.w3.org/2000/svg">
  <defs
     id="defs1">
    <clipPath
       clipPathUnits="userSpaceOnUse"
       id="clipPath3345-6">
      <path
         d="M 0,1080 H 1920 V 0 H 0 Z"
         transform="translate(-326.52221,-344.86061)"
         id="path3345-6" />
    </clipPath>
  </defs>
  <sodipodi:namedview
     id="namedview1"
     pagecolor="#ffffff"
     bordercolor="#000000"
     borderopacity="0.25"
     inkscape:showpageshadow="2"
     inkscape:pageopacity="0.0"
     inkscape:pagecheckerboard="0"
     inkscape:deskcolor="#d1d1d1"
     showgrid="false"
     inkscape:zoom="0.44394258"
     inkscape:cx="571.01979"
     inkscape:cy="1874.1162"
     inkscape:window-width="1472"
     inkscape:window-height="844"
     inkscape:window-x="0"
     inkscape:window-y="34"
     inkscape:window-maximized="0"
     inkscape:current-layer="layer-MC0">
    <inkscape:page
       x="0"
       y="0"
       width="213"
       height="213"
       id="page2"
       margin="0"
       bleed="0" />
  </sodipodi:namedview>
  <g
     id="layer-MC0"
     inkscape:groupmode="layer"
     inkscape:label="Livello 1"
     transform="translate(-552.77002,-1820.75)">
    <g
       id="g10495">
      <path
         id="path3344-5"
         d="m 0,0 c 0.825,3.595 1.648,7.19 2.475,10.783 0.08,0.346 0.188,0.685 0.282,1.027 0.466,1.951 0.932,3.902 1.398,5.854 0.46,1.974 0.919,3.948 1.379,5.923 0.457,2.01 0.913,4.02 1.37,6.03 -1.432,0.014 -2.865,0.028 -4.297,0.042 -1.961,0 -3.921,0 -5.881,0.001 -2.033,0 -4.065,-0.001 -6.097,-0.001 -1.961,0 -3.921,0 -5.881,0 -1.552,-0.013 -3.108,0.036 -4.655,-0.061 -1.042,-0.065 -1.098,0.415 -0.972,1.216 0.247,1.564 0.449,3.136 0.67,4.704 0.281,1.961 0.561,3.922 0.842,5.884 0.164,2.048 0.415,4.085 0.831,6.1 0.395,3.224 0.774,6.45 1.189,9.671 0.537,4.155 1.119,8.305 1.648,12.462 0.206,1.618 0.164,1.629 1.77,1.622 1.519,-0.006 3.038,-0.025 4.558,-0.039 h 6.097 c 1.96,0 3.92,0 5.881,0 1.52,0.013 3.041,0.011 4.561,0.045 C 7.767,71.277 7.94,71.108 7.729,70.505 7.13,68.799 6.575,67.078 6.003,65.363 5.349,63.394 4.695,61.426 4.042,59.458 3.661,58.361 3.278,57.264 2.896,56.167 2.724,55.193 2.412,54.263 2.016,53.359 1.454,51.367 0.835,49.394 0.089,47.463 -0.42,45.864 -0.938,44.268 -1.432,42.665 c -0.122,-0.4 -0.389,-0.78 -0.249,-1.236 1.43,-0.002 2.86,-0.005 4.29,-0.007 1.958,-10e-4 3.917,-10e-4 5.875,-10e-4 2.034,0 4.069,0 6.103,0 1.958,0 3.917,0 5.875,0 h 4.865 c -1.214,-2.047 -2.363,-3.983 -3.512,-5.919 -0.358,-0.841 -0.84,-1.61 -1.356,-2.361 -0.667,-1.198 -1.22,-2.467 -2.14,-3.511 C 16.089,25.617 13.902,21.579 11.502,17.663 10.631,16 9.753,14.342 8.616,12.839 8.579,12.412 8.356,12.081 8.077,11.777 5.766,7.583 3.403,3.42 0.845,-0.63 0.514,-1.699 -0.188,-2.556 -0.906,-3.445 -0.604,-2.297 -0.302,-1.148 0,0 m -0.403,-14.064 c 0.278,0.506 0.585,0.995 0.892,1.484 l 0.403,0.644 c 0.376,0.891 0.841,1.692 1.389,2.394 0.631,1.328 1.437,2.625 2.139,3.71 l 0.326,0.6 c 0.244,0.455 0.491,0.908 0.751,1.355 2.348,4.05 4.701,8.097 7.054,12.144 l 2.827,4.896 c 1.979,3.506 4.025,7.132 6.187,10.616 l 10.149,17.643 0.073,0.224 c 0.159,0.827 0.162,1.695 0.013,2.645 -0.526,1.151 -1.359,1.991 -2.547,2.565 l -2.728,0.243 -6.061,-0.003 -5.88,0.001 -2.051,-0.009 C 10.754,47.081 8.974,47.073 7.196,47.055 H 7.179 c -0.244,0 -0.659,0.008 -0.879,0.322 -0.205,0.289 -0.116,0.645 -0.018,0.922 0.437,1.226 0.85,2.461 1.262,3.695 l 0.513,1.53 1.847,5.976 2.089,5.997 c 0.486,1.938 1.157,3.801 1.755,5.373 -0.002,0.235 0.064,0.43 0.194,0.586 0.151,0.81 0.249,1.745 -0.053,2.651 -0.797,1.769 -1.964,2.612 -3.658,2.613 -9.102,0.008 -18.211,0.014 -27.324,-0.001 -1.747,-0.004 -3.305,-1.336 -3.623,-3.102 -0.101,-0.549 -0.194,-1.1 -0.29,-1.649 l -0.139,-0.805 c -0.094,-1.62 -0.35,-3.286 -0.598,-4.897 l -0.152,-0.983 -0.903,-6.872 c -0.188,-1.682 -0.383,-3.421 -0.743,-5.117 -0.054,-1.338 -0.265,-2.738 -0.469,-4.092 -0.088,-0.585 -0.175,-1.17 -0.253,-1.755 l -0.936,-6.344 c -0.166,-2.447 -0.523,-4.876 -0.87,-7.226 -0.208,-1.425 -0.419,-2.85 -0.583,-4.28 -0.153,-0.991 -0.118,-2.013 0.1,-3.051 0.429,-0.929 1.241,-1.705 2.523,-2.357 l 2.718,-0.246 18.037,0.002 c 1.412,0.085 2.182,0.183 2.61,-0.36 0.369,-0.471 0.205,-1.142 -0.155,-2.61 L -3.09,11.683 C -3.445,9.855 -3.902,7.678 -4.557,5.538 -4.87,3.767 -5.323,1.838 -5.935,-0.311 c -0.35,-1.901 -0.82,-3.904 -1.429,-6.086 l -0.015,-0.076 c -0.304,-1.541 -0.616,-3.132 -1.131,-4.664 0.02,-0.378 -0.098,-0.707 -0.203,-0.999 l -0.063,-0.172 c -0.174,-0.841 -0.148,-1.786 0.099,-2.924 1.464,-2.314 2.825,-2.831 5.484,-2.129 1.257,0.633 1.981,1.817 2.79,3.297"
         style="fill:#593117;fill-opacity:1;fill-rule:nonzero;stroke:none"
         transform="matrix(1.3333333,0,0,-1.3333333,655.82779,1966.6344)"
         clip-path="url(#clipPath3345-6)" />
      <rect
         style="fill:#4f4f4f;fill-opacity:0;stroke:#000000;stroke-width:0;stroke-linecap:round;stroke-miterlimit:1.4;stroke-dasharray:none;stroke-opacity:1;paint-order:markers stroke fill"
         id="rect10482-7-8-4-6"
         width="213"
         height="213"
         x="552.77002"
         y="1820.75"
         ry="0" />
    </g>
  </g>
</svg>
