<?xml version="1.0" encoding="UTF-8" standalone="no"?>
<!-- Created with Inkscape (http://www.inkscape.org/) -->

<svg
   version="1.1"
   id="svg1"
   width="213"
   height="213"
   viewBox="0 0 213 213"
   sodipodi:docname="Linotte app main.ai"
   xmlns:inkscape="http://www.inkscape.org/namespaces/inkscape"
   xmlns:sodipodi="http://sodipodi.sourceforge.net/DTD/sodipodi-0.dtd"
   xmlns="http://www.w3.org/2000/svg"
   xmlns:svg="http://www.w3.org/2000/svg">
  <defs
     id="defs1">
    <clipPath
       clipPathUnits="userSpaceOnUse"
       id="clipPath3243-5">
      <path
         d="M 0,1080 H 1920 V 0 H 0 Z"
         transform="translate(-149.5435,-880.95152)"
         id="path3243-0" />
    </clipPath>
  </defs>
  <sodipodi:namedview
     id="namedview1"
     pagecolor="#ffffff"
     bordercolor="#000000"
     borderopacity="0.25"
     inkscape:showpageshadow="2"
     inkscape:pageopacity="0.0"
     inkscape:pagecheckerboard="0"
     inkscape:deskcolor="#d1d1d1"
     showgrid="false"
     inkscape:zoom="0.44394258"
     inkscape:cx="571.01979"
     inkscape:cy="1874.1162"
     inkscape:window-width="1472"
     inkscape:window-height="844"
     inkscape:window-x="0"
     inkscape:window-y="34"
     inkscape:window-maximized="0"
     inkscape:current-layer="layer-MC0">
    <inkscape:page
       x="0"
       y="0"
       width="213"
       height="213"
       id="page2"
       margin="0"
       bleed="0" />
  </sodipodi:namedview>
  <g
     id="layer-MC0"
     inkscape:groupmode="layer"
     inkscape:label="Livello 1"
     transform="translate(250.68604,-1542.7076)">
    <g
       id="g10486">
      <rect
         style="fill:#4f4f4f;fill-opacity:0;stroke:#000000;stroke-width:0;stroke-linecap:round;stroke-miterlimit:1.4;stroke-dasharray:none;stroke-opacity:1;paint-order:markers stroke fill"
         id="rect10482"
         width="213"
         height="213"
         x="-250.6861"
         y="1542.7076"
         ry="0" />
      <path
         id="path3242-7"
         d="m 0,0 0.617,10.543 c 5.846,3.063 10.827,5.792 14.947,8.187 2.625,1.518 5.289,2.96 7.993,4.325 v -1.043 c 0,-0.464 -0.219,-2.781 -0.656,-6.952 C 22.669,12.923 22.399,9.345 22.089,4.325 l -0.541,-8.844 c -0.488,-8.109 -0.927,-13.105 -1.311,-14.984 -0.387,-1.725 -1.213,-3.013 -2.473,-3.862 -1.261,-0.875 -5.021,-1.917 -11.276,-3.127 0.798,1.853 1.261,4.583 1.39,8.187 L 8.186,-8.11 c 0.129,4.582 0.193,8.264 0.193,11.045 0,0.823 -0.011,1.673 -0.037,2.549 L 3.437,2.201 C 1.712,1.042 0.566,0.308 0,0"
         style="fill:#593117;fill-opacity:1;fill-rule:nonzero;stroke:none"
         transform="matrix(1.3333333,0,0,-1.3333333,-159.89076,1646.9163)"
         clip-path="url(#clipPath3243-5)" />
    </g>
  </g>
</svg>
