<?xml version="1.0" encoding="UTF-8" standalone="no"?>
<!-- Created with Inkscape (http://www.inkscape.org/) -->

<svg
   version="1.1"
   id="svg1"
   width="384.30859"
   height="384.30893"
   viewBox="0 0 384.30859 384.30893"
   sodipodi:docname="Linotte app main inkscape.ai"
   inkscape:version="1.4.2 (ebf0e940, 2025-05-08)"
   xml:space="preserve"
   xmlns:inkscape="http://www.inkscape.org/namespaces/inkscape"
   xmlns:sodipodi="http://sodipodi.sourceforge.net/DTD/sodipodi-0.dtd"
   xmlns="http://www.w3.org/2000/svg"
   xmlns:svg="http://www.w3.org/2000/svg"><defs
     id="defs1" /><sodipodi:namedview
     id="namedview1"
     pagecolor="#ffffff"
     bordercolor="#000000"
     borderopacity="0.25"
     inkscape:showpageshadow="2"
     inkscape:pageopacity="0.0"
     inkscape:pagecheckerboard="0"
     inkscape:deskcolor="#d1d1d1"
     showgrid="false"
     inkscape:zoom="0.17208049"
     inkscape:cx="6284.8496"
     inkscape:cy="1080.8895"
     inkscape:window-width="1472"
     inkscape:window-height="844"
     inkscape:window-x="0"
     inkscape:window-y="33"
     inkscape:window-maximized="0"
     inkscape:current-layer="layer-MC0"><inkscape:page
       x="0"
       y="0"
       width="384.30859"
       height="384.30893"
       id="page2"
       margin="0"
       bleed="0" /></sodipodi:namedview><g
     id="layer-MC0"
     inkscape:groupmode="layer"
     inkscape:label="Livello 1"
     transform="translate(-4566.844,650.40344)"><g
       id="g11852"
       transform="translate(-183.83583,-1625.5935)"><path
         id="rect11848-1"
         style="fill:#000000;fill-opacity:0.498233;fill-rule:nonzero;stroke:none;stroke-width:1.93065;stroke-linecap:round;stroke-linejoin:miter;stroke-miterlimit:1.4;stroke-dasharray:none;stroke-dashoffset:0;stroke-opacity:1;paint-order:markers stroke fill"
         d="m 4783.2622,975.20605 c -18.0504,0 -32.5821,13.92282 -32.5821,31.21685 v 98.4355 c 0,10e-4 0,0 0,0 0,10e-4 0,0 0,0 v 124.9883 c 0,10e-4 0,0 0,0 0,10e-4 0,0 0,0 v 98.4375 c 0,17.294 14.5317,31.2148 32.5821,31.2148 h 319.1445 c 18.0505,0 32.582,-13.9208 32.582,-31.2148 v -98.4418 -223.4356 c 0,-17.29393 -14.5315,-31.21675 -32.582,-31.21675 z m 2.5312,9.31836 h 89.8828 v 115.67769 h -115.6758 v -90.9629 c 0,-13.69185 11.5023,-24.71479 25.793,-24.71479 z m 99.2012,0 h 115.6797 v 115.67769 h -115.6797 z m 124.998,0 h 89.8828 c 14.2908,0 25.795,11.02294 25.795,24.71479 v 90.9629 h -115.6778 z m -249.9922,124.99609 h 115.6758 v 115.6797 h -115.6758 z m 124.9942,0 h 115.6797 v 115.6797 h -115.6797 z m 124.998,0 h 115.6778 v 115.6797 h -115.6778 z m -249.9922,124.9981 h 115.6758 v 115.6777 h -89.8828 c -14.2907,0 -25.793,-11.023 -25.793,-24.7149 z m 124.9942,0 h 115.6797 v 115.6777 h -115.6797 z m 124.998,0 h 115.6778 v 90.9628 c 0,13.6919 -11.5042,24.7149 -25.795,24.7149 h -89.8828 z" /><rect
         style="fill:#000000;fill-opacity:0.498233;fill-rule:nonzero;stroke:none;stroke-width:1.14465;stroke-linecap:round;stroke-linejoin:miter;stroke-miterlimit:1.4;stroke-dasharray:none;stroke-dashoffset:0;stroke-opacity:1;paint-order:markers stroke fill"
         id="rect11852"
         width="75.475128"
         height="75.475128"
         x="4754.8594"
         y="1219.7854"
         ry="12.010398"
         transform="rotate(-1.0992044)" /><rect
         style="fill:#000000;fill-opacity:0.498233;fill-rule:nonzero;stroke:none;stroke-width:1.14465;stroke-linecap:round;stroke-linejoin:miter;stroke-miterlimit:1.4;stroke-dasharray:none;stroke-dashoffset:0;stroke-opacity:1;paint-order:markers stroke fill"
         id="rect11852-1"
         width="75.475128"
         height="75.475128"
         x="4925.1104"
         y="1188.7231"
         ry="12.010398"
         transform="rotate(0.81791238)" /><rect
         style="fill:#000000;fill-opacity:0.498233;fill-rule:nonzero;stroke:none;stroke-width:1.14465;stroke-linecap:round;stroke-linejoin:miter;stroke-miterlimit:1.4;stroke-dasharray:none;stroke-dashoffset:0;stroke-opacity:1;paint-order:markers stroke fill"
         id="rect11852-7"
         width="75.475128"
         height="75.475128"
         x="5066.7681"
         y="812.90271"
         ry="12.010398"
         transform="rotate(2.2045123)" /></g></g></svg>
