<?xml version="1.0" encoding="UTF-8" standalone="no"?>
<!-- Created with Inkscape (http://www.inkscape.org/) -->

<svg
   version="1.1"
   id="svg1"
   width="162.0083"
   height="162.0083"
   viewBox="0 0 162.0083 162.0083"
   sodipodi:docname="Linotte app main inkscape.ai"
   inkscape:version="1.4.2 (ebf0e940, 2025-05-08)"
   xml:space="preserve"
   xmlns:inkscape="http://www.inkscape.org/namespaces/inkscape"
   xmlns:sodipodi="http://sodipodi.sourceforge.net/DTD/sodipodi-0.dtd"
   xmlns="http://www.w3.org/2000/svg"
   xmlns:svg="http://www.w3.org/2000/svg"><defs
     id="defs1" /><sodipodi:namedview
     id="namedview1"
     pagecolor="#ffffff"
     bordercolor="#000000"
     borderopacity="0.25"
     inkscape:showpageshadow="2"
     inkscape:pageopacity="0.0"
     inkscape:pagecheckerboard="0"
     inkscape:deskcolor="#d1d1d1"
     showgrid="false"
     inkscape:zoom="0.985776"
     inkscape:cx="888.1328"
     inkscape:cy="1058.0497"
     inkscape:window-width="1472"
     inkscape:window-height="844"
     inkscape:window-x="0"
     inkscape:window-y="34"
     inkscape:window-maximized="0"
     inkscape:current-layer="layer-MC0"><inkscape:page
       x="0"
       y="0"
       width="162.0083"
       height="162.0083"
       id="page2"
       margin="0"
       bleed="0" /></sodipodi:namedview><g
     id="layer-MC0"
     inkscape:groupmode="layer"
     inkscape:label="Livello 1"
     transform="translate(-34.785681,-747.88702)"><g
       id="g3652"
       transform="translate(-1.5337837e-5,8.5920018)"><rect
         style="fill:#ff0606;fill-opacity:1;stroke:#960000;stroke-width:7;stroke-linecap:round;stroke-linejoin:round;stroke-miterlimit:1.4;stroke-dasharray:none;stroke-opacity:1;paint-order:normal"
         id="rect3652"
         width="155.00835"
         height="155.00835"
         x="38.285686"
         y="742.79498"
         ry="37.033569" /><path
         id="rect3652-2"
         style="fill:#fff3eb;fill-opacity:1;stroke:#ffebf6;stroke-width:1;stroke-linecap:round;stroke-linejoin:round;stroke-miterlimit:1.4;stroke-dasharray:none;stroke-opacity:1;paint-order:markers stroke fill"
         d="m 141.8842,780.34312 c -1.16075,-0.046 -2.4366,-0.0361 -3.73894,0.0334 -2.28775,0.12201 -5.2458,0.55293 -6.64615,0.96806 -1.38791,0.41142 -3.4822,1.22664 -4.65398,1.81191 -1.17179,0.58524 -3.36312,1.99931 -4.8691,3.14202 -1.50599,1.14271 -3.49649,2.97719 -4.42371,4.07681 -1.68584,1.99934 -1.6859,1.99942 -3.60182,-0.18484 -1.05376,-1.20131 -2.93384,-2.96769 -4.17828,-3.92529 -1.24445,-0.95759 -3.45248,-2.34521 -4.90698,-3.08294 -1.4545,-0.73774 -4.21585,-1.71573 -6.135614,-2.17399 -2.918466,-0.69663 -4.22139,-0.79866 -7.950544,-0.62112 -2.453033,0.11678 -5.479262,0.49538 -6.724934,0.84078 -1.245672,0.34545 -3.165437,1.04141 -4.266145,1.54679 -1.100708,0.50535 -3.255488,1.80156 -4.78881,2.8807 -1.533323,1.0791 -3.869123,3.21822 -5.190274,4.75322 -1.375785,1.59852 -3.041642,4.12769 -3.899525,5.92048 -0.823819,1.72162 -1.871755,4.61415 -2.3285,6.42726 -0.693858,2.7543 -0.795431,4.00339 -0.618867,7.59451 0.165825,3.37274 0.467143,5.0614 1.399071,7.843 0.653189,1.94967 1.697274,4.55326 2.320174,5.78563 0.622904,1.23237 2.30674,3.9859 3.741964,6.11897 1.43522,2.13307 3.224834,4.57641 3.977544,5.42964 0.752707,0.85323 3.055332,3.29657 5.1168,5.42964 2.061463,2.13307 4.609938,4.65875 5.662943,5.61293 1.053009,0.95418 2.990843,2.61216 4.306293,3.6844 1.315455,1.07223 3.482304,2.8224 4.815323,3.88894 1.333019,1.06653 3.485037,2.68038 4.782748,3.58666 1.297713,0.90625 4.054433,2.78238 6.125763,4.16919 2.07134,1.38677 3.86926,2.52168 3.99572,2.52168 0.12647,0 0.78843,0.44523 1.47028,0.98928 0.68186,0.54405 1.41377,0.99711 1.62707,1.00669 0.21331,0.01 0.4751,0.14024 0.58175,0.29088 0.10666,0.15063 0.89201,0.54083 1.74524,0.8673 0.85323,0.32644 1.81311,0.50515 2.13308,0.39691 0.31996,-0.1082 1.01805,-0.46136 1.55132,-0.78474 0.53327,-0.32337 2.36577,-1.49113 4.07223,-2.59513 1.70646,-1.104 4.08865,-2.62764 5.29329,-3.38596 1.20464,-0.75833 2.51357,-1.63832 2.90874,-1.95506 0.39516,-0.31674 2.94427,-2.24578 5.66446,-4.28736 2.72019,-2.04159 5.5893,-4.28325 6.37649,-4.98119 0.78719,-0.69794 3.18666,-2.85929 5.33193,-4.80322 2.14526,-1.94389 4.88564,-4.64901 6.0894,-6.01138 1.20376,-1.36234 2.93595,-3.34959 3.84953,-4.41612 0.91358,-1.06654 2.79717,-3.67106 4.18585,-5.78718 1.38869,-2.11613 3.1699,-5.34483 3.95785,-7.17489 0.78795,-1.83005 1.73346,-4.68279 2.10126,-6.34011 0.49971,-2.25167 0.62506,-4.16321 0.49767,-7.56271 -0.13286,-3.54536 -0.39603,-5.23425 -1.19379,-7.65211 -0.56304,-1.70645 -1.68298,-4.21506 -2.48834,-5.57434 -0.80536,-1.35923 -2.49944,-3.60217 -3.76469,-4.98421 -1.26524,-1.38208 -3.51065,-3.36262 -4.9903,-4.40173 -1.47965,-1.03912 -4.02216,-2.39633 -5.65007,-3.01555 -1.62789,-0.61921 -4.15884,-1.34538 -5.62431,-1.61419 -0.84172,-0.1544 -1.88736,-0.25628 -3.04811,-0.30224 z m -23.37517,85.24185 c 0.10665,0 0.19391,0.0873 0.19391,0.19392 0,0.10665 -0.0873,0.19392 -0.19391,0.19392 -0.10666,0 -0.19392,-0.0873 -0.19392,-0.19392 0,-0.10665 0.0873,-0.19392 0.19392,-0.19392 z"
         sodipodi:nodetypes="sssssssssssssssssssssssssssssssssssssssssssssssssssssssssss" /></g></g></svg>
