<?xml version="1.0" encoding="UTF-8" standalone="no"?>
<!-- Created with Inkscape (http://www.inkscape.org/) -->

<svg
   version="1.1"
   id="svg1"
   width="184.95831"
   height="145.97131"
   viewBox="0 0 184.95831 145.97131"
   sodipodi:docname="Linotte app main inkscape.ai"
   inkscape:version="1.4.2 (ebf0e940, 2025-05-08)"
   xml:space="preserve"
   xmlns:inkscape="http://www.inkscape.org/namespaces/inkscape"
   xmlns:sodipodi="http://sodipodi.sourceforge.net/DTD/sodipodi-0.dtd"
   xmlns="http://www.w3.org/2000/svg"
   xmlns:svg="http://www.w3.org/2000/svg"><defs
     id="defs1" /><sodipodi:namedview
     id="namedview1"
     pagecolor="#ffffff"
     bordercolor="#000000"
     borderopacity="0.25"
     inkscape:showpageshadow="2"
     inkscape:pageopacity="0.0"
     inkscape:pagecheckerboard="0"
     inkscape:deskcolor="#d1d1d1"
     showgrid="false"
     inkscape:zoom="0.27302406"
     inkscape:cx="1078.6595"
     inkscape:cy="1259.9622"
     inkscape:window-width="1472"
     inkscape:window-height="844"
     inkscape:window-x="0"
     inkscape:window-y="34"
     inkscape:window-maximized="0"
     inkscape:current-layer="layer-MC0"><inkscape:page
       x="0"
       y="0"
       width="184.95831"
       height="145.97131"
       id="page2"
       margin="0"
       bleed="0" /></sodipodi:namedview><g
     id="layer-MC0"
     inkscape:groupmode="layer"
     inkscape:label="Livello 1"
     transform="translate(1240.3064,-1037.1832)"><g
       id="g3430"
       transform="matrix(0.55543041,0,0,0.55543041,-1410.4078,-611.17009)"
       style="display:inline"><path
         style="fill:#e1b27c;fill-opacity:1;stroke:#b0b0b0;stroke-width:0;stroke-linecap:round;stroke-linejoin:round;stroke-miterlimit:1.4;stroke-dasharray:none;stroke-opacity:1;paint-order:markers stroke fill"
         d="m 328.47061,3132.9545 c -1.61069,-20.9533 16.82195,-61.9756 16.82195,-63.2151 0,-1.2395 -16.0949,-50.1398 -11.50976,-77.7351 1.83035,-11.0158 9.73903,-21.78 25.67561,-19.301 15.93657,2.479 46.7473,14.52 62.5068,26.2068 19.63985,-4.7693 30.9878,-7.9683 43.91413,-7.9683 12.92634,0 53.42563,5.0694 55.60096,9.562 2.17532,4.4926 34.8834,-28.3317 55.24681,-27.0922 20.3634,1.2395 21.42585,-9.2078 34.35218,19.301 5.07132,11.1847 -4.91693,67.3116 -10.80146,77.3809 11.29115,15.8426 18.19475,62.8254 13.8117,82.339 -12.92634,57.5488 -84.71668,72.9547 -130.85703,74.0166 -27.24663,0.6271 -111.48665,-7.4327 -133.51312,-38.2478 -22.02646,-30.8152 -19.7327,-35.5244 -21.24877,-55.2468 z"
         id="path3418"
         sodipodi:nodetypes="sssscssssccsss" /><path
         style="fill:#ca9667;fill-opacity:1"
         d="m 437.39252,3050.8431 c -8.72826,-6.2398 -6.27916,-18.0482 -6.97214,-27.297 -0.11841,-7.1081 -0.23442,-14.2163 -0.35186,-21.3244 4.36861,-0.8713 8.21068,-3.7573 12.1486,-3.9146 2.5288,0.2013 8.57069,-3.6832 10.11697,-0.7378 -0.47591,15.022 0.29357,30.146 -1.50299,45.0771 -1.23944,5.5213 -7.59725,11.7889 -13.43858,8.1967 z m 31.0337,-0.3123 c -8.46514,-7.1071 -5.54093,-19.0154 -6.2067,-28.6675 -0.005,-8.9222 -10e-4,-17.8443 -0.002,-26.7665 7,0 14,0 21,0 -0.18588,15.1417 0.48419,30.3211 -0.56174,45.4319 -0.76262,6.2114 -7.42521,15.1268 -14.22916,10.0021 z m 31.9663,0.3123 c -8.91954,-6.4323 -6.17434,-18.5875 -6.93663,-28.0523 -0.12691,-8.7313 -0.24586,-17.4627 -0.36927,-26.194 4.16434,-0.02 7.25968,1.0616 10.718,2.2924 3.71082,-0.1578 9.35182,2.0503 11.54508,4.305 -0.39449,12.6812 0.0751,25.4224 -1.22254,38.0501 -0.99677,5.9086 -7.20886,13.5302 -13.73464,9.5988 z m -141.4988,-15.4918 c -3.69653,-13.3625 -4.94943,-27.4615 -2.6961,-41.1818 3.8186,-9.251 16.90547,1.0497 23.6548,2.3945 9.10298,4.4293 17.98352,9.3869 26.3647,15.0646 -14.21588,11.8002 -29.18778,22.7273 -43.87839,33.8894 -1.98997,-2.9469 -2.50289,-6.7727 -3.44501,-10.1667 z m 209.8234,-0.6749 c -9.26851,-7.1623 -18.45936,-14.4269 -27.8565,-21.4211 0.19218,-6.4579 12.15287,-8.6816 17.22271,-12.9706 9.28495,-5.1459 19.39279,-9.1579 30.01109,-10.292 3.96929,14.716 1.97485,30.4242 -1.40483,45.0741 -1.72852,1.9584 -0.93547,12.7813 -4.51158,10.0129 -4.48697,-3.4678 -8.97393,-6.9355 -13.46089,-10.4033 z"
         id="path3396" /><ellipse
         style="fill:#fc9888;fill-opacity:1;stroke:#b0b0b0;stroke-width:0;stroke-linecap:round;stroke-linejoin:round;stroke-miterlimit:1.4;stroke-dasharray:none;stroke-opacity:1;paint-order:markers stroke fill"
         id="path3416"
         cx="383.60034"
         cy="3150.0349"
         rx="31.941776"
         ry="25.098944" /><ellipse
         style="fill:#fc9888;fill-opacity:1;stroke:#b0b0b0;stroke-width:0;stroke-linecap:round;stroke-linejoin:round;stroke-miterlimit:1.4;stroke-dasharray:none;stroke-opacity:1;paint-order:markers stroke fill"
         id="path3416-5"
         cx="560.99194"
         cy="3150.0349"
         rx="31.941776"
         ry="25.098944" /><ellipse
         style="fill:#ffffff;fill-opacity:1;stroke:#b0b0b0;stroke-width:0;stroke-linecap:round;stroke-linejoin:round;stroke-miterlimit:1.4;stroke-dasharray:none;stroke-opacity:1;paint-order:markers stroke fill"
         id="path3428"
         cx="416.14642"
         cy="3112.8889"
         rx="8.0202198"
         ry="8.630353" /><ellipse
         style="fill:#ffffff;fill-opacity:1;stroke:#b0b0b0;stroke-width:0;stroke-linecap:round;stroke-linejoin:round;stroke-miterlimit:1.4;stroke-dasharray:none;stroke-opacity:1;paint-order:markers stroke fill"
         id="path3430"
         cx="528.98145"
         cy="3113.4263"
         rx="9.5394173"
         ry="9.7053204" /><path
         style="fill:#333333;fill-opacity:1"
         d="m 454.25222,3230.0686 c -7.425,-0.4227 -18.9,-1.5418 -25.5,-2.4869 -6.6,-0.945 -17.1034,-3.0234 -23.341,-4.6185 -6.2376,-1.5952 -15.6158,-4.6605 -20.8404,-6.8117 -5.2247,-2.1512 -13.1712,-6.086 -17.659,-8.744 -5.4484,-3.2268 -11.4951,-8.1553 -18.1982,-14.8326 -6.5342,-6.5091 -11.0724,-12.0064 -13,-15.7476 -1.6287,-3.1612 -3.2147,-5.7487 -3.5243,-5.75 -0.3096,0 -1.8563,1.3476 -3.4371,2.9976 -1.827,1.907 -3.8745,3 -5.6197,3 -1.9557,0 -2.9476,-0.6369 -3.4482,-2.2139 -0.5743,-1.8096 0.2359,-3.0769 4.4359,-6.9388 l 5.1385,-4.7249 -1.5658,-5.8112 c -0.8612,-3.1961 -1.827,-9.2987 -2.1462,-13.5612 -0.5301,-7.08 -0.7659,-7.75 -2.7273,-7.75 -1.1808,0 -4.7723,0.6839 -7.981,1.5196 -4.4074,1.148 -6.1706,1.2403 -7.2101,0.3776 -0.7569,-0.6281 -1.3761,-1.9318 -1.3761,-2.8972 0,-0.9653 0.646,-2.2912 1.4356,-2.9465 0.7895,-0.6552 5.0645,-1.9063 9.5,-2.7802 8.0532,-1.5865 8.0644,-1.5931 8.0644,-4.7548 0,-1.7413 0.7235,-7.4078 1.6077,-12.5922 0.8842,-5.1845 2.7228,-13.0263 4.0857,-17.4263 1.363,-4.4 4.0669,-11.7404 6.0088,-16.312 l 3.5305,-8.312 -3.6315,-12.688 c -1.9973,-6.9784 -4.5885,-17.413 -5.7582,-23.188 -1.5357,-7.5815 -2.1568,-14.5302 -2.2349,-25 -0.088,-11.8674 0.2379,-15.4985 1.7973,-20 1.048,-3.025 2.9063,-7.0928 4.1297,-9.0395 1.2234,-1.9468 3.8536,-4.7823 5.845,-6.3012 1.9914,-1.5189 5.308,-3.4694 7.3703,-4.3344 2.4084,-1.0102 6.6111,-1.5523 11.7496,-1.5154 5.7797,0.041 10.3591,0.8029 16.5,2.7436 4.675,1.4774 12.9827,4.9342 18.4615,7.6818 5.4788,2.7476 14.1792,7.6528 19.3341,10.9004 l 9.3726,5.9048 9.1659,-2.911 c 5.0413,-1.601 12.5409,-3.5155 16.6659,-4.2543 4.221,-0.7561 14.4953,-1.3434 23.5,-1.3434 9.0047,0 19.2791,0.5873 23.5,1.3434 4.125,0.7388 11.6247,2.6533 16.666,4.2543 l 9.1659,2.911 9.3647,-5.8998 c 5.1506,-3.2449 13.6259,-8.0421 18.8341,-10.6604 5.2081,-2.6183 12.6193,-5.8372 16.4693,-7.153 3.85,-1.3158 9.8465,-2.7985 13.3256,-3.2949 3.7832,-0.5398 8.5772,-0.5361 11.9278,0.01 3.6253,0.59 7.4769,2.1564 10.914,4.4385 2.9214,1.9397 6.3714,5.2128 7.6667,7.2735 1.2954,2.0607 3.2126,6.2217 4.2605,9.2467 1.5595,4.5015 1.8858,8.1326 1.7973,20 -0.078,10.4698 -0.6992,17.4185 -2.2348,25 -1.1697,5.775 -3.7609,16.2096 -5.7583,23.188 l -3.6315,12.688 3.5306,8.312 c 1.9418,4.5716 4.6457,11.912 6.0087,16.312 1.363,4.4 3.2016,12.2418 4.0858,17.4263 0.88418,5.1844 1.60758,10.8509 1.60758,12.5922 0,3.1617 0.011,3.1683 8.0645,4.7548 4.4354,0.8739 8.7104,2.125 9.5,2.7802 0.7895,0.6553 1.4355,1.9812 1.4355,2.9465 0,0.9654 -0.6192,2.2691 -1.376,2.8972 -1.0396,0.8627 -2.8027,0.7704 -7.2101,-0.3776 -3.2088,-0.8357 -6.8002,-1.5196 -7.9811,-1.5196 -1.9614,0 -2.1972,0.67 -2.7273,7.75 -0.3192,4.2625 -1.27218,10.3163 -2.11788,13.4529 l -1.5376,5.7029 5.10008,4.8652 c 4.1137,3.9242 4.9662,5.2873 4.4077,7.0471 -0.4903,1.5446 -1.4945,2.1819 -3.4381,2.1819 -1.7452,0 -3.79268,-1.093 -5.61968,-3 -1.5808,-1.65 -3.1275,-2.9989 -3.4371,-2.9976 -0.3096,0 -1.8888,2.5398 -3.5094,5.6411 -1.6205,3.1013 -6.5173,9.4111 -10.8817,14.0218 -4.3643,4.6107 -11.6399,10.848 -16.1678,13.8608 -4.5279,3.0128 -12.1158,7.2718 -16.862,9.4646 -4.7462,2.1928 -13.2448,5.3581 -18.8857,7.0341 -5.641,1.676 -15.2063,3.9147 -21.2563,4.9749 -6.05,1.0602 -15.5,2.3655 -21,2.9008 -5.5,0.5353 -16.075,1.1732 -23.5,1.4175 -7.425,0.2444 -19.575,0.099 -27,-0.3243 z m 39,-8.9898 c 7.425,-0.5451 18.225,-1.7023 24,-2.5715 5.775,-0.8691 14.7873,-2.6544 20.0273,-3.9673 5.24,-1.3128 12.665,-3.5601 16.5,-4.9939 3.835,-1.4338 10.3477,-4.4103 14.4727,-6.6143 4.125,-2.204 10.8,-6.5249 14.8334,-9.6018 4.0333,-3.077 9.3393,-8.0572 11.7912,-11.0671 2.4518,-3.0099 5.6245,-7.4633 7.0505,-9.8964 1.9986,-3.4104 2.3209,-4.6951 1.4068,-5.6077 -0.7835,-0.7823 -5.3235,-1.1839 -13.3838,-1.1839 h -12.1981 l -0.3164,-2.7495 c -0.2526,-2.1961 0.2153,-2.9516 2.3252,-3.7538 1.4528,-0.5523 6.0951,-1.0865 10.3163,-1.1871 4.2212,-0.1005 10.0058,0.1641 12.8547,0.588 l 5.1797,0.7708 1.13,-3.8342 c 0.6215,-2.1088 1.3874,-7.4803 1.702,-11.9367 l 0.572,-8.1025 -6.3166,0.8639 c -3.4742,0.4751 -8.7311,1.9692 -11.682,3.3202 -2.9509,1.3509 -6.6935,3.402 -8.3168,4.5579 -1.6234,1.1559 -3.9633,1.958 -5.1998,1.7824 -1.7577,-0.2497 -2.2483,-0.9708 -2.2483,-3.3052 0,-2.4763 0.8452,-3.5388 4.9531,-6.2267 2.7242,-1.7826 7.6742,-4.1653 11,-5.2949 3.3258,-1.1297 8.6344,-2.3293 11.7969,-2.6657 l 5.75,-0.6118 v -3.9504 c 0,-2.1728 -0.9028,-8.381 -2.0064,-13.796 -1.1035,-5.415 -3.4049,-13.8107 -5.1142,-18.6571 -1.7094,-4.8463 -4.421,-11.415 -6.026,-14.597 l -2.918,-5.7855 2.5103,-7.9465 c 1.3807,-4.3705 3.6608,-12.4851 5.0669,-18.0324 1.4062,-5.5472 3.2135,-14.4428 4.0162,-19.768 0.8027,-5.3252 1.4621,-13.3001 1.4653,-17.7221 0,-4.4219 -0.6881,-10.7044 -1.5363,-13.961 -0.8483,-3.2566 -2.6386,-7.3585 -3.9786,-9.1153 -1.34,-1.7568 -3.9626,-4.1374 -5.828,-5.2903 -1.8654,-1.1529 -5.4003,-2.3715 -7.8553,-2.708 -3.0011,-0.4113 -7.2216,0.073 -12.8798,1.4789 -4.8691,1.2095 -13.4735,4.6065 -20.4161,8.0601 -6.6,3.2833 -16.5217,8.9007 -22.0483,12.4833 l -10.0483,6.5137 -10.6174,-3.4429 c -5.8395,-1.8935 -14.8178,-4.1241 -19.9516,-4.9567 -5.1339,-0.8326 -14.2844,-1.5138 -20.3344,-1.5138 -6.05,0 -15.2004,0.6812 -20.3343,1.5138 -5.1339,0.8326 -14.1121,3.0632 -19.9517,4.9567 l -10.6173,3.4429 -10.0484,-6.5137 c -5.5265,-3.5826 -15.4483,-9.1981 -22.0483,-12.479 -6.6,-3.2809 -15.6,-6.8841 -20,-8.0072 -5.6117,-1.4323 -9.4894,-1.8549 -12.989,-1.4156 -2.7439,0.3445 -6.466,1.5392 -8.2714,2.655 -1.8053,1.1157 -4.3787,3.466 -5.7187,5.2228 -1.34,1.7568 -3.1304,5.8587 -3.9786,9.1153 -0.8483,3.2566 -1.5396,9.5391 -1.5364,13.961 0,4.422 0.6627,12.3969 1.4654,17.7221 0.8027,5.3252 2.6099,14.2208 4.0161,19.768 1.4062,5.5473 3.6863,13.6619 5.0669,18.0324 l 2.5103,7.9465 -2.918,5.7855 c -1.6049,3.182 -4.3166,9.7507 -6.0259,14.597 -1.7094,4.8464 -4.0108,13.2421 -5.1143,18.6571 -1.1035,5.415 -2.0064,11.6232 -2.0064,13.796 v 3.9504 l 5.75,0.6118 c 3.1625,0.3364 8.4711,1.536 11.797,2.6657 3.3258,1.1296 8.2758,3.5123 11,5.2949 4.1078,2.6879 4.953,3.7504 4.953,6.2267 0,2.2507 -0.5061,3.0582 -2.0556,3.2799 -1.1306,0.1618 -4.7306,-1.319 -8,-3.2906 -3.2694,-1.9716 -8.1944,-4.2181 -10.9444,-4.9924 -2.75,-0.7742 -6.7848,-1.5405 -8.9662,-1.7029 l -3.9661,-0.2953 0.2618,4.9936 c 0.144,2.7464 0.7371,7.516 1.3179,10.599 0.5808,3.0831 1.3876,6.1422 1.793,6.7981 0.5512,0.8918 2.6689,0.9527 8.3981,0.2414 4.3657,-0.542 10.5078,-0.5981 14.2789,-0.1304 3.6399,0.4514 7.0531,1.2559 7.5849,1.7878 0.5319,0.5318 0.8165,2.0314 0.6324,3.3323 -0.331,2.3396 -0.4677,2.3653 -12.5328,2.3653 -8.0603,0 -12.6003,0.4016 -13.3838,1.1839 -0.9141,0.9126 -0.5917,2.1973 1.4069,5.6077 1.4259,2.4331 4.5986,6.8865 7.0505,9.8964 2.4518,3.0099 7.7579,7.9901 11.7912,11.0671 4.0333,3.0769 10.7083,7.3978 14.8333,9.6018 4.125,2.204 10.6378,5.1805 14.4728,6.6143 3.835,1.4338 11.26,3.6811 16.5,4.9939 5.24,1.3129 14.2522,3.1128 20.0272,3.9997 5.775,0.8869 15.675,1.9809 22,2.4311 6.325,0.4502 15.55,0.8817 20.5,0.9589 4.95,0.077 15.075,-0.3057 22.5,-0.8509 z m -43.0949,-53.9362 c -1.9772,-0.3863 -5.1272,-1.5796 -7,-2.6518 -2.0896,-1.1963 -4.3159,-3.7792 -5.7627,-6.6858 -1.5735,-3.1612 -2.1456,-5.581 -1.7202,-7.276 0.3506,-1.3968 1.3,-2.794 2.1099,-3.1047 0.8098,-0.3108 2.5605,-0.2919 3.8905,0.042 1.6495,0.4139 2.6268,1.5569 3.0745,3.5956 0.3611,1.6438 1.8076,3.8943 3.2146,5.001 1.8473,1.4531 4.0613,2.0121 7.9686,2.0121 4.4113,0 5.864,-0.4533 7.8652,-2.4545 1.5537,-1.5537 2.4545,-3.5959 2.4545,-5.5646 0,-2.22 -0.8488,-3.8242 -2.966,-5.6057 -1.7551,-1.4768 -3.2289,-3.8973 -3.61,-5.9289 -0.3543,-1.8882 -0.363,-4.5529 -0.02,-5.9215 0.3435,-1.3686 1.9456,-3.1716 3.5604,-4.0066 1.7551,-0.9076 5.5898,-1.5182 9.5351,-1.5182 3.9454,0 7.78,0.6106 9.5352,1.5182 1.6147,0.835 3.2169,2.638 3.5604,4.0066 0.3435,1.3686 0.3347,4.0333 -0.019,5.9215 -0.3811,2.0316 -1.8549,4.4521 -3.6101,5.9289 -2.1172,1.7815 -2.966,3.3857 -2.966,5.6057 0,1.9687 0.9008,4.0109 2.4546,5.5646 2.0012,2.0012 3.4539,2.4545 7.8651,2.4545 3.9073,0 6.1213,-0.559 7.9687,-2.0121 1.4069,-1.1067 2.8535,-3.3572 3.2145,-5.001 0.4478,-2.0387 1.4251,-3.1817 3.0746,-3.5956 1.3299,-0.3338 3.0806,-0.3527 3.8905,-0.042 0.8098,0.3107 1.7593,1.7079 2.1098,3.1047 0.4252,1.6939 -0.1477,4.1225 -1.7202,7.2928 -1.5981,3.2219 -3.6029,5.4414 -6.2231,6.8896 -2.126,1.1751 -6.0052,2.4204 -8.6204,2.7673 -2.6151,0.3469 -6.9631,0.1571 -9.6622,-0.4217 -2.699,-0.5788 -6.2319,-2.1086 -7.8507,-3.3995 l -2.9435,-2.347 -3.0288,2.284 c -1.6659,1.2562 -4.8289,2.7757 -7.0289,3.3767 -2.2,0.6009 -5.125,1.0433 -6.5,0.9832 -1.375,-0.06 -4.1177,-0.4255 -6.0949,-0.8118 z m -42.4051,-26.7329 c -1.65,-0.8718 -3.851,-2.3163 -4.8912,-3.2099 -1.0402,-0.8937 -2.7178,-3.4249 -3.728,-5.6249 -1.0313,-2.2456 -1.8465,-6.32 -1.8588,-9.2898 -0.014,-3.2713 0.7041,-6.7056 1.8807,-9 1.0465,-2.0406 2.9651,-4.7012 4.2637,-5.9124 1.2985,-1.2113 4.0278,-2.8988 6.0652,-3.75 2.0373,-0.8513 4.9561,-1.5379 6.4863,-1.5258 1.5302,0.012 4.6007,0.848 6.8235,1.8577 2.2227,1.0097 5.2216,3.2383 6.6641,4.9526 1.4424,1.7143 3.1629,4.7538 3.8231,6.7544 0.6603,2.0006 1.0017,6.035 0.7587,8.9652 -0.294,3.5452 -1.3365,6.6796 -3.1157,9.3682 -1.4706,2.2222 -4.4554,4.9493 -6.6329,6.0602 -2.3989,1.2238 -5.8465,2.004 -8.7488,1.9797 -2.6344,-0.022 -6.1399,-0.7533 -7.7899,-1.6252 z m 12.5,-23.3348 c 1.1,-1.1 2,-3.3324 2,-4.961 0,-1.7583 -0.8889,-3.7892 -2.1885,-5 -1.2037,-1.1214 -3.1439,-2.039 -4.3115,-2.039 -1.1676,0 -3.1077,0.9176 -4.3114,2.039 -1.2996,1.2108 -2.1886,3.2417 -2.1886,5 0,1.6286 0.9,3.861 2,4.961 1.1,1.1 3.125,2 4.5,2 1.375,0 3.4,-0.9 4.5,-2 z m 100.7476,22.9307 c -2.0639,-1.0895 -4.9541,-3.7967 -6.4227,-6.016 -1.8,-2.7199 -2.818,-5.8165 -3.1236,-9.5007 -0.3053,-3.682 0.099,-6.9106 1.2377,-9.8932 0.9299,-2.4352 3.2292,-5.7782 5.1094,-7.429 1.8801,-1.6509 5.1825,-3.5301 7.3386,-4.176 2.156,-0.646 5.426,-0.89 7.2666,-0.5422 1.8405,0.3477 4.7568,1.4926 6.4806,2.5442 1.7238,1.0516 4.3983,3.5693 5.9433,5.5949 2.1307,2.7935 2.9103,5.0826 3.2283,9.4791 0.2306,3.188 -0.107,7.3909 -0.7502,9.3398 -0.6432,1.9489 -2.0864,4.7091 -3.207,6.1339 -1.1207,1.4247 -3.7772,3.4778 -5.9033,4.5624 -2.3181,1.1826 -5.7831,1.9544 -8.6554,1.9279 -2.7669,-0.025 -6.3747,-0.8808 -8.5423,-2.0251 z m 13.2524,-22.9307 c 1.1,-1.1 2,-3.3324 2,-4.961 0,-1.7583 -0.8889,-3.7892 -2.1885,-5 -1.2037,-1.1214 -3.1439,-2.039 -4.3115,-2.039 -1.1676,0 -3.1077,0.9176 -4.3114,2.039 -1.2996,1.2108 -2.1886,3.2417 -2.1886,5 0,1.6286 0.9,3.861 2,4.961 1.1,1.1 3.125,2 4.5,2 1.375,0 3.4,-0.9 4.5,-2 z"
         id="path3370" /></g></g></svg>
