<?xml version="1.0" encoding="UTF-8" standalone="no"?>
<!-- Created with Inkscape (http://www.inkscape.org/) -->

<svg
   version="1.1"
   id="svg1"
   width="152.60498"
   height="157.7749"
   viewBox="0 0 152.60498 157.7749"
   sodipodi:docname="Linotte app main inkscape.ai"
   inkscape:version="1.4.2 (ebf0e940, 2025-05-08)"
   xml:space="preserve"
   xmlns:inkscape="http://www.inkscape.org/namespaces/inkscape"
   xmlns:sodipodi="http://sodipodi.sourceforge.net/DTD/sodipodi-0.dtd"
   xmlns="http://www.w3.org/2000/svg"
   xmlns:svg="http://www.w3.org/2000/svg"><defs
     id="defs1" /><sodipodi:namedview
     id="namedview1"
     pagecolor="#ffffff"
     bordercolor="#000000"
     borderopacity="0.25"
     inkscape:showpageshadow="2"
     inkscape:pageopacity="0.0"
     inkscape:pagecheckerboard="0"
     inkscape:deskcolor="#d1d1d1"
     showgrid="false"
     inkscape:zoom="0.47329795"
     inkscape:cx="1604.6974"
     inkscape:cy="1204.3154"
     inkscape:window-width="1472"
     inkscape:window-height="844"
     inkscape:window-x="0"
     inkscape:window-y="34"
     inkscape:window-maximized="0"
     inkscape:current-layer="layer-MC0"><inkscape:page
       x="0"
       y="0"
       width="152.60498"
       height="157.7749"
       id="page2"
       margin="0"
       bleed="0" /></sodipodi:namedview><g
     id="layer-MC0"
     inkscape:groupmode="layer"
     inkscape:label="Livello 1"
     transform="translate(711.77315,-1115.8414)"><g
       id="g3654"
       transform="matrix(0.69286237,0,0,0.69286237,-270.74983,-1421.7014)"><g
         id="g3655"><path
           style="fill:#f7e764"
           d="m -539.18671,3889.1327 c -3.3,-0.4755 -9.98239,-2.0028 -14.84976,-3.3939 -4.86736,-1.391 -12.23993,-4.0956 -16.38347,-6.01 -4.14354,-1.9144 -11.36215,-6.0281 -16.04135,-9.1416 -4.67921,-3.1134 -11.95872,-9.0774 -16.17669,-13.2534 -4.21798,-4.1759 -10.04564,-10.9676 -12.95035,-15.0926 -2.90472,-4.125 -6.87892,-10.65 -8.83156,-14.5 -1.95264,-3.85 -4.63243,-10.15 -5.95511,-14 -1.32267,-3.85 -3.08916,-10.15 -3.92554,-14 -0.83638,-3.85 -1.77471,-11.95 -2.08519,-18 -0.32306,-6.2952 -0.0628,-14.7556 0.6086,-19.7808 0.64521,-4.8294 2.29479,-12.7044 3.66574,-17.5 1.37095,-4.7955 4.27067,-12.461 6.44382,-17.0343 2.17314,-4.5733 6.32035,-11.765 9.21602,-15.9816 2.89566,-4.2165 8.87274,-11.289 13.2824,-15.7167 4.40965,-4.4276 11.88709,-10.625 16.61653,-13.7718 4.72943,-3.1469 11.96636,-7.2774 16.08206,-9.179 4.11569,-1.9016 11.3619,-4.5814 16.10268,-5.9552 4.74078,-1.3739 12.57095,-3.027 17.40038,-3.6737 5.26309,-0.7048 13.59399,-0.9347 20.79537,-0.5741 7.94896,0.3981 15.39356,1.4749 22,3.1821 5.49198,1.4191 14.93542,4.9605 20.98542,7.8698 6.05,2.9092 14.63346,8.0368 19.07434,11.3946 4.44089,3.3578 11.12884,9.343 14.86212,13.3005 3.73329,3.9575 9.15693,10.846 12.05256,15.3078 2.89562,4.4618 6.47542,10.5197 7.95511,13.4618 1.47969,2.9422 2.54758,5.477 2.37311,5.633 -0.17448,0.1559 -19.56251,9.6434 -43.08452,21.0832 -23.52201,11.4399 -42.42201,21.1047 -42,21.4774 0.42201,0.3727 19.66728,9.8167 42.76728,20.9866 23.1,11.17 42.37141,20.6268 42.82535,21.0151 0.45394,0.3883 -0.84582,4.0246 -2.88836,8.0807 -2.04253,4.056 -5.95946,10.7028 -8.70428,14.7705 -2.74482,4.0678 -8.27745,10.8363 -12.29473,15.0411 -4.01729,4.2049 -10.82176,10.1699 -15.12107,13.2558 -4.2993,3.0858 -11.43591,7.4288 -15.85913,9.6511 -4.42322,2.2224 -11.61303,5.2063 -15.97735,6.6309 -4.36432,1.4247 -11.99532,3.2488 -16.95778,4.0537 -4.96245,0.8049 -13.52265,1.4104 -19.02265,1.3455 -5.5,-0.065 -12.7,-0.507 -16,-0.9825 z"
           id="path3655" /><path
           style="fill:#202022"
           d="m -537.18671,3889.1841 c -3.85,-0.5195 -11.05,-2.0802 -16,-3.4681 -4.95,-1.3879 -13.14909,-4.5116 -18.2202,-6.9416 -5.07111,-2.43 -12.04611,-6.3227 -15.5,-8.6504 -3.45389,-2.3276 -9.81672,-7.641 -14.13962,-11.8075 -4.3229,-4.1664 -9.75328,-10.0503 -12.0675,-13.0753 -2.31422,-3.025 -5.8754,-8.2763 -7.91373,-11.6696 -2.03834,-3.3933 -5.0618,-9.4573 -6.71881,-13.4756 -1.65701,-4.0182 -3.90433,-10.798 -4.99405,-15.066 -1.08973,-4.268 -2.49735,-12.486 -3.12805,-18.2622 -0.87378,-8.0024 -0.86278,-13.1204 0.0462,-21.5012 0.65611,-6.0494 2.33544,-14.9424 3.73184,-19.7622 1.3964,-4.8197 3.78704,-11.7345 5.31254,-15.3661 1.5255,-3.6316 5.37921,-10.6066 8.56381,-15.5 3.1846,-4.8934 9.63781,-12.8349 14.34046,-17.6477 4.70266,-4.8129 11.80729,-11.0022 15.78807,-13.7541 3.98078,-2.7519 11.43657,-7.0135 16.56841,-9.4702 5.13185,-2.4567 13.29921,-5.5993 18.1497,-6.9835 4.85049,-1.3842 13.91153,-3.0331 20.13566,-3.6641 8.37296,-0.8488 14.01251,-0.8597 21.68093,-0.042 5.70039,0.6081 13.96434,2.0536 18.36434,3.2122 4.4,1.1586 11.18954,3.4334 15.08787,5.0551 3.89832,1.6217 10.42332,5.0041 14.5,7.5163 4.07667,2.5123 10.47367,7.0714 14.21555,10.1314 3.74188,3.0599 9.19919,8.3053 12.12735,11.6564 2.92816,3.351 7.51663,9.4802 10.19658,13.6204 2.67996,4.1402 5.96146,9.8764 7.29223,12.7471 1.33076,2.8707 2.19581,5.4433 1.92231,5.7168 -0.27349,0.2734 -19.3623,9.6881 -42.41957,20.9214 -23.05727,11.2334 -41.87725,20.7984 -41.82217,21.2557 0.0551,0.4573 19.48607,10.2416 43.17999,21.7429 43.07984,20.9114 43.07984,20.9114 39.02809,29 -2.22847,4.4487 -6.13446,11.228 -8.67999,15.0652 -2.54553,3.8372 -8.45324,10.8361 -13.12824,15.5531 -4.675,4.7169 -12.325,11.0899 -17,14.162 -4.675,3.0722 -10.83677,6.7554 -13.69283,8.1849 -2.85606,1.4295 -8.55413,3.7274 -12.66237,5.1065 -4.10825,1.3791 -10.72276,3.1918 -14.69891,4.0282 -3.97615,0.8364 -12.45308,1.7132 -18.83762,1.9484 -6.38455,0.2353 -14.75827,0 -18.60827,-0.5169 z m 27,-8.0514 c 4.95,-0.6067 12.74811,-2.1887 17.32913,-3.5158 4.58102,-1.327 11.78102,-4.1052 16,-6.1737 4.21898,-2.0685 10.37087,-5.5144 13.67087,-7.6574 3.3,-2.1431 10.5,-8.4521 16,-14.02 6.49471,-6.5749 11.64673,-12.9103 14.69783,-18.074 2.5838,-4.3728 4.8338,-8.5396 5,-9.2595 0.1943,-0.8416 -16.3719,-9.4095 -46.40436,-24 -25.6886,-12.4801 -46.8386,-23.0255 -47,-23.4341 -0.16141,-0.4087 20.63153,-10.9264 46.20653,-23.3727 25.575,-12.4463 46.60538,-22.7173 46.73418,-22.8245 0.1288,-0.1071 -1.99421,-3.8158 -4.71781,-8.2415 -2.72359,-4.4257 -8.22897,-11.5629 -12.23418,-15.8605 -4.0052,-4.2975 -10.69715,-10.3509 -14.871,-13.452 -4.17385,-3.1011 -11.38823,-7.4946 -16.03196,-9.7633 -4.64372,-2.2687 -12.34529,-5.2557 -17.1146,-6.6378 -4.7693,-1.3821 -13.41742,-3.0645 -19.21804,-3.7388 -8.26793,-0.9611 -12.78401,-0.9659 -20.90233,-0.022 -5.69566,0.6621 -13.68316,2.1194 -17.75,3.2386 -4.06684,1.1191 -11.89426,4.1847 -17.39426,6.8125 -5.5,2.6277 -13.66595,7.5498 -18.14656,10.9381 -4.48061,3.3882 -10.45744,8.6888 -13.28184,11.7792 -2.8244,3.0903 -7.15285,8.4461 -9.61877,11.9018 -2.46592,3.4557 -6.47263,10.4913 -8.90379,15.6346 -2.43116,5.1433 -5.33522,12.6668 -6.45346,16.7188 -1.11825,4.052 -2.55892,12.0395 -3.20149,17.75 -0.89108,7.919 -0.89108,12.8464 0,20.7654 0.64257,5.7105 2.08324,13.698 3.20149,17.75 1.11824,4.052 4.0223,11.5755 6.45346,16.7188 2.43116,5.1434 6.43787,12.1789 8.90379,15.6346 2.46592,3.4557 6.79437,8.8115 9.61877,11.9019 2.8244,3.0903 8.73732,8.333 13.13982,11.6504 4.4025,3.3174 12.56846,8.2462 18.14657,10.9529 5.57811,2.7067 13.89829,5.8823 18.48929,7.057 4.591,1.1747 11.341,2.4852 15,2.9123 3.659,0.4271 8.67772,0.8344 11.15272,0.9052 2.475,0.071 8.55,-0.3677 13.5,-0.9743 z m -18.85745,-149.8885 c -1.57159,-0.4881 -3.75516,-1.6999 -4.85238,-2.6929 -1.09721,-0.9929 -2.62385,-3.0216 -3.39255,-4.5081 -0.76869,-1.4865 -1.39762,-4.5844 -1.39762,-6.8843 0,-2.4472 0.8361,-5.5345 2.01577,-7.4432 1.10867,-1.7939 3.53917,-3.9845 5.40113,-4.868 1.86195,-0.8836 4.82435,-1.6065 6.5831,-1.6065 1.75876,0 4.72116,0.7229 6.58311,1.6065 1.86195,0.8835 4.29246,3.0741 5.40113,4.868 1.22072,1.9752 2.01429,4.9899 2.01203,7.6435 -0.002,2.5775 -0.80613,5.698 -1.95226,7.5777 -1.07169,1.7576 -2.98251,3.8618 -4.24627,4.676 -1.26375,0.8142 -3.87274,1.714 -5.79774,1.9996 -1.925,0.2856 -4.78585,0.1198 -6.35745,-0.3683 z"
           id="path3654" /></g></g></g></svg>
