<?xml version="1.0" encoding="UTF-8" standalone="no"?>
<!-- Created with Inkscape (http://www.inkscape.org/) -->

<svg
   version="1.1"
   id="svg1"
   width="179.85327"
   height="159.41187"
   viewBox="0 0 179.85327 159.41187"
   sodipodi:docname="Linotte app main inkscape.ai"
   inkscape:version="1.4.2 (ebf0e940, 2025-05-08)"
   xml:space="preserve"
   xmlns:inkscape="http://www.inkscape.org/namespaces/inkscape"
   xmlns:sodipodi="http://sodipodi.sourceforge.net/DTD/sodipodi-0.dtd"
   xmlns="http://www.w3.org/2000/svg"
   xmlns:svg="http://www.w3.org/2000/svg"><defs
     id="defs1" /><sodipodi:namedview
     id="namedview1"
     pagecolor="#ffffff"
     bordercolor="#000000"
     borderopacity="0.25"
     inkscape:showpageshadow="2"
     inkscape:pageopacity="0.0"
     inkscape:pagecheckerboard="0"
     inkscape:deskcolor="#d1d1d1"
     showgrid="false"
     inkscape:zoom="0.26313033"
     inkscape:cx="1563.8638"
     inkscape:cy="809.48478"
     inkscape:window-width="1472"
     inkscape:window-height="844"
     inkscape:window-x="0"
     inkscape:window-y="34"
     inkscape:window-maximized="0"
     inkscape:current-layer="layer-MC0"><inkscape:page
       x="0"
       y="0"
       width="179.85327"
       height="159.41187"
       id="page2"
       margin="0"
       bleed="0" /></sodipodi:namedview><g
     id="layer-MC0"
     inkscape:groupmode="layer"
     inkscape:label="Livello 1"
     transform="translate(1456.3298,-1001.5342)"><g
       id="g3667"
       transform="matrix(0.3512759,0,0,0.3512759,-1112.3589,624.01814)"><path
         style="fill:#fdc97a"
         d="m -901.19849,1526.8273 c -2.83068,-0.9988 -6.59913,-3.6901 -10.17783,-7.2688 -4.46219,-4.4622 -6.03358,-6.8894 -7.31579,-11.3001 -1.36754,-4.7042 -1.58245,-9.8894 -1.32217,-31.9021 0.3033,-25.6517 0.37007,-26.4011 2.77139,-31.1018 1.35333,-2.6492 4.30349,-6.5155 6.55591,-8.5917 2.25243,-2.0762 4.80904,-4.1836 5.68137,-4.6832 1.39493,-0.7989 -1.0929,-12.7122 -20.6459,-98.8659 -22.23194,-97.9576 -22.23194,-97.9576 -26.74949,-99.1101 -2.48465,-0.6338 -6.88062,-2.4385 -9.76882,-4.0105 -2.8882,-1.572 -6.75184,-4.6112 -8.58587,-6.7538 -1.83403,-2.1427 -4.36559,-5.982 -5.62568,-8.5319 -1.90199,-3.8488 -2.29109,-6.2495 -2.29109,-14.1361 0,-8.0585 0.37214,-10.2587 2.45255,-14.5 1.3489,-2.75 4.49192,-7.0394 6.98448,-9.5319 2.49257,-2.4926 6.78194,-5.6356 9.53194,-6.9845 4.24133,-2.0804 6.44148,-2.4526 14.5,-2.4526 8.05852,0 10.25867,0.3722 14.5,2.4526 2.75,1.3489 7.03937,4.4919 9.53193,6.9845 2.49257,2.4925 5.56492,6.7386 6.82745,9.4358 1.26254,2.6971 2.59817,7.6005 2.96807,10.8965 0.67255,5.9927 0.67255,5.9927 39.17255,20.8331 21.175,8.1622 38.95,14.8232 39.5,14.8022 0.55,-0.021 17.00841,-18.9007 36.57424,-41.9549 35.57423,-41.9167 35.57423,-41.9167 31.5,-50.1146 -4.05939,-8.168 -4.07424,-8.2401 -4.07424,-19.7821 0,-11.3039 0.0899,-11.7723 3.71511,-19.3644 2.43177,-5.0927 5.57155,-9.6368 9.08923,-13.1545 2.95577,-2.9558 8.03397,-6.7051 11.28489,-8.3319 3.25092,-1.6267 8.33463,-3.5293 11.29712,-4.228 3.3067,-0.7798 8.61586,-1.0687 13.75088,-0.7484 6.86172,0.4281 9.71731,1.1643 15.89398,4.0976 4.93873,2.3454 9.42345,5.4697 13.03401,9.0803 3.64882,3.6488 6.75702,8.1275 9.21967,13.2849 3.62525,7.5921 3.71511,8.0605 3.71511,19.3644 0,11.5432 -0.0144,11.6132 -4.07693,19.7875 -4.07692,8.2033 -4.07692,8.2033 19.65545,36.0549 13.0528,15.3184 24.22492,28.772 24.82692,29.8968 0.60201,1.1249 1.09456,3.3247 1.09456,4.8884 0,1.5638 -0.71543,3.8647 -1.58984,5.1131 -1.53988,2.1985 -1.35438,2.5433 5.90214,10.9725 5.22317,6.0672 8.05158,8.6025 9.33984,8.3717 1.01632,-0.182 3.58141,-0.3968 5.70019,-0.4772 3.13756,-0.1192 4.36154,0.4235 6.59667,2.9251 2.74433,3.0714 2.74433,3.0714 13.64766,-1.1293 10.90334,-4.2008 10.90334,-4.2008 11.47739,-8.3955 0.35028,-2.5596 1.5197,-5.1181 3,-6.5634 1.4352,-1.4013 11.41068,-5.8114 24.42595,-10.7985 22,-8.4299 22,-8.4299 22.67255,-14.4262 0.3699,-3.298 1.70553,-8.203 2.96806,-10.9001 1.26254,-2.6972 4.33489,-6.9433 6.82745,-9.4358 2.49257,-2.4926 6.78194,-5.6356 9.53194,-6.9845 4.24133,-2.0804 6.44148,-2.4526 14.5,-2.4526 8.05852,0 10.25867,0.3722 14.5,2.4526 2.75,1.3489 7.03937,4.4919 9.53193,6.9845 2.49257,2.4925 5.63558,6.7819 6.98449,9.5319 2.08041,4.2413 2.45254,6.4415 2.45254,14.5 0,7.8866 -0.38909,10.2873 -2.29108,14.1361 -1.26009,2.5499 -3.79165,6.3892 -5.62568,8.5319 -1.83403,2.1426 -5.69767,5.1818 -8.58587,6.7538 -2.8882,1.572 -7.28417,3.3767 -9.76882,4.0105 -4.51755,1.1525 -4.51755,1.1525 -26.7495,99.1101 -19.55299,86.1537 -22.04083,98.067 -20.64589,98.8659 0.87232,0.4996 3.42894,2.607 5.68136,4.6832 2.25243,2.0762 5.20259,5.9425 6.55592,8.5917 2.40132,4.7007 2.46809,5.4501 2.77139,31.1018 0.26027,22.0127 0.0454,27.1979 -1.32217,31.9021 -1.28257,4.4119 -2.85129,6.8343 -7.31079,11.2892 -3.88435,3.8803 -7.2345,6.2013 -10.60597,7.3478 -4.53927,1.5436 -18.58499,1.6697 -178,1.5969 -155.3283,-0.071 -173.53269,-0.2415 -177.56686,-1.665 z"
         id="path3671" /><path
         style="fill:#77b0fc"
         d="m -901.19849,1526.8273 c -2.82588,-0.9971 -6.55796,-3.6599 -10.05062,-7.171 -4.2193,-4.2416 -5.97912,-6.9438 -7.31627,-11.2339 -1.53218,-4.9159 -1.72025,-9.0682 -1.44938,-32 0.31127,-26.3511 0.31127,-26.3511 2.98359,-31.4146 1.46977,-2.7849 4.44564,-6.6655 6.61304,-8.6236 2.1674,-1.9581 4.63411,-3.9546 5.48158,-4.4366 1.33401,-0.7587 -1.44444,-14.0262 -20.69724,-98.8324 -22.23811,-97.9562 -22.23811,-97.9562 -26.76143,-99.1101 -2.48783,-0.6346 -6.86842,-2.4303 -9.73465,-3.9903 -2.86623,-1.56 -6.53118,-4.3395 -8.14433,-6.1768 -1.61316,-1.8373 -4.16751,-5.6864 -5.67635,-8.5536 -2.43125,-4.6201 -2.74388,-6.2938 -2.74814,-14.7131 -0.005,-8.9167 0.20447,-9.886 3.4033,-15.7852 1.87445,-3.4569 4.92856,-7.6202 6.78691,-9.2519 1.85835,-1.6316 5.72471,-4.2011 8.5919,-5.71 4.62293,-2.4327 6.28856,-2.7433 14.71309,-2.7433 8.42452,0 10.09016,0.3106 14.71308,2.7433 2.8672,1.5089 6.73356,4.0784 8.59191,5.71 1.85835,1.6317 4.82746,5.6846 6.59802,9.0065 2.08036,3.9031 3.46292,8.2127 3.9081,12.1818 0.68889,6.1419 0.68889,6.1419 39.18889,20.9953 21.175,8.1693 38.99305,14.7409 39.59566,14.6034 0.60261,-0.1374 17.12595,-19.0693 36.71852,-42.0708 35.62285,-41.821 35.62285,-41.821 32.56817,-47.2336 -1.68008,-2.9769 -3.68558,-7.7825 -4.45665,-10.6791 -0.77108,-2.8965 -1.40196,-8.1914 -1.40196,-11.7664 0,-3.575 0.60192,-8.75 1.33761,-11.5 0.73569,-2.75 2.57587,-7.4374 4.08928,-10.4164 1.51342,-2.979 5.10881,-7.7735 7.98975,-10.6544 2.88095,-2.881 7.89793,-6.5691 11.14885,-8.1959 3.25092,-1.6267 8.33463,-3.5293 11.29712,-4.228 3.3067,-0.7798 8.61586,-1.0687 13.75088,-0.7484 6.86172,0.4281 9.71731,1.1643 15.89398,4.0976 4.87383,2.3146 9.42292,5.4692 12.89797,8.9442 2.95268,2.9527 6.60677,7.8059 8.12018,10.7849 1.51342,2.979 3.3536,7.6664 4.08929,10.4164 0.73568,2.75 1.33761,7.925 1.33761,11.5 0,3.575 -0.63088,8.8699 -1.40196,11.7664 -0.77108,2.8966 -2.76507,7.6818 -4.4311,10.6339 -3.02915,5.3673 -3.02915,5.3673 20.90396,33.5308 13.16321,15.4899 24.38754,29.0126 24.94297,30.0505 0.55543,1.0378 1.00987,3.1664 1.00987,4.7301 0,1.5638 -0.71981,3.871 -1.59959,5.127 -1.48087,2.1142 -1.46231,2.4462 0.25,4.4725 1.83987,2.1773 1.83863,2.1796 -0.23528,0.4332 -1.72924,-1.456 -2.61967,-1.5691 -5.22013,-0.6625 -2.27219,0.792 -4.03813,0.7899 -6.41513,-0.01 -2.50496,-0.8406 -9.05517,-7.8926 -27.72435,-29.8481 -24.44448,-28.7475 -24.44448,-28.7475 -31,-26.5126 -4.76284,1.6237 -8.87994,2.2349 -15.05552,2.2349 -6.17325,0 -10.29279,-0.6112 -15.04937,-2.2328 -6.54937,-2.2328 -6.54937,-2.2328 -45.45899,43.4605 -21.40029,25.1313 -39.96175,46.1727 -41.24768,46.7586 -1.28594,0.5859 -3.20391,1.0653 -4.26216,1.0653 -1.05825,0 -21.27302,-7.425 -44.9217,-16.5 -23.64869,-9.075 -43.29463,-16.5 -43.65766,-16.5 -0.36302,0 -2.51458,1.66 -4.78124,3.6889 -2.26666,2.0289 -4.28426,4.0931 -4.48356,4.5871 -0.1993,0.494 9.6773,45.184 21.948,99.3111 22.31036,98.4129 22.31036,98.4129 181.91855,98.4129 159.60818,0 159.60818,0 181.30074,-95.75 11.93091,-52.6625 21.97462,-97.2137 22.31936,-99.0027 0.56175,-2.9152 0.1727,-3.6633 -3.74875,-7.209 -2.40655,-2.176 -4.73447,-3.9747 -5.17315,-3.9973 -0.43869,-0.023 -10.7331,3.784 -22.87646,8.459 -12.14337,4.675 -23.04682,8.5 -24.22989,8.5 -1.18306,0 -3.23633,-0.7602 -4.56282,-1.6893 -1.32648,-0.9291 -3.11411,-2.3916 -3.9725,-3.25 -1.14446,-1.1444 -1.40761,-2.7079 -0.98667,-5.862 0.35761,-2.6796 1.48871,-5.1944 3,-6.67 1.4352,-1.4013 11.41068,-5.8114 24.42595,-10.7985 22,-8.4299 22,-8.4299 22.68889,-14.5754 0.44542,-3.9736 1.8266,-8.2801 3.90809,-12.1854 1.77057,-3.3219 4.73968,-7.3748 6.59803,-9.0065 1.85835,-1.6316 5.72471,-4.2011 8.5919,-5.71 4.62293,-2.4327 6.28856,-2.7433 14.71309,-2.7433 8.42452,0 10.09016,0.3106 14.71308,2.7433 2.8672,1.5089 6.73356,4.0784 8.59191,5.71 1.85835,1.6317 4.91246,5.795 6.78691,9.2519 3.19882,5.8992 3.4078,6.8685 3.40329,15.7852 -0.004,8.4193 -0.31689,10.093 -2.74814,14.7131 -1.50883,2.8672 -4.06318,6.7163 -5.67634,8.5536 -1.61315,1.8373 -5.2781,4.6168 -8.14433,6.1768 -2.86623,1.56 -7.25106,3.3567 -9.74407,3.9927 -4.53276,1.1563 -4.53276,1.1563 -26.76247,99.1101 -19.25207,84.8329 -22.02318,98.0711 -20.68782,98.83 0.84804,0.482 3.31522,2.4785 5.48262,4.4366 2.1674,1.9581 5.14327,5.8387 6.61304,8.6236 2.67232,5.0635 2.67232,5.0635 2.98358,31.4146 0.27088,22.9318 0.0828,27.0841 -1.44938,32 -1.33759,4.2915 -3.09437,6.9883 -7.31126,11.223 -3.78982,3.8058 -7.11396,6.1057 -10.47876,7.25 -4.53927,1.5436 -18.58499,1.6697 -178,1.5969 -155.3283,-0.071 -173.53269,-0.2415 -177.56686,-1.665 z m 351.58166,-21.5618 c 2.40547,-2.7966 2.41334,-2.8837 2.41334,-26.6942 0,-23.8108 -0.008,-23.8976 -2.41342,-26.6942 -2.41341,-2.8058 -2.41341,-2.8058 -173.58658,-2.8058 -171.17317,0 -171.17317,0 -173.58658,2.8058 -2.40509,2.796 -2.41342,2.8879 -2.41342,26.6151 0,22.3735 0.12182,23.9642 2.01992,26.3773 1.11096,1.4123 3.02346,2.7643 4.25,3.0044 1.22655,0.24 78.43158,0.3827 171.56674,0.3169 169.33667,-0.1195 169.33667,-0.1195 171.75,-2.9253 z m -258.66358,-19.6173 c -2.2925,-2.2925 -2.92308,-3.8192 -2.92308,-7.0769 0,-3.2578 0.63058,-4.7844 2.92308,-7.0769 2.29249,-2.2925 3.81916,-2.9231 7.07692,-2.9231 3.25776,0 4.78442,0.6306 7.07692,2.9231 2.2925,2.2925 2.92308,3.8191 2.92308,7.0769 0,3.2577 -0.63058,4.7844 -2.92308,7.0769 -2.2925,2.2925 -3.81916,2.9231 -7.07692,2.9231 -3.25776,0 -4.78443,-0.6306 -7.07692,-2.9231 z m 78,0 c -2.2925,-2.2925 -2.92308,-3.8192 -2.92308,-7.0769 0,-3.2578 0.63058,-4.7844 2.92308,-7.0769 2.29249,-2.2925 3.81916,-2.9231 7.07692,-2.9231 3.25776,0 4.78442,0.6306 7.07692,2.9231 2.2925,2.2925 2.92308,3.8191 2.92308,7.0769 0,3.2577 -0.63058,4.7844 -2.92308,7.0769 -2.2925,2.2925 -3.81916,2.9231 -7.07692,2.9231 -3.25776,0 -4.78443,-0.6306 -7.07692,-2.9231 z m 78,0 c -2.2925,-2.2925 -2.92308,-3.8192 -2.92308,-7.0769 0,-3.2578 0.63058,-4.7844 2.92308,-7.0769 2.29249,-2.2925 3.81916,-2.9231 7.07692,-2.9231 3.25776,0 4.78442,0.6306 7.07692,2.9231 2.2925,2.2925 2.92308,3.8191 2.92308,7.0769 0,3.2577 -0.63058,4.7844 -2.92308,7.0769 -2.2925,2.2925 -3.81916,2.9231 -7.07692,2.9231 -3.25776,0 -4.78443,-0.6306 -7.07692,-2.9231 z m -76.11674,-86.8322 c -1.48151,-0.9596 -11.79913,-13.4447 -22.92806,-27.7447 -11.12892,-14.3 -23.07928,-29.7252 -26.55634,-34.2782 -4.83244,-6.3277 -6.32194,-9.0608 -6.32194,-11.5999 0,-2.0685 1.07238,-4.7933 2.84229,-7.2219 1.56325,-2.145 13.51041,-17.625 26.54923,-34.4 13.03882,-16.775 24.92229,-31.2851 26.40771,-32.2447 1.48542,-0.9597 3.82577,-1.7448 5.20077,-1.7448 1.375,0 3.71268,0.7851 5.19484,1.7448 1.48217,0.9596 13.37113,15.4697 26.41991,32.2447 13.04879,16.775 24.99861,32.255 26.55516,34.4 1.75609,2.42 2.83009,5.1607 2.83009,7.2219 0,2.5514 -1.52281,5.3176 -6.56583,11.9271 -3.6112,4.7329 -15.56099,20.1581 -26.5551,34.2781 -10.9941,14.1201 -21.20198,26.458 -22.68417,27.4176 -1.4822,0.9596 -3.8199,1.7448 -5.1949,1.7448 -1.375,0 -3.71215,-0.7852 -5.19366,-1.7448 z m 105.9688,-144.8035 c -1.49867,-0.8133 -3.18617,-2.3407 -3.75,-3.3942 -0.56383,-1.0536 -1.02514,-3.2739 -1.02514,-4.9342 0,-1.6603 0.51235,-4.1432 1.13856,-5.5176 0.6262,-1.3743 2.6723,-3.2266 4.54687,-4.1162 2.14548,-1.0181 4.49248,-1.3792 6.33441,-0.9747 1.60935,0.3535 3.96664,1.8793 5.23843,3.3908 1.27178,1.5114 2.74644,2.6783 3.27703,2.5931 0.53058,-0.085 0.6272,0.033 0.2147,0.2618 -0.4125,0.2292 -0.75,1.9837 -0.75,3.8991 0,1.9153 -0.46334,4.3481 -1.02965,5.4063 -0.5663,1.0581 -2.34395,2.6035 -3.95034,3.4342 -1.60638,0.8307 -3.95554,1.4924 -5.22035,1.4704 -1.26481,-0.022 -3.52585,-0.7055 -5.02452,-1.5188 z m 18.22486,-13.9412 c 0,-0.275 0.225,-0.5 0.5,-0.5 0.275,0 0.5,0.225 0.5,0.5 0,0.275 -0.225,0.5 -0.5,0.5 -0.275,0 -0.5,-0.225 -0.5,-0.5 z m 3,-1 c 0,-0.275 0.225,-0.5 0.5,-0.5 0.275,0 0.5,0.225 0.5,0.5 0,0.275 -0.225,0.5 -0.5,0.5 -0.275,0 -0.5,-0.225 -0.5,-0.5 z m 2.33333,-1.1667 c 0.36667,-0.3666 0.96667,-0.3666 1.33334,0 0.36666,0.3667 0.0667,0.6667 -0.66667,0.6667 -0.73333,0 -1.03333,-0.3 -0.66667,-0.6667 z m 2.66667,-0.8333 c 0,-0.275 0.225,-0.5 0.5,-0.5 0.275,0 0.5,0.225 0.5,0.5 0,0.275 -0.225,0.5 -0.5,0.5 -0.275,0 -0.5,-0.225 -0.5,-0.5 z m -31.07569,-3.25 c -2.42431,-2.75 -2.42431,-2.75 0.32569,-0.3257 1.5125,1.3334 2.75,2.5709 2.75,2.75 0,0.1791 -0.14656,0.3257 -0.32569,0.3257 -0.17912,0 -1.41662,-1.2375 -2.75,-2.75 z m 33.40902,2.0833 c 0.36667,-0.3666 0.96667,-0.3666 1.33334,0 0.36666,0.3667 0.0667,0.6667 -0.66667,0.6667 -0.73333,0 -1.03333,-0.3 -0.66667,-0.6667 z m 2.66667,-0.8333 c 0,-0.275 0.225,-0.5 0.5,-0.5 0.275,0 0.5,0.225 0.5,0.5 0,0.275 -0.225,0.5 -0.5,0.5 -0.275,0 -0.5,-0.225 -0.5,-0.5 z m 3,-1 c 0,-0.275 0.225,-0.5 0.5,-0.5 0.275,0 0.5,0.225 0.5,0.5 0,0.275 -0.225,0.5 -0.5,0.5 -0.275,0 -0.5,-0.225 -0.5,-0.5 z m -44.59501,-6.75 c -1.90499,-2.25 -1.90499,-2.25 0.34501,-0.345 1.2375,1.0477 2.25,2.0602 2.25,2.25 0,0.1897 -0.15526,0.345 -0.34501,0.345 -0.18976,0 -1.20226,-1.0125 -2.25,-2.25 z"
         id="path3670" /><path
         style="fill:#d5aa67"
         d="m -901.19849,1526.8273 c -2.82588,-0.9971 -6.55796,-3.6599 -10.05062,-7.171 -4.2193,-4.2416 -5.97912,-6.9438 -7.31627,-11.2339 -1.53218,-4.9159 -1.72025,-9.0682 -1.44938,-32 0.31127,-26.3511 0.31127,-26.3511 2.98359,-31.4146 1.46977,-2.7849 4.44564,-6.6655 6.61304,-8.6236 2.1674,-1.9581 4.63411,-3.9546 5.48158,-4.4366 1.33401,-0.7587 -1.44444,-14.0262 -20.69724,-98.8324 -22.23811,-97.9562 -22.23811,-97.9562 -26.76143,-99.1101 -2.48783,-0.6346 -6.86842,-2.4303 -9.73465,-3.9903 -2.86623,-1.56 -6.53118,-4.3395 -8.14433,-6.1768 -1.61316,-1.8373 -4.16751,-5.6864 -5.67635,-8.5536 -2.43125,-4.6201 -2.74388,-6.2938 -2.74814,-14.7131 -0.005,-8.9167 0.20447,-9.886 3.4033,-15.7852 1.87445,-3.4569 4.92856,-7.6202 6.78691,-9.2519 1.85835,-1.6316 5.72471,-4.2011 8.5919,-5.71 4.62293,-2.4327 6.28856,-2.7433 14.71309,-2.7433 8.42452,0 10.09016,0.3106 14.71308,2.7433 2.8672,1.5089 6.73356,4.0784 8.59191,5.71 1.85835,1.6317 4.82746,5.6846 6.59802,9.0065 2.08036,3.9031 3.46292,8.2127 3.9081,12.1818 0.68889,6.1419 0.68889,6.1419 39.18889,20.9953 21.175,8.1693 38.99305,14.7409 39.59566,14.6034 0.60261,-0.1374 17.12595,-19.0693 36.71852,-42.0708 35.62285,-41.821 35.62285,-41.821 32.56817,-47.2336 -1.68008,-2.9769 -3.68558,-7.7825 -4.45665,-10.6791 -0.77108,-2.8965 -1.40196,-8.1914 -1.40196,-11.7664 0,-3.575 0.60192,-8.75 1.33761,-11.5 0.73569,-2.75 2.57587,-7.4374 4.08928,-10.4164 1.51342,-2.979 5.10881,-7.7735 7.98975,-10.6544 2.88095,-2.881 7.89793,-6.5691 11.14885,-8.1959 3.25092,-1.6267 8.33463,-3.5293 11.29712,-4.228 3.3067,-0.7798 8.61586,-1.0687 13.75088,-0.7484 6.86172,0.4281 9.71731,1.1643 15.89398,4.0976 4.87383,2.3146 9.42292,5.4692 12.89797,8.9442 2.95268,2.9527 6.60677,7.8059 8.12018,10.7849 1.51342,2.979 3.3536,7.6664 4.08929,10.4164 0.73568,2.75 1.33761,7.925 1.33761,11.5 0,3.575 -0.63088,8.8699 -1.40196,11.7664 -0.77108,2.8966 -2.76507,7.6818 -4.4311,10.6339 -3.02915,5.3673 -3.02915,5.3673 20.90396,33.5308 13.16321,15.4899 24.38754,29.0126 24.94297,30.0505 0.55543,1.0378 1.00987,3.1664 1.00987,4.7301 0,1.5638 -0.71981,3.871 -1.59959,5.127 -1.48087,2.1142 -1.46231,2.4462 0.25,4.4725 1.83987,2.1773 1.83863,2.1796 -0.23528,0.4332 -1.72924,-1.456 -2.61967,-1.5691 -5.22013,-0.6625 -2.27219,0.792 -4.03813,0.7899 -6.41513,-0.01 -2.50496,-0.8406 -9.05517,-7.8926 -27.72435,-29.8481 -24.44448,-28.7475 -24.44448,-28.7475 -31,-26.5126 -4.76284,1.6237 -8.87994,2.2349 -15.05552,2.2349 -6.17325,0 -10.29279,-0.6112 -15.04937,-2.2328 -6.54937,-2.2328 -6.54937,-2.2328 -45.45899,43.4605 -21.40029,25.1313 -39.96175,46.1727 -41.24768,46.7586 -1.28594,0.5859 -3.20391,1.0653 -4.26216,1.0653 -1.05825,0 -21.27302,-7.425 -44.9217,-16.5 -23.64869,-9.075 -43.29463,-16.5 -43.65766,-16.5 -0.36302,0 -2.51458,1.66 -4.78124,3.6889 -2.26666,2.0289 -4.28426,4.0931 -4.48356,4.5871 -0.1993,0.494 9.6773,45.184 21.948,99.3111 22.31036,98.4129 22.31036,98.4129 181.91855,98.4129 159.60818,0 159.60818,0 181.30074,-95.75 11.93091,-52.6625 21.97462,-97.2137 22.31936,-99.0027 0.56175,-2.9152 0.1727,-3.6633 -3.74875,-7.209 -2.40655,-2.176 -4.73447,-3.9747 -5.17315,-3.9973 -0.43869,-0.023 -10.7331,3.784 -22.87646,8.459 -12.14337,4.675 -23.04682,8.5 -24.22989,8.5 -1.18306,0 -3.23633,-0.7602 -4.56282,-1.6893 -1.32648,-0.9291 -3.11411,-2.3916 -3.9725,-3.25 -1.14446,-1.1444 -1.40761,-2.7079 -0.98667,-5.862 0.35761,-2.6796 1.48871,-5.1944 3,-6.67 1.4352,-1.4013 11.41068,-5.8114 24.42595,-10.7985 22,-8.4299 22,-8.4299 22.68889,-14.5754 0.44542,-3.9736 1.8266,-8.2801 3.90809,-12.1854 1.77057,-3.3219 4.73968,-7.3748 6.59803,-9.0065 1.85835,-1.6316 5.72471,-4.2011 8.5919,-5.71 4.62293,-2.4327 6.28856,-2.7433 14.71309,-2.7433 8.42452,0 10.09016,0.3106 14.71308,2.7433 2.8672,1.5089 6.73356,4.0784 8.59191,5.71 1.85835,1.6317 4.91246,5.795 6.78691,9.2519 3.19882,5.8992 3.4078,6.8685 3.40329,15.7852 -0.004,8.4193 -0.31689,10.093 -2.74814,14.7131 -1.50883,2.8672 -4.06318,6.7163 -5.67634,8.5536 -1.61315,1.8373 -5.2781,4.6168 -8.14433,6.1768 -2.86623,1.56 -7.25106,3.3567 -9.74407,3.9927 -4.53276,1.1563 -4.53276,1.1563 -26.76247,99.1101 -19.25207,84.8329 -22.02318,98.0711 -20.68782,98.83 0.84804,0.482 3.31522,2.4785 5.48262,4.4366 2.1674,1.9581 5.14327,5.8387 6.61304,8.6236 2.67232,5.0635 2.67232,5.0635 2.98358,31.4146 0.27088,22.9318 0.0828,27.0841 -1.44938,32 -1.33759,4.2915 -3.09437,6.9883 -7.31126,11.223 -3.78982,3.8058 -7.11396,6.1057 -10.47876,7.25 -4.53927,1.5436 -18.58499,1.6697 -178,1.5969 -155.3283,-0.071 -173.53269,-0.2415 -177.56686,-1.665 z m 351.58166,-21.5618 c 2.40547,-2.7966 2.41334,-2.8837 2.41334,-26.6942 0,-23.8108 -0.008,-23.8976 -2.41342,-26.6942 -2.41341,-2.8058 -2.41341,-2.8058 -173.58658,-2.8058 -171.17317,0 -171.17317,0 -173.58658,2.8058 -2.40509,2.796 -2.41342,2.8879 -2.41342,26.6151 0,22.3735 0.12182,23.9642 2.01992,26.3773 1.11096,1.4123 3.02346,2.7643 4.25,3.0044 1.22655,0.24 78.43158,0.3827 171.56674,0.3169 169.33667,-0.1195 169.33667,-0.1195 171.75,-2.9253 z m -258.66358,-19.6173 c -2.2925,-2.2925 -2.92308,-3.8192 -2.92308,-7.0769 0,-3.2578 0.63058,-4.7844 2.92308,-7.0769 2.29249,-2.2925 3.81916,-2.9231 7.07692,-2.9231 3.25776,0 4.78442,0.6306 7.07692,2.9231 2.2925,2.2925 2.92308,3.8191 2.92308,7.0769 0,3.2577 -0.63058,4.7844 -2.92308,7.0769 -2.2925,2.2925 -3.81916,2.9231 -7.07692,2.9231 -3.25776,0 -4.78443,-0.6306 -7.07692,-2.9231 z m 78,0 c -2.2925,-2.2925 -2.92308,-3.8192 -2.92308,-7.0769 0,-3.2578 0.63058,-4.7844 2.92308,-7.0769 2.29249,-2.2925 3.81916,-2.9231 7.07692,-2.9231 3.25776,0 4.78442,0.6306 7.07692,2.9231 2.2925,2.2925 2.92308,3.8191 2.92308,7.0769 0,3.2577 -0.63058,4.7844 -2.92308,7.0769 -2.2925,2.2925 -3.81916,2.9231 -7.07692,2.9231 -3.25776,0 -4.78443,-0.6306 -7.07692,-2.9231 z m 78,0 c -2.2925,-2.2925 -2.92308,-3.8192 -2.92308,-7.0769 0,-3.2578 0.63058,-4.7844 2.92308,-7.0769 2.29249,-2.2925 3.81916,-2.9231 7.07692,-2.9231 3.25776,0 4.78442,0.6306 7.07692,2.9231 2.2925,2.2925 2.92308,3.8191 2.92308,7.0769 0,3.2577 -0.63058,4.7844 -2.92308,7.0769 -2.2925,2.2925 -3.81916,2.9231 -7.07692,2.9231 -3.25776,0 -4.78443,-0.6306 -7.07692,-2.9231 z m -285.39891,-273.5008 c 1.34639,-0.8822 3.16976,-2.7056 4.05195,-4.0519 0.88218,-1.3464 1.81201,-4.1527 2.06629,-6.2361 0.30193,-2.474 -0.16294,-4.9954 -1.34005,-7.2682 -0.9913,-1.914 -3.33141,-4.5015 -5.20024,-5.75 -1.96737,-1.3143 -4.91439,-2.2683 -7,-2.2662 -1.98117,0 -5.06873,0.898 -6.86126,1.9909 -1.79253,1.0929 -4.15335,3.4537 -5.24626,5.2462 -1.09292,1.7926 -1.98881,4.8801 -1.99086,6.8613 -0.002,2.0856 0.95191,5.0326 2.26619,7 1.24847,1.8688 3.83597,4.209 5.75,5.2003 2.2728,1.1771 4.79419,1.6419 7.26817,1.34 2.08345,-0.2543 4.88969,-1.1841 6.23607,-2.0663 z m 444,0 c 1.34639,-0.8822 3.16976,-2.7056 4.05195,-4.0519 0.88218,-1.3464 1.81201,-4.1527 2.06629,-6.2361 0.30193,-2.474 -0.16294,-4.9954 -1.34005,-7.2682 -0.9913,-1.914 -3.33141,-4.5015 -5.20024,-5.75 -1.96737,-1.3143 -4.91439,-2.2683 -7,-2.2662 -1.98117,0 -5.06873,0.898 -6.86126,1.9909 -1.79253,1.0929 -4.15335,3.4537 -5.24626,5.2462 -1.09292,1.7926 -1.98881,4.8801 -1.99086,6.8613 -0.002,2.0856 0.95191,5.0326 2.26619,7 1.24847,1.8688 3.83597,4.209 5.75,5.2003 2.2728,1.1771 4.79419,1.6419 7.26817,1.34 2.08345,-0.2543 4.88969,-1.1841 6.23607,-2.0663 z m -234.71783,186.6686 c -1.48151,-0.9596 -11.79913,-13.4447 -22.92806,-27.7447 -11.12892,-14.3 -23.07928,-29.7252 -26.55634,-34.2782 -4.83244,-6.3277 -6.32194,-9.0608 -6.32194,-11.5999 0,-2.0685 1.07238,-4.7933 2.84229,-7.2219 1.56325,-2.145 13.51041,-17.625 26.54923,-34.4 13.03882,-16.775 24.92229,-31.2851 26.40771,-32.2447 1.48542,-0.9597 3.82577,-1.7448 5.20077,-1.7448 1.375,0 3.71268,0.7851 5.19484,1.7448 1.48217,0.9596 13.37113,15.4697 26.41991,32.2447 13.04879,16.775 24.99861,32.255 26.55516,34.4 1.75609,2.42 2.83009,5.1607 2.83009,7.2219 0,2.5514 -1.52281,5.3176 -6.56583,11.9271 -3.6112,4.7329 -15.56099,20.1581 -26.5551,34.2781 -10.9941,14.1201 -21.20198,26.458 -22.68417,27.4176 -1.4822,0.9596 -3.8199,1.7448 -5.1949,1.7448 -1.375,0 -3.71215,-0.7852 -5.19366,-1.7448 z m 24.19366,-49.2269 c 10.175,-13.1382 18.42206,-24.2545 18.3268,-24.7028 -0.0952,-0.4482 -8.42025,-11.4759 -18.5,-24.5059 -10.07974,-13.03 -18.5518,-23.6908 -18.8268,-23.6906 -0.275,10e-5 -8.75667,10.661 -18.84814,23.6908 -10.09148,13.0299 -18.41648,24.0575 -18.5,24.5057 -0.0835,0.4483 8.17314,11.5646 18.34814,24.7028 10.175,13.1382 18.725,23.8876 19,23.8876 0.275,0 8.825,-10.7494 19,-23.8876 z m 81.77514,-95.5766 c -1.49867,-0.8133 -3.18617,-2.3407 -3.75,-3.3942 -0.56383,-1.0536 -1.02514,-3.2739 -1.02514,-4.9342 0,-1.6603 0.51235,-4.1432 1.13856,-5.5176 0.6262,-1.3743 2.6723,-3.2266 4.54687,-4.1162 2.14548,-1.0181 4.49248,-1.3792 6.33441,-0.9747 1.60935,0.3535 3.96664,1.8793 5.23843,3.3908 1.27178,1.5114 2.74644,2.6783 3.27703,2.5931 0.53058,-0.085 0.6272,0.033 0.2147,0.2618 -0.4125,0.2292 -0.75,1.9837 -0.75,3.8991 0,1.9153 -0.46334,4.3481 -1.02965,5.4063 -0.5663,1.0581 -2.34395,2.6035 -3.95034,3.4342 -1.60638,0.8307 -3.95554,1.4924 -5.22035,1.4704 -1.26481,-0.022 -3.52585,-0.7055 -5.02452,-1.5188 z m 18.22486,-13.9412 c 0,-0.275 0.225,-0.5 0.5,-0.5 0.275,0 0.5,0.225 0.5,0.5 0,0.275 -0.225,0.5 -0.5,0.5 -0.275,0 -0.5,-0.225 -0.5,-0.5 z m 3,-1 c 0,-0.275 0.225,-0.5 0.5,-0.5 0.275,0 0.5,0.225 0.5,0.5 0,0.275 -0.225,0.5 -0.5,0.5 -0.275,0 -0.5,-0.225 -0.5,-0.5 z m 2.33333,-1.1667 c 0.36667,-0.3666 0.96667,-0.3666 1.33334,0 0.36666,0.3667 0.0667,0.6667 -0.66667,0.6667 -0.73333,0 -1.03333,-0.3 -0.66667,-0.6667 z m 2.66667,-0.8333 c 0,-0.275 0.225,-0.5 0.5,-0.5 0.275,0 0.5,0.225 0.5,0.5 0,0.275 -0.225,0.5 -0.5,0.5 -0.275,0 -0.5,-0.225 -0.5,-0.5 z m -31.07569,-3.25 c -2.42431,-2.75 -2.42431,-2.75 0.32569,-0.3257 1.5125,1.3334 2.75,2.5709 2.75,2.75 0,0.1791 -0.14656,0.3257 -0.32569,0.3257 -0.17912,0 -1.41662,-1.2375 -2.75,-2.75 z m 33.40902,2.0833 c 0.36667,-0.3666 0.96667,-0.3666 1.33334,0 0.36666,0.3667 0.0667,0.6667 -0.66667,0.6667 -0.73333,0 -1.03333,-0.3 -0.66667,-0.6667 z m 2.66667,-0.8333 c 0,-0.275 0.225,-0.5 0.5,-0.5 0.275,0 0.5,0.225 0.5,0.5 0,0.275 -0.225,0.5 -0.5,0.5 -0.275,0 -0.5,-0.225 -0.5,-0.5 z m 3,-1 c 0,-0.275 0.225,-0.5 0.5,-0.5 0.275,0 0.5,0.225 0.5,0.5 0,0.275 -0.225,0.5 -0.5,0.5 -0.275,0 -0.5,-0.225 -0.5,-0.5 z m -44.59501,-6.75 c -1.90499,-2.25 -1.90499,-2.25 0.34501,-0.345 1.2375,1.0477 2.25,2.0602 2.25,2.25 0,0.1897 -0.15526,0.345 -0.34501,0.345 -0.18976,0 -1.20226,-1.0125 -2.25,-2.25 z"
         id="path3669" /><path
         style="fill:#ea7078"
         d="m -898.87932,1527.1376 c -2.2967,-0.7213 -5.76707,-2.295 -7.71193,-3.4969 -1.94486,-1.202 -4.90962,-3.9197 -6.58835,-6.0392 -1.67873,-2.1196 -3.83336,-5.581 -4.78807,-7.692 -1.51275,-3.345 -1.73566,-7.3722 -1.73453,-31.3382 10e-4,-26.0488 0.11481,-27.743 2.15246,-32.1054 1.18315,-2.5329 3.88257,-6.3752 5.99871,-8.5384 2.11615,-2.1631 4.90388,-4.6 6.19496,-5.4153 2.34742,-1.4822 2.34742,-1.4822 -19.95009,-99.7427 -22.0101,-96.994 -22.33038,-98.2677 -24.84742,-98.8181 -1.40245,-0.3067 -4.79991,-1.2652 -7.54991,-2.1301 -3.68022,-1.1575 -6.62346,-3.195 -11.15048,-7.7192 -5.19391,-5.1906 -6.47702,-7.2038 -8.25,-12.944 -1.15474,-3.7386 -2.09952,-8.5027 -2.09952,-10.5868 0,-2.0841 0.94478,-6.8482 2.09952,-10.5868 1.77652,-5.7517 3.05461,-7.7525 8.30789,-13.0058 5.25327,-5.2533 7.25409,-6.5314 13.00581,-8.3079 3.7386,-1.1547 8.50265,-2.0995 10.58678,-2.0995 2.08413,0 6.84818,0.9448 10.58677,2.0995 5.75173,1.7765 7.75254,3.0546 13.00582,8.3079 5.25328,5.2533 6.53137,7.2541 8.30789,13.0058 1.15474,3.7386 2.09952,8.2147 2.09952,9.9468 0,3.1494 0,3.1494 36.25,17.0672 19.9375,7.6548 37.68288,14.5088 39.43419,15.2312 3.18419,1.3134 3.18419,1.3134 37,-38.4024 18.59869,-21.8437 34.8586,-40.9508 36.13311,-42.4603 2.31731,-2.7444 2.31731,-2.7444 -1.27971,-10.0225 -2.01048,-4.0679 -4.09019,-10.2542 -4.71514,-14.0256 -0.82414,-4.9736 -0.82414,-8.5216 0,-13.4952 0.61496,-3.7111 2.69207,-9.9322 4.61579,-13.8246 2.27539,-4.604 5.42789,-8.9026 9.02119,-12.301 3.03793,-2.8731 8.41734,-6.5781 11.95425,-8.2332 3.5369,-1.6551 9.39073,-3.4998 13.00852,-4.0993 4.74719,-0.7866 8.40841,-0.7866 13.15559,0 3.61779,0.5995 9.47163,2.4442 13.00853,4.0993 3.5369,1.6551 8.91632,5.3601 11.95425,8.2332 3.5933,3.3984 6.74579,7.697 9.02119,12.301 1.92372,3.8924 4.00082,10.1135 4.61578,13.8246 0.82415,4.9736 0.82415,8.5216 0,13.4952 -0.6245,3.7687 -2.70415,9.9567 -4.71077,14.0168 -3.59267,7.2693 -3.59267,7.2693 7.22028,19.9703 5.94712,6.9855 16.5856,19.4654 23.64105,27.7331 7.05546,8.2677 13.5173,16.3428 14.35965,17.9446 1.23823,2.3546 1.31767,3.6261 0.41482,6.6396 -0.61419,2.05 -2.2227,4.4519 -3.57446,5.3376 -1.35176,0.8857 -3.78677,1.6104 -5.41114,1.6104 -1.62437,0 -3.65074,-0.2676 -4.50305,-0.5947 -0.8523,-0.327 -12.62441,-13.602 -26.16023,-29.5 -13.53582,-15.8979 -24.70338,-28.9053 -24.81679,-28.9053 -0.11342,0 -2.89062,0.9878 -6.17156,2.195 -4.58574,1.6874 -8.1624,2.1951 -15.46534,2.1951 -7.30294,0 -10.8796,-0.5077 -15.46534,-2.1951 -3.28094,-1.2072 -6.05913,-2.195 -6.17377,-2.195 -0.11463,0 -17.78282,20.648 -39.26264,45.8846 -21.47981,25.2365 -39.77592,46.1615 -40.65802,46.5 -0.88209,0.3384 -2.95486,0.6154 -4.60614,0.6154 -1.65128,0 -22.36712,-7.4338 -46.03519,-16.5195 -43.03285,-16.5196 -43.03285,-16.5196 -47.66588,-12.3296 -2.54816,2.3045 -4.76172,4.2795 -4.91903,4.3889 -0.1573,0.1094 9.64617,44.0202 21.78548,97.5795 12.13932,53.5594 22.31085,98.1682 22.6034,99.1307 0.50368,1.6571 9.01383,1.75 160.39713,1.75 151.3833,0 159.89344,-0.093 160.39713,-1.75 0.29255,-0.9625 10.46408,-45.5713 22.60339,-99.1307 12.13932,-53.5593 21.94279,-97.4701 21.78548,-97.5795 -0.1573,-0.1094 -2.37054,-2.0841 -4.91831,-4.3882 -4.6323,-4.1894 -4.6323,-4.1894 -26.81854,4.3295 -12.5124,4.8044 -23.70227,8.5189 -25.66315,8.5189 -2.34229,0 -4.26463,-0.7877 -5.89079,-2.4139 -1.32763,-1.3276 -2.71788,-3.6251 -3.08944,-5.1055 -0.42285,-1.6848 -0.0781,-3.9445 0.92161,-6.0409 0.87844,-1.8422 2.85164,-3.9679 4.38489,-4.724 1.53325,-0.756 12.12523,-4.9363 23.53773,-9.2895 20.75,-7.915 20.75,-7.915 20.75,-11.0653 0,-1.7326 0.94478,-6.2091 2.09952,-9.9477 1.77652,-5.7517 3.05461,-7.7525 8.30789,-13.0058 5.25327,-5.2533 7.25409,-6.5314 13.00581,-8.3079 3.7386,-1.1547 8.50265,-2.0995 10.58678,-2.0995 2.08413,0 6.84818,0.9448 10.58677,2.0995 5.75173,1.7765 7.75254,3.0546 13.00582,8.3079 5.25328,5.2533 6.53137,7.2541 8.30789,13.0058 1.15474,3.7386 2.09952,8.5027 2.09952,10.5868 0,2.0841 -0.94478,6.8482 -2.09952,10.5868 -1.77298,5.7402 -3.05609,7.7534 -8.25,12.944 -4.52702,4.5242 -7.47026,6.5617 -11.15048,7.7192 -2.75,0.8649 -6.14746,1.8234 -7.54991,2.1301 -2.51705,0.5504 -2.83732,1.8241 -24.84742,98.8181 -22.29751,98.2605 -22.29751,98.2605 -19.95009,99.7427 1.29108,0.8153 3.97186,3.1397 5.95728,5.1655 1.98543,2.0257 4.68543,5.868 6,8.5384 2.34454,4.7626 2.39014,5.3798 2.39014,32.3552 0,27.5 0,27.5 -2.79039,33.1819 -1.53472,3.125 -4.43686,7.1274 -6.4492,8.8943 -2.01234,1.7669 -5.70666,4.16 -8.20961,5.3181 -4.5508,2.1057 -4.5508,2.1057 -177.5508,2.2946 -140.34531,0.1532 -173.78821,-0.059 -177.17583,-1.1226 z m 347.06283,-19.5234 c 1.38446,-0.5263 3.21376,-2.304 4.0651,-3.9503 1.2602,-2.437 1.5479,-7.1007 1.5479,-25.0926 0,-17.7553 -0.29689,-22.6734 -1.51035,-25.02 -0.83069,-1.6064 -2.37611,-3.3841 -3.43426,-3.9504 -1.29791,-0.6946 -57.28126,-1.0296 -172.05539,-1.0296 -114.77414,0 -170.75748,0.335 -172.05539,1.0296 -1.05815,0.5663 -2.60357,2.344 -3.43426,3.9504 -1.21346,2.3466 -1.51035,7.2647 -1.51035,25.02 0,17.6878 0.29943,22.6783 1.49998,24.9999 0.82498,1.5954 2.28748,3.3594 3.25,3.92 1.16952,0.6812 58.03627,1.0294 171.43492,1.0497 105.7031,0.019 170.63404,-0.3305 172.2021,-0.9267 z m -255.987,-22.4429 c -2.45,-2.45 -3.4,-4.2941 -3.4,-6.6 0,-2.3059 0.95,-4.15 3.4,-6.6 2.45,-2.45 4.29412,-3.4 6.6,-3.4 2.30588,0 4.15,0.95 6.6,3.4 2.45,2.45 3.4,4.2941 3.4,6.6 0,2.3059 -0.95,4.15 -3.4,6.6 -2.45,2.45 -4.29412,3.4 -6.6,3.4 -2.30588,0 -4.15,-0.95 -6.6,-3.4 z m 78,0 c -2.45,-2.45 -3.4,-4.2941 -3.4,-6.6 0,-2.3059 0.95,-4.15 3.4,-6.6 2.45,-2.45 4.29412,-3.4 6.6,-3.4 2.30588,0 4.15,0.95 6.6,3.4 2.45,2.45 3.4,4.2941 3.4,6.6 0,2.3059 -0.95,4.15 -3.4,6.6 -2.45,2.45 -4.29412,3.4 -6.6,3.4 -2.30588,0 -4.15,-0.95 -6.6,-3.4 z m 78,0 c -2.45,-2.45 -3.4,-4.2941 -3.4,-6.6 0,-2.3059 0.95,-4.15 3.4,-6.6 2.45,-2.45 4.29412,-3.4 6.6,-3.4 2.30588,0 4.15,0.95 6.6,3.4 2.45,2.45 3.4,4.2941 3.4,6.6 0,2.3059 -0.95,4.15 -3.4,6.6 -2.45,2.45 -4.29412,3.4 -6.6,3.4 -2.30588,0 -4.15,-0.95 -6.6,-3.4 z m -285.87583,-273.0239 c 1.34639,-0.8822 3.16976,-2.7056 4.05195,-4.0519 0.88218,-1.3464 1.81201,-4.1527 2.06629,-6.2361 0.30193,-2.474 -0.16294,-4.9954 -1.34005,-7.2682 -0.9913,-1.914 -3.33141,-4.5015 -5.20024,-5.75 -1.96737,-1.3143 -4.91439,-2.2683 -7,-2.2662 -1.98117,0 -5.06873,0.898 -6.86126,1.9909 -1.79253,1.0929 -4.15335,3.4537 -5.24626,5.2462 -1.09292,1.7926 -1.98881,4.8801 -1.99086,6.8613 -0.002,2.0856 0.95191,5.0326 2.26619,7 1.24847,1.8688 3.83597,4.209 5.75,5.2003 2.2728,1.1771 4.79419,1.6419 7.26817,1.34 2.08345,-0.2543 4.88969,-1.1841 6.23607,-2.0663 z m 444,0 c 1.34639,-0.8822 3.16976,-2.7056 4.05195,-4.0519 0.88218,-1.3464 1.81201,-4.1527 2.06629,-6.2361 0.30193,-2.474 -0.16294,-4.9954 -1.34005,-7.2682 -0.9913,-1.914 -3.33141,-4.5015 -5.20024,-5.75 -1.96737,-1.3143 -4.91439,-2.2683 -7,-2.2662 -1.98117,0 -5.06873,0.898 -6.86126,1.9909 -1.79253,1.0929 -4.15335,3.4537 -5.24626,5.2462 -1.09292,1.7926 -1.98881,4.8801 -1.99086,6.8613 -0.002,2.0856 0.95191,5.0326 2.26619,7 1.24847,1.8688 3.83597,4.209 5.75,5.2003 2.2728,1.1771 4.79419,1.6419 7.26817,1.34 2.08345,-0.2543 4.88969,-1.1841 6.23607,-2.0663 z m -236.39573,184.6739 c -1.59671,-1.5125 -14.00595,-17.0796 -27.5761,-34.5936 -13.57015,-17.5139 -25.11349,-33.0021 -25.65186,-34.4182 -0.61777,-1.6248 -0.63401,-3.5639 -0.044,-5.2563 0.51417,-1.4749 12.1007,-17.0368 25.74785,-34.5818 13.64715,-17.5451 26.03449,-33.1376 27.52742,-34.6501 2.06696,-2.0941 3.67357,-2.75 6.73558,-2.75 2.76859,0 4.79368,0.7009 6.50122,2.25 1.36403,1.2375 13.80482,16.8121 27.6462,34.6102 13.84138,17.7981 25.59309,33.5849 26.1149,35.0818 0.60531,1.7364 0.59441,3.6536 -0.0301,5.2962 -0.53838,1.4161 -12.08171,16.9043 -25.65186,34.4182 -13.57015,17.514 -25.97939,33.0811 -27.5761,34.5936 -2.16448,2.0503 -3.9128,2.75 -6.87156,2.75 -2.95877,0 -4.70708,-0.6997 -6.87156,-2.75 z m 25.87156,-47.2322 c 10.175,-13.1382 18.42206,-24.2545 18.3268,-24.7028 -0.0952,-0.4482 -8.42025,-11.4759 -18.5,-24.5059 -10.07974,-13.03 -18.5518,-23.6908 -18.8268,-23.6906 -0.275,10e-5 -8.75667,10.661 -18.84814,23.6908 -10.09148,13.0299 -18.41648,24.0575 -18.5,24.5057 -0.0835,0.4483 8.17314,11.5646 18.34814,24.7028 10.175,13.1382 18.725,23.8876 19,23.8876 0.275,0 8.825,-10.7494 19,-23.8876 z m 80.67204,-97.0611 c -1.44649,-1.1379 -2.87495,-3.5214 -3.22336,-5.3786 -0.40948,-2.1827 -0.0732,-4.4035 0.97317,-6.427 0.87937,-1.7005 2.46461,-3.5552 3.52276,-4.1215 1.05815,-0.5663 3.33307,-1.0296 5.05539,-1.0296 1.72231,0 3.99724,0.4633 5.05539,1.0296 1.05815,0.5663 2.64339,2.421 3.52276,4.1215 1.04636,2.0235 1.38264,4.2443 0.97317,6.427 -0.34841,1.8572 -1.77687,4.2407 -3.22336,5.3786 -1.56159,1.2283 -4.08551,2.0433 -6.32796,2.0433 -2.24246,0 -4.76637,-0.815 -6.32796,-2.0433 z"
         id="path3668" /><path
         style="fill:#020101"
         d="m -898.87932,1527.1376 c -2.2967,-0.7213 -5.76707,-2.295 -7.71193,-3.4969 -1.94486,-1.202 -4.90962,-3.9197 -6.58835,-6.0392 -1.67873,-2.1196 -3.83336,-5.581 -4.78807,-7.692 -1.51275,-3.345 -1.73566,-7.3722 -1.73453,-31.3382 10e-4,-26.0488 0.11481,-27.743 2.15246,-32.1054 1.18315,-2.5329 3.88257,-6.3752 5.99871,-8.5384 2.11615,-2.1631 4.90388,-4.6 6.19496,-5.4153 2.34742,-1.4822 2.34742,-1.4822 -19.95009,-99.7427 -22.0101,-96.994 -22.33038,-98.2677 -24.84742,-98.8181 -1.40245,-0.3067 -4.79991,-1.2652 -7.54991,-2.1301 -3.68022,-1.1575 -6.62346,-3.195 -11.15048,-7.7192 -5.19391,-5.1906 -6.47702,-7.2038 -8.25,-12.944 -1.15474,-3.7386 -2.09952,-8.5027 -2.09952,-10.5868 0,-2.0841 0.94478,-6.8482 2.09952,-10.5868 1.77652,-5.7517 3.05461,-7.7525 8.30789,-13.0058 5.25327,-5.2533 7.25409,-6.5314 13.00581,-8.3079 3.7386,-1.1547 8.50265,-2.0995 10.58678,-2.0995 2.08413,0 6.84818,0.9448 10.58677,2.0995 5.75173,1.7765 7.75254,3.0546 13.00582,8.3079 5.25328,5.2533 6.53137,7.2541 8.30789,13.0058 1.15474,3.7386 2.09952,8.2147 2.09952,9.9468 0,3.1494 0,3.1494 36.25,17.0672 19.9375,7.6548 37.68288,14.5088 39.43419,15.2312 3.18419,1.3134 3.18419,1.3134 37,-38.4024 18.59869,-21.8437 34.8586,-40.9508 36.13311,-42.4603 2.31731,-2.7444 2.31731,-2.7444 -1.27971,-10.0225 -2.01048,-4.0679 -4.09019,-10.2542 -4.71514,-14.0256 -0.82414,-4.9736 -0.82414,-8.5216 0,-13.4952 0.61496,-3.7111 2.69207,-9.9322 4.61579,-13.8246 2.27539,-4.604 5.42789,-8.9026 9.02119,-12.301 3.03793,-2.8731 8.41734,-6.5781 11.95425,-8.2332 3.5369,-1.6551 9.39073,-3.4998 13.00852,-4.0993 4.74719,-0.7866 8.40841,-0.7866 13.15559,0 3.61779,0.5995 9.47163,2.4442 13.00853,4.0993 3.5369,1.6551 8.91632,5.3601 11.95425,8.2332 3.5933,3.3984 6.74579,7.697 9.02119,12.301 1.92372,3.8924 4.00082,10.1135 4.61578,13.8246 0.82415,4.9736 0.82415,8.5216 0,13.4952 -0.6245,3.7687 -2.70415,9.9567 -4.71077,14.0168 -3.59267,7.2693 -3.59267,7.2693 7.22028,19.9703 5.94712,6.9855 16.5856,19.4654 23.64105,27.7331 7.05546,8.2677 13.5173,16.3428 14.35965,17.9446 1.23823,2.3546 1.31767,3.6261 0.41482,6.6396 -0.61419,2.05 -2.2227,4.4519 -3.57446,5.3376 -1.35176,0.8857 -3.78677,1.6104 -5.41114,1.6104 -1.62437,0 -3.65074,-0.2676 -4.50305,-0.5947 -0.8523,-0.327 -12.62441,-13.602 -26.16023,-29.5 -13.53582,-15.8979 -24.70338,-28.9053 -24.81679,-28.9053 -0.11342,0 -2.89062,0.9878 -6.17156,2.195 -4.58574,1.6874 -8.1624,2.1951 -15.46534,2.1951 -7.30294,0 -10.8796,-0.5077 -15.46534,-2.1951 -3.28094,-1.2072 -6.05913,-2.195 -6.17377,-2.195 -0.11463,0 -17.78282,20.648 -39.26264,45.8846 -21.47981,25.2365 -39.77592,46.1615 -40.65802,46.5 -0.88209,0.3384 -2.95486,0.6154 -4.60614,0.6154 -1.65128,0 -22.36712,-7.4338 -46.03519,-16.5195 -43.03285,-16.5196 -43.03285,-16.5196 -47.66588,-12.3296 -2.54816,2.3045 -4.76172,4.2795 -4.91903,4.3889 -0.1573,0.1094 9.64617,44.0202 21.78548,97.5795 12.13932,53.5594 22.31085,98.1682 22.6034,99.1307 0.50368,1.6571 9.01383,1.75 160.39713,1.75 151.3833,0 159.89344,-0.093 160.39713,-1.75 0.29255,-0.9625 10.46408,-45.5713 22.60339,-99.1307 12.13932,-53.5593 21.94279,-97.4701 21.78548,-97.5795 -0.1573,-0.1094 -2.37054,-2.0841 -4.91831,-4.3882 -4.6323,-4.1894 -4.6323,-4.1894 -26.81854,4.3295 -12.5124,4.8044 -23.70227,8.5189 -25.66315,8.5189 -2.34229,0 -4.26463,-0.7877 -5.89079,-2.4139 -1.32763,-1.3276 -2.71788,-3.6251 -3.08944,-5.1055 -0.42285,-1.6848 -0.0781,-3.9445 0.92161,-6.0409 0.87844,-1.8422 2.85164,-3.9679 4.38489,-4.724 1.53325,-0.756 12.12523,-4.9363 23.53773,-9.2895 20.75,-7.915 20.75,-7.915 20.75,-11.0653 0,-1.7326 0.94478,-6.2091 2.09952,-9.9477 1.77652,-5.7517 3.05461,-7.7525 8.30789,-13.0058 5.25327,-5.2533 7.25409,-6.5314 13.00581,-8.3079 3.7386,-1.1547 8.50265,-2.0995 10.58678,-2.0995 2.08413,0 6.84818,0.9448 10.58677,2.0995 5.75173,1.7765 7.75254,3.0546 13.00582,8.3079 5.25328,5.2533 6.53137,7.2541 8.30789,13.0058 1.15474,3.7386 2.09952,8.5027 2.09952,10.5868 0,2.0841 -0.94478,6.8482 -2.09952,10.5868 -1.77298,5.7402 -3.05609,7.7534 -8.25,12.944 -4.52702,4.5242 -7.47026,6.5617 -11.15048,7.7192 -2.75,0.8649 -6.14746,1.8234 -7.54991,2.1301 -2.51705,0.5504 -2.83732,1.8241 -24.84742,98.8181 -22.29751,98.2605 -22.29751,98.2605 -19.95009,99.7427 1.29108,0.8153 3.97186,3.1397 5.95728,5.1655 1.98543,2.0257 4.68543,5.868 6,8.5384 2.34454,4.7626 2.39014,5.3798 2.39014,32.3552 0,27.5 0,27.5 -2.79039,33.1819 -1.53472,3.125 -4.43686,7.1274 -6.4492,8.8943 -2.01234,1.7669 -5.70666,4.16 -8.20961,5.3181 -4.5508,2.1057 -4.5508,2.1057 -177.5508,2.2946 -140.34531,0.1532 -173.78821,-0.059 -177.17583,-1.1226 z m 347.06283,-19.5234 c 1.38446,-0.5263 3.21376,-2.304 4.0651,-3.9503 1.2602,-2.437 1.5479,-7.1007 1.5479,-25.0926 0,-17.7553 -0.29689,-22.6734 -1.51035,-25.02 -0.83069,-1.6064 -2.37611,-3.3841 -3.43426,-3.9504 -1.29791,-0.6946 -57.28126,-1.0296 -172.05539,-1.0296 -114.77414,0 -170.75748,0.335 -172.05539,1.0296 -1.05815,0.5663 -2.60357,2.344 -3.43426,3.9504 -1.21346,2.3466 -1.51035,7.2647 -1.51035,25.02 0,17.6878 0.29943,22.6783 1.49998,24.9999 0.82498,1.5954 2.28748,3.3594 3.25,3.92 1.16952,0.6812 58.03627,1.0294 171.43492,1.0497 105.7031,0.019 170.63404,-0.3305 172.2021,-0.9267 z m -255.987,-22.4429 c -2.45,-2.45 -3.4,-4.2941 -3.4,-6.6 0,-2.3059 0.95,-4.15 3.4,-6.6 2.45,-2.45 4.29412,-3.4 6.6,-3.4 2.30588,0 4.15,0.95 6.6,3.4 2.45,2.45 3.4,4.2941 3.4,6.6 0,2.3059 -0.95,4.15 -3.4,6.6 -2.45,2.45 -4.29412,3.4 -6.6,3.4 -2.30588,0 -4.15,-0.95 -6.6,-3.4 z m 78,0 c -2.45,-2.45 -3.4,-4.2941 -3.4,-6.6 0,-2.3059 0.95,-4.15 3.4,-6.6 2.45,-2.45 4.29412,-3.4 6.6,-3.4 2.30588,0 4.15,0.95 6.6,3.4 2.45,2.45 3.4,4.2941 3.4,6.6 0,2.3059 -0.95,4.15 -3.4,6.6 -2.45,2.45 -4.29412,3.4 -6.6,3.4 -2.30588,0 -4.15,-0.95 -6.6,-3.4 z m 78,0 c -2.45,-2.45 -3.4,-4.2941 -3.4,-6.6 0,-2.3059 0.95,-4.15 3.4,-6.6 2.45,-2.45 4.29412,-3.4 6.6,-3.4 2.30588,0 4.15,0.95 6.6,3.4 2.45,2.45 3.4,4.2941 3.4,6.6 0,2.3059 -0.95,4.15 -3.4,6.6 -2.45,2.45 -4.29412,3.4 -6.6,3.4 -2.30588,0 -4.15,-0.95 -6.6,-3.4 z m -285.87583,-273.0239 c 1.34639,-0.8822 3.16976,-2.7056 4.05195,-4.0519 0.88218,-1.3464 1.81201,-4.1527 2.06629,-6.2361 0.30193,-2.474 -0.16294,-4.9954 -1.34005,-7.2682 -0.9913,-1.914 -3.33141,-4.5015 -5.20024,-5.75 -1.96737,-1.3143 -4.91439,-2.2683 -7,-2.2662 -1.98117,0 -5.06873,0.898 -6.86126,1.9909 -1.79253,1.0929 -4.15335,3.4537 -5.24626,5.2462 -1.09292,1.7926 -1.98881,4.8801 -1.99086,6.8613 -0.002,2.0856 0.95191,5.0326 2.26619,7 1.24847,1.8688 3.83597,4.209 5.75,5.2003 2.2728,1.1771 4.79419,1.6419 7.26817,1.34 2.08345,-0.2543 4.88969,-1.1841 6.23607,-2.0663 z m 444,0 c 1.34639,-0.8822 3.16976,-2.7056 4.05195,-4.0519 0.88218,-1.3464 1.81201,-4.1527 2.06629,-6.2361 0.30193,-2.474 -0.16294,-4.9954 -1.34005,-7.2682 -0.9913,-1.914 -3.33141,-4.5015 -5.20024,-5.75 -1.96737,-1.3143 -4.91439,-2.2683 -7,-2.2662 -1.98117,0 -5.06873,0.898 -6.86126,1.9909 -1.79253,1.0929 -4.15335,3.4537 -5.24626,5.2462 -1.09292,1.7926 -1.98881,4.8801 -1.99086,6.8613 -0.002,2.0856 0.95191,5.0326 2.26619,7 1.24847,1.8688 3.83597,4.209 5.75,5.2003 2.2728,1.1771 4.79419,1.6419 7.26817,1.34 2.08345,-0.2543 4.88969,-1.1841 6.23607,-2.0663 z m -217.99476,-68.3556 c 2.18382,-1.1249 5.38271,-3.5472 7.10864,-5.3829 1.72592,-1.8357 3.96699,-4.9126 4.98014,-6.8376 1.31462,-2.4978 1.84211,-5.6476 1.84211,-11 0,-5.3524 -0.52749,-8.5022 -1.84211,-11 -1.01315,-1.925 -3.25422,-5.0019 -4.98014,-6.8376 -1.72593,-1.8357 -4.93805,-4.3003 -7.13805,-5.4769 -3.06636,-1.6398 -5.75057,-2.1392 -11.5,-2.1392 -5.74943,0 -8.43364,0.4994 -11.5,2.1392 -2.2,1.1766 -5.41212,3.6412 -7.13805,5.4769 -1.72592,1.8357 -3.96699,4.9126 -4.98015,6.8376 -1.31461,2.4978 -1.8421,5.6476 -1.8421,11 0,5.3524 0.52749,8.5022 1.8421,11 1.01316,1.925 3.25423,5.0009 4.98015,6.8353 1.72593,1.8344 4.48514,4.0402 6.13157,4.9016 1.64644,0.8615 4.12144,1.9364 5.5,2.3887 1.37857,0.4523 5.21971,0.6689 8.53589,0.4813 3.5035,-0.1983 7.69282,-1.198 10,-2.3864 z m -18.40097,253.0295 c -1.59671,-1.5125 -14.00595,-17.0796 -27.5761,-34.5936 -13.57015,-17.5139 -25.11349,-33.0021 -25.65186,-34.4182 -0.61777,-1.6248 -0.63401,-3.5639 -0.044,-5.2563 0.51417,-1.4749 12.1007,-17.0368 25.74785,-34.5818 13.64715,-17.5451 26.03449,-33.1376 27.52742,-34.6501 2.06696,-2.0941 3.67357,-2.75 6.73558,-2.75 2.76859,0 4.79368,0.7009 6.50122,2.25 1.36403,1.2375 13.80482,16.8121 27.6462,34.6102 13.84138,17.7981 25.59309,33.5849 26.1149,35.0818 0.60531,1.7364 0.59441,3.6536 -0.0301,5.2962 -0.53838,1.4161 -12.08171,16.9043 -25.65186,34.4182 -13.57015,17.514 -25.97939,33.0811 -27.5761,34.5936 -2.16448,2.0503 -3.9128,2.75 -6.87156,2.75 -2.95877,0 -4.70708,-0.6997 -6.87156,-2.75 z m 25.87156,-47.2322 c 10.175,-13.1382 18.42206,-24.2545 18.3268,-24.7028 -0.0952,-0.4482 -8.42025,-11.4759 -18.5,-24.5059 -10.07974,-13.03 -18.5518,-23.6908 -18.8268,-23.6906 -0.275,10e-5 -8.75667,10.661 -18.84814,23.6908 -10.09148,13.0299 -18.41648,24.0575 -18.5,24.5057 -0.0835,0.4483 8.17314,11.5646 18.34814,24.7028 10.175,13.1382 18.725,23.8876 19,23.8876 0.275,0 8.825,-10.7494 19,-23.8876 z m 80.67204,-97.0611 c -1.44649,-1.1379 -2.87495,-3.5214 -3.22336,-5.3786 -0.40948,-2.1827 -0.0732,-4.4035 0.97317,-6.427 0.87937,-1.7005 2.46461,-3.5552 3.52276,-4.1215 1.05815,-0.5663 3.33307,-1.0296 5.05539,-1.0296 1.72231,0 3.99724,0.4633 5.05539,1.0296 1.05815,0.5663 2.64339,2.421 3.52276,4.1215 1.04636,2.0235 1.38264,4.2443 0.97317,6.427 -0.34841,1.8572 -1.77687,4.2407 -3.22336,5.3786 -1.56159,1.2283 -4.08551,2.0433 -6.32796,2.0433 -2.24246,0 -4.76637,-0.815 -6.32796,-2.0433 z"
         id="path3667" /></g></g></svg>
