<?xml version="1.0" encoding="UTF-8" standalone="no"?>
<!-- Created with Inkscape (http://www.inkscape.org/) -->

<svg
   version="1.1"
   id="svg1"
   width="194.17123"
   height="154.75623"
   viewBox="0 0 194.17123 154.75623"
   sodipodi:docname="Linotte app main inkscape.ai"
   inkscape:version="1.4.2 (ebf0e940, 2025-05-08)"
   xml:space="preserve"
   xmlns:inkscape="http://www.inkscape.org/namespaces/inkscape"
   xmlns:sodipodi="http://sodipodi.sourceforge.net/DTD/sodipodi-0.dtd"
   xmlns="http://www.w3.org/2000/svg"
   xmlns:svg="http://www.w3.org/2000/svg"><defs
     id="defs1" /><sodipodi:namedview
     id="namedview1"
     pagecolor="#ffffff"
     bordercolor="#000000"
     borderopacity="0.25"
     inkscape:showpageshadow="2"
     inkscape:pageopacity="0.0"
     inkscape:pagecheckerboard="0"
     inkscape:deskcolor="#d1d1d1"
     showgrid="false"
     inkscape:zoom="0.26313033"
     inkscape:cx="1563.8638"
     inkscape:cy="809.48478"
     inkscape:window-width="1472"
     inkscape:window-height="844"
     inkscape:window-x="0"
     inkscape:window-y="34"
     inkscape:window-maximized="0"
     inkscape:current-layer="layer-MC0"><inkscape:page
       x="0"
       y="0"
       width="194.17123"
       height="154.75623"
       id="page2"
       margin="0"
       bleed="0" /></sodipodi:namedview><g
     id="layer-MC0"
     inkscape:groupmode="layer"
     inkscape:label="Livello 1"
     transform="translate(1029.9427,-950.27335)"><g
       id="g3699"
       transform="matrix(0.34877229,0,0,0.34877229,-953.566,633.78356)"
       inkscape:export-filename="/Users/giannipie/Documents/Repositories/linotte-web/resources/images/g3699.svg"
       inkscape:export-xdpi="96"
       inkscape:export-ydpi="96"><path
         style="fill:#bbcd46"
         d="m 71.064449,1349.7247 c -3.436865,-0.7466 -8.530348,-2.5992 -11.318852,-4.1169 -2.788504,-1.5177 -6.364475,-4.2338 -7.946604,-6.0357 -1.582128,-1.802 -3.357099,-4.9761 -3.94438,-7.0536 -0.587281,-2.0775 -1.487952,-8.0524 -2.001491,-13.2774 -0.513539,-5.225 -1.237101,-16.5875 -1.607914,-25.25 -0.509664,-11.9061 -0.991308,-15.75 -1.973509,-15.75 -0.714616,0 -8.1976,-0.4498 -16.628854,-0.9997 -8.431253,-0.5499 -22.5295515,-1.481 -31.3295515,-2.0692 -8.8000005,-0.5883 -22.7500005,-1.7021 -31.0000005,-2.4752 -8.25,-0.7731 -17.842452,-1.7092 -21.31656,-2.0802 -6.316561,-0.6745 -6.316561,-0.6745 -5.5,5.7249 0.449108,3.5197 0.81656,12.0244 0.81656,18.8994 0,11.0024 -0.273955,13.0561 -2.286603,17.1414 -1.360564,2.7617 -3.84311,5.6714 -6.129976,7.1847 -2.113855,1.3989 -7.159884,3.577 -11.213397,4.8402 -6.430334,2.004 -9.410048,2.2913 -23.370027,2.2534 -13.46125,-0.037 -17.26459,-0.3997 -23.96988,-2.2888 -4.38343,-1.2349 -10.03337,-3.3685 -12.55542,-4.7411 -2.52204,-1.3727 -6.42392,-4.1594 -8.67084,-6.1928 -2.24691,-2.0333 -4.92197,-5.272 -5.94458,-7.197 -1.46915,-2.7656 -1.83376,-5.4933 -1.73767,-13 0.11181,-8.7337 0.58101,-10.8711 5.81738,-26.5 3.13267,-9.35 5.77795,-18.788 5.87839,-20.9735 0.17183,-3.7386 -0.104,-4.1525 -4.66513,-7 -2.66627,-1.6645 -8.74127,-5.5451 -13.5,-8.6235 -4.75874,-3.0783 -12.77042,-9.2522 -17.80374,-13.7197 -5.03333,-4.4674 -11.28553,-11.1738 -13.89379,-14.9029 -2.60826,-3.7292 -6.65339,-10.6054 -8.98917,-15.2804 -2.33578,-4.675 -4.96199,-10.6264 -5.83603,-13.2254 -0.87403,-2.5991 -2.50029,-8.2042 -3.61392,-12.4559 -1.11362,-4.2517 -2.52773,-11.8002 -3.14246,-16.7745 -0.63444,-5.1337 -0.85576,-14.0164 -0.51188,-20.5442 0.3332,-6.325 1.51468,-15.1 2.62552,-19.5 1.11083,-4.4 3.43836,-11.6 5.17228,-16 1.73392,-4.4 5.3771,-11.6 8.09595,-16 2.71886,-4.4 7.46333,-11.0845 10.54328,-14.8546 3.07994,-3.7701 8.83599,-9.677 12.79123,-13.1266 3.95524,-3.4495 9.28945,-7.7154 11.8538,-9.4798 2.56435,-1.7643 8.12616,-4.9391 12.35957,-7.0551 4.23341,-2.116 9.7424,-4.5395 12.24221,-5.3856 2.4998,-0.8461 8.3498,-2.4212 13,-3.5 4.65019,-1.0789 13.4049,-2.4482 19.4549,-3.0429 6.05,-0.5947 12.731734,-1.1879 14.848293,-1.3183 3.772879,-0.2324 3.966789,-0.4428 9.895392,-10.7371 3.325907,-5.77495 8.750426,-14.54995 12.054488,-19.49995 3.304062,-4.95 9.123848,-12.69663 12.932858,-17.21473 3.80901,-4.51811 9.526065,-10.62242 12.704565,-13.56516 3.178501,-2.94273 11.018664,-8.83967 17.422584,-13.10431 6.403921,-4.26464 17.155617,-10.3839 23.8926579,-13.59835 6.73704107,-3.21446 16.5241656,-7.21949 21.7491651,-8.90007 5.225,-1.68058 13.325,-3.92287 18,-4.98285 4.675,-1.05999 12.55,-2.53081 17.5,-3.26849 6.040405,-0.90018 19.358583,-1.34532 40.5,-1.35364 25.238297,-0.01 33.686627,0.33654 42.499997,1.74295 6.05,0.96545 16.05102,3.08407 22.22448,4.70806 6.17346,1.62398 15.39846,4.67259 20.5,6.77467 5.10154,2.10209 13.03352,6.05847 17.62664,8.79195 4.59311,2.73348 13.0772,8.51814 18.85353,12.85478 5.77632,4.33665 15.29332,12.6624 21.14888,18.50167 5.85556,5.83928 14.07511,14.89823 18.26567,20.131 4.19055,5.23277 10.55318,14.00702 14.13917,19.49837 3.58598,5.4913 8.59204,13.7463 11.12456,18.3446 2.53252,4.5982 6.16367,12.2572 8.06923,17.02 1.90555,4.7627 4.46326,12.4756 5.6838,17.1396 1.22054,4.664 2.33826,8.6414 2.48381,8.8388 0.14556,0.1974 5.61819,-2.6095 12.1614,-6.2375 6.54321,-3.628 13.82579,-7.277 16.18351,-8.1089 2.35773,-0.8318 5.74451,-1.5125 7.52619,-1.5125 1.80545,0 4.45526,0.9564 5.98608,2.1606 2.46589,1.9396 2.69969,2.6493 2.28719,6.9423 -0.26498,2.7577 -2.2255,8.4624 -4.63152,13.4766 -2.29462,4.7821 -7.62379,13.6956 -11.8426,19.8077 -4.2188,6.1121 -10.78028,15.3318 -14.58105,20.4883 -3.80078,5.1564 -9.56516,13.4182 -12.80974,18.3594 -4.68559,7.1358 -5.89923,9.7962 -5.89923,12.9318 0,2.1712 0.43842,5.8345 0.97426,8.1405 0.53584,2.3061 2.11306,9.3678 3.50492,15.6928 1.39187,6.325 3.65849,16.225 5.03694,22 1.37845,5.775 2.79268,14.8623 3.14272,20.1939 0.6092,9.2789 0.51539,9.9331 -2.19171,15.2836 -1.55549,3.0744 -5.47291,8.2592 -8.70537,11.5219 -3.46542,3.4978 -8.4183,7.18 -12.06949,8.9729 -3.40575,1.6723 -9.34227,3.7049 -13.19227,4.5168 -3.85,0.8119 -10.44791,1.484 -14.66203,1.4936 -4.21412,0.01 -11.03712,-0.6284 -15.16224,-1.4177 -4.12511,-0.7892 -9.52758,-2.3586 -12.00549,-3.4874 -2.47791,-1.1288 -5.35265,-3.1296 -6.38831,-4.4463 -1.09158,-1.3877 -2.43717,-5.8061 -3.20147,-10.5125 -0.72515,-4.4653 -1.49756,-8.1188 -1.71648,-8.1188 -0.21891,0 -3.65286,1.9575 -7.631,4.3499 -3.97814,2.3925 -10.38298,6.1714 -14.23298,8.3977 -3.85,2.2263 -16.45,8.8717 -28,14.7674 -11.55,5.8958 -21.13832,10.8426 -21.30738,10.993 -0.16905,0.1504 0.86235,6.2726 2.29202,13.6048 1.42967,7.3322 3.33917,19.8768 4.24334,27.8769 1.39581,12.35 1.44816,15.4681 0.34682,20.6579 -0.87675,4.1314 -2.47641,7.6601 -4.93596,10.8882 -2.00136,2.6268 -6.11384,6.5036 -9.13884,8.6152 -3.025,2.1115 -8.69464,4.9456 -12.59921,6.298 -3.90456,1.3523 -9.97956,2.9262 -13.5,3.4974 -3.52043,0.5712 -11.575787,1.0062 -17.900787,0.9666 -6.325,-0.04 -14.31198,-0.6828 -17.748844,-1.4294 z"
         id="path3703" /><path
         style="fill:#6d8239"
         d="m 104.31329,1211.6343 c -3.3,-0.1893 -10.049997,-0.8415 -14.999997,-1.4493 -4.95,-0.6079 -11.673009,-1.7784 -14.94002,-2.6012 -3.267011,-0.8227 -7.767011,-2.426 -10,-3.5629 -2.232989,-1.1368 -5.937399,-3.6028 -8.232023,-5.4799 -2.294624,-1.8772 -5.958956,-5.7501 -8.142959,-8.6064 -2.184003,-2.8564 -5.781091,-8.7935 -7.993529,-13.1935 -2.212438,-4.4 -5.378888,-12.275 -7.036556,-17.5 -1.657668,-5.225 -4.219941,-14 -5.69394,-19.5 -1.473999,-5.5 -4.223646,-15.4 -6.110327,-22 -1.88668,-6.6 -5.052431,-16.275 -7.035001,-21.5 -1.98257,-5.225 -4.9507029,-12.2 -6.5958513,-15.5 -1.6451485,-3.3 -5.484298,-9.825 -8.53144342,-14.5 -3.04714538,-4.675 -8.94858358,-11.875 -13.11430728,-16 -4.165723,-4.125 -11.553178,-10.1309 -16.416567,-13.3465 -4.863388,-3.2155 -13.433555,-8.0064 -19.044815,-10.6464 -5.611261,-2.64 -13.311363,-5.7602 -17.111338,-6.9339 -3.799975,-1.1737 -10.720699,-2.7987 -15.379386,-3.6111 -4.658688,-0.8124 -8.675593,-1.6824 -8.926457,-1.9332 -0.250864,-0.2509 2.366325,-5.31 5.815975,-11.2425 3.449649,-5.93249 9.331936,-15.28635 13.071749,-20.78635 3.739812,-5.5 10.662524,-14.37537 15.383803,-19.72305 5.807717,-6.57826 11.729382,-11.95014 18.308569,-16.60873 5.348434,-3.78712 14.060782,-9.38553 19.360774,-12.44091 5.299992,-3.05537 12.9441532,-7.00703 16.9870246,-8.78146 4.0428713,-1.77443 10.506514,-4.30353 14.3636504,-5.62024 3.857137,-1.3167 10.612975,-3.31819 15.012975,-4.44776 4.4,-1.12956 11.594866,-2.68702 15.98859,-3.46102 4.393725,-0.77399 15.193725,-1.91559 24,-2.53688 9.292743,-0.65562 23.984143,-0.86796 35.011407,-0.50604 10.45,0.34298 23.72464,1.30384 29.4992,2.13524 5.77456,0.83141 15.0974,2.61976 20.71742,3.97411 5.62002,1.35435 14.39538,4.07427 19.5008,6.04427 5.10542,1.97 12.99041,5.55271 17.5222,7.96157 4.53179,2.40886 13.53179,8.3143 20,13.12319 6.46821,4.80889 16.64928,13.5009 22.6246,19.31557 5.97532,5.81468 14.49416,15.07214 18.93075,20.57214 4.43658,5.5 10.85905,14.275 14.27215,19.49995 3.4131,5.225 8.5109,13.5384 11.32845,18.4741 2.81755,4.9357 6.68922,13.0357 8.60372,18 1.9145,4.9643 4.70057,13.7509 6.19127,19.5259 2.38415,9.2363 2.71483,12.4258 2.74744,26.5 0.0288,12.4511 -0.36364,17.4418 -1.76944,22.5 -0.99357,3.575 -3.96309,11 -6.59893,16.5 -2.63583,5.5 -7.6673,14.0252 -11.18103,18.9449 -3.51373,4.9196 -11.75149,14.5043 -18.30614,21.2992 -6.55465,6.7949 -15.46427,14.8538 -19.79917,17.9087 -4.33489,3.0548 -12.24699,7.7176 -17.58245,10.3617 -5.33546,2.6441 -13.75084,6.2249 -18.70084,7.9574 -4.95,1.7326 -14.175,4.4544 -20.5,6.0485 -6.325,1.5941 -17.8,3.7892 -25.5,4.878 -7.7,1.0887 -20.75,2.1729 -29,2.4093 -8.25,0.2363 -17.7,0.2748 -21,0.085 z m -230,-37.2862 c -3.3,-1.6801 -9.8999,-5.9932 -14.66645,-9.5848 -4.76654,-3.5916 -10.05404,-8.417 -11.75,-10.7232 -2.08988,-2.8418 -3.08355,-5.3468 -3.08355,-7.7734 0,-1.9693 0.70052,-4.5807 1.55671,-5.803 1.18948,-1.6983 2.54982,-2.2226 5.76671,-2.2226 3.79526,0 5.24015,0.8366 14.66699,8.4923 5.75135,4.6707 12.00272,9.2257 13.89193,10.1222 3.27501,1.554 3.6487,1.5263 8.0263,-0.5967 2.52525,-1.2247 8.73226,-5.1116 13.793351,-8.6376 5.061093,-3.526 10.600513,-6.6907 12.309822,-7.0325 1.809261,-0.3619 4.107442,-0.087 5.500167,0.6588 1.315784,0.7041 2.859311,2.6199 3.43006,4.2571 0.807768,2.3172 0.676898,3.7372 -0.590574,6.4082 -1.069902,2.2547 -5.09589,6.0211 -11.739881,10.9831 -5.56137,4.1534 -12.737195,8.8809 -15.946265,10.5055 -3.20908,1.6247 -7.93408,3.1896 -10.5,3.4776 -3.86057,0.4332 -5.70029,0 -10.66532,-2.531 z m 47.000003,-49.7636 c -1.65,-0.8671 -4.432588,-2.9334 -6.183529,-4.5917 -1.750941,-1.6583 -4.147398,-5.2557 -5.325459,-7.9942 -1.394594,-3.2418 -2.154321,-7.1268 -2.177443,-11.1348 -0.01953,-3.3856 0.633131,-7.756 1.450363,-9.7119 0.817232,-1.9559 2.91314,-5.1818 4.657572,-7.1686 1.744432,-1.9868 5.167602,-4.3746 7.607044,-5.3062 2.973061,-1.1354 6.112931,-1.5327 9.523719,-1.2049 3.438195,0.3303 6.443853,1.4388 9.268051,3.4179 2.298826,1.6109 5.600685,5.2971 7.337466,8.1914 2.085031,3.4748 3.375635,7.1984 3.799055,10.9611 0.431437,3.8339 0.16198,7.2676 -0.823485,10.4936 -0.805616,2.6373 -2.615456,6.3038 -4.021866,8.1477 -1.406411,1.8439 -4.511421,4.2986 -6.900023,5.4549 -2.835169,1.3725 -6.229549,2.0884 -9.777189,2.0623 -2.988851,-0.022 -6.784276,-0.7495 -8.434276,-1.6166 z m -88.592713,-3.6701 c -2.42401,-1.2797 -5.6416,-4.0922 -7.15021,-6.25 -1.5086,-2.1578 -3.18445,-6.2858 -3.72411,-9.1733 -0.64252,-3.4378 -0.64137,-7.0419 0.003,-10.4414 0.54149,-2.8553 1.7131,-6.3428 2.60357,-7.75 0.89046,-1.4072 2.79828,-3.8373 4.23958,-5.4001 1.4413,-1.5629 4.29012,-3.7004 6.33071,-4.75 2.25687,-1.1609 5.75646,-1.9085 8.93427,-1.9085 3.17781,0 6.84011,0.7823 9.34967,1.9972 2.26906,1.0984 5.13702,3.3652 6.37325,5.0373 1.23623,1.6721 2.8968,4.88 3.69017,7.1286 0.79336,2.2486 1.43259,6.6193 1.42051,9.7127 -0.0136,3.477 -0.79965,7.3423 -2.05895,10.1242 -1.12034,2.475 -3.24796,5.7788 -4.72804,7.3416 -1.48007,1.5629 -4.36062,3.7004 -6.40121,4.75 -2.29791,1.182 -5.759,1.9084 -9.09271,1.9084 -3.70509,0 -6.75608,-0.7251 -9.78984,-2.3267 z"
         id="path3702" /><path
         style="fill:#4a5324"
         d="m 66.025155,1180.1679 c -4.558476,-0.4404 -10.858476,-1.315 -14,-1.9435 -3.141524,-0.6285 -7.375846,-1.621 -9.409606,-2.2056 -2.033759,-0.5846 -3.979397,-1.7862 -4.32364,-2.6703 -0.344243,-0.884 -2.399163,-6.7384 -4.566489,-13.0098 -2.167326,-6.2713 -3.802385,-11.5406 -3.633466,-11.7095 0.168919,-0.169 3.883833,0.8286 8.255363,2.2169 4.371531,1.3882 11.004326,3.1669 14.739544,3.9526 3.735219,0.7857 12.96421,1.8922 20.50887,2.4589 9.291744,0.6979 15.43637,0.7038 19.044904,0.018 2.930038,-0.5567 5.742538,-1.2688 6.25,-1.5824 0.507462,-0.3137 0.922658,-3.1468 0.922658,-6.2959 0,-3.1491 -1.107923,-12.46 -2.462051,-20.691 -1.354128,-8.2309 -4.523513,-24.8654 -7.043079,-36.9654 -2.519565,-12.1 -5.702188,-26.95 -7.072496,-33 -1.370308,-6.05 -3.180283,-14.375 -4.022168,-18.5 -0.841884,-4.125 -2.382122,-10.2976 -3.422751,-13.717 -1.040629,-3.4194 -2.608115,-7.6018 -3.483302,-9.2943 -0.875187,-1.6924 -3.031903,-3.9539 -4.792701,-5.0256 -1.760798,-1.0717 -5.901452,-2.8049 -9.201452,-3.8516 -3.3,-1.0467 -10.275,-2.8269 -15.5,-3.956 -5.225,-1.1291 -14.9,-3.2525 -21.5,-4.71878 -6.6,-1.46626 -17.6249995,-3.95257 -24.4999995,-5.52512 -6.8750005,-1.57255 -14.4952275,-2.87096 -16.9338385,-2.88537 -3.995021,-0.0236 -4.887102,0.44407 -9.013658,4.7253 -2.518901,2.61332 -5.814698,7.00077 -7.323993,9.74997 -1.509295,2.7492 -4.611476,8.6517 -6.893734,13.1166 -4.149561,8.118 -4.149561,8.118 -10.857493,4.8028 -3.689362,-1.8233 -8.006035,-3.6261 -9.592607,-4.0063 -1.586572,-0.3801 -3.240569,-0.8918 -3.675549,-1.1371 -0.43498,-0.2453 1.537178,-4.7956 4.382573,-10.1117 2.845394,-5.3162 6.607084,-11.46575 8.359309,-13.66575 1.752226,-2.2 4.591656,-6.06842 6.309845,-8.59648 1.718189,-2.52807 3.415525,-5.75809 3.771857,-7.17783 0.356332,-1.41974 0.337885,-3.55804 -0.04099,-4.75178 -0.378878,-1.19374 -2.908545,-4.62148 -5.621483,-7.6172 -2.885,-3.18572 -4.634584,-5.92899 -4.214673,-6.60842 0.394868,-0.63891 1.421403,-2.00463 2.281189,-3.03494 0.859787,-1.03032 4.327055,-4.08731 7.705041,-6.79332 3.377986,-2.70602 6.340688,-4.92003 6.583782,-4.92003 0.243095,0 2.141384,2.46744 4.21842,5.48321 2.077036,3.01576 5.483706,7.02563 7.570376,8.91081 2.086671,1.88518 5.974575,4.39326 8.639788,5.5735 2.665213,1.18025 10.2426301,3.71521 16.83870515,5.63324 6.59607505,1.91804 22.12107485,5.50548 34.49999985,7.97209 12.378925,2.46661 26.557136,5.14498 31.507136,5.95193 4.95,0.80695 11.028095,1.46899 13.506877,1.4712 2.763764,0.002 7.791741,-1.29174 13,-3.34622 4.671218,-1.84263 13.218117,-5.38364 18.993117,-7.8689 5.775,-2.48526 16.575,-6.85836 24,-9.71799 7.425,-2.85963 14.4,-5.57433 15.5,-6.03266 1.1,-0.45833 5.9819,-2.72079 10.84866,-5.02769 7.96531,-3.77564 9.02784,-4.60906 10.64349,-8.34844 0.98716,-2.28474 2.56693,-7.75408 3.51061,-12.15408 0.94368,-4.4 2.00411,-8.77379 2.35651,-9.71954 0.56474,-1.5156 1.70815,-1.18069 9.64073,2.82384 4.95,2.49887 9.56915,5.09538 10.26478,5.77004 1.01767,0.98699 0.86032,2.38904 -0.80539,7.17615 -1.1386,3.27223 -2.4568,7.96718 -2.92934,10.43322 -0.5831,3.04306 -0.46426,5.62994 0.36989,8.05105 0.67597,1.96204 2.97326,6.24437 5.10508,9.51629 2.13183,3.27192 8.6634,12.02395 14.51461,19.44895 5.85122,7.425 12.84036,16.64995 15.53143,20.49995 2.69108,3.85 6.48048,9.0531 8.4209,11.5623 1.94043,2.5093 4.42804,5.823 5.52804,7.3638 1.1,1.5409 6.62405,8.6003 12.27566,15.6877 5.65161,7.0875 10.95025,12.8862 11.77475,12.8862 0.8245,0 1.98142,-1.2375 2.57092,-2.75 0.58951,-1.5125 2.13984,-6.9168 3.44519,-12.0097 1.30535,-5.0928 2.45425,-11.9553 2.55311,-15.25 0.0988,-3.2946 0.3309,-5.9903 0.51566,-5.9903 0.18476,0 1.69032,2.6831 3.34568,5.9624 1.65537,3.2792 4.38808,9.432 6.07269,13.6727 2.865,7.2122 2.98718,8.0386 1.89069,12.7877 -0.64474,2.7925 -2.30433,8.6772 -3.68798,13.0772 -1.38366,4.4 -4.28147,12.275 -6.43958,17.5 -2.15811,5.225 -5.87387,13.1677 -8.25724,17.6504 -2.38337,4.4827 -6.8996,11.6827 -10.03608,16 -3.13648,4.3173 -10.33436,12.3703 -15.99529,17.8954 -5.66093,5.5252 -14.40066,12.9502 -19.42163,16.5 -5.02096,3.5499 -13.51862,8.7109 -18.88369,11.4691 -5.36507,2.7582 -14.69751,6.6758 -20.73876,8.7059 -6.04125,2.03 -15.2591,4.5844 -20.4841,5.6764 -5.225,1.0919 -16.89682,2.6868 -25.93738,3.5441 -10.26806,0.9737 -25.28097,1.5076 -39.999997,1.4225 -12.959439,-0.075 -27.292279,-0.4966 -31.850755,-0.937 z m 92.671555,-29.081 c 5.16088,-1.1069 15.06088,-3.8192 22,-6.0274 6.93912,-2.2081 16.7365,-5.9828 21.77196,-8.3882 5.03546,-2.4053 12.52203,-7.0817 16.63681,-10.3919 4.11479,-3.3101 10.93825,-9.6931 15.16325,-14.1843 4.225,-4.4912 9.3859,-10.6831 11.46866,-13.7599 2.08276,-3.0767 4.57188,-7.1212 5.53137,-8.9878 0.95949,-1.8665 1.74453,-4.8107 1.74453,-6.5426 0,-1.7319 -1.4292,-5.7906 -3.176,-9.0193 -1.74681,-3.2287 -4.92135,-8.4981 -7.05455,-11.7097 -2.1332,-3.2116 -15.01202,-21.4757 -28.61959,-40.5869 -13.60758,-19.1113 -26.48338,-36.75809 -28.6129,-39.21516 -2.12952,-2.45708 -5.39735,-5.55283 -7.26185,-6.87944 -3.14495,-2.23766 -3.72857,-2.32676 -8.07397,-1.23257 -2.57619,0.64869 -9.00784,2.8939 -14.29256,4.98936 -5.28472,2.09546 -11.85858,4.82419 -14.60858,6.06384 -2.75,1.23964 -11.75,5.54918 -20,9.57674 -8.25,4.02757 -16.6875,8.87453 -18.75,10.77103 -3.700259,3.4025 -3.749997,3.5487 -3.749997,11.0284 0,4.688 1.170331,13.0305 3.067337,21.8651 1.68704,7.8567 5.52849,26.6585 8.53656,41.7817 3.00806,15.1233 7.04014,34.0233 8.96016,42 1.92002,7.9768 4.3901,16.9782 5.48906,20.0032 1.09897,3.025 2.54108,6.5657 3.2047,7.8682 0.66361,1.3024 2.11459,2.7619 3.22438,3.2432 1.10979,0.4813 5.6178,0.6213 10.0178,0.3111 4.4,-0.3103 12.22254,-1.4698 17.38342,-2.5767 z m -278.38342,25.1796 c -1.65,-0.3799 -4.575,-1.5043 -6.5,-2.4987 -1.925,-0.9943 -5.525,-3.1686 -8,-4.8316 -2.475,-1.663 -7.37634,-5.5189 -10.89187,-8.5685 -3.51553,-3.0496 -7.22634,-6.9132 -8.24626,-8.5857 -1.01991,-1.6725 -1.85607,-4.4249 -1.85813,-6.1165 -0.002,-1.9256 0.86172,-3.8888 2.31071,-5.25 1.30153,-1.2228 3.61156,-2.1744 5.27822,-2.1744 1.63008,0 4.36129,1.0125 6.06936,2.25 1.70808,1.2375 6.86897,5.3409 11.46864,9.1187 4.59968,3.7777 9.45514,7.2838 10.78992,7.7913 1.33477,0.5074 3.75588,0.6307 5.38024,0.274 1.62436,-0.3568 8.18553,-4.1895 14.580381,-8.5171 6.39485,-4.3277 13.057823,-8.1547 14.806608,-8.5044 2.577704,-0.5156 3.665411,-0.1501 5.745897,1.9304 1.602464,1.6024 2.566287,3.6812 2.566287,5.535 0,1.7251 -1.070856,4.2413 -2.556423,6.0068 -1.406033,1.671 -6.502079,5.9342 -11.324547,9.4738 -4.822468,3.5396 -11.434573,7.7661 -14.693573,9.3922 -3.259,1.6262 -7.27546,3.1836 -8.92546,3.461 -1.65,0.2775 -4.35,0.1936 -6,-0.1863 z m 42.675891,-51.1633 c -1.828261,-0.5267 -5.285962,-2.9195 -7.683779,-5.3173 -3.015269,-3.0153 -4.842645,-5.986 -5.925888,-9.6337 -0.861421,-2.9007 -1.556338,-7.5549 -1.544259,-10.3426 0.01208,-2.7876 0.851092,-6.8685 1.864472,-9.0685 1.013381,-2.2 2.96667,-5.1939 4.340643,-6.6532 1.373973,-1.4593 3.813011,-3.3332 5.420083,-4.1643 1.607073,-0.831 4.522248,-1.8112 6.478168,-2.1781 1.955919,-0.367 5.54037,-0.1402 7.965445,0.5039 3.133128,0.8321 5.862381,2.6645 9.430219,6.3314 3.066452,3.1516 5.499413,6.7626 6.25,9.2764 0.675955,2.2638 1.219126,6.7638 1.207046,10 -0.01311,3.5134 -0.755622,7.4989 -1.843019,9.8925 -1.001582,2.2047 -3.454399,5.4427 -5.450704,7.1955 -1.996305,1.7528 -5.329446,3.6589 -7.40698,4.2358 -2.077534,0.577 -5.127335,1.0109 -6.777335,0.9644 -1.65,-0.047 -4.49585,-0.5156 -6.324112,-1.0422 z m -88.684461,-3.727 c -2.20472,-1.0016 -5.44829,-3.4608 -7.20792,-5.4649 -1.75964,-2.0042 -3.71847,-5.5623 -4.35295,-7.907 -0.63449,-2.3447 -0.93821,-6.9764 -0.67494,-10.2926 0.26326,-3.3161 1.42539,-7.8851 2.5825,-10.1532 1.15711,-2.2682 3.73972,-5.4723 5.73914,-7.1204 1.99941,-1.6481 5.59529,-3.5453 7.99084,-4.216 2.55319,-0.7149 6.20314,-0.9424 8.82046,-0.5499 2.4557,0.3682 5.94968,1.6701 7.76438,2.893 1.81471,1.223 4.29654,3.7031 5.51517,5.5114 1.21864,1.8084 2.75412,5.8477 3.41219,8.9762 0.88694,4.2167 0.91617,7.044 0.11298,10.9284 -0.59593,2.882 -2.48339,7.2747 -4.19435,9.7615 -1.99232,2.8957 -4.87657,5.4162 -8.02164,7.01 -3.00205,1.5212 -6.57563,2.4799 -9.19404,2.4665 -2.35579,-0.012 -6.08711,-0.8415 -8.29182,-1.843 z"
         id="path3701" /><path
         style="fill:#292a24"
         d="m -125.23756,1174.0105 c -2.50296,-1.2626 -7.00296,-4.0485 -10,-6.1909 -2.99703,-2.1425 -7.84487,-5.9321 -10.77297,-8.4215 -2.9281,-2.4893 -6.1906,-6.2251 -7.25,-8.3017 -1.0594,-2.0765 -1.92618,-4.714 -1.92618,-5.8609 0,-1.1469 1.10455,-3.1898 2.45455,-4.5398 1.35,-1.35 3.4875,-2.4529 4.75,-2.4508 1.2625,0 3.79534,0.9182 5.62853,2.0358 1.83319,1.1177 6.63263,4.9097 10.66541,8.4268 4.03277,3.5172 8.69804,7.101 10.36726,7.9642 1.66921,0.8632 4.38455,1.5694 6.03408,1.5694 2.10182,0 6.79527,-2.5431 15.687128,-8.5 9.578125,-6.4166 13.502607,-8.5 16.011562,-8.5 2.131263,0 4.055035,0.7852 5.362528,2.1886 1.121426,1.2037 2.038955,3.1622 2.038955,4.3521 0,1.19 -1.0125,3.6514 -2.25,5.47 -1.2375,1.8185 -6.525,6.3714 -11.75,10.1175 -5.225,3.7462 -11.669663,7.9954 -14.321463,9.4428 -3.03991,1.6593 -6.91971,2.791 -10.5,3.0629 -4.51877,0.3431 -6.60799,-0.038 -10.22939,-1.8645 z m 50.295439,-48.7465 c -1.790478,-0.4249 -4.788462,-1.8229 -6.662185,-3.1068 -1.873724,-1.2839 -4.552789,-4.1018 -5.953477,-6.262 -1.400689,-2.1602 -3.074531,-6.2862 -3.719649,-9.1688 -0.645119,-2.8827 -0.875101,-7.2087 -0.511072,-9.6133 0.364029,-2.4046 1.660854,-6.1292 2.881834,-8.2769 1.22098,-2.1477 3.924199,-5.2774 6.007155,-6.955 3.117244,-2.5105 4.900802,-3.1209 10.082405,-3.4508 4.956988,-0.3157 7.160594,0.041 10.366083,1.6759 2.238977,1.1422 5.46086,3.7631 7.15974,5.8241 1.69888,2.0611 3.824259,5.9614 4.723065,8.6675 1.098832,3.3082 1.465346,6.7821 1.118786,10.604 -0.283473,3.1262 -1.45277,7.5214 -2.598438,9.7671 -1.145668,2.2457 -3.282477,5.0266 -4.748463,6.1797 -1.465987,1.1532 -4.935217,2.7707 -7.709401,3.5946 -2.774184,0.8238 -5.524795,1.4518 -6.11247,1.3955 -0.587674,-0.056 -2.533435,-0.45 -4.323913,-0.8748 z m -88.686759,-3.515 c -2.1682,-0.7724 -5.0932,-2.2385 -6.5,-3.2581 -1.40681,-1.0195 -3.68283,-4.0803 -5.05783,-6.8017 -1.95733,-3.874 -2.5,-6.4675 -2.5,-11.9481 0,-5.9837 0.45094,-7.7984 3.10608,-12.5 2.12761,-3.7673 4.57676,-6.4164 7.77459,-8.4091 3.70457,-2.3084 5.85067,-2.917 10.39392,-2.9475 4.00992,-0.027 6.98591,0.6196 9.93227,2.1575 2.68853,1.4033 5.13774,3.7842 6.78605,6.5968 1.41855,2.4206 3.00988,7.0339 3.53628,10.2517 0.75146,4.5937 0.61525,7.0303 -0.63399,11.3414 -1.16419,4.0177 -2.8392,6.7374 -6.24313,10.1371 -2.87698,2.8734 -6.17835,5.0688 -8.65207,5.7537 -2.2,0.609 -4.9,1.0901 -6,1.069 -1.1,-0.021 -3.77398,-0.6703 -5.94217,-1.4427 z"
         id="path3700" /></g></g></svg>
