<?xml version="1.0" encoding="UTF-8" standalone="no"?>
<!-- Created with Inkscape (http://www.inkscape.org/) -->

<svg
   version="1.1"
   id="svg1"
   width="159.74756"
   height="164.55235"
   viewBox="0 0 159.74756 164.55235"
   sodipodi:docname="Linotte app main inkscape.ai"
   inkscape:version="1.4.2 (ebf0e940, 2025-05-08)"
   xml:space="preserve"
   xmlns:inkscape="http://www.inkscape.org/namespaces/inkscape"
   xmlns:sodipodi="http://sodipodi.sourceforge.net/DTD/sodipodi-0.dtd"
   xmlns="http://www.w3.org/2000/svg"
   xmlns:svg="http://www.w3.org/2000/svg"><defs
     id="defs1" /><sodipodi:namedview
     id="namedview1"
     pagecolor="#ffffff"
     bordercolor="#000000"
     borderopacity="0.25"
     inkscape:showpageshadow="2"
     inkscape:pageopacity="0.0"
     inkscape:pagecheckerboard="0"
     inkscape:deskcolor="#d1d1d1"
     showgrid="false"
     inkscape:zoom="0.56756752"
     inkscape:cx="1981.2621"
     inkscape:cy="1210.4287"
     inkscape:window-width="1472"
     inkscape:window-height="844"
     inkscape:window-x="0"
     inkscape:window-y="34"
     inkscape:window-maximized="0"
     inkscape:current-layer="g3945"><inkscape:page
       x="0"
       y="0"
       width="159.74756"
       height="164.55235"
       id="page2"
       margin="0"
       bleed="0" /></sodipodi:namedview><g
     id="g4012"
     transform="matrix(0.17713512,0,0,0.17713512,17.498067,-126.17911)"><path
       style="fill:#c5d4ea;fill-opacity:1;stroke-width:0.994483"
       d="m 328.19286,1639.5931 c -85.60565,-3.6348 -138.82681,-13.0392 -196.5172,-34.7254 -67.754241,-25.4692 -121.088538,-75.0964 -143.60164,-133.6201 -3.08879,-8.0297 -3.08879,-8.0297 -34.027394,-0.205 -33.887558,8.5704 -35.053331,8.6663 -41.302136,3.3951 -8.195368,-6.9131 -5.867002,-22.6777 3.858162,-26.1223 1.85141,-0.6557 15.877929,-4.3864 31.16994,-8.2904 15.292008,-3.9038 27.961648,-7.2564 28.154834,-7.4502 0.508443,-0.5097 -4.022246,-31.7321 -4.718213,-32.5151 -0.321613,-0.3619 -10.641335,-2.0587 -22.932747,-3.7709 -43.174603,-6.0139 -46.682547,-7.5642 -46.682547,-20.6303 0,-15.2302 7.123358,-17.1634 43.416458,-11.7826 12.92858,1.9167 24.028892,3.4849 24.667251,3.4849 0.77642,0 1.385875,-3.7091 1.840683,-11.2018 2.353097,-38.7648 10.318926,-78.4611 25.1262261,-125.2118 15.9234129,-50.2748 29.4488299,-74.5148 58.4298459,-104.7165 9.236091,-9.6251 9.236091,-9.6251 4.621671,-13.4423 -15.397988,-12.7372 -45.727925,-43.2935 -63.238843,-63.7109 -9.180668,-10.7045 -21.915461,-26.942 -27.604572,-35.1973 -55.211448,-80.11624 -69.176969,-142.7576 -46.308094,-207.71122 4.594361,-13.04951 16.926402,-37.23596 18.985598,-37.23596 0.432758,0 0.78685,-0.47197 0.78685,-1.04889 0,-14.58879 47.9435577,-45.7644 78.963011,-51.3461 128.999946,-23.21253 222.686536,95.24691 226.666766,286.60247 0.32708,15.7252 0.8974,28.4038 1.26728,28.1746 1.25646,-0.7785 42.17062,-6.399 54.14767,-7.4384 42.69516,-3.7053 90.93093,-1.7995 133.68558,5.2819 13.50298,2.2365 13.50298,2.2365 14.12594,-25.6886 1.80989,-81.12864 16.13597,-142.83234 45.32209,-195.20603 C 554.97037,703.33179 698.0449,681.37178 757.57,768.19241 c 50.74889,74.02005 34.67888,171.58181 -44.10029,267.73609 -3.42938,4.1857 -6.03834,7.8823 -5.79778,8.2146 0.24047,0.3324 0.15365,0.3947 -0.19309,0.1384 -0.34673,-0.2564 -1.94457,1.1999 -3.55075,3.2361 -9.64511,12.2271 -39.90164,43.1212 -59.14916,60.3955 -9.91527,8.8987 -9.91527,8.8987 -4.90702,13.4421 13.29061,12.0571 32.69785,38.4807 42.87066,58.3699 20.92797,40.9167 41.78484,122.5671 44.81414,175.4382 0.7937,13.8539 0.14263,13.1424 10.26717,11.2176 46.9395,-8.9241 59.66059,-7.0138 59.6737,8.9613 0.0109,13.4708 -3.50646,15.0649 -46.18214,20.9289 -12.56456,1.7265 -23.09981,3.4333 -23.4117,3.7927 -0.64054,0.7385 -5.13527,32.1107 -4.66765,32.5795 0.16597,0.1664 13.70311,3.7169 30.08252,7.89 16.37932,4.1731 30.8527,8.3621 32.16299,9.3086 8.10974,5.8596 7.92738,20.1791 -0.32599,25.6003 -5.96762,3.9199 -7.84157,3.7118 -40.2616,-4.4704 -30.62594,-7.7293 -30.62594,-7.7293 -33.36054,-0.6566 -38.70806,100.1143 -146.00916,157.8628 -311.82694,167.8223 -19.02711,1.1428 -59.48597,1.9663 -71.51367,1.4556 z"
       id="path3980"
       sodipodi:nodetypes="ssssssssssssssssssssssssssssssssscsssssssssscsssss" /><path
       style="fill:#fcaeb5"
       d="m 740.14368,753.17908 c 0,-0.275 0.225,-0.5 0.5,-0.5 0.275,0 0.5,0.225 0.5,0.5 0,0.275 -0.225,0.5 -0.5,0.5 -0.275,0 -0.5,-0.225 -0.5,-0.5 z"
       id="path4009"
       sodipodi:nodetypes="sssss" /><path
       style="fill:#fcaeb5"
       d="m 714.14368,775.17908 c 0,-0.275 0.225,-0.5 0.5,-0.5 0.275,0 0.5,0.225 0.5,0.5 0,0.275 -0.225,0.5 -0.5,0.5 -0.275,0 -0.5,-0.225 -0.5,-0.5 z"
       id="path4007"
       sodipodi:nodetypes="sssss" /><path
       style="fill:#fcaeb5"
       d="m 684.14368,810.17908 c 0,-0.275 0.225,-0.5 0.5,-0.5 0.275,0 0.5,0.225 0.5,0.5 0,0.275 -0.225,0.5 -0.5,0.5 -0.275,0 -0.5,-0.225 -0.5,-0.5 z"
       id="path4005"
       sodipodi:nodetypes="sssss" /><path
       style="fill:#fcaeb5"
       d="m 756.14368,1465.1791 c 0,-0.275 0.225,-0.5 0.5,-0.5 0.275,0 0.5,0.225 0.5,0.5 0,0.275 -0.225,0.5 -0.5,0.5 -0.275,0 -0.5,-0.225 -0.5,-0.5 z"
       id="path4003"
       sodipodi:nodetypes="sssss" /><path
       style="fill:#fcaeb5"
       d="m 691.14368,1517.6791 c 0,-0.7334 0.3,-1.0334 0.66666,-0.6667 0.36667,0.3667 0.36667,0.9667 0,1.3333 -0.36666,0.3667 -0.66666,0.067 -0.66666,-0.6666 z"
       id="path4002"
       sodipodi:nodetypes="ssss" /><path
       style="fill:#fcaeb5"
       d="m 693.14368,1526.1791 c 0,-0.275 0.225,-0.5 0.5,-0.5 0.275,0 0.5,0.225 0.5,0.5 0,0.275 -0.225,0.5 -0.5,0.5 -0.275,0 -0.5,-0.225 -0.5,-0.5 z"
       id="path4001"
       sodipodi:nodetypes="sssss" /><path
       style="fill:#fcaeb5"
       d="m 670.14368,1527.1791 c 0,-0.275 0.225,-0.5 0.5,-0.5 0.275,0 0.5,0.225 0.5,0.5 0,0.275 -0.225,0.5 -0.5,0.5 -0.275,0 -0.5,-0.225 -0.5,-0.5 z"
       id="path4000"
       sodipodi:nodetypes="sssss" /><path
       style="fill:#fcaeb5"
       d="m 658.14368,1527.1791 c 0,-0.275 0.225,-0.5 0.5,-0.5 0.275,0 0.5,0.225 0.5,0.5 0,0.275 -0.225,0.5 -0.5,0.5 -0.275,0 -0.5,-0.225 -0.5,-0.5 z"
       id="path3999"
       sodipodi:nodetypes="sssss" /><path
       style="fill:#fcaeb5"
       d="m 571.85714,1487.345 c -26.935,-4.988 -38.7588,-16.3176 -28.25,-27.069 22.7671,-23.2928 99.055,-9.7414 80.692,14.3337 -6.6968,8.78 -35.7291,15.8303 -52.442,12.7353 z"
       id="path3983"
       sodipodi:nodetypes="ssss" /><path
       style="fill:#fcaeb5"
       d="m 101.35714,1485.4923 c -22.965331,-5.8553 -30.309411,-15.39 -19.724341,-25.6079 16.93274,-16.3453 65.895341,-15.5466 79.528341,1.2973 13.4199,16.5808 -26.4901,32.8044 -59.804,24.3106 z"
       id="path3982"
       sodipodi:nodetypes="ssss" /><path
       style="fill:#460d03"
       d="m 307.14363,1640.4508 c -139.2921,-8.4885 -231.28175,-44.9135 -287.40134,-113.8017 -5.90132,-7.2441 -5.90132,-7.2441 -2.5,-10.9478 3.40132,-3.7037 6.566418,3.0954 2.957448,6.4048 -4.7654,4.37 -23.023158,-25.3904 -32.125718,-50.8585 -1.32689,-3.7125 -2.79354,-6.75 -3.25922,-6.75 -0.46568,0 -14.14647,3.375 -30.40176,7.5 -33.38931,8.473 -34.44983,8.6032 -38.67652,4.75 -1.65909,-1.5125 -2.41611,-1.9625 -1.68228,-1 2.19572,2.8799 0.67491,1.9811 -2.47354,-1.4618 -1.6154,-1.7665 -2.04182,-2.554 -0.9476,-1.75 1.32579,0.9741 1.07559,0.352 -0.75,-1.8649 -3.02295,-3.671 -3.29475,-5.588 -1.5961,-11.2576 2.27093,-7.5797 3.98424,-8.3877 33.98521,-16.0274 15.05427,-3.8336 29.08906,-7.4272 31.18842,-7.9858 3.45855,-0.9203 3.7637,-1.2687 3.24921,-3.7091 -0.3123,-1.4814 -1.49171,-8.9802 -2.62092,-16.664 -2.47166,-16.8187 1.70687,-14.0256 -27.09191,-18.1092 -37.61146,-5.3332 -36.51124,-5.0781 -40.92193,-9.4887 -6.51867,-6.5187 -6.4757,-14.3873 0.11457,-20.9776 5.95377,-5.9537 6.63941,-5.9354 55.45396,1.4832 11.19006,1.7007 10.0834,3.0486 10.7962,-13.1502 1.20698,-27.4292 8.22007,-66.3331 18.32428,-101.6507 4.65518,-16.2714 16.9231,-53.3788 17.85912,-54.3148 6.79559,-6.7956 43.32833,-32.6387 17.24015,44.3826 -36.16905,106.7835 -30.9648435,195.5236 6.086236,248.6466 5.344467,7.6628 5.712288,10.1375 2.863938,13.3839 -2.25,2.5645 -4.169924,-3.2345 -1.546324,-5.5401 2.6236,-2.3056 2.6236,-2.3056 9.36313,6.3254 54.34587,69.5977 157.03369,104.0317 310.01329,103.9558 156.44125,-0.078 260.95455,-36.5772 312.99005,-109.3069 3.3228,-4.6442 25.51,10.1526 25.51,17.0128 0,3.0288 -30.6058,36.444 -38,41.4882 -1.375,0.938 -4.75,3.5974 -7.5,5.9098 -35.9745,30.2501 -105.5032,57.1287 -175.5,67.8453 -25.09225,3.8416 -27.70705,4.0584 -29.67595,2.461 -1.1583,-0.9398 -1.4649,-0.9812 -0.9527,-0.1288 2.463,4.0991 -90.496,7.7481 -132.3714,5.1962 z M 25.70652,1507.2476 c 2.93709,-3.25 4.77865,-1.0558 1.52865,1.8813 -3.02946,2.7377 -5.55121,1.3687 -4.77865,1.3687 0.1721,0 1.6346,-1.4625 3.25,-3.25 z m 641.15418,12.5399 c -10.8413,-10.875 3.06618,-25.04 7.23108,-31.915 46.27592,-76.3869 32.93778,-174.2094 -3.9544,-269.1193 -30.8738,-90.2722 -134.0889,-152.2626 -272.49375,-163.6584 -176.0262,-14.4933 -327.12424,53.4503 -363.38696,163.4028 -1.17905,3.575 -2.49341,7.0504 -2.92081,7.7231 -2.54003,3.998 -24.5346,-22.5373 -22.71265,-27.4017 8.76175,-23.3927 27.32568,-51.6213 48.33819,-73.504 8.33729,-8.6825 8.33729,-8.6825 4.02799,-12.5 -81.65068,-72.3313 -126.233027,-147.29238 -145.5506,-215.6591 -2.272975,-8.04427 -3.042905,-16.78087 -3.603605,-21.39484 -1.54062,-23.37407 3.834235,-59.17238 18.065705,-87.76345 10.88911,-21.87624 10.51377,-21.66007 20.60524,-11.86715 9.13748,8.86715 -2.479857,20.90152 -11.379517,11.73138 -8.89965,-9.17013 2.717687,-21.2045 7.769617,-27.53437 24.60676,-30.83125 58.16998,-46.83991 98.17227,-46.82526 123.70503,0.0453 200.84043,108.24201 203.79173,285.85559 0.5378,32.3602 0.5378,32.3602 4.1606,31.7469 40.9896,-6.939 55.2724,-8.1071 99.1228,-8.1071 41.4019,0 50.5804,0.6154 82.7491,5.5482 10.5871,1.6235 19.4175,2.9518 19.6231,2.9518 0.2057,0 0.615,-14.2875 0.9096,-31.75 2.3344,-138.38628 49.44595,-236.66256 129.77245,-270.7098 67.7938,-28.73519 136.63134,-21.38532 171.0932,29.73681 10.12521,15.02015 12.61984,16.87706 17.3476,27.6574 22.02864,50.23016 24.5442,100.37719 0.6933,157.56559 -19.6168,47.0358 -51.7436,91.5151 -102.3848,141.75 -1.16902,1.1596 -29.37719,27.7855 -29.5493,27.9576 -3.1726,3.1726 -3.74184,3.7591 5.0608,11.7325 16.76606,15.1865 46.44765,76.0355 48.9187,81.2012 1.20848,2.5263 5.25267,10.7559 9.3546,20.693 16.49663,39.9639 23.908,89.4385 25.9103,122.1657 1.1633,19.0135 1.4028,20.2404 3.8346,19.6411 45.0487,-11.1027 70.6023,-7.1008 67.2931,10.5386 -1.9332,10.3049 -4.6399,11.3844 -42.0162,16.7578 -15.3396,2.2052 -28.0381,4.1575 -28.219,4.3383 -0.1808,0.1808 -1.2215,6.6674 -2.3127,14.4147 -1.0911,7.7473 -2.2717,15.2327 -2.6235,16.6343 -0.5763,2.2961 -0.2593,2.6495 3.2029,3.5708 2.1134,0.5624 16.1596,4.1591 31.2139,7.9927 33.2726,8.4728 38.6042,12.3693 34.1699,24.9722 -4.6084,13.0975 -7.8605,13.3527 -46.3758,3.6395 -16.3567,-4.125 -30.071,-7.5 -30.4762,-7.5 -0.4053,0 -2.0254,3.4875 -3.6001,7.75 -4.7864,12.9553 -21.6423,44.25 -23.8338,44.25 -0.1593,0 -25.03868,3.2899 -25.03868,3.2899 z M 82.14361,1091.7654 c 0,-0.7222 2.138196,2.4266 -7.597834,12.4115 -10.48213,10.75 -13.902166,8.8207 -3.152166,-1.6615 5.9125,-5.7651 10.75,-10.6026 10.75,-10.75 z m 19.32892,-2.6211 c 31.5075,-20.7395 66.7128,-36.2677 109.6711,-48.3731 7.0671,-1.9914 8.8826,-22.3662 6.0307,-67.682 -1.0562,-16.7832 -1.3809,-19.5248 -5.1629,-43.5916 -13.2682,-84.43148 -50.1753,-146.97747 -100.3678,-170.09171 -57.65047,-26.54872 -112.45995,-17.84504 -142.2663,22.59172 -2.43247,3.3 -9.088106,14.93514 -9.307776,15.16093 -0.21967,0.2258 3.333933,-10.79653 1.830186,-10.21328 -6.843489,2.65436 0.305642,-6.69908 2.418522,-4.40109 2.11289,2.29799 -0.448882,7.12365 -5.601222,17.28854 -40.4287,79.76059 2.31202,182.03009 120.15624,287.50859 12.19071,10.9115 9.13231,10.6675 22.59925,1.803 z m 523.32595,-1.3278 c 85.7223,-75.5863 129.11641,-159.73108 136.3452,-225.56557 0.907,-8.26026 -0.46433,-14.37697 -1.4338,-19.75332 -1.94022,-10.75983 -7.73655,-26.24593 -13.806,-42.27101 -1.02207,-2.69855 -2.83783,-7.10132 -5.0407,-9.79735 -0.18501,-0.22643 -2.0871,-3.06985 -4.2588,-6.29433 -28.3011,-42.02209 -85.6125,-51.65322 -144.7579,-24.32639 -66.218,30.59462 -107.2371,129.96567 -105.5227,255.63477 0.3199,23.4458 0.3199,23.4458 6.8199,25.2927 43.5064,12.3616 78.8785,27.9261 108.841,47.8924 14.1118,9.4038 11.1068,9.5107 22.8138,-0.8119 z m -317.65485,372.8062 c -21.2356,-6.8237 -28.7434,-25.0149 -14.6627,-35.5276 3.4139,-2.5489 11.8435,-2.7206 16.1627,-0.3294 20.6983,11.4595 25.2383,7.7931 26.451,-21.3613 1.0074,-24.2208 3.6671,-28.4068 18.049,-28.4068 14.3086,0 16.9543,4.086 18.0714,27.9093 1.312,27.9811 5.9364,32.8756 22.5955,23.9155 13.5489,-7.2872 25.3344,-3.1896 27.0223,9.3952 2.9308,21.8502 -36.7678,34.7138 -62.4318,20.23 -5.2574,-2.9671 -5.2574,-2.9671 -10.5074,-0.01 -10.7968,6.0856 -29.0106,7.9553 -40.75,4.183 z m -155.1438,-36.4413 c -41.2535,-14.0615 -33.6995,-74.2497 9.5984,-76.4778 21.3909,-1.1008 38.4574,12.9929 41.4669,34.2439 4.0147,28.3486 -23.9494,51.4765 -51.0653,42.2339 z m 382.03625,0.8667 c -46.3466,-12.7811 -34.8347,-80.1197 13.2212,-77.3378 36.2593,2.099 49.2243,50.1236 19.2794,71.4137 -9.1303,6.4913 -21.9622,8.8303 -32.5006,5.9241 z"
       id="path3971"
       sodipodi:nodetypes="ssssssssssssssssssssssssssssscsssssssssssssscssssscscsssssssssscsssssssssscsssssssssscsssssssssssssssssscsssscsscsccscsssssscccssssssss" /><path
       d="m 134.97039,1069.7682 c 0,0 0.6102,-0.1244 -2.5664,-2.9626 -1.7471,-1.561 -11.11321,-12.2528 -14.9457,-16.434 -4.802,-4.9872 -11.8808,-12.7804 -15.7308,-17.3183 -10.565739,-12.4536 -9.073599,-10.6394 -20.655139,-25.1141 -6.74345,-8.42809 -13.98247,-17.97549 -17.42364,-22.97969 -7.11227,-10.3428 -14.42124,-21.2516 -14.42124,-21.5241 0,-0.1605 -1.74715,-3.1677 -3.88256,-6.6826 -22.91273,-37.7152 -29.85044,-77.4648 -16.34177,-93.6303 0.94838,-1.1349 3.26044,-3.9023 5.13791,-6.1499 18.48905,-22.1335 51.71745,-23.3053 72.697739,-2.5638 22.0655,21.8144 43.2614,79.5323 51.0207,138.9333 0.7464,5.714 1.5124,10.08539 2.0323,11.59709 0.2837,0.825 0.6888,3.75 0.9002,6.5 0.2114,2.75 0.866,7.25 1.4547,10 0.5887,2.75 1.1912,7.025 1.3389,9.5 0.6024,10.0953 1.9491,25 2.2588,25"
       style="fill:#fcaeb5"
       id="path1-0"
       sodipodi:nodetypes="csssssssssssssssc" /><path
       d="m 532.35177,1053.5704 c 1.65748,-13.6669 3.37515,-21.157 4.48835,-27.5655 1.18486,-6.8211 2.08428,-17.3248 3.0623,-23.1949 2.68411,-16.10973 2.26273,-13.79883 5.83382,-31.98936 2.07939,-10.59168 4.69325,-22.28459 6.29133,-28.14375 3.30301,-12.10986 6.91109,-24.73543 7.11912,-24.91142 0.12257,-0.10364 1.29006,-3.37973 2.59444,-7.28013 13.99631,-41.85132 39.86321,-72.82011 60.92957,-72.94706 1.47897,-0.009 5.08502,-0.031 8.01355,-0.0493 28.83929,-0.17898 51.1943,24.43306 48.90882,53.84665 -2.40373,30.93503 -32.78028,84.39424 -73.11983,128.68207 -3.88039,4.2602 -6.72309,7.6682 -7.54146,9.0415 -0.44664,0.7494 -2.41815,2.9478 -4.38118,4.8853 -1.96298,1.9374 -4.97585,5.3435 -6.69516,7.569 -1.71933,2.2255 -4.59406,5.4465 -6.38825,7.1578 -0.10053,0.096 -15.35414,14.7255 -17.86494,18.1985"
       style="fill:#fcaeb5"
       id="path1-0-9"
       sodipodi:nodetypes="cssssscscssssscc" /></g></svg>
