<?xml version="1.0" encoding="UTF-8" standalone="no"?>
<!-- Created with Inkscape (http://www.inkscape.org/) -->

<svg
   version="1.1"
   id="svg1"
   width="996.5332"
   height="141.20453"
   viewBox="0 0 996.5332 141.20453"
   sodipodi:docname="Linotte app main inkscape.ai"
   inkscape:version="1.4.2 (ebf0e940, 2025-05-08)"
   xml:space="preserve"
   xmlns:inkscape="http://www.inkscape.org/namespaces/inkscape"
   xmlns:sodipodi="http://sodipodi.sourceforge.net/DTD/sodipodi-0.dtd"
   xmlns="http://www.w3.org/2000/svg"
   xmlns:svg="http://www.w3.org/2000/svg"><defs
     id="defs1" /><sodipodi:namedview
     id="namedview1"
     pagecolor="#ffffff"
     bordercolor="#000000"
     borderopacity="0.25"
     inkscape:showpageshadow="2"
     inkscape:pageopacity="0.0"
     inkscape:pagecheckerboard="0"
     inkscape:deskcolor="#d1d1d1"
     showgrid="false"
     inkscape:zoom="0.33390004"
     inkscape:cx="6370.17"
     inkscape:cy="1737.0468"
     inkscape:window-width="1472"
     inkscape:window-height="844"
     inkscape:window-x="0"
     inkscape:window-y="33"
     inkscape:window-maximized="0"
     inkscape:current-layer="g11898"><inkscape:page
       x="0"
       y="0"
       width="996.5332"
       height="141.20453"
       id="page2"
       margin="0"
       bleed="0" /></sodipodi:namedview><g
     id="layer-MC0"
     inkscape:groupmode="layer"
     inkscape:label="Livello 1"
     transform="translate(-6105.6815,-785.22436)"><path
       id="path11856-3-0"
       style="fill:#000000;fill-opacity:0.498233;fill-rule:nonzero;stroke:none;stroke-width:1.93246;stroke-linecap:round;stroke-linejoin:miter;stroke-miterlimit:1.4;stroke-dasharray:none;stroke-dashoffset:0;stroke-opacity:1;paint-order:markers stroke fill"
       d="m 7069.604,785.22433 -931.3101,0.018 c -18.0673,0 -32.6125,13.9359 -32.6125,31.2461 v 31.8147 1.2669 45.6148 c 0,17.3102 14.5452,31.2441 32.6125,31.2441 h 931.3101 c 18.0674,0 32.6106,-13.4878 32.6106,-31.2441 v -46.0782 -0.3402 -32.2957 c 0,-17.2523 -14.7462,-31.2284 -32.6106,-31.2459 z m -928.7766,9.3447 h 89.967 9.327 115.7879 9.3271 701.8321 c 17.0985,0 25.8209,11.0333 25.8209,24.7379 v 29.6293 43.4429 c 0,14.103 -11.4234,24.7379 -25.8209,24.7379 h -701.8321 -9.3271 -115.7879 -9.327 -89.967 c -14.304,0 -25.817,-11.0332 -25.817,-24.7379 v -43.4429 -29.6292 c 0,-13.7047 11.513,-24.738 25.817,-24.738 z"
       sodipodi:nodetypes="ccsccsscccccccscccccccccccccsscss"
       inkscape:export-filename="path11856-3-0.svg"
       inkscape:export-xdpi="96"
       inkscape:export-ydpi="96" /></g><pattern
     id="b-2"
     width="41"
     height="41"
     patternUnits="userSpaceOnUse"><circle
       fill="#ffffff"
       cx="20.5"
       cy="20.5"
       r="20.5"
       id="circle2" /></pattern></svg>
