<?xml version="1.0" encoding="UTF-8" standalone="no"?>
<!-- Created with Inkscape (http://www.inkscape.org/) -->

<svg
   version="1.1"
   id="svg1"
   width="353.61865"
   height="141.18896"
   viewBox="0 0 353.61865 141.18896"
   sodipodi:docname="Linotte app main inkscape.ai"
   inkscape:version="1.4.2 (ebf0e940, 2025-05-08)"
   xml:space="preserve"
   inkscape:export-batch-path="/Users/giannipie/Documents/Repositories/linotte-web/resources/images/dice"
   inkscape:export-batch-name="rere"
   inkscape:export-filename="/Users/giannipie/Documents/Repositories/linotte-web/resources/images/volume.svg"
   inkscape:export-xdpi="96"
   inkscape:export-ydpi="96"
   xmlns:inkscape="http://www.inkscape.org/namespaces/inkscape"
   xmlns:sodipodi="http://sodipodi.sourceforge.net/DTD/sodipodi-0.dtd"
   xmlns="http://www.w3.org/2000/svg"
   xmlns:svg="http://www.w3.org/2000/svg"><defs
     id="defs1" /><sodipodi:namedview
     id="namedview1"
     pagecolor="#ffffff"
     bordercolor="#000000"
     borderopacity="0.25"
     inkscape:showpageshadow="2"
     inkscape:pageopacity="0.0"
     inkscape:pagecheckerboard="0"
     inkscape:deskcolor="#d1d1d1"
     showgrid="false"
     inkscape:zoom="0.03871024"
     inkscape:cx="7000.7317"
     inkscape:cy="6380.7407"
     inkscape:window-width="1472"
     inkscape:window-height="850"
     inkscape:window-x="0"
     inkscape:window-y="33"
     inkscape:window-maximized="0"
     inkscape:current-layer="g94-4-3"><inkscape:page
       x="0"
       y="0"
       width="353.61865"
       height="141.18896"
       id="page2"
       margin="0"
       bleed="0" /></sodipodi:namedview><pattern
     id="b-2"
     width="41"
     height="41"
     patternUnits="userSpaceOnUse"><circle
       fill="#ffffff"
       cx="20.5"
       cy="20.5"
       r="20.5"
       id="circle2" /></pattern><g
     id="g187-8"
     transform="translate(-7849.921,-3006.8465)"><g
       id="g173-8-3-0"
       transform="translate(3521.204,2570.576)"><g
         id="rect171-4-1-3"
         style="opacity:0.5"><path
           style="baseline-shift:baseline;display:inline;overflow:visible;opacity:0.5;vector-effect:none;fill:#ffffff;stroke-linecap:round;stroke-linejoin:round;stroke-miterlimit:1.4;paint-order:stroke fill markers;enable-background:accumulate;stop-color:#000000"
           d="m 4356.8444,436.27026 h 297.3646 c 15.5825,0 28.1272,12.5447 28.1272,28.12713 v 84.93482 c 0,15.58243 -12.5447,28.12713 -28.1272,28.12713 h -297.3646 c -15.5824,0 -28.1271,-12.5447 -28.1271,-28.12713 v -84.93482 c 0,-15.58243 12.5447,-28.12713 28.1271,-28.12713 z"
           id="path173-36-2-9" /></g></g><g
       id="g117-3-9-4"
       transform="translate(-657.0429,-6080.848)"><g
         id="g24-1-6-4-5"
         transform="matrix(0.81025337,0,0,0.81025337,5504.7436,9041.1646)"
         inkscape:export-filename="/Users/giannipie/Documents/Repositories/linotte-web/resources/images/volume0.svg"
         inkscape:export-xdpi="96"
         inkscape:export-ydpi="96"
         style="fill:#000000;fill-opacity:0.987421"><path
           d="m 3943.248,79.230469 c -5.7948,0 -30.0887,24.614101 -35.7832,30.308591 h -12.1054 c -8.915,0 -16.1426,7.22762 -16.1426,16.14258 v 31.74414 c 0,5.92732 3.1953,11.10885 7.957,13.91602 l 8.4864,-8.53516 h -0.3008 c -2.9669,0 -5.3809,-2.41396 -5.3809,-5.38086 v -31.74414 c 0,-2.9669 2.414,-5.38086 5.3809,-5.38086 h 12.1054 a 10.760665,10.760665 0 0 0 7.6094,-3.15234 c 0.254,-0.25383 0.5452,-0.54638 0.8692,-0.8711 3.0394,-3.046 9.3643,-9.38298 15.7207,-15.24414 5.6314,-5.192611 9.1802,-8.067923 11.3144,-9.642575 V 115.2207 l 10.7617,-10.82422 V 89.722656 c 0,-5.794712 -4.6975,-10.492187 -10.4922,-10.492187 z m 10.4922,41.597661 -10.7617,10.82226 v 58.51953 c -2.1728,-1.45252 -5.9775,-4.27456 -12.1777,-9.6543 -6.9892,-6.06442 -13.3437,-12.17381 -15.7266,-14.55664 a 10.761337,10.761337 0 0 0 -3.7773,-2.44726 l -10,10.05664 h 6.1679 c 6.5465,6.54639 29.9884,28.49023 35.7832,28.49023 5.7947,0 10.4922,-4.69747 10.4922,-10.49218 z"
           style="fill:#000000;fill-opacity:0.987421;stroke-width:0.134517"
           id="path34-6-4-1-1" /><path
           d="m 3970.3457,90.105469 a 5.7921262,5.7921262 0 0 0 -4.0918,1.707031 l -89.1445,89.65039 a 5.7921262,5.7921262 0 0 0 0.023,8.19141 5.7921262,5.7921262 0 0 0 8.1914,-0.0234 l 89.1446,-89.648438 a 5.7921262,5.7921262 0 0 0 -0.022,-8.191406 5.7921262,5.7921262 0 0 0 -4.0996,-1.685547 z"
           style="baseline-shift:baseline;display:inline;overflow:visible;vector-effect:none;fill:#000000;fill-opacity:0.987421;stroke-linecap:round;stroke-linejoin:round;paint-order:stroke fill markers;enable-background:accumulate;stop-color:#000000;stop-opacity:1"
           id="path33-4-1-9-1" /><path
           d="m 3970.3633,95.898437 -89.1445,89.648433 z"
           style="baseline-shift:baseline;display:inline;overflow:visible;vector-effect:none;fill:#000000;fill-opacity:0.987421;stroke-linecap:round;stroke-linejoin:round;paint-order:stroke fill markers;enable-background:accumulate;stop-color:#000000;stop-opacity:1"
           id="path32-9-6-9-0"
           inkscape:export-filename="/Users/giannipie/Documents/Repositories/linotte-web/resources/images/volume0.svg"
           inkscape:export-xdpi="96"
           inkscape:export-ydpi="96" /></g></g></g></svg>
