<?xml version="1.0" encoding="UTF-8" standalone="no"?>
<!-- Created with Inkscape (http://www.inkscape.org/) -->

<svg
   version="1.1"
   id="svg1"
   width="180.51318"
   height="180.49503"
   viewBox="0 0 180.51318 180.49503"
   sodipodi:docname="Linotte app main inkscape.ai"
   inkscape:version="1.4.2 (ebf0e940, 2025-05-08)"
   xml:space="preserve"
   inkscape:export-batch-path="/Users/giannipie/Documents/Repositories/linotte-web/resources/images/dice"
   inkscape:export-batch-name="rere"
   inkscape:export-filename="/Users/giannipie/Documents/Repositories/linotte-web/resources/images/volume.svg"
   inkscape:export-xdpi="96"
   inkscape:export-ydpi="96"
   xmlns:inkscape="http://www.inkscape.org/namespaces/inkscape"
   xmlns:sodipodi="http://sodipodi.sourceforge.net/DTD/sodipodi-0.dtd"
   xmlns="http://www.w3.org/2000/svg"
   xmlns:svg="http://www.w3.org/2000/svg"><defs
     id="defs1" /><sodipodi:namedview
     id="namedview1"
     pagecolor="#ffffff"
     bordercolor="#000000"
     borderopacity="0.25"
     inkscape:showpageshadow="2"
     inkscape:pageopacity="0.0"
     inkscape:pagecheckerboard="0"
     inkscape:deskcolor="#d1d1d1"
     showgrid="false"
     inkscape:zoom="0.96441329"
     inkscape:cx="2760.2274"
     inkscape:cy="523.63442"
     inkscape:window-width="1472"
     inkscape:window-height="844"
     inkscape:window-x="0"
     inkscape:window-y="33"
     inkscape:window-maximized="0"
     inkscape:current-layer="g3010"><inkscape:page
       x="0"
       y="0"
       width="180.51318"
       height="180.49503"
       id="page2"
       margin="0"
       bleed="0" /></sodipodi:namedview><g
     id="layer-MC0"
     inkscape:groupmode="layer"
     inkscape:label="Livello 1"
     transform="translate(-4842.1482,-85.880125)"><g
       id="g180"><path
         id="path70-4"
         style="baseline-shift:baseline;display:inline;overflow:visible;opacity:0.5;mix-blend-mode:normal;vector-effect:none;stroke-width:0.351178;enable-background:accumulate;stop-color:#000000"
         d="m 4932.0451,85.880122 c -2.2505,0 -4.4999,0.0323 -6.3619,0.0939 -1.8615,0.0623 -3.2834,0.14013 -4.0946,0.29014 -3.0644,0.56647 -6.2125,2.2583 -8.5057,4.55157 -1.5376,1.53743 -2.63,3.04367 -3.4521,5.10441 -0.8222,2.06073 -1.3927,4.651078 -2.0275,8.492028 -0.1634,0.98806 -0.3554,1.93274 -0.5282,2.63933 -0.087,0.35329 -0.1688,0.64847 -0.2339,0.84566 -0.02,0.0631 -0.034,0.093 -0.05,0.13169 -0.016,0.007 0,0 -0.1138,0.06 -0.1663,0.0917 -0.4045,0.21226 -0.686,0.3464 -0.5634,0.26812 -1.3043,0.59282 -2.0686,0.90048 l -2.3945,0.96376 -4.1051,-2.88829 c -2.8671,-2.01758 -4.8328,-3.24473 -6.7477,-3.95284 -1.9152,-0.70812 -3.7341,-0.85496 -6.1312,-0.77021 -3.0072,0.10621 -3.9234,0.3217 -6.3652,1.48762 -1.2159,0.58076 -2.1716,1.14186 -3.4328,2.18186 -1.2612,1.03998 -2.8461,2.55555 -5.4782,5.13738 -1.6529,1.62123 -3.3245,3.32063 -4.6915,4.75801 -1.3671,1.43736 -2.4042,2.57488 -2.8926,3.22437 -3.0142,4.0098 -4.1262,9.02188 -2.9629,13.58001 0.7696,3.01582 1.5708,4.52199 4.9624,9.30824 l 2.5289,3.56864 -1.1036,2.78746 -1.0919,2.75937 -2.3725,0.35665 c -5.5945,0.84067 -8.2919,1.53293 -10.7295,2.81082 -4.311,2.25996 -7.498,6.58263 -8.3829,11.36999 -0.1505,0.81384 -0.2295,2.23725 -0.2916,4.10031 -0.062,1.86306 -0.092,4.11404 -0.092,6.36644 0,2.25239 0.031,4.50486 0.092,6.37062 0.062,1.86574 0.1411,3.29492 0.2909,4.1119 0.5835,3.18215 2.582,6.79152 4.9679,8.97218 1.5823,1.44612 3.1522,2.47697 5.289,3.25522 2.1367,0.77818 4.824,1.32312 8.7766,1.9198 0.7406,0.11182 1.4612,0.25724 2.0007,0.39509 0.2698,0.0686 0.4958,0.13706 0.6419,0.19001 0.043,0.015 0.062,0.0323 0.092,0.0505 0.019,0.0277 0.033,0.0442 0.1007,0.16531 0.098,0.1732 0.219,0.41387 0.3498,0.69209 0.2617,0.55637 0.5631,1.26645 0.8389,1.97053 0.2757,0.70401 0.528,1.40542 0.6933,1.93835 0.082,0.26236 0.1404,0.48308 0.1709,0.62621 -0.033,0.0513 -0.06,0.0979 -0.1069,0.16941 -0.1407,0.21557 -0.3407,0.51133 -0.5817,0.86007 -0.4823,0.69755 -1.1298,1.609 -1.8218,2.5584 -1.4222,1.95161 -3.0328,4.49595 -3.6893,5.88219 -1.016,2.14468 -1.1604,2.89833 -1.1701,6.65863 -0.011,3.83969 0.1192,4.48925 1.2305,6.83775 0.5245,1.1088 1.1022,2.04898 2.247,3.39031 1.1446,1.34134 2.8647,3.11712 5.7792,6.05854 1.8509,1.86781 3.7411,3.7001 5.3027,5.15443 1.5615,1.45441 2.706,2.48201 3.3992,2.93288 4.5766,2.97669 10.3919,3.38021 15.4142,1.08095 1.2072,-0.55259 3.7832,-2.1944 6.0563,-3.79636 l 3.6921,-2.60163 2.5742,1.01789 2.5529,1.01032 0.703,4.21338 c 0.436,2.61323 1.0124,5.44033 1.3786,6.57429 1.6492,5.10502 6,9.10995 11.2886,10.54495 v 0.0481 l 0.6857,0.15363 c 0.8072,0.18125 2.207,0.2671 4.097,0.34498 1.8898,0.0782 4.1961,0.12373 6.5145,0.1358 2.3186,0.0118 4.6481,-0.01 6.5846,-0.0679 1.9366,-0.0584 3.4299,-0.13778 4.2876,-0.29638 4.7861,-0.8847 9.1077,-4.07016 11.372,-8.38226 1.2508,-2.38172 1.8702,-4.79777 2.8623,-10.9667 l 0.3676,-2.28475 1.9858,-0.82584 c 1.3388,-0.55646 2.7896,-1.15283 3.1859,-1.31072 v 0 c 0,0 0.016,0.007 0.045,0.0103 0.079,0.015 0.2704,0.0793 0.5706,0.24003 0.6002,0.32139 1.6114,1.00251 3.234,2.16401 4.588,3.2845 6.1016,4.12281 8.702,4.81497 4.0294,1.07275 8.5922,0.41751 12.4365,-1.7518 0.8517,-0.4807 2.0446,-1.49623 3.5686,-2.8745 1.5242,-1.37834 3.31,-3.09267 5.0605,-4.84384 1.7505,-1.7511 3.4643,-3.53787 4.8424,-5.0625 1.3782,-1.52472 2.3937,-2.71795 2.8746,-3.57006 2.6188,-4.64074 2.9617,-10.24077 0.8553,-14.80434 -0.6318,-1.36872 -2.3348,-4.09913 -3.9041,-6.32738 l -2.5352,-3.59886 0.4617,-1.1578 c 0.3453,-0.86624 0.9432,-2.30415 1.3169,-3.16676 l 0.4966,-1.14549 2.4398,-0.3662 c 5.1344,-0.77179 8.7706,-1.71024 11.5463,-3.23747 2.7758,-1.52717 4.6357,-3.66704 6.112,-6.59141 0.7965,-1.57798 1.297,-3.04485 1.5652,-5.24501 0.2681,-2.20016 0.3306,-5.14929 0.3279,-9.9084 0,-5.93915 -0.1253,-9.461 -0.8265,-12.14233 -0.7014,-2.68134 -2.0315,-4.44104 -4.1634,-6.57294 -1.6329,-1.63282 -3.0895,-2.73688 -5.2382,-3.55357 -2.1487,-0.81668 -4.952,-1.37218 -9.47,-2.09955 l -2.2465,-0.36146 -1.1391,-2.72025 -1.1373,-2.71746 1.9513,-2.71694 c 2.5038,-3.48458 4.0258,-5.86599 4.8939,-8.09211 0.8681,-2.22613 1.0359,-4.26839 0.8752,-6.84998 -0.1503,-2.41503 -0.4696,-3.6413 -1.5362,-5.88771 -0.5938,-1.24988 -1.1409,-2.19472 -2.2917,-3.54127 -1.1508,-1.34654 -2.9061,-3.12573 -6.0386,-6.24846 -5.5949,-5.57737 -7.3719,-7.15307 -9.3069,-8.108 -4.3539,-2.14863 -9.1521,-2.45825 -13.4284,-0.82985 -0.6902,0.26283 -1.6622,0.80509 -2.8327,1.51509 -1.1704,0.71 -2.4963,1.57695 -3.7115,2.44041 l -3.952,2.80807 -2.7367,-1.129 c -0.8641,-0.35642 -1.6821,-0.71591 -2.2929,-1.00275 -0.3055,-0.14345 -0.5599,-0.2697 -0.7333,-0.36218 -0.026,-0.0143 -0.036,-0.0204 -0.058,-0.0331 -0.014,-0.0442 -0.023,-0.0685 -0.038,-0.12829 -0.067,-0.24288 -0.1512,-0.59977 -0.245,-1.0302 -0.1875,-0.86073 -0.4115,-2.0209 -0.6227,-3.25666 -0.4322,-2.52737 -1.0346,-5.309778 -1.448,-6.486438 -1.8652,-5.30681 -6.7341,-9.39631 -12.3947,-10.4427 -0.8104,-0.14983 -2.2306,-0.22818 -4.0914,-0.28942 -1.861,-0.0615 -4.1105,-0.0911 -6.361,-0.0906 z m 0,1.7545 v 0 c 2.2344,0 4.4692,0.0291 6.3025,0.0899 1.8332,0.0608 3.3173,0.16579 3.8301,0.26064 3.1422,0.58083 6.035,2.2464 8.1636,4.55228 -2.1286,-2.30572 -5.0216,-3.97082 -8.1636,-4.55158 -0.5128,-0.0949 -1.9969,-0.20026 -3.8301,-0.26062 -1.8333,-0.0608 -4.0681,-0.0899 -6.3025,-0.0899 v 0 c -2.2346,0 -4.4701,0.0315 -6.304,0.0925 -1.8342,0.0608 -3.3183,0.1668 -3.8335,0.26205 -2.6507,0.48993 -5.5604,2.04305 -7.584,4.06661 1e-4,-6e-5 -10e-5,0 0,0 2.0236,-2.02356 4.9333,-3.57668 7.584,-4.06661 0.5152,-0.0952 1.9993,-0.20089 3.8335,-0.26205 1.8339,-0.0616 4.0694,-0.0921 6.304,-0.0926 z m 0.7201,10.53051 c 2.8806,0.037 5.0006,0.0425 6.5303,0.17697 1.5299,0.13415 2.4153,0.39824 2.9728,0.82513 0.5575,0.42689 0.9358,1.097988 1.2942,2.391028 0.3584,1.29305 0.6625,3.1412 1.1084,5.65312 0.3232,1.82078 0.6758,3.58908 0.9863,4.98171 0.1553,0.69619 0.3002,1.29777 0.4274,1.77225 0.127,0.47453 0.1966,0.76508 0.3641,1.08922 0.4389,0.84872 1.0575,1.56709 1.9348,2.1592 0.8774,0.59212 1.996,1.08221 3.5448,1.63519 1.4331,0.51148 4.3825,1.72584 6.4626,2.66398 2.5016,1.12828 4.0551,1.76214 5.6627,1.65302 1.6074,-0.10914 2.9636,-0.95952 5.031,-2.40067 4.6668,-3.25349 6.9735,-4.86113 8.2217,-5.61335 1.2481,-0.75221 1.1639,-0.63985 1.9144,-0.63985 0.6018,0 1.6778,0.26102 1.9356,0.39775 -0.098,-0.0513 0.2839,0.2107 0.6879,0.568 0.4041,0.35719 0.9338,0.84769 1.5412,1.42456 1.2149,1.15363 2.7432,2.65508 4.2524,4.17087 1.5096,1.51587 3.0017,3.04768 4.1451,4.26214 0.5715,0.60727 1.056,1.1358 1.4074,1.53712 0.2964,0.33866 0.5286,0.67101 0.5549,0.69002 0.3393,0.70907 0.3049,2.60859 -0.1976,3.58166 -0.086,0.16625 -0.6423,1.04994 -1.3643,2.12085 -0.7218,1.07086 -1.6415,2.39997 -2.5816,3.72299 -0.955,1.34394 -1.8677,2.71755 -2.5763,3.8602 -0.3542,0.57129 -0.6567,1.08394 -0.8915,1.51375 -0.235,0.42988 -0.3986,0.74015 -0.5008,1.08103 -0.2787,0.93046 -0.3086,1.91806 -0.055,3.01313 0.2538,1.09499 0.7657,2.31378 1.5625,3.8931 0.4927,0.97678 1.5254,3.43378 2.2271,5.3225 1.2405,3.33965 2.4259,5.32447 4.131,6.2498 0.2171,0.11782 0.2885,0.11955 0.439,0.16193 0.1505,0.0426 0.3319,0.0879 0.5494,0.13928 0.4352,0.1024 1.0107,0.22605 1.6942,0.36486 1.3672,0.27751 3.163,0.61476 5.0668,0.94648 2.5613,0.44639 4.451,0.75735 5.7758,1.13176 1.3248,0.37449 2.0195,0.77518 2.4643,1.3718 0.445,0.59653 0.7147,1.5367 0.8389,3.13449 0.1244,1.59786 0.1056,3.80077 0.1029,6.78353 0,3.04952 10e-5,5.31652 -0.1501,6.97205 -0.1504,1.65555 -0.4518,2.64986 -0.9507,3.30052 -0.4989,0.65074 -1.2673,1.09026 -2.6714,1.48771 -1.4045,0.39753 -3.3867,0.719 -6.0587,1.1578 -2.1043,0.3456 -3.7631,0.65965 -5.0131,0.95271 -1.2502,0.29305 -2.0527,0.51874 -2.6516,0.88889 -1.5266,0.94341 -2.6601,2.84498 -3.4104,5.23609 -0.1908,0.60799 -1.2545,3.23708 -2.2786,5.56332 -0.5273,1.19806 -1.0024,2.40904 -1.3512,3.41707 -0.1742,0.50406 -0.3168,0.95658 -0.4197,1.34094 -0.1028,0.38443 -0.177,0.66148 -0.177,1.01309 0,0.90363 0.2597,1.83252 0.9561,3.0824 0.6965,1.24981 1.8345,2.90188 3.7181,5.52143 0.8531,1.18629 1.6911,2.38574 2.3507,3.35678 0.6596,0.97101 1.1718,1.78068 1.2518,1.93557 0.5122,0.99053 0.5785,2.2146 0.1516,3.3732 -0.011,0.007 -0.045,0.0854 -0.1058,0.16869 -0.088,0.12105 -0.2208,0.28998 -0.3873,0.49112 -0.3331,0.40235 -0.8023,0.93568 -1.3595,1.54737 -1.1145,1.22353 -2.5845,2.76718 -4.0844,4.29781 -1.5,1.53071 -3.0312,3.05015 -4.2677,4.22577 -0.6184,0.58786 -1.1636,1.09033 -1.5878,1.46033 -0.4242,0.36999 -0.7969,0.63086 -0.7752,0.61934 -0.894,0.47068 -2.6943,0.46736 -3.7004,-0.0529 -0.1363,-0.0702 -1.013,-0.62661 -2.0719,-1.34853 -1.059,-0.72184 -2.3804,-1.64663 -3.7025,-2.5954 -1.3359,-0.95881 -2.6538,-1.86939 -3.7093,-2.56937 -0.5277,-0.34995 -0.9894,-0.6468 -1.3601,-0.87381 -0.3708,-0.22702 -0.5899,-0.36921 -0.889,-0.48291 -1.846,-0.7018 -3.707,-0.4018 -6.3787,0.8787 -1.3311,0.63789 -4.0068,1.75734 -5.8534,2.44587 -3.1658,1.18022 -5.0271,1.90994 -6.2259,3.64692 -1.1987,1.7369 -1.5708,4.12146 -2.2764,8.54553 -0.5516,3.45691 -1.0029,5.54303 -1.5214,6.75261 -0.5185,1.20956 -0.9652,1.55808 -1.9615,1.95681 -0.9494,0.37976 -2.4727,0.4956 -9.1938,0.46231 -4.2671,-0.0213 -6.5265,-0.0458 -7.7925,-0.1564 -1.2658,-0.11071 -1.4038,-0.21549 -1.9856,-0.59677 -0.6505,-0.42625 -0.9422,-0.73194 -1.3498,-1.91704 -0.4076,-1.1851 -0.8147,-3.19494 -1.3973,-6.59961 -0.3874,-2.26524 -0.737,-4.06394 -1.0528,-5.40897 -0.3157,-1.34513 -0.5368,-2.1798 -0.9184,-2.79709 -0.9376,-1.51683 -2.8359,-2.64426 -5.2265,-3.40065 -0.6319,-0.19995 -3.0869,-1.18053 -5.221,-2.10641 -2.9197,-1.26662 -4.6192,-1.98317 -6.4351,-1.77572 -1.8159,0.20744 -3.3752,1.28641 -6.0968,3.19691 -2.3757,1.66762 -4.9102,3.45966 -5.6635,4.0049 -1.6822,1.21776 -3.1235,1.61382 -4.3835,1.38072 -0.3175,-0.0584 -0.7473,-0.25573 -1.7779,-1.13105 -1.0305,-0.87532 -2.5946,-2.37833 -5.1008,-4.86153 -1.6577,-1.64213 -3.2212,-3.24149 -4.3987,-4.48917 -0.5887,-0.62382 -1.0817,-1.16032 -1.437,-1.56456 -0.2998,-0.34111 -0.5348,-0.67221 -0.561,-0.69208 -0.2332,-0.45862 -0.3883,-1.26472 -0.3629,-2.06516 0.025,-0.81305 0.2375,-1.62224 0.5056,-2.06183 0.2744,-0.45017 2.0853,-3.05409 3.8696,-5.53105 1.7467,-2.42458 2.821,-4.02796 3.4523,-5.3184 0.6311,-1.29051 0.7993,-2.35852 0.6158,-3.36016 -0.095,-0.51834 -0.3452,-1.1645 -0.7166,-2.12835 -0.3716,-0.96393 -0.8534,-2.13791 -1.361,-3.30186 -0.997,-2.28711 -2.0977,-5.03197 -2.3895,-5.9255 -0.7395,-2.26343 -1.827,-3.80339 -3.4487,-4.64209 -0.3191,-0.16499 -0.6045,-0.23269 -1.0604,-0.35326 -0.4559,-0.1205 -1.0302,-0.25566 -1.6929,-0.39912 -1.325,-0.2869 -2.9994,-0.60695 -4.7189,-0.89511 -2.6679,-0.4471 -4.6483,-0.7755 -6.0529,-1.17627 -1.4046,-0.40085 -2.1766,-0.84202 -2.675,-1.48502 -0.4985,-0.64302 -0.7983,-1.61673 -0.948,-3.24222 -0.1495,-1.62555 -0.1459,-3.8519 -0.1459,-6.84587 0,-2.99765 -0.011,-5.22606 0.1453,-6.85202 0.15,-1.62602 0.4511,-2.59824 0.9527,-3.24085 0.5016,-0.64262 1.2812,-1.08434 2.6983,-1.48566 1.4171,-0.40133 3.4143,-0.73069 6.1052,-1.17975 2.1144,-0.35294 3.7711,-0.66959 4.9946,-0.95815 1.2234,-0.28856 1.936,-0.44741 2.5372,-0.88762 1.5233,-1.11543 2.5982,-2.95909 3.4821,-5.65448 0.3975,-1.21136 1.4324,-3.79037 2.2567,-5.60308 0.8556,-1.88146 1.3704,-3.32979 1.5378,-4.63317 0.1673,-1.30347 -0.056,-2.46521 -0.6056,-3.53163 -0.2271,-0.44124 -0.7111,-1.17681 -1.4048,-2.21003 -0.6938,-1.03312 -1.5679,-2.29831 -2.4589,-3.55286 -2.3043,-3.24448 -3.5123,-5.06627 -3.9618,-6.19361 -0.4462,-1.1193 -0.3182,-1.49214 0.1751,-2.62832 -2e-4,0 0,0 0,0 0.027,-0.0221 0.2469,-0.36621 0.5445,-0.72357 0.3528,-0.4238 0.8461,-0.98184 1.4356,-1.62494 1.1791,-1.28609 2.7484,-2.91686 4.413,-4.57074 2.0727,-2.05947 3.6047,-3.59318 4.819,-4.6099 1.2143,-1.01671 2.0766,-1.48092 2.8218,-1.58435 0.7453,-0.10354 1.5208,0.10516 2.7038,0.77091 1.1829,0.66566 2.7042,1.7713 4.7662,3.25727 1.4283,1.02917 2.8624,2.01172 4.0331,2.77238 0.5854,0.38033 1.1042,0.70536 1.5295,0.95549 0.4253,0.25013 0.7111,0.4175 1.0358,0.53152 0.9483,0.3333 1.9821,0.39082 3.1606,0.14542 1.1783,-0.24533 2.526,-0.76752 4.3081,-1.59541 1.5017,-0.69762 4.1526,-1.80721 5.8184,-2.43491 1.6599,-0.6255 2.7608,-1.10264 3.6105,-1.68111 0.8498,-0.57854 1.4104,-1.28619 1.8491,-2.1345 0.1699,-0.32842 0.2307,-0.60459 0.3547,-1.07408 0.1238,-0.46943 0.2658,-1.06809 0.419,-1.7627 0.3064,-1.38932 0.6578,-3.16053 0.9828,-4.99196 0.4656,-2.62168 0.7971,-4.56002 1.1997,-5.91999 0.4028,-1.35979 0.8343,-2.078328 1.4919,-2.545288 0.6577,-0.46697 1.688,-0.74339 3.4006,-0.85803 1.7127,-0.11473 4.0592,-0.0718 7.2266,-0.0309 z m -12.3714,0.10699 c -0.2175,0.24184 -0.411,0.50885 -0.5852,0.7998 -0.3483,0.58186 -0.6189,1.260298 -0.8464,2.028838 -0.4552,1.53711 -0.7808,3.49723 -1.245,6.11133 -0.321,1.80886 -0.6688,3.56312 -0.9682,4.92125 -0.1499,0.67908 -0.288,1.25976 -0.4021,1.6921 -0.103,0.3901 -0.2227,0.71102 -0.2208,0.72294 -0.011,0.01 0.1137,-0.31998 0.2201,-0.72294 0.1141,-0.43234 0.2522,-1.01302 0.4019,-1.6921 0.2997,-1.35813 0.6474,-3.11239 0.9686,-4.92125 0.464,-2.6141 0.7897,-4.57422 1.2448,-6.11133 0.2276,-0.76854 0.4988,-1.446978 0.8471,-2.028838 0.1741,-0.29095 0.3677,-0.55796 0.5852,-0.7998 z m 58.226,5.825998 c 2.5262,-0.10613 5.1212,0.45237 7.5942,1.67289 1.6259,0.80241 3.2644,2.2154 8.844,7.77731 2e-4,2.2e-4 -3e-4,0 0,0 -5.5796,-5.56191 -7.2181,-6.9749 -8.844,-7.77731 -3.9569,-1.95285 -8.2257,-2.21073 -12.0263,-0.76341 -0.4104,0.15624 -1.4166,0.68988 -2.5475,1.37589 -1.1308,0.68602 -2.4286,1.53498 -3.6045,2.37044 l -4.7421,3.3698 -3.6332,-1.49869 c -0.8875,-0.36612 -1.7243,-0.7339 -2.3698,-1.03707 -0.3227,-0.1515 -0.5962,-0.28596 -0.8135,-0.40194 -0.1084,-0.0577 -0.2031,-0.11048 -0.2907,-0.16523 -0.066,-0.0411 -0.1167,-0.06 -0.2066,-0.14267 0.09,0.0827 0.1407,0.10087 0.2066,0.14195 0.088,0.0545 0.1823,0.10732 0.2907,0.16532 0.2173,0.11599 0.4908,0.25038 0.8135,0.40195 0.6455,0.30308 1.4823,0.67086 2.3698,1.03698 l 3.6332,1.49877 4.7421,-3.3698 c 1.1759,-0.83546 2.4737,-1.68442 3.6045,-2.37044 1.1309,-0.68602 2.1371,-1.21974 2.5475,-1.37598 1.4251,-0.54271 2.9164,-0.84571 4.4321,-0.90947 z m -94.0126,0.34229 c 2.2989,-0.0813 3.8019,0.0505 5.4598,0.6632 1.6579,0.61304 3.516,1.75049 6.3465,3.74225 l 4.8858,3.43773 3.2798,-1.32034 c 0.7963,-0.32053 1.5618,-0.6555 2.1673,-0.94381 0.303,-0.14415 0.5648,-0.2761 0.7792,-0.39437 0.2146,-0.11829 0.3371,-0.15276 0.5762,-0.3958 -2e-4,1.5e-4 3e-4,0 0,0 -0.2391,0.24304 -0.3616,0.27751 -0.5762,0.3958 -0.2144,0.11827 -0.4762,0.25022 -0.7792,0.39437 -0.6055,0.28831 -1.371,0.62328 -2.1673,0.94381 l -3.2798,1.32026 -4.8858,-3.43765 c -2.8305,-1.99176 -4.6885,-3.12921 -6.3465,-3.74225 -1.6579,-0.61301 -3.1609,-0.74454 -5.4598,-0.66328 -2.9589,0.10456 -3.2831,0.17881 -5.6709,1.31901 -1.1496,0.54904 -1.9024,0.98688 -3.0728,1.95208 -1.1704,0.9651 -2.7395,2.46126 -5.3651,5.03645 10e-5,-7e-5 -1e-4,0 0,0 2.6256,-2.57519 4.1948,-4.07135 5.3651,-5.03645 1.1704,-0.9652 1.9232,-1.40304 3.0728,-1.95208 2.3878,-1.1402 2.712,-1.21437 5.6709,-1.31893 z m 94.6464,8.31781 c 0.4301,0 0.8766,0.0458 1.3108,0.12964 -0.4342,-0.0838 -0.8807,-0.12759 -1.3108,-0.12964 z m -0.5829,0.0213 c -0.1906,0.0189 -0.3919,0.0529 -0.6139,0.11252 0.222,-0.06 0.4233,-0.0936 0.6139,-0.11252 z m -94.0374,0.24209 c -0.3122,0.0434 -0.6178,0.12002 -0.9205,0.22709 -0.3028,0.10716 -0.6031,0.245 -0.9059,0.41221 0.3024,-0.16713 0.6033,-0.30514 0.9059,-0.41221 0.303,-0.10716 0.6082,-0.18361 0.9205,-0.22709 z m 31.4928,1.52747 v 0 c -0.089,0.17115 -0.174,0.32329 -0.2612,0.46097 -0.088,0.13794 -0.1777,0.26198 -0.2758,0.37789 -0.098,0.11568 -0.2045,0.22346 -0.3253,0.32858 0.121,-0.10535 0.2271,-0.21267 0.3253,-0.32858 0.098,-0.11584 0.1883,-0.24003 0.2758,-0.37789 0.088,-0.13785 0.1719,-0.28959 0.2606,-0.46097 z m -1.2743,1.48227 c -0.3133,0.21321 -0.7183,0.43304 -1.2477,0.6756 0.5293,-0.24256 0.9345,-0.46239 1.2477,-0.6756 z m -38.8559,3.67848 c 2e-4,-1.6e-4 0,1.6e-4 0,0 -1.6826,1.67163 -3.2654,3.31676 -4.4692,4.62977 -0.602,0.6565 -1.1085,1.22914 -1.4904,1.68798 -0.3821,0.45884 -0.6099,0.68609 -0.8005,1.12482 -0.3462,0.79679 -0.5715,1.5775 -0.5467,2.41502 -0.024,-0.83752 0.1998,-1.61823 0.546,-2.41502 0.1906,-0.43873 0.4184,-0.66598 0.8004,-1.12482 0.3819,-0.45884 0.8885,-1.03148 1.4904,-1.68798 1.2038,-1.31301 2.7868,-2.95814 4.4693,-4.62977 z m 86.0603,1.39712 c 0.5537,0.17714 1.0123,0.27451 1.422,0.30316 -0.4095,-0.0292 -0.8685,-0.12609 -1.422,-0.30316 z m -93.3204,8.97084 c 0.052,0.34514 0.1484,0.70148 0.297,1.07407 0.1483,0.37228 0.3377,0.7654 0.5748,1.19553 -0.2374,-0.43052 -0.4269,-0.823 -0.5755,-1.19553 -0.1486,-0.37259 -0.2444,-0.72893 -0.2963,-1.07407 z m 1.7332,3.69211 c 0.6771,1.04663 1.5687,2.31372 2.725,3.9418 0.8822,1.24208 1.749,2.4978 2.4322,3.51522 0.6833,1.01743 1.2119,1.86165 1.3012,2.03508 0.3111,0.60529 0.4674,1.14644 0.4718,1.80318 0,0.21889 -0.014,0.45033 -0.046,0.70164 -0.1292,1.00552 -0.5716,2.32064 -1.3945,4.13046 -0.8532,1.87664 -1.8808,4.4213 -2.3271,5.78204 -0.7223,2.20253 -1.5292,3.60304 -2.4494,4.45359 -0.1316,0.12159 -0.265,0.23207 -0.4013,0.33196 0.1361,-0.0997 0.27,-0.2106 0.4013,-0.33196 0.9203,-0.85055 1.7261,-2.25091 2.4486,-4.45359 0.4462,-1.36074 1.4739,-3.9054 2.3272,-5.78204 0.8229,-1.80982 1.2654,-3.12494 1.3944,-4.13046 0.033,-0.25131 0.049,-0.48275 0.046,-0.70164 -0.011,-0.65674 -0.1611,-1.19789 -0.4727,-1.80318 -0.09,-0.17343 -0.6178,-1.01765 -1.3009,-2.03508 -0.6831,-1.01742 -1.5501,-2.27314 -2.4322,-3.51522 -1.1563,-1.62777 -2.0474,-2.89525 -2.7244,-3.9418 z m 61.9341,7.09902 v 0 c -7.2143,0 -9.766,0.55533 -15.5731,3.38209 -9.3337,4.5433 -15.8882,12.45797 -18.8547,22.74285 -0.7158,2.48216 -0.838,3.79169 -0.838,9.14087 0,5.34909 0.1222,6.65862 0.838,9.14087 2.2,7.62689 6.7438,14.46473 12.6699,19.02459 4.1017,3.15619 10.4894,6.02737 15.3756,6.89731 0.6453,0.11474 1.6981,0.17353 3.0337,0.21195 1.3356,0.0387 2.9102,0.0441 4.4152,0.0103 6.1783,-0.1399 8.927,-0.74598 13.8624,-3.05763 7.7157,-3.61378 13.2538,-9.05305 16.954,-16.65486 2.8267,-5.80723 3.3821,-8.35914 3.3821,-15.57319 0,-5.34917 -0.1229,-6.65872 -0.8388,-9.14089 -2.9664,-10.28486 -9.52,-18.19945 -18.8538,-22.74283 -5.8071,-2.82675 -8.3591,-3.38217 -15.5732,-3.38217 z m 0,10.23074 v 0 c 2.2258,0 4.4515,0.20247 5.9851,0.60702 3.1227,0.82363 7.4909,3.01299 9.9728,5.00285 0.4799,0.38476 0.9502,0.80328 1.4096,1.25044 3.2148,3.12929 5.8652,7.68182 7.0586,12.18897 0.2032,0.76673 0.3555,1.70651 0.4573,2.73261 -0.1018,-1.02586 -0.2548,-1.9654 -0.4582,-2.7319 -1.1931,-4.50731 -3.8428,-9.06039 -7.0577,-12.18968 -0.4593,-0.44709 -0.9305,-0.86506 -1.4103,-1.24973 -2.4819,-1.98995 -6.85,-4.1793 -9.9728,-5.00292 -1.5338,-0.40448 -3.7592,-0.60703 -5.9852,-0.60703 v 0 c -2.2257,0 -4.452,0.20255 -5.9857,0.60703 -1.5612,0.41174 -3.4335,1.16435 -5.2259,2.06317 1.7924,-0.8989 3.6647,-1.65128 5.2259,-2.06317 2e-4,-8e-5 0,0 0,0 1.5337,-0.40448 3.76,-0.60703 5.9857,-0.60703 z m -23.6448,0.88825 c 10e-5,-1.6e-4 0,8e-5 0,0 -2.542,2.466 -4.669,5.333 -6.3474,8.56265 -1.1188,2.15312 -2.0381,4.46747 -2.7491,6.93165 -0.6884,2.38716 -0.7695,3.32702 -0.7695,8.65394 0,5.32684 0.081,6.26732 0.7695,8.65457 1.0494,3.63769 2.6636,7.09104 4.7149,10.17314 -2.0513,-3.0821 -3.6662,-6.53545 -4.7154,-10.17314 -0.6885,-2.38725 -0.7695,-3.32773 -0.7695,-8.65457 0,-5.32692 0.081,-6.26678 0.7695,-8.65394 0.7106,-2.46418 1.6308,-4.77853 2.7496,-6.93165 1.6784,-3.22965 3.8047,-6.09665 6.3466,-8.56265 z m 90.7182,0.66945 3.21,0.51645 c 4.4899,0.72292 7.2085,1.27913 9.1251,2.00761 1.9167,0.72855 3.0693,1.60283 4.6201,3.15367 2e-4,1.5e-4 -1e-4,0 0,0 -1.5508,-1.55084 -2.7034,-2.4252 -4.6201,-3.15374 -1.9166,-0.72847 -4.6352,-1.28469 -9.1251,-2.00754 l -3.21,-0.51653 z m -67.0728,0.25787 v 0 c 2.1532,0 4.3061,0.16223 5.5373,0.48692 2.7463,0.72437 7.1558,2.93779 9.3226,4.67508 3.4524,2.76804 6.6108,7.7656 7.8692,12.51958 0.6524,2.45937 0.6541,8.60637 0,11.07378 -0.7244,2.74635 -2.9378,7.15574 -4.675,9.3226 -2.7961,3.48728 -7.967,6.72775 -12.4964,7.81367 v 0 c -12.5929,3.01652 -24.9268,-4.44759 -28.2862,-17.1384 -0.6526,-2.46488 -0.6526,-8.60809 0,-11.073 1.2584,-4.75397 4.4168,-9.75153 7.8693,-12.51958 2.1668,-1.73729 6.5763,-3.95071 9.3226,-4.67507 1.2312,-0.3247 3.3848,-0.48702 5.5378,-0.48702 z m -67.1269,0.15158 v 0 l -3.3725,0.50618 c -5.537,0.83206 -7.9753,1.4765 -10.1753,2.62973 -1.4266,0.74794 -2.7243,1.76553 -3.8299,2.96855 1.1057,-1.20318 2.4031,-2.22115 3.8299,-2.96926 2.2,-1.15323 4.6383,-1.79766 10.1753,-2.62965 z m 51.1669,3.64343 c -0.4797,0.38467 -0.9502,0.80264 -1.4095,1.24973 0.4591,-0.44701 0.9299,-0.86506 1.4095,-1.24973 z m -46.1853,3.94803 c -0.3334,0.1163 -0.7998,0.26393 -1.3821,0.40124 0.5741,-0.13541 1.0493,-0.28557 1.3821,-0.40124 z m -14.6492,3.38415 c -0.3005,0.1687 -0.5767,0.35657 -0.8286,0.56655 0.252,-0.20989 0.5281,-0.39785 0.8286,-0.56655 z m -1.1893,0.89921 c 0,-6e-5 0,1.6e-4 0,0 -0.1139,0.11702 -0.2215,0.24028 -0.3231,0.3704 -0.8125,1.04094 -1.1535,2.38836 -1.317,4.15997 -0.1634,1.77153 -0.1528,4.01848 -0.1528,7.01323 0,2.99128 -0.011,5.2361 0.1528,7.00638 0.1018,1.10611 0.2724,2.04724 0.5831,2.85128 -0.3109,-0.8043 -0.4819,-1.74485 -0.5837,-2.85128 -0.1628,-1.77028 -0.153,-4.0151 -0.153,-7.00638 0,-2.99475 -0.011,-5.2417 0.153,-7.01323 0.1634,-1.77161 0.5045,-3.11903 1.3169,-4.15997 0.1019,-0.13012 0.2092,-0.25338 0.323,-0.3704 z m 102.8666,7.94127 c 0.3053,3.07817 0.1541,6.93425 -0.4533,9.23761 0,2.5e-4 0,0 0,0 0.6076,-2.30351 0.7595,-6.16002 0.4541,-9.23832 z m -103.7185,13.92704 c 0.1477,0.30032 0.3202,0.57926 0.5219,0.83956 0.1008,0.13013 0.2079,0.25331 0.321,0.37041 -0.1133,-0.11726 -0.2206,-0.24012 -0.3217,-0.37041 -0.2015,-0.26006 -0.3735,-0.53955 -0.5212,-0.83956 z m 17.3071,5.63395 c 0.1436,0.0743 0.2812,0.15569 0.4134,0.24414 -0.1323,-0.0885 -0.2697,-0.16965 -0.4134,-0.24414 z m 0.7956,0.53365 c 0.1222,0.10494 0.2396,0.2192 0.3525,0.34293 -0.1129,-0.12373 -0.2303,-0.2379 -0.3525,-0.34293 z m 0.6791,0.74488 c 0.4194,0.57941 0.7775,1.33653 1.1077,2.34708 0.3597,1.10131 1.4363,3.75983 2.4486,6.08182 0.4972,1.14059 0.9718,2.29721 1.3321,3.23194 0.3601,0.93473 0.6176,1.75496 0.6281,1.81281 0.059,0.32928 0.077,0.62461 0.013,0.97396 -0.064,0.34931 -0.2111,0.7526 -0.4781,1.29839 -0.534,1.09168 -1.5696,2.66216 -3.2999,5.06393 -1.7941,2.49045 -3.4999,4.91486 -3.9438,5.64286 -0.063,0.10471 -0.1235,0.21249 -0.1784,0.32304 -0.3842,0.77415 -0.5533,1.68284 -0.5822,2.59746 -0.024,0.78393 0.053,1.57032 0.2866,2.28064 0.078,0.23672 0.173,0.46468 0.2874,0.68175 0.2024,0.38427 0.4095,0.57965 0.7875,1.00961 0.3779,0.42998 0.8808,0.97703 1.4788,1.6105 1.1956,1.26709 2.7694,2.87686 4.4398,4.53169 -3e-4,-1.5e-4 0,1.5e-4 0,0 -1.6704,-1.65483 -3.2443,-3.2646 -4.4399,-4.53169 -0.5979,-0.63347 -1.1008,-1.18052 -1.4787,-1.6105 -0.378,-0.42996 -0.5851,-0.62534 -0.7875,-1.00961 -0.1142,-0.21675 -0.2089,-0.44527 -0.2868,-0.68175 -0.2337,-0.71048 -0.3123,-1.49639 -0.2872,-2.28064 0.029,-0.91462 0.1987,-1.82331 0.5828,-2.59746 0.055,-0.11055 0.1138,-0.21833 0.1778,-0.32304 0.4439,-0.728 2.1496,-3.15241 3.9438,-5.64286 1.7303,-2.40177 2.7659,-3.97225 3.2999,-5.06393 0.267,-0.54579 0.414,-0.94908 0.4787,-1.29839 0.065,-0.34935 0.048,-0.64468 -0.013,-0.97396 -0.011,-0.0575 -0.268,-0.87808 -0.6285,-1.81281 -0.36,-0.93473 -0.8346,-2.09135 -1.3318,-3.23194 -1.0125,-2.32199 -2.0889,-4.98051 -2.4488,-6.08182 -0.3298,-1.01009 -0.6878,-1.76776 -1.1069,-2.34708 z m 35.4167,5.56324 c 1.2281,1.33187 2.5499,2.5479 3.9487,3.62427 -1.399,-1.07652 -2.7203,-2.29217 -3.9487,-3.62427 z m -39.5417,8.17718 c -0.012,0.0576 -0.031,0.12492 -0.061,0.20517 0.031,-0.0803 0.052,-0.14732 0.061,-0.20517 z m 47.5028,29.42341 c 0.2581,0.23711 0.4592,0.47068 0.5961,0.69209 0.041,0.0655 0.1407,0.3135 0.2681,0.7044 0.1278,0.39161 0.2832,0.92708 0.4343,1.57072 0.3018,1.28619 0.6476,3.05897 1.0315,5.30331 0.5855,3.42282 0.982,5.46517 1.4672,6.8754 0.3638,1.05766 0.8428,1.7904 1.4279,2.33209 -0.5852,-0.54169 -1.0649,-1.2742 -1.4286,-2.33209 -0.4851,-1.41023 -0.8817,-3.45258 -1.4672,-6.8754 -0.3839,-2.24434 -0.7296,-4.01712 -1.0316,-5.30331 -0.1509,-0.64309 -0.3058,-1.1792 -0.4335,-1.57072 -0.1277,-0.39146 -0.2281,-0.63844 -0.2688,-0.7044 -0.1368,-0.22118 -0.3376,-0.45521 -0.5954,-0.69209 z" /></g></g><pattern
     id="b-2"
     width="41"
     height="41"
     patternUnits="userSpaceOnUse"><circle
       fill="#ffffff"
       cx="20.5"
       cy="20.5"
       r="20.5"
       id="circle2" /></pattern></svg>
