<?xml version="1.0" encoding="UTF-8" standalone="no"?>
<!-- Created with Inkscape (http://www.inkscape.org/) -->

<svg
   version="1.1"
   id="svg1"
   width="171.32666"
   height="180.95073"
   viewBox="0 0 171.32666 180.95073"
   sodipodi:docname="Linotte app main inkscape.ai"
   inkscape:version="1.4.2 (ebf0e940, 2025-05-08)"
   xml:space="preserve"
   inkscape:export-batch-path="/Users/giannipie/Documents/Repositories/linotte-web/resources/images/dice"
   inkscape:export-batch-name="rere"
   inkscape:export-filename="/Users/giannipie/Documents/Repositories/linotte-web/resources/images/volume.svg"
   inkscape:export-xdpi="96"
   inkscape:export-ydpi="96"
   xmlns:inkscape="http://www.inkscape.org/namespaces/inkscape"
   xmlns:sodipodi="http://sodipodi.sourceforge.net/DTD/sodipodi-0.dtd"
   xmlns="http://www.w3.org/2000/svg"
   xmlns:svg="http://www.w3.org/2000/svg"><defs
     id="defs1" /><sodipodi:namedview
     id="namedview1"
     pagecolor="#ffffff"
     bordercolor="#000000"
     borderopacity="0.25"
     inkscape:showpageshadow="2"
     inkscape:pageopacity="0.0"
     inkscape:pagecheckerboard="0"
     inkscape:deskcolor="#d1d1d1"
     showgrid="false"
     inkscape:zoom="0.96441329"
     inkscape:cx="2760.2274"
     inkscape:cy="523.63442"
     inkscape:window-width="1472"
     inkscape:window-height="844"
     inkscape:window-x="0"
     inkscape:window-y="33"
     inkscape:window-maximized="0"
     inkscape:current-layer="g3010"><inkscape:page
       x="0"
       y="0"
       width="171.32666"
       height="180.95073"
       id="page2"
       margin="0"
       bleed="0" /></sodipodi:namedview><g
     id="layer-MC0"
     inkscape:groupmode="layer"
     inkscape:label="Livello 1"
     transform="translate(-5195.4901,-85.424423)"><g
       id="g180"><path
         style="opacity:0.5;mix-blend-mode:normal;fill:#000000;stroke-width:0.403948"
         d="m 5213.7758,265.56683 c -8.6173,-2.25673 -15.8227,-9.7658 -17.6196,-18.36183 -0.8847,-4.23287 -0.8875,-138.36558 -0.011,-142.54101 1.9226,-9.07428 9.5633,-16.71506 18.6377,-18.63763 2.343,-0.4964 10.5783,-0.58911 52.8661,-0.59495 l 50.0906,-0.007 24.5386,24.54096 24.5385,24.54104 -0.011,54.93553 c -0.011,60.92852 0.1241,57.82708 -2.6975,63.56818 -1.1081,2.25508 -2.3299,3.89554 -4.5552,6.11543 -3.5041,3.49589 -6.6385,5.31303 -11.1584,6.46902 -3.0449,0.77873 -4.6699,0.79742 -67.384,0.77573 -62.1942,-0.0213 -64.36,-0.0473 -67.2467,-0.80335 z m 133.7381,-12.42884 c 2.4205,-1.19228 4.8641,-3.6357 6.0564,-6.05617 l 0.9339,-1.89652 0.1077,-46.35291 0.1077,-46.35293 h -17.6793 c -10.3938,0 -18.7614,-0.17786 -20.3051,-0.4272 -8.5295,-1.37773 -14.2106,-5.50296 -16.2615,-11.80802 -0.7606,-2.33832 -0.8282,-3.84954 -1.0107,-22.60956 l -0.1958,-20.103781 -41.2544,0.10842 -41.2545,0.10832 -1.8963,0.93419 c -2.4207,1.19228 -4.8641,3.635621 -6.0562,6.056161 l -0.9342,1.89653 -0.1237,68.06499 c -0.089,48.53691 0.011,68.66075 0.3221,70.14143 0.8094,3.77087 4.4163,7.66493 8.2008,8.85342 1.3828,0.4343 13.5924,0.51943 65.5229,0.45719 l 63.8236,-0.0766 z M 5241.156,217.80985 c -3.8122,-2.54664 -3.5605,-7.80735 0.4873,-10.19161 1.3457,-0.79261 2.0981,-0.80791 39.7782,-0.80791 h 38.4063 l 1.5262,1.16411 c 3.5656,2.71968 3.4165,7.6972 -0.2983,9.96221 -1.2557,0.76564 -2.3434,0.78718 -39.9092,0.78861 h -38.6181 z m 1.4972,-29.79441 c -3.805,-1.15204 -5.4675,-6.34395 -3.0255,-9.44846 1.8648,-2.37067 -0.2811,-2.2546 41.6825,-2.2546 h 38.5371 l 1.3727,0.9169 c 3.689,2.4645 3.5949,7.33557 -0.1967,10.16667 -1.1063,0.82622 -1.4203,0.83341 -39.1579,0.90323 -20.9234,0.0387 -38.5688,-0.0891 -39.2122,-0.28374 z m 90.6424,-68.86313 -21.2057,-21.208811 -0.1058,16.243201 c -0.124,19.07018 -0.1479,18.9164 3.505,22.56924 3.5908,3.5908 3.2483,3.53628 22.4518,3.57329 l 16.5604,0.0323 z"
         id="path62-1" /></g></g><pattern
     id="b-2"
     width="41"
     height="41"
     patternUnits="userSpaceOnUse"><circle
       fill="#ffffff"
       cx="20.5"
       cy="20.5"
       r="20.5"
       id="circle2" /></pattern></svg>
