<?xml version="1.0" encoding="UTF-8" standalone="no"?>
<!-- Created with Inkscape (http://www.inkscape.org/) -->

<svg
   version="1.1"
   id="svg1"
   width="531.00195"
   height="94.512558"
   viewBox="0 0 531.00195 94.512558"
   sodipodi:docname="Linotte app main inkscape.ai"
   inkscape:version="1.4.2 (ebf0e940, 2025-05-08)"
   xml:space="preserve"
   xmlns:inkscape="http://www.inkscape.org/namespaces/inkscape"
   xmlns:sodipodi="http://sodipodi.sourceforge.net/DTD/sodipodi-0.dtd"
   xmlns="http://www.w3.org/2000/svg"
   xmlns:svg="http://www.w3.org/2000/svg"><defs
     id="defs1" /><sodipodi:namedview
     id="namedview1"
     pagecolor="#ffffff"
     bordercolor="#000000"
     borderopacity="0.25"
     inkscape:showpageshadow="2"
     inkscape:pageopacity="0.0"
     inkscape:pagecheckerboard="0"
     inkscape:deskcolor="#d1d1d1"
     showgrid="false"
     inkscape:zoom="0.33390004"
     inkscape:cx="6370.17"
     inkscape:cy="1737.0468"
     inkscape:window-width="1472"
     inkscape:window-height="844"
     inkscape:window-x="0"
     inkscape:window-y="33"
     inkscape:window-maximized="0"
     inkscape:current-layer="g11898"><inkscape:page
       x="0"
       y="0"
       width="531.00195"
       height="94.512558"
       id="page2"
       margin="0"
       bleed="0" /></sodipodi:namedview><g
     id="layer-MC0"
     inkscape:groupmode="layer"
     inkscape:label="Livello 1"
     transform="translate(-5481.4354,393.91827)"><path
       style="font-size:144.294px;font-family:'Changa One';-inkscape-font-specification:'Changa One';fill-opacity:0.498233;stroke:#b2a918;stroke-width:0;stroke-linecap:round;stroke-linejoin:round;stroke-miterlimit:1.4;paint-order:markers stroke fill"
       d="m 5529.0522,-323.35853 h -18.7582 v 21.7884 h -28.8588 v -90.18375 h 45.4526 q 31.0232,0 31.0232,33.33191 0,18.32534 -8.0804,27.12727 -3.0302,3.31877 -8.3691,5.62747 -5.3389,2.3087 -12.4093,2.3087 z m -18.7582,-45.30831 v 22.22127 h 6.6375 q 5.1946,0 7.5033,-1.01005 2.453,-1.15436 2.453,-5.05029 v -10.10058 q 0,-3.89594 -2.453,-4.906 -2.3087,-1.15435 -7.5033,-1.15435 z m 113.9923,33.04332 h -28.8588 v 10.96635 h 35.352 v 23.08704 h -64.2108 v -90.18375 h 63.4894 l -3.6074,23.08704 h -31.0232 v 12.12069 h 28.8588 z m 97.3985,34.05339 h -31.7446 l -11.8321,-26.83869 h -6.2047 v 26.83869 h -28.8588 v -90.18375 h 45.4526 q 31.0232,0 31.0232,31.60038 0,21.6441 -13.4193,28.57022 z m -49.7814,-67.09671 v 18.03675 h 6.6375 q 5.1946,0 7.5033,-1.01006 2.453,-1.15435 2.453,-5.05029 v -5.91605 q 0,-3.89594 -2.453,-4.906 -2.3087,-1.15435 -7.5033,-1.15435 z m 113.2708,33.6205 h -24.53 v 33.47621 h -28.8588 v -90.18375 h 59.1605 l -3.6073,23.08704 h -26.6944 v 12.12069 h 24.53 z m 72.1469,-0.57718 h -28.8588 v 10.96635 h 35.352 v 23.08704 h -64.2108 v -90.18375 h 63.4893 l -3.6073,23.08704 h -31.0232 v 12.12069 h 28.8588 z m 78.6403,8.22476 2.1644,24.2414 q -9.0905,3.75164 -22.7984,3.75164 -13.708,0 -22.077,-2.88588 -8.2248,-2.88588 -12.9865,-9.09052 -4.7617,-6.20464 -6.6375,-14.5737 -1.8758,-8.36905 -1.8758,-20.63404 0,-12.26499 1.8758,-20.63404 1.8758,-8.51335 6.6375,-14.71799 9.2348,-11.9764 33.9091,-11.9764 5.4832,0 12.8422,1.15435 7.5033,1.01006 11.1106,2.59729 l -4.3288,22.07698 q -9.3791,-2.02011 -17.171,-2.02011 -7.7919,0 -10.822,1.44294 -3.0302,1.44294 -3.0302,5.77176 v 37.80503 q 5.6275,1.15435 11.3992,1.15435 12.265,0 21.7884,-3.46306 z m 76.4758,-41.26808 h -20.9226 v 67.09671 h -28.8588 v -67.09671 h -20.9226 v -23.08704 h 70.704 z"
       id="text11848-0"
       aria-label="PERFECT"
       inkscape:export-filename="text11848-0.svg"
       inkscape:export-xdpi="96"
       inkscape:export-ydpi="96" /></g><pattern
     id="b-2"
     width="41"
     height="41"
     patternUnits="userSpaceOnUse"><circle
       fill="#ffffff"
       cx="20.5"
       cy="20.5"
       r="20.5"
       id="circle2" /></pattern></svg>
