<?xml version="1.0" encoding="UTF-8" standalone="no"?>
<!-- Created with Inkscape (http://www.inkscape.org/) -->

<svg
   version="1.1"
   id="svg1"
   width="288.58838"
   height="90.183746"
   viewBox="0 0 288.58838 90.183746"
   sodipodi:docname="Linotte app main inkscape.ai"
   inkscape:version="1.4.2 (ebf0e940, 2025-05-08)"
   xml:space="preserve"
   xmlns:inkscape="http://www.inkscape.org/namespaces/inkscape"
   xmlns:sodipodi="http://sodipodi.sourceforge.net/DTD/sodipodi-0.dtd"
   xmlns="http://www.w3.org/2000/svg"
   xmlns:svg="http://www.w3.org/2000/svg"><defs
     id="defs1" /><sodipodi:namedview
     id="namedview1"
     pagecolor="#ffffff"
     bordercolor="#000000"
     borderopacity="0.25"
     inkscape:showpageshadow="2"
     inkscape:pageopacity="0.0"
     inkscape:pagecheckerboard="0"
     inkscape:deskcolor="#d1d1d1"
     showgrid="false"
     inkscape:zoom="0.33390004"
     inkscape:cx="6370.17"
     inkscape:cy="1737.0468"
     inkscape:window-width="1472"
     inkscape:window-height="844"
     inkscape:window-x="0"
     inkscape:window-y="33"
     inkscape:window-maximized="0"
     inkscape:current-layer="g11898"><inkscape:page
       x="0"
       y="0"
       width="288.58838"
       height="90.183746"
       id="page2"
       margin="0"
       bleed="0" /></sodipodi:namedview><g
     id="layer-MC0"
     inkscape:groupmode="layer"
     inkscape:label="Livello 1"
     transform="translate(-5481.4349,515.42273)"><path
       style="font-size:144.294px;font-family:'Changa One';-inkscape-font-specification:'Changa One';fill-opacity:0.501767;stroke:#b2a918;stroke-width:0;stroke-linecap:round;stroke-linejoin:round;stroke-miterlimit:1.4;paint-order:markers stroke fill"
       d="m 5552.1392,-492.33569 h -20.9226 v 67.09671 h -28.8588 v -67.09671 h -20.9227 v -23.08704 h 70.7041 z m 7.9362,67.09671 v -90.18375 h 28.8588 v 90.18375 z m 43.2881,0 v -90.18375 h 40.4023 q 24.3857,0 33.4762,10.38917 9.0905,10.38917 9.0905,34.77485 0,24.2414 -9.0905,34.63057 -9.0905,10.38916 -33.4762,10.38916 z m 40.8352,-67.09671 h -11.9764 v 44.00967 h 11.9764 q 5.916,0 8.5133,-1.29864 2.7416,-1.44294 2.7416,-6.34894 v -28.71451 q 0,-4.90599 -2.7416,-6.20464 -2.5973,-1.44294 -8.5133,-1.44294 z m 76.9087,-23.08704 7.9362,31.74468 h 1.0101 l 8.0804,-31.74468 h 31.889 l -25.9729,65.65377 v 24.52998 h -28.8588 v -24.52998 l -25.9729,-65.65377 z"
       id="text50-9-9"
       aria-label="TIDY"
       inkscape:export-filename="text50-9-9.svg"
       inkscape:export-xdpi="96"
       inkscape:export-ydpi="96" /></g><pattern
     id="b-2"
     width="41"
     height="41"
     patternUnits="userSpaceOnUse"><circle
       fill="#ffffff"
       cx="20.5"
       cy="20.5"
       r="20.5"
       id="circle2" /></pattern></svg>
