<?xml version="1.0" encoding="UTF-8" standalone="no"?>
<!-- Created with Inkscape (http://www.inkscape.org/) -->

<svg
   version="1.1"
   id="svg1"
   width="571.40381"
   height="92.348145"
   viewBox="0 0 571.40381 92.348145"
   sodipodi:docname="Linotte app main inkscape.ai"
   inkscape:version="1.4.2 (ebf0e940, 2025-05-08)"
   xml:space="preserve"
   xmlns:inkscape="http://www.inkscape.org/namespaces/inkscape"
   xmlns:sodipodi="http://sodipodi.sourceforge.net/DTD/sodipodi-0.dtd"
   xmlns="http://www.w3.org/2000/svg"
   xmlns:svg="http://www.w3.org/2000/svg"><defs
     id="defs1" /><sodipodi:namedview
     id="namedview1"
     pagecolor="#ffffff"
     bordercolor="#000000"
     borderopacity="0.25"
     inkscape:showpageshadow="2"
     inkscape:pageopacity="0.0"
     inkscape:pagecheckerboard="0"
     inkscape:deskcolor="#d1d1d1"
     showgrid="false"
     inkscape:zoom="0.33390004"
     inkscape:cx="6370.17"
     inkscape:cy="1737.0468"
     inkscape:window-width="1472"
     inkscape:window-height="844"
     inkscape:window-x="0"
     inkscape:window-y="33"
     inkscape:window-maximized="0"
     inkscape:current-layer="g11898"><inkscape:page
       x="0"
       y="0"
       width="571.40381"
       height="92.348145"
       id="page2"
       margin="0"
       bleed="0" /></sodipodi:namedview><g
     id="layer-MC0"
     inkscape:groupmode="layer"
     inkscape:label="Livello 1"
     transform="translate(-5481.4354,640.29797)"><path
       style="font-size:144.294px;font-family:'Changa One';-inkscape-font-specification:'Changa One';fill-opacity:0.5;stroke:#b2a918;stroke-width:0;stroke-linecap:round;stroke-linejoin:round;stroke-miterlimit:1.4;paint-order:markers stroke fill"
       d="m 5534.3911,-550.11421 -22.077,-32.03326 q -1.1543,-1.58724 -1.4429,-6.92612 h -0.5772 v 38.95938 h -28.8588 v -90.18375 h 27.1273 l 22.077,32.03327 q 1.1543,1.58723 1.4429,6.92611 h 0.5772 v -38.95938 h 28.8588 v 90.18375 z m 63.0566,0 h -30.446 l 23.3756,-90.18375 h 44.5868 l 23.3757,90.18375 h -30.4461 l -3.3187,-14.2851 h -23.8086 z m 14.4294,-62.4793 -5.9161,25.25145 h 13.2751 l -5.7718,-25.25145 z m 111.1063,-4.61741 h -20.9226 v 67.09671 h -28.8588 v -67.09671 h -20.9227 v -23.08704 h 70.7041 z m 34.6305,-23.08704 v 67.67389 h 10.2449 q 5.4832,0 7.5033,-1.29865 2.0201,-1.44294 2.0201,-6.34893 v -60.02631 h 28.8588 v 50.6472 q 0,12.26499 -1.5872,19.76828 -1.5872,7.50328 -5.9161,12.69787 -4.3288,5.19458 -11.8321,7.2147 -7.5033,2.02011 -19.4797,2.02011 -11.9764,0 -19.4797,-2.02011 -7.3589,-2.02012 -11.6878,-7.2147 -4.3288,-5.19459 -5.916,-12.69787 -1.5873,-7.50329 -1.5873,-19.76828 v -50.6472 z m 139.5324,90.18375 h -31.7447 l -11.8321,-26.83868 h -6.2046 v 26.83868 h -28.8588 v -90.18375 h 45.4526 q 31.0232,0 31.0232,31.60039 0,21.6441 -13.4193,28.57021 z m -49.7814,-67.09671 v 18.03675 h 6.6375 q 5.1946,0 7.5033,-1.01006 2.453,-1.15435 2.453,-5.05029 v -5.91605 q 0,-3.89594 -2.453,-4.906 -2.3087,-1.15435 -7.5033,-1.15435 z m 81.3818,67.09671 h -30.4461 l 23.3757,-90.18375 h 44.5868 l 23.3756,90.18375 h -30.446 l -3.3188,-14.2851 h -23.8085 z m 14.4294,-62.4793 -5.9161,25.25145 h 13.2751 l -5.7718,-25.25145 z m 109.6633,62.4793 h -57.7176 v -90.18375 h 28.8588 v 67.09671 h 28.8588 z"
       id="text50-9-4-1"
       aria-label="NATURAL"
       inkscape:export-filename="text50-9-4-1.svg"
       inkscape:export-xdpi="96"
       inkscape:export-ydpi="96" /></g><pattern
     id="b-2"
     width="41"
     height="41"
     patternUnits="userSpaceOnUse"><circle
       fill="#ffffff"
       cx="20.5"
       cy="20.5"
       r="20.5"
       id="circle2" /></pattern></svg>
