<?xml version="1.0" encoding="UTF-8" standalone="no"?>
<!-- Created with Inkscape (http://www.inkscape.org/) -->

<svg
   version="1.1"
   id="svg1"
   width="222.40521"
   height="222.40527"
   viewBox="0 0 222.40521 222.40527"
   sodipodi:docname="Linotte app main inkscape.ai"
   inkscape:version="1.4.2 (ebf0e940, 2025-05-08)"
   xml:space="preserve"
   xmlns:inkscape="http://www.inkscape.org/namespaces/inkscape"
   xmlns:sodipodi="http://sodipodi.sourceforge.net/DTD/sodipodi-0.dtd"
   xmlns="http://www.w3.org/2000/svg"
   xmlns:svg="http://www.w3.org/2000/svg"><defs
     id="defs1" /><sodipodi:namedview
     id="namedview1"
     pagecolor="#ffffff"
     bordercolor="#000000"
     borderopacity="0.25"
     inkscape:showpageshadow="2"
     inkscape:pageopacity="0.0"
     inkscape:pagecheckerboard="0"
     inkscape:deskcolor="#d1d1d1"
     showgrid="false"
     inkscape:zoom="0.33390004"
     inkscape:cx="6370.17"
     inkscape:cy="1737.0468"
     inkscape:window-width="1472"
     inkscape:window-height="844"
     inkscape:window-x="0"
     inkscape:window-y="33"
     inkscape:window-maximized="0"
     inkscape:current-layer="g11898"><inkscape:page
       x="0"
       y="0"
       width="222.40521"
       height="222.40527"
       id="page2"
       margin="0"
       bleed="0" /></sodipodi:namedview><g
     id="layer-MC0"
     inkscape:groupmode="layer"
     inkscape:label="Livello 1"
     transform="translate(503.6316,-1603.0825)"><g
       id="g27"><rect
         style="fill:#ffffff;fill-opacity:1;stroke:#000000;stroke-width:33.6356;stroke-linecap:round;stroke-miterlimit:1.4;stroke-dasharray:none;stroke-opacity:1;paint-order:markers stroke fill"
         id="rect10471-2-4-6"
         width="188.76961"
         height="188.76961"
         x="-486.81393"
         y="1619.9003"
         ry="26.602039" /><g
         id="g20"
         transform="translate(1899.0393,-1044.6163)"
         style="fill:#d30000;fill-opacity:1"><path
           style="fill:#d30000;fill-opacity:1"
           d="m -2322.488,2738.6615 c -13.0601,-3.8849 -10.228,-8.9945 6,-10.8251 11.0456,-1.246 33.2122,-5.4228 37.5675,-7.0787 8.0352,-3.055 23.1316,3.1556 21.0236,8.649 -1.7645,4.598 -54.7324,12.1874 -64.5911,9.2548 z"
           id="path4184" /><path
           style="fill:#d30000;fill-opacity:1"
           d="m -2352.9623,2800.2201 c -15.6392,-8.1548 -14.4446,-11.4247 4.7715,-13.061 7.2616,-0.6183 35.0088,-3.0475 61.6606,-5.3982 53.3748,-4.7077 54.0834,-4.6595 61.5256,4.1851 5.5229,6.5636 3.4248,7.3773 -18.1863,7.0534 -33.087,-0.4958 -81.3759,3.3965 -96.2905,7.7616 -4.9806,1.4576 -10.0373,1.2548 -13.4809,-0.5409 z"
           id="path4183" /></g></g></g><pattern
     id="b-2"
     width="41"
     height="41"
     patternUnits="userSpaceOnUse"><circle
       fill="#ffffff"
       cx="20.5"
       cy="20.5"
       r="20.5"
       id="circle2" /></pattern></svg>
