<?xml version="1.0" encoding="UTF-8" standalone="no"?>
<!-- Created with Inkscape (http://www.inkscape.org/) -->

<svg
   version="1.1"
   id="svg1"
   width="222.40521"
   height="222.40527"
   viewBox="0 0 222.40521 222.40527"
   sodipodi:docname="Linotte app main inkscape.ai"
   inkscape:version="1.4.2 (ebf0e940, 2025-05-08)"
   xml:space="preserve"
   xmlns:inkscape="http://www.inkscape.org/namespaces/inkscape"
   xmlns:sodipodi="http://sodipodi.sourceforge.net/DTD/sodipodi-0.dtd"
   xmlns="http://www.w3.org/2000/svg"
   xmlns:svg="http://www.w3.org/2000/svg"><defs
     id="defs1" /><sodipodi:namedview
     id="namedview1"
     pagecolor="#ffffff"
     bordercolor="#000000"
     borderopacity="0.25"
     inkscape:showpageshadow="2"
     inkscape:pageopacity="0.0"
     inkscape:pagecheckerboard="0"
     inkscape:deskcolor="#d1d1d1"
     showgrid="false"
     inkscape:zoom="0.33390004"
     inkscape:cx="6370.17"
     inkscape:cy="1737.0468"
     inkscape:window-width="1472"
     inkscape:window-height="844"
     inkscape:window-x="0"
     inkscape:window-y="33"
     inkscape:window-maximized="0"
     inkscape:current-layer="g11898"><inkscape:page
       x="0"
       y="0"
       width="222.40521"
       height="222.40527"
       id="page2"
       margin="0"
       bleed="0" /></sodipodi:namedview><g
     id="layer-MC0"
     inkscape:groupmode="layer"
     inkscape:label="Livello 1"
     transform="translate(762.49733,-1603.0825)"><g
       id="g26"><rect
         style="fill:#ffffff;fill-opacity:1;stroke:#000000;stroke-width:33.6356;stroke-linecap:round;stroke-miterlimit:1.4;stroke-dasharray:none;stroke-opacity:1;paint-order:markers stroke fill"
         id="rect10471-2-3"
         width="188.76961"
         height="188.76961"
         x="-745.6795"
         y="1619.9003"
         ry="26.602039" /><path
         style="fill:#d30000;fill-opacity:1"
         d="m -703.36783,1723.4398 c -13.4876,-5.1195 -13.889,-12.6129 -0.7335,-13.6939 4.5284,-0.372 15.2085,-1.5495 23.7335,-2.6165 8.525,-1.0671 26.075,-3.064 39,-4.4376 12.925,-1.3737 25.8041,-2.8772 28.6202,-3.3413 9.2009,-1.5161 21.3337,3.8276 22.2145,9.784 0.6359,4.3006 -0.6538,4.5261 -26.6347,4.6571 -33.2763,0.1677 -56.9376,2.8201 -75.0553,8.4134 -6.5078,2.0091 -8.518,2.2319 -11.1447,1.2348 z"
         id="path4180" /></g></g><pattern
     id="b-2"
     width="41"
     height="41"
     patternUnits="userSpaceOnUse"><circle
       fill="#ffffff"
       cx="20.5"
       cy="20.5"
       r="20.5"
       id="circle2" /></pattern></svg>
