<?xml version="1.0" encoding="UTF-8" standalone="no"?>
<!-- Created with Inkscape (http://www.inkscape.org/) -->

<svg
   version="1.1"
   id="svg1"
   width="222.40515"
   height="222.40527"
   viewBox="0 0 222.40515 222.40527"
   sodipodi:docname="Linotte app main inkscape.ai"
   inkscape:version="1.4.2 (ebf0e940, 2025-05-08)"
   xml:space="preserve"
   xmlns:inkscape="http://www.inkscape.org/namespaces/inkscape"
   xmlns:sodipodi="http://sodipodi.sourceforge.net/DTD/sodipodi-0.dtd"
   xmlns="http://www.w3.org/2000/svg"
   xmlns:svg="http://www.w3.org/2000/svg"><defs
     id="defs1" /><sodipodi:namedview
     id="namedview1"
     pagecolor="#ffffff"
     bordercolor="#000000"
     borderopacity="0.25"
     inkscape:showpageshadow="2"
     inkscape:pageopacity="0.0"
     inkscape:pagecheckerboard="0"
     inkscape:deskcolor="#d1d1d1"
     showgrid="false"
     inkscape:zoom="0.33390004"
     inkscape:cx="6370.17"
     inkscape:cy="1737.0468"
     inkscape:window-width="1472"
     inkscape:window-height="844"
     inkscape:window-x="0"
     inkscape:window-y="33"
     inkscape:window-maximized="0"
     inkscape:current-layer="g11898"><inkscape:page
       x="0"
       y="0"
       width="222.40515"
       height="222.40527"
       id="page2"
       margin="0"
       bleed="0" /></sodipodi:namedview><g
     id="layer-MC0"
     inkscape:groupmode="layer"
     inkscape:label="Livello 1"
     transform="translate(-531.82986,-1603.0825)"><g
       id="g31"><rect
         style="fill:#ffffff;fill-opacity:1;stroke:#000000;stroke-width:33.6356;stroke-linecap:round;stroke-miterlimit:1.4;stroke-dasharray:none;stroke-opacity:1;paint-order:markers stroke fill"
         id="rect10471-2-4-7-4-3-2"
         width="188.76961"
         height="188.76961"
         x="548.64783"
         y="1619.9003"
         ry="26.602039" /><g
         id="g18"
         transform="translate(3171.8012,-1425.7332)"
         style="fill:#d30000;fill-opacity:1"><path
           style="fill:#d30000;fill-opacity:1"
           d="m -2587.6672,3129.9114 c -8.6465,-5.5322 -8.1893,-10.1278 1.0076,-10.1278 2.5773,0 12.5576,-1.0901 22.1786,-2.4223 9.621,-1.3323 20.2744,-2.7229 23.6742,-3.0903 6.1815,-0.6679 6.1815,-0.6679 2.8703,-6.8277 -10.3972,-19.3418 -10.3459,-26.9764 0.1511,-22.4549 10.1611,4.3767 15.7,11.7727 15.7599,21.044 0.044,6.7521 -1.6561,6.3439 17.5372,4.2116 26.9158,-2.9903 25.8627,-2.998 31.9873,0.2346 13.2067,6.9707 10.6936,11.305 -6.5549,11.305 -33.8209,0 -68.5468,3.121 -85.4324,7.6783 -14.6379,3.9507 -17.6165,4.0085 -23.1789,0.4495 z"
           id="path4140" /><path
           style="fill:#d30000;fill-opacity:1"
           d="m -2589.1313,3191.2716 c -0.3662,-0.9544 1.5815,-3.921 5.2814,-8.0442 14.6328,-16.3067 22.7216,-28.5892 23.9702,-36.3975 1.0806,-6.7577 5.8866,-6.955 15.4387,-0.6337 5.8873,3.896 5.3552,5.2649 -7.2973,18.7708 -17.4043,18.5783 -35.4787,31.293 -37.393,26.3046 z"
           id="path4139" /><path
           style="fill:#d30000;fill-opacity:1"
           d="m -2488.6719,3192.1953 c -3.0065,-1.5752 -10.8452,-11.9386 -19.4261,-25.6829 -3.169,-5.0759 -7.4782,-11.4251 -9.5761,-14.1095 -11.8664,-15.184 12.2869,-6.0786 27.5195,10.3744 12.0682,13.0351 13.2034,35.5592 1.4827,29.418 z"
           id="path4138" /></g></g></g><pattern
     id="b-2"
     width="41"
     height="41"
     patternUnits="userSpaceOnUse"><circle
       fill="#ffffff"
       cx="20.5"
       cy="20.5"
       r="20.5"
       id="circle2" /></pattern></svg>
