<?xml version="1.0" encoding="UTF-8" standalone="no"?>
<!-- Created with Inkscape (http://www.inkscape.org/) -->

<svg
   version="1.1"
   id="svg1"
   width="222.40515"
   height="222.40527"
   viewBox="0 0 222.40515 222.40527"
   sodipodi:docname="Linotte app main inkscape.ai"
   inkscape:version="1.4.2 (ebf0e940, 2025-05-08)"
   xml:space="preserve"
   xmlns:inkscape="http://www.inkscape.org/namespaces/inkscape"
   xmlns:sodipodi="http://sodipodi.sourceforge.net/DTD/sodipodi-0.dtd"
   xmlns="http://www.w3.org/2000/svg"
   xmlns:svg="http://www.w3.org/2000/svg"><defs
     id="defs1" /><sodipodi:namedview
     id="namedview1"
     pagecolor="#ffffff"
     bordercolor="#000000"
     borderopacity="0.25"
     inkscape:showpageshadow="2"
     inkscape:pageopacity="0.0"
     inkscape:pagecheckerboard="0"
     inkscape:deskcolor="#d1d1d1"
     showgrid="false"
     inkscape:zoom="0.33390004"
     inkscape:cx="6370.17"
     inkscape:cy="1737.0468"
     inkscape:window-width="1472"
     inkscape:window-height="844"
     inkscape:window-x="0"
     inkscape:window-y="33"
     inkscape:window-maximized="0"
     inkscape:current-layer="g11898"><inkscape:page
       x="0"
       y="0"
       width="222.40515"
       height="222.40527"
       id="page2"
       margin="0"
       bleed="0" /></sodipodi:namedview><g
     id="layer-MC0"
     inkscape:groupmode="layer"
     inkscape:label="Livello 1"
     transform="translate(-272.96463,-1603.0825)"><g
       id="g30"><rect
         style="fill:#ffffff;fill-opacity:1;stroke:#000000;stroke-width:33.6356;stroke-linecap:round;stroke-miterlimit:1.4;stroke-dasharray:none;stroke-opacity:1;paint-order:markers stroke fill"
         id="rect10471-2-4-7-4-9-3"
         width="188.76961"
         height="188.76961"
         x="289.78241"
         y="1619.9003"
         ry="26.602039" /><path
         id="path4197"
         style="fill:#d30000;fill-opacity:1"
         d="m 409.0036,1663.8416 c -2.1157,0.051 -4.4033,0.2999 -6.8574,0.7461 -4.5821,0.8332 -12.8301,1.9953 -18.3301,2.584 -52.7549,5.6467 -57.3254,6.9629 -45.373,13.0606 4.5081,2.2999 5.5102,2.297 21.2519,-0.039 10.3276,-1.5327 10.3063,-1.5605 8.2949,11.1738 -3.0948,19.5927 -1.9563,18.3678 -18.1738,19.5625 -9.1747,0.6759 -10.0254,0.9146 -10.3047,2.8731 -0.6481,4.5443 4.2441,6.6635 13.6465,5.9121 8.3425,-0.6667 8.3432,-0.6671 7.6328,2.6426 -0.8379,3.9039 -9.0961,30.7645 -9.6172,31.2812 -0.1969,0.1954 -8.4574,0.9105 -18.3574,1.5879 -23.9404,1.6382 -27.116,6.1523 -8.7656,12.4609 2.7309,0.9388 4.8021,0.9135 9.7187,-0.1171 17.2242,-3.6105 60.3383,-6.5215 92.836,-6.2676 25.3178,0.1978 26.4625,-0.01 25.3281,-4.5254 -1.4896,-5.9349 -13.8732,-10.1833 -25.3906,-8.711 -25.4972,3.2594 -24.6906,3.7124 -19.6817,-11.0449 2.4929,-7.3445 5.8657,-15.2792 7.4942,-17.6328 6.5759,-9.5044 -3.8902,-18.2731 -17.8067,-14.918 -9.7429,2.3489 -18.2324,3.2194 -18.2324,1.8692 0,-0.6062 1.8701,-6.1121 4.1563,-12.2363 4.0057,-10.7299 4.0975,-11.2365 2.5273,-13.8946 -1.8659,-3.1587 2.0949,-3.9405 20.8164,-4.1094 17.5228,-0.1582 22.3941,-2.2208 17.5117,-7.4179 -3.1699,-3.3743 -7.9769,-4.994 -14.3242,-4.8399 z m -15.207,51.3262 c 9.5149,0 -0.2598,34.8141 -10.1504,36.1524 -9.9963,1.3525 -20.4113,1.587 -19.9883,0.4492 0.2253,-0.6061 2.8014,-8.5986 5.7246,-17.7598 5.7393,-17.9866 6.8477,-18.8418 24.4141,-18.8418 z" /></g></g><pattern
     id="b-2"
     width="41"
     height="41"
     patternUnits="userSpaceOnUse"><circle
       fill="#ffffff"
       cx="20.5"
       cy="20.5"
       r="20.5"
       id="circle2" /></pattern></svg>
