<?xml version="1.0" encoding="UTF-8" standalone="no"?>
<!-- Created with Inkscape (http://www.inkscape.org/) -->

<svg
   version="1.1"
   id="svg1"
   width="222.40515"
   height="222.40527"
   viewBox="0 0 222.40515 222.40527"
   sodipodi:docname="Linotte app main inkscape.ai"
   inkscape:version="1.4.2 (ebf0e940, 2025-05-08)"
   xml:space="preserve"
   xmlns:inkscape="http://www.inkscape.org/namespaces/inkscape"
   xmlns:sodipodi="http://sodipodi.sourceforge.net/DTD/sodipodi-0.dtd"
   xmlns="http://www.w3.org/2000/svg"
   xmlns:svg="http://www.w3.org/2000/svg"><defs
     id="defs1" /><sodipodi:namedview
     id="namedview1"
     pagecolor="#ffffff"
     bordercolor="#000000"
     borderopacity="0.25"
     inkscape:showpageshadow="2"
     inkscape:pageopacity="0.0"
     inkscape:pagecheckerboard="0"
     inkscape:deskcolor="#d1d1d1"
     showgrid="false"
     inkscape:zoom="0.33390004"
     inkscape:cx="6370.17"
     inkscape:cy="1737.0468"
     inkscape:window-width="1472"
     inkscape:window-height="844"
     inkscape:window-x="0"
     inkscape:window-y="33"
     inkscape:window-maximized="0"
     inkscape:current-layer="g11898"><inkscape:page
       x="0"
       y="0"
       width="222.40515"
       height="222.40527"
       id="page2"
       margin="0"
       bleed="0" /></sodipodi:namedview><g
     id="layer-MC0"
     inkscape:groupmode="layer"
     inkscape:label="Livello 1"
     transform="translate(244.76634,-1603.0825)"><g
       id="g28"><rect
         style="fill:#ffffff;fill-opacity:1;stroke:#000000;stroke-width:33.6356;stroke-linecap:round;stroke-miterlimit:1.4;stroke-dasharray:none;stroke-opacity:1;paint-order:markers stroke fill"
         id="rect10471-2-4-7-7"
         width="188.76961"
         height="188.76961"
         x="-227.94849"
         y="1619.9003"
         ry="26.602039" /><g
         id="g19"
         transform="translate(1927.9414,-1044.6163)"
         style="fill:#d30000;fill-opacity:1"><path
           style="fill:#d30000;fill-opacity:1"
           d="m -2092.8154,2728.8364 c -4.4257,-0.8827 -8.2189,-4.1869 -7.3641,-6.4146 0.6437,-1.6775 1.151,-1.7767 20.6915,-4.0482 16.3316,-1.8984 33.857,-4.8855 41.8937,-7.1404 11.0596,-3.1032 25.6753,5.722 15.7353,9.5011 -9.7256,3.6977 -62.7076,9.7474 -70.9564,8.1021 z"
           id="path4189" /><path
           style="fill:#d30000;fill-opacity:1"
           d="m -2087.988,2766.2545 c -2.2,-0.7925 -4.1125,-1.4478 -4.25,-1.4561 -0.1375,-0.01 -0.25,-1.1315 -0.25,-2.496 0,-3.0188 -0.4516,-2.9021 21.5,-5.5549 9.35,-1.1299 21.1478,-2.8586 26.2173,-3.8416 11.7771,-2.2835 20.2827,0.2137 20.2827,5.9549 0,4.8829 -53.2568,11.084 -63.5,7.3937 z"
           id="path4188" /><path
           style="fill:#d30000;fill-opacity:1"
           d="m -2112.988,2809.7773 c -12.4312,-2.759 -17.5174,-11.9216 -6.6786,-12.0311 11.9535,-0.1207 91.3611,-7.3144 105.4292,-9.551 12.5129,-1.9893 25.7494,3.444 25.7494,10.5696 0,3.0309 -0.4592,3.0811 -31.7199,3.4671 -36.7358,0.4536 -71.4322,3.5637 -88.7801,7.9579 -0.55,0.1393 -2.35,-0.046 -4,-0.4125 z"
           id="path4187" /></g></g></g><pattern
     id="b-2"
     width="41"
     height="41"
     patternUnits="userSpaceOnUse"><circle
       fill="#ffffff"
       cx="20.5"
       cy="20.5"
       r="20.5"
       id="circle2" /></pattern></svg>
