<?xml version="1.0" encoding="UTF-8" standalone="no"?>
<!-- Created with Inkscape (http://www.inkscape.org/) -->

<svg
   version="1.1"
   id="svg1"
   width="222.40515"
   height="222.40515"
   viewBox="0 0 222.40515 222.40515"
   sodipodi:docname="Linotte app main inkscape.ai"
   inkscape:version="1.4.2 (ebf0e940, 2025-05-08)"
   xml:space="preserve"
   xmlns:inkscape="http://www.inkscape.org/namespaces/inkscape"
   xmlns:sodipodi="http://sodipodi.sourceforge.net/DTD/sodipodi-0.dtd"
   xmlns="http://www.w3.org/2000/svg"
   xmlns:svg="http://www.w3.org/2000/svg"><defs
     id="defs1" /><sodipodi:namedview
     id="namedview1"
     pagecolor="#ffffff"
     bordercolor="#000000"
     borderopacity="0.25"
     inkscape:showpageshadow="2"
     inkscape:pageopacity="0.0"
     inkscape:pagecheckerboard="0"
     inkscape:deskcolor="#d1d1d1"
     showgrid="false"
     inkscape:zoom="0.33390004"
     inkscape:cx="6370.17"
     inkscape:cy="1737.0468"
     inkscape:window-width="1472"
     inkscape:window-height="844"
     inkscape:window-x="0"
     inkscape:window-y="33"
     inkscape:window-maximized="0"
     inkscape:current-layer="g11898"><inkscape:page
       x="0"
       y="0"
       width="222.40515"
       height="222.40515"
       id="page2"
       margin="0"
       bleed="0" /></sodipodi:namedview><g
     id="layer-MC0"
     inkscape:groupmode="layer"
     inkscape:label="Livello 1"
     transform="translate(244.76634,-1853.2048)"><g
       id="g2546"><rect
         style="fill:#ffffff;fill-opacity:1;stroke:#000000;stroke-width:33.6356;stroke-linecap:round;stroke-miterlimit:1.4;stroke-dasharray:none;stroke-opacity:1;paint-order:markers stroke fill"
         id="rect10471-2-4-7-7-5"
         width="188.76961"
         height="188.76961"
         x="-227.9485"
         y="1870.0227"
         ry="26.602039" /><path
         style="fill:#45303f;stroke-width:2.01567"
         d="m -151.02729,2025.7265 c -1.2233,-1.4739 -3.14202,-13.1489 -4.2638,-25.9445 -2.32504,-26.5226 -7.31846,-44.7741 -15.98812,-58.4378 l -6.0016,-9.4587 7.37748,-16.2411 c 8.40414,-18.5013 8.8448,-18.7719 15.04481,-9.2409 8.6299,13.2663 21.9027,13.846 24.70693,1.0792 1.82416,-8.3056 7.89486,-8.1425 10.30958,0.2771 3.69816,12.8947 12.22287,12.8363 18.83752,-0.1289 7.396742,-14.4988 13.544052,-5.8255 10.243602,14.453 -3.6594,22.4842 -11.865492,31.0458 -27.832232,29.0379 -15.32294,-1.9268 -15.96554,-0.7193 -17.01956,31.9784 -1.16606,36.1819 -7.11364,52.6291 -15.41461,42.627 z"
         id="path2541" /></g></g><pattern
     id="b-2"
     width="41"
     height="41"
     patternUnits="userSpaceOnUse"><circle
       fill="#ffffff"
       cx="20.5"
       cy="20.5"
       r="20.5"
       id="circle2" /></pattern></svg>
