<?xml version="1.0" encoding="UTF-8" standalone="no"?>
<!-- Created with Inkscape (http://www.inkscape.org/) -->

<svg
   version="1.1"
   id="svg1"
   width="222.40527"
   height="222.40515"
   viewBox="0 0 222.40527 222.40515"
   sodipodi:docname="Linotte app main inkscape.ai"
   inkscape:version="1.4.2 (ebf0e940, 2025-05-08)"
   xml:space="preserve"
   xmlns:inkscape="http://www.inkscape.org/namespaces/inkscape"
   xmlns:sodipodi="http://sodipodi.sourceforge.net/DTD/sodipodi-0.dtd"
   xmlns="http://www.w3.org/2000/svg"
   xmlns:svg="http://www.w3.org/2000/svg"><defs
     id="defs1" /><sodipodi:namedview
     id="namedview1"
     pagecolor="#ffffff"
     bordercolor="#000000"
     borderopacity="0.25"
     inkscape:showpageshadow="2"
     inkscape:pageopacity="0.0"
     inkscape:pagecheckerboard="0"
     inkscape:deskcolor="#d1d1d1"
     showgrid="false"
     inkscape:zoom="0.33390004"
     inkscape:cx="6370.17"
     inkscape:cy="1737.0468"
     inkscape:window-width="1472"
     inkscape:window-height="844"
     inkscape:window-x="0"
     inkscape:window-y="33"
     inkscape:window-maximized="0"
     inkscape:current-layer="g11898"><inkscape:page
       x="0"
       y="0"
       width="222.40527"
       height="222.40515"
       id="page2"
       margin="0"
       bleed="0" /></sodipodi:namedview><g
     id="layer-MC0"
     inkscape:groupmode="layer"
     inkscape:label="Livello 1"
     transform="translate(-14.098848,-1853.2048)"><g
       id="g2547"><rect
         style="fill:#ffffff;fill-opacity:1;stroke:#000000;stroke-width:33.6356;stroke-linecap:round;stroke-miterlimit:1.4;stroke-dasharray:none;stroke-opacity:1;paint-order:markers stroke fill"
         id="rect10471-2-4-7-4-8-8"
         width="188.76961"
         height="188.76961"
         x="30.916893"
         y="1870.0227"
         ry="26.602039" /><path
         style="fill:#45303f;stroke-width:2.01567"
         d="m 112.53433,2026.9864 c -1.04671,-2.0074 -3.02211,-13.1741 -4.38957,-24.8145 -2.92569,-24.9072 -7.87072,-41.0798 -17.337749,-56.7026 -8.443125,-13.9336 -8.458845,-12.8222 0.428472,-30.4704 l 7.306284,-14.5078 6.642663,7.9121 6.64265,7.9123 8.0234,-8.2675 c 12.20726,-12.5788 28.14988,-13.9763 36.61868,-3.2098 7.94867,10.1049 3.9177,14.4216 -9.97377,10.6812 -10.15193,-2.7337 -21.12282,0.1491 -24.48594,6.4324 -6.16879,11.5268 22.55371,18.1933 35.27448,8.1871 6.83076,-5.3731 10.10276,-4.1076 8.31624,3.2159 -3.51514,14.4103 -20.11297,28.5036 -33.569,28.5036 h -6.78039 v 27.7155 c 0,32.6077 -6.0067,50.2799 -12.71645,37.4125 z"
         id="path2542" /></g></g><pattern
     id="b-2"
     width="41"
     height="41"
     patternUnits="userSpaceOnUse"><circle
       fill="#ffffff"
       cx="20.5"
       cy="20.5"
       r="20.5"
       id="circle2" /></pattern></svg>
