<?xml version="1.0" encoding="UTF-8" standalone="no"?>
<!-- Created with Inkscape (http://www.inkscape.org/) -->

<svg
   version="1.1"
   id="svg1"
   width="222.40527"
   height="222.40527"
   viewBox="0 0 222.40527 222.40527"
   sodipodi:docname="Linotte app main inkscape.ai"
   inkscape:version="1.4.2 (ebf0e940, 2025-05-08)"
   xml:space="preserve"
   xmlns:inkscape="http://www.inkscape.org/namespaces/inkscape"
   xmlns:sodipodi="http://sodipodi.sourceforge.net/DTD/sodipodi-0.dtd"
   xmlns="http://www.w3.org/2000/svg"
   xmlns:svg="http://www.w3.org/2000/svg"><defs
     id="defs1" /><sodipodi:namedview
     id="namedview1"
     pagecolor="#ffffff"
     bordercolor="#000000"
     borderopacity="0.25"
     inkscape:showpageshadow="2"
     inkscape:pageopacity="0.0"
     inkscape:pagecheckerboard="0"
     inkscape:deskcolor="#d1d1d1"
     showgrid="false"
     inkscape:zoom="0.33390004"
     inkscape:cx="6370.17"
     inkscape:cy="1737.0468"
     inkscape:window-width="1472"
     inkscape:window-height="844"
     inkscape:window-x="0"
     inkscape:window-y="33"
     inkscape:window-maximized="0"
     inkscape:current-layer="g11898"><inkscape:page
       x="0"
       y="0"
       width="222.40527"
       height="222.40527"
       id="page2"
       margin="0"
       bleed="0" /></sodipodi:namedview><g
     id="layer-MC0"
     inkscape:groupmode="layer"
     inkscape:label="Livello 1"
     transform="translate(-14.098848,-1603.0825)"><g
       id="g29"><rect
         style="fill:#ffffff;fill-opacity:1;stroke:#000000;stroke-width:33.6356;stroke-linecap:round;stroke-miterlimit:1.4;stroke-dasharray:none;stroke-opacity:1;paint-order:markers stroke fill"
         id="rect10471-2-4-7-4-8"
         width="188.76961"
         height="188.76961"
         x="30.916912"
         y="1619.9004"
         ry="26.602039" /><path
         id="path4193"
         style="fill:#d30000;fill-opacity:1"
         d="m 166.3072,1676.078 c -1.9595,0 -3.9896,0.1472 -6.0527,0.455 -22.6623,3.3822 -75.602799,7.8015 -85.240299,7.1153 -11.0706,-0.7882 -11.5252,-0.3499 -7.5859,7.3066 3.8335,7.451 3.8618,7.6008 5.6719,29.2129 2.9531,35.2603 4.1159,40.4882 8.8555,39.8106 1.1976,-0.1712 2.7348,-1.4783 3.416,-2.9043 1.3975,-2.9254 7.187903,-3.9155 34.281199,-5.8633 30.5779,-2.1984 31.1247,-2.1473 33.9883,3.1152 1.3941,2.5619 3.3864,5.5994 4.4277,6.75 8.1609,9.0178 15.4878,-5.4832 20.6289,-40.8301 3.2709,-22.4877 4.1425,-26.4941 6.4942,-29.8398 5.1487,-7.3253 -5.1682,-14.3392 -18.8848,-14.3281 z m -4.1035,9.2832 c 2.6662,0.057 4.6972,0.5916 5.418,1.7578 1.6684,2.6995 -2.6262,39.5264 -5.9746,51.2344 -1.0544,3.6867 -1.053,3.6876 -4.5684,2.2187 -3.1631,-1.3216 -6.1926,-1.2163 -30.2207,1.0508 -14.6878,1.3859 -29.742596,2.7951 -33.455096,3.1328 -6.123203,0.5569 -6.753903,0.4432 -6.753903,-1.2363 -0.0032,-1.7372 -1.4691,-19.3459 -2.4433,-29.3516 -1.7405,-17.8769 -1.8038,-20.9998 -0.4317,-21.0098 0.7585,0 5.3936,-0.4671 10.300803,-1.0293 10.103496,-1.1574 10.537496,-0.9354 10.562496,5.3946 0.036,9.0603 -4.5172,20.9059 -10.638696,27.6816 -6.091503,6.7426 -2.179503,9.0939 6.365296,3.8262 8.1044,-4.9962 17.3033,-24.4733 17.5273,-37.1133 0.0458,-2.5858 0.3169,-2.75 4.5527,-2.75 4.5048,0 4.505,-5e-4 3.8106,14.9121 -0.9956,21.38 7.0371,28.2014 28.3984,24.1172 13.8589,-2.6499 8.591,-11.743 -6.0625,-10.4648 -12.8955,1.1249 -14.7023,-3.6072 -9.2246,-24.168 1.1323,-4.2499 14.8393,-8.3746 22.8379,-8.2031 z" /></g></g><pattern
     id="b-2"
     width="41"
     height="41"
     patternUnits="userSpaceOnUse"><circle
       fill="#ffffff"
       cx="20.5"
       cy="20.5"
       r="20.5"
       id="circle2" /></pattern></svg>
