<?xml version="1.0" encoding="UTF-8" standalone="no"?>
<!-- Created with Inkscape (http://www.inkscape.org/) -->

<svg
   version="1.1"
   id="svg1"
   width="1539.9998"
   height="220.00012"
   viewBox="0 0 1539.9998 220.00012"
   xml:space="preserve"
   xmlns="http://www.w3.org/2000/svg"
   xmlns:svg="http://www.w3.org/2000/svg"><defs
     id="defs1" /><g
     id="layer-MC0"
     transform="translate(1392.5145,-1904.333)"><g
       id="g48"
       transform="translate(24.643582,96.200017)"><rect
         style="fill:#ffffff;fill-opacity:1;stroke:#000000;stroke-width:33.2719;stroke-linecap:round;stroke-miterlimit:1.4;stroke-dasharray:none;stroke-opacity:1;paint-order:markers stroke fill"
         id="rect10471-2-4-7-4-0-0"
         width="186.72812"
         height="186.72812"
         x="-1400.5219"
         y="1824.769"
         ry="26.314346" /><g
         id="g30"
         transform="matrix(0.98918528,0,0,0.98918528,-587.17054,222.38759)"><rect
           style="fill:#ffffff;fill-opacity:1;stroke:#000000;stroke-width:33.6356;stroke-linecap:round;stroke-miterlimit:1.4;stroke-dasharray:none;stroke-opacity:1;paint-order:markers stroke fill"
           id="rect10471-2-4-7-4-9-3"
           width="188.76961"
           height="188.76961"
           x="289.78241"
           y="1619.9003"
           ry="26.602039" /><path
           id="path4197"
           style="fill:#d30000;fill-opacity:1"
           d="m 409.0036,1663.8416 c -2.1157,0.051 -4.4033,0.2999 -6.8574,0.7461 -4.5821,0.8332 -12.8301,1.9953 -18.3301,2.584 -52.7549,5.6467 -57.3254,6.9629 -45.373,13.0606 4.5081,2.2999 5.5102,2.297 21.2519,-0.039 10.3276,-1.5327 10.3063,-1.5605 8.2949,11.1738 -3.0948,19.5927 -1.9563,18.3678 -18.1738,19.5625 -9.1747,0.6759 -10.0254,0.9146 -10.3047,2.8731 -0.6481,4.5443 4.2441,6.6635 13.6465,5.9121 8.3425,-0.6667 8.3432,-0.6671 7.6328,2.6426 -0.8379,3.9039 -9.0961,30.7645 -9.6172,31.2812 -0.1969,0.1954 -8.4574,0.9105 -18.3574,1.5879 -23.9404,1.6382 -27.116,6.1523 -8.7656,12.4609 2.7309,0.9388 4.8021,0.9135 9.7187,-0.1171 17.2242,-3.6105 60.3383,-6.5215 92.836,-6.2676 25.3178,0.1978 26.4625,-0.01 25.3281,-4.5254 -1.4896,-5.9349 -13.8732,-10.1833 -25.3906,-8.711 -25.4972,3.2594 -24.6906,3.7124 -19.6817,-11.0449 2.4929,-7.3445 5.8657,-15.2792 7.4942,-17.6328 6.5759,-9.5044 -3.8902,-18.2731 -17.8067,-14.918 -9.7429,2.3489 -18.2324,3.2194 -18.2324,1.8692 0,-0.6062 1.8701,-6.1121 4.1563,-12.2363 4.0057,-10.7299 4.0975,-11.2365 2.5273,-13.8946 -1.8659,-3.1587 2.0949,-3.9405 20.8164,-4.1094 17.5228,-0.1582 22.3941,-2.2208 17.5117,-7.4179 -3.1699,-3.3743 -7.9769,-4.994 -14.3242,-4.8399 z m -15.207,51.3262 c 9.5149,0 -0.2598,34.8141 -10.1504,36.1524 -9.9963,1.3525 -20.4113,1.587 -19.9883,0.4492 0.2253,-0.6061 2.8014,-8.5986 5.7246,-17.7598 5.7393,-17.9866 6.8477,-18.8418 24.4141,-18.8418 z" /></g><g
         id="g29"
         transform="matrix(0.98918528,0,0,0.98918528,-551.10456,222.38747)"><rect
           style="fill:#ffffff;fill-opacity:1;stroke:#000000;stroke-width:33.6356;stroke-linecap:round;stroke-miterlimit:1.4;stroke-dasharray:none;stroke-opacity:1;paint-order:markers stroke fill"
           id="rect10471-2-4-7-4-8"
           width="188.76961"
           height="188.76961"
           x="30.916912"
           y="1619.9004"
           ry="26.602039" /><path
           id="path4193"
           style="fill:#d30000;fill-opacity:1"
           d="m 166.3072,1676.078 c -1.9595,0 -3.9896,0.1472 -6.0527,0.455 -22.6623,3.3822 -75.602799,7.8015 -85.240299,7.1153 -11.0706,-0.7882 -11.5252,-0.3499 -7.5859,7.3066 3.8335,7.451 3.8618,7.6008 5.6719,29.2129 2.9531,35.2603 4.1159,40.4882 8.8555,39.8106 1.1976,-0.1712 2.7348,-1.4783 3.416,-2.9043 1.3975,-2.9254 7.187903,-3.9155 34.281199,-5.8633 30.5779,-2.1984 31.1247,-2.1473 33.9883,3.1152 1.3941,2.5619 3.3864,5.5994 4.4277,6.75 8.1609,9.0178 15.4878,-5.4832 20.6289,-40.8301 3.2709,-22.4877 4.1425,-26.4941 6.4942,-29.8398 5.1487,-7.3253 -5.1682,-14.3392 -18.8848,-14.3281 z m -4.1035,9.2832 c 2.6662,0.057 4.6972,0.5916 5.418,1.7578 1.6684,2.6995 -2.6262,39.5264 -5.9746,51.2344 -1.0544,3.6867 -1.053,3.6876 -4.5684,2.2187 -3.1631,-1.3216 -6.1926,-1.2163 -30.2207,1.0508 -14.6878,1.3859 -29.742596,2.7951 -33.455096,3.1328 -6.123203,0.5569 -6.753903,0.4432 -6.753903,-1.2363 -0.0032,-1.7372 -1.4691,-19.3459 -2.4433,-29.3516 -1.7405,-17.8769 -1.8038,-20.9998 -0.4317,-21.0098 0.7585,0 5.3936,-0.4671 10.300803,-1.0293 10.103496,-1.1574 10.537496,-0.9354 10.562496,5.3946 0.036,9.0603 -4.5172,20.9059 -10.638696,27.6816 -6.091503,6.7426 -2.179503,9.0939 6.365296,3.8262 8.1044,-4.9962 17.3033,-24.4733 17.5273,-37.1133 0.0458,-2.5858 0.3169,-2.75 4.5527,-2.75 4.5048,0 4.505,-5e-4 3.8106,14.9121 -0.9956,21.38 7.0371,28.2014 28.3984,24.1172 13.8589,-2.6499 8.591,-11.743 -6.0625,-10.4648 -12.8955,1.1249 -14.7023,-3.6072 -9.2246,-24.168 1.1323,-4.2499 14.8393,-8.3746 22.8379,-8.2031 z" /></g><g
         id="g28"
         transform="matrix(0.98918528,0,0,0.98918528,-515.03867,222.38759)"><rect
           style="fill:#ffffff;fill-opacity:1;stroke:#000000;stroke-width:33.6356;stroke-linecap:round;stroke-miterlimit:1.4;stroke-dasharray:none;stroke-opacity:1;paint-order:markers stroke fill"
           id="rect10471-2-4-7-7"
           width="188.76961"
           height="188.76961"
           x="-227.94849"
           y="1619.9003"
           ry="26.602039" /><g
           id="g19"
           transform="translate(1927.9414,-1044.6163)"
           style="fill:#d30000;fill-opacity:1"><path
             style="fill:#d30000;fill-opacity:1"
             d="m -2092.8154,2728.8364 c -4.4257,-0.8827 -8.2189,-4.1869 -7.3641,-6.4146 0.6437,-1.6775 1.151,-1.7767 20.6915,-4.0482 16.3316,-1.8984 33.857,-4.8855 41.8937,-7.1404 11.0596,-3.1032 25.6753,5.722 15.7353,9.5011 -9.7256,3.6977 -62.7076,9.7474 -70.9564,8.1021 z"
             id="path4189" /><path
             style="fill:#d30000;fill-opacity:1"
             d="m -2087.988,2766.2545 c -2.2,-0.7925 -4.1125,-1.4478 -4.25,-1.4561 -0.1375,-0.01 -0.25,-1.1315 -0.25,-2.496 0,-3.0188 -0.4516,-2.9021 21.5,-5.5549 9.35,-1.1299 21.1478,-2.8586 26.2173,-3.8416 11.7771,-2.2835 20.2827,0.2137 20.2827,5.9549 0,4.8829 -53.2568,11.084 -63.5,7.3937 z"
             id="path4188" /><path
             style="fill:#d30000;fill-opacity:1"
             d="m -2112.988,2809.7773 c -12.4312,-2.759 -17.5174,-11.9216 -6.6786,-12.0311 11.9535,-0.1207 91.3611,-7.3144 105.4292,-9.551 12.5129,-1.9893 25.7494,3.444 25.7494,10.5696 0,3.0309 -0.4592,3.0811 -31.7199,3.4671 -36.7358,0.4536 -71.4322,3.5637 -88.7801,7.9579 -0.55,0.1393 -2.35,-0.046 -4,-0.4125 z"
             id="path4187" /></g></g><g
         id="g27"
         transform="matrix(0.98918528,0,0,0.98918528,-478.97274,222.38759)"><rect
           style="fill:#ffffff;fill-opacity:1;stroke:#000000;stroke-width:33.6356;stroke-linecap:round;stroke-miterlimit:1.4;stroke-dasharray:none;stroke-opacity:1;paint-order:markers stroke fill"
           id="rect10471-2-4-6"
           width="188.76961"
           height="188.76961"
           x="-486.81393"
           y="1619.9003"
           ry="26.602039" /><g
           id="g20"
           transform="translate(1899.0393,-1044.6163)"
           style="fill:#d30000;fill-opacity:1"><path
             style="fill:#d30000;fill-opacity:1"
             d="m -2322.488,2738.6615 c -13.0601,-3.8849 -10.228,-8.9945 6,-10.8251 11.0456,-1.246 33.2122,-5.4228 37.5675,-7.0787 8.0352,-3.055 23.1316,3.1556 21.0236,8.649 -1.7645,4.598 -54.7324,12.1874 -64.5911,9.2548 z"
             id="path4184" /><path
             style="fill:#d30000;fill-opacity:1"
             d="m -2352.9623,2800.2201 c -15.6392,-8.1548 -14.4446,-11.4247 4.7715,-13.061 7.2616,-0.6183 35.0088,-3.0475 61.6606,-5.3982 53.3748,-4.7077 54.0834,-4.6595 61.5256,4.1851 5.5229,6.5636 3.4248,7.3773 -18.1863,7.0534 -33.087,-0.4958 -81.3759,3.3965 -96.2905,7.7616 -4.9806,1.4576 -10.0373,1.2548 -13.4809,-0.5409 z"
             id="path4183" /></g></g><g
         id="g26"
         transform="matrix(0.98918528,0,0,0.98918528,-442.9067,222.38759)"><rect
           style="fill:#ffffff;fill-opacity:1;stroke:#000000;stroke-width:33.6356;stroke-linecap:round;stroke-miterlimit:1.4;stroke-dasharray:none;stroke-opacity:1;paint-order:markers stroke fill"
           id="rect10471-2-3"
           width="188.76961"
           height="188.76961"
           x="-745.6795"
           y="1619.9003"
           ry="26.602039" /><path
           style="fill:#d30000;fill-opacity:1"
           d="m -703.36783,1723.4398 c -13.4876,-5.1195 -13.889,-12.6129 -0.7335,-13.6939 4.5284,-0.372 15.2085,-1.5495 23.7335,-2.6165 8.525,-1.0671 26.075,-3.064 39,-4.4376 12.925,-1.3737 25.8041,-2.8772 28.6202,-3.3413 9.2009,-1.5161 21.3337,3.8276 22.2145,9.784 0.6359,4.3006 -0.6538,4.5261 -26.6347,4.6571 -33.2763,0.1677 -56.9376,2.8201 -75.0553,8.4134 -6.5078,2.0091 -8.518,2.2319 -11.1447,1.2348 z"
           id="path4180" /></g><g
         id="g31"
         transform="matrix(0.98918528,0,0,0.98918528,-623.23644,222.38759)"><rect
           style="fill:#ffffff;fill-opacity:1;stroke:#000000;stroke-width:33.6356;stroke-linecap:round;stroke-miterlimit:1.4;stroke-dasharray:none;stroke-opacity:1;paint-order:markers stroke fill"
           id="rect10471-2-4-7-4-3-2"
           width="188.76961"
           height="188.76961"
           x="548.64783"
           y="1619.9003"
           ry="26.602039" /><g
           id="g18"
           transform="translate(3171.8012,-1425.7332)"
           style="fill:#d30000;fill-opacity:1"><path
             style="fill:#d30000;fill-opacity:1"
             d="m -2587.6672,3129.9114 c -8.6465,-5.5322 -8.1893,-10.1278 1.0076,-10.1278 2.5773,0 12.5576,-1.0901 22.1786,-2.4223 9.621,-1.3323 20.2744,-2.7229 23.6742,-3.0903 6.1815,-0.6679 6.1815,-0.6679 2.8703,-6.8277 -10.3972,-19.3418 -10.3459,-26.9764 0.1511,-22.4549 10.1611,4.3767 15.7,11.7727 15.7599,21.044 0.044,6.7521 -1.6561,6.3439 17.5372,4.2116 26.9158,-2.9903 25.8627,-2.998 31.9873,0.2346 13.2067,6.9707 10.6936,11.305 -6.5549,11.305 -33.8209,0 -68.5468,3.121 -85.4324,7.6783 -14.6379,3.9507 -17.6165,4.0085 -23.1789,0.4495 z"
             id="path4140" /><path
             style="fill:#d30000;fill-opacity:1"
             d="m -2589.1313,3191.2716 c -0.3662,-0.9544 1.5815,-3.921 5.2814,-8.0442 14.6328,-16.3067 22.7216,-28.5892 23.9702,-36.3975 1.0806,-6.7577 5.8866,-6.955 15.4387,-0.6337 5.8873,3.896 5.3552,5.2649 -7.2973,18.7708 -17.4043,18.5783 -35.4787,31.293 -37.393,26.3046 z"
             id="path4139" /><path
             style="fill:#d30000;fill-opacity:1"
             d="m -2488.6719,3192.1953 c -3.0065,-1.5752 -10.8452,-11.9386 -19.4261,-25.6829 -3.169,-5.0759 -7.4782,-11.4251 -9.5761,-14.1095 -11.8664,-15.184 12.2869,-6.0786 27.5195,10.3744 12.0682,13.0351 13.2034,35.5592 1.4827,29.418 z"
             id="path4138" /></g></g></g></g><pattern
     id="b-2"
     width="41"
     height="41"
     patternUnits="userSpaceOnUse"><circle
       fill="#ffffff"
       cx="20.5"
       cy="20.5"
       r="20.5"
       id="circle2" /></pattern></svg>
