<?xml version="1.0" encoding="UTF-8" standalone="no"?>
<!-- Created with Inkscape (http://www.inkscape.org/) -->

<svg
   version="1.1"
   id="svg1"
   width="222.40515"
   height="222.40515"
   viewBox="0 0 222.40515 222.40515"
   sodipodi:docname="Linotte app main inkscape.ai"
   inkscape:version="1.4.2 (ebf0e940, 2025-05-08)"
   xml:space="preserve"
   xmlns:inkscape="http://www.inkscape.org/namespaces/inkscape"
   xmlns:sodipodi="http://sodipodi.sourceforge.net/DTD/sodipodi-0.dtd"
   xmlns="http://www.w3.org/2000/svg"
   xmlns:svg="http://www.w3.org/2000/svg"><defs
     id="defs1" /><sodipodi:namedview
     id="namedview1"
     pagecolor="#ffffff"
     bordercolor="#000000"
     borderopacity="0.25"
     inkscape:showpageshadow="2"
     inkscape:pageopacity="0.0"
     inkscape:pagecheckerboard="0"
     inkscape:deskcolor="#d1d1d1"
     showgrid="false"
     inkscape:zoom="0.33390004"
     inkscape:cx="6370.17"
     inkscape:cy="1737.0468"
     inkscape:window-width="1472"
     inkscape:window-height="844"
     inkscape:window-x="0"
     inkscape:window-y="33"
     inkscape:window-maximized="0"
     inkscape:current-layer="g11898"><inkscape:page
       x="0"
       y="0"
       width="222.40515"
       height="222.40515"
       id="page2"
       margin="0"
       bleed="0" /></sodipodi:namedview><g
     id="layer-MC0"
     inkscape:groupmode="layer"
     inkscape:label="Livello 1"
     transform="translate(503.63158,-1853.2048)"><g
       id="g2545"><rect
         style="fill:#ffffff;fill-opacity:1;stroke:#000000;stroke-width:33.6356;stroke-linecap:round;stroke-miterlimit:1.4;stroke-dasharray:none;stroke-opacity:1;paint-order:markers stroke fill"
         id="rect10471-2-4-6-6"
         width="188.76961"
         height="188.76961"
         x="-486.81396"
         y="1870.0227"
         ry="26.602039" /><path
         style="fill:#45303f;stroke-width:2.01567"
         d="m -398.99625,2026.2469 c -0.60773,-1.94 -2.496,-14.186 -4.19627,-27.2131 -3.43365,-26.3097 -7.71915,-39.6784 -17.89145,-55.8117 -6.6679,-10.5752 -6.76345,-11.0268 -3.8258,-18.0817 3.23801,-7.7763 10.62302,-22.8165 11.88928,-24.2136 0.42471,-0.4688 3.92269,2.8282 7.77319,7.3265 12.05381,14.0822 27.80189,13.2695 35.5062,-1.8322 8.65105,-16.9576 15.00064,-2.2045 9.69611,22.5293 -2.45802,11.4616 -9.84757,21.5382 -18.44559,25.1535 l -5.72326,2.4063 -0.52911,29.0733 c -0.39449,21.6667 -1.37477,30.9989 -3.84839,36.632 -3.50607,7.9846 -8.55429,9.9406 -10.40491,4.0314 z"
         id="path2540" /></g></g><pattern
     id="b-2"
     width="41"
     height="41"
     patternUnits="userSpaceOnUse"><circle
       fill="#ffffff"
       cx="20.5"
       cy="20.5"
       r="20.5"
       id="circle2" /></pattern></svg>
