<?xml version="1.0" encoding="UTF-8" standalone="no"?>
<!-- Created with Inkscape (http://www.inkscape.org/) -->

<svg
   version="1.1"
   id="svg1"
   width="222.40527"
   height="222.40515"
   viewBox="0 0 222.40527 222.40515"
   sodipodi:docname="Linotte app main inkscape.ai"
   inkscape:version="1.4.2 (ebf0e940, 2025-05-08)"
   xml:space="preserve"
   xmlns:inkscape="http://www.inkscape.org/namespaces/inkscape"
   xmlns:sodipodi="http://sodipodi.sourceforge.net/DTD/sodipodi-0.dtd"
   xmlns="http://www.w3.org/2000/svg"
   xmlns:svg="http://www.w3.org/2000/svg"><defs
     id="defs1" /><sodipodi:namedview
     id="namedview1"
     pagecolor="#ffffff"
     bordercolor="#000000"
     borderopacity="0.25"
     inkscape:showpageshadow="2"
     inkscape:pageopacity="0.0"
     inkscape:pagecheckerboard="0"
     inkscape:deskcolor="#d1d1d1"
     showgrid="false"
     inkscape:zoom="0.33390004"
     inkscape:cx="6370.17"
     inkscape:cy="1737.0468"
     inkscape:window-width="1472"
     inkscape:window-height="844"
     inkscape:window-x="0"
     inkscape:window-y="33"
     inkscape:window-maximized="0"
     inkscape:current-layer="g11898"><inkscape:page
       x="0"
       y="0"
       width="222.40527"
       height="222.40515"
       id="page2"
       margin="0"
       bleed="0" /></sodipodi:namedview><g
     id="layer-MC0"
     inkscape:groupmode="layer"
     inkscape:label="Livello 1"
     transform="translate(-272.96409,-1853.2048)"><g
       id="g2548"><rect
         style="fill:#ffffff;fill-opacity:1;stroke:#000000;stroke-width:33.6356;stroke-linecap:round;stroke-miterlimit:1.4;stroke-dasharray:none;stroke-opacity:1;paint-order:markers stroke fill"
         id="rect10471-2-4-7-4-9-3-4"
         width="188.76961"
         height="188.76961"
         x="289.78238"
         y="1870.0227"
         ry="26.602039" /><path
         style="fill:#45303f;stroke-width:2.01567"
         d="m 358.79646,2026.486 c -17.91569,-8.7886 -17.79612,-33.8887 0.34345,-72.182 6.78703,-14.3276 8.20585,-19.05 6.52396,-21.7161 -2.29526,-3.6387 10.84799,-33.7339 14.73237,-33.7339 12.97653,0 42.51899,63.0082 42.4912,90.625 -0.0299,30.3258 -19.9697,50.107 -35.93944,35.6546 -3.61633,-3.2726 -4.49641,-3.34 -8.72745,-0.668 -7.85245,4.959 -12.45714,5.4379 -19.42409,2.0204 z m 18.88623,-35.9188 c 6.6183,-8.6768 7.47536,-8.7158 11.08969,-0.5039 4.61123,10.4766 18.00095,9.5094 18.00095,-1.3005 0,-8.2415 -27.53728,-48.9941 -30.78836,-45.5639 -2.6345,2.7796 -15.57216,38.4788 -15.57216,42.9687 0,4.6278 6.21274,11.4545 10.42428,11.4545 0.80547,0 3.88604,-3.1747 6.8456,-7.0549 z"
         id="path2538" /></g></g><pattern
     id="b-2"
     width="41"
     height="41"
     patternUnits="userSpaceOnUse"><circle
       fill="#ffffff"
       cx="20.5"
       cy="20.5"
       r="20.5"
       id="circle2" /></pattern></svg>
