<?xml version="1.0" encoding="UTF-8" standalone="no"?>
<!-- Created with Inkscape (http://www.inkscape.org/) -->

<svg
   version="1.1"
   id="svg1"
   width="222.40515"
   height="222.40515"
   viewBox="0 0 222.40515 222.40515"
   sodipodi:docname="Linotte app main inkscape.ai"
   inkscape:version="1.4.2 (ebf0e940, 2025-05-08)"
   xml:space="preserve"
   xmlns:inkscape="http://www.inkscape.org/namespaces/inkscape"
   xmlns:sodipodi="http://sodipodi.sourceforge.net/DTD/sodipodi-0.dtd"
   xmlns="http://www.w3.org/2000/svg"
   xmlns:svg="http://www.w3.org/2000/svg"><defs
     id="defs1" /><sodipodi:namedview
     id="namedview1"
     pagecolor="#ffffff"
     bordercolor="#000000"
     borderopacity="0.25"
     inkscape:showpageshadow="2"
     inkscape:pageopacity="0.0"
     inkscape:pagecheckerboard="0"
     inkscape:deskcolor="#d1d1d1"
     showgrid="false"
     inkscape:zoom="0.33390004"
     inkscape:cx="6370.17"
     inkscape:cy="1737.0468"
     inkscape:window-width="1472"
     inkscape:window-height="844"
     inkscape:window-x="0"
     inkscape:window-y="33"
     inkscape:window-maximized="0"
     inkscape:current-layer="g11898"><inkscape:page
       x="0"
       y="0"
       width="222.40515"
       height="222.40515"
       id="page2"
       margin="0"
       bleed="0" /></sodipodi:namedview><g
     id="layer-MC0"
     inkscape:groupmode="layer"
     inkscape:label="Livello 1"
     transform="translate(-531.82986,-1853.2048)"><g
       id="g2549"><rect
         style="fill:#ffffff;fill-opacity:1;stroke:#000000;stroke-width:33.6356;stroke-linecap:round;stroke-miterlimit:1.4;stroke-dasharray:none;stroke-opacity:1;paint-order:markers stroke fill"
         id="rect10471-2-4-7-4-3-2-0"
         width="188.76961"
         height="188.76961"
         x="548.64783"
         y="1870.0227"
         ry="26.602039" /><path
         style="fill:#45303f;stroke-width:2.01567"
         d="m 602.72998,2022.7012 c 0.0266,-10.2637 9.52903,-34.8044 18.18274,-46.9575 4.59694,-6.4559 4.6254,-6.7335 0.90632,-8.8293 -18.49086,-10.4196 -20.69212,-27.3584 -6.12705,-47.1436 17.31606,-23.5223 34.259,-29.0439 48.34789,-15.7564 13.19386,12.4433 9.6279,21.1162 -6.69004,16.2704 -25.81487,-7.6662 -48.10099,11.459 -25.17194,21.6018 11.63508,5.1467 16.97726,4.1794 34.97699,-6.3329 16.81783,-9.8222 16.17744,-9.7958 16.17744,-0.6666 0,17.7581 -5.67676,30.1822 -15.50562,33.9359 -12.44474,4.7526 -32.13711,23.8 -46.91842,45.3813 -14.27622,20.8438 -18.21485,22.6846 -18.17831,8.4969 z"
         id="path2532" /></g></g><pattern
     id="b-2"
     width="41"
     height="41"
     patternUnits="userSpaceOnUse"><circle
       fill="#ffffff"
       cx="20.5"
       cy="20.5"
       r="20.5"
       id="circle2" /></pattern></svg>
