<?xml version="1.0" encoding="UTF-8" standalone="no"?>
<!-- Created with Inkscape (http://www.inkscape.org/) -->

<svg
   version="1.1"
   id="svg1"
   width="204.92871"
   height="204.92883"
   viewBox="0 0 204.92871 204.92883"
   xml:space="preserve"
   xmlns="http://www.w3.org/2000/svg"
   xmlns:svg="http://www.w3.org/2000/svg"><defs
     id="defs1"><clipPath
       clipPathUnits="userSpaceOnUse"
       id="clipPath10455-5-1-1-6-34-5-1"><path
         d="M 0,1920 H 1080 V 0 H 0 Z"
         transform="translate(-628.48704,-1719.6881)"
         id="path10455-3-2-5-5-7-26-8" /></clipPath><clipPath
       clipPathUnits="userSpaceOnUse"
       id="clipPath10455-5-1-1-6-347-7"><path
         d="M 0,1920 H 1080 V 0 H 0 Z"
         transform="translate(-628.48704,-1719.6881)"
         id="path10455-3-2-5-5-3-5" /></clipPath><clipPath
       clipPathUnits="userSpaceOnUse"
       id="clipPath10455-5-1-1-6-3-4-8"><path
         d="M 0,1920 H 1080 V 0 H 0 Z"
         transform="translate(-628.48704,-1719.6881)"
         id="path10455-3-2-5-5-8-28-6" /></clipPath></defs><pattern
     id="b-2"
     width="41"
     height="41"
     patternUnits="userSpaceOnUse"><circle
       fill="#ffffff"
       cx="20.5"
       cy="20.5"
       r="20.5"
       id="circle2" /></pattern><g
     id="g177-8"
     transform="translate(-7911.7123,-9451.1487)"><g
       id="g102-1-2"
       transform="translate(3450.9224,3801.7541)"><g
         id="g87-6-0"
         transform="translate(176.92146,204.80316)"><g
           id="g96-8-5"><rect
             style="font-variation-settings:normal;opacity:1;fill:#e1d2be;fill-opacity:1;stroke:none;stroke-width:4.8;stroke-linecap:round;stroke-linejoin:round;stroke-miterlimit:1.4;stroke-dasharray:none;stroke-dashoffset:0;stroke-opacity:1;paint-order:markers stroke fill"
             id="rect94-70-5"
             width="199.61703"
             height="198.95599"
             x="4286.5244"
             y="5447.5776"
             ry="13.591841" /><path
             id="path10454-6-2-4-0-7-6"
             d="M 0,0 C -0.515,-0.024 -0.843,0.157 -1.147,0.546 -1.973,1.603 -2.625,2.749 -3.053,4.02 -3.587,5.603 -3.716,7.23 -3.6,8.942 c 0.44,0 0.835,-0.005 1.23,10e-4 0.447,0.007 0.745,0.225 0.735,0.683 -0.011,0.426 -0.302,0.638 -0.723,0.639 -0.427,0 -0.855,-0.001 -1.282,0 v 0.832 c 0.201,0.071 0.395,0.179 0.531,0.313 2.192,2.164 1.562,5.892 -1.215,7.241 -1.5405891,0.750627 -2.393674,0.516169 -3.163,0.383 -1.709,-0.452 -2.911,-1.486 -3.398,-3.192 -0.479,-1.677 -0.083,-3.202 1.176,-4.438 0.12,-0.118 0.286,-0.216 0.462,-0.287 v -0.852 c -0.38,0 -0.76,10e-4 -1.139,0 -0.446,0 -0.753,-0.215 -0.744,-0.673 0.008,-0.459 0.326,-0.652 0.769,-0.651 0.371,0.002 0.743,10e-4 1.114,10e-4 0.24,-3.2 -0.502,-6.019 -2.494,-8.475 -0.282,-0.348 -0.576,-0.513 -1.013,-0.456 -0.456,0.06 -0.865,-0.026 -1.149,-0.433 v -2.734 c 0.27,-0.145 0.538,-0.415 0.808,-0.416 4.479,-0.026 8.958,-0.019 13.438,-0.018 0.511,10e-4 0.768,0.269 0.771,0.777 0.004,0.569 0.002,1.139 10e-4,1.708 C 1.115,-0.132 0.969,0.045 0,0"
             style="fill:#000000;fill-opacity:1;fill-rule:nonzero;stroke:none"
             transform="matrix(1.8285673,0,0,-1.8285673,4464.7357,5494.3694)"
             clip-path="url(#clipPath10455-5-1-1-6-34-5-1)" /><g
             id="g11852-2-7-7-4"
             transform="matrix(0.53323987,0,0,0.53323987,2033.2311,4981.3345)"
             style="fill:#000000;fill-opacity:1"><path
               id="rect11848-1-5-2-7-1"
               style="fill:#000000;fill-opacity:1;fill-rule:nonzero;stroke:none;stroke-width:1.93065;stroke-linecap:round;stroke-linejoin:miter;stroke-miterlimit:1.4;stroke-dasharray:none;stroke-dashoffset:0;stroke-opacity:1;paint-order:markers stroke fill"
               d="m 4253.2672,868.76675 c -18.0504,0 -32.5821,13.92282 -32.5821,31.2168 v 98.43554 c 0,10e-4 0,0.003 0,0.004 0,10e-4 0,0.003 0,0.004 v 124.98831 c 0,10e-4 0,0 0,0 0,10e-4 0,0 0,0 v 98.4375 c 0,17.294 14.5317,31.2148 32.5821,31.2148 h 319.1445 c 18.0505,0 32.582,-13.9208 32.582,-31.2148 v -98.4418 -223.43555 c 0,-17.29398 -14.5315,-31.2168 -32.582,-31.2168 z m 2.5312,9.31836 h 89.8828 v 115.67773 h -115.6758 v -90.96289 c 0,-13.6919 11.5023,-24.71484 25.793,-24.71484 z m 99.2012,0 h 115.6797 v 115.67773 h -115.6797 z m 124.998,0 h 89.8828 c 14.2908,0 25.795,11.02294 25.795,24.71484 v 90.96289 h -115.6778 z m -249.9922,124.99609 h 115.6758 v 115.6797 h -115.6758 z m 124.9942,0 h 115.6797 v 115.6797 h -115.6797 z m 124.998,0 h 115.6778 v 115.6797 h -115.6778 z m -249.9922,124.9981 h 115.6758 v 115.6777 h -89.8828 c -14.2907,0 -25.793,-11.023 -25.793,-24.7149 z m 124.9942,0 h 115.6797 v 115.6777 h -115.6797 z m 124.998,0 h 115.6778 v 90.9628 c 0,13.6919 -11.5042,24.7149 -25.795,24.7149 h -89.8828 z" /><path
               id="path10454-6-2-4-3-1"
               d="M 0,0 C -0.515,-0.024 -0.843,0.157 -1.147,0.546 -1.973,1.603 -2.625,2.749 -3.053,4.02 -3.587,5.603 -3.716,7.23 -3.6,8.942 c 0.44,0 0.835,-0.005 1.23,10e-4 0.447,0.007 0.745,0.225 0.735,0.683 -0.011,0.426 -0.302,0.638 -0.723,0.639 -0.427,0 -0.855,-0.001 -1.282,0 v 0.832 c 0.201,0.071 0.395,0.179 0.531,0.313 2.192,2.164 1.562,5.892 -1.215,7.241 -1.5405891,0.750627 -2.393674,0.516169 -3.163,0.383 -1.709,-0.452 -2.911,-1.486 -3.398,-3.192 -0.479,-1.677 -0.083,-3.202 1.176,-4.438 0.12,-0.118 0.286,-0.216 0.462,-0.287 v -0.852 c -0.38,0 -0.76,10e-4 -1.139,0 -0.446,0 -0.753,-0.215 -0.744,-0.673 0.008,-0.459 0.326,-0.652 0.769,-0.651 0.371,0.002 0.743,10e-4 1.114,10e-4 0.24,-3.2 -0.502,-6.019 -2.494,-8.475 -0.282,-0.348 -0.576,-0.513 -1.013,-0.456 -0.456,0.06 -0.865,-0.026 -1.149,-0.433 v -2.734 c 0.27,-0.145 0.538,-0.415 0.808,-0.416 4.479,-0.026 8.958,-0.019 13.438,-0.018 0.511,10e-4 0.768,0.269 0.771,0.777 0.004,0.569 0.002,1.139 10e-4,1.708 C 1.115,-0.132 0.969,0.045 0,0"
               style="fill:#000000;fill-opacity:1;fill-rule:nonzero;stroke:none"
               transform="matrix(3.4291647,0,0,-3.4291647,4309.8409,1088.4298)"
               clip-path="url(#clipPath10455-5-1-1-6-347-7)" /><path
               id="path10454-6-2-4-5-8-1"
               d="M 0,0 C -0.515,-0.024 -0.843,0.157 -1.147,0.546 -1.973,1.603 -2.625,2.749 -3.053,4.02 -3.587,5.603 -3.716,7.23 -3.6,8.942 c 0.44,0 0.835,-0.005 1.23,10e-4 0.447,0.007 0.745,0.225 0.735,0.683 -0.011,0.426 -0.302,0.638 -0.723,0.639 -0.427,0 -0.855,-0.001 -1.282,0 v 0.832 c 0.201,0.071 0.395,0.179 0.531,0.313 2.192,2.164 1.562,5.892 -1.215,7.241 -1.5405891,0.750627 -2.393674,0.516169 -3.163,0.383 -1.709,-0.452 -2.911,-1.486 -3.398,-3.192 -0.479,-1.677 -0.083,-3.202 1.176,-4.438 0.12,-0.118 0.286,-0.216 0.462,-0.287 v -0.852 c -0.38,0 -0.76,10e-4 -1.139,0 -0.446,0 -0.753,-0.215 -0.744,-0.673 0.008,-0.459 0.326,-0.652 0.769,-0.651 0.371,0.002 0.743,10e-4 1.114,10e-4 0.24,-3.2 -0.502,-6.019 -2.494,-8.475 -0.282,-0.348 -0.576,-0.513 -1.013,-0.456 -0.456,0.06 -0.865,-0.026 -1.149,-0.433 v -2.734 c 0.27,-0.145 0.538,-0.415 0.808,-0.416 4.479,-0.026 8.958,-0.019 13.438,-0.018 0.511,10e-4 0.768,0.269 0.771,0.777 0.004,0.569 0.002,1.139 10e-4,1.708 C 1.115,-0.132 0.969,0.045 0,0"
               style="fill:#000000;fill-opacity:1;fill-rule:nonzero;stroke:none"
               transform="matrix(3.4291647,0,0,-3.4291647,4433.0452,1213.0849)"
               clip-path="url(#clipPath10455-5-1-1-6-3-4-8)" /></g></g></g></g></g></svg>
