<?xml version="1.0" encoding="UTF-8" standalone="no"?>
<!-- Created with Inkscape (http://www.inkscape.org/) -->

<svg
   version="1.1"
   id="svg1"
   width="213"
   height="213"
   viewBox="0 0 213 213"
   sodipodi:docname="Linotte app main.ai"
   xmlns:inkscape="http://www.inkscape.org/namespaces/inkscape"
   xmlns:sodipodi="http://sodipodi.sourceforge.net/DTD/sodipodi-0.dtd"
   xmlns="http://www.w3.org/2000/svg"
   xmlns:svg="http://www.w3.org/2000/svg">
  <defs
     id="defs1">
    <clipPath
       clipPathUnits="userSpaceOnUse"
       id="clipPath3257-2">
      <path
         d="M 0,1080 H 1920 V 0 H 0 Z"
         transform="translate(-312.86631,-221.64293)"
         id="path3257-2" />
    </clipPath>
  </defs>
  <sodipodi:namedview
     id="namedview1"
     pagecolor="#ffffff"
     bordercolor="#000000"
     borderopacity="0.25"
     inkscape:showpageshadow="2"
     inkscape:pageopacity="0.0"
     inkscape:pagecheckerboard="0"
     inkscape:deskcolor="#d1d1d1"
     showgrid="false"
     inkscape:zoom="0.44394258"
     inkscape:cx="571.01979"
     inkscape:cy="1874.1162"
     inkscape:window-width="1472"
     inkscape:window-height="844"
     inkscape:window-x="0"
     inkscape:window-y="34"
     inkscape:window-maximized="0"
     inkscape:current-layer="layer-MC0">
    <inkscape:page
       x="0"
       y="0"
       width="213"
       height="213"
       id="page2"
       margin="0"
       bleed="0" />
  </sodipodi:namedview>
  <g
     id="layer-MC0"
     inkscape:groupmode="layer"
     inkscape:label="Livello 1"
     transform="translate(-17.132568,-1542.7076)">
    <g
       id="g10487">
      <rect
         style="fill:#4f4f4f;fill-opacity:0;stroke:#000000;stroke-width:0;stroke-linecap:round;stroke-miterlimit:1.4;stroke-dasharray:none;stroke-opacity:1;paint-order:markers stroke fill"
         id="rect10482-7"
         width="213"
         height="213"
         x="17.132603"
         y="1542.7076"
         ry="0" />
      <path
         id="path3256-1"
         d="m 0,0 10.116,13.556 c 1.443,0.204 2.667,0.308 3.67,0.308 4.325,0 8.02,-1.417 11.084,-4.249 3.063,-2.833 4.595,-6.178 4.595,-10.041 0,-7.415 -4.48,-14.623 -13.438,-21.626 3.526,-1.056 9.112,-1.636 16.76,-1.737 l -1.275,-3.129 c -1.339,-3.398 -2.795,-5.664 -4.364,-6.796 -1.597,-1.132 -3.308,-1.7 -5.137,-1.7 -1.339,0 -3.771,0.386 -7.298,1.159 -6.309,1.39 -11.418,2.239 -15.332,2.549 2.368,2.78 3.978,4.595 4.827,5.446 2.087,2.163 3.835,4.098 5.252,5.812 1.415,1.711 2.46,3.122 3.129,4.228 1.544,2.522 2.317,5.214 2.317,8.071 0,2.782 -0.812,4.995 -2.434,6.642 C 10.85,0.115 8.572,0.927 5.637,0.927 3.861,0.927 1.981,0.617 0,0"
         style="fill:#593117;fill-opacity:1;fill-rule:nonzero;stroke:none"
         transform="matrix(1.3333333,0,0,-1.3333333,102.18727,1634.841)"
         clip-path="url(#clipPath3257-2)" />
    </g>
  </g>
</svg>
