<?xml version="1.0" encoding="UTF-8" standalone="no"?>
<!-- Created with Inkscape (http://www.inkscape.org/) -->

<svg
   version="1.1"
   id="svg1"
   width="213"
   height="213"
   viewBox="0 0 213 213"
   sodipodi:docname="Linotte app main.ai"
   xmlns:inkscape="http://www.inkscape.org/namespaces/inkscape"
   xmlns:sodipodi="http://sodipodi.sourceforge.net/DTD/sodipodi-0.dtd"
   xmlns="http://www.w3.org/2000/svg"
   xmlns:svg="http://www.w3.org/2000/svg">
  <defs
     id="defs1">
    <clipPath
       clipPathUnits="userSpaceOnUse"
       id="clipPath3307-7">
      <path
         d="M 0,1080 H 1920 V 0 H 0 Z"
         transform="translate(-329.25671,-717.63122)"
         id="path3307-4" />
    </clipPath>
  </defs>
  <sodipodi:namedview
     id="namedview1"
     pagecolor="#ffffff"
     bordercolor="#000000"
     borderopacity="0.25"
     inkscape:showpageshadow="2"
     inkscape:pageopacity="0.0"
     inkscape:pagecheckerboard="0"
     inkscape:deskcolor="#d1d1d1"
     showgrid="false"
     inkscape:zoom="0.44394258"
     inkscape:cx="571.01979"
     inkscape:cy="1874.1162"
     inkscape:window-width="1472"
     inkscape:window-height="844"
     inkscape:window-x="0"
     inkscape:window-y="34"
     inkscape:window-maximized="0"
     inkscape:current-layer="layer-MC0">
    <inkscape:page
       x="0"
       y="0"
       width="213"
       height="213"
       id="page2"
       margin="0"
       bleed="0" />
  </sodipodi:namedview>
  <g
     id="layer-MC0"
     inkscape:groupmode="layer"
     inkscape:label="Livello 1"
     transform="translate(-17.132568,-1820.75)">
    <g
       id="g10493">
      <path
         id="path3306-1"
         d="m 0,0 -1.106,-4.562 -6.499,-26.811 c -0.883,-3.644 -0.353,-7.401 1.463,-10.657 l -0.95,-0.448 c -4.231,0.924 -7.272,4.832 -6.968,9.278 l 3.359,48.996 0.097,1.419 c 0.082,1.197 0.405,2.325 0.913,3.344 0.501,1.002 1.185,1.893 2.005,2.635 1.58,1.428 3.665,2.3 5.934,2.3 0.206,0 0.413,-0.008 0.621,-0.022 L 8.33,24.823 C 6.404,22.937 4.974,20.516 4.3,17.737 L 1.106,4.562 Z m -26.15,-37.277 -7.777,49.931 c -0.366,2.345 0.203,4.692 1.603,6.608 1.4,1.918 3.463,3.174 5.808,3.54 l 9.999,1.557 c 0.565,-0.326 1.092,-0.711 1.574,-1.153 -0.859,-1.699 -1.4,-3.586 -1.537,-5.589 l -3.456,-50.414 c -0.314,-4.595 1.52,-8.849 4.641,-11.781 l -0.707,-0.111 c -4.875,-0.773 -9.408,2.673 -10.148,7.412 m -7.819,-8.045 -21.546,45.708 c -1.012,2.147 -1.127,4.559 -0.324,6.793 0.803,2.234 2.427,4.022 4.574,5.033 l 11.834,5.578 c -0.514,-1.946 -0.635,-3.994 -0.316,-6.043 l 7.779,-49.93 c 0.846,-5.435 4.511,-9.752 9.38,-11.57 -1.067,-0.436 -2.185,-0.67 -3.335,-0.67 -3.427,0 -6.586,2.002 -8.046,5.101 M 55.804,5.252 43.899,-43.859 c -0.97,-4.001 -4.517,-6.795 -8.627,-6.795 -0.702,0 -1.41,0.085 -2.102,0.253 l -3.606,0.874 -8.503,2.061 -6.581,1.596 -7.407,1.795 -2.412,0.585 c -0.018,0.004 -0.034,0.011 -0.051,0.015 l 0.163,0.077 -0.554,0.038 c -1.015,0.302 -1.955,0.768 -2.784,1.388 -0.069,0.051 -0.134,0.109 -0.202,0.163 -0.797,0.633 -1.491,1.401 -2.041,2.293 -0.008,0.012 -0.017,0.023 -0.024,0.035 -1.236,2.027 -1.608,4.414 -1.049,6.72 l 4.777,19.708 1.106,4.562 1.106,4.561 4.916,20.28 c 0.408,1.682 1.276,3.147 2.445,4.284 0.741,0.721 1.601,1.313 2.549,1.738 0.89,0.398 1.855,0.653 2.862,0.739 0.254,0.022 0.511,0.034 0.77,0.034 0.703,0 1.41,-0.085 2.103,-0.253 l 14.205,-3.443 3.72,-0.902 3.274,-0.794 7.31,-1.771 c 2.306,-0.56 4.257,-1.984 5.493,-4.011 1.236,-2.025 1.608,-4.412 1.049,-6.719 m 3.98,9.786 c -2.055,3.37 -5.299,5.737 -9.135,6.668 l -12.373,2.999 c -2.464,2.623 -5.873,4.372 -9.739,4.637 l -15.902,1.09 c -2.462,1.819 -5.501,2.883 -8.785,2.883 -0.761,0 -1.531,-0.06 -2.288,-0.179 l -17.197,-2.678 c -1.671,0.648 -3.469,1.002 -5.315,1.002 -2.186,0 -4.303,-0.475 -6.293,-1.412 L -53.776,17.54 c -7.371,-3.473 -10.54,-12.295 -7.067,-19.665 l 21.546,-45.71 c 2.428,-5.15 7.677,-8.478 13.374,-8.478 2.185,0 4.302,0.475 6.291,1.413 l 11.68,5.505 4.307,0.671 6.85,-0.47 c 0.023,-0.006 0.045,-0.014 0.069,-0.02 l 28.508,-6.911 c 1.146,-0.277 2.321,-0.419 3.49,-0.419 6.838,0 12.738,4.646 14.351,11.298 L 61.528,3.865 c 0.93,3.835 0.31,7.803 -1.744,11.173"
         style="fill:#593117;fill-opacity:1;fill-rule:nonzero;stroke:none"
         transform="matrix(1.3333333,0,0,-1.3333333,123.83419,1911.764)"
         clip-path="url(#clipPath3307-7)" />
      <rect
         style="fill:#4f4f4f;fill-opacity:0;stroke:#000000;stroke-width:0;stroke-linecap:round;stroke-miterlimit:1.4;stroke-dasharray:none;stroke-opacity:1;paint-order:markers stroke fill"
         id="rect10482-7-5"
         width="213"
         height="213"
         x="17.132603"
         y="1820.75"
         ry="0" />
    </g>
  </g>
</svg>
