<?xml version="1.0" encoding="UTF-8" standalone="no"?>
<!-- Created with Inkscape (http://www.inkscape.org/) -->

<svg
   version="1.1"
   id="svg1"
   width="213"
   height="213"
   viewBox="0 0 213 213"
   sodipodi:docname="Linotte app main.ai"
   xmlns:inkscape="http://www.inkscape.org/namespaces/inkscape"
   xmlns:sodipodi="http://sodipodi.sourceforge.net/DTD/sodipodi-0.dtd"
   xmlns="http://www.w3.org/2000/svg"
   xmlns:svg="http://www.w3.org/2000/svg">
  <defs
     id="defs1" />
  <sodipodi:namedview
     id="namedview1"
     pagecolor="#ffffff"
     bordercolor="#000000"
     borderopacity="0.25"
     inkscape:showpageshadow="2"
     inkscape:pageopacity="0.0"
     inkscape:pagecheckerboard="0"
     inkscape:deskcolor="#d1d1d1"
     showgrid="false"
     inkscape:zoom="0.44394258"
     inkscape:cx="571.01979"
     inkscape:cy="1874.1162"
     inkscape:window-width="1472"
     inkscape:window-height="844"
     inkscape:window-x="0"
     inkscape:window-y="34"
     inkscape:window-maximized="0"
     inkscape:current-layer="layer-MC0">
    <inkscape:page
       x="0"
       y="0"
       width="213"
       height="213"
       id="page2"
       margin="0"
       bleed="0" />
  </sodipodi:namedview>
  <g
     id="layer-MC0"
     inkscape:groupmode="layer"
     inkscape:label="Livello 1"
     transform="translate(-284.95117,-1820.75)">
    <g
       id="g10494">
      <path
         id="path1888-4"
         style="fill:#5a3116;fill-opacity:1;stroke:none;stroke-width:1.33333"
         d="m 427.64939,1865.2445 c -0.51034,-0.01 -1.03797,0.1073 -1.54297,0.3594 -1.37867,0.6933 -2.65502,1.6828 -3.79102,2.9375 -2.41733,2.676 -4.00415,5.9491 -5.02148,10.4238 -4.10267,0.716 -8.2014,1.4533 -12.16406,2.2773 -0.87867,-1.26 -1.90616,-2.3228 -3.04883,-3.1601 -0.32933,-0.2414 -0.52992,-0.5276 -0.66992,-0.961 l -0.24219,-0.748 c -0.37067,-1.1507 -0.74168,-2.3053 -1.15234,-3.4453 -0.54267,-1.5027 -2.25294,-2.3254 -3.82227,-1.8321 -1.556,0.4894 -2.40176,2.0092 -2.00976,3.6172 0.0173,0.067 0.0341,0.1359 0.0527,0.2012 -1.85867,-0.22 -3.68911,-0.2205 -5.53711,-0.01 0.42267,-1.668 -0.33342,-3.2396 -1.85742,-3.7929 -1.62267,-0.588 -3.40896,0.312 -4.01563,2.0254 -0.49066,1.384 -0.95434,2.7804 -1.40234,4.1777 -0.10267,0.3173 -0.22503,0.498 -0.45703,0.666 -0.98134,0.716 -2.08822,1.61 -2.82422,2.834 -0.376,0.6227 -0.51584,0.3654 -0.83984,0.3027 -3.87734,-0.7453 -7.76341,-1.447 -11.69141,-2.1523 -0.44667,-2.2933 -1.25682,-4.5521 -2.41016,-6.7188 -1.60533,-3.012 -3.65009,-5.1585 -6.24609,-6.5625 -1.65067,-0.8973 -3.54065,-0.3661 -4.33398,1.1739 -0.80667,1.5613 -0.23471,3.3011 1.39062,4.2304 0.852,0.488 1.5551,1.0556 2.14844,1.7383 1.86133,2.1467 3.01114,4.8684 3.61914,8.5684 0.35066,2.1373 1.18359,3.0184 3.18359,3.373 l 5.52344,0.9883 c 2.14133,0.384 4.28475,0.769 6.46875,1.1543 -1.42,4.2147 -1.97274,8.871 -1.69141,14.207 0.18934,3.5187 2.83484,6.1348 6.4375,6.3575 1.34151,0.078 2.62489,-0.067 3.86719,-0.3321 -1.52914,0.9559 -2.72931,2.2451 -3.58398,3.8594 -0.16667,0.316 -0.29754,0.6364 -0.40821,0.9551 -0.94666,-1.156 -1.86679,-2.2785 -2.82812,-3.3692 -0.24134,-0.272 -0.46031,-0.5666 -0.68164,-0.8613 -0.62534,-0.8307 -1.33566,-1.7741 -2.48633,-2.3555 -3.30267,-1.6733 -6.61431,-3.3365 -9.93164,-4.9765 -0.26667,-0.1307 -0.35483,-0.2357 -0.4375,-0.4024 -1.504,-3.0213 -3.01792,-6.0393 -4.53125,-9.0566 l -2.39649,-4.7774 c -0.856,-1.7026 -2.73278,-2.383 -4.30078,-1.539 -1.58666,0.8587 -2.05662,2.6685 -1.14062,4.3965 0.492,0.9333 0.96355,1.8757 1.43554,2.8183 0.404,0.804 0.80666,1.6089 1.22266,2.4063 1.20933,2.3266 2.35848,4.683 3.50781,7.039 l 1.23438,2.5254 c 0.34533,0.7 0.88816,1.2268 1.66015,1.6055 3.34,1.652 6.67768,3.3068 10.01368,4.9668 0.38533,0.192 0.70028,0.4443 0.98828,0.7949 0.99733,1.208 2.00248,2.4093 3.00781,3.6133 1.33067,1.5907 2.66394,3.1837 3.97461,4.7891 0.22133,0.272 0.46551,0.5272 0.71484,0.7832 0.43867,0.4533 0.85114,0.8798 0.98047,1.3105 0.31867,1.076 0.54535,2.1796 0.77735,3.3223 l -2.72071,-0.7403 c -4.54133,-1.2346 -9.03348,-2.456 -13.52148,-3.6933 -1.09733,-0.304 -2.01731,-0.1909 -2.94531,0.3437 -2.15067,1.2427 -4.30689,2.4738 -6.46289,3.7032 l -5.35938,3.0664 c -0.36933,0.2133 -0.71659,0.3027 -1.16992,0.3027 -2.96667,-0.013 -5.93249,-0.014 -8.89649,-0.014 h -6.26953 c -0.64,0 -2.33912,5e-4 -3.20312,1.6192 -0.52934,0.9946 -0.51994,2.086 0.0254,2.998 0.58,0.9693 1.68122,1.5501 2.94922,1.5527 l 16.47265,0.012 c 0.768,0 1.45437,-0.1815 2.09571,-0.5508 l 11.59375,-6.6133 c 0.29066,-0.164 0.41112,-0.1851 0.70312,-0.1465 0.82534,0.272 1.67029,0.4879 2.51563,0.7012 l 5.41015,1.459 c 3.58134,0.98 7.16396,1.9611 10.75196,2.9238 l 0.125,0.041 0.10156,0.2324 c 0.388,1.0547 0.78824,2.1454 1.51758,3.3321 -0.0253,0.019 -0.0514,0.037 -0.082,0.059 -3.732,2.576 -7.44807,5.1747 -11.16407,7.7734 l -5.53906,3.8691 c -0.55867,0.3934 -1.25071,0.9708 -1.60937,1.9668 l -2.39844,6.6426 c -1.48267,4.0907 -2.9633,8.1819 -4.41797,12.2832 -0.28133,0.7907 -0.7,1.4005 -1.36133,1.9805 -5.15467,4.5187 -10.29307,9.055 -15.42773,13.5977 -0.764,0.6746 -1.19366,1.4901 -1.23633,2.3554 -0.0413,0.8187 0.26548,1.6061 0.88281,2.2754 0.55733,0.6027 1.30538,0.9336 2.10938,0.9336 0.81733,0 1.65785,-0.3486 2.36718,-0.9766 l 4.53125,-4.0156 c 3.34134,-2.9573 6.684,-5.9164 10,-8.9004 0.232,-0.2106 0.47227,-0.4113 0.71094,-0.6113 1.068,-0.8973 2.27838,-1.9133 2.87305,-3.6133 1.244,-3.5573 2.52655,-7.1025 3.81055,-10.6465 0.93599,-2.584 1.87163,-5.1671 2.79296,-7.7578 0.18534,-0.524 0.45688,-0.8668 0.93555,-1.1894 1.38,-0.928 2.74414,-1.8813 4.10547,-2.836 l 1.25391,-0.8789 c 3.55466,-2.4893 7.10988,-4.9803 10.56054,-7.4883 0.66793,0.4901 1.28762,0.8534 1.88672,1.0938 -3.57432,0.5919 -6.58326,2.6565 -9.17969,6.2969 -3.50933,4.9226 -5.27072,10.6211 -5.38672,17.4238 -0.0373,2.1533 0.17539,4.2771 0.63672,6.3144 1.32934,5.8787 3.94853,10.2251 8.00586,13.2891 2.17734,1.6427 4.9168,2.5469 7.7168,2.5469 2.868,0 5.66619,-0.9417 7.88086,-2.6524 3.66267,-2.8266 6.1099,-6.6439 7.47656,-11.6679 1.636,-6.0227 1.35225,-12.2224 -0.84375,-18.4278 -1.57466,-4.4546 -3.75907,-7.8117 -6.67773,-10.2597 -1.89165,-1.5881 -3.87606,-2.5541 -5.98242,-2.8907 0.59178,-0.2249 1.2199,-0.5495 1.90625,-0.9687 3.58,2.5227 7.16847,5.0349 10.75781,7.5469 l 5.30859,3.7207 c 0.34267,0.2413 0.49549,0.3656 0.54883,0.5136 l 6.76758,18.7676 c 0.436,1.2054 1.09233,2.1835 2.01367,2.9942 5.37866,4.7333 10.7287,9.4951 16.08203,14.2578 1.46267,1.3013 3.40892,1.3057 4.54492,0.039 0.596,-0.6586 0.88518,-1.4317 0.83984,-2.2343 -0.048,-0.8667 -0.48376,-1.6896 -1.25976,-2.3789 l -5.17774,-4.5879 c -3.44933,-3.056 -6.89984,-6.1105 -10.33984,-9.1758 l -0.24609,-0.2129 c -0.36267,-0.312 -0.57297,-0.502 -0.6543,-0.75 -0.39733,-1.2053 -0.83672,-2.3972 -1.27539,-3.5879 l -5.88281,-16.1562 c -0.27734,-0.764 -0.74922,-1.372 -1.44922,-1.8614 l -10.38281,-7.2636 c -2.13867,-1.496 -4.27764,-2.9928 -6.54297,-4.5528 0.60133,-1.0106 1.01406,-2.0805 1.41406,-3.1152 l 0.1875,-0.4668 c 6.21734,-1.672 12.43077,-3.3549 18.63477,-5.0723 0.29866,-0.081 0.4023,-0.1726 0.93164,0.1367 1.392,0.808 2.79088,1.6096 4.18554,2.4082 1.924,1.1014 3.84653,2.2022 5.75586,3.3262 1.66134,0.9787 3.23978,1.4375 5.17578,1.4375 h 0.0137 c 2.04,-0.044 4.07976,-0.057 6.1211,-0.057 l 8.60351,0.023 c 0.276,0 0.55222,-0.01 0.82422,-0.039 1.04133,-0.12 1.94783,-0.7328 2.42383,-1.6368 0.46933,-0.888 0.46304,-1.9606 -0.0156,-2.8632 -0.39333,-0.744 -1.23315,-1.6329 -3.00781,-1.6329 h -9.125 c -1.95067,0 -3.90158,0 -5.87891,0.014 -0.7,0 -1.27228,-0.1504 -1.84961,-0.4824 -2.352,-1.36 -4.71155,-2.7023 -7.07422,-4.0449 l -4.59765,-2.6192 c -0.82934,-0.4746 -1.65334,-0.5901 -2.5,-0.3554 -3.14534,0.8706 -6.28888,1.7403 -9.43555,2.5976 l -7.05664,1.9024 c 0.232,-0.9654 0.45253,-1.9031 0.64453,-2.8458 0.0867,-0.4226 0.16831,-0.6331 0.32031,-0.8144 l 2.7207,-3.2734 c 1.56,-1.8787 3.11984,-3.7559 4.70118,-5.6172 l 0.45898,-0.5684 c 0.516,-0.6493 0.96218,-1.2083 1.60352,-1.5137 1.31066,-0.6253 2.60953,-1.2764 3.9082,-1.9257 1.67067,-0.8374 3.34111,-1.6757 5.03711,-2.4571 1.48667,-0.6853 2.5208,-1.7542 3.35547,-3.4609 1.89867,-3.8893 3.8463,-7.7519 5.79297,-11.6172 l 0.95312,-1.8945 c 0.892,-1.768 0.46163,-3.4612 -1.0957,-4.3106 -1.57067,-0.8626 -3.56144,-0.1501 -4.41211,1.5606 l -6.7793,13.6113 c -0.0893,0.1827 -0.19958,0.412 -0.26758,0.4453 l -1.18359,0.5801 c -2.45733,1.2067 -4.91218,2.4138 -7.35351,3.6484 -0.21067,0.104 -0.4272,0.1996 -0.64454,0.2969 -0.75066,0.3293 -1.60143,0.704 -2.27343,1.4707 -0.72934,0.832 -1.42953,1.685 -2.13086,2.541 l -2.62305,3.1485 c -0.79494,-2.0706 -2.13873,-3.6904 -4.02148,-4.8457 1.02362,0.2252 2.07726,0.371 3.17187,0.371 l 0.57227,-0.014 c 3.67066,-0.1734 6.37989,-2.7295 6.58789,-6.2149 0.324,-5.376 -0.21746,-10.0441 -1.68946,-14.3574 4.116,-0.7187 8.22661,-1.4827 12.33594,-2.248 1.73867,-0.3254 2.56925,-1.1961 2.78125,-2.9121 0.14267,-1.148 0.41213,-2.32 0.82813,-3.584 1.196,-3.6387 2.70926,-5.7692 5.05859,-7.1172 1.55467,-0.8947 2.11909,-2.5927 1.37109,-4.1367 -0.51333,-1.0533 -1.54913,-1.6633 -2.67187,-1.6797 z m -35.48828,15.6289 c 1.85543,0.102 3.56189,0.5706 5.08789,1.4316 0.16,0.089 0.3148,0.1882 0.46679,0.2989 -0.75466,0.364 -1.29224,0.9979 -1.51757,1.8339 -0.53067,1.9774 0.27301,2.9903 1.04101,3.4903 0.85334,0.5573 2.0059,0.5704 3.11524,0.3984 l 0.18359,-0.037 0.20313,-0.021 c 0.504,-0.073 0.87044,-0.1333 1.0371,-0.2519 0.10267,0.1386 0.29198,0.7406 0.44532,1.2246 0.852,2.6933 1.22626,4.9849 1.18359,7.2129 -0.012,0.672 0.0328,1.3442 0.0781,2.0175 0.0347,0.516 0.0716,1.0322 0.0742,1.5469 0.003,0.54 -0.10035,0.9408 -0.29102,1.1328 -0.216,0.2227 -0.72514,0.2881 -1.36914,0.1934 -2.328,-0.3387 -4.50336,-1.1473 -6.80469,-2.002 l -0.3457,-0.1289 c -1.16934,-0.4333 -2.26251,-0.6445 -3.33985,-0.6445 -0.888,0 -1.77467,0.15 -2.63867,0.4434 l -1.71875,0.6093 c -1.59333,0.572 -3.09925,1.1139 -4.66992,1.4766 -0.68133,0.156 -1.24846,0.2578 -1.8418,0.2578 h -0.002 c -0.89067,-0.01 -1.14688,-0.2546 -1.18555,-1.1426 -0.016,-0.408 -0.0112,-0.8172 -0.006,-1.2265 l 0.004,-0.6094 c -0.0413,-3.0693 0.44118,-6.3158 1.47852,-9.9238 0.0533,-0.1854 0.0947,-0.3008 0.10937,-0.3555 0.12533,0 0.26879,0.023 0.43945,0.053 0.73867,0.1227 1.48381,0.2378 2.23047,0.3418 l 0.29883,0.023 c 1.08533,0 2.54133,-0.8693 2.86133,-2.0293 0.44267,-1.6054 -0.25527,-3.3229 -1.58594,-3.9082 -0.009,-0.01 -0.0174,-0.01 -0.0254,-0.01 1.53467,-0.9787 3.24494,-1.5411 5.09961,-1.6758 0.65033,-0.046 1.28582,-0.053 1.9043,-0.02 z m -0.48438,30.4062 c 1.09334,0 2.06847,0.1411 2.98047,0.4278 2.18,0.688 2.96938,1.5611 3.24805,3.5918 0.144,1.0626 -0.0467,2.2149 -0.24805,3.4336 l -0.0703,0.4355 c -0.556,3.436 -1.48067,6.8972 -2.75,10.2852 -0.78133,2.08 -1.58636,4.2287 -3.17969,5.8046 -0.0893,0.089 -0.15869,0.1476 -0.19336,0.1876 -0.0493,-0.04 -0.11574,-0.1 -0.20508,-0.1876 -1.75866,-1.7533 -2.58873,-4.0614 -3.55273,-6.7441 -0.95333,-2.648 -1.70018,-5.5391 -2.35352,-9.0937 -0.14666,-0.8067 -0.23392,-1.6268 -0.30859,-2.3282 l -0.0879,-0.7187 c 0,-2.7227 1.41442,-4.443 3.98242,-4.8496 1.02533,-0.164 1.92095,-0.2442 2.73828,-0.2442 z m -0.16211,36.1895 c 1.06267,0 2.12219,0.3963 3.24219,1.2109 0.65067,0.472 1.23664,1.0627 1.91797,1.8067 1.68,1.8386 2.91534,4.1774 3.88867,7.3574 0.84533,2.7547 1.21552,5.5424 1.10352,8.289 -0.188,4.5854 -1.43021,8.3113 -3.79688,11.3926 -1.412,1.8374 -3.0542,2.9895 -5.01953,3.5215 -0.192,0.051 -0.42597,0.057 -0.91797,0.057 -0.26666,0.015 -0.60484,0 -0.96484,0.031 -1.50267,0 -2.96309,-0.7114 -4.73242,-2.3047 -2.09867,-1.888 -3.45206,-4.4201 -4.38672,-8.2187 -0.58,-2.3494 -0.7542,-4.7619 -0.51953,-7.1739 0.29066,-2.968 0.90238,-5.5685 1.87304,-7.9511 0.88934,-2.18 2.02466,-3.9682 3.47266,-5.4668 1.09333,-1.1294 2.01536,-1.7885 3.08203,-2.2032 0.604,-0.2346 1.17915,-0.3476 1.75781,-0.3476 z"
         sodipodi:nodetypes="sccccssccsccccsccccccccccsccccccsccccccsccccccccsccscccscccccsscscccccccccccccccccccccsccccssccsscccsccsccccccccccsscccsccccccscccccssssccccccccccccccsccccccsccccccscccsccccccccccccssccccccccccssccscscccsscccsccccscccsscccscccccccccssccccsccccccccssssc" />
      <rect
         style="fill:#4f4f4f;fill-opacity:0;stroke:#000000;stroke-width:0;stroke-linecap:round;stroke-miterlimit:1.4;stroke-dasharray:none;stroke-opacity:1;paint-order:markers stroke fill"
         id="rect10482-7-8-1"
         width="213"
         height="213"
         x="284.95129"
         y="1820.75"
         ry="0" />
    </g>
  </g>
</svg>
