<?xml version="1.0" encoding="UTF-8" standalone="no"?>
<!-- Created with Inkscape (http://www.inkscape.org/) -->

<svg
   version="1.1"
   id="svg1"
   width="180.86133"
   height="180.86328"
   viewBox="0 0 180.86133 180.86328"
   sodipodi:docname="Linotte app main inkscape.ai"
   inkscape:version="1.4.2 (ebf0e940, 2025-05-08)"
   xml:space="preserve"
   xmlns:inkscape="http://www.inkscape.org/namespaces/inkscape"
   xmlns:sodipodi="http://sodipodi.sourceforge.net/DTD/sodipodi-0.dtd"
   xmlns="http://www.w3.org/2000/svg"
   xmlns:svg="http://www.w3.org/2000/svg"><defs
     id="defs1"><clipPath
       clipPathUnits="userSpaceOnUse"
       id="clipPath3423-1"><path
         d="M 0,1080 H 1920 V 0 H 0 Z"
         transform="translate(-216.8203,-547.50101)"
         id="path3423-9" /></clipPath></defs><sodipodi:namedview
     id="namedview1"
     pagecolor="#ffffff"
     bordercolor="#000000"
     borderopacity="0.25"
     inkscape:showpageshadow="2"
     inkscape:pageopacity="0.0"
     inkscape:pagecheckerboard="0"
     inkscape:deskcolor="#d1d1d1"
     showgrid="false"
     inkscape:zoom="0.15362997"
     inkscape:cx="2027.5992"
     inkscape:cy="1100.0458"
     inkscape:window-width="1472"
     inkscape:window-height="844"
     inkscape:window-x="0"
     inkscape:window-y="34"
     inkscape:window-maximized="0"
     inkscape:current-layer="g3654"><inkscape:page
       x="0"
       y="0"
       width="180.86133"
       height="180.86328"
       id="page2"
       margin="0"
       bleed="0" /></sodipodi:namedview><g
     id="layer-MC0"
     inkscape:groupmode="layer"
     inkscape:label="Livello 1"
     transform="translate(-2661.2239,-85.800294)"><g
       id="g10"
       style="fill:#000000;fill-opacity:0.5"
       transform="translate(9.688705,-30.646976)"><path
         id="path3422-6"
         clip-path="url(#clipPath3423-1)"
         style="fill:#000000;fill-opacity:0.5;fill-rule:nonzero;stroke:#ffffff;stroke-width:0;stroke-linecap:butt;stroke-linejoin:miter;stroke-miterlimit:10;stroke-dasharray:none;stroke-opacity:0.527273;paint-order:markers stroke fill"
         d="m -49.587052,49.587204 c -27.386,0 -49.586191,-22.201262 -49.586191,-49.587262261097 C -99.173243,-27.386058 -76.973052,-49.587321 -49.587052,-49.587321 c 27.386,0 49.58726276809,22.201263 49.58726276809,49.587262738903 C 2.1076809e-4,27.385942 -22.201052,49.587204 -49.587052,49.587204 Z m 0,-6.003892 c 24.070404,0 43.583371,-19.512967 43.583371,-43.583370261097 C -6.003681,-24.070462 -25.516648,-43.583429 -49.587052,-43.583429 c -24.070403,0 -43.582299,19.512967 -43.582299,43.583370738903 C -93.169351,24.070345 -73.657455,43.583312 -49.587052,43.583312 Z"
         transform="matrix(1.8236869,0,0,-1.8236869,2832.3961,206.8788)" /><path
         style="fill:#000000;fill-opacity:0.5;stroke-width:0.249825"
         d="m 2733.3027,253.76047 c -4.575,-1.22114 -8.7982,-4.73447 -10.5504,-8.77719 l -0.5667,-1.30731 -14.3784,-0.005 -14.3783,-0.005 -1.3089,-0.65228 c -3.641,-1.81439 -3.7403,-7.06746 -0.1721,-9.11413 l 1.2579,-0.72156 14.5021,-0.002 14.5023,-0.002 0.3187,-0.88145 c 0.5919,-1.63705 2.7909,-4.601 4.3637,-5.88206 1.8489,-1.50581 4.4507,-2.82756 6.6552,-3.38108 2.3938,-0.601 6.5347,-0.38681 8.9395,0.46241 4.1009,1.44811 7.6571,4.71931 9.3018,8.55625 l 0.4826,1.12593 19.8075,0.002 19.8075,0.002 1.284,0.73636 c 1.5747,0.90323 2.5884,2.67549 2.5884,4.52581 0,1.88042 -1.0754,3.66959 -2.7227,4.5302 l -1.3316,0.6956 h -19.6949 -19.6949 l -0.7527,1.5614 c -2.0228,4.19605 -6.1112,7.50267 -10.5787,8.55603 -1.9751,0.46571 -5.8912,0.45327 -7.6809,-0.0243 z m 43.7517,-31.59265 c -4.6599,-0.83267 -9.389,-4.40812 -11.4225,-8.63577 l -0.886,-1.84223 h -35.6585 -35.6585 l -1.3089,-0.65229 c -3.641,-1.81438 -3.7403,-7.06746 -0.1721,-9.11413 l 1.2579,-0.72156 35.7659,-0.002 35.7658,-0.002 0.945,-1.93614 c 1.7974,-3.68243 5.7662,-6.95268 9.9656,-8.21158 2.0566,-0.61649 6.4384,-0.61732 8.4792,-0.001 2.873,0.86682 4.8801,2.08243 7.011,4.24642 3.2424,3.29253 4.6208,6.61827 4.6208,11.14924 0,4.54118 -1.3828,7.87228 -4.6208,11.13139 -2.1169,2.13083 -4.2525,3.44144 -6.8712,4.21685 -1.6982,0.50284 -5.4179,0.69682 -7.2127,0.3761 z m -64.6121,-32.24094 c -2.5191,-0.57423 -5.3881,-2.08355 -7.3784,-3.88166 -1.2905,-1.16596 -3.0568,-3.6179 -3.7191,-5.16301 l -0.5015,-1.17002 h -3.7073 c -3.4955,0 -3.7818,-0.0373 -5.016,-0.65228 -3.641,-1.81438 -3.7403,-7.06746 -0.1721,-9.11413 1.2348,-0.70833 1.3276,-0.7216 5.055,-0.7239 l 3.7971,-0.002 0.7528,-1.56141 c 2.0228,-4.19604 6.1111,-7.50267 10.5786,-8.55603 2.0351,-0.47983 5.6888,-0.47542 7.5659,0.009 4.6964,1.21235 8.872,4.65463 10.6656,8.79245 l 0.5665,1.30732 30.4787,0.007 30.4786,0.007 1.284,0.73636 c 1.5747,0.90323 2.5884,2.67549 2.5884,4.52581 0,1.88042 -1.0754,3.66959 -2.7227,4.5302 l -1.3316,0.6956 -30.3877,0.005 -30.3877,0.005 -0.5665,1.30732 c -1.7844,4.11673 -5.9932,7.58627 -10.6656,8.79244 -1.6311,0.42106 -5.6179,0.47952 -7.255,0.10635 z"
         id="path1"
         sodipodi:nodetypes="sscccsscccssssscccssscccsssscscccsscccsscsssscccsscsssscsssscccssscccsscc" /></g></g></svg>
