<?xml version="1.0" encoding="UTF-8" standalone="no"?>
<!-- Created with Inkscape (http://www.inkscape.org/) -->

<svg
   version="1.1"
   id="svg1"
   width="384.30859"
   height="384.30899"
   viewBox="0 0 384.30859 384.30899"
   sodipodi:docname="Linotte app main inkscape.ai"
   inkscape:version="1.4.2 (ebf0e940, 2025-05-08)"
   xml:space="preserve"
   xmlns:inkscape="http://www.inkscape.org/namespaces/inkscape"
   xmlns:sodipodi="http://sodipodi.sourceforge.net/DTD/sodipodi-0.dtd"
   xmlns="http://www.w3.org/2000/svg"
   xmlns:svg="http://www.w3.org/2000/svg"><defs
     id="defs1" /><sodipodi:namedview
     id="namedview1"
     pagecolor="#ffffff"
     bordercolor="#000000"
     borderopacity="0.25"
     inkscape:showpageshadow="2"
     inkscape:pageopacity="0.0"
     inkscape:pagecheckerboard="0"
     inkscape:deskcolor="#d1d1d1"
     showgrid="false"
     inkscape:zoom="0.17208049"
     inkscape:cx="6284.8496"
     inkscape:cy="1080.8895"
     inkscape:window-width="1472"
     inkscape:window-height="844"
     inkscape:window-x="0"
     inkscape:window-y="33"
     inkscape:window-maximized="0"
     inkscape:current-layer="layer-MC0"><inkscape:page
       x="0"
       y="0"
       width="384.30859"
       height="384.30899"
       id="page2"
       margin="0"
       bleed="0" /></sodipodi:namedview><g
     id="layer-MC0"
     inkscape:groupmode="layer"
     inkscape:label="Livello 1"
     transform="translate(-5036.8519,661.42767)"><g
       id="g11853"
       transform="translate(399.40497,-2099.2848)"><path
         id="rect11848-1-0"
         style="fill:#000000;fill-opacity:0.498233;fill-rule:nonzero;stroke:none;stroke-width:1.93065;stroke-linecap:round;stroke-linejoin:miter;stroke-miterlimit:1.4;stroke-dasharray:none;stroke-dashoffset:0;stroke-opacity:1;paint-order:markers stroke fill"
         d="m 4670.0291,1437.8731 c -18.0504,0 -32.5821,13.9229 -32.5821,31.2169 v 98.4355 c 0,10e-4 0,0 0,0 0,10e-4 0,0 0,0 v 124.9883 c 0,10e-4 0,0 0,0 0,10e-4 0,0 0,0 v 98.4375 c 0,17.294 14.5317,31.2148 32.5821,31.2148 h 319.1445 c 18.0505,0 32.582,-13.9208 32.582,-31.2148 v -98.4418 -223.4356 c 0,-17.2939 -14.5315,-31.2168 -32.582,-31.2168 z m 2.5312,9.3184 h 89.8828 v 115.6777 h -115.6758 v -90.9629 c 0,-13.6919 11.5023,-24.7148 25.793,-24.7148 z m 99.2012,0 h 115.6797 v 115.6777 h -115.6797 z m 124.998,0 h 89.8828 c 14.2908,0 25.795,11.0229 25.795,24.7148 v 90.9629 h -115.6778 z m -249.9922,124.9961 h 115.6758 v 115.6797 h -115.6758 z m 124.9942,0 h 115.6797 v 115.6797 h -115.6797 z m 124.998,0 h 115.6778 v 115.6797 h -115.6778 z m -249.9922,124.9981 h 115.6758 v 115.6777 h -89.8828 c -14.2907,0 -25.793,-11.023 -25.793,-24.7149 z m 124.9942,0 h 115.6797 v 115.6777 h -115.6797 z m 124.998,0 h 115.6778 v 90.9628 c 0,13.6919 -11.5042,24.7149 -25.795,24.7149 h -89.8828 z" /><rect
         style="fill:#000000;fill-opacity:0.498233;fill-rule:nonzero;stroke:none;stroke-width:1.14465;stroke-linecap:round;stroke-linejoin:miter;stroke-miterlimit:1.4;stroke-dasharray:none;stroke-dashoffset:0;stroke-opacity:1;paint-order:markers stroke fill"
         id="rect11852-6"
         width="75.475128"
         height="75.475128"
         x="4255.3237"
         y="2477.8267"
         ry="12.010398"
         transform="rotate(-11.294768)" /><rect
         style="fill:#000000;fill-opacity:0.498233;fill-rule:nonzero;stroke:none;stroke-width:1.14465;stroke-linecap:round;stroke-linejoin:miter;stroke-miterlimit:1.4;stroke-dasharray:none;stroke-dashoffset:0;stroke-opacity:1;paint-order:markers stroke fill"
         id="rect11852-1-2"
         width="75.475128"
         height="75.475128"
         x="4909.4253"
         y="1374.1376"
         ry="12.010398"
         transform="rotate(4.0985185)" /><rect
         style="fill:#000000;fill-opacity:0.498233;fill-rule:nonzero;stroke:none;stroke-width:1.14465;stroke-linecap:round;stroke-linejoin:miter;stroke-miterlimit:1.4;stroke-dasharray:none;stroke-dashoffset:0;stroke-opacity:1;paint-order:markers stroke fill"
         id="rect11852-7-1"
         width="75.475128"
         height="75.475128"
         x="4948.7954"
         y="-1447.4545"
         ry="12.010398"
         transform="rotate(32.739249)" /></g></g></svg>
