<?xml version="1.0" encoding="UTF-8" standalone="no"?>
<!-- Created with Inkscape (http://www.inkscape.org/) -->

<svg
   version="1.1"
   id="svg1"
   width="213.00002"
   height="213"
   viewBox="0 0 213.00002 213"
   sodipodi:docname="Linotte app main inkscape.ai"
   inkscape:version="1.4.2 (ebf0e940, 2025-05-08)"
   xmlns:inkscape="http://www.inkscape.org/namespaces/inkscape"
   xmlns:sodipodi="http://sodipodi.sourceforge.net/DTD/sodipodi-0.dtd"
   xmlns="http://www.w3.org/2000/svg"
   xmlns:svg="http://www.w3.org/2000/svg">
  <defs
     id="defs1">
    <clipPath
       clipPathUnits="userSpaceOnUse"
       id="clipPath3303-5">
      <path
         d="M 0,1080 H 1920 V 0 H 0 Z"
         transform="translate(-329.10221,-583.10932)"
         id="path3303-2" />
    </clipPath>
  </defs>
  <sodipodi:namedview
     id="namedview1"
     pagecolor="#ffffff"
     bordercolor="#000000"
     borderopacity="0.25"
     inkscape:showpageshadow="2"
     inkscape:pageopacity="0.0"
     inkscape:pagecheckerboard="0"
     inkscape:deskcolor="#d1d1d1"
     showgrid="false"
     inkscape:zoom="0.38248747"
     inkscape:cx="515.04956"
     inkscape:cy="2447.139"
     inkscape:window-width="1472"
     inkscape:window-height="844"
     inkscape:window-x="0"
     inkscape:window-y="34"
     inkscape:window-maximized="0"
     inkscape:current-layer="layer-MC0">
    <inkscape:page
       x="0"
       y="0"
       width="213.00002"
       height="213"
       id="page2"
       margin="0"
       bleed="0" />
  </sodipodi:namedview>
  <g
     id="layer-MC0"
     inkscape:groupmode="layer"
     inkscape:label="Livello 1"
     transform="translate(240.28603,-2111.3394)">
    <g
       id="g2"
       transform="translate(59.448751,-1431.1588)"
       inkscape:export-filename="/Users/giannipie/Documents/Repositories/linotte-web/resources/images/g2.png"
       inkscape:export-xdpi="96"
       inkscape:export-ydpi="96">
      <path
         id="path3302-47"
         d="m 0,0 c -23.071,0 -41.84,-18.77 -41.84,-41.841 0,-23.071 18.769,-41.84 41.84,-41.84 23.071,0 41.841,18.769 41.841,41.84 C 41.841,-18.77 23.071,0 0,0 m 0,-89.571 c -26.319,0 -47.73,21.411 -47.73,47.73 0,26.318 21.411,47.731 47.73,47.731 26.319,0 47.731,-21.413 47.731,-47.731 0,-26.319 -21.412,-47.73 -47.731,-47.73"
         style="fill:#ffffff;fill-opacity:1;fill-rule:nonzero;stroke:none"
         transform="matrix(1.3333333,0,0,-1.3333333,-193.23551,3593.2108)"
         clip-path="url(#clipPath3303-5)" />
      <rect
         style="fill:#4f4f4f;fill-opacity:0;stroke:#000000;stroke-width:0;stroke-linecap:round;stroke-miterlimit:1.4;stroke-dasharray:none;stroke-opacity:1;paint-order:markers stroke fill"
         id="rect10482-0-7"
         width="213"
         height="213"
         x="-299.73483"
         y="3542.498"
         ry="0" />
    </g>
  </g>
</svg>
