<?xml version="1.0" encoding="UTF-8" standalone="no"?>
<!-- Created with Inkscape (http://www.inkscape.org/) -->

<svg
   version="1.1"
   id="svg1"
   width="60.657471"
   height="91.941528"
   viewBox="0 0 60.657471 91.941528"
   sodipodi:docname="Linotte app main inkscape.ai"
   inkscape:version="1.4.2 (ebf0e940, 2025-05-08)"
   xml:space="preserve"
   xmlns:inkscape="http://www.inkscape.org/namespaces/inkscape"
   xmlns:sodipodi="http://sodipodi.sourceforge.net/DTD/sodipodi-0.dtd"
   xmlns="http://www.w3.org/2000/svg"
   xmlns:svg="http://www.w3.org/2000/svg"><defs
     id="defs1"><clipPath
       clipPathUnits="userSpaceOnUse"
       id="clipPath10455-5"><path
         d="M 0,1920 H 1080 V 0 H 0 Z"
         transform="translate(-628.48704,-1719.6881)"
         id="path10455-3" /></clipPath></defs><sodipodi:namedview
     id="namedview1"
     pagecolor="#ffffff"
     bordercolor="#000000"
     borderopacity="0.25"
     inkscape:showpageshadow="2"
     inkscape:pageopacity="0.0"
     inkscape:pagecheckerboard="0"
     inkscape:deskcolor="#d1d1d1"
     showgrid="false"
     inkscape:zoom="0.15362997"
     inkscape:cx="2027.5992"
     inkscape:cy="1100.0458"
     inkscape:window-width="1472"
     inkscape:window-height="844"
     inkscape:window-x="0"
     inkscape:window-y="34"
     inkscape:window-maximized="0"
     inkscape:current-layer="g3654"><inkscape:page
       x="0"
       y="0"
       width="60.657471"
       height="91.941528"
       id="page2"
       margin="0"
       bleed="0" /></sodipodi:namedview><g
     id="layer-MC0"
     inkscape:groupmode="layer"
     inkscape:label="Livello 1"
     transform="translate(-663.16219,-856.91034)"><path
       id="path10454-6"
       d="M 0,0 C -0.515,-0.024 -0.843,0.157 -1.147,0.546 -1.973,1.603 -2.625,2.749 -3.053,4.02 -3.587,5.603 -3.716,7.23 -3.6,8.942 c 0.44,0 0.835,-0.005 1.23,10e-4 0.447,0.007 0.745,0.225 0.735,0.683 -0.011,0.426 -0.302,0.638 -0.723,0.639 -0.427,0 -0.855,-0.001 -1.282,0 v 0.832 c 0.201,0.071 0.395,0.179 0.531,0.313 2.192,2.164 1.562,5.892 -1.215,7.241 -0.47,0.229 -0.992,0.352 -1.489,0.523 h -1.254 c -0.14,-0.047 -0.277,-0.103 -0.42,-0.14 -1.709,-0.452 -2.911,-1.486 -3.398,-3.192 -0.479,-1.677 -0.083,-3.202 1.176,-4.438 0.12,-0.118 0.286,-0.216 0.462,-0.287 v -0.852 c -0.38,0 -0.76,10e-4 -1.139,0 -0.446,0 -0.753,-0.215 -0.744,-0.673 0.008,-0.459 0.326,-0.652 0.769,-0.651 0.371,0.002 0.743,10e-4 1.114,10e-4 0.24,-3.2 -0.502,-6.019 -2.494,-8.475 -0.282,-0.348 -0.576,-0.513 -1.013,-0.456 -0.456,0.06 -0.865,-0.026 -1.149,-0.433 v -2.734 c 0.27,-0.145 0.538,-0.415 0.808,-0.416 4.479,-0.026 8.958,-0.019 13.438,-0.018 0.511,10e-4 0.768,0.269 0.771,0.777 0.004,0.569 0.002,1.139 10e-4,1.708 C 1.115,-0.132 0.969,0.045 0,0"
       style="fill:#ffffff;fill-opacity:1;fill-rule:nonzero;stroke:none"
       transform="matrix(4.0386151,0,0,-4.0386151,719.31108,934.34676)"
       clip-path="url(#clipPath10455-5)"
       inkscape:export-filename="path10454-6.svg"
       inkscape:export-xdpi="96"
       inkscape:export-ydpi="96" /></g></svg>
