<?xml version="1.0" encoding="UTF-8" standalone="no"?>
<!-- Created with Inkscape (http://www.inkscape.org/) -->

<svg
   version="1.1"
   id="svg1"
   width="103.87817"
   height="104.16675"
   viewBox="0 0 103.87817 104.16675"
   sodipodi:docname="Linotte app main inkscape.ai"
   inkscape:version="1.4.2 (ebf0e940, 2025-05-08)"
   xml:space="preserve"
   xmlns:inkscape="http://www.inkscape.org/namespaces/inkscape"
   xmlns:sodipodi="http://sodipodi.sourceforge.net/DTD/sodipodi-0.dtd"
   xmlns="http://www.w3.org/2000/svg"
   xmlns:svg="http://www.w3.org/2000/svg"><defs
     id="defs1"><clipPath
       clipPathUnits="userSpaceOnUse"
       id="clipPath10453-7"><path
         d="M 0,1920 H 1080 V 0 H 0 Z"
         transform="translate(-721.91222,-1719.5122)"
         id="path10453-2" /></clipPath></defs><sodipodi:namedview
     id="namedview1"
     pagecolor="#ffffff"
     bordercolor="#000000"
     borderopacity="0.25"
     inkscape:showpageshadow="2"
     inkscape:pageopacity="0.0"
     inkscape:pagecheckerboard="0"
     inkscape:deskcolor="#d1d1d1"
     showgrid="false"
     inkscape:zoom="0.15362997"
     inkscape:cx="2027.5992"
     inkscape:cy="1100.0458"
     inkscape:window-width="1472"
     inkscape:window-height="844"
     inkscape:window-x="0"
     inkscape:window-y="34"
     inkscape:window-maximized="0"
     inkscape:current-layer="g3654"><inkscape:page
       x="0"
       y="0"
       width="103.87817"
       height="104.16675"
       id="page2"
       margin="0"
       bleed="0" /></sodipodi:namedview><g
     id="layer-MC0"
     inkscape:groupmode="layer"
     inkscape:label="Livello 1"
     transform="translate(-789.11004,-850.79777)"><path
       id="path10452-0"
       d="M 0,0 C -0.019,-0.674 0.304,-0.951 0.842,-0.821 1.054,-0.77 1.26,-0.678 1.453,-0.574 2.965,0.234 4.471,1.055 5.987,1.856 6.108,1.92 6.321,1.914 6.446,1.851 7.602,1.268 8.748,0.667 9.895,0.069 c 0.504,-0.262 0.998,-0.544 1.509,-0.792 0.593,-0.289 1.097,0.032 1.093,0.689 -10e-4,0.251 -0.035,0.504 -0.076,0.752 -0.262,1.567 -0.526,3.134 -0.8,4.699 -0.046,0.261 -0.008,0.469 0.178,0.663 0.335,0.349 0.644,0.724 0.985,1.066 0.974,0.976 1.959,1.94 2.937,2.912 0.196,0.195 0.321,0.427 0.227,0.711 -0.09,0.272 -0.333,0.332 -0.578,0.369 -1.759,0.259 -3.517,0.53 -5.28,0.764 C 9.697,11.954 9.479,12.109 9.307,12.458 8.554,13.987 7.781,15.506 7.004,17.023 6.839,17.344 6.688,17.738 6.24,17.729 5.777,17.72 5.605,17.324 5.431,16.979 4.634,15.401 3.845,13.82 3.059,12.237 2.953,12.023 2.797,11.942 2.565,11.913 1.083,11.728 -0.399,11.532 -1.879,11.331 -2.233,11.283 -2.585,11.211 -2.933,11.128 -3.582,10.975 -3.719,10.571 -3.307,10.044 -3.203,9.912 -3.082,9.793 -2.964,9.673 -1.754,8.444 -0.543,7.214 0.672,5.987 0.831,5.827 0.91,5.667 0.869,5.428 0.657,4.183 0.458,2.936 0.259,1.689 0.162,1.087 0.074,0.483 0,0 M 6.124,-4.929 C -0.983,-4.935 -6.72,0.774 -6.759,7.885 -6.798,15.1 -1.03,20.792 5.951,20.863 13.168,20.936 18.95,15.175 18.962,7.987 18.975,0.765 13.227,-4.91 6.124,-4.929"
       style="fill:#ffffff;fill-opacity:1;fill-rule:nonzero;stroke:none"
       transform="matrix(4.0386151,0,0,-4.0386151,816.40768,935.05816)"
       clip-path="url(#clipPath10453-7)"
       inkscape:export-filename="path10452-0.svg"
       inkscape:export-xdpi="96"
       inkscape:export-ydpi="96" /></g></svg>
