<?xml version="1.0" encoding="UTF-8" standalone="no"?>
<!-- Created with Inkscape (http://www.inkscape.org/) -->

<svg
   version="1.1"
   id="svg1"
   width="180.86133"
   height="180.8633"
   viewBox="0 0 180.86133 180.8633"
   sodipodi:docname="Linotte app main inkscape.ai"
   inkscape:version="1.4.2 (ebf0e940, 2025-05-08)"
   xml:space="preserve"
   inkscape:export-batch-path="/Users/giannipie/Documents/Repositories/linotte-web/resources/images/dice"
   inkscape:export-batch-name="rere"
   inkscape:export-filename="/Users/giannipie/Documents/Repositories/linotte-web/resources/images/volume.svg"
   inkscape:export-xdpi="96"
   inkscape:export-ydpi="96"
   xmlns:inkscape="http://www.inkscape.org/namespaces/inkscape"
   xmlns:sodipodi="http://sodipodi.sourceforge.net/DTD/sodipodi-0.dtd"
   xmlns="http://www.w3.org/2000/svg"
   xmlns:svg="http://www.w3.org/2000/svg"><defs
     id="defs1"><clipPath
       clipPathUnits="userSpaceOnUse"
       id="clipPath3423-1-47-4-2-66"><path
         d="M 0,1080 H 1920 V 0 H 0 Z"
         transform="translate(-216.8203,-547.50101)"
         id="path3423-9-2-1-2-19" /></clipPath></defs><sodipodi:namedview
     id="namedview1"
     pagecolor="#ffffff"
     bordercolor="#000000"
     borderopacity="0.25"
     inkscape:showpageshadow="2"
     inkscape:pageopacity="0.0"
     inkscape:pagecheckerboard="0"
     inkscape:deskcolor="#d1d1d1"
     showgrid="false"
     inkscape:zoom="0.96441329"
     inkscape:cx="2760.2274"
     inkscape:cy="523.63442"
     inkscape:window-width="1472"
     inkscape:window-height="844"
     inkscape:window-x="0"
     inkscape:window-y="33"
     inkscape:window-maximized="0"
     inkscape:current-layer="g3010"><inkscape:page
       x="0"
       y="0"
       width="180.86133"
       height="180.8633"
       id="page2"
       margin="0"
       bleed="0" /></sodipodi:namedview><g
     id="layer-MC0"
     inkscape:groupmode="layer"
     inkscape:label="Livello 1"
     transform="translate(-4134.1429,-85.511854)"><g
       id="g180"><g
         id="g10-28-0-1"
         style="opacity:0.5;mix-blend-mode:normal;fill:#000000;fill-opacity:1"
         transform="translate(1494.0817,-26.662213)"
         inkscape:export-filename="/Users/giannipie/Documents/Repositories/linotte-web/resources/images/g10455"
         inkscape:export-xdpi="96"
         inkscape:export-ydpi="96"><path
           id="path3422-6-6-2-6"
           clip-path="url(#clipPath3423-1-47-4-2-66)"
           style="fill:#000000;fill-opacity:1;fill-rule:nonzero;stroke:#ffffff;stroke-width:0;stroke-linecap:butt;stroke-linejoin:miter;stroke-miterlimit:10;stroke-dasharray:none;stroke-opacity:0.527273;paint-order:markers stroke fill"
           d="m -49.587052,49.587204 c -27.386,0 -49.586191,-22.201262 -49.586191,-49.587262261097 C -99.173243,-27.386058 -76.973052,-49.587321 -49.587052,-49.587321 c 27.386,0 49.58726276809,22.201263 49.58726276809,49.587262738903 C 2.1076809e-4,27.385942 -22.201052,49.587204 -49.587052,49.587204 Z m 0,-6.003892 c 24.070404,0 43.583371,-19.512967 43.583371,-43.583370261097 C -6.003681,-24.070462 -25.516648,-43.583429 -49.587052,-43.583429 c -24.070403,0 -43.582299,19.512967 -43.582299,43.583370738903 C -93.169351,24.070345 -73.657455,43.583312 -49.587052,43.583312 Z"
           transform="matrix(1.8236869,0,0,-1.8236869,2820.9222,202.6056)" /><g
           id="path11886-5-7"
           style="opacity:1;fill:#000000;fill-opacity:1"><path
             style="baseline-shift:baseline;display:inline;overflow:visible;vector-effect:none;fill:#000000;fill-opacity:1;stroke-linecap:round;stroke-linejoin:round;stroke-miterlimit:1.4;enable-background:accumulate;stop-color:#000000;stop-opacity:1"
             d="m 2742.5128,156.11721 -46.4885,48.11967 m 48.9353,44.85733 -48.9353,-44.85733"
             id="path119-9" /><path
             style="baseline-shift:baseline;display:inline;overflow:visible;vector-effect:none;fill:#000000;fill-opacity:1;stroke-linecap:round;stroke-linejoin:round;stroke-miterlimit:1.4;enable-background:accumulate;stop-color:#000000;stop-opacity:1"
             d="m 2742.3828,148.61914 a 7.5,7.5 0 0 0 -5.2637,2.28711 l -46.4882,48.11914 a 7.5,7.5 0 0 0 -0.039,0.0996 7.5,7.5 0 0 0 -0.096,0.0449 7.5,7.5 0 0 0 -0.9473,2.59766 7.5,7.5 0 0 0 -0.9804,2.69531 7.5,7.5 0 0 0 1.1308,2.60352 7.5,7.5 0 0 0 1.1133,2.56445 7.5,7.5 0 0 0 0.1,0.0391 7.5,7.5 0 0 0 0.045,0.0957 l 48.9356,44.85743 a 7.5,7.5 0 0 0 10.5957,-0.46094 7.5,7.5 0 0 0 -0.461,-10.5957 l -43.2597,-39.65625 41.1387,-42.58204 a 7.5,7.5 0 0 0 -0.1817,-10.60546 7.5,7.5 0 0 0 -5.3418,-2.10352 z"
             id="path120-5" /></g></g></g></g><pattern
     id="b-2"
     width="41"
     height="41"
     patternUnits="userSpaceOnUse"><circle
       fill="#ffffff"
       cx="20.5"
       cy="20.5"
       r="20.5"
       id="circle2" /></pattern></svg>
