<?xml version="1.0" encoding="UTF-8" standalone="no"?>
<!-- Created with Inkscape (http://www.inkscape.org/) -->

<svg
   version="1.1"
   id="svg1"
   width="181.48633"
   height="181.48843"
   viewBox="0 0 181.48633 181.48843"
   sodipodi:docname="Linotte app main inkscape.ai"
   inkscape:version="1.4.2 (ebf0e940, 2025-05-08)"
   xml:space="preserve"
   inkscape:export-batch-path="/Users/giannipie/Documents/Repositories/linotte-web/resources/images/dice"
   inkscape:export-batch-name="rere"
   inkscape:export-filename="/Users/giannipie/Documents/Repositories/linotte-web/resources/images/volume.svg"
   inkscape:export-xdpi="96"
   inkscape:export-ydpi="96"
   xmlns:inkscape="http://www.inkscape.org/namespaces/inkscape"
   xmlns:sodipodi="http://sodipodi.sourceforge.net/DTD/sodipodi-0.dtd"
   xmlns="http://www.w3.org/2000/svg"
   xmlns:svg="http://www.w3.org/2000/svg"><defs
     id="defs1" /><sodipodi:namedview
     id="namedview1"
     pagecolor="#ffffff"
     bordercolor="#000000"
     borderopacity="0.25"
     inkscape:showpageshadow="2"
     inkscape:pageopacity="0.0"
     inkscape:pagecheckerboard="0"
     inkscape:deskcolor="#d1d1d1"
     showgrid="false"
     inkscape:zoom="0.96441329"
     inkscape:cx="2760.2274"
     inkscape:cy="523.63442"
     inkscape:window-width="1472"
     inkscape:window-height="844"
     inkscape:window-x="0"
     inkscape:window-y="33"
     inkscape:window-maximized="0"
     inkscape:current-layer="g3010"><inkscape:page
       x="0"
       y="0"
       width="181.48633"
       height="181.48843"
       id="page2"
       margin="0"
       bleed="0" /></sodipodi:namedview><g
     id="layer-MC0"
     inkscape:groupmode="layer"
     inkscape:label="Livello 1"
     transform="translate(-4487.8333,-84.886721)"><g
       id="g180"><path
         id="path83-9"
         style="baseline-shift:baseline;display:inline;overflow:visible;opacity:0.5;mix-blend-mode:normal;vector-effect:none;fill:#000000;fill-opacity:1;stroke-width:0.351178;stroke-linecap:round;stroke-miterlimit:1.4;paint-order:markers stroke fill;enable-background:accumulate;stop-color:#000000"
         d="m 4650.757,84.886707 -144.3614,0.006 c -10.1387,0 -18.5625,7.97773 -18.5625,17.945323 v 44.52733 56.53711 44.52734 c 0,9.96783 8.4237,17.94532 18.5625,17.94532 h 144.3614 c 10.1388,0 18.5625,-7.97757 18.5625,-17.94532 V 203.90052 102.83021 c 0,-9.967653 -8.4235,-17.943363 -18.5625,-17.943363 z m -143.2168,11.86914 h 36.832 v 44.677733 h -44.6758 v -37.32226 c 0,-4.05708 3.3319,-7.355133 7.8438,-7.355473 z m 48.6972,0 h 44.6778 v 44.677733 h -44.6778 z m 56.541,0 h 36.834 c 4.5124,0 7.8438,3.298713 7.8438,7.355473 v 37.32226 h -44.6778 z m -113.082,56.541013 h 44.6777 v 44.67774 h -44.6777 z m 56.541,0 h 44.6778 v 44.67774 h -44.6778 z m 56.541,0 h 44.6778 v 44.67774 h -44.6778 z m -113.082,56.54297 h 44.6777 v 44.67578 h -36.8339 c -4.5122,0 -7.8438,-3.29817 -7.8438,-7.35547 z m 56.541,0 h 44.6778 v 44.67578 h -44.6778 z m 56.541,0 h 44.6778 v 37.32031 c 0,4.05684 -3.3313,7.35547 -7.8438,7.35547 h -36.834 z" /></g></g><pattern
     id="b-2"
     width="41"
     height="41"
     patternUnits="userSpaceOnUse"><circle
       fill="#ffffff"
       cx="20.5"
       cy="20.5"
       r="20.5"
       id="circle2" /></pattern></svg>
