<?xml version="1.0" encoding="UTF-8" standalone="no"?>
<!-- Created with Inkscape (http://www.inkscape.org/) -->

<svg
   version="1.1"
   id="svg1"
   width="159.71021"
   height="159.67883"
   viewBox="0 0 159.71021 159.67883"
   xml:space="preserve"
   xmlns="http://www.w3.org/2000/svg"
   xmlns:svg="http://www.w3.org/2000/svg"><defs
     id="defs1" /><g
     id="layer-MC0"
     transform="translate(-396.0406,-1779.4915)"><g
       id="g90"
       transform="matrix(0.26276299,0,0,0.26276299,1000.8086,727.44041)"><path
         style="fill:#f9d846"
         d="m -2012.897,4610.982 c 1.2375,-0.2383 3.2625,-0.2383 4.5,0 1.2375,0.2384 0.225,0.4334 -2.25,0.4334 -2.475,0 -3.4875,-0.195 -2.25,-0.4334 z m 24,0 c 1.2375,-0.2383 3.2625,-0.2383 4.5,0 1.2375,0.2384 0.225,0.4334 -2.25,0.4334 -2.475,0 -3.4875,-0.195 -2.25,-0.4334 z m 16.0625,-0.9774 c 0.7219,-0.2888 1.5844,-0.2533 1.9167,0.079 0.3323,0.3323 -0.2583,0.5686 -1.3125,0.5252 -1.1649,-0.048 -1.4019,-0.2849 -0.6042,-0.6042 z m -62,-1 c 0.7219,-0.2888 1.5844,-0.2533 1.9167,0.079 0.3323,0.3323 -0.2583,0.5686 -1.3125,0.5252 -1.1649,-0.048 -1.4019,-0.2849 -0.6042,-0.6042 z m 92.1875,-4.6944 c 0,-0.2077 0.7875,-0.9952 1.75,-1.75 1.5861,-1.2439 1.6215,-1.2085 0.3776,0.3775 -1.3064,1.6658 -2.1276,2.1955 -2.1276,1.3725 z m -63.7309,-22.3154 c 0.9729,-0.2536 2.3229,-0.2369 3,0.037 0.677,0.2739 -0.1191,0.4814 -1.7691,0.461 -1.65,-0.02 -2.2039,-0.2445 -1.2309,-0.498 z m 5.5434,0.01 c 0.7219,-0.2888 1.5844,-0.2533 1.9167,0.079 0.3323,0.3323 -0.2583,0.5686 -1.3125,0.5252 -1.1649,-0.048 -1.4019,-0.2849 -0.6042,-0.6042 z m 8.4566,-0.01 c 0.9729,-0.2536 2.3229,-0.2369 3,0.037 0.677,0.2739 -0.1191,0.4814 -1.7691,0.461 -1.65,-0.02 -2.2039,-0.2445 -1.2309,-0.498 z m -215.1901,-92.8904 c 0.048,-1.1649 0.2849,-1.4019 0.6041,-0.6042 0.2889,0.7219 0.2534,1.5844 -0.079,1.9167 -0.3323,0.3323 -0.5686,-0.2583 -0.5252,-1.3125 z m 468.921,-88.7942 c 0,-0.2077 0.7875,-0.9952 1.75,-1.75 1.5861,-1.2439 1.6215,-1.2085 0.3776,0.3775 -1.3064,1.6658 -2.1276,2.1955 -2.1276,1.3725 z m -531.7309,-5.3154 c 0.9729,-0.2536 2.3229,-0.2369 3,0.037 0.677,0.2739 -0.1191,0.4814 -1.7691,0.461 -1.65,-0.02 -2.2039,-0.2445 -1.2309,-0.498 z m 547.6034,-30.0571 c -1.2439,-1.586 -1.2085,-1.6214 0.3775,-0.3775 1.6658,1.3064 2.1955,2.1275 1.3725,2.1275 -0.2077,0 -0.9952,-0.7875 -1.75,-1.75 z m 26.2854,-21.25 c 0,-1.375 0.227,-1.9375 0.5044,-1.25 0.2774,0.6875 0.2774,1.8125 0,2.5 -0.2774,0.6875 -0.5044,0.125 -0.5044,-1.25 z m -604.0789,-9.5833 c 0.048,-1.1649 0.2849,-1.4019 0.6041,-0.6042 0.2889,0.7219 0.2534,1.5844 -0.079,1.9167 -0.3323,0.3323 -0.5686,-0.2583 -0.5252,-1.3125 z m 605,-1 c 0.048,-1.1649 0.2849,-1.4019 0.6041,-0.6042 0.2889,0.7219 0.2534,1.5844 -0.079,1.9167 -0.3323,0.3323 -0.5686,-0.2583 -0.5252,-1.3125 z m -576.884,-9.9167 c 0.02,-1.65 0.2445,-2.2039 0.498,-1.2309 0.2536,0.9729 0.2369,2.3229 -0.037,3 -0.274,0.677 -0.4814,-0.1191 -0.461,-1.7691 z m -29.0371,-2.5 c 0,-1.375 0.227,-1.9375 0.5044,-1.25 0.2774,0.6875 0.2774,1.8125 0,2.5 -0.2774,0.6875 -0.5044,0.125 -0.5044,-1.25 z m 607.2395,-12 c 0,-7.975 0.1553,-11.2375 0.3451,-7.25 0.1898,3.9875 0.1898,10.5125 0,14.5 -0.1898,3.9875 -0.3451,0.725 -0.3451,-7.25 z m -29.1654,8 c 0,-1.925 0.2058,-2.7125 0.4574,-1.75 0.2515,0.9625 0.2515,2.5375 0,3.5 -0.2516,0.9625 -0.4574,0.175 -0.4574,-1.75 z m 0.02,-17.5 c 0.011,-2.2 0.2159,-2.9822 0.4551,-1.7383 0.2392,1.2439 0.2301,3.0439 -0.02,4 -0.2503,0.9561 -0.446,-0.062 -0.4349,-2.2617 z m -368.0022,-1.1893 c 0.9625,-0.2515 2.5375,-0.2515 3.5,0 0.9625,0.2515 0.175,0.4573 -1.75,0.4573 -1.925,0 -2.7125,-0.2058 -1.75,-0.4573 z m 184.5,0.027 c 0.6875,-0.2774 1.8125,-0.2774 2.5,0 0.6875,0.2774 0.125,0.5043 -1.25,0.5043 -1.375,0 -1.9375,-0.2269 -1.25,-0.5043 z m -394.555,-4.8378 c 0.02,-1.65 0.2445,-2.2039 0.498,-1.2309 0.2536,0.9729 0.2369,2.3229 -0.037,3 -0.274,0.677 -0.4814,-0.1191 -0.461,-1.7691 z m 29,-2 c 0.02,-1.65 0.2445,-2.2039 0.498,-1.2309 0.2536,0.9729 0.2369,2.3229 -0.037,3 -0.274,0.677 -0.4814,-0.1191 -0.461,-1.7691 z m 576.9629,-7.5 c 0,-1.375 0.227,-1.9375 0.5044,-1.25 0.2774,0.6875 0.2774,1.8125 0,2.5 -0.2774,0.6875 -0.5044,0.125 -0.5044,-1.25 z m -605.0789,-4.5833 c 0.048,-1.1649 0.2849,-1.4019 0.6041,-0.6042 0.2889,0.7219 0.2534,1.5844 -0.079,1.9167 -0.3323,0.3323 -0.5686,-0.2583 -0.5252,-1.3125 z m 604.0789,-6.4167 c 0,-1.375 0.227,-1.9375 0.5044,-1.25 0.2774,0.6875 0.2774,1.8125 0,2.5 -0.2774,0.6875 -0.5044,0.125 -0.5044,-1.25 z m -1.0789,-8.5833 c 0.048,-1.1649 0.2849,-1.4019 0.6041,-0.6042 0.2889,0.7219 0.2534,1.5844 -0.079,1.9167 -0.3323,0.3323 -0.5686,-0.2583 -0.5252,-1.3125 z m -241.884,-11.9167 c 0.02,-1.65 0.2445,-2.2039 0.498,-1.2309 0.2536,0.9729 0.2369,2.3229 -0.037,3 -0.274,0.677 -0.4814,-0.1191 -0.461,-1.7691 z m -0.037,-5.5 c 0,-1.375 0.227,-1.9375 0.5044,-1.25 0.2774,0.6875 0.2774,1.8125 0,2.5 -0.2774,0.6875 -0.5044,0.125 -0.5044,-1.25 z m -344.8888,-0.6929 c 0.9729,-0.2536 2.3229,-0.2369 3,0.037 0.677,0.2739 -0.1191,0.4814 -1.7691,0.461 -1.65,-0.02 -2.2039,-0.2445 -1.2309,-0.498 z m 161.8888,-8.3071 c 0,-1.375 0.227,-1.9375 0.5044,-1.25 0.2774,0.6875 0.2774,1.8125 0,2.5 -0.2774,0.6875 -0.5044,0.125 -0.5044,-1.25 z m 404.3421,-22 c 0.9955,-1.1 2.035,-2 2.31,-2 0.275,0 -0.3145,0.9 -1.31,2 -0.9955,1.1 -2.0349,2 -2.3099,2 -0.275,0 0.3144,-0.9 1.3099,-2 z m -3.3421,-22 c 0,-1.375 0.227,-1.9375 0.5044,-1.25 0.2774,0.6875 0.2774,1.8125 0,2.5 -0.2774,0.6875 -0.5044,0.125 -0.5044,-1.25 z m -5,-16 c 0,-1.375 0.227,-1.9375 0.5044,-1.25 0.2774,0.6875 0.2774,1.8125 0,2.5 -0.2774,0.6875 -0.5044,0.125 -0.5044,-1.25 z m -516,-4 c 0,-1.375 0.227,-1.9375 0.5044,-1.25 0.2774,0.6875 0.2774,1.8125 0,2.5 -0.2774,0.6875 -0.5044,0.125 -0.5044,-1.25 z m 509.4491,-3.5817 c -0.8505,-2.2165 -0.7858,-2.4183 0.7764,-2.4183 0.7608,0 1.6187,0.9 1.9064,2 0.6287,2.4042 -1.7768,2.7792 -2.6828,0.4183 z m -528.607,-8.4183 c 0,-1.3333 0.6667,-2 2,-2 1.3334,0 2,0.6667 2,2 0,1.3334 -0.6666,2 -2,2 -1.3333,0 -2,-0.6666 -2,-2 z m 4.393,-7.5817 c 0.3339,-0.87 0.607,-1.77 0.607,-2 0,-0.2301 0.675,-0.4183 1.5,-0.4183 0.8334,0 1.5,0.8889 1.5,2 0,1.3672 -0.6666,2 -2.107,2 -1.5104,0 -1.9351,-0.4478 -1.5,-1.5817 z m 27.607,-3.9183 c 0,-1.8333 0.5334,-2.5 2,-2.5 1.3334,0 2,-0.6666 2,-2 0,-1.1 0.45,-2 1,-2 1.5565,0 1.1792,2.1939 -0.989,5.75 -2.3664,3.8812 -4.011,4.1887 -4.011,0.75 z m -22.4433,-4.25 c 0.4238,-0.9625 0.8095,-2.7242 0.857,-3.9149 0.064,-1.6053 0.4069,-1.8989 1.3263,-1.1359 0.908,0.7536 1.4935,0.3961 2.1866,-1.335 0.9422,-2.3531 0.947,-2.3513 1.01,0.3858 0.035,1.5125 -0.3962,2.75 -0.958,2.75 -0.5618,0 -1.534,1.125 -2.1605,2.5 -0.6265,1.375 -1.565,2.5 -2.0856,2.5 -0.5283,0 -0.606,-0.7731 -0.1758,-1.75 z m 504.1933,-1.642 c -0.9625,-0.7306 -1.75,-2.0663 -1.75,-2.9682 0,-0.9019 -0.6198,-1.6398 -1.3774,-1.6398 -0.7576,0 -2.6701,-2.4782 -4.25,-5.5071 -1.5799,-3.0289 -3.6601,-5.7592 -4.6226,-6.0673 -0.9625,-0.3082 -1.75,-1.1358 -1.75,-1.8391 0,-2.034 -8.6455,-9.3497 -11.8918,-10.0627 -2.5545,-0.5611 -2.9969,-0.3367 -3.2804,1.6639 -0.2138,1.5078 -1.1106,2.4235 -2.5778,2.6319 -1.9467,0.2765 -2.25,0.9168 -2.25,4.75 0,3.3038 0.3878,4.4304 1.525,4.4304 0.8945,0 1.7731,1.2405 2.125,3 0.4107,2.0534 1.1917,3 2.475,3 1.2084,0 1.875,0.7112 1.875,2 0,1.3334 -0.6666,2 -2,2 -1.3333,0 -2,-0.6666 -2,-2 0,-1.3333 -0.6666,-2 -2,-2 -1.292,0 -2,-0.6666 -2,-1.8833 0,-1.0424 -0.8931,-2.1169 -2,-2.4064 -1.738,-0.4545 -1.9971,-1.3539 -1.9777,-6.8666 0.024,-6.7489 1.389,-9.5392 5.7654,-11.782 2.2779,-1.1673 14.3561,-1.1189 13.6371,0.055 -0.4051,0.6612 3.3568,4.3836 4.4302,4.3836 0.3548,0 0.5167,0.3849 0.3599,0.8553 -0.4572,1.3719 1.9123,3.6842 3.0529,2.9792 0.5727,-0.3539 0.7764,-0.215 0.4527,0.3088 -0.7603,1.2303 0.8597,3.8567 2.3788,3.8567 0.6448,0 1.342,1.5504 1.5495,3.4454 0.4332,3.9572 1.7681,6.2336 6.7573,11.5238 1.9584,2.0765 3.3167,4.1704 3.0183,4.6532 -0.7318,1.1841 -1.5963,1.0631 -3.6744,-0.5144 z m -473.75,-6.608 c 0,-1.3333 0.6667,-2 2,-2 1.3334,0 2,0.6667 2,2 0,1.3334 -0.6666,2 -2,2 -1.3333,0 -2,-0.6666 -2,-2 z m -22.3616,-0.5 c 0.3166,-0.825 0.7525,-1.5 0.9686,-1.5 0.2162,0 0.393,0.675 0.393,1.5 0,0.825 -0.4358,1.5 -0.9686,1.5 -0.5327,0 -0.7096,-0.675 -0.393,-1.5 z m 26.3616,-3.5 c 0,-1.2727 0.6667,-2 1.8334,-2 2.3591,0 3.1651,0.8406 2.4907,2.5978 -0.8488,2.2121 -4.3241,1.7317 -4.3241,-0.5978 z m -23,-0.5 c 0,-0.825 0.675,-1.5 1.5,-1.5 0.825,0 1.5,0.675 1.5,1.5 0,0.825 -0.675,1.5 -1.5,1.5 -0.825,0 -1.5,-0.675 -1.5,-1.5 z m 27.658,-1.1753 c -0.3619,-0.3619 -0.658,-3.283 -0.658,-6.4913 0,-5.1667 -0.2285,-5.8334 -2,-5.8334 -1.3333,0 -2,0.6667 -2,2 0,1.3334 -0.6666,2 -2,2 -1.2845,0 -2,-0.6666 -2,-1.8636 0,-1.5076 -0.7642,-1.8636 -4,-1.8636 -3.8597,0 -4,0.1159 -4,3.3046 0,3.3741 -1.971,6.0193 -2.0354,2.7317 -0.031,-1.5932 -0.1804,-1.5583 -1.25,0.2924 -1.1426,1.9769 -4.8235,2.623 -6.3346,1.1118 -0.5369,-0.5369 1.8835,-4.0421 7.62,-11.0352 0.825,-1.0058 2.4,-2.3349 3.5,-2.9536 2.654,-1.4928 12.559,-2.6289 11.7685,-1.3498 -0.3465,0.5606 0.1228,0.6892 1.1194,0.3067 0.9438,-0.3621 1.4761,-0.2702 1.1828,0.2043 -0.2933,0.4745 0.5458,2.027 1.8645,3.4499 1.6024,1.729 2.2121,3.2974 1.8379,4.7282 -0.3139,1.2003 -0.01,2.4805 0.6904,2.9137 0.8204,0.507 1.0195,1.8234 0.5791,3.8285 -0.7078,3.2228 -2.7754,5.6279 -3.8846,4.5187 z m -10.658,-2.3247 c 0,-1.1 0.45,-2 1,-2 0.55,0 1,0.9 1,2 0,1.1 -0.45,2 -1,2 -0.55,0 -1,-0.9 -1,-2 z m 0.25,-19.6893 c 0.9625,-0.2515 2.5375,-0.2515 3.5,0 0.9625,0.2515 0.175,0.4573 -1.75,0.4573 -1.925,0 -2.7125,-0.2058 -1.75,-0.4573 z m 41.0191,-12.0036 c 0.9729,-0.2536 2.3229,-0.2369 3,0.037 0.677,0.2739 -0.1191,0.4814 -1.7691,0.461 -1.65,-0.02 -2.2039,-0.2445 -1.2309,-0.498 z m 366.4809,0.031 c 0.6875,-0.2774 1.8125,-0.2774 2.5,0 0.6875,0.2774 0.125,0.5043 -1.25,0.5043 -1.375,0 -1.9375,-0.2269 -1.25,-0.5043 z m -4.1425,-1.5117 c 0.4762,-0.7705 -1.0445,-1.2475 -2.9318,-0.9197 -0.4534,0.079 -0.5708,-0.267 -0.261,-0.7683 0.772,-1.2491 -2.0715,-3.4682 -3.3956,-2.6498 -0.5878,0.3632 -0.945,0.1087 -0.7938,-0.5657 0.331,-1.4771 -6.093,-6.1223 -7.3729,-5.3313 -0.496,0.3066 -0.7783,-0.039 -0.6271,-0.7669 0.1532,-0.7387 -0.6097,-1.345 -1.7253,-1.3711 -1.1,-0.026 -1.8892,-0.5829 -1.7538,-1.2383 0.3433,-1.6624 -7.3465,-6.58 -8.843,-5.6551 -0.7716,0.4769 -0.9529,0.3296 -0.4987,-0.4053 0.6479,-1.0483 -0.5983,-1.6183 -2.7288,-1.2482 -0.4534,0.079 -0.5765,-0.2578 -0.2736,-0.7479 0.8384,-1.3565 -2.9682,-4.3437 -5.7477,-4.5106 -1.3544,-0.081 -2.2068,-0.5618 -1.8944,-1.0678 0.3144,-0.509 -0.1984,-0.6258 -1.1479,-0.2614 -1.1564,0.4437 -1.4825,0.2807 -1,-0.5 0.4825,-0.7808 0.1565,-0.9438 -1,-0.5 -0.9438,0.3621 -1.4702,0.2607 -1.1698,-0.2253 0.7139,-1.1551 -2.2843,-2.2935 -3.7825,-1.4363 -0.6379,0.365 -0.8251,0.2943 -0.4161,-0.157 1.0299,-1.1366 -2.9788,-3.7818 -4.3999,-2.9035 -0.7664,0.4737 -0.8784,0.2685 -0.3342,-0.612 0.5993,-0.9697 0.3589,-1.1481 -0.8975,-0.6659 -1.1564,0.4437 -1.4825,0.2807 -1,-0.5 0.4825,-0.7808 0.1565,-0.9438 -1,-0.5 -1.1564,0.4437 -1.4825,0.2807 -1,-0.5 0.4825,-0.7808 0.1565,-0.9438 -1,-0.5 -1.0192,0.3911 -1.4679,0.2571 -1.105,-0.3301 0.5796,-0.9378 0.1458,-1.1563 -2.7571,-1.3886 -0.6875,-0.055 -1.8705,-0.6883 -2.6289,-1.4075 -0.7584,-0.7191 -1.9959,-1.0707 -2.75,-0.7814 -0.7541,0.2894 -1.3711,0.064 -1.3711,-0.5015 0,-0.5652 -0.4028,-0.7786 -0.8952,-0.4743 -0.4924,0.3043 -1.1728,-0.1702 -1.5121,-1.0545 -0.3909,-1.0186 -1.3459,-1.4171 -2.6062,-1.0875 -1.0941,0.2861 -1.7571,0.1446 -1.4733,-0.3145 0.6553,-1.0603 -3.1574,-2.3167 -4.5042,-1.4843 -0.5549,0.343 -1.009,0.1205 -1.009,-0.4945 0,-0.6149 -0.45,-0.8399 -1,-0.5 -0.55,0.34 -1,0.066 -1,-0.6076 0,-0.6741 -0.2939,-0.9317 -0.6532,-0.5724 -0.3593,0.3592 -1.6403,-0.6847 -2.8468,-2.32 -1.2064,-1.6352 -2.5112,-2.6554 -2.8996,-2.267 -0.3883,0.3883 -0.3808,-0.1415 0.017,-1.1775 0.456,-1.1884 0.3443,-1.6496 -0.3027,-1.2498 -0.6427,0.3973 -0.8386,-0.3434 -0.5249,-1.9845 0.3448,-1.8041 0.1444,-2.3983 -0.6445,-1.9108 -0.6798,0.4202 -1.145,0.05 -1.145,-0.9104 0,-0.9606 0.4652,-1.3305 1.145,-0.9103 0.7904,0.4884 0.9882,-0.1128 0.6387,-1.941 -0.2785,-1.4568 -0.1669,-2.6487 0.248,-2.6487 0.4149,0 1.0223,-0.6983 1.3499,-1.5519 0.4023,-1.0485 0.1937,-1.3171 -0.643,-0.8281 -0.6812,0.3981 -0.3909,-0.2429 0.6451,-1.4245 1.036,-1.1816 2.2767,-1.9054 2.757,-1.6085 0.4804,0.2969 1.1424,-0.1611 1.4712,-1.0178 0.3287,-0.8567 1.0005,-1.3087 1.4929,-1.0044 0.4924,0.3043 0.8949,0.1892 0.8945,-0.2557 0,-1.2803 9.8378,-0.6892 11.5007,0.691 0.825,0.6846 1.5,0.9096 1.5,0.4999 0,-0.4096 0.6039,-0.2436 1.342,0.3689 0.7381,0.6126 1.6381,0.8177 2,0.4558 0.3619,-0.3619 0.658,-0.085 0.658,0.6157 0,0.7213 0.6505,1.024 1.5,0.698 0.825,-0.3166 1.5,-0.1132 1.5,0.452 0,0.5652 0.45,0.7496 1,0.4096 0.55,-0.3399 1,-0.093 1,0.548 0,0.6413 0.675,0.907 1.5,0.5904 0.825,-0.3166 1.5,-0.1132 1.5,0.452 0,0.5652 0.45,0.7496 1,0.4096 0.55,-0.3399 1,-0.066 1,0.6077 0,0.6741 0.2786,0.9471 0.6191,0.6066 0.3405,-0.3404 1.2985,0.06 2.1289,0.8909 0.8305,0.8304 2.1503,1.2641 2.9329,0.9638 0.902,-0.3461 1.1609,-0.1219 0.707,0.6124 -0.4825,0.7808 -0.1564,0.9438 1,0.5 1.1564,-0.4437 1.4825,-0.2807 1,0.5 -0.4825,0.7808 -0.1564,0.9438 1,0.5 0.9438,-0.3621 1.4817,-0.2794 1.1954,0.1839 -0.7011,1.1345 4.2833,3.3352 5.6462,2.4929 0.6036,-0.373 0.7936,-0.2044 0.4308,0.3826 -0.3568,0.5773 0.047,1.3167 0.8974,1.643 1.0163,0.39 1.3316,0.1688 0.9201,-0.6452 -0.3443,-0.6812 0.014,-0.4581 0.7969,0.4959 0.7827,0.954 1.7161,1.4415 2.0742,1.0833 0.3581,-0.3581 0.6511,-0.1419 0.6511,0.4804 0,0.6223 0.9543,1.6422 2.1207,2.2664 1.71,0.9152 1.9837,0.8736 1.4132,-0.2148 -0.3891,-0.7424 0.1699,-0.2725 1.2421,1.0441 1.2896,1.5834 2.4192,2.1216 3.3368,1.5896 0.763,-0.4422 1.0526,-0.4348 0.6436,0.016 -1.0299,1.1366 2.9787,3.7818 4.3999,2.9035 0.7136,-0.4411 0.8809,-0.2726 0.4392,0.442 -0.6371,1.031 0.5579,1.604 2.6545,1.273 0.4125,-0.065 0.75,0.3581 0.75,0.9406 0,0.5824 0.4612,0.774 1.0248,0.4256 0.5636,-0.3483 0.9011,-0.037 0.75,0.691 -0.152,0.7325 0.5025,1.2631 1.4645,1.1872 0.9565,-0.075 1.5064,0.2396 1.222,0.6999 -0.6335,1.025 3.0247,3.1179 3.9072,2.2354 0.3474,-0.3473 0.6315,0.1667 0.6315,1.1422 0,1.1921 0.5089,1.5784 1.552,1.1781 0.8899,-0.3415 1.2913,-0.1739 0.9409,0.393 -0.5498,0.8897 0.772,1.4204 2.7571,1.107 0.4125,-0.065 0.6375,0.444 0.5,1.1315 -0.1375,0.6875 0.5058,1.2558 1.4294,1.2628 0.9237,0.01 2.0487,0.4167 2.5,0.9103 0.475,0.5196 0.1889,0.583 -0.6794,0.1505 -0.825,-0.4109 -0.3876,0.1567 0.9721,1.2615 1.3596,1.1047 2.791,1.8114 3.1809,1.5704 0.3898,-0.2409 1.0345,0.089 1.4324,0.7327 0.4814,0.7789 0.2534,0.9227 -0.6809,0.4296 -0.7724,-0.4077 -0.2903,0.1639 1.0714,1.2702 1.3618,1.1063 2.7118,1.9328 3,1.8367 0.2883,-0.096 0.5241,0.094 0.5241,0.4216 0,1.4065 2.8159,3.8265 3.7678,3.2382 0.5732,-0.3542 0.7456,-0.1651 0.3835,0.4208 -0.7609,1.2312 0.2425,4.4284 1.2035,3.8345 0.3549,-0.2193 0.6452,1.7653 0.6452,4.4102 0,2.6724 -0.4087,4.5565 -0.9199,4.2405 -0.506,-0.3127 -0.6347,0.1749 -0.286,1.0835 0.366,0.9538 0.1737,1.5515 -0.4551,1.414 -0.5989,-0.1309 -1.3161,0.3872 -1.5937,1.1512 -0.3451,0.9498 -0.068,1.1425 0.875,0.6092 0.7588,-0.4291 0.6062,0.041 -0.3392,1.044 -0.9455,1.0033 -2.5205,1.9364 -3.5,2.0735 -0.9796,0.1372 -4.3467,0.6514 -7.4826,1.1428 -3.1358,0.4914 -5.4717,0.5217 -5.191,0.067 z m -368.145,-0.6218 c 0.6074,-0.6074 -3.6983,-5.1765 -4.4439,-4.7158 -0.374,0.2312 -0.7785,-2.0134 -0.8988,-4.988 -0.2243,-5.5444 1.2476,-9.725 4.6069,-13.0843 0.9753,-0.9753 1.7733,-2.1429 1.7733,-2.5947 0,-0.4518 0.225,-0.7454 0.5,-0.6525 1.1991,0.4053 4.9986,-2.3622 4.4537,-3.2439 -0.3313,-0.536 -0.2314,-0.892 0.222,-0.7911 1.6959,0.3776 4.2885,-1.3861 3.6583,-2.4887 -0.3601,-0.6299 -0.2983,-0.8236 0.1372,-0.4304 1.0994,0.9925 4.7234,-1.0911 3.9825,-2.2898 -0.3313,-0.536 -0.2314,-0.9102 0.222,-0.8314 2.0422,0.3548 3.3883,-0.1812 2.809,-1.1184 -0.3483,-0.5637 -0.2624,-0.9604 0.191,-0.8816 1.7041,0.296 2.8954,-0.1968 5.3243,-2.2027 1.375,-1.1355 1.825,-1.7283 1,-1.3174 -0.8829,0.4397 -1.1571,0.3726 -0.6666,-0.1632 0.4583,-0.5007 1.2458,-0.9666 1.75,-1.0354 0.5041,-0.069 1.3932,-0.1812 1.9756,-0.25 0.5825,-0.069 0.7841,-0.5698 0.4481,-1.1135 -0.3629,-0.5872 0.086,-0.7212 1.105,-0.3301 1.0799,0.4144 1.4738,0.2667 1.0627,-0.3985 -0.3715,-0.6011 0.097,-0.9979 1.086,-0.92 0.9566,0.075 1.6321,-0.4092 1.5012,-1.0769 -0.1467,-0.7485 0.3955,-0.9709 1.4141,-0.58 1.1009,0.4224 1.4132,0.2474 0.936,-0.5246 -0.4825,-0.7807 -0.1564,-0.9437 1,-0.5 1.0799,0.4144 1.4738,0.2667 1.0627,-0.3985 -0.3715,-0.6011 0.097,-0.9979 1.086,-0.92 0.9619,0.076 1.6164,-0.4547 1.4645,-1.1872 -0.1512,-0.7284 0.1863,-1.0393 0.75,-0.691 0.5636,0.3484 1.0247,0.1568 1.0247,-0.4256 0,-0.5825 0.3375,-1.0058 0.75,-0.9406 1.9852,0.3134 3.307,-0.2173 2.7571,-1.107 -0.3434,-0.5557 0.035,-0.7408 0.8637,-0.4227 0.811,0.3112 2.325,-0.2845 3.3644,-1.3239 1.0394,-1.0394 2.424,-1.7118 3.0768,-1.4942 0.6528,0.2176 1.4594,-0.3142 1.7923,-1.1818 0.3329,-0.8675 1.0081,-1.3284 1.5005,-1.0241 0.4924,0.3043 0.8952,0.05 0.8952,-0.5648 0,-0.6149 0.45,-0.8399 1,-0.5 0.55,0.34 1,0.115 1,-0.5 0,-0.6149 0.45,-0.8399 1,-0.5 0.55,0.34 1,0.115 1,-0.5 0,-0.6149 0.4094,-0.865 0.9098,-0.5557 1.2846,0.7939 4.1915,-0.4714 3.5325,-1.5376 -0.3004,-0.4861 0.094,-0.638 0.8769,-0.3377 0.7826,0.3003 2.0475,-0.079 2.8108,-0.8418 0.7633,-0.7633 2.009,-1.1808 2.7682,-0.9278 0.7742,0.2581 1.0989,0.01 0.7396,-0.5764 -0.3933,-0.6364 0.1272,-0.8357 1.3487,-0.5162 1.2398,0.3242 2.2133,-0.064 2.5841,-1.0302 0.3272,-0.8526 1.2327,-1.3055 2.0122,-1.0064 0.7795,0.2991 1.4172,0.06 1.4172,-0.5318 0,-0.5924 0.7476,-0.7887 1.6641,-0.437 1.1113,0.4264 1.4262,0.2537 0.948,-0.52 -0.4678,-0.7569 -0.178,-0.952 0.836,-0.5629 0.8536,0.3275 1.5516,0.2099 1.5512,-0.2615 0,-1.3149 8.782,-0.7834 10.4909,0.6349 0.8304,0.6892 1.5098,0.9122 1.5098,0.4957 0,-0.4165 1.0043,0.5409 2.2317,2.1276 1.2275,1.5867 2.5522,3.0264 2.9439,3.1995 0.3916,0.173 0.4359,1.0343 0.098,1.914 -0.4171,1.0869 -0.226,1.3598 0.5963,0.8516 0.8988,-0.5555 1.0129,-0.019 0.4438,2.086 -0.4214,1.5585 -0.7769,4.0712 -0.7901,5.5837 -0.013,1.5125 -0.3879,2.75 -0.8329,2.75 -0.4449,0 -0.4879,0.5196 -0.095,1.1546 0.4144,0.6704 0.277,0.8847 -0.3277,0.511 -1.27,-0.785 -3.5481,1.7207 -2.5091,2.7598 0.4077,0.4077 0.2913,0.6505 -0.2587,0.5396 -2.0491,-0.4135 -3.6,0.064 -3.0576,0.9418 0.3082,0.4987 -0.4106,0.6528 -1.5974,0.3425 -1.6075,-0.4204 -1.9509,-0.2297 -1.3468,0.7477 0.5393,0.8727 0.4213,1.0713 -0.3526,0.593 -1.6354,-1.0107 -5.3155,0.326 -4.5056,1.6365 0.3835,0.6206 0.2057,0.7962 -0.4168,0.4115 -1.2461,-0.7702 -8.2232,2.2896 -8.2232,3.6063 0,0.4806 -0.45,0.5957 -1,0.2557 -0.55,-0.3399 -1,-0.1149 -1,0.5 0,0.615 -0.4385,0.847 -0.9745,0.5158 -1.2822,-0.7924 -12.1161,4.5286 -11.4419,5.6195 0.2862,0.463 -0.1433,0.5872 -0.9543,0.276 -0.8111,-0.3113 -2.3719,0.3314 -3.4686,1.4281 -1.0967,1.0967 -2.2274,1.7606 -2.5127,1.4753 -0.2852,-0.2853 -1.4449,0.1301 -2.5769,0.923 -1.1321,0.793 -1.7374,1.7627 -1.3452,2.1549 0.3922,0.3922 -0.1344,0.3879 -1.1704,-0.01 -1.2179,-0.4674 -1.6527,-0.3493 -1.2303,0.3342 0.3715,0.6011 -0.097,0.9979 -1.0859,0.9199 -0.962,-0.076 -1.6165,0.4548 -1.4645,1.1873 0.1511,0.7284 -0.1856,1.0398 -0.7482,0.692 -1.1477,-0.7092 -5.3292,1.8477 -4.4535,2.7233 0.3081,0.3082 -0.2572,0.4928 -1.2564,0.4103 -0.9992,-0.082 -1.7042,0.4125 -1.5667,1.1 0.1375,0.6875 -0.088,1.1968 -0.5,1.1316 -2.0105,-0.3174 -3.3034,0.223 -2.7347,1.1432 0.3484,0.5636 0.2624,0.9604 -0.1909,0.8816 -2.1305,-0.3701 -3.3767,0.1999 -2.7289,1.2482 0.3953,0.6395 0.2786,0.8856 -0.2616,0.5518 -1.3727,-0.8484 -7.3957,3.0023 -7.0879,4.5314 0.1397,0.6942 -0.3572,1.1335 -1.1043,0.9761 -1.7358,-0.3656 -8.1912,4.5146 -7.8781,5.9557 0.13,0.5987 -0.8886,1.3025 -2.2636,1.5641 -3.1226,0.594 -15.047,0.98 -14.5375,0.4706 z m -7.3835,-14.7876 c 0.048,-1.1649 0.2849,-1.4019 0.6041,-0.6042 0.2889,0.7219 0.2534,1.5844 -0.079,1.9167 -0.3323,0.3323 -0.5686,-0.2583 -0.5252,-1.3125 z m 146.67,-45.5917 c -0.1369,-0.3712 -0.924,-0.8212 -1.749,-1 -0.825,-0.1787 -2.4435,-1.5564 -3.5967,-3.0615 -1.1532,-1.5051 -2.4145,-2.4189 -2.8029,-2.0305 -0.3883,0.3883 -0.3808,-0.1415 0.017,-1.1775 0.456,-1.1884 0.3443,-1.6496 -0.3027,-1.2498 -0.6427,0.3973 -0.8386,-0.3434 -0.5249,-1.9845 0.3448,-1.8041 0.1444,-2.3983 -0.6445,-1.9108 -0.6798,0.4202 -1.145,0.05 -1.145,-0.9104 0,-0.9606 0.4652,-1.3305 1.145,-0.9103 0.7904,0.4884 0.9882,-0.1128 0.6387,-1.941 -0.2785,-1.4568 -0.092,-2.6487 0.414,-2.6487 0.5062,0 0.6422,-0.45 0.3023,-1 -0.3399,-0.55 -0.1939,-1 0.3244,-1 0.5183,0 1.1896,-0.9452 1.4917,-2.1006 0.3049,-1.166 1.0273,-1.8052 1.6237,-1.4366 0.5909,0.3652 1.3433,-0.037 1.6721,-0.8936 0.3287,-0.8567 0.9694,-1.3279 1.4238,-1.0471 0.4544,0.2808 1.0823,0.096 1.3954,-0.4106 0.3131,-0.5066 2.4817,-0.7463 4.8191,-0.5328 3.4275,0.3132 3.7661,0.2137 1.7498,-0.5142 -1.7718,-0.6397 -0.7524,-0.757 3.5,-0.4026 4.5255,0.3771 5.6314,0.2286 4.5,-0.6044 -1.1281,-0.8306 -0.1984,-0.9427 3.75,-0.4521 3.6834,0.4577 5.25,0.3072 5.25,-0.5044 0,-0.8252 1.8626,-0.9658 6.5,-0.4907 3.9451,0.4042 6.5,0.2889 6.5,-0.2932 0,-1.186 28.9385,-1.1307 30.8257,0.059 0.7291,0.4596 3.7666,0.5306 6.75,0.1579 3.9305,-0.4911 5.4243,-0.3471 5.4243,0.523 0,0.8603 1.3967,1.0155 4.9258,0.5474 3.1671,-0.4201 5.1675,-0.2624 5.6026,0.4417 0.4122,0.6669 2.2986,0.8734 4.8243,0.528 3.1084,-0.4251 3.6463,-0.3222 2.1473,0.4106 -1.6788,0.8208 -1.4379,0.9586 1.5,0.8582 1.925,-0.066 4.3325,0.233 5.3499,0.6641 1.8126,0.768 7.0335,5.4931 6.0695,5.4931 -0.2694,0 0.051,1.0106 0.7121,2.2457 1.3351,2.4947 1.5971,7.7664 0.4762,9.5802 -0.3991,0.6458 -0.3616,1.1878 0.083,1.2046 0.445,0.017 0.012,0.4943 -0.962,1.0614 -0.9741,0.5671 -1.5415,1.4024 -1.261,1.8563 0.2805,0.4539 -0.16,1.3813 -0.979,2.061 -0.8189,0.6796 -1.489,0.925 -1.489,0.5452 0,-0.3798 -1.2375,0.172 -2.75,1.2262 -2.0184,1.4068 -3.9471,1.8085 -7.25,1.5101 -6.1941,-0.5598 -9.409,-0.9818 -10,-1.3127 -1.0441,-0.5845 -7.7385,-1.0961 -13.75,-1.0509 -3.4375,0.026 -6.25,-0.3538 -6.25,-0.8437 0,-1.3278 -28.6804,-1.4095 -29.4996,-0.084 -0.4328,0.7003 -2.7056,0.8504 -6.4544,0.4262 -3.8435,-0.4348 -6.0182,-0.2797 -6.4766,0.462 -0.4332,0.701 -2.1568,0.8821 -4.6297,0.4867 -2.3446,-0.3749 -3.9397,-0.2314 -3.9397,0.3543 0,0.5414 -1.2375,1.0064 -2.75,1.0334 -1.5125,0.027 -4.8879,0.204 -7.501,0.3935 -2.6131,0.1894 -4.8631,0.041 -5,-0.3306 z"
         id="path100" /><path
         style="fill:#f2c73a"
         d="m -2003.3779,4610.9948 c 0.9729,-0.2536 2.3229,-0.2369 3,0.037 0.677,0.2739 -0.1191,0.4814 -1.7691,0.461 -1.65,-0.02 -2.2039,-0.2445 -1.2309,-0.498 z m 6.4809,-0.013 c 1.2375,-0.2383 3.2625,-0.2383 4.5,0 1.2375,0.2384 0.225,0.4334 -2.25,0.4334 -2.475,0 -3.4875,-0.195 -2.25,-0.4334 z m -12.9375,-28.9774 c 0.7219,-0.2888 1.5844,-0.2533 1.9167,0.079 0.3323,0.3323 -0.2583,0.5686 -1.3125,0.5252 -1.1649,-0.048 -1.4019,-0.2849 -0.6042,-0.6042 z m 22,0 c 0.7219,-0.2888 1.5844,-0.2533 1.9167,0.079 0.3323,0.3323 -0.2583,0.5686 -1.3125,0.5252 -1.1649,-0.048 -1.4019,-0.2849 -0.6042,-0.6042 z m 213,-77 c 0.7219,-0.2888 1.5844,-0.2533 1.9167,0.079 0.3323,0.3323 -0.2583,0.5686 -1.3125,0.5252 -1.1649,-0.048 -1.4019,-0.2849 -0.6042,-0.6042 z m 60.9375,-135.9791 c 0.6875,-0.2774 1.8125,-0.2774 2.5,0 0.6875,0.2774 0.125,0.5043 -1.25,0.5043 -1.375,0 -1.9375,-0.2269 -1.25,-0.5043 z m -5.4776,-45.3378 c 0,-2.475 0.195,-3.4875 0.4334,-2.25 0.2383,1.2375 0.2383,3.2625 0,4.5 -0.2384,1.2375 -0.4334,0.225 -0.4334,-2.25 z m -582.1145,-7 c 0,-1.375 0.227,-1.9375 0.5044,-1.25 0.2774,0.6875 0.2774,1.8125 0,2.5 -0.2774,0.6875 -0.5044,0.125 -0.5044,-1.25 z m 583.1622,-15 c 0,-3.575 0.1815,-5.0375 0.4033,-3.25 0.2218,1.7875 0.2218,4.7125 0,6.5 -0.2218,1.7875 -0.4033,0.325 -0.4033,-3.25 z m -583.2411,-4.5833 c 0.048,-1.1649 0.2849,-1.4019 0.6041,-0.6042 0.2889,0.7219 0.2534,1.5844 -0.079,1.9167 -0.3323,0.3323 -0.5686,-0.2583 -0.5252,-1.3125 z m 578,-3 c 0.048,-1.1649 0.2849,-1.4019 0.6041,-0.6042 0.2889,0.7219 0.2534,1.5844 -0.079,1.9167 -0.3323,0.3323 -0.5686,-0.2583 -0.5252,-1.3125 z m -553.079,-12.4167 c 0,-1.1 0.45,-2 1,-2 0.55,0 1,0.9 1,2 0,1.1 -0.45,2 -1,2 -0.55,0 -1,-0.9 -1,-2 z m 575,-2 c 0,-2.2 0.45,-4 1,-4 0.55,0 1,1.8 1,4 0,2.2 -0.45,4 -1,4 -0.55,0 -1,-1.8 -1,-4 z m -20.8421,-2 c 0,-1.375 0.227,-1.9375 0.5044,-1.25 0.2774,0.6875 0.2774,1.8125 0,2.5 -0.2774,0.6875 -0.5044,0.125 -0.5044,-1.25 z m -574.1579,-4 c 0,-1.1 0.45,-2 1,-2 0.55,0 1,0.9 1,2 0,1.1 -0.45,2 -1,2 -0.55,0 -1,-0.9 -1,-2 z m -1.921,-10.5833 c 0.048,-1.1649 0.2849,-1.4019 0.6041,-0.6042 0.2889,0.7219 0.2534,1.5844 -0.079,1.9167 -0.3323,0.3323 -0.5686,-0.2583 -0.5252,-1.3125 z m 4.921,-9.4167 c 0,-1.3333 0.6667,-2 2,-2 1.3334,0 2,0.6667 2,2 0,1.3334 -0.6666,2 -2,2 -1.3333,0 -2,-0.6666 -2,-2 z m 16,0 c 0,-1.3333 0.6667,-2 2,-2 1.3334,0 2,0.6667 2,2 0,1.3334 -0.6666,2 -2,2 -1.3333,0 -2,-0.6666 -2,-2 z m 563.75,-7.6622 c 0.6875,-0.2774 1.8125,-0.2774 2.5,0 0.6875,0.2774 0.125,0.5043 -1.25,0.5043 -1.375,0 -1.9375,-0.2269 -1.25,-0.5043 z m -557.2188,-27.3881 c 0.5691,-0.9209 0.1953,-1.1114 -1.3748,-0.7008 -1.186,0.3101 -2.1564,0.1295 -2.1564,-0.4015 0,-0.531 -0.4176,-0.7073 -0.928,-0.3919 -0.5104,0.3155 -1.2178,-0.3395 -1.572,-1.4555 -0.3543,-1.1162 -1.1309,-1.728 -1.7265,-1.36 -0.5954,0.368 -0.8013,0.2142 -0.4577,-0.3418 0.3436,-0.556 -0.1689,-1.8468 -1.1388,-2.8684 -2.1265,-2.2399 -1.557,-9.0164 1.1975,-14.2475 0.9609,-1.8248 1.571,-3.8458 1.3559,-4.4911 -0.2151,-0.6453 0.2335,-1.7978 0.9968,-2.5612 0.7633,-0.7633 1.1511,-2.0048 0.8617,-2.7589 -0.2893,-0.7541 -0.064,-1.3711 0.5015,-1.3711 0.5652,0 0.7733,-0.4115 0.4624,-0.9145 -0.3109,-0.5031 -0.1564,-1.0656 0.3434,-1.25 0.9624,-0.3553 9.3384,-17.3425 9.74,-19.7535 0.1299,-0.7799 1.1649,-2.6742 2.3,-4.2095 1.1351,-1.5353 2.0638,-3.2597 2.0638,-3.832 0,-0.5722 0.4151,-1.0405 0.9225,-1.0405 0.5073,0 1.4291,-1.5352 2.0483,-3.4115 0.6193,-1.8764 1.7792,-3.6623 2.5776,-3.9686 0.7984,-0.3064 1.4516,-1.4337 1.4516,-2.5051 0,-1.0715 0.3375,-2.0981 0.75,-2.2814 0.4125,-0.1834 2.9335,-3.593 5.6021,-7.5771 7.8677,-11.7457 16.5786,-22.2794 19.2705,-23.3028 7.1388,-2.7142 15.8087,0.1122 18.9444,6.176 3.4012,6.5773 1.1615,14.1867 -6.2397,21.1984 -1.261,1.1947 -2.3005,2.5418 -2.31,2.9936 -0.01,0.4518 -0.5798,1.4486 -1.2673,2.2153 -2.7158,3.0283 -3.75,4.4052 -3.75,4.9925 0,0.3375 -0.5625,1.2408 -1.25,2.0075 -2.8111,3.1347 -3.5357,4.2126 -4.1657,6.1977 -0.3632,1.1444 -1.3468,2.3442 -2.1857,2.6661 -0.8616,0.3306 -1.2088,1.0975 -0.7979,1.7623 0.4819,0.7798 0.1991,0.9743 -0.838,0.5763 -1.0812,-0.4149 -1.4851,-0.081 -1.3057,1.0801 0.1429,0.9244 -0.014,1.9057 -0.3486,2.1807 -1.7628,1.4489 -5.126,7.1625 -4.6599,7.9167 0.297,0.4806 -0.1791,1.1497 -1.058,1.487 -0.9111,0.3496 -1.3519,1.2544 -1.0256,2.1048 0.3148,0.8203 0.1253,1.4915 -0.421,1.4915 -0.8823,0 -2.3176,2.7039 -2.9196,5.5 -0.1184,0.55 -0.545,1.225 -0.9481,1.5 -1.4477,0.9878 -4.0307,7.2647 -3.4056,8.276 0.398,0.644 0.1397,0.7248 -0.686,0.2145 -0.9617,-0.5943 -1.1495,-0.3628 -0.6859,0.8455 0.3512,0.9152 0.2967,1.664 -0.1211,1.664 -1.5954,0 -7.8832,14.7739 -7.3416,17.25 0.09,0.4125 -0.1735,0.6544 -0.586,0.5376 -1.1884,-0.3367 -5.3525,2.2375 -4.8735,3.0126 0.2379,0.3849 -0.762,0.7154 -2.222,0.7344 -1.4599,0.019 -3.7233,0.4048 -5.0297,0.8572 -1.8016,0.6239 -2.1865,0.5171 -1.5936,-0.4421 z m 29.1311,-46.1997 c -0.2774,-0.6875 -0.5044,-0.125 -0.5044,1.25 0,1.375 0.227,1.9375 0.5044,1.25 0.2774,-0.6875 0.2774,-1.8125 0,-2.5 z m -15.6623,-10.75 c 0,-1.3333 -0.6666,-2 -2,-2 -1.3333,0 -2,0.6667 -2,2 0,1.3334 0.6667,2 2,2 1.3334,0 2,-0.6666 2,-2 z m 4,-8 c 0,-1.1111 -0.6666,-2 -1.5,-2 -0.825,0 -1.5,0.1882 -1.5,0.4183 0,0.23 -0.2731,1.13 -0.607,2 -0.4351,1.1339 -0.01,1.5817 1.5,1.5817 1.4404,0 2.107,-0.6328 2.107,-2 z m 28.011,-4.25 c 2.1682,-3.5561 2.5455,-5.75 0.989,-5.75 -0.55,0 -1,0.9 -1,2 0,1.3334 -0.6666,2 -2,2 -1.4666,0 -2,0.6667 -2,2.5 0,3.4387 1.6446,3.1312 4.011,-0.75 z m -24.1929,-4.25 c 0.6265,-1.375 1.5987,-2.5 2.1605,-2.5 0.5618,0 0.9898,-1.2375 0.9511,-2.75 -0.061,-2.3833 -0.1743,-2.4833 -0.8507,-0.75 -0.4293,1.1 -1.111,1.775 -1.515,1.5 -0.5889,-0.4009 -3.564,5.1207 -3.564,6.6149 0,1.3687 1.8704,-0.035 2.8181,-2.1149 z m 32.1819,-7.5 c 0,-1.217 0.6851,-2.0216 1.75,-2.0553 3.5943,-0.1136 9.7932,-11.9447 6.2585,-11.9447 -0.8033,0 -1.0631,-0.9336 -0.7361,-2.6444 0.7954,-4.1608 -4.9175,-9.3556 -10.2887,-9.3556 -4.4301,0 -8.6144,1.7809 -10.9837,4.6746 -5.7851,7.0658 -8.157,10.5018 -7.62,11.0387 1.5111,1.5112 5.192,0.8651 6.3346,-1.1118 1.0696,-1.8507 1.2188,-1.8856 1.25,-0.2924 0.064,3.2876 2.0354,0.6424 2.0354,-2.7317 0,-3.1887 0.1403,-3.3046 4,-3.3046 3.2358,0 4,0.356 4,1.8636 0,1.197 0.7155,1.8636 2,1.8636 1.3334,0 2,-0.6666 2,-2 0,-1.3036 0.6667,-2 1.9147,-2 1.6487,0 1.9612,0.8773 2.25,6.3161 0.3232,6.0871 0.2537,6.3004 -1.9147,5.8835 -1.7609,-0.3387 -2.25,0.027 -2.25,1.6839 0,1.4499 -0.6299,2.1165 -2,2.1165 -1.3333,0 -2,0.6667 -2,2 0,1.3334 0.6667,2 2,2 1.3334,0 2,-0.6666 2,-2 z m -25,-0.5 c 0,-0.825 -0.1768,-1.5 -0.393,-1.5 -0.2161,0 -0.652,0.675 -0.9686,1.5 -0.3166,0.825 -0.1397,1.5 0.393,1.5 0.5328,0 0.9686,-0.675 0.9686,-1.5 z m 5,-4 c 0,-0.825 -0.675,-1.5 -1.5,-1.5 -0.825,0 -1.5,0.675 -1.5,1.5 0,0.825 0.675,1.5 1.5,1.5 0.825,0 1.5,-0.675 1.5,-1.5 z m 16,-3.5 c 0,-1.1 -0.45,-2 -1,-2 -0.55,0 -1,0.9 -1,2 0,1.1 0.45,2 1,2 0.55,0 1,-0.9 1,-2 z m 486.5744,86.8837 c 0.626,-1.0195 -3.1708,-3.9478 -4.0658,-3.1358 -0.4561,0.4137 -0.5402,0.2458 -0.1871,-0.373 0.8923,-1.5633 -2.2581,-10.4133 -3.9362,-11.0572 -0.7556,-0.29 -1.1248,-0.9301 -0.8205,-1.4224 0.3043,-0.4924 0,-0.8953 -0.6724,-0.8953 -0.6741,0 -0.9625,-0.2632 -0.6407,-0.585 0.7979,-0.7979 -1.2319,-6.415 -2.3181,-6.415 -0.4789,0 -0.5835,-0.7488 -0.2322,-1.664 0.4636,-1.2083 0.2757,-1.4398 -0.6859,-0.8455 -0.8476,0.5238 -1.0847,0.4305 -0.6584,-0.2592 0.6754,-1.0928 -2.8963,-8.1184 -4.8124,-9.4659 -0.5746,-0.4041 -0.6791,-0.7416 -0.2323,-0.75 1.1136,-0.021 -4.4051,-10.0154 -5.5303,-10.0154 -0.4951,0 -0.622,-0.45 -0.2821,-1 0.3399,-0.55 0.1149,-1 -0.5,-1 -0.6149,0 -0.85,-0.4335 -0.5225,-0.9635 0.3275,-0.5299 -0.3209,-1.8799 -1.441,-3 -1.1201,-1.12 -2.0365,-2.4865 -2.0365,-3.0365 0,-0.55 -0.4765,-1 -1.059,-1 -0.5824,0 -0.7789,-0.4531 -0.4366,-1.007 0.3423,-0.5539 -0.081,-1.277 -0.941,-1.607 -0.8599,-0.33 -1.5634,-1.2268 -1.5634,-1.9929 0,-0.7662 -0.45,-1.3931 -1,-1.3931 -0.55,0 -1,-0.6954 -1,-1.5454 0,-0.85 -1.0681,-2.6136 -2.3735,-3.919 -1.3055,-1.3055 -5.1705,-5.9891 -8.5889,-10.408 -7.7032,-9.9576 -8.5825,-13.8156 -4.6706,-20.4909 3.4115,-5.8212 9.2377,-8.3587 15.3889,-6.7024 2.2302,0.6005 4.9402,1.8735 6.0224,2.8288 2.5171,2.222 12.0107,14.3867 15.7934,20.2369 1.6003,2.475 3.3638,4.8307 3.919,5.2347 0.5624,0.4094 0.5937,0.7415 0.071,0.75 -0.5162,0.01 0,0.8854 1.1367,1.9487 1.1414,1.0634 2.6861,3.3134 3.4326,5 0.7466,1.6867 1.7242,3.0666 2.1724,3.0666 0.4482,0 0.5367,0.45 0.1968,1 -0.3399,0.55 -0.1149,1 0.5,1 0.6149,0 0.8821,0.3819 0.5936,0.8486 -0.2884,0.4667 0.2475,1.7218 1.191,2.789 0.9435,1.0673 1.8527,2.598 2.0204,3.4015 0.1677,0.8035 0.9482,1.9554 1.7344,2.5598 0.7863,0.6044 1.1365,1.3919 0.7784,1.75 -0.3581,0.3581 -0.1,0.6511 0.5746,0.6511 0.6741,0 0.9475,0.45 0.6076,1 -0.3399,0.55 -0.1149,1 0.5,1 0.6149,0 0.8399,0.45 0.5,1 -0.3399,0.55 -0.1149,1 0.5,1 0.6149,0 0.8399,0.45 0.5,1 -0.3399,0.55 -0.1149,1 0.5,1 0.6149,0 0.8399,0.45 0.5,1 -0.3399,0.55 -0.1801,1 0.3552,1 0.5352,0 0.8318,1.9125 0.659,4.25 -0.1729,2.3375 -0.099,3.2091 0.1636,1.9368 l 0.4779,-2.3133 1.9222,2.2163 c 2.3728,2.7359 2.4891,3.6164 0.2354,1.7827 -1.2259,-0.9975 -1.039,-0.2113 0.6841,2.8775 1.304,2.3375 2.7239,4.25 3.1554,4.25 0.4314,0 0.4971,0.7489 0.1459,1.6641 -0.3756,0.9787 -0.2312,1.4123 0.3504,1.0528 0.598,-0.3695 0.8201,0.5396 0.5619,2.2993 -0.4444,3.0276 1.8277,6.4731 3.42,5.1862 0.478,-0.3863 0.5474,-0.3057 0.1542,0.1791 -0.3931,0.4848 -0.2122,1.8206 0.4021,2.9685 0.6143,1.1478 1.167,3.2261 1.2282,4.6185 0.1294,2.943 -4.5711,10.5093 -7.5039,12.0789 -2.0575,1.1011 -15.023,0.9531 -14.3372,-0.1637 z m 14.0879,-24.1337 c -0.2774,-0.6875 -0.5044,-0.125 -0.5044,1.25 0,1.375 0.227,1.9375 0.5044,1.25 0.2774,-0.6875 0.2774,-1.8125 0,-2.5 z m -9.3725,-22.75 c -0.2877,-1.1 -1.1456,-2 -1.9064,-2 -1.5622,0 -1.6269,0.2018 -0.7764,2.4183 0.906,2.3609 3.3115,1.9859 2.6828,-0.4183 z m -13.8775,-24.858 c 0.2917,-0.4719 -1.4914,-3.0594 -3.9623,-5.75 -2.4709,-2.6906 -4.9042,-6.3816 -5.4073,-8.2022 -1.1726,-4.2436 -11.4624,-17.0186 -14.6988,-18.2491 -3.346,-1.2721 -8.9943,-1.1867 -11.6596,0.1764 -4.2685,2.1829 -5.6385,5.0203 -5.662,11.7266 -0.019,5.5127 0.2397,6.4121 1.9777,6.8666 1.1069,0.2895 2,1.364 2,2.4064 0,1.2167 0.708,1.8833 2,1.8833 1.3334,0 2,0.6667 2,2 0,1.3334 0.6667,2 2,2 1.3334,0 2,-0.6666 2,-2 0,-1.2888 -0.6666,-2 -1.875,-2 -1.2833,0 -2.0643,-0.9466 -2.475,-3 -0.3519,-1.7595 -1.2305,-3 -2.125,-3 -1.1372,0 -1.525,-1.1266 -1.525,-4.4304 0,-3.8332 0.3033,-4.4735 2.25,-4.75 1.4672,-0.2084 2.364,-1.1241 2.5778,-2.6319 0.2835,-2.0006 0.7259,-2.225 3.2804,-1.6639 3.2463,0.713 11.8918,8.0287 11.8918,10.0627 0,0.7033 0.7875,1.5309 1.75,1.8391 0.9625,0.3081 3.0427,3.0384 4.6226,6.0673 1.5799,3.0289 3.4924,5.5071 4.25,5.5071 0.7576,0 1.3774,0.7379 1.3774,1.6398 0,0.9019 0.7875,2.2376 1.75,2.9682 2.0696,1.571 2.9427,1.6984 3.6623,0.534 z m -365.4123,64.4805 c 0,-0.2077 0.7875,-0.9952 1.75,-1.75 1.5861,-1.2439 1.6215,-1.2085 0.3776,0.3775 -1.3064,1.6658 -2.1276,2.1955 -2.1276,1.3725 z m -78.5428,-113.4855 c -4.5554,-2.778 -6.6879,-6.6927 -6.6879,-12.2773 0,-6.3217 1.4609,-8.3786 11.4551,-16.1277 13.0133,-10.09 37.1107,-25.7011 35.4001,-22.9334 -0.3533,0.5716 -3.6413,2.7164 -7.3067,4.7662 -14.2534,7.971 -33.3251,22.4818 -36.2372,27.5714 -5.5355,9.6744 0.2362,19.8768 11.2345,19.8586 3.4049,-0.01 5.1435,-0.9724 14.3197,-7.963 10.4901,-7.9916 33.1366,-22.5937 33.883,-21.8473 0.1778,0.1778 -4.2917,3.1781 -9.9322,6.6674 -5.6404,3.4892 -15.5877,10.35 -22.105,15.2461 -10.8846,8.1771 -12.2215,8.9017 -16.4151,8.8983 -2.6812,0 -5.8213,-0.7696 -7.6083,-1.8593 z m 358.8642,-5.4419 c -15.5186,-11.5424 -24.6887,-17.4631 -39.2565,-25.3462 -7.4607,-4.0372 -13.2168,-7.3423 -12.7913,-7.3446 1.3714,-0.01 28.1579,14.154 30.2264,15.9802 1.1,0.9711 3.125,2.3303 4.5,3.0204 2.6208,1.3153 10.8179,7.2267 21.1402,15.2451 4.5561,3.5393 6.9826,4.75 9.5194,4.75 10.6289,0 17.4415,-10.1024 12.8284,-19.0231 -1.6562,-3.2028 -10.4353,-10.8768 -17.7569,-15.5217 -2.5619,-1.6253 -4.6745,-3.3143 -4.6946,-3.7532 -0.1075,-2.35 20.9733,14.5379 23.2135,18.5965 3.3752,6.1147 1.7394,13.0083 -4.2908,18.0824 -2.4219,2.038 -4.1893,2.6191 -7.9645,2.6191 -4.4635,0 -5.6383,-0.5848 -14.6733,-7.3049 z m -300.8214,-24.5068 c 1.435,-1.4264 15.5536,-8.468 16.0278,-7.9938 0.2184,0.2184 -3.5235,2.33 -8.3153,4.6924 -4.7919,2.3624 -8.2625,3.848 -7.7125,3.3014 z m 244.5,-9.1883 c -0.825,-0.5331 -1.05,-0.9693 -0.5,-0.9693 0.55,0 1.675,0.4362 2.5,0.9693 0.825,0.5332 1.05,0.9694 0.5,0.9694 -0.55,0 -1.675,-0.4362 -2.5,-0.9694 z m 54.7322,-1.536 c -2.0527,-1.3948 -3.7322,-2.7703 -3.7322,-3.0565 0,-0.7417 5.9473,2.8456 7.1994,4.3425 1.5539,1.8578 0.685,1.5355 -3.4672,-1.286 z m -276.7322,-0.4723 c 1.925,-1.0585 5.975,-2.8708 9,-4.0275 3.025,-1.1566 6.7959,-3.3092 8.3796,-4.7836 2.4696,-2.2988 2.7212,-2.374 1.767,-0.528 -0.612,1.184 -3.0328,3.0467 -5.3796,4.1395 -14.2975,6.6574 -21.0701,9.2153 -13.767,5.1996 z m 213,-1.9917 c -2.475,-1.0385 -3.9924,-1.9134 -3.3721,-1.9441 1.4182,-0.07 8.3721,2.8016 8.3721,3.4576 0,0.6175 0.2812,0.7026 -5,-1.5135 z m 53.25,-4.1046 c -2.8875,-1.6832 -5.25,-3.2911 -5.25,-3.5729 0,-0.5552 8.8933,4.3897 10.45,5.8105 1.6947,1.5467 0.1554,0.8843 -5.2,-2.2376 z m -65.1991,-2.5578 c -2.2773,-2.8951 -3.6597,-7.062 -2.671,-8.0508 0.3411,-0.341 0.6201,0.2921 0.6201,1.407 0,1.1149 1.1115,3.6649 2.4699,5.6667 2.8776,4.2403 2.6201,4.8407 -0.419,0.9771 z m 56.3903,-2.8927 c -1.8641,-1.4934 -1.8518,-1.5119 0.3088,-0.4648 1.2375,0.5997 2.25,1.2995 2.25,1.5551 0,0.7652 -0.5186,0.5443 -2.5588,-1.0903 z m -296.4412,0.096 c 0,-0.275 1.8,-1.4183 4,-2.5407 2.2,-1.1223 4,-1.8156 4,-1.5406 0,0.275 -1.8,1.4183 -4,2.5406 -2.2,1.1224 -4,1.8157 -4,1.5407 z m 59.17,-2.0407 c 0.016,-1.1 0.3897,-3.125 0.83,-4.5 l 0.8007,-2.5 0.029,2.5 c 0.016,1.375 -0.3574,3.4 -0.8301,4.5 l -0.8594,2 z m 223.83,-5 c -4.675,-2.4197 -8.1525,-4.4221 -7.7278,-4.4497 1.063,-0.069 16.7278,7.8541 16.7278,8.4609 0,0.6777 0.424,0.8666 -9,-4.0112 z m -274,2.107 c 0,-0.2161 0.6984,-0.661 1.552,-0.9885 0.8899,-0.3415 1.2913,-0.1739 0.9409,0.393 -0.5872,0.9502 -2.4929,1.4054 -2.4929,0.5955 z m 91.25,-2.2963 c 0.9625,-0.2515 2.5375,-0.2515 3.5,0 0.9625,0.2515 0.175,0.4573 -1.75,0.4573 -1.925,0 -2.7125,-0.2058 -1.75,-0.4573 z m 94.5625,0.01 c 0.7219,-0.2888 1.5844,-0.2533 1.9167,0.079 0.3323,0.3323 -0.2583,0.5686 -1.3125,0.5252 -1.1649,-0.048 -1.4019,-0.2849 -0.6042,-0.6042 z m 42.3454,-1.3169 c 0,-1.375 0.227,-1.9375 0.5044,-1.25 0.2774,0.6875 0.2774,1.8125 0,2.5 -0.2774,0.6875 -0.5044,0.125 -0.5044,-1.25 z m -141.6508,0.012 c -0.3503,-0.5669 0.051,-0.7345 0.941,-0.393 1.7324,0.6648 2.0494,1.3815 0.6109,1.3815 -0.5175,0 -1.2159,-0.4448 -1.5519,-0.9885 z m 13.3054,0.3054 c 0.7219,-0.2888 1.5844,-0.2533 1.9167,0.079 0.3323,0.3323 -0.2583,0.5686 -1.3125,0.5252 -1.1649,-0.048 -1.4019,-0.2849 -0.6042,-0.6042 z m 5.4566,-1.0098 c 0.9729,-0.2536 2.3229,-0.2369 3,0.037 0.677,0.2739 -0.1191,0.4814 -1.7691,0.461 -1.65,-0.02 -2.2039,-0.2445 -1.2309,-0.498 z m 67.5434,0.01 c 0.7219,-0.2888 1.5844,-0.2533 1.9167,0.079 0.3323,0.3323 -0.2583,0.5686 -1.3125,0.5252 -1.1649,-0.048 -1.4019,-0.2849 -0.6042,-0.6042 z m -159.8125,-2.3169 c 1.925,-1.0538 3.95,-1.9161 4.5,-1.9161 0.55,0 -0.575,0.8623 -2.5,1.9161 -1.925,1.0539 -3.95,1.9162 -4.5,1.9162 -0.55,0 0.575,-0.8623 2.5,-1.9162 z m 69.0509,-0.6624 c -2.2773,-2.8951 -3.6597,-7.062 -2.671,-8.0508 0.3411,-0.341 0.6201,0.2921 0.6201,1.407 0,1.1149 1.1115,3.6649 2.4699,5.6667 2.8776,4.2403 2.6201,4.8407 -0.419,0.9771 z m 32.7108,1.9552 c 1.2439,-0.2392 3.0439,-0.2301 4,0.02 0.9561,0.2503 -0.062,0.446 -2.2617,0.4349 -2.2,-0.011 -2.9822,-0.2159 -1.7383,-0.4551 z m 47.4883,0.018 c 0.9625,-0.2515 2.5375,-0.2515 3.5,0 0.9625,0.2515 0.175,0.4573 -1.75,0.4573 -1.925,0 -2.7125,-0.2058 -1.75,-0.4573 z m -30.0437,-1.0512 c 3.6884,-0.1919 9.9884,-0.1931 14,0 4.0115,0.1903 0.9937,0.3472 -6.7063,0.3488 -7.7,0 -10.9822,-0.1542 -7.2937,-0.346 z m 96.7937,-1.2004 c 0,-0.5176 0.4449,-1.216 0.9886,-1.552 0.5668,-0.3503 0.7345,0.051 0.393,0.941 -0.6648,1.7324 -1.3816,2.0494 -1.3816,0.611 z m -181.394,-2.907 -1.8941,-2.6521 2.3385,2.2223 c 1.2862,1.2222 2.1385,2.4156 1.8941,2.652 -0.2445,0.2364 -1.2968,-0.7636 -2.3385,-2.2222 z m -28.606,1.5132 c 0,-0.2583 1.4523,-0.9759 3.2272,-1.5946 1.7749,-0.6188 2.7874,-0.7134 2.25,-0.2102 -1.1387,1.066 -5.4772,2.4955 -5.4772,1.8048 z m 11,-4.6653 c 0.825,-0.5331 1.95,-0.9693 2.5,-0.9693 0.55,0 0.325,0.4362 -0.5,0.9693 -0.825,0.5332 -1.95,0.9694 -2.5,0.9694 -0.55,0 -0.325,-0.4362 0.5,-0.9694 z m 170.195,-2.5 c 0.02,-1.65 0.2445,-2.2039 0.498,-1.2309 0.2536,0.9729 0.2369,2.3229 -0.037,3 -0.274,0.677 -0.4814,-0.1191 -0.461,-1.7691 z m -164.4333,0.7928 c 1.2439,-0.2392 3.0439,-0.2301 4,0.02 0.9561,0.2503 -0.062,0.446 -2.2617,0.4349 -2.2,-0.011 -2.9822,-0.2159 -1.7383,-0.4551 z m 203.9883,0 c 1.2375,-0.2383 3.2625,-0.2383 4.5,0 1.2375,0.2384 0.225,0.4334 -2.25,0.4334 -2.475,0 -3.4875,-0.195 -2.25,-0.4334 z m -160.5921,-3.2943 c 0,-1.375 0.227,-1.9375 0.5044,-1.25 0.2774,0.6875 0.2774,1.8125 0,2.5 -0.2774,0.6875 -0.5044,0.125 -0.5044,-1.25 z m 119.4064,-3.7068 c -0.5427,-1.4252 -0.4278,-1.5401 0.5598,-0.5598 0.6834,0.6783 0.9907,1.4852 0.6828,1.7931 -0.3079,0.3079 -0.867,-0.2471 -1.2426,-1.2333 z m -2.6918,-4.0432 c -1.2439,-1.586 -1.2085,-1.6214 0.3775,-0.3775 1.6658,1.3064 2.1955,2.1275 1.3725,2.1275 -0.2077,0 -0.9952,-0.7875 -1.75,-1.75 z m -101.3725,-4.3073 c 2.2,-0.4551 5.35,-0.797 7,-0.7599 2.2497,0.051 1.8745,0.2678 -1.5,0.8683 -6.0345,1.0737 -10.7645,0.9805 -5.5,-0.1084 z m 90.75,0.368 c 0.9625,-0.2515 2.5375,-0.2515 3.5,0 0.9625,0.2515 0.175,0.4573 -1.75,0.4573 -1.925,0 -2.7125,-0.2058 -1.75,-0.4573 z m -5.5,-0.9729 c 0.6875,-0.2774 1.8125,-0.2774 2.5,0 0.6875,0.2774 0.125,0.5043 -1.25,0.5043 -1.375,0 -1.9375,-0.2269 -1.25,-0.5043 z m -72.5,-1.0271 c 0.9625,-0.2515 2.5375,-0.2515 3.5,0 0.9625,0.2515 0.175,0.4573 -1.75,0.4573 -1.925,0 -2.7125,-0.2058 -1.75,-0.4573 z m 62,0 c 0.9625,-0.2515 2.5375,-0.2515 3.5,0 0.9625,0.2515 0.175,0.4573 -1.75,0.4573 -1.925,0 -2.7125,-0.2058 -1.75,-0.4573 z m -50.5,-1.0164 c 1.2375,-0.2383 3.2625,-0.2383 4.5,0 1.2375,0.2384 0.225,0.4334 -2.25,0.4334 -2.475,0 -3.4875,-0.195 -2.25,-0.4334 z m 39.0117,0 c 1.2439,-0.2392 3.0439,-0.2301 4,0.02 0.9561,0.2503 -0.062,0.446 -2.2617,0.4349 -2.2,-0.011 -2.9822,-0.2159 -1.7383,-0.4551 z m -21.034,-1.0145 c 1.7753,-0.2209 4.9253,-0.2245 7,-0.01 2.0748,0.2165 0.6223,0.3973 -3.2277,0.4017 -3.85,0 -5.5475,-0.1727 -3.7723,-0.3936 z"
         id="path99" /><path
         style="fill:#e6ac2c"
         d="m -2019.897,4609.982 c 1.2375,-0.2383 3.2625,-0.2383 4.5,0 1.2375,0.2384 0.225,0.4334 -2.25,0.4334 -2.475,0 -3.4875,-0.195 -2.25,-0.4334 z m 40.0117,0 c 1.2439,-0.2392 3.0439,-0.2301 4,0.02 0.9561,0.2503 -0.062,0.446 -2.2617,0.4349 -2.2,-0.011 -2.9822,-0.2159 -1.7383,-0.4551 z m -51.0117,-0.955 c 0.6875,-0.2774 1.8125,-0.2774 2.5,0 0.6875,0.2774 0.125,0.5043 -1.25,0.5043 -1.375,0 -1.9375,-0.2269 -1.25,-0.5043 z m 63.5191,-0.031 c 0.9729,-0.2536 2.3229,-0.2369 3,0.037 0.677,0.2739 -0.1191,0.4814 -1.7691,0.461 -1.65,-0.02 -2.2039,-0.2445 -1.2309,-0.498 z m -72.5191,-0.9693 c 0.6875,-0.2774 1.8125,-0.2774 2.5,0 0.6875,0.2774 0.125,0.5043 -1.25,0.5043 -1.375,0 -1.9375,-0.2269 -1.25,-0.5043 z m 82.0625,-0.021 c 0.7219,-0.2888 1.5844,-0.2533 1.9167,0.079 0.3323,0.3323 -0.2583,0.5686 -1.3125,0.5252 -1.1649,-0.048 -1.4019,-0.2849 -0.6042,-0.6042 z m -89.0625,-0.9791 c 0.6875,-0.2774 1.8125,-0.2774 2.5,0 0.6875,0.2774 0.125,0.5043 -1.25,0.5043 -1.375,0 -1.9375,-0.2269 -1.25,-0.5043 z m 96.0625,-0.021 c 0.7219,-0.2888 1.5844,-0.2533 1.9167,0.079 0.3323,0.3323 -0.2583,0.5686 -1.3125,0.5252 -1.1649,-0.048 -1.4019,-0.2849 -0.6042,-0.6042 z m -108.6546,-14.3169 c 0,-1.375 0.227,-1.9375 0.5044,-1.25 0.2774,0.6875 0.2774,1.8125 0,2.5 -0.2774,0.6875 -0.5044,0.125 -0.5044,-1.25 z m -41.8888,-0.6929 c 0.9729,-0.2536 2.3229,-0.2369 3,0.037 0.677,0.2739 -0.1191,0.4814 -1.7691,0.461 -1.65,-0.02 -2.2039,-0.2445 -1.2309,-0.498 z m 87,-10 c 0.9729,-0.2536 2.3229,-0.2369 3,0.037 0.677,0.2739 -0.1191,0.4814 -1.7691,0.461 -1.65,-0.02 -2.2039,-0.2445 -1.2309,-0.498 z m 30,0 c 0.9729,-0.2536 2.3229,-0.2369 3,0.037 0.677,0.2739 -0.1191,0.4814 -1.7691,0.461 -1.65,-0.02 -2.2039,-0.2445 -1.2309,-0.498 z m -102.0169,-3.8071 c 0.011,-2.2 0.2159,-2.9822 0.4551,-1.7383 0.2392,1.2439 0.2301,3.0439 -0.02,4 -0.2503,0.9561 -0.446,-0.062 -0.4349,-2.2617 z m 59.5603,2.8169 c 0.7219,-0.2888 1.5844,-0.2533 1.9167,0.079 0.3323,0.3323 -0.2583,0.5686 -1.3125,0.5252 -1.1649,-0.048 -1.4019,-0.2849 -0.6042,-0.6042 z m 56,0 c 0.7219,-0.2888 1.5844,-0.2533 1.9167,0.079 0.3323,0.3323 -0.2583,0.5686 -1.3125,0.5252 -1.1649,-0.048 -1.4019,-0.2849 -0.6042,-0.6042 z m -119.8882,-13.0669 -2.4243,-2.75 2.75,2.4244 c 2.5703,2.2658 3.2086,3.0756 2.4243,3.0756 -0.1791,0 -1.4166,-1.2375 -2.75,-2.75 z m 183.0757,1.3725 c 0,-0.2077 0.7875,-0.9952 1.75,-1.75 1.5861,-1.2439 1.6215,-1.2085 0.3776,0.3775 -1.3064,1.6658 -2.1276,2.1955 -2.1276,1.3725 z m -210,-13.6225 c -0.825,-0.5331 -1.05,-0.9693 -0.5,-0.9693 0.55,0 1.675,0.4362 2.5,0.9693 0.825,0.5332 1.05,0.9694 0.5,0.9694 -0.55,0 -1.675,-0.4362 -2.5,-0.9694 z m 237.7334,-0.124 c 0.6783,-0.6835 1.4852,-0.9907 1.7931,-0.6828 0.3079,0.3079 -0.2471,0.867 -1.2333,1.2426 -1.4252,0.5426 -1.5401,0.4278 -0.5598,-0.5598 z m 65.2666,-6.2535 c 0,-0.2077 0.7875,-0.9952 1.75,-1.75 1.5861,-1.2439 1.6215,-1.2085 0.3776,0.3775 -1.3064,1.6658 -2.1276,2.1955 -2.1276,1.3725 z m -371.1275,-3.3725 c -1.2439,-1.586 -1.2085,-1.6214 0.3775,-0.3775 0.9625,0.7548 1.75,1.5423 1.75,1.75 0,0.823 -0.8212,0.2933 -2.1275,-1.3725 z m 375.1275,0.3725 c 0,-0.2077 0.7875,-0.9952 1.75,-1.75 1.5861,-1.2439 1.6215,-1.2085 0.3776,0.3775 -1.3064,1.6658 -2.1276,2.1955 -2.1276,1.3725 z m -381.0757,-5.3725 -2.4243,-2.75 2.75,2.4244 c 2.5703,2.2658 3.2086,3.0756 2.4243,3.0756 -0.1791,0 -1.4166,-1.2375 -2.75,-2.75 z m -3.7293,-9.75 c 0.02,-1.65 0.2445,-2.2039 0.498,-1.2309 0.2536,0.9729 0.2369,2.3229 -0.037,3 -0.274,0.677 -0.4814,-0.1191 -0.461,-1.7691 z m 354.805,2.1225 c 0,-0.2077 0.7875,-0.9952 1.75,-1.75 1.5861,-1.2439 1.6215,-1.2085 0.3776,0.3775 -1.3064,1.6658 -2.1276,2.1955 -2.1276,1.3725 z m -323.1275,-6.3725 c -1.2439,-1.586 -1.2085,-1.6214 0.3775,-0.3775 1.6658,1.3064 2.1955,2.1275 1.3725,2.1275 -0.2077,0 -0.9952,-0.7875 -1.75,-1.75 z m 335.1275,-2.6275 c 0,-0.2077 0.7875,-0.9952 1.75,-1.75 1.5861,-1.2439 1.6215,-1.2085 0.3776,0.3775 -1.3064,1.6658 -2.1276,2.1955 -2.1276,1.3725 z m 22.8725,-3.3725 c -1.2439,-1.586 -1.2085,-1.6214 0.3775,-0.3775 1.6658,1.3064 2.1955,2.1275 1.3725,2.1275 -0.2077,0 -0.9952,-0.7875 -1.75,-1.75 z m -367,-1 c -1.2439,-1.586 -1.2085,-1.6214 0.3775,-0.3775 0.9625,0.7548 1.75,1.5423 1.75,1.75 0,0.823 -0.8212,0.2933 -2.1275,-1.3725 z m 348.1275,1.3725 c 0,-0.2077 0.7875,-0.9952 1.75,-1.75 1.5861,-1.2439 1.6215,-1.2085 0.3776,0.3775 -1.3064,1.6658 -2.1276,2.1955 -2.1276,1.3725 z m -359.1875,-4.3056 c 0.7219,-0.2888 1.5844,-0.2533 1.9167,0.079 0.3323,0.3323 -0.2583,0.5686 -1.3125,0.5252 -1.1649,-0.048 -1.4019,-0.2849 -0.6042,-0.6042 z m 4,0 c 0.7219,-0.2888 1.5844,-0.2533 1.9167,0.079 0.3323,0.3323 -0.2583,0.5686 -1.3125,0.5252 -1.1649,-0.048 -1.4019,-0.2849 -0.6042,-0.6042 z m 363.9375,0.021 c 0.6875,-0.2774 1.8125,-0.2774 2.5,0 0.6875,0.2774 0.125,0.5043 -1.25,0.5043 -1.375,0 -1.9375,-0.2269 -1.25,-0.5043 z m -402.6666,-12.7023 c 0.2291,-0.2005 1.5416,-0.9003 2.9166,-1.5552 2.3573,-1.1226 2.3892,-1.1018 0.5589,0.3646 -1.593,1.2762 -4.8479,2.3913 -3.4755,1.1906 z m -14.1591,-4.3855 -2.4243,-2.75 2.75,2.4244 c 2.5703,2.2658 3.2086,3.0756 2.4243,3.0756 -0.1791,0 -1.4166,-1.2375 -2.75,-2.75 z m -4.0518,-5 c -1.2439,-1.586 -1.2085,-1.6214 0.3775,-0.3775 0.9625,0.7548 1.75,1.5423 1.75,1.75 0,0.823 -0.8212,0.2933 -2.1275,-1.3725 z m 478.1275,-1.6275 c 0,-0.2077 0.7875,-0.9952 1.75,-1.75 1.5861,-1.2439 1.6215,-1.2085 0.3776,0.3775 -1.3064,1.6658 -2.1276,2.1955 -2.1276,1.3725 z m -482.1275,-3.3725 c -1.2439,-1.586 -1.2085,-1.6214 0.3775,-0.3775 0.9625,0.7548 1.75,1.5423 1.75,1.75 0,0.823 -0.8212,0.2933 -2.1275,-1.3725 z m 452.2065,-1.8333 c 0.048,-1.1649 0.2849,-1.4019 0.6041,-0.6042 0.2889,0.7219 0.2534,1.5844 -0.079,1.9167 -0.3323,0.3323 -0.5686,-0.2583 -0.5252,-1.3125 z m 4.921,-8.7942 c 0,-0.2077 0.7875,-0.9952 1.75,-1.75 1.5861,-1.2439 1.6215,-1.2085 0.3776,0.3775 -1.3064,1.6658 -2.1276,2.1955 -2.1276,1.3725 z m -432.1275,-3.3725 c -1.2439,-1.586 -1.2085,-1.6214 0.3775,-0.3775 0.9625,0.7548 1.75,1.5423 1.75,1.75 0,0.823 -0.8212,0.2933 -2.1275,-1.3725 z m -3,-4 c -1.2439,-1.586 -1.2085,-1.6214 0.3775,-0.3775 0.9625,0.7548 1.75,1.5423 1.75,1.75 0,0.823 -0.8212,0.2933 -2.1275,-1.3725 z m -3,-4 c -1.2439,-1.586 -1.2085,-1.6214 0.3775,-0.3775 0.9625,0.7548 1.75,1.5423 1.75,1.75 0,0.823 -0.8212,0.2933 -2.1275,-1.3725 z m 447.1275,-0.6275 c 0,-0.2077 0.7875,-0.9952 1.75,-1.75 1.5861,-1.2439 1.6215,-1.2085 0.3776,0.3775 -1.3064,1.6658 -2.1276,2.1955 -2.1276,1.3725 z m 37,-4.6225 c 0.5887,-1.1 1.2954,-2 1.5704,-2 0.275,0 0.018,0.9 -0.5704,2 -0.5887,1.1 -1.2953,2 -1.5703,2 -0.275,0 -0.018,-0.9 0.5703,-2 z m -523,-3 c -0.5887,-1.1 -0.8453,-2 -0.5703,-2 0.275,0 0.9816,0.9 1.5703,2 0.5887,1.1 0.8454,2 0.5704,2 -0.275,0 -0.9817,-0.9 -1.5704,-2 z m 25,-13 c -0.5887,-1.1 -0.8453,-2 -0.5703,-2 0.275,0 0.9816,0.9 1.5703,2 0.5887,1.1 0.8454,2 0.5704,2 -0.275,0 -0.9817,-0.9 -1.5704,-2 z m 479,-8 c 1.1224,-2.2 2.2657,-4 2.5407,-4 0.275,0 -0.4183,1.8 -1.5407,4 -1.1223,2.2 -2.2656,4 -2.5406,4 -0.275,0 0.4183,-1.8 1.5406,-4 z m 4.5643,-8.2931 c 0.3756,-0.9862 0.9347,-1.5412 1.2426,-1.2333 0.3079,0.3079 6e-4,1.1148 -0.6828,1.7931 -0.9876,0.9803 -1.1025,0.8654 -0.5598,-0.5598 z m 2,-4 c 0.3756,-0.9862 0.9347,-1.5412 1.2426,-1.2333 0.3079,0.3079 6e-4,1.1148 -0.6828,1.7931 -0.9876,0.9803 -1.1025,0.8654 -0.5598,-0.5598 z m 2.4664,-5.2069 c 0,-0.55 0.4362,-1.675 0.9693,-2.5 0.5332,-0.825 0.9694,-1.05 0.9694,-0.5 0,0.55 -0.4362,1.675 -0.9694,2.5 -0.5331,0.825 -0.9693,1.05 -0.9693,0.5 z m -505.4071,-9.0386 c -0.965,-2.5147 -0.6803,-3.1636 0.4985,-1.1364 0.5837,1.0038 0.8506,2.0357 0.5931,2.2932 -0.2574,0.2574 -0.7487,-0.2631 -1.0916,-1.1568 z m 509.4071,0.039 c 0,-0.55 0.4362,-1.675 0.9693,-2.5 0.5332,-0.825 0.9694,-1.05 0.9694,-0.5 0,0.55 -0.4362,1.675 -0.9694,2.5 -0.5331,0.825 -0.9693,1.05 -0.9693,0.5 z m 30.1643,-2 c 0.02,-1.65 0.2445,-2.2039 0.498,-1.2309 0.2536,0.9729 0.2369,2.3229 -0.037,3 -0.274,0.677 -0.4814,-0.1191 -0.461,-1.7691 z m -542.6307,-6.2068 c -0.5427,-1.4252 -0.4278,-1.5401 0.5598,-0.5598 0.6834,0.6783 0.9907,1.4852 0.6828,1.7931 -0.3079,0.3079 -0.867,-0.2471 -1.2426,-1.2333 z m -23.6918,-2.5432 c 0.7548,-0.9625 2.3298,-1.6978 3.5,-1.634 2.0208,0.1102 2.0272,0.1407 0.1275,0.6077 -1.1,0.2703 -2.675,1.0056 -3.5,1.634 -1.3045,0.9935 -1.3212,0.9143 -0.1275,-0.6077 z m 20.5325,-2 -1.905,-2.25 2.25,1.905 c 2.1145,1.7902 2.7053,2.595 1.905,2.595 -0.1897,0 -1.2022,-1.0125 -2.25,-2.25 z m 540.4675,-0.5 c -1.2439,-1.586 -1.2085,-1.6214 0.3775,-0.3775 1.6658,1.3064 2.1955,2.1275 1.3725,2.1275 -0.2077,0 -0.9952,-0.7875 -1.75,-1.75 z m -8.3725,-2.25 -4,-0.7161 3.5,-0.072 c 1.925,-0.039 4.4,0.3152 5.5,0.7878 2.3565,1.0126 0.6555,1.0126 -5,0 z m -556.5,-29.0784 c 3.1436,-0.7322 3.0087,-0.7814 -1.3252,-0.4827 -3.4203,0.2356 -4.9795,-0.069 -5.3548,-1.0475 -0.2913,-0.7589 -0.898,-1.1522 -1.3483,-0.8739 -0.4503,0.2784 -1.8142,-0.8919 -3.0309,-2.6006 -2.6138,-3.6708 -4.3097,-14.9817 -5.9503,-39.6861 -1.6042,-24.1548 1.4978,-63.7485 5.4693,-69.8096 5.3362,-8.1442 17.8445,-8.5124 23.3156,-0.6862 3.0553,4.3705 3.3554,7.5482 1.6507,17.4791 -2.2536,13.1278 -3.0113,47.2471 -1.3833,62.2859 0.7145,6.6 1.247,13.5639 1.1835,15.4753 -0.063,1.9113 0.3689,3.7746 0.961,4.1405 1.3262,0.8196 0.1689,7.8842 -1.2916,7.8842 -0.5575,0 -0.7973,0.3501 -0.5329,0.778 0.2644,0.4279 -0.4231,1.8904 -1.5278,3.25 -1.1047,1.3596 -1.7179,1.9095 -1.3627,1.222 0.4155,-0.8043 -0.088,-1.25 -1.4133,-1.25 -1.3535,0 -2.059,0.6486 -2.059,1.8931 0,2.2327 -1.9662,3.1567 -6.3318,2.9753 l -3.1682,-0.1316 z m 9,-85.9216 c 0,-1.1 -0.45,-2 -1,-2 -0.55,0 -1,0.9 -1,2 0,1.1 0.45,2 1,2 0.55,0 1,-0.9 1,-2 z m -20,-8 c 0,-1.1 -0.45,-2 -1,-2 -0.55,0 -1,0.9 -1,2 0,1.1 0.45,2 1,2 0.55,0 1,-0.9 1,-2 z m 5,-20 c 0,-1.3333 -0.6666,-2 -2,-2 -1.3333,0 -2,0.6667 -2,2 0,1.3334 0.6667,2 2,2 1.3334,0 2,-0.6666 2,-2 z m 16,0 c 0,-1.3333 -0.6666,-2 -2,-2 -1.3333,0 -2,0.6667 -2,2 0,1.3334 0.6667,2 2,2 1.3334,0 2,-0.6666 2,-2 z m 556,114.2963 c -2.4452,-0.8897 -6.9751,-5.5275 -6.3643,-6.5158 0.3105,-0.5024 -0.2469,-1.5069 -1.2387,-2.2321 -1.7361,-1.2695 -1.7305,-1.891 0.1499,-16.6835 2.6515,-20.8591 2.6613,-51.136 0.023,-70 -2.1759,-15.5557 -1.7914,-17.7068 4.0886,-22.8695 6.2044,-5.4475 17.0339,-3.3593 20.8502,4.0207 2.9922,5.7863 4.8488,25.7696 4.9226,52.9839 0.066,24.3502 -1.7502,50.5387 -3.4328,49.4988 -0.3901,-0.241 -0.5246,0.5607 -0.299,1.7815 0.2731,1.4776 -0.6481,3.39 -2.7551,5.7197 -1.7409,1.925 -2.553,2.6389 -1.8047,1.5863 1.2725,-1.7896 1.2131,-1.835 -0.9173,-0.6998 -1.2529,0.6676 -2.0398,1.5993 -1.7486,2.0705 0.2912,0.4711 -0.3712,0.621 -1.472,0.3332 -1.1008,-0.2879 -2.0014,-0.9209 -2.0014,-1.4068 0,-1.4548 -2.7424,-0.9971 -3.3388,0.5573 -0.3947,1.0285 0.3614,1.5549 2.643,1.84 2.4118,0.3013 2.0919,0.4192 -1.3042,0.4804 -2.475,0.045 -5.175,-0.1646 -6,-0.4648 z m 18,-8.7372 c 0,-0.2426 -0.45,-0.7191 -1,-1.0591 -0.55,-0.3399 -1,-0.1414 -1,0.441 0,0.5825 0.45,1.059 1,1.059 0.55,0 1,-0.1984 1,-0.4409 z m 3.6623,-32.8091 c -0.2774,-0.6875 -0.5044,-0.125 -0.5044,1.25 0,1.375 0.227,1.9375 0.5044,1.25 0.2774,-0.6875 0.2774,-1.8125 0,-2.5 z m -22.9565,-5 c -0.2384,-1.2375 -0.4334,-0.225 -0.4334,2.25 0,2.475 0.195,3.4875 0.4334,2.25 0.2383,-1.2375 0.2383,-3.2625 0,-4.5 z m 1.0176,-23 c -0.2218,-1.7875 -0.4033,-0.325 -0.4033,3.25 0,3.575 0.1815,5.0375 0.4033,3.25 0.2218,-1.7875 0.2218,-4.7125 0,-6.5 z m 18.2766,-18.75 c 0,-2.2 -0.45,-4 -1,-4 -0.55,0 -1,1.8 -1,4 0,2.2 0.45,4 1,4 0.55,0 1,-1.8 1,-4 z m -22.3377,-3.25 c -0.2774,-0.6875 -0.5044,-0.125 -0.5044,1.25 0,1.375 0.227,1.9375 0.5044,1.25 0.2774,-0.6875 0.2774,-1.8125 0,-2.5 z m -349.6623,12.75 c 1.8658,-1.925 3.6174,-3.5 3.8924,-3.5 0.275,0 -1.0266,1.575 -2.8924,3.5 -1.8658,1.925 -3.6173,3.5 -3.8923,3.5 -0.275,0 1.0265,-1.575 2.8923,-3.5 z m 146.4371,-0.75 -2.9371,-3.25 3.25,2.9371 c 3.0295,2.7378 3.7097,3.5629 2.9371,3.5629 -0.1721,0 -1.6346,-1.4625 -3.25,-3.25 z m 38.0629,0.25 c 0.9955,-1.1 2.035,-2 2.31,-2 0.275,0 -0.3145,0.9 -1.31,2 -0.9955,1.1 -2.0349,2 -2.3099,2 -0.275,0 0.3144,-0.9 1.3099,-2 z m 12.579,-25.5833 c 0.048,-1.1649 0.2849,-1.4019 0.6041,-0.6042 0.2889,0.7219 0.2534,1.5844 -0.079,1.9167 -0.3323,0.3323 -0.5686,-0.2583 -0.5252,-1.3125 z m 1,-6 c 0.048,-1.1649 0.2849,-1.4019 0.6041,-0.6042 0.2889,0.7219 0.2534,1.5844 -0.079,1.9167 -0.3323,0.3323 -0.5686,-0.2583 -0.5252,-1.3125 z m -249,-1 c 0.048,-1.1649 0.2849,-1.4019 0.6041,-0.6042 0.2889,0.7219 0.2534,1.5844 -0.079,1.9167 -0.3323,0.3323 -0.5686,-0.2583 -0.5252,-1.3125 z m 66.1934,-7.4167 c 0,-2.475 0.195,-3.4875 0.4334,-2.25 0.2383,1.2375 0.2383,3.2625 0,4.5 -0.2384,1.2375 -0.4334,0.225 -0.4334,-2.25 z m -66.1934,-6.5833 c 0.048,-1.1649 0.2849,-1.4019 0.6041,-0.6042 0.2889,0.7219 0.2534,1.5844 -0.079,1.9167 -0.3323,0.3323 -0.5686,-0.2583 -0.5252,-1.3125 z m 249,-2 c 0.048,-1.1649 0.2849,-1.4019 0.6041,-0.6042 0.2889,0.7219 0.2534,1.5844 -0.079,1.9167 -0.3323,0.3323 -0.5686,-0.2583 -0.5252,-1.3125 z m -393.079,-21.6765 c 5.6895,-1.7159 9.8216,-5.364 10.9898,-9.7021 0.5788,-2.1494 2.2109,-5.8497 3.6269,-8.223 1.4161,-2.3733 2.3425,-3.6401 2.0588,-2.8151 -1.5114,4.3946 -5.9895,14.5496 -7.2938,16.5403 -1.5569,2.3761 -8.1337,5.5358 -11.1519,5.3577 -0.9514,-0.056 -0.1548,-0.5772 1.7702,-1.1578 z m 534.5,-0.2428 c -4.5594,-1.6179 -7.7134,-5.0782 -9.4393,-10.3561 -0.6548,-2.0027 -1.4448,-4.2664 -1.7554,-5.0305 -0.3314,-0.8152 -0.1296,-1.1202 0.4885,-0.7382 0.5793,0.358 1.7774,2.831 2.6624,5.4956 2.1183,6.3776 5.28,9.2351 10.9221,9.871 6.6057,0.7446 9.2905,-0.2992 12.6309,-4.9106 1.645,-2.2707 2.9908,-3.5582 2.9908,-2.8609 0,2.0467 -7.5797,9.0323 -9.8005,9.0323 -1.1198,0 -2.6352,0.2063 -3.3677,0.4584 -0.7325,0.2521 -3.1318,-0.1803 -5.3318,-0.961 z m -540.6875,-0.1805 c 0.7219,-0.2888 1.5844,-0.2533 1.9167,0.079 0.3323,0.3323 -0.2583,0.5686 -1.3125,0.5252 -1.1649,-0.048 -1.4019,-0.2849 -0.6042,-0.6042 z m -6.6244,-4.2764 c -1.2034,-1.6277 -2.1881,-3.2901 -2.1881,-3.6942 0,-0.4042 1.125,0.79 2.5,2.6537 1.375,1.8638 2.5,3.5262 2.5,3.6943 0,0.8172 -0.8131,0.05 -2.8119,-2.6538 z m 207.7581,-5.7905 -3.4462,-3.75 3.75,3.4462 c 2.0625,1.8954 3.75,3.5829 3.75,3.75 0,0.7636 -0.8462,0.044 -4.0538,-3.4462 z m 144.0538,3.4371 c 0,-0.1721 1.4625,-1.6346 3.25,-3.25 l 3.25,-2.9371 -2.9371,3.25 c -2.7377,3.0295 -3.5629,3.7097 -3.5629,2.9371 z m 39.405,-3.9371 -1.905,-2.25 2.25,1.905 c 1.2375,1.0478 2.25,2.0603 2.25,2.25 0,0.8003 -0.8048,0.2095 -2.595,-1.905 z m -394.1528,-2.25 c 0.011,-2.2 0.2159,-2.9822 0.4551,-1.7383 0.2392,1.2439 0.2301,3.0439 -0.02,4 -0.2503,0.9561 -0.446,-0.062 -0.4349,-2.2617 z m 568.8268,-0.083 c 0.048,-1.1649 0.2849,-1.4019 0.6041,-0.6042 0.2889,0.7219 0.2534,1.5844 -0.079,1.9167 -0.3323,0.3323 -0.5686,-0.2583 -0.5252,-1.3125 z m -567.9629,-4.9167 c 0.056,-1.7463 3.7342,-9.0671 3.7678,-7.5 0.018,0.825 -0.83,3.075 -1.8839,5 -1.0539,1.925 -1.9016,3.05 -1.8839,2.5 z m 187.6964,-0.1831 c 0.7219,-0.2888 1.5844,-0.2533 1.9167,0.079 0.3323,0.3323 -0.2583,0.5686 -1.3125,0.5252 -1.1649,-0.048 -1.4019,-0.2849 -0.6042,-0.6042 z m 183.9375,0.021 c 0.6875,-0.2774 1.8125,-0.2774 2.5,0 0.6875,0.2774 0.125,0.5043 -1.25,0.5043 -1.375,0 -1.9375,-0.2269 -1.25,-0.5043 z m 5.5191,-0.031 c 0.9729,-0.2536 2.3229,-0.2369 3,0.037 0.677,0.2739 -0.1191,0.4814 -1.7691,0.461 -1.65,-0.02 -2.2039,-0.2445 -1.2309,-0.498 z m 187.6123,-3.1326 c -0.8597,-1.0041 -1.8402,-3.5916 -2.1788,-5.75 -0.7101,-4.5255 0.4687,-3.0248 2.7883,3.5498 1.6109,4.5656 1.5632,4.7377 -0.6095,2.2002 z m -30.2578,-1.7131 c -0.965,-2.5147 -0.6803,-3.1636 0.4985,-1.1364 0.5837,1.0038 0.8506,2.0357 0.5931,2.2932 -0.2574,0.2574 -0.7487,-0.2631 -1.0916,-1.1568 z m -502.6236,-0.1036 c 0,-0.5365 0.6999,-1.849 1.5552,-2.9166 1.4664,-1.8303 1.4872,-1.7984 0.3645,0.5588 -1.4578,3.0611 -1.9197,3.6284 -1.9197,2.3578 z m 500.1443,-6.1078 c -1.0912,-2.55 -1.0665,-2.6088 0.3395,-0.8088 0.8339,1.0676 1.5162,2.3051 1.5162,2.75 0,1.5199 -0.6783,0.8103 -1.8557,-1.9412 z m -528.1136,1.25 c 0,-0.55 0.4362,-1.675 0.9693,-2.5 0.5332,-0.825 0.9694,-1.05 0.9694,-0.5 0,0.55 -0.4362,1.675 -0.9694,2.5 -0.5331,0.825 -0.9693,1.05 -0.9693,0.5 z m 31,-1 c 0,-0.55 0.4362,-1.675 0.9693,-2.5 0.5332,-0.825 0.9694,-1.05 0.9694,-0.5 0,0.55 -0.4362,1.675 -0.9694,2.5 -0.5331,0.825 -0.9693,1.05 -0.9693,0.5 z m 524.5693,-5.6 c -0.9871,-1.6711 -1.5592,-3.2741 -1.2711,-3.5621 0.288,-0.2881 1.265,0.9099 2.1711,2.6621 2.1403,4.1389 1.4318,4.8474 -0.9,0.9 z m -552.5096,-0.4 c 0,-0.55 1.0843,-3.025 2.4096,-5.5 1.3253,-2.475 2.4097,-4.05 2.4097,-3.5 0,0.55 -1.0844,3.025 -2.4097,5.5 -1.3253,2.475 -2.4096,4.05 -2.4096,3.5 z m 31.9096,-2.4409 c 0,-0.5176 0.4449,-1.216 0.9886,-1.552 0.5668,-0.3503 0.7345,0.051 0.393,0.941 -0.6648,1.7324 -1.3816,2.0494 -1.3816,0.611 z m 486,-5.0591 c -1.1223,-2.2 -1.8156,-4 -1.5406,-4 0.275,0 1.4183,1.8 2.5406,4 1.1224,2.2 1.8157,4 1.5407,4 -0.275,0 -1.4183,-1.8 -2.5407,-4 z m -484,1.0591 c 0,-0.5176 0.4449,-1.216 0.9886,-1.552 0.5668,-0.3503 0.7345,0.051 0.393,0.941 -0.6648,1.7324 -1.3816,2.0494 -1.3816,0.611 z m 515.1443,-1.8091 c -1.0912,-2.55 -1.0665,-2.6088 0.3395,-0.8088 0.8339,1.0676 1.5162,2.3051 1.5162,2.75 0,1.5199 -0.6783,0.8103 -1.8557,-1.9412 z m -513.1443,-1.9608 c 0,-0.5744 0.7875,-1.6619 1.75,-2.4167 1.6188,-1.2695 1.64,-1.2225 0.283,0.6275 -0.8069,1.1 -1.5944,2.1875 -1.75,2.4167 -0.1556,0.2292 -0.283,-0.053 -0.283,-0.6275 z m -28,-6.2892 c 0.5887,-1.1 1.2954,-2 1.5704,-2 0.275,0 0.018,0.9 -0.5704,2 -0.5887,1.1 -1.2953,2 -1.5703,2 -0.275,0 -0.018,-0.9 0.5703,-2 z m 504,-2 c -0.5887,-1.1 -0.8453,-2 -0.5703,-2 0.275,0 0.9816,0.9 1.5703,2 0.5887,1.1 0.8454,2 0.5704,2 -0.275,0 -0.9817,-0.9 -1.5704,-2 z m 29,-5 c -0.5887,-1.1 -0.8453,-2 -0.5703,-2 0.275,0 0.9816,0.9 1.5703,2 0.5887,1.1 0.8454,2 0.5704,2 -0.275,0 -0.9817,-0.9 -1.5704,-2 z m -39.4887,-10.6231 c -0.9453,-1.4427 -1.2245,-2.3176 -0.6204,-1.9443 1.1544,0.7135 3.4827,4.5674 2.7593,4.5674 -0.2311,0 -1.1936,-1.1804 -2.1389,-2.6231 z m -481.947,-2.67 c 0.3756,-0.9862 0.9347,-1.5412 1.2426,-1.2333 0.3079,0.3079 6e-4,1.1148 -0.6828,1.7931 -0.9876,0.9803 -1.1025,0.8654 -0.5598,-0.5598 z"
         id="path98" /><path
         style="fill:#d78a18"
         d="m -2011.3832,4609.9702 c 1.52,-0.2299 3.77,-0.2237 5,0.014 1.2299,0.2374 -0.014,0.4254 -2.7638,0.4179 -2.75,-0.01 -3.7563,-0.2017 -2.2362,-0.4315 z m 21.9862,0 c 1.5125,-0.2291 3.9875,-0.2291 5.5,0 1.5125,0.2291 0.275,0.4166 -2.75,0.4166 -3.025,0 -4.2625,-0.1875 -2.75,-0.4166 z m -36.9809,-0.9767 c 0.9729,-0.2536 2.3229,-0.2369 3,0.037 0.677,0.2739 -0.1191,0.4814 -1.7691,0.461 -1.65,-0.02 -2.2039,-0.2445 -1.2309,-0.498 z m 54,0 c 0.9729,-0.2536 2.3229,-0.2369 3,0.037 0.677,0.2739 -0.1191,0.4814 -1.7691,0.461 -1.65,-0.02 -2.2039,-0.2445 -1.2309,-0.498 z m -63.5191,-0.9693 c 0.6875,-0.2774 1.8125,-0.2774 2.5,0 0.6875,0.2774 0.125,0.5043 -1.25,0.5043 -1.375,0 -1.9375,-0.2269 -1.25,-0.5043 z m 74,0 c 0.6875,-0.2774 1.8125,-0.2774 2.5,0 0.6875,0.2774 0.125,0.5043 -1.25,0.5043 -1.375,0 -1.9375,-0.2269 -1.25,-0.5043 z m -81,-1 c 0.6875,-0.2774 1.8125,-0.2774 2.5,0 0.6875,0.2774 0.125,0.5043 -1.25,0.5043 -1.375,0 -1.9375,-0.2269 -1.25,-0.5043 z m 88,0 c 0.6875,-0.2774 1.8125,-0.2774 2.5,0 0.6875,0.2774 0.125,0.5043 -1.25,0.5043 -1.375,0 -1.9375,-0.2269 -1.25,-0.5043 z m -93.95,-1.5378 c 0.9334,-0.9333 1.4667,-0.9333 2.4,0 0.9334,0.9334 0.6667,1.2 -1.2,1.2 -1.8666,0 -2.1333,-0.2666 -1.2,-1.2 z m 151.95,-13.4622 c 0.6875,-0.2774 1.8125,-0.2774 2.5,0 0.6875,0.2774 0.125,0.5043 -1.25,0.5043 -1.375,0 -1.9375,-0.2269 -1.25,-0.5043 z m -9.345,-4.5878 -1.905,-2.25 2.25,1.905 c 2.1145,1.7902 2.7053,2.595 1.905,2.595 -0.1897,0 -1.2022,-1.0125 -2.25,-2.25 z m -34.7688,-1.2442 c 0.3154,-0.8219 0.9836,-1.2408 1.4849,-0.9309 1.0486,0.648 0.2068,2.4251 -1.1487,2.4251 -0.5003,0 -0.6516,-0.6724 -0.3362,-1.4942 z m -183.6362,-3.0058 c -1.375,-0.786 -2.05,-1.4291 -1.5,-1.4291 0.55,0 2.125,0.6431 3.5,1.4291 1.375,0.7861 2.05,1.4292 1.5,1.4292 -0.55,0 -2.125,-0.6431 -3.5,-1.4292 z m 105.75,-1.1622 c 0.6875,-0.2774 1.8125,-0.2774 2.5,0 0.6875,0.2774 0.125,0.5043 -1.25,0.5043 -1.375,0 -1.9375,-0.2269 -1.25,-0.5043 z m 39,0 c 0.6875,-0.2774 1.8125,-0.2774 2.5,0 0.6875,0.2774 0.125,0.5043 -1.25,0.5043 -1.375,0 -1.9375,-0.2269 -1.25,-0.5043 z m -62.9375,-3.0209 c 0.7219,-0.2888 1.5844,-0.2533 1.9167,0.079 0.3323,0.3323 -0.2583,0.5686 -1.3125,0.5252 -1.1649,-0.048 -1.4019,-0.2849 -0.6042,-0.6042 z m 181.1875,-0.7655 c 0,-0.275 1.35,-1.1981 3,-2.0514 1.65,-0.8532 3,-1.3263 3,-1.0513 0,0.275 -1.35,1.1981 -3,2.0513 -1.65,0.8533 -3,1.3264 -3,1.0514 z m -276,-1.5514 c -0.9013,-0.5824 -1.0246,-0.9754 -0.309,-0.9846 0.6551,-0.01 1.4691,0.4346 1.809,0.9846 0.7673,1.2416 0.4212,1.2416 -1.5,0 z m -4.5588,-2.5551 c -1.8641,-1.4934 -1.8518,-1.5119 0.3088,-0.4648 1.2375,0.5997 2.25,1.2995 2.25,1.5551 0,0.7652 -0.5186,0.5443 -2.5588,-1.0903 z m 54.6378,-0.028 c 0.048,-1.1649 0.2849,-1.4019 0.6041,-0.6042 0.2889,0.7219 0.2534,1.5844 -0.079,1.9167 -0.3323,0.3323 -0.5686,-0.2583 -0.5252,-1.3125 z m 181.921,-5.9167 c 1.2918,-1.375 2.5737,-2.5 2.8487,-2.5 0.275,0 -0.5569,1.125 -1.8487,2.5 -1.2917,1.375 -2.5736,2.5 -2.8486,2.5 -0.275,0 0.5569,-1.125 1.8486,-2.5 z m -192,-0.8834 c 0,-0.2109 1.1114,-0.5959 2.4698,-0.8555 1.3583,-0.2597 2.2318,-0.087 1.9409,0.3834 -0.512,0.8286 -4.4107,1.2459 -4.4107,0.4721 z m -7.4929,-5.6051 c -0.3503,-0.5669 0.051,-0.7345 0.941,-0.393 1.7324,0.6648 2.0494,1.3815 0.6109,1.3815 -0.5175,0 -1.2159,-0.4448 -1.5519,-0.9885 z m 224.2429,-1.6737 c 0.6875,-0.2774 1.8125,-0.2774 2.5,0 0.6875,0.2774 0.125,0.5043 -1.25,0.5043 -1.375,0 -1.9375,-0.2269 -1.25,-0.5043 z m 50.25,0.2847 c 0,-0.2077 0.7875,-0.9952 1.75,-1.75 1.5861,-1.2439 1.6215,-1.2085 0.3776,0.3775 -1.3064,1.6658 -2.1276,2.1955 -2.1276,1.3725 z m -284,-2.6225 c -0.825,-0.5331 -1.05,-0.9693 -0.5,-0.9693 0.55,0 1.675,0.4362 2.5,0.9693 0.825,0.5332 1.05,0.9694 0.5,0.9694 -0.55,0 -1.675,-0.4362 -2.5,-0.9694 z m 239,-3.393 c 0,-0.2161 0.6984,-0.661 1.552,-0.9885 0.8899,-0.3415 1.2913,-0.1739 0.9409,0.393 -0.5872,0.9502 -2.4929,1.4054 -2.4929,0.5955 z m -306.5,-6.2165 -4,-3.5799 4.25,3.1788 c 3.6579,2.7358 4.9774,4.0539 4,3.9958 -0.1375,-0.01 -2.05,-1.6258 -4.25,-3.5947 z m 312.5,3.1609 c 0,-0.275 1.35,-1.1981 3,-2.0514 1.65,-0.8532 3,-1.3263 3,-1.0513 0,0.275 -1.35,1.1981 -3,2.0513 -1.65,0.8533 -3,1.3264 -3,1.0514 z m -263.25,-3.1171 c -2.6125,-1.3599 -4.75,-2.6965 -4.75,-2.9703 0,-0.2737 2.25,0.6425 5,2.036 2.75,1.3936 5,2.7512 5,3.0169 0,0.6614 0.09,0.6971 -5.25,-2.0826 z m 316.25,2.1882 c 0,-0.2077 0.7875,-0.9952 1.75,-1.75 1.5861,-1.2439 1.6215,-1.2085 0.3776,0.3775 -1.3064,1.6658 -2.1276,2.1955 -2.1276,1.3725 z m -42,-5.0521 c 0,-0.275 0.9,-0.9817 2,-1.5704 1.1,-0.5887 2,-0.8453 2,-0.5703 0,0.275 -0.9,0.9816 -2,1.5703 -1.1,0.5887 -2,0.8454 -2,0.5704 z m -331.9855,-4.0554 c -1.8578,-1.9167 -3.1835,-3.6388 -2.9461,-3.8268 0.2374,-0.1881 1.9463,1.3802 3.7976,3.485 4.2067,4.7826 3.664,5.0005 -0.8515,0.3418 z m 50.0933,2.7753 c -0.7657,-0.3034 -3.8779,-2.2929 -6.9158,-4.421 -3.0379,-2.1281 -6.6221,-3.8693 -7.9647,-3.8693 -1.6632,0 -2.2727,-0.4392 -1.9124,-1.3781 0.2909,-0.758 0,-1.9068 -0.643,-2.553 -0.9859,-0.9884 18.018,11.3967 19.2448,12.5421 0.5195,0.4851 -0.015,0.3903 -1.8089,-0.3207 z m 334.3922,-2.2903 c 0.9955,-1.1 2.035,-2 2.31,-2 0.275,0 -0.3145,0.9 -1.31,2 -0.9955,1.1 -2.0349,2 -2.3099,2 -0.275,0 0.3144,-0.9 1.3099,-2 z m 3.0643,-4.2931 c 0.3756,-0.9862 0.9347,-1.5412 1.2426,-1.2333 0.3079,0.3079 6e-4,1.1148 -0.6828,1.7931 -0.9876,0.9803 -1.1025,0.8654 -0.5598,-0.5598 z m -391.4281,-5.8632 c -0.1227,-4.1941 0.062,-4.6045 1.8638,-4.1334 2.2719,0.5941 2.7626,4.2897 0.5696,4.2897 -0.7868,0 -1.6255,1.0125 -1.8638,2.25 -0.2384,1.2375 -0.4947,0.1547 -0.5696,-2.4063 z m 351.8638,3.8796 c 0,-0.1909 1.4625,-1.4178 3.25,-2.7263 2.0111,-1.4723 2.7096,-1.7138 1.8323,-0.6335 -1.3317,1.6398 -5.0823,4.1192 -5.0823,3.3598 z m 41.232,-3.7233 c 0,-1.925 0.2058,-2.7125 0.4574,-1.75 0.2515,0.9625 0.2515,2.5375 0,3.5 -0.2516,0.9625 -0.4574,0.175 -0.4574,-1.75 z m -34.232,-1.3775 c 0,-0.2077 0.7875,-0.9952 1.75,-1.75 1.5861,-1.2439 1.6215,-1.2085 0.3776,0.3775 -1.3064,1.6658 -2.1276,2.1955 -2.1276,1.3725 z m -329.595,-3.8725 -1.905,-2.25 2.25,1.905 c 1.2375,1.0478 2.25,2.0603 2.25,2.25 0,0.8003 -0.8048,0.2095 -2.595,-1.905 z m 333.595,0.9368 c 0,-0.2471 1.652,-1.7094 3.6712,-3.2495 2.0191,-1.5401 3.3555,-2.2894 2.9697,-1.6652 -0.7912,1.2802 -6.6409,5.6094 -6.6409,4.9147 z m 22,-1.6868 c 0,-1.3333 0.6667,-2 2,-2 1.3334,0 2,0.6667 2,2 0,1.3334 -0.6666,2 -2,2 -1.3333,0 -2,-0.6666 -2,-2 z m 7,1.2434 c 0,-0.5994 -1.2216,-2.5869 -2.7148,-4.4166 -2.2324,-2.7357 -2.3048,-2.9734 -0.4074,-1.3379 2.6952,2.3229 4.5339,5.4328 3.7032,6.2635 -0.3195,0.3195 -0.581,0.091 -0.581,-0.509 z m -368.4634,-4.3933 c -2.1129,-1.662 -2.9137,-1.8579 -3.5283,-0.8634 -0.4373,0.7075 -3.0931,1.5073 -5.9017,1.7771 -4.6955,0.4512 -5.1066,0.3195 -5.1066,-1.6365 0,-1.4606 0.6268,-2.1273 2,-2.1273 1.1,0 2,-0.6276 2,-1.3946 0,-2.1131 6.0444,-0.436 10.3987,2.8852 3.291,2.5101 4.2125,3.5094 3.2362,3.5094 -0.2008,0 -1.5951,-0.9674 -3.0983,-2.1499 z m 349.4634,-0.4091 c 0,-0.9193 -0.5129,-1.2984 -1.25,-0.9238 -0.6875,0.3494 -0.1876,-0.2991 1.1108,-1.441 1.2984,-1.1419 3.0984,-2.0445 4,-2.0059 1.2891,0.055 1.2121,0.2659 -0.3608,0.9862 -1.4428,0.6606 -0.4493,0.85 3.5656,0.6797 5.2857,-0.2243 5.5439,-0.123 5.1334,2.0138 -0.3898,2.0295 -1.0089,2.25 -6.3155,2.25 -4.6621,0 -5.8835,-0.3236 -5.8835,-1.559 z m -367,-2.3319 c 1.375,-1.1355 3.175,-2.0718 4,-2.0807 1.3154,-0.014 0.5155,0.5191 -5.2471,3.4976 -0.6891,0.3562 -0.1279,-0.2814 1.2471,-1.4169 z m 375.8125,-1.7922 c 0.7219,-0.2888 1.5844,-0.2533 1.9167,0.079 0.3323,0.3323 -0.2583,0.5686 -1.3125,0.5252 -1.1649,-0.048 -1.4019,-0.2849 -0.6042,-0.6042 z m -411.3701,-14.2236 c 0.3082,-0.4987 -0.3726,-0.6628 -1.5129,-0.3646 -1.5622,0.4086 -3.2263,-0.6864 -6.7514,-4.4423 -5.7095,-6.0835 -19.6963,-25.5949 -24.2197,-33.7864 -1.8223,-3.3 -4.1619,-7.2344 -5.1991,-8.7431 -1.0371,-1.5088 -1.6228,-3.1686 -1.3015,-3.6886 0.3214,-0.5199 -0.046,-1.3105 -0.816,-1.7568 -1.7006,-0.9855 -8.9162,-15.3594 -14.2122,-28.3115 -4.3361,-10.6046 -4.9232,-16.6921 -1.9287,-20.001 0.995,-1.0994 2.7519,-2.0306 3.9041,-2.0692 2.0304,-0.068 2.034,-0.094 0.1173,-0.843 -1.9662,-0.7682 -1.9661,-0.7789 0.018,-1.841 3.4696,-1.8568 8.8729,-2.4191 11.9697,-1.2455 4.773,1.8088 7.2406,4.8056 10.0839,12.2464 7.228,18.9155 24.0809,48.4241 37.7785,66.1483 4.109,5.3169 6.0046,8.6327 5.8052,10.1544 -0.1628,1.2428 0.2287,2.584 0.8701,2.9804 0.8222,0.5081 0.973,0.02 0.5113,-1.6545 -0.5853,-2.1228 -0.5312,-2.1767 0.5087,-0.5071 1.4525,2.3321 0.6472,8.8913 -1.4927,12.1571 -0.8825,1.347 -3.3801,3.3548 -5.5502,4.4619 -4.003,2.0422 -9.6078,2.7645 -8.5828,1.1061 z m 444.0576,-0.2602 c -6.2723,-3.4692 -9.2622,-9.6885 -7.5416,-15.6878 0.5117,-1.7844 4.3243,-7.7166 8.4723,-13.1827 7.1877,-9.4715 17.8702,-25.3332 18.4955,-27.4626 0.1615,-0.55 1.0915,-2.125 2.0667,-3.5 2.4742,-3.4886 11.2031,-21.0085 14.9469,-30 5.1933,-12.4731 6.2919,-14.1988 10.0336,-15.7622 4.3525,-1.8186 12.4939,-1.0298 15.2662,1.479 2.8622,2.5903 4.7604,6.7277 4.7604,10.376 0,6.1673 -11.6975,32.2984 -23.1899,51.8041 -10.5464,17.9 -26.3506,39.5052 -28.1049,38.4209 -0.5644,-0.3488 -0.7094,-0.1337 -0.327,0.4851 1.8442,2.984 -10.4387,5.4856 -14.8782,3.0302 z m -1.5,-3.2261 c 0,-0.2161 -0.6983,-0.661 -1.5519,-0.9885 -0.8899,-0.3415 -1.2913,-0.1739 -0.941,0.393 0.5873,0.9502 2.4929,1.4054 2.4929,0.5955 z m 24,-54.607 c 0,-0.55 -0.1984,-1 -0.441,-1 -0.2425,0 -0.7191,0.45 -1.059,1 -0.3399,0.55 -0.1414,1 0.441,1 0.5825,0 1.059,-0.45 1.059,-1 z m -528.2383,-78.7072 c 1.2439,-0.2392 3.0439,-0.2301 4,0.02 0.9561,0.2503 -0.062,0.446 -2.2617,0.4349 -2.2,-0.011 -2.9822,-0.2159 -1.7383,-0.4551 z m 572.8767,-0.7928 c 0.6981,-1.8191 3.0259,-1.9792 3.6358,-0.25 0.3311,0.9388 1.2857,0.7961 3.8334,-0.5728 l 3.3924,-1.8229 -2.3608,2.0729 c -2.8569,2.5085 -9.4131,2.9503 -8.5008,0.5728 z m -564.6384,-0.9648 c 0,-0.8685 0.8685,-1.5352 2,-1.5352 1.1,0 2,0.2092 2,0.4649 0,0.2556 -0.9,0.9464 -2,1.5351 -1.5963,0.8544 -2,0.7605 -2,-0.4648 z m 552.5,-4.5352 c -0.3399,-0.55 -0.1414,-1 0.441,-1 0.5825,0 1.059,0.45 1.059,1 0,0.55 -0.1984,1 -0.441,1 -0.2425,0 -0.7191,-0.45 -1.059,-1 z m 23.5,-2.059 c 0,-0.5824 0.45,-0.7809 1,-0.441 0.55,0.34 1,0.8165 1,1.0591 0,0.2425 -0.45,0.4409 -1,0.4409 -0.55,0 -1,-0.4765 -1,-1.059 z m -568.8421,-8.941 c 0,-1.375 0.227,-1.9375 0.5044,-1.25 0.2774,0.6875 0.2774,1.8125 0,2.5 -0.2774,0.6875 -0.5044,0.125 -0.5044,-1.25 z m 574,-22 c 0,-1.375 0.227,-1.9375 0.5044,-1.25 0.2774,0.6875 0.2774,1.8125 0,2.5 -0.2774,0.6875 -0.5044,0.125 -0.5044,-1.25 z m -393.9079,-127.6893 c 0.9625,-0.2515 2.5375,-0.2515 3.5,0 0.9625,0.2515 0.175,0.4573 -1.75,0.4573 -1.925,0 -2.7125,-0.2058 -1.75,-0.4573 z"
         id="path97" /><path
         style="fill:#ce780e"
         d="m -2004.7303,4610.3235 c -0.2292,-0.2004 -5.823,-0.6373 -12.4306,-0.971 -13.9015,-0.702 -27.4522,-2.5039 -29.1923,-3.8818 -0.6634,-0.5253 -1.6422,-0.6857 -2.175,-0.3563 -1.9513,1.2059 -6.1419,-1.8431 -8.104,-5.8962 -2.5283,-5.2228 -2.5305,-7.5992 -0.012,-12.5369 3.5119,-6.8838 8.4077,-8.3219 21.1009,-6.1984 14.0155,2.3447 60.8036,2.3266 74.4128,-0.029 7.4144,-1.2833 10.948,-1.4767 13.6001,-0.7444 4.3184,1.1924 7.3685,4.2704 6.4929,6.5522 -0.4453,1.1604 -0.2096,1.4863 0.7959,1.1004 2.8331,-1.0871 3.63,7.4216 1.1452,12.2267 -2.3821,4.6066 -6.2236,6.3554 -17.0417,7.7581 -14.7082,1.9071 -47.5172,3.9167 -48.5927,2.9765 z m -101.9167,-20.1358 c -1.375,-0.786 -3.0329,-1.445 -3.6843,-1.4645 -1.9485,-0.058 -27.097,-12.4246 -37.8263,-18.6004 -17.6686,-10.17 -38.9909,-25.4433 -43.4705,-31.1382 -2.3946,-3.0442 -2.697,-7.2969 -0.5189,-7.2969 0.8334,0 1.5,-0.8888 1.5,-2 0,-1.1111 -0.6666,-2 -1.5,-2 -1.7935,0 -1.8182,-0.2073 -0.3967,-3.3272 0.6068,-1.3318 3.0185,-3.3779 5.3595,-4.5471 4.7998,-2.3971 5.5372,-2.547 5.5372,-1.1257 0,0.55 -0.9,1 -2,1 -1.3732,0 -2,0.6667 -2,2.1273 0,1.956 0.4111,2.0877 5.1066,1.6365 2.8086,-0.2698 5.4422,-1.0336 5.8523,-1.6973 0.7813,-1.264 1.8049,-0.68 12.7383,7.2674 3.3688,2.4488 5.0022,4.2859 4.643,5.222 -0.387,1.0085 0.1608,1.4441 1.8162,1.4441 1.3037,0 4.8393,1.6736 7.857,3.7191 6.0449,4.0974 21.866,12.7007 31.9866,17.3938 3.575,1.6578 7.85,3.6465 9.5,4.4192 1.65,0.7727 5.5771,2.3476 8.7269,3.4997 7.4003,2.7067 10.2017,6.3998 10.2017,13.4486 0,5.5763 -1.642,8.702 -6.1235,11.6569 -3.3348,2.1988 -9.7856,2.3747 -13.3051,0.3627 z m 12.25,-23.1622 c -0.6875,-0.2774 -1.8125,-0.2774 -2.5,0 -0.6875,0.2774 -0.125,0.5043 1.25,0.5043 1.375,0 1.9375,-0.2269 1.25,-0.5043 z m 190.2972,21.5695 c -4.4554,-3.9119 -6.2305,-9.3068 -4.6439,-14.1141 1.5448,-4.6808 5.4959,-8.1384 12.0967,-10.5859 20.913,-7.7541 45.9718,-21.7196 65.5,-36.5037 6.5987,-4.9957 9.0863,-6.3987 9.3234,-5.2586 0.2485,1.1954 1.6939,1.555 6.25,1.555 5.26,0 5.9266,-0.2249 5.9266,-2 0,-1.7379 -0.6878,-2.0083 -5.25,-2.0633 -4.3315,-0.052 -4.837,-0.2288 -2.8893,-1.0088 6.8176,-2.7301 16.1393,4.8108 16.1393,13.0561 0,6.9549 -5.6515,12.4484 -28.5,27.7026 -17.5574,11.7218 -32.6611,19.743 -56.8771,30.2062 -7.2559,3.135 -12.7434,2.8184 -17.0757,-0.9855 z m 25.7028,-28.5695 c -0.6875,-0.2774 -1.8125,-0.2774 -2.5,0 -0.6875,0.2774 -0.125,0.5043 1.25,0.5043 1.375,0 1.9375,-0.2269 1.25,-0.5043 z m 72.75,-34.3378 c 0,-1.3333 -0.6666,-2 -2,-2 -1.3333,0 -2,0.6667 -2,2 0,1.3334 0.6667,2 2,2 1.3334,0 2,-0.6666 2,-2 z m 21.5071,-25.9885 c -0.3503,-0.5669 0.051,-0.7345 0.941,-0.393 1.7324,0.6648 2.0494,1.3815 0.6109,1.3815 -0.5175,0 -1.2159,-0.4448 -1.5519,-0.9885 z m -425.8404,-11.6781 c -0.3667,-0.3667 -0.6381,-1.6042 -0.6033,-2.75 0.058,-1.9156 0.1405,-1.8905 1.0215,0.3118 0.9793,2.4482 0.7762,3.6326 -0.4182,2.4382 z m 450.8333,-42.3334 c 0.3399,-0.55 0.8165,-1 1.059,-1 0.2426,0 0.441,0.45 0.441,1 0,0.55 -0.4765,1 -1.059,1 -0.5824,0 -0.7809,-0.45 -0.441,-1 z"
         id="path96" /><path
         style="fill:#a56508"
         d="m -2098.3603,4295.241 c -25.698,-11.9646 -32.1529,-58.9934 -11.5755,-84.3371 1.913,-2.3561 5.7981,-5.6144 8.6335,-7.2406 6.5396,-3.7507 15.634,-4.1325 22.242,-0.9336 12.5905,6.095 22.4133,25.8759 22.4133,45.1354 0,21.7645 -9.2304,40.2318 -23.4776,46.972 -7.3498,3.4771 -11.4404,3.5677 -18.2357,0.4039 z m 183.2133,-0.4325 c -9.5493,-4.5799 -14.5586,-10.8931 -19.5356,-24.6208 -2.974,-8.2031 -3.2698,-10.0625 -3.3399,-21 -0.085,-13.1852 1.249,-19.2491 6.5612,-29.8339 6.2563,-12.4659 14.8024,-18.6661 25.7289,-18.6661 7.8692,0 12.0754,1.9138 18.604,8.4645 22.4501,22.526 17.1266,73.3266 -8.9782,85.6764 -7.6078,3.5991 -11.5028,3.595 -19.0404,-0.02 z"
         id="path95" /><path
         style="fill:#794004"
         d="m -2135.147,4410.955 c -6.1441,-1.5384 -11.1431,-8.9169 -10.1572,-14.992 0.8069,-4.9722 5.0158,-10.0095 9.4335,-11.2902 2.6072,-0.7559 44.7047,-0.9904 140.4006,-0.7823 136.4337,0.2967 136.6819,0.3009 139.5,2.3683 8.7449,6.4154 7.6391,19.2039 -2.0583,23.8057 -3.1079,1.4747 -15.8496,1.6126 -139.2697,1.5072 -74.7169,-0.064 -136.7489,-0.3413 -137.8489,-0.6167 z"
         id="path94" /></g></g><pattern
     id="b-2"
     width="41"
     height="41"
     patternUnits="userSpaceOnUse"><circle
       fill="#ffffff"
       cx="20.5"
       cy="20.5"
       r="20.5"
       id="circle2" /></pattern></svg>
