<?xml version="1.0" encoding="UTF-8" standalone="no"?>
<!-- Created with Inkscape (http://www.inkscape.org/) -->

<svg
   version="1.1"
   id="svg1"
   width="137.40381"
   height="122.82867"
   viewBox="0 0 137.40381 122.82867"
   sodipodi:docname="Linotte app main inkscape.ai"
   inkscape:version="1.4.2 (ebf0e940, 2025-05-08)"
   xml:space="preserve"
   inkscape:export-batch-path="/Users/giannipie/Documents/Repositories/linotte-web/resources/images/dice"
   inkscape:export-batch-name="rere"
   inkscape:export-filename="/Users/giannipie/Documents/Repositories/linotte-web/resources/images/volume.svg"
   inkscape:export-xdpi="96"
   inkscape:export-ydpi="96"
   xmlns:inkscape="http://www.inkscape.org/namespaces/inkscape"
   xmlns:sodipodi="http://sodipodi.sourceforge.net/DTD/sodipodi-0.dtd"
   xmlns="http://www.w3.org/2000/svg"
   xmlns:svg="http://www.w3.org/2000/svg"><defs
     id="defs1" /><sodipodi:namedview
     id="namedview1"
     pagecolor="#ffffff"
     bordercolor="#000000"
     borderopacity="0.25"
     inkscape:showpageshadow="2"
     inkscape:pageopacity="0.0"
     inkscape:pagecheckerboard="0"
     inkscape:deskcolor="#d1d1d1"
     showgrid="false"
     inkscape:zoom="0.26447451"
     inkscape:cx="1720.3927"
     inkscape:cy="1088.9518"
     inkscape:window-width="1472"
     inkscape:window-height="844"
     inkscape:window-x="0"
     inkscape:window-y="33"
     inkscape:window-maximized="0"
     inkscape:current-layer="g973"><inkscape:page
       x="0"
       y="0"
       width="137.40381"
       height="122.82867"
       id="page4"
       margin="0"
       bleed="0" /></sodipodi:namedview><pattern
     id="b-2"
     width="41"
     height="41"
     patternUnits="userSpaceOnUse"><circle
       fill="#ffffff"
       cx="20.5"
       cy="20.5"
       r="20.5"
       id="circle2" /></pattern><g
     id="g23"
     transform="matrix(0.13451672,0,0,0.13451672,-1079.9253,-7.2222061)"
     style="fill:#000000;fill-opacity:0.497727"
     inkscape:export-filename="/Users/giannipie/Documents/Repositories/linotte-web/resources/images/volume.png"
     inkscape:export-xdpi="96"
     inkscape:export-ydpi="96"><path
       d="m 8502.1871,144.083 v 734.33299 c -16.153,-10.798 -44.438,-31.782 -90.53,-71.775 -51.958,-45.083 -99.188,-90.495 -116.902,-108.209 a 79.999999,79.999999 0 0 0 -56.568,-23.432 h -90 c -22.056,0 -40,-17.944 -40,-40 V 399 c 0,-22.056 17.944,-40 40,-40 h 90 a 79.994999,79.994999 0 0 0 56.568,-23.432 c 1.888,-1.887 4.048,-4.052 6.457,-6.466 22.595,-22.644 69.611,-69.763 116.865,-113.335 41.864,-38.602 68.244,-59.978 84.11,-71.684 m 2,-90.393001 c -43.078,0 -223.667,182.977001 -266,225.310001 h -90 c -66.274,0 -120,53.726 -120,120 v 235.99999 c 0,66.274 53.726,120 120,120 h 90 c 48.667,48.666 222.922,211.801 266,211.801 43.078,0 78,-34.922 78,-78 V 131.69 c 0,-43.078001 -34.922,-78.000001 -78,-78.000001 z m 173.563,703.379991 c -17.592,0 -33.713,-11.692 -38.566,-29.481 -5.814,-21.313 6.749,-43.303 28.062,-49.118 82.441,-22.492 140.019,-97.971 140.019,-183.551 0,-87.13199 -58.884,-162.95499 -143.195,-184.38699 -21.411,-5.443 -34.355,-27.211 -28.912,-48.622 5.442,-21.411 27.22,-34.352 48.621,-28.912 57.186,14.537 108.893,48.191 145.597,94.763 18.377,23.318 32.688,49.285 42.535,77.176 10.188,28.859 15.354,59.134 15.354,89.98199 0,60.477 -19.535,117.661 -56.493,165.371 -35.78,46.189 -86.378,80.056 -142.471,95.359 a 40.058,40.058 0 0 1 -10.551,1.42 z"
       fill="#999999"
       id="path1-5"
       style="fill:#000000;fill-opacity:0.497727" /><path
       d="m 8748.7421,870.17299 c -17.89,0 -34.179,-12.087 -38.755,-30.224 -5.405,-21.42 7.577,-43.166 28.998,-48.57 135.811,-34.271 230.665,-156.179 230.665,-296.459 0,-140.27999 -94.853,-262.18799 -230.664,-296.45799 -21.42,-5.405 -34.402,-27.151 -28.997,-48.571 5.405,-21.419 27.145,-34.402 48.571,-28.998 41.287,10.418 80.35,27.545 116.101,50.906 35.128,22.953 66.137,51.307 92.165,84.275 26.294,33.306 46.77,70.399 60.857,110.249 14.576,41.232 21.967,84.498 21.967,128.59599 0,44.099 -7.391,87.364 -21.968,128.597 -14.088,39.851 -34.563,76.943 -60.857,110.249 -26.028,32.969 -57.037,61.323 -92.166,84.276 -35.751,23.36 -74.813,40.487 -116.102,50.905 a 40.018,40.018 0 0 1 -9.815,1.227 z"
       fill="#999999"
       id="path2-1"
       style="fill:#000000;fill-opacity:0.497727" /></g></svg>
